<svg xmlns="http://www.w3.org/2000/svg" xmlns:svg="http://www.w3.org/2000/svg" xmlns:xlink="http://www.w3.org/1999/xlink" id="svg2" width="22" height="22" version="1.0"><defs id="defs4"><linearGradient id="StandardGradient" x1="11.162" x2="11.162" y1="5.655" y2="18.098" gradientTransform="scale(1.1310246,0.8841541)" gradientUnits="userSpaceOnUse"><stop id="stop3280" offset="0" stop-color="#000" stop-opacity=".863"/><stop id="stop3282" offset="1" stop-color="#000" stop-opacity=".471"/></linearGradient><linearGradient id="linearGradient3627" x1="11.162" x2="11.162" y1="5.655" y2="18.098" gradientTransform="matrix(1.1310246,0,0,0.8841541,-30,0)" gradientUnits="userSpaceOnUse" xlink:href="#StandardGradient"/><linearGradient id="linearGradient3634" x1="11.162" x2="11.162" y1="5.655" y2="18.098" gradientTransform="matrix(1.1310246,0,0,0.8841541,-30,20)" gradientUnits="userSpaceOnUse" xlink:href="#StandardGradient"/><clipPath id="clipPath3637" clipPathUnits="userSpaceOnUse"><path id="path3639" fill="#f0f" fill-opacity="1" stroke="none" d="m -30,0 0,22 22,0 0,-22 -22,0 z m 15.03125,5 3.03125,0 0,5 c 0,1.662 -1.337999,3 -3,3 l -5,0 0,3 L -26,11.5625 -19.9375,7 l 0,2.96875 2.96875,0 c 1.671127,0 2,-0.360122 2,-2.03125 l 0,-2.9375 z" display="inline"/></clipPath><filter id="filter3641"><feGaussianBlur id="feGaussianBlur3643" stdDeviation=".376"/></filter><linearGradient id="linearGradient5224" x1="11.162" x2="11.162" y1="5.655" y2="18.098" gradientTransform="scale(1.1310246,0.8841541)" gradientUnits="userSpaceOnUse" xlink:href="#StandardGradient"/><linearGradient id="linearGradient5228" x1="11.162" x2="11.162" y1="5.655" y2="18.098" gradientTransform="scale(1.1310246,0.8841541)" gradientUnits="userSpaceOnUse" xlink:href="#StandardGradient"/></defs><metadata id="metadata7"/><g id="layer3" display="inline"><path id="path5226" fill="#fff" fill-opacity="1" stroke="none" d="M 14.8125 3.96875 A 1.0437574 1.0437574 0 0 0 14 5 L 14 7.9375 C 14 8.7046015 13.853705 8.8977055 13.90625 8.84375 C 13.958795 8.7897945 13.791846 8.9375 13.03125 8.9375 L 11.09375 8.9375 L 11.09375 7 A 1.0437574 1.0437574 0 0 0 9.4375 6.15625 L 3.375 10.71875 A 1.0437574 1.0437574 0 0 0 3.375 12.40625 L 9.4375 16.84375 A 1.0437574 1.0437574 0 0 0 11.09375 16 L 11.09375 14.03125 L 15.0625 14.03125 C 17.284632 14.03125 19.09375 12.222131 19.09375 10 L 19.09375 5 A 1.0437574 1.0437574 0 0 0 18.0625 3.96875 L 15.03125 3.96875 A 1.0437574 1.0437574 0 0 0 14.8125 3.96875 z M 15.03125 5 L 18.0625 5 L 18.0625 10 C 18.0625 11.662 16.724501 13 15.0625 13 L 10.0625 13 L 10.0625 16 L 4 11.5625 L 10.0625 7 L 10.0625 9.96875 L 13.03125 9.96875 C 14.702377 9.96875 15.03125 9.6086282 15.03125 7.9375 L 15.03125 5 z" display="inline" opacity=".15"/><path id="Symbol" fill="url(#StandardGradient)" fill-opacity="1" stroke="none" stroke-dasharray="none" stroke-linecap="round" stroke-linejoin="miter" stroke-miterlimit="4" stroke-opacity="1" stroke-width="1" d="M 15.024508,5 L 15.024508,7.9375 C 15.024508,9.6086282 14.711261,9.96875 13.040134,9.96875 L 10.071383,9.96875 L 10.071383,7 L 4,11.5625 L 10.071383,16 L 10.071383,13 L 15.071383,13 C 16.733384,13 18.071383,11.662 18.071383,10 L 18.071383,5 L 15.024508,5 z" display="inline" opacity="1"/><path id="BevelShadow" fill="#000" fill-opacity="1" stroke="none" stroke-dasharray="none" stroke-linecap="round" stroke-linejoin="miter" stroke-miterlimit="4" stroke-opacity="1" stroke-width="1" d="M 15.03125 5 L 15.03125 6 L 18.0625 6 L 18.0625 5 L 15.03125 5 z M 10.0625 7 L 4 11.5625 L 4.6875 12.0625 L 10.0625 8 L 10.0625 7 z M 15.03125 7.9375 C 15.03125 9.6086282 14.702377 9.96875 13.03125 9.96875 L 10.0625 9.96875 L 10.0625 10.96875 L 13.03125 10.96875 C 14.702377 10.96875 15.03125 10.608628 15.03125 8.9375 L 15.03125 7.9375 z" display="inline" opacity=".5"/><path id="BevelHighlight" fill="#fff" fill-opacity="1" stroke="none" stroke-dasharray="none" stroke-linecap="round" stroke-linejoin="miter" stroke-miterlimit="4" stroke-opacity="1" stroke-width="1" d="M 18.0625 10 C 18.0625 11.662 16.724501 13 15.0625 13 L 10.0625 13 L 10.0625 14 L 15.0625 14 C 16.724501 14 18.0625 12.662 18.0625 11 L 18.0625 10 z M 4 11.5625 L 4 12.5625 L 10.0625 17 L 10.0625 16 L 4 11.5625 z" display="inline" opacity=".3"/></g></svg>