<svg xmlns="http://www.w3.org/2000/svg" xmlns:svg="http://www.w3.org/2000/svg" xmlns:xlink="http://www.w3.org/1999/xlink" id="svg2" width="22" height="22" display="inline" version="1.0"><defs id="defs4"><linearGradient id="StandardGradient" x1="11.999" x2="11.999" y1=".922" y2="19.387" gradientTransform="scale(0.9219544,1.0846523)" gradientUnits="userSpaceOnUse"><stop id="stop3283" offset="0" stop-color="#000" stop-opacity=".863"/><stop id="stop2651" offset="1" stop-color="#000" stop-opacity=".471"/></linearGradient><linearGradient id="linearGradient2549" x1="11.999" x2="11.999" y1=".922" y2="17.478" gradientTransform="matrix(0.9247229,0,0,1.0872097,-1.0600562,0.9976422)" gradientUnits="userSpaceOnUse" xlink:href="#StandardGradient"/><linearGradient id="linearGradient2394" x1="11.999" x2="11.999" y1=".922" y2="17.478" gradientTransform="matrix(0.9247229,0,0,1.0872097,-6.0600562,5.9976422)" gradientUnits="userSpaceOnUse" xlink:href="#StandardGradient"/><linearGradient id="linearGradient3176" x1="11.999" x2="11.999" y1=".922" y2="17.478" gradientTransform="matrix(0.9247229,0,0,1.0872097,-6.0600562,5.9976422)" gradientUnits="userSpaceOnUse" xlink:href="#StandardGradient"/><linearGradient id="linearGradient3182" x1="11.999" x2="11.999" y1=".922" y2="17.478" gradientTransform="matrix(0.9247229,0,0,1.0872097,-6.0600562,5.9976422)" gradientUnits="userSpaceOnUse" xlink:href="#StandardGradient"/><linearGradient id="linearGradient3185" x1="11.999" x2="11.999" y1=".922" y2="17.478" gradientTransform="matrix(0.9247229,0,0,1.0872097,-1.0600562,0.9976422)" gradientUnits="userSpaceOnUse" xlink:href="#StandardGradient"/><linearGradient id="linearGradient2864" x1="11.999" x2="11.999" y1=".922" y2="17.478" gradientTransform="matrix(0.9247229,0,0,1.0872097,-6.0600562,5.9976422)" gradientUnits="userSpaceOnUse" xlink:href="#StandardGradient"/><linearGradient id="linearGradient2549-9" x1="11.999" x2="11.999" y1=".922" y2="17.478" gradientTransform="matrix(0.9247229,0,0,1.0872097,-2.0600562,0.9976422)" gradientUnits="userSpaceOnUse" xlink:href="#StandardGradient-6"/><linearGradient id="StandardGradient-6" x1="11.999" x2="11.999" y1=".922" y2="19.387" gradientTransform="scale(0.9219544,1.0846523)" gradientUnits="userSpaceOnUse"><stop id="stop3283-2" offset="0" stop-color="#000" stop-opacity=".863"/><stop id="stop2651-1" offset="1" stop-color="#000" stop-opacity=".471"/></linearGradient><linearGradient id="linearGradient2861" x1="11.999" x2="11.999" y1=".922" y2="17.478" gradientTransform="matrix(0.9247229,0,0,1.0872097,-2.0600562,0.9976422)" gradientUnits="userSpaceOnUse" xlink:href="#StandardGradient-6"/><linearGradient id="StandardGradient-4" x1="11.162" x2="11.162" y1="5.655" y2="18.098" gradientTransform="scale(1.1310246,0.8841541)" gradientUnits="userSpaceOnUse"><stop id="stop3280" offset="0" stop-color="#000" stop-opacity=".863"/><stop id="stop3282" offset="1" stop-color="#000" stop-opacity=".471"/></linearGradient><linearGradient id="linearGradient2858" x1="11.162" x2="11.162" y1="5.655" y2="18.098" gradientTransform="matrix(1.1310246,0,0,0.8841541,2,0)" gradientUnits="userSpaceOnUse" xlink:href="#StandardGradient-4"/><linearGradient id="linearGradient2905" x1="11.999" x2="11.999" y1=".922" y2="17.478" gradientTransform="matrix(0.9247229,0,0,1.0872097,-6.0600562,5.9976422)" gradientUnits="userSpaceOnUse" xlink:href="#StandardGradient"/><linearGradient id="linearGradient2908" x1="11.999" x2="11.999" y1=".922" y2="17.478" gradientTransform="matrix(0.9247229,0,0,1.0872097,-6.0600562,4.9976422)" gradientUnits="userSpaceOnUse" xlink:href="#StandardGradient"/><linearGradient id="linearGradient2911" x1="11.999" x2="11.999" y1="-1.837" y2="12.912" gradientTransform="matrix(0.9247229,0,0,1.0872097,-6.0600562,4.9976422)" gradientUnits="userSpaceOnUse" xlink:href="#StandardGradient"/><linearGradient id="linearGradient2917" x1="11.999" x2="11.999" y1="-1.837" y2="12.912" gradientTransform="matrix(0.9247229,0,0,1.0872097,-6.0600562,5.9976422)" gradientUnits="userSpaceOnUse" xlink:href="#StandardGradient"/><linearGradient id="linearGradient2919" x1="11.999" x2="11.999" y1="-1.837" y2="12.912" gradientTransform="matrix(0.9247229,0,0,1.0872097,-6.0600562,4.9976422)" gradientUnits="userSpaceOnUse" xlink:href="#StandardGradient"/><linearGradient id="linearGradient3696" x1="11.999" x2="11.999" y1="-1.837" y2="12.912" gradientTransform="matrix(0.9247229,0,0,1.0872097,-6.0600562,5.9976422)" gradientUnits="userSpaceOnUse" xlink:href="#StandardGradient"/><linearGradient id="linearGradient3700" x1="11.999" x2="11.999" y1="-1.837" y2="12.912" gradientTransform="matrix(0.9247229,0,0,1.0872097,-6.0600562,4.9976422)" gradientUnits="userSpaceOnUse" xlink:href="#StandardGradient"/><linearGradient id="linearGradient3705" x1="11.999" x2="11.999" y1="-1.837" y2="12.912" gradientTransform="matrix(0.9247229,0,0,1.0872097,-36.060056,4.9976422)" gradientUnits="userSpaceOnUse" xlink:href="#StandardGradient"/><clipPath id="clipPath3712" clipPathUnits="userSpaceOnUse"><path id="path3714" fill="#f0f" fill-opacity="1" stroke="none" d="m -30,0 0,22 22,0 0,-22 -22,0 z m 17.03125,3 2.03125,0 0,7 c 0,1.662 -1.337999,3 -3,3 l -5,0 0,3 -5.0625,-4 5.0625,-4 0,2.96875 3.96875,0 c 1.671127,0 2,-0.360122 2,-2.03125 l 0,-5.9375 z M -25.5,4 l 9,0 c 0.831,0 1.5,0.669 1.5,1.5 l 0,4.5 -2,0 0,-3.5 C -17,6.223 -17.223,6 -17.5,6 l -6.9375,0 c -0.277,0 -0.5,0.223 -0.5,0.5 l 0,10 c 0,0.277 0.223,0.5 0.5,0.5 l 6.9375,0 c 0.277,0 0.5,-0.223 0.5,-0.5 l 0,-2.5 2,0 0,3.5 c 0,0.727125 -0.502744,1.329338 -1.1875,1.46875 C -16.285322,18.98867 -16.396125,19 -16.5,19 l -9,0 c -0.831,0 -1.5,-0.669 -1.5,-1.5 l 0,-12 C -27,4.669 -26.331,4 -25.5,4 z" display="inline"/></clipPath><filter id="filter3716"><feGaussianBlur id="feGaussianBlur3718" stdDeviation=".481"/></filter><linearGradient id="linearGradient4607" x1="11.999" x2="11.999" y1="-1.837" y2="12.912" gradientTransform="matrix(0.9247229,0,0,1.0872097,-6.0600562,4.9976422)" gradientUnits="userSpaceOnUse" xlink:href="#StandardGradient"/><linearGradient id="linearGradient4611" x1="11.999" x2="11.999" y1="-1.837" y2="12.912" gradientTransform="matrix(0.9247229,0,0,1.0872097,-6.0600562,4.9976422)" gradientUnits="userSpaceOnUse" xlink:href="#StandardGradient"/></defs><metadata id="metadata7"/><g id="layer1" display="inline"><path id="path4609" fill="#fff" fill-opacity="1" stroke="none" d="M 16.8125 1.96875 A 1.0468766 1.0468766 0 0 0 16 3 L 16 5.4375 C 15.95941 4.0785737 14.86768 2.96875 13.5 2.96875 L 4.5 2.96875 C 3.1071946 2.96875 1.96875 4.1071946 1.96875 5.5 L 1.96875 17.5 C 1.96875 18.892805 3.1071946 20.03125 4.5 20.03125 L 13.5 20.03125 C 13.679992 20.03125 13.858029 20.035274 14.03125 20 C 15.195312 19.763004 16.03125 18.709626 16.03125 17.5 L 16.03125 14.03125 L 16.0625 14.03125 C 18.286306 14.03125 20.09375 12.223805 20.09375 10 L 20.09375 3 A 1.0468766 1.0468766 0 0 0 19.0625 1.96875 L 17.03125 1.96875 A 1.0468766 1.0468766 0 0 0 16.8125 1.96875 z M 17.03125 3 L 19.0625 3 L 19.0625 10 C 19.0625 11.662 17.724501 13 16.0625 13 L 11.0625 13 L 11.0625 16 L 6 12 L 11.0625 8 L 11.0625 10.96875 L 15.03125 10.96875 C 16.702377 10.96875 17.03125 10.608628 17.03125 8.9375 L 17.03125 3 z M 4.5 4 L 13.5 4 C 14.331 4 15 4.669 15 5.5 L 15 10 L 13 10 L 13 6.5 C 13 6.223 12.777 6 12.5 6 L 5.5625 6 C 5.2855 6 5.0625 6.223 5.0625 6.5 L 5.0625 16.5 C 5.0625 16.777 5.2855 17 5.5625 17 L 12.5 17 C 12.777 17 13 16.777 13 16.5 L 13 14 L 15 14 L 15 17.5 C 15 18.227125 14.497256 18.829338 13.8125 18.96875 C 13.714678 18.98867 13.603875 19 13.5 19 L 4.5 19 C 3.669 19 3 18.331 3 17.5 L 3 5.5 C 3 4.669 3.669 4 4.5 4 z M 6.09375 7.03125 L 10.6875 7.03125 A 1.0468766 1.0468766 0 0 0 10.40625 7.1875 L 6.09375 10.59375 L 6.09375 7.03125 z M 11.4375 7.03125 L 11.96875 7.03125 L 11.96875 7.5 A 1.0468766 1.0468766 0 0 0 11.4375 7.03125 z M 6.09375 13.40625 L 9.34375 15.96875 L 6.09375 15.96875 L 6.09375 13.40625 z" display="inline" opacity=".15"/><path id="path2862" fill="url(#linearGradient2911)" fill-opacity="1" stroke="none" d="M 17.03125 3 L 17.03125 8.9375 C 17.03125 10.608628 16.702377 10.96875 15.03125 10.96875 L 11.0625 10.96875 L 11.0625 8 L 6 12 L 11.0625 16 L 11.0625 13 L 16.0625 13 C 17.724501 13 19.0625 11.662 19.0625 10 L 19.0625 3 L 17.03125 3 z M 4.5 4 C 3.669 4 3 4.669 3 5.5 L 3 17.5 C 3 18.331 3.669 19 4.5 19 L 13.5 19 C 13.603875 19 13.714678 18.98867 13.8125 18.96875 C 14.497256 18.829338 15 18.227125 15 17.5 L 15 14 L 13 14 L 13 16.5 C 13 16.777 12.777 17 12.5 17 L 5.5625 17 C 5.2855 17 5.0625 16.777 5.0625 16.5 L 5.0625 6.5 C 5.0625 6.223 5.2855 6 5.5625 6 L 12.5 6 C 12.777 6 13 6.223 13 6.5 L 13 10 L 15 10 L 15 5.5 C 15 4.669 14.331 4 13.5 4 L 4.5 4 z" display="inline"/><path id="path2913" fill="#000" fill-opacity="1" stroke="none" d="M 17.03125 3 L 17.03125 4 L 19.0625 4 L 19.0625 3 L 17.03125 3 z M 4.5 4 C 3.669 4 3 4.669 3 5.5 L 3 6.5 C 3 5.669 3.669 5 4.5 5 L 13.5 5 C 14.331 5 15 5.669 15 6.5 L 15 5.5 C 15 4.669 14.331 4 13.5 4 L 4.5 4 z M 11.0625 8 L 6 12 L 6.625 12.5 L 11.0625 9 L 11.0625 8 z M 17.03125 8.9375 C 17.03125 10.608628 16.702377 10.96875 15.03125 10.96875 L 15 10.96875 L 15 11 L 13 11 L 13 10.96875 L 11.0625 10.96875 L 11.0625 11.96875 L 15.03125 11.96875 C 16.702377 11.96875 17.03125 11.608628 17.03125 9.9375 L 17.03125 8.9375 z M 13 14 L 13 15 L 15 15 L 15 14 L 13 14 z M 5.0625 16.5 L 5.0625 17.5 C 5.0625 17.777 5.2855 18 5.5625 18 L 12.5 18 C 12.777 18 13 17.777 13 17.5 L 13 16.5 C 13 16.777 12.777 17 12.5 17 L 11.0625 17 L 5.5625 17 C 5.2855 17 5.0625 16.777 5.0625 16.5 z" display="inline" opacity=".5"/><path id="path3694" fill="#fff" fill-opacity="1" stroke="none" d="M 5.5625 6 C 5.2855 6 5.0625 6.223 5.0625 6.5 L 5.0625 7.5 C 5.0625 7.223 5.2855 7 5.5625 7 L 12.5 7 C 12.777 7 13 7.223 13 7.5 L 13 6.5 C 13 6.223 12.777 6 12.5 6 L 5.5625 6 z M 13 10 L 13 10.96875 L 15 10.96875 L 15 10 L 13 10 z M 19.0625 10 C 19.0625 11.662 17.724501 13 16.0625 13 L 11.0625 13 L 11.0625 14 L 13 14 L 15 14 L 16.0625 14 C 17.724501 14 19.0625 12.662 19.0625 11 L 19.0625 10 z M 6.625 12.5 L 6 13 L 11.0625 17 L 11.0625 16 L 6.625 12.5 z M 3 17.5 L 3 18.5 C 3 19.331 3.669 20 4.5 20 L 13.5 20 C 13.603875 20 13.714678 19.98867 13.8125 19.96875 C 14.497256 19.829338 15 19.227125 15 18.5 L 15 17.5 C 15 18.227125 14.497256 18.829338 13.8125 18.96875 C 13.714678 18.98867 13.603875 19 13.5 19 L 4.5 19 C 3.669 19 3 18.331 3 17.5 z" display="inline" opacity=".3"/></g></svg>