<svg xmlns="http://www.w3.org/2000/svg" xmlns:svg="http://www.w3.org/2000/svg" xmlns:xlink="http://www.w3.org/1999/xlink" id="svg2" width="22" height="22" display="inline" version="1.0"><defs id="defs4"><linearGradient id="StandardGradient" x1="11.999" x2="11.999" y1=".922" y2="19.387" gradientTransform="scale(0.9219544,1.0846523)" gradientUnits="userSpaceOnUse"><stop id="stop3283" offset="0" stop-color="#000" stop-opacity=".863"/><stop id="stop2651" offset="1" stop-color="#000" stop-opacity=".471"/></linearGradient><linearGradient id="linearGradient2398" x1="11.999" x2="11.999" y1=".922" y2="17.478" gradientTransform="matrix(0.9247229,0,0,1.0872097,-3.0600562,0.9976422)" gradientUnits="userSpaceOnUse" xlink:href="#StandardGradient"/><linearGradient id="linearGradient2409" x1="11.999" x2="11.999" y1=".922" y2="17.478" gradientTransform="matrix(0.9247229,0,0,1.0872097,-3.0600562,0.9976422)" gradientUnits="userSpaceOnUse" xlink:href="#StandardGradient"/><linearGradient id="linearGradient2416" x1="11.999" x2="11.999" y1=".922" y2="17.478" gradientTransform="matrix(0.9247229,0,0,1.0872097,-3.0600562,0.9976422)" gradientUnits="userSpaceOnUse" xlink:href="#StandardGradient"/><linearGradient id="linearGradient2419" x1="11.999" x2="11.999" y1=".922" y2="17.478" gradientTransform="matrix(0.9247229,0,0,1.0872097,-3.0600562,0.9976422)" gradientUnits="userSpaceOnUse" xlink:href="#StandardGradient"/><linearGradient id="linearGradient2406" x1="11.999" x2="11.999" y1=".922" y2="17.478" gradientTransform="matrix(0.9247229,0,0,1.0872097,-3.0600562,0.9976422)" gradientUnits="userSpaceOnUse" xlink:href="#StandardGradient"/><linearGradient id="linearGradient2410" x1="11.999" x2="11.999" y1=".922" y2="17.478" gradientTransform="matrix(0.9247229,0,0,1.0872097,-3.0600562,0.9976422)" gradientUnits="userSpaceOnUse" xlink:href="#StandardGradient"/><linearGradient id="linearGradient2413" x1="11.999" x2="11.999" y1=".922" y2="17.478" gradientTransform="matrix(0.9247229,0,0,1.0872097,-3.0600562,0.9976422)" gradientUnits="userSpaceOnUse" xlink:href="#StandardGradient"/><linearGradient id="linearGradient2417" x1="11.999" x2="11.999" y1=".922" y2="17.478" gradientTransform="matrix(0.9247229,0,0,1.0872097,-3.0600562,0.9976422)" gradientUnits="userSpaceOnUse" xlink:href="#StandardGradient"/><linearGradient id="linearGradient2428" x1="11.999" x2="11.999" y1=".922" y2="17.478" gradientTransform="matrix(0.9247229,0,0,1.0872097,-3.0600562,0.9976422)" gradientUnits="userSpaceOnUse" xlink:href="#StandardGradient"/><linearGradient id="linearGradient3636" x1="11.999" x2="11.999" y1=".922" y2="17.478" gradientTransform="matrix(0.9247229,0,0,1.0872097,-33.060056,0.9976422)" gradientUnits="userSpaceOnUse" xlink:href="#StandardGradient"/><linearGradient id="linearGradient3647" x1="11.999" x2="11.999" y1=".922" y2="17.478" gradientTransform="matrix(0.9247229,0,0,1.0872097,-33.060056,30.997642)" gradientUnits="userSpaceOnUse" xlink:href="#StandardGradient"/><clipPath id="clipPath3650" clipPathUnits="userSpaceOnUse"><path id="path3652" fill="#f0f" fill-opacity="1" stroke="none" d="m -30,0 0,22 22,0 0,-22 -22,0 z m 5.5,2 11,0 c 0.831,0 1.5,0.669 1.5,1.5 l 0,5.5 0.03125,0 0.46875,0 c 0.831,0 1.5,0.669001 1.5,1.5 l 0,5 c 0,0.831 -0.669,1.5 -1.5,1.5 l -0.5,0 0,1.5 c 0,0.831 -0.669,1.5 -1.5,1.5 l -11,0 c -0.831,0 -1.5,-0.669 -1.5,-1.5 l 0,-1.5 -0.5,0 c -0.831,0 -1.5,-0.669 -1.5,-1.5 l 0,-5 C -28,9.669 -27.331,9 -26.5,9 l 0.5,0 0,-5.5 C -26,2.669 -25.331,2 -24.5,2 z m 1,2 C -23.777,4 -24,4.223 -24,4.5 l 0,4.5 0,1 10,0 0,-1 0,-4.5 C -14,4.223 -14.223,4 -14.5,4 l -9,0 z m 0.5,2 8.03125,0 0,1 L -23,7 -23,6 z m 0,2 6,0 0,1 -6,0 0,-1 z m 8.5,4 c -0.276,0 -0.5,0.224 -0.5,0.5 0,0.276 0.224,0.5 0.5,0.5 0.276,0 0.500001,-0.224 0.5,-0.5 0,-0.276 -0.224,-0.5 -0.5,-0.5 z m 2,0 c -0.276,0 -0.499999,0.224 -0.5,0.5 0,0.276 0.224001,0.5 0.5,0.5 0.276,0 0.500001,-0.224 0.5,-0.5 0,-0.276 -0.223999,-0.5 -0.5,-0.5 z m -11.5,4 0,1 0,0.5 c 0,0.277 0.223,0.5 0.5,0.5 l 9,0 c 0.277,0 0.5,-0.223 0.5,-0.5 l 0,-0.5 0,-1 -10,0 z" display="inline"/></clipPath><filter id="filter3654"><feGaussianBlur id="feGaussianBlur3656" stdDeviation=".54"/></filter><linearGradient id="linearGradient4995" x1="11.999" x2="11.999" y1=".922" y2="17.478" gradientTransform="matrix(0.9247229,0,0,1.0872097,-3.0600562,0.9976422)" gradientUnits="userSpaceOnUse" xlink:href="#StandardGradient"/><linearGradient id="linearGradient4999" x1="11.999" x2="11.999" y1=".922" y2="17.478" gradientTransform="matrix(0.9247229,0,0,1.0872097,-3.0600562,0.9976422)" gradientUnits="userSpaceOnUse" xlink:href="#StandardGradient"/></defs><metadata id="metadata7"/><g id="layer1" display="inline"><path id="path4997" fill="#fff" fill-opacity="1" stroke="none" d="M 5.5 0.96875 C 4.1148958 0.96875 2.96875 2.1148958 2.96875 3.5 L 2.96875 8.1875 C 1.8667931 8.4607518 0.96875 9.3207604 0.96875 10.5 L 0.96875 15.5 C 0.96875 16.67924 1.8667933 17.539248 2.96875 17.8125 L 2.96875 18.5 C 2.96875 19.885104 4.1148958 21.03125 5.5 21.03125 L 16.5 21.03125 C 17.885104 21.03125 19.03125 19.885104 19.03125 18.5 L 19.03125 17.8125 C 20.133207 17.539248 21.03125 16.67924 21.03125 15.5 L 21.03125 10.5 C 21.03125 9.3207606 20.133207 8.4607518 19.03125 8.1875 L 19.03125 3.5 C 19.03125 2.1148958 17.885104 0.96875 16.5 0.96875 L 5.5 0.96875 z M 5.5 2 L 16.5 2 C 17.331 2 18 2.669 18 3.5 L 18 9 L 18.03125 9 L 18.5 9 C 19.331 9 20 9.669001 20 10.5 L 20 15.5 C 20 16.331 19.331 17 18.5 17 L 18 17 L 18 18.5 C 18 19.331 17.331 20 16.5 20 L 5.5 20 C 4.669 20 4 19.331 4 18.5 L 4 17 L 3.5 17 C 2.669 17 2 16.331 2 15.5 L 2 10.5 C 2 9.6690005 2.669 9 3.5 9 L 4 9 L 4 3.5 C 4 2.669 4.669 2 5.5 2 z M 6.5 4 C 6.223 4 6 4.223 6 4.5 L 6 9 L 6 10 L 16 10 L 16 9 L 16 4.5 C 16 4.223 15.777 4 15.5 4 L 6.5 4 z M 7 6 L 15.03125 6 L 15.03125 7 L 7 7 L 7 6 z M 7 8 L 13 8 L 13 9 L 7 9 L 7 8 z M 14.03125 8.03125 L 14.96875 8.03125 L 14.96875 8.96875 L 14.03125 8.96875 L 14.03125 8.03125 z M 6 16 L 6 17 L 6 17.5 C 6 17.777 6.223 18 6.5 18 L 15.5 18 C 15.777 18 16 17.777 16 17.5 L 16 17 L 16 16 L 6 16 z" display="inline" opacity=".15"/><path id="Symbol" fill="url(#linearGradient2428)" fill-opacity="1" stroke="none" stroke-dasharray="none" stroke-linecap="round" stroke-linejoin="miter" stroke-miterlimit="4" stroke-opacity="1" stroke-width="1" d="M 5.5 2 C 4.669 2 4 2.669 4 3.5 L 4 9 L 3.5 9 C 2.669 9 2 9.6690005 2 10.5 L 2 15.5 C 2 16.331 2.669 17 3.5 17 L 4 17 L 4 18.5 C 4 19.331 4.669 20 5.5 20 L 16.5 20 C 17.331 20 18 19.331 18 18.5 L 18 17 L 18.5 17 C 19.331 17 20 16.331 20 15.5 L 20 10.5 C 20 9.669001 19.331 9 18.5 9 L 18.03125 9 L 18 9 L 18 3.5 C 18 2.669 17.331 2 16.5 2 L 5.5 2 z M 6.5 4 L 15.5 4 C 15.777 4 16 4.223 16 4.5 L 16 9 L 16 10 L 6 10 L 6 9 L 6 4.5 C 6 4.223 6.223 4 6.5 4 z M 7 6 L 7 7 L 15.03125 7 L 15.03125 6 L 7 6 z M 7 8 L 7 9 L 13 9 L 13 8 L 7 8 z M 15.5 12 C 15.776 12 16 12.224 16 12.5 C 16.000001 12.776 15.776 13 15.5 13 C 15.224 13 15 12.776 15 12.5 C 15 12.224 15.224 12 15.5 12 z M 17.5 12 C 17.776001 12 18 12.224 18 12.5 C 18.000001 12.776 17.776 13 17.5 13 C 17.224001 13 17 12.776 17 12.5 C 17.000001 12.224 17.224 12 17.5 12 z M 6 16 L 16 16 L 16 17 L 16 17.5 C 16 17.777 15.777 18 15.5 18 L 6.5 18 C 6.223 18 6 17.777 6 17.5 L 6 17 L 6 16 z" display="inline"/><path id="BevelShadow" fill="#000" fill-opacity="1" stroke="none" stroke-dasharray="none" stroke-linecap="round" stroke-linejoin="miter" stroke-miterlimit="4" stroke-opacity="1" stroke-width="1" d="M 5.5,2 C 4.669,2 4,2.669 4,3.5 L 4,4.5 C 4,3.669 4.669,3 5.5,3 L 16.5,3 C 17.331,3 18,3.669 18,4.5 L 18,3.5 C 18,2.669 17.331,2 16.5,2 L 5.5,2 z M 7,6 L 7,7 L 15.03125,7 L 15.03125,6 L 7,6 z M 7,8 L 7,9 L 13,9 L 13,8 L 7,8 z M 3.5,9 C 2.669,9 2,9.6690005 2,10.5 L 2,11.5 C 2,10.669001 2.669,10 3.5,10 L 4,10 L 4,9 L 3.5,9 z M 18,9 L 18,10 L 18.03125,10 L 18.5,10 C 19.331,10 20,10.669001 20,11.5 L 20,10.5 C 20,9.669001 19.331,9 18.5,9 L 18.03125,9 L 18,9 z M 6,10 L 6,11 L 16,11 L 16,10 L 13,10 L 7,10 L 6,10 z M 15.5,13 C 15.224,13 15,13.224 15,13.5 C 15,13.776 15.224,14 15.5,14 C 15.776,14 16.000001,13.776 16,13.5 C 16,13.224 15.776,13 15.5,13 z M 17.5,13 C 17.224,13 17.000001,13.224 17,13.5 C 17,13.776 17.224001,14 17.5,14 C 17.776,14 18.000001,13.776 18,13.5 C 18,13.224 17.776001,13 17.5,13 z M 6,17.5 L 6,18 L 6,18.5 C 6,18.777 6.223,19 6.5,19 L 15.5,19 C 15.777,19 16,18.777 16,18.5 L 16,18 L 16,17.5 C 16,17.777 15.777,18 15.5,18 L 6.5,18 C 6.223,18 6,17.777 6,17.5 z" display="inline" opacity=".5"/><path id="BevelHighlight" fill="#fff" fill-opacity="1" stroke="none" stroke-dasharray="none" stroke-linecap="round" stroke-linejoin="miter" stroke-miterlimit="4" stroke-opacity="1" stroke-width="1" d="M 6.5,4 C 6.223,4 6,4.223 6,4.5 L 6,5.5 C 6,5.223 6.223,5 6.5,5 L 15.5,5 C 15.777,5 16,5.223 16,5.5 L 16,4.5 C 16,4.223 15.777,4 15.5,4 L 6.5,4 z M 7,7 L 7,8 L 13,8 L 15.03125,8 L 15.03125,7 L 7,7 z M 7,9 L 7,10 L 13,10 L 13,9 L 7,9 z M 15.5,12 C 15.224,12 15,12.224 15,12.5 C 15,12.776 15.224,13 15.5,13 C 15.776,13 16.000001,12.776 16,12.5 C 16,12.224 15.776,12 15.5,12 z M 17.5,12 C 17.224,12 17.000001,12.224 17,12.5 C 17,12.776 17.224001,13 17.5,13 C 17.776,13 18.000001,12.776 18,12.5 C 18,12.224 17.776001,12 17.5,12 z M 2,15.5 L 2,16.5 C 2,17.331 2.669,18 3.5,18 L 4,18 L 4,17 L 3.5,17 C 2.669,17 2,16.331 2,15.5 z M 20,15.5 C 20,16.331 19.331,17 18.5,17 L 18,17 L 18,18 L 18.5,18 C 19.331,18 20,17.331 20,16.5 L 20,15.5 z M 6,16 L 6,17 L 16,17 L 16,16 L 6,16 z M 4,18.5 L 4,19.5 C 4,20.331 4.669,21 5.5,21 L 16.5,21 C 17.331,21 18,20.331 18,19.5 L 18,18.5 C 18,19.331 17.331,20 16.5,20 L 5.5,20 C 4.669,20 4,19.331 4,18.5 z" display="inline" opacity=".3"/></g></svg>