<svg xmlns="http://www.w3.org/2000/svg" xmlns:svg="http://www.w3.org/2000/svg" xmlns:xlink="http://www.w3.org/1999/xlink" id="svg2" width="24" height="24" display="inline" version="1.0"><defs id="defs4"><linearGradient id="linearGradient3845-9" x1="11" x2="21" y1="19.5" y2="19.5" gradientTransform="translate(1,-1)" gradientUnits="userSpaceOnUse" spreadMethod="reflect" xlink:href="#linearGradient3831-1"/><linearGradient id="linearGradient3831-1"><stop id="stop3833-2" offset="0" stop-color="#fff" stop-opacity="1"/><stop id="stop3821-4" offset=".75" stop-color="#fff" stop-opacity=".498"/><stop id="stop3835-9" offset="1" stop-color="#fff" stop-opacity="0"/></linearGradient><linearGradient id="linearGradient3078-0" x1="10" x2="10" y1="5" y2="16" gradientTransform="translate(1,-1)" gradientUnits="userSpaceOnUse" xlink:href="#linearGradient3823-1"/><linearGradient id="linearGradient3823-1"><stop id="stop3825-4" offset="0" stop-color="#fff" stop-opacity="1"/><stop id="stop3829-4" offset="1" stop-color="#fff" stop-opacity="0"/></linearGradient><linearGradient id="linearGradient3668-3" x1="10.872" x2="10.872" y1="24.123" y2="6.123" gradientTransform="translate(-0.7400389,-4.1230297)" gradientUnits="userSpaceOnUse" xlink:href="#linearGradient3187-2"/><linearGradient id="linearGradient3187-2"><stop id="stop3189-5" offset="0" stop-color="#c29656" stop-opacity="1"/><stop id="stop3191-1" offset="1" stop-color="#ddbf8b" stop-opacity="1"/></linearGradient><linearGradient id="linearGradient3317-6" x1="11.794" x2="11.794" y1="3.213" y2="20.137" gradientTransform="scale(1.0598527,0.9435274)" gradientUnits="userSpaceOnUse"><stop id="stop3319-8" offset="0" stop-color="#c6953a" stop-opacity="1"/><stop id="stop3321-0" offset="1" stop-color="#ab7a1f" stop-opacity="1"/></linearGradient><linearGradient id="linearGradient3861" x1="48.036" x2="48.036" y1="25.911" y2="85.821" gradientTransform="matrix(0.2195263,0,0,0.2195263,1.3370719,0.1776143)" gradientUnits="userSpaceOnUse" xlink:href="#linearGradient3317-6"/><linearGradient id="linearGradient3327"><stop id="stop3330" offset="0" stop-color="#000" stop-opacity="1"/><stop id="stop3333" offset="1" stop-color="#000" stop-opacity="0"/></linearGradient><linearGradient id="linearGradient3842" x1="11.375" x2="11.375" y1="20" y2="-11" gradientTransform="translate(1,3)" gradientUnits="userSpaceOnUse" xlink:href="#linearGradient3327"/></defs><metadata id="metadata7"/><g id="layer2" transform="translate(0,2)"><path id="rect3371" fill="url(#linearGradient3842)" fill-opacity="1" stroke="none" d="m 4.5,1.5 c -1.0969971,0 -2,0.9030029 -2,2 l 0,0.5 c -0.6114808,0.4549066 -1,1.175925 -1,2 l 0,14.5 C 1.5,21.885 2.615,23 4,23 l 16,0 c 1.385,0 2.5,-1.115 2.5,-2.5 L 22.5,6 C 22.5,5.134375 22.071045,4.3858887 21.40625,3.9375 21.160346,3.1111944 20.401594,2.5 19.5,2.5 l -7.375,0 C 11.775318,1.9321758 11.212848,1.5 10.5,1.5 l -6,0 z" display="inline" opacity=".3" transform="translate(0,-2)"/><rect id="rect5478" width="20" height="16" x="2" y="5" fill="#000" fill-opacity="1" fill-rule="nonzero" stroke="none" opacity=".4" rx="2" ry="2"/><rect id="rect3352" width="16.464" height="13.76" x="3.65" y="5.258" fill="url(#linearGradient3861)" fill-opacity="1" fill-rule="nonzero" stroke="none" display="inline" rx="1.317" ry="1.317"/><path id="rect3043" fill="#c4995a" fill-opacity="1" fill-rule="nonzero" stroke="none" stroke-width="2" d="M 4.5,0 C 3.669,0 3,0.669 3,1.5 l 0,1 0,1 0,2 C 3,6.331 3.669,7 4.5,7 l 15,0 C 20.331,7 21,6.331 21,5.5 l 0,-3 C 21,1.669 20.331,1 19.5,1 L 11.90625,1 C 11.702994,0.4129833 11.157875,0 10.5,0 l -6,0 z" color="#000" display="inline" enable-background="accumulate" overflow="visible" visibility="visible" style="marker:none"/><path id="path3050" fill="#000" fill-opacity="1" fill-rule="nonzero" stroke="none" stroke-width="2" d="M 4,1 C 3.648898,1 3.317465,1.0923738 3.03125,1.25 3.018314,1.3295389 3,1.4166943 3,1.5 l 0,1 0,1 0,2 C 3,6.331 3.669,7 4.5,7 l 15,0 C 20.331,7 21,6.331 21,5.5 l 0,-3 C 21,1.669 20.331,1 19.5,1 L 11.90625,1 4,1 z" color="#000" display="inline" enable-background="accumulate" opacity=".1" overflow="visible" visibility="visible" style="marker:none"/><rect id="rect3660" width="20" height="18" x="2" y="2" fill="url(#linearGradient3668-3)" fill-opacity="1" fill-rule="nonzero" stroke="none" display="inline" rx="2" ry="2"/><path id="rect3050" fill="url(#linearGradient3078-0)" fill-opacity="1" fill-rule="evenodd" stroke="none" d="M 4,2 C 2.892,2 2,2.892 2,4 l 0,14 c 0,1.108 0.892,2 2,2 l 16,0 c 1.108,0 2,-0.892 2,-2 L 22,4 C 22,2.892 21.108,2 20,2 z m 0,1.03125 16,0 c 0.5497,0 0.96875,0.4190495 0.96875,0.96875 l 0,14 c 0,0.5497 -0.41905,0.96875 -0.96875,0.96875 l -16,0 C 3.4502995,18.96875 3.03125,18.5497 3.03125,18 l 0,-14 C 3.03125,3.4502995 3.4502995,3.03125 4,3.03125 z" display="inline" opacity=".2"/><path id="path3235" fill="url(#linearGradient3845-9)" fill-opacity="1" fill-rule="evenodd" stroke="none" d="M 4,20 C 2.892,20 2,19.108 2,18 l 0,-1 c 0,1.108 0.892,2 2,2 l 16,0 c 1.108,0 2,-0.892 2,-2 l 0,1 c 0,1.108 -0.892,2 -2,2 z" display="inline" opacity=".2"/><rect id="rect3884" width="8" height="8" x="32" y="0" fill="#bd8e48" fill-opacity="1" fill-rule="nonzero" stroke="none" stroke-width="2" color="#000" display="inline" enable-background="accumulate" overflow="visible" transform="translate(0,-2)" visibility="visible" style="marker:none"/></g><g id="layer4" transform="translate(0,2)"><path id="path3864" fill="#fff" fill-opacity="1" fill-rule="nonzero" stroke="none" stroke-width="3" d="M 11.71875,6.03125 C 8.2444032,6.03125 5.4440412,8.6626996 4.9375,12 l -0.84375,0 a 0.9540185,0.9540185 0 0 0 -0.8125,1.46875 l 2.5625,4.0625 a 0.9540185,0.9540185 0 0 0 1.03125,0.4375 c 0.1281675,0.12666 0.2810898,0.277169 0.4375,0.40625 L 7.90625,17.625 7.875,17.71875 A 0.9540185,0.9540185 0 0 0 8.25,19 c 1.018409,0.589134 2.200148,0.96875 3.46875,0.96875 3.829246,0 6.96875,-3.139504 6.96875,-6.96875 0,-3.8292469 -3.139504,-6.96875 -6.96875,-6.96875 z m 1.25,4.1875 c 0.794808,0.355704 1.369514,1.060859 1.625,1.90625 A 0.9540185,0.9540185 0 0 0 14.25,12.03125 l -1.28125,0 0,-1.8125 z m -2.9375,0.3125 0,1.875 A 0.9540185,0.9540185 0 0 0 9.25,12 l -0.375,0 c 0.2149988,-0.624339 0.6214678,-1.10516 1.15625,-1.46875 z m 0,3 0,0.46875 A 0.9540185,0.9540185 0 0 0 11,14.96875 l 3,0 c -0.556781,0.646172 -1.35291,1.0625 -2.28125,1.0625 -0.537399,0 -1.063655,-0.135168 -1.53125,-0.40625 A 0.9540185,0.9540185 0 0 0 8.875,15.96875 l -0.46875,0.8125 c -0.086877,-0.07763 -0.1565124,-0.156095 -0.25,-0.25 A 0.9540185,0.9540185 0 0 0 8.125,16.5 l 1.90625,-2.96875 z" color="#000" display="inline" enable-background="accumulate" opacity=".15" overflow="visible" transform="translate(1,-2)" visibility="visible" style="marker:none"/><path id="path3057" fill="#bd8e48" fill-opacity="1" fill-rule="nonzero" stroke="none" stroke-width="3" d="m 12.71875,5 c -3.3033799,0 -5.9833247,2.6692903 -6,5.96875 l -1.625,0 2.5625,4.0625 2.59375,-4.0625 -1.53125,0 C 8.735756,8.77418 10.520169,7 12.71875,7 c 2.209139,0 4,1.790861 4,4 0,2.209139 -1.790861,4 -4,4 -0.72993,0 -1.410912,-0.220984 -2,-0.5625 l -1,1.75 c 0.882534,0.510532 1.907113,0.8125 3,0.8125 3.313708,0 6,-2.686292 6,-6 0,-3.3137085 -2.686292,-6 -6,-6 z M 12,8 l 0,3 0,1 3.25,0 0,-1 -2.25,0 0,-3 -1,0 z m -3.53125,7.21875 c 0.140756,0.141866 0.283234,0.278939 0.4375,0.40625 -0.151999,-0.125289 -0.299541,-0.267675 -0.4375,-0.40625 z" color="#000" display="inline" enable-background="accumulate" opacity=".9" overflow="visible" visibility="visible" style="marker:none"/><path id="path3848" fill="#000" fill-opacity="1" fill-rule="nonzero" stroke="none" stroke-width="3" d="m 12.71875,5 c -3.3033799,0 -5.9833247,2.6692903 -6,5.96875 l -1.625,0 2.5625,4.0625 2.59375,-4.0625 -1.53125,0 C 8.735756,8.77418 10.520169,7 12.71875,7 c 2.209139,0 4,1.790861 4,4 0,2.209139 -1.790861,4 -4,4 -0.72993,0 -1.410912,-0.220984 -2,-0.5625 l -1,1.75 c 0.882534,0.510532 1.907113,0.8125 3,0.8125 3.313708,0 6,-2.686292 6,-6 0,-3.3137085 -2.686292,-6 -6,-6 z m 0,0.5 c 3.044086,0 5.5,2.455914 5.5,5.5 0,3.044085 -2.455915,5.5 -5.5,5.5 -0.824091,0 -1.578067,-0.234435 -2.28125,-0.5625 l 0.5,-0.875 c 0.546554,0.247037 1.133094,0.4375 1.78125,0.4375 2.478761,0 4.5,-2.021239 4.5,-4.5 0,-2.478761 -2.021239,-4.5 -4.5,-4.5 -2.466975,0 -4.4809153,2.005852 -4.5,4.46875 a 0.4989441,0.4989441 0 0 0 0.5,0.5 l 0.625,0 -1.65625,2.625 -1.65625,-2.625 0.6875,0 a 0.4989441,0.4989441 0 0 0 0.5,-0.5 C 7.234067,7.9380672 9.6841238,5.5 12.71875,5.5 z M 12,8 l 0,3 0,1 3.25,0 0,-1 -2.25,0 0,-3 -1,0 z m 0.5,3.15625 A 0.4989441,0.4989441 0 0 0 12.84375,11.5 l -0.34375,0 0,-0.34375 z m -4.03125,4.0625 c 0.140756,0.141866 0.283234,0.278939 0.4375,0.40625 -0.151999,-0.125289 -0.299541,-0.267675 -0.4375,-0.40625 z" color="#000" display="inline" enable-background="accumulate" opacity=".2" overflow="visible" visibility="visible" style="marker:none"/><path id="path3855" fill="#000" fill-opacity="1" fill-rule="nonzero" stroke="none" stroke-width="3" d="m 12.71875,5 c -3.3033799,0 -5.9833247,2.6692903 -6,5.96875 l -1.625,0 0.625,1 1,0 C 6.735425,8.66929 9.4153701,6 12.71875,6 c 3.106601,0 5.66149,2.349463 5.96875,5.375 0.0075,-0.122591 0.03125,-0.250529 0.03125,-0.375 0,-3.3137085 -2.686292,-6 -6,-6 z m 0,3 C 12.475221,8 12.231527,8.052054 12,8.09375 L 12,9 13,9 13,8.03125 C 12.906134,8.024662 12.814291,8 12.71875,8 z M 8.875,10.96875 c -0.08546,0.320179 -0.1535653,0.653539 -0.15625,1 l 0.90625,0 0.625,-1 -1.375,0 z M 13,11 l 0,1 2.25,0 0,-1 -2.25,0 z m 3.65625,0.5 c -0.247066,1.972046 -1.898481,3.5 -3.9375,3.5 -0.72993,0 -1.410912,-0.220984 -2,-0.5625 l -1,1.75 c 0.1404031,0.08122 0.290204,0.148463 0.4375,0.21875 l 0.5625,-0.96875 c 0.589088,0.341516 1.27007,0.5625 2,0.5625 2.209139,0 4,-1.790861 4,-4 0,-0.17012 -0.04189,-0.335468 -0.0625,-0.5 z m -8.1875,3.71875 c 0.140756,0.141866 0.283234,0.278939 0.4375,0.40625 -0.151999,-0.125289 -0.299541,-0.267675 -0.4375,-0.40625 z m 0,1 c 0.137959,0.138575 0.285501,0.280961 0.4375,0.40625 -0.154266,-0.127311 -0.296744,-0.264384 -0.4375,-0.40625 z" color="#000" display="inline" enable-background="accumulate" opacity=".2" overflow="visible" visibility="visible" style="marker:none"/><path id="path4203" fill="#fff" fill-opacity="1" fill-rule="nonzero" stroke="none" stroke-width="3" d="M 12.71875 9 C 10.520169 9 8.735756 10.77418 8.71875 12.96875 L 8.875 12.96875 C 9.2709054 11.485481 10.471289 10.369056 12 10.09375 L 12 10 L 12.71875 10 L 13 10 L 13 10.03125 C 14.909391 10.165266 16.420761 11.620357 16.65625 13.5 C 16.676863 13.335468 16.71875 13.17012 16.71875 13 C 16.71875 10.790861 14.927889 9 12.71875 9 z M 18.6875 13.625 C 18.38024 16.650536 15.825351 19 12.71875 19 C 11.799731 19 10.934817 18.777769 10.15625 18.40625 L 9.71875 19.1875 C 10.601284 19.698032 11.625863 20 12.71875 20 C 16.032458 20 18.71875 17.313708 18.71875 14 C 18.71875 13.875529 18.694971 13.747591 18.6875 13.625 z M 5.09375 13.96875 L 7.65625 18.03125 L 10.25 13.96875 L 9.625 13.96875 L 7.65625 17.03125 L 5.71875 13.96875 L 5.09375 13.96875 z M 12 14 L 12 15 L 15.25 15 L 15.25 14 L 13 14 L 12 14 z M 8.46875 17.21875 C 8.606709 17.357325 8.754251 17.499711 8.90625 17.625 C 8.751984 17.497689 8.609506 17.360616 8.46875 17.21875 z M 8.46875 18.21875 C 8.609506 18.360616 8.751984 18.497689 8.90625 18.625 C 8.754251 18.499711 8.606709 18.357325 8.46875 18.21875 z" color="#000" display="inline" enable-background="accumulate" opacity=".15" overflow="visible" transform="translate(0,-2)" visibility="visible" style="marker:none"/></g></svg>