<svg xmlns="http://www.w3.org/2000/svg" xmlns:svg="http://www.w3.org/2000/svg" xmlns:xlink="http://www.w3.org/1999/xlink" id="svg2" width="22" height="22" display="inline" version="1.0"><defs id="defs4"><linearGradient id="linearGradient2549" x1="11.999" x2="11.999" y1=".922" y2="17.478" gradientTransform="matrix(0.9247229,0,0,1.0872097,20.939944,2.9976422)" gradientUnits="userSpaceOnUse" xlink:href="#StandardGradient"/><linearGradient id="StandardGradient" x1="11.999" x2="11.999" y1=".922" y2="19.387" gradientTransform="scale(0.9219544,1.0846523)" gradientUnits="userSpaceOnUse"><stop id="stop3283" offset="0" stop-color="#000" stop-opacity=".863"/><stop id="stop2651" offset="1" stop-color="#000" stop-opacity=".471"/></linearGradient><linearGradient id="linearGradient3978" x1="11.999" x2="11.999" y1=".922" y2="17.478" gradientTransform="matrix(0.9247229,0,0,1.0872097,-2.060056,1.9976422)" gradientUnits="userSpaceOnUse" xlink:href="#StandardGradient"/><linearGradient id="linearGradient3983" x1="11.999" x2="11.999" y1=".922" y2="19.387" gradientTransform="matrix(0.9219544,0,0,1.0846523,2,-2)" gradientUnits="userSpaceOnUse" xlink:href="#StandardGradient"/><linearGradient id="linearGradient3986" x1="11.999" x2="11.999" y1=".922" y2="19.387" gradientTransform="matrix(0.9219544,0,0,1.0846523,6.25e-2,-2)" gradientUnits="userSpaceOnUse" xlink:href="#StandardGradient"/><linearGradient id="linearGradient3989" x1="11.999" x2="11.999" y1=".922" y2="19.387" gradientTransform="matrix(0.9219544,0,0,1.0846523,-1,-2)" gradientUnits="userSpaceOnUse" xlink:href="#StandardGradient"/><linearGradient id="linearGradient3992" x1="11.999" x2="11.999" y1=".922" y2="19.387" gradientTransform="matrix(0.9219544,0,0,1.0846523,-1,-2)" gradientUnits="userSpaceOnUse" xlink:href="#StandardGradient"/><linearGradient id="linearGradient3995" x1="11.999" x2="11.999" y1="4.61" y2="19.387" gradientTransform="matrix(0.9219544,0,0,1.0846523,0,-2)" gradientUnits="userSpaceOnUse" xlink:href="#StandardGradient"/><linearGradient id="linearGradient2400" x1="11.999" x2="11.999" y1="4.61" y2="19.387" gradientTransform="matrix(0.9219544,0,0,1.0846523,20,-2)" gradientUnits="userSpaceOnUse" xlink:href="#StandardGradient"/><linearGradient id="linearGradient2407" x1="11.999" x2="11.999" y1="4.61" y2="19.387" gradientTransform="matrix(0.9219544,0,0,1.0846523,20,-2)" gradientUnits="userSpaceOnUse" xlink:href="#StandardGradient"/><linearGradient id="linearGradient2412" x1="11.999" x2="11.999" y1="4.61" y2="19.387" gradientTransform="matrix(0.9219544,0,0,1.0846523,20,-2)" gradientUnits="userSpaceOnUse" xlink:href="#StandardGradient"/><linearGradient id="linearGradient2422" x1="11.999" x2="11.999" y1="4.61" y2="19.387" gradientTransform="matrix(0.9219544,0,0,1.0846523,1,0)" gradientUnits="userSpaceOnUse" xlink:href="#StandardGradient"/><linearGradient id="linearGradient2424" x1="11.999" x2="11.999" y1="4.61" y2="19.387" gradientTransform="matrix(0.9219544,0,0,1.0846523,0,-2)" gradientUnits="userSpaceOnUse" xlink:href="#StandardGradient"/><linearGradient id="linearGradient2427" x1="11.999" x2="11.999" y1="4.61" y2="19.387" gradientTransform="matrix(0.9219544,0,0,1.0846523,-2,-3)" gradientUnits="userSpaceOnUse" xlink:href="#StandardGradient"/><linearGradient id="linearGradient3640" x1="11.999" x2="11.999" y1="4.61" y2="19.387" gradientTransform="matrix(0.9219544,0,0,1.0846523,-32,-3)" gradientUnits="userSpaceOnUse" xlink:href="#StandardGradient"/><linearGradient id="linearGradient3657" x1="11.999" x2="11.999" y1="4.61" y2="19.387" gradientTransform="matrix(0.9219544,0,0,1.0846523,-32,27)" gradientUnits="userSpaceOnUse" xlink:href="#StandardGradient"/><clipPath id="clipPath3660" clipPathUnits="userSpaceOnUse"><path id="path3662" fill="#f0f" fill-opacity="1" stroke="none" d="m -30,0 0,22 22,0 0,-22 -22,0 z m 6.5,3 9,0 c 0.831,0 1.5,0.669 1.5,1.5 l 0,11 c 0,0.831 -0.669,1.5 -1.5,1.5 l -3.5,0 0,-2 2.5,0 c 0.277,0 0.5,-0.223 0.5,-0.5 l 0,-9 C -15,5.223 -15.223,5 -15.5,5 l -7,0 C -22.777,5 -23,5.223 -23,5.5 l 0,4.5 -2,0 0,-5.5 C -25,3.669 -24.331,3 -23.5,3 z m -1.5,8 3,0 0,3 3,0 0,3 -3,0 0,3 -3,0 0,-3 -3,0 0,-3 3,0 0,-3 z" display="inline"/></clipPath><linearGradient id="linearGradient2862" x1="11.999" x2="11.999" y1="4.61" y2="19.387" gradientTransform="matrix(-0.9219544,0,0,-1.0846523,24,23)" gradientUnits="userSpaceOnUse" xlink:href="#StandardGradient"/><linearGradient id="linearGradient2864" x1="11.999" x2="11.999" y1="4.61" y2="19.387" gradientTransform="matrix(0.9219544,0,0,1.0846523,-2,-3)" gradientUnits="userSpaceOnUse" xlink:href="#StandardGradient"/><linearGradient id="linearGradient2867" x1="11.999" x2="11.999" y1="4.61" y2="19.387" gradientTransform="matrix(0.9219544,0,0,1.0846523,2,-2)" gradientUnits="userSpaceOnUse" xlink:href="#StandardGradient"/><linearGradient id="linearGradient2880" x1="11.999" x2="11.999" y1="4.61" y2="19.387" gradientTransform="matrix(0.9219544,0,0,1.0846523,2,-1)" gradientUnits="userSpaceOnUse" xlink:href="#StandardGradient"/><linearGradient id="linearGradient2882" x1="11.999" x2="11.999" y1="4.61" y2="19.387" gradientTransform="matrix(0.9219544,0,0,1.0846523,2,-2)" gradientUnits="userSpaceOnUse" xlink:href="#StandardGradient"/><linearGradient id="linearGradient3659" x1="11.999" x2="11.999" y1="4.61" y2="19.387" gradientTransform="matrix(0.9219544,0,0,1.0846523,2,-1)" gradientUnits="userSpaceOnUse" xlink:href="#StandardGradient"/><linearGradient id="linearGradient3663" x1="11.999" x2="11.999" y1="4.61" y2="19.387" gradientTransform="matrix(0.9219544,0,0,1.0846523,2,-2)" gradientUnits="userSpaceOnUse" xlink:href="#StandardGradient"/><linearGradient id="linearGradient3668" x1="11.999" x2="11.999" y1="4.61" y2="19.387" gradientTransform="matrix(0.9219544,0,0,1.0846523,-28,-2)" gradientUnits="userSpaceOnUse" xlink:href="#StandardGradient"/><clipPath id="clipPath3675" clipPathUnits="userSpaceOnUse"><path id="path3677" fill="#f0f" fill-opacity="1" stroke="none" d="m -30,0 0,22 22,0 0,-22 -22,0 z m 10.5,4 3.5,0 5.5,0 C -9.669,4 -9,4.669 -9,5.5 l 0,5.5 0,5.5 c 0,0.831 -0.669,1.5 -1.5,1.5 l -3.5,0 -5.5,0 c -0.831,0 -1.5,-0.669 -1.5,-1.5 l 0,-5.5 0,-5.5 C -21,4.669 -20.331,4 -19.5,4 z m 1,2 C -18.777,6 -19,6.223 -19,6.5 l 0,4.5 0,4.5 c 0,0.277 0.223,0.5 0.5,0.5 l 4.5,0 2.5,0 c 0.277,0 0.5,-0.223 0.5,-0.5 l 0,-4.5 0,-4.5 C -11,6.223 -11.223,6 -11.5,6 l -4.5,0 -2.5,0 z m -7.5,2 3,0 0,1 -3,0 0,-1 z m -3,3 6,0 0,1 -6,0 0,-1 z m 2,3 4,0 0,1 -4,0 0,-1 z" display="inline"/></clipPath><filter id="filter3679"><feGaussianBlur id="feGaussianBlur3681" stdDeviation=".51"/></filter></defs><metadata id="metadata7"/><g id="layer1" display="inline"><path id="path3311" fill="#fff" fill-opacity="1" stroke="none" d="M 10.5 3.03125 C 9.1426674 3.03125 8.03125 4.1426674 8.03125 5.5 L 8.03125 11 L 8.03125 16.5 C 8.03125 17.857333 9.1426674 18.96875 10.5 18.96875 L 16 18.96875 L 19.5 18.96875 C 20.857333 18.96875 21.96875 17.857333 21.96875 16.5 L 21.96875 11 L 21.96875 5.5 C 21.96875 4.1426674 20.857333 3.03125 19.5 3.03125 L 14 3.03125 L 10.5 3.03125 z M 10.5 4 L 14 4 L 19.5 4 C 20.331 4 21 4.669 21 5.5 L 21 11 L 21 16.5 C 21 17.331 20.331 18 19.5 18 L 16 18 L 10.5 18 C 9.669 18 9 17.331 9 16.5 L 9 11 L 9 5.5 C 9 4.669 9.669 4 10.5 4 z M 11.5 6 C 11.223 6 11 6.223 11 6.5 L 11 11 L 11 15.5 C 11 15.777 11.223 16 11.5 16 L 16 16 L 18.5 16 C 18.777 16 19 15.777 19 15.5 L 19 11 L 19 6.5 C 19 6.223 18.777 6 18.5 6 L 14 6 L 11.5 6 z M 11.96875 6.96875 L 14 6.96875 L 18.03125 6.96875 L 18.03125 11 L 18.03125 15.03125 L 16 15.03125 L 11.96875 15.03125 L 11.96875 11 L 11.96875 6.96875 z M 3.8125 7.03125 A 0.98077609 0.98077609 0 0 0 3.03125 8 L 3.03125 9 A 0.98077609 0.98077609 0 0 0 4 9.96875 L 7 9.96875 A 0.98077609 0.98077609 0 0 0 7.96875 9 L 7.96875 8 A 0.98077609 0.98077609 0 0 0 7 7.03125 L 4 7.03125 A 0.98077609 0.98077609 0 0 0 3.8125 7.03125 z M 4 8 L 7 8 L 7 9 L 4 9 L 4 8 z M 0.8125 10.03125 A 0.98077609 0.98077609 0 0 0 0.03125 11 L 0.03125 12 A 0.98077609 0.98077609 0 0 0 1 12.96875 L 7 12.96875 A 0.98077609 0.98077609 0 0 0 7.96875 12 L 7.96875 11 A 0.98077609 0.98077609 0 0 0 7 10.03125 L 1 10.03125 A 0.98077609 0.98077609 0 0 0 0.8125 10.03125 z M 1 11 L 7 11 L 7 12 L 1 12 L 1 11 z M 2.8125 13.03125 A 0.98077609 0.98077609 0 0 0 2.03125 14 L 2.03125 15 A 0.98077609 0.98077609 0 0 0 3 15.96875 L 7 15.96875 A 0.98077609 0.98077609 0 0 0 7.96875 15 L 7.96875 14 A 0.98077609 0.98077609 0 0 0 7 13.03125 L 3 13.03125 A 0.98077609 0.98077609 0 0 0 2.8125 13.03125 z M 3 14 L 7 14 L 7 15 L 3 15 L 3 14 z" display="inline" opacity=".15"/><path id="path2858" fill="url(#linearGradient2867)" fill-opacity="1" stroke="none" d="M 10.5 4 C 9.669 4 9 4.669 9 5.5 L 9 11 L 9 16.5 C 9 17.331 9.669 18 10.5 18 L 16 18 L 19.5 18 C 20.331 18 21 17.331 21 16.5 L 21 11 L 21 5.5 C 21 4.669 20.331 4 19.5 4 L 14 4 L 10.5 4 z M 11.5 6 L 14 6 L 18.5 6 C 18.777 6 19 6.223 19 6.5 L 19 11 L 19 15.5 C 19 15.777 18.777 16 18.5 16 L 16 16 L 11.5 16 C 11.223 16 11 15.777 11 15.5 L 11 11 L 11 6.5 C 11 6.223 11.223 6 11.5 6 z M 4 8 L 4 9 L 7 9 L 7 8 L 4 8 z M 1 11 L 1 12 L 7 12 L 7 11 L 1 11 z M 3 14 L 3 15 L 7 15 L 7 14 L 3 14 z" display="inline"/><path id="path2876" fill="#000" fill-opacity="1" stroke="none" d="M 10.5 4 C 9.669 4 9 4.669 9 5.5 L 9 6.5 C 9 5.669 9.669 5 10.5 5 L 14 5 L 19.5 5 C 20.331 5 21 5.669 21 6.5 L 21 5.5 C 21 4.669 20.331 4 19.5 4 L 14 4 L 10.5 4 z M 4 8 L 4 9 L 7 9 L 7 8 L 4 8 z M 1 11 L 1 12 L 7 12 L 7 11 L 1 11 z M 3 14 L 3 15 L 7 15 L 7 14 L 3 14 z M 11 15.5 L 11 16.5 C 11 16.777 11.223 17 11.5 17 L 16 17 L 18.5 17 C 18.777 17 19 16.777 19 16.5 L 19 15.5 C 19 15.777 18.777 16 18.5 16 L 16 16 L 11.5 16 C 11.223 16 11 15.777 11 15.5 z" display="inline" opacity=".5"/><path id="path3657" fill="#fff" fill-opacity="1" stroke="none" d="M 11.5 6 C 11.223 6 11 6.223 11 6.5 L 11 7.5 C 11 7.223 11.223 7 11.5 7 L 14 7 L 18.5 7 C 18.777 7 19 7.223 19 7.5 L 19 6.5 C 19 6.223 18.777 6 18.5 6 L 14 6 L 11.5 6 z M 4 9 L 4 10 L 7 10 L 7 9 L 4 9 z M 1 12 L 1 13 L 7 13 L 7 12 L 1 12 z M 3 15 L 3 16 L 7 16 L 7 15 L 3 15 z M 9 16.5 L 9 17.5 C 9 18.331 9.669 19 10.5 19 L 16 19 L 19.5 19 C 20.331 19 21 18.331 21 17.5 L 21 16.5 C 21 17.331 20.331 18 19.5 18 L 16 18 L 10.5 18 C 9.669 18 9 17.331 9 16.5 z" display="inline" opacity=".3"/></g></svg>