<svg xmlns="http://www.w3.org/2000/svg" xmlns:svg="http://www.w3.org/2000/svg" xmlns:xlink="http://www.w3.org/1999/xlink" id="svg2" width="22" height="22" display="inline" version="1.0"><defs id="defs4"><linearGradient id="StandardGradient" x1="11.999" x2="11.999" y1=".922" y2="19.387" gradientTransform="scale(0.9219544,1.0846523)" gradientUnits="userSpaceOnUse"><stop id="stop3283" offset="0" stop-color="#000" stop-opacity=".863"/><stop id="stop2651" offset="1" stop-color="#000" stop-opacity=".471"/></linearGradient><linearGradient id="linearGradient2452" x1="11.999" x2="11.999" y1=".922" y2="17.478" gradientTransform="matrix(0.9247229,0,0,1.0872097,-6.00562e-2,5.997642)" gradientUnits="userSpaceOnUse" xlink:href="#StandardGradient"/><linearGradient id="linearGradient3900" x1="11.999" x2="11.999" y1=".922" y2="17.478" gradientTransform="matrix(0.9247229,0,0,1.0872097,-1.0600562,4.997642)" gradientUnits="userSpaceOnUse" xlink:href="#StandardGradient"/><linearGradient id="linearGradient3906" x1="11.999" x2="11.999" y1=".922" y2="17.478" gradientTransform="matrix(0.9247229,0,0,1.0872097,-6.00562e-2,5.997642)" gradientUnits="userSpaceOnUse" xlink:href="#StandardGradient"/><linearGradient id="linearGradient3340" x1="11.999" x2="11.999" y1="-4.599" y2="13.799" gradientTransform="matrix(0.9247229,0,0,1.0872097,-6.00562e-2,5.997642)" gradientUnits="userSpaceOnUse" xlink:href="#StandardGradient"/><linearGradient id="linearGradient2402" x1="11.999" x2="11.999" y1="-4.599" y2="13.799" gradientTransform="matrix(0.9247229,0,0,1.0872097,-6.00562e-2,5.997642)" gradientUnits="userSpaceOnUse" xlink:href="#StandardGradient"/><linearGradient id="linearGradient2410" x1="11.999" x2="11.999" y1="-4.599" y2="13.799" gradientTransform="matrix(0.9247229,0,0,1.0872097,-6.00562e-2,5.997642)" gradientUnits="userSpaceOnUse" xlink:href="#StandardGradient"/><linearGradient id="linearGradient2413" x1="11.999" x2="11.999" y1="-4.599" y2="13.799" gradientTransform="matrix(0.9247229,0,0,1.0872097,-6.00562e-2,5.997642)" gradientUnits="userSpaceOnUse" xlink:href="#StandardGradient"/><linearGradient id="linearGradient3634" x1="11.999" x2="11.999" y1="-4.599" y2="13.799" gradientTransform="matrix(0.9247229,0,0,1.0872097,-30.060056,5.997642)" gradientUnits="userSpaceOnUse" xlink:href="#StandardGradient"/><clipPath id="clipPath3641" clipPathUnits="userSpaceOnUse"><path id="path3643" fill="#f0f" fill-opacity="1" stroke="none" d="m -30,0 0,22 22,0 0,-22 -22,0 z m 8,1 6,0 0,1 1,0 0,1 1.5,0 c 0.831,0 1.5,0.669 1.5,1.5 l 0,2.59375 c 0.587017,0.2032563 1,0.748375 1,1.40625 l 0,1.5 0,9 0,0.5 c 0,0.831 -0.669,1.5 -1.5,1.5 l -9,0 c -0.831,0 -1.5,-0.669 -1.5,-1.5 l 0,-0.5 -1.5,0 c -0.831,0 -1.5,-0.669 -1.5,-1.5 l 0,-13 C -26,3.669 -25.331,3 -24.5,3 l 1.5,0 0,-1 1,0 0,-1 z m 1,2.03125 0,2 4.03125,0 -0.03125,-2 -4,0 z M -20.5,9 C -20.776999,9 -21,9.223 -21,9.5 l 0,9 c 0,0.277 0.223001,0.5 0.5,0.5 l 7,0 c 0.277,0 0.5,-0.223 0.5,-0.5 l 0,-9 C -13,9.223 -13.223,9 -13.5,9 l -7,0 z" display="inline"/></clipPath><filter id="filter3649"><feGaussianBlur id="feGaussianBlur3651" stdDeviation=".525"/></filter><linearGradient id="linearGradient3022" x1="11.999" x2="11.999" y1="-4.599" y2="13.799" gradientTransform="matrix(0.9247229,0,0,1.0872097,-0.0600562,5.997642)" gradientUnits="userSpaceOnUse" xlink:href="#StandardGradient"/></defs><metadata id="metadata7"/><g id="layer1" display="inline"><path id="path3024" fill="#fff" fill-opacity="1" stroke="none" d="M 7.90625 -0.03125 A 1.0204701 1.0204701 0 0 0 6.96875 0.96875 A 1.0204701 1.0204701 0 0 0 6.96875 1 A 1.0204701 1.0204701 0 0 0 5.96875 1.96875 L 5.5 1.96875 C 4.1213656 1.96875 2.96875 3.1213656 2.96875 4.5 L 2.96875 17.5 C 2.96875 18.878634 4.1213656 20.03125 5.5 20.03125 L 6.1875 20.03125 C 6.4594268 21.128011 7.3262685 22.03125 8.5 22.03125 L 17.5 22.03125 C 18.878634 22.03125 20.03125 20.878634 20.03125 19.5 L 20.03125 19 L 20.03125 10 L 20.03125 8.5 C 20.03125 7.7305986 19.58749 7.1191528 19.03125 6.65625 L 19.03125 4.5 C 19.03125 3.1213656 17.878634 1.96875 16.5 1.96875 L 16.03125 1.96875 A 1.0204701 1.0204701 0 0 0 15.03125 0.96875 A 1.0204701 1.0204701 0 0 0 15 0.96875 A 1.0204701 1.0204701 0 0 0 14 -0.03125 L 8 -0.03125 A 1.0204701 1.0204701 0 0 0 7.90625 -0.03125 z M 8 1 L 14 1 L 14 2 L 15 2 L 15 3 L 16.5 3 C 17.331 3 18 3.669 18 4.5 L 18 7.09375 C 18.587017 7.2970063 19 7.842125 19 8.5 L 19 10 L 19 19 L 19 19.5 C 19 20.331 18.331 21 17.5 21 L 8.5 21 C 7.669 21 7 20.331 7 19.5 L 7 19 L 5.5 19 C 4.669 19 4 18.331 4 17.5 L 4 4.5 C 4 3.669 4.669 3 5.5 3 L 7 3 L 7 2 L 8 2 L 8 1 z M 9 3.03125 L 9 5.03125 L 13.03125 5.03125 L 13 3.03125 L 9 3.03125 z M 9.5 9 C 9.223 9 9 9.223 9 9.5 L 9 18.5 C 9 18.777 9.223 19 9.5 19 L 16.5 19 C 16.777 19 17 18.777 17 18.5 L 17 9.5 C 17 9.223 16.777 9 16.5 9 L 9.5 9 z M 10.03125 10.03125 L 15.96875 10.03125 L 15.96875 17.96875 L 10.03125 17.96875 L 10.03125 10.03125 z" display="inline" opacity=".15"/><path id="Symbol" fill="url(#linearGradient2413)" fill-opacity="1" stroke="none" stroke-dasharray="none" stroke-linecap="round" stroke-linejoin="miter" stroke-miterlimit="4" stroke-opacity="1" stroke-width="1" d="M 8,1 L 8,2 L 7,2 L 7,3 L 5.5,3 C 4.669,3 4,3.669 4,4.5 L 4,17.5 C 4,18.331 4.669,19 5.5,19 L 6.9945825,19 L 6.9945825,19.5 C 6.9945825,20.331 7.6635825,21 8.4945825,21 L 17.5,21 C 18.331,21 19,20.331 19,19.5 L 19,19 L 19,10 L 19,8.5 C 19,7.842125 18.587017,7.2970063 18,7.09375 L 18,4.5 C 18,3.669 17.331,3 16.5,3 L 15,3 L 15,2 L 14,2 L 14,1 L 8,1 z M 9,3.03125 L 13,3.03125 L 13.03125,5.03125 L 9,5.03125 L 9,3.03125 z M 9.4945825,9 L 16.5,9 C 16.777,9 17,9.223 17,9.5 L 17,18.5 C 17,18.777 16.777,19 16.5,19 L 9.4945825,19 C 9.2175825,19 8.9945825,18.777 8.9945825,18.5 L 8.9945825,9.5 C 8.9945825,9.223 9.2175825,9 9.4945825,9 z" display="inline"/><path id="BevelShadow" fill="#000" fill-opacity="1" stroke="none" stroke-dasharray="none" stroke-linecap="round" stroke-linejoin="miter" stroke-miterlimit="4" stroke-opacity="1" stroke-width="1" d="M 8,1 L 8,2 L 14,2 L 14,1 L 8,1 z M 14,2 L 14,3 L 15,3 L 15,2 L 14,2 z M 15,3 L 15,4 L 16.5,4 C 17.331,4 18,4.669 18,5.5 L 18,4.5 C 18,3.669 17.331,3 16.5,3 L 15,3 z M 8,2 L 7,2 L 7,3 L 8,3 L 8,2 z M 7,3 L 5.5,3 C 4.669,3 4,3.669 4,4.5 L 4,5.5 C 4,4.669 4.669,4 5.5,4 L 7,4 L 7,3 z M 9,5.03125 L 9,6.03125 L 13.03125,6.03125 L 13.03125,5.03125 L 13,5.03125 L 9,5.03125 z M 18,7.09375 L 18,8.09375 C 18.587017,8.2970063 19,8.842125 19,9.5 L 19,8.5 C 19,7.842125 18.587017,7.2970063 18,7.09375 z M 8.9945825,18.5 L 8.9945825,19.5 C 8.9945825,19.777 9.2175825,20 9.4945825,20 L 16.5,20 C 16.777,20 17,19.777 17,19.5 L 17,18.5 C 17,18.777 16.777,19 16.5,19 L 9.4945825,19 C 9.2175825,19 8.9945825,18.777 8.9945825,18.5 z" display="inline" opacity=".5"/><path id="BevelHighlight" fill="#fff" fill-opacity="1" stroke="none" stroke-dasharray="none" stroke-linecap="round" stroke-linejoin="miter" stroke-miterlimit="4" stroke-opacity="1" stroke-width="1" d="M 9,3.03125 L 9,4.03125 L 13,4.03125 L 13,3.03125 L 9,3.03125 z M 13,4.03125 L 13,5.03125 L 13.03125,5.03125 L 13,4.03125 z M 9.5,9 C 9.223,9 9,9.223 9,9.5 L 9,10.5 C 9,10.223 9.223,10 9.5,10 L 16.5,10 C 16.777,10 17,10.223 17,10.5 L 17,9.5 C 17,9.223 16.777,9 16.5,9 L 9.5,9 z M 4,17.5 L 4,18.5 C 4,19.331 4.669,20 5.5,20 L 5.71875,20 L 6,20 L 7,20 L 7,20.5 C 7,21.331 8.669,22 9.5,22 L 17.5,22 C 18.331,22 19,21.331 19,20.5 L 19,20 L 19,19.5 C 19,20.331 18.331,21 17.5,21 L 8.5,21 C 7.669,21 7,20.331 7,19.5 L 7,19 L 6,19 L 5.71875,19 L 5.5,19 C 4.669,19 4,18.331 4,17.5 z" display="inline" opacity=".3"/></g></svg>