<svg xmlns="http://www.w3.org/2000/svg" xmlns:svg="http://www.w3.org/2000/svg" xmlns:xlink="http://www.w3.org/1999/xlink" id="svg2" width="22" height="22" display="inline" version="1.0"><defs id="defs4"><linearGradient id="StandardGradient" x1="11.999" x2="11.999" y1=".922" y2="19.387" gradientTransform="scale(0.9219544,1.0846523)" gradientUnits="userSpaceOnUse"><stop id="stop3283" offset="0" stop-color="#000" stop-opacity=".863"/><stop id="stop2651" offset="1" stop-color="#000" stop-opacity=".471"/></linearGradient><linearGradient id="linearGradient2549" x1="11.999" x2="11.999" y1=".922" y2="17.478" gradientTransform="matrix(0.9247229,0,0,1.0872097,-2.0600562,0.9976422)" gradientUnits="userSpaceOnUse" xlink:href="#StandardGradient"/><linearGradient id="linearGradient3628" x1="11.999" x2="11.999" y1=".922" y2="17.478" gradientTransform="matrix(0.9247229,0,0,1.0872097,-32.060056,0.9976422)" gradientUnits="userSpaceOnUse" xlink:href="#StandardGradient"/><linearGradient id="linearGradient3639" x1="11.999" x2="11.999" y1=".922" y2="17.478" gradientTransform="matrix(0.9247229,0,0,1.0872097,-32.060056,20.997642)" gradientUnits="userSpaceOnUse" xlink:href="#StandardGradient"/><clipPath id="clipPath3642" clipPathUnits="userSpaceOnUse"><path id="path3644" fill="#f0f" fill-opacity="1" stroke="none" d="m -30,0 0,22 22,0 0,-22 -22,0 z m 7.5,2 9,0 c 0.831,0 1.5,0.669 1.5,1.5 l 0,12 c 0,0.831 -0.669,1.5 -1.5,1.5 l -9,0 c -0.831,0 -1.5,-0.669 -1.5,-1.5 l 0,-12 C -24,2.669 -23.331,2 -22.5,2 z m 1,2 C -21.777,4 -22,4.223 -22,4.5 l 0,10 c 0,0.277 0.223,0.5 0.5,0.5 l 7,0 c 0.277,0 0.5,-0.223 0.5,-0.5 l 0,-10 C -14,4.223 -14.223,4 -14.5,4 l -7,0 z m -4,1 0.5,0 0,2.5 0,10 c 0,0.277 0.223,0.5 0.5,0.5 l 7,0 2.5,0 0,0.5 c 0,0.831 -0.669,1.5 -1.5,1.5 l -9,0 c -0.831,0 -1.5,-0.669 -1.5,-1.5 l 0,-12 C -27,5.669 -26.331,5 -25.5,5 z" display="inline"/></clipPath><filter id="filter3646"><feGaussianBlur id="feGaussianBlur3648" stdDeviation=".495"/></filter><linearGradient id="linearGradient4459" x1="11.999" x2="11.999" y1=".922" y2="17.478" gradientTransform="matrix(0.9247229,0,0,1.0872097,-2.0600562,0.9976422)" gradientUnits="userSpaceOnUse" xlink:href="#StandardGradient"/><linearGradient id="linearGradient4463" x1="11.999" x2="11.999" y1=".922" y2="17.478" gradientTransform="matrix(0.9247229,0,0,1.0872097,-2.0600562,0.9976422)" gradientUnits="userSpaceOnUse" xlink:href="#StandardGradient"/></defs><metadata id="metadata7"/><g id="layer1" display="inline"><path id="path4461" fill="#fff" fill-opacity="1" stroke="none" d="M 7.5 0.96875 C 6.1148958 0.96875 4.96875 2.1148958 4.96875 3.5 L 4.96875 3.96875 L 4.5 3.96875 C 3.1148958 3.96875 1.96875 5.1148958 1.96875 6.5 L 1.96875 18.5 C 1.96875 19.885104 3.1148958 21.03125 4.5 21.03125 L 13.5 21.03125 C 14.885104 21.03125 16.03125 19.885104 16.03125 18.5 L 16.03125 18.03125 L 16.5 18.03125 C 17.885104 18.03125 19.03125 16.885104 19.03125 15.5 L 19.03125 3.5 C 19.03125 2.1148958 17.885104 0.96875 16.5 0.96875 L 7.5 0.96875 z M 7.5 2 L 16.5 2 C 17.331 2 18 2.669 18 3.5 L 18 15.5 C 18 16.331 17.331 17 16.5 17 L 7.5 17 C 6.669 17 6 16.331 6 15.5 L 6 3.5 C 6 2.669 6.669 2 7.5 2 z M 8.5 4 C 8.223 4 8 4.223 8 4.5 L 8 14.5 C 8 14.777 8.223 15 8.5 15 L 15.5 15 C 15.777 15 16 14.777 16 14.5 L 16 4.5 C 16 4.223 15.777 4 15.5 4 L 8.5 4 z M 4.5 5 L 5 5 L 5 7.5 L 5 17.5 C 5 17.777 5.223 18 5.5 18 L 12.5 18 L 15 18 L 15 18.5 C 15 19.331 14.331 20 13.5 20 L 4.5 20 C 3.669 20 3 19.331 3 18.5 L 3 6.5 C 3 5.669 3.669 5 4.5 5 z M 9.03125 5.03125 L 14.96875 5.03125 L 14.96875 13.96875 L 9.03125 13.96875 L 9.03125 5.03125 z" display="inline" opacity=".15"/><path id="Symbol" fill="url(#linearGradient2549)" fill-opacity="1" stroke="none" stroke-dasharray="none" stroke-linecap="round" stroke-linejoin="miter" stroke-miterlimit="4" stroke-opacity="1" stroke-width="1" d="M 7.5,2 C 6.669,2 6,2.669 6,3.5 L 6,15.5 C 6,16.331 6.669,17 7.5,17 L 16.5,17 C 17.331,17 18,16.331 18,15.5 L 18,3.5 C 18,2.669 17.331,2 16.5,2 L 7.5,2 z M 8.5,4 L 15.5,4 C 15.777,4 16,4.223 16,4.5 L 16,14.5 C 16,14.777 15.777,15 15.5,15 L 8.5,15 C 8.223,15 8,14.777 8,14.5 L 8,4.5 C 8,4.223 8.223,4 8.5,4 z M 4.5,5 C 3.669,5 3,5.669 3,6.5 L 3,18.5 C 3,19.331 3.669,20 4.5,20 L 13.5,20 C 14.331,20 15,19.331 15,18.5 L 15,18 L 12.5,18 L 5.5,18 C 5.223,18 5,17.777 5,17.5 L 5,7.5 L 5,5 L 4.5,5 z" display="inline"/><path id="BevelShadow" fill="#000" fill-opacity="1" stroke="none" stroke-dasharray="none" stroke-linecap="round" stroke-linejoin="miter" stroke-miterlimit="4" stroke-opacity="1" stroke-width="1" d="M 7.5,2 C 6.669,2 6,2.669 6,3.5 L 6,4.5 C 6,3.669 6.669,3 7.5,3 L 16.5,3 C 17.331,3 18,3.669 18,4.5 L 18,3.5 C 18,2.669 17.331,2 16.5,2 L 7.5,2 z M 4.5,5 C 3.669,5 3,5.669 3,6.5 L 3,7.5 C 3,6.669 3.669,6 4.5,6 L 5,6 L 5,5 L 4.5,5 z M 8,14.5 L 8,15.5 C 8,15.777 8.223,16 8.5,16 L 15.5,16 C 15.777,16 16,15.777 16,15.5 L 16,14.5 C 16,14.777 15.777,15 15.5,15 L 8.5,15 C 8.223,15 8,14.777 8,14.5 z M 5,17.5 L 5,18.5 C 5,18.777 5.223,19 5.5,19 L 12.5,19 L 14.90625,19 C 14.959738,18.845522 15,18.673125 15,18.5 L 15,18 L 12.5,18 L 7.5,18 L 5.5,18 C 5.223,18 5,17.777 5,17.5 z" display="inline" opacity=".5"/><path id="BevelHighlight" fill="#fff" fill-opacity="1" stroke="none" stroke-dasharray="none" stroke-linecap="round" stroke-linejoin="miter" stroke-miterlimit="4" stroke-opacity="1" stroke-width="1" d="M 8.5,4 C 8.223,4 8,4.223 8,4.5 L 8,5.5 C 8,5.223 8.223,5 8.5,5 L 15.5,5 C 15.777,5 16,5.223 16,5.5 L 16,4.5 C 16,4.223 15.777,4 15.5,4 L 8.5,4 z M 6,15.5 L 6,16.5 C 6,17.331 6.669,18 7.5,18 L 12.5,18 L 15,18 L 16.5,18 C 17.331,18 18,17.331 18,16.5 L 18,15.5 C 18,16.331 17.331,17 16.5,17 L 7.5,17 C 6.669,17 6,16.331 6,15.5 z M 3,18.5 L 3,19.5 C 3,20.331 3.669,21 4.5,21 L 13.5,21 C 14.331,21 15,20.331 15,19.5 L 15,19 L 14.90625,19 C 14.702994,19.587017 14.157875,20 13.5,20 L 4.5,20 C 3.669,20 3,19.331 3,18.5 z" display="inline" opacity=".3"/></g></svg>