<svg xmlns="http://www.w3.org/2000/svg" xmlns:svg="http://www.w3.org/2000/svg" xmlns:xlink="http://www.w3.org/1999/xlink" id="svg2" width="22" height="22" version="1.0"><defs id="defs4"><linearGradient id="StandardGradient" x1="6.785" x2="6.785" y1="10.091" y2="21.579" gradientTransform="scale(1.4416113,0.6936683)" gradientUnits="userSpaceOnUse"><stop id="stop3308" offset="0" stop-color="#000" stop-opacity=".863"/><stop id="stop3310" offset="1" stop-color="#000" stop-opacity=".471"/></linearGradient><linearGradient id="linearGradient3623" x1="6.785" x2="6.785" y1="10.091" y2="21.579" gradientTransform="matrix(1.4416113,0,0,0.6936683,-30,0)" gradientUnits="userSpaceOnUse" xlink:href="#StandardGradient"/><clipPath id="clipPath3630" clipPathUnits="userSpaceOnUse"><rect id="rect3632" width="22" height="22" x="-30" y="0" fill="#f0f" fill-opacity="1" stroke="none" display="inline"/></clipPath><clipPath id="clipPath3646" clipPathUnits="userSpaceOnUse"><path id="path3648" fill="#f0f" fill-opacity="1" stroke="none" d="m -30,0 0,22 22,0 0,-22 -22,0 z m 19.46875,7.03125 -1.375,7.625 -1.9375,-1.90625 C -16.964899,15.714039 -21.943291,15.701889 -25,12.65625 -25.952169,11.707529 -26.601556,10.575839 -26.96875,9.375 L -23.875,8.5625 c 0.226868,0.658321 0.598028,1.256184 1.125,1.78125 1.816911,1.810331 4.76255,1.868094 6.625,0.125 l -2.03125,-2.03125 7.625,-1.40625 z" display="inline"/></clipPath><filter id="filter3650" width="1.107" height="1.222" x="-.053" y="-.111"><feGaussianBlur id="feGaussianBlur3652" stdDeviation=".365"/></filter><linearGradient id="linearGradient5008" x1="6.785" x2="6.785" y1="10.091" y2="21.579" gradientTransform="scale(1.4416113,0.6936683)" gradientUnits="userSpaceOnUse" xlink:href="#StandardGradient"/><linearGradient id="linearGradient5012" x1="6.785" x2="6.785" y1="10.091" y2="21.579" gradientTransform="scale(1.4416113,0.6936683)" gradientUnits="userSpaceOnUse" xlink:href="#StandardGradient"/></defs><metadata id="metadata7"/><g id="layer3" display="inline"><path id="path5010" fill="#fff" fill-opacity="1" stroke="none" d="M 19.4375 5.96875 A 1.0389505 1.0389505 0 0 0 19.28125 6 L 11.65625 7.40625 A 1.0389505 1.0389505 0 0 0 11.09375 9.1875 L 12.21875 10.3125 C 10.833756 10.97222 9.1191666 10.740001 7.96875 9.59375 C 7.548316 9.1748368 7.2700282 8.7302695 7.09375 8.21875 A 1.0389505 1.0389505 0 0 0 5.875 7.5625 L 2.78125 8.375 A 1.0389505 1.0389505 0 0 0 2.03125 9.6875 C 2.4452264 11.041332 3.203768 12.332671 4.28125 13.40625 C 7.480602 16.594016 12.471676 16.698716 16 14.0625 L 17.375 15.40625 A 1.0389505 1.0389505 0 0 0 19.125 14.84375 L 20.5 7.21875 A 1.0389505 1.0389505 0 0 0 19.4375 5.96875 z M 19.46875 7.03125 L 18.09375 14.65625 L 16.15625 12.75 C 13.035101 15.714044 8.0567083 15.701889 5 12.65625 C 4.0478303 11.707529 3.3984441 10.575839 3.03125 9.375 L 6.125 8.5625 C 6.3518685 9.220821 6.7230275 9.8186837 7.25 10.34375 C 9.0669105 12.154081 12.01255 12.211844 13.875 10.46875 L 11.84375 8.4375 L 19.46875 7.03125 z" opacity=".15"/><path id="Symbol" fill="url(#StandardGradient)" fill-opacity="1" stroke="none" stroke-dasharray="none" stroke-linecap="round" stroke-linejoin="miter" stroke-miterlimit="4" stroke-opacity="1" stroke-width="1" d="M 18.078697,14.650314 L 19.467608,7.0444937 L 11.834151,8.4283767 L 13.871222,10.458073 C 12.008772,12.201167 9.0806187,12.165074 7.2637082,10.354743 C 6.7367357,9.8296767 6.3572243,9.2121697 6.1303558,8.5538487 L 3.0266005,9.3804877 C 3.3937946,10.581327 4.0522416,11.716184 5.0044113,12.664905 C 8.0611196,15.710544 13.038998,15.702754 16.160147,12.73871 L 18.078697,14.650314 z" opacity="1"/><path id="BevelShadow" fill="#000" fill-opacity="1" stroke="none" stroke-dasharray="none" stroke-linecap="round" stroke-linejoin="miter" stroke-miterlimit="4" stroke-opacity="1" stroke-width="1" d="M 19.46875,7.03125 L 11.84375,8.4375 L 12.71875,9.3125 L 19.28125,8.125 L 19.46875,7.03125 z M 6.125,8.5625 L 3.03125,9.375 C 3.1297969,9.6972794 3.2344492,10.033298 3.375,10.34375 L 6.125,9.59375 C 6.3518685,10.252071 6.7230276,10.881184 7.25,11.40625 C 9.0608541,13.210547 11.980335,13.225525 13.84375,11.5 L 13.84375,11.46875 L 13.875,10.46875 L 13.28125,10.90625 C 11.431942,12.162484 8.8882476,11.976065 7.25,10.34375 C 6.7230276,9.8186837 6.3518685,9.220821 6.125,8.5625 z" opacity=".5"/><path id="BevelHighlight" fill="#fff" fill-opacity="1" stroke="none" stroke-dasharray="none" stroke-linecap="round" stroke-linejoin="miter" stroke-miterlimit="4" stroke-opacity="1" stroke-width="1" d="M 19.46875 7.03125 L 18.09375 14.65625 L 16.15625 12.75 C 13.035101 15.714044 8.0567084 15.701889 5 12.65625 C 4.0478303 11.707529 3.398444 10.57584 3.03125 9.375 L 3.03125 10.4375 C 3.398444 11.638339 4.0478303 12.770029 5 13.71875 C 8.0567084 16.764389 13.035101 16.745294 16.15625 13.78125 L 18.09375 15.6875 L 19.46875 8.09375 L 19.46875 7.03125 z M 11.84375 8.4375 L 11.84375 9.46875 L 13.28125 10.90625 C 13.48293 10.769249 13.691859 10.640154 13.875 10.46875 L 11.84375 8.4375 z M 13.28125 10.90625 C 13.050086 11.063279 12.812238 11.20056 12.5625 11.3125 C 12.813352 11.200361 13.049068 11.063971 13.28125 10.90625 z M 12.5625 11.3125 C 12.312762 11.42444 12.043314 11.495662 11.78125 11.5625 C 12.04659 11.495767 12.309683 11.425517 12.5625 11.3125 z M 11.78125 11.5625 C 11.571599 11.61597 11.37019 11.662902 11.15625 11.6875 C 11.36871 11.663628 11.572951 11.614887 11.78125 11.5625 z M 9.40625 11.5625 C 9.6425866 11.624886 9.8831465 11.662008 10.125 11.6875 C 9.879983 11.662581 9.6456638 11.625244 9.40625 11.5625 z M 10.25 11.71875 C 10.448041 11.734404 10.645349 11.727743 10.84375 11.71875 C 10.647471 11.728284 10.445994 11.733316 10.25 11.71875 z" opacity=".3"/></g></svg>