<svg xmlns="http://www.w3.org/2000/svg" xmlns:svg="http://www.w3.org/2000/svg" xmlns:xlink="http://www.w3.org/1999/xlink" id="svg2" width="22" height="22" version="1.0"><defs id="defs4"><linearGradient id="StandardGradient" x1="10.006" x2="10.006" y1="4.163" y2="17.168" gradientTransform="matrix(1.0765258,0,0,0.9227364,-8.0131635e-3,0.1584665)" gradientUnits="userSpaceOnUse"><stop id="stop3337" offset="0" stop-color="#000" stop-opacity=".863"/><stop id="stop3339" offset="1" stop-color="#000" stop-opacity=".471"/></linearGradient><linearGradient id="linearGradient2855" x1="10.006" x2="10.006" y1="4.163" y2="17.168" gradientTransform="matrix(1.0765258,0,0,0.9227364,-30.008013,0.1584665)" gradientUnits="userSpaceOnUse" xlink:href="#StandardGradient"/><clipPath id="clipPath2862" clipPathUnits="userSpaceOnUse"><path id="path2864" fill="#f0f" fill-opacity="1" stroke="none" d="m -30,0 0,22 22,0 0,-22 -22,0 z m 12.96875,4 0,3.03125 5.03125,0 0,6.03125 -5.03125,0 0,2.9375 L -26,10 -17.03125,4 z" display="inline"/></clipPath><linearGradient id="linearGradient2843" x1="10.006" x2="10.006" y1="4.163" y2="17.168" gradientTransform="matrix(1.0765258,0,0,0.9227364,0.9919868,0.1584665)" gradientUnits="userSpaceOnUse" xlink:href="#StandardGradient"/><linearGradient id="linearGradient2854" x1="10.006" x2="10.006" y1="4.163" y2="17.168" gradientTransform="matrix(1.0765258,0,0,0.9227364,-29.008013,0.1584665)" gradientUnits="userSpaceOnUse" xlink:href="#StandardGradient"/><clipPath id="clipPath2861" clipPathUnits="userSpaceOnUse"><path id="path2863" fill="#f0f" fill-opacity="1" stroke="none" d="m -30,0 0,22 22,0 0,-22 -22,0 z m 3,4 2,0 0,6 8.96875,-6 0,3.03125 5.03125,0 0,6.03125 -5.03125,0 0,2.9375 L -25,10 l 0,6 -2,0 0,-12 z" display="inline"/></clipPath><filter id="filter3637"><feGaussianBlur id="feGaussianBlur3639" stdDeviation=".42"/></filter><linearGradient id="linearGradient4513" x1="10.006" x2="10.006" y1="4.163" y2="17.168" gradientTransform="matrix(1.0765258,0,0,0.9227364,0.9919868,0.1584665)" gradientUnits="userSpaceOnUse" xlink:href="#StandardGradient"/><linearGradient id="linearGradient4517" x1="10.006" x2="10.006" y1="4.163" y2="17.168" gradientTransform="matrix(1.0765258,0,0,0.9227364,0.9919868,0.1584665)" gradientUnits="userSpaceOnUse" xlink:href="#StandardGradient"/></defs><metadata id="metadata7"/><g id="layer1" display="inline"><path id="path4515" fill="#fff" fill-opacity="1" stroke="none" d="M 2.8125 3 A 0.99167088 0.99167088 0 0 0 2 4 L 2 16 A 0.99167088 0.99167088 0 0 0 3 17 L 5 17 A 0.99167088 0.99167088 0 0 0 6 16 L 6 11.84375 L 13.40625 16.8125 A 0.99167088 0.99167088 0 0 0 14.96875 16 L 14.96875 14.0625 L 19 14.0625 A 0.99167088 0.99167088 0 0 0 20 13.0625 L 20 7.03125 A 0.99167088 0.99167088 0 0 0 19 6.03125 L 14.96875 6.03125 L 14.96875 4 A 0.99167088 0.99167088 0 0 0 13.40625 3.1875 L 6 8.15625 L 6 4 A 0.99167088 0.99167088 0 0 0 5 3 L 3 3 A 0.99167088 0.99167088 0 0 0 2.90625 3 A 0.99167088 0.99167088 0 0 0 2.8125 3 z M 3 4 L 5 4 L 5 10 L 13.96875 4 L 13.96875 7.03125 L 19 7.03125 L 19 13.0625 L 13.96875 13.0625 L 13.96875 16 L 5 10 L 5 16 L 3 16 L 3 4 z" display="inline" opacity=".15"/><path id="BevelHighlight" fill="#fff" fill-opacity="1" stroke="none" d="M 5 10 L 5 11 L 13.96875 17 L 13.96875 16 L 5 10 z M 13.96875 13.0625 L 13.96875 14.0625 L 19 14.0625 L 19 13.0625 L 13.96875 13.0625 z M 3 16 L 3 17 L 5 17 L 5 16 L 3 16 z" display="inline" opacity=".3"/><path id="Symbol" fill="url(#linearGradient2843)" fill-opacity="1" stroke="none" d="M 3 4 L 3 16 L 5 16 L 5 10 L 5 4 L 3 4 z M 5 10 L 13.96875 16 L 13.96875 13.0625 L 19 13.0625 L 19 7.03125 L 13.96875 7.03125 L 13.96875 4 L 5 10 z" display="inline"/><path id="BevelShadow" fill="#000" fill-opacity="1" stroke="none" d="M 3 4 L 3 5 L 5 5 L 5 4 L 3 4 z M 13.96875 4 L 5 10 L 5.75 10.5 L 13.96875 5 L 13.96875 4 z M 13.96875 7.03125 L 13.96875 8.03125 L 19 8.03125 L 19 7.03125 L 13.96875 7.03125 z" display="inline" opacity=".5"/></g></svg>