<svg xmlns="http://www.w3.org/2000/svg" xmlns:svg="http://www.w3.org/2000/svg" xmlns:xlink="http://www.w3.org/1999/xlink" id="svg2" width="22" height="22" version="1.0"><defs id="defs4"><linearGradient id="StandardGradient" x1="11.794" x2="11.794" y1="3.213" y2="20.137" gradientTransform="scale(1.0598527,0.9435274)" gradientUnits="userSpaceOnUse"><stop id="stop3389" offset="0" stop-color="#000" stop-opacity=".863"/><stop id="stop3391" offset="1" stop-color="#000" stop-opacity=".471"/></linearGradient><linearGradient id="linearGradient3627" x1="11.794" x2="11.794" y1="3.213" y2="20.137" gradientTransform="matrix(1.0598527,0,0,0.9435274,-30,0)" gradientUnits="userSpaceOnUse" xlink:href="#StandardGradient"/><clipPath id="clipPath3634" clipPathUnits="userSpaceOnUse"><path id="path3636" fill="#f0f" fill-opacity="1" stroke="none" d="m -30,0 0,22 22,0 0,-22 -22,0 z M -19.03125,3.03125 -16,6.0625 -16,5 -14,5 -14,8.03125 -10.0625,12 -12,12 l 0,7 -14,0 0,-6.96875 -2,0 8.96875,-9 z" display="inline"/></clipPath><filter id="filter3638"><feGaussianBlur id="feGaussianBlur3640" stdDeviation=".509"/></filter><linearGradient id="linearGradient3782" x1="11.794" x2="11.794" y1="3.213" y2="20.137" gradientTransform="scale(1.0598527,0.9435274)" gradientUnits="userSpaceOnUse" xlink:href="#StandardGradient"/><linearGradient id="linearGradient3786" x1="11.794" x2="11.794" y1="3.213" y2="20.137" gradientTransform="scale(1.0598527,0.9435274)" gradientUnits="userSpaceOnUse" xlink:href="#StandardGradient"/></defs><metadata id="metadata7"/><g id="layer1"><path id="path3784" fill="#fff" fill-opacity="1" stroke="none" d="M 10.875 1.96875 A 1.0500049 1.0500049 0 0 0 10.21875 2.28125 L 1.25 11.28125 A 1.0500049 1.0500049 0 0 0 2 13.09375 L 2.9375 13.09375 L 2.9375 19 A 1.0500049 1.0500049 0 0 0 4 20.0625 L 18 20.0625 A 1.0500049 1.0500049 0 0 0 19.0625 19 L 19.0625 13.0625 L 19.9375 13.0625 A 1.0500049 1.0500049 0 0 0 20.6875 11.25 L 17.0625 7.59375 L 17.0625 5 A 1.0500049 1.0500049 0 0 0 16 3.9375 L 14 3.9375 A 1.0500049 1.0500049 0 0 0 13.53125 4.09375 L 13.5 4.09375 L 11.71875 2.28125 A 1.0500049 1.0500049 0 0 0 10.96875 1.96875 A 1.0500049 1.0500049 0 0 0 10.875 1.96875 z M 10.96875 3.03125 L 14 6.0625 L 14 5 L 16 5 L 16 8.03125 L 19.9375 12 L 18 12 L 18 19 L 4 19 L 4 12.03125 L 2 12.03125 L 10.96875 3.03125 z" display="inline" opacity=".15"/><path id="Symbol" fill="url(#StandardGradient)" fill-opacity="1" stroke="none" stroke-dasharray="none" stroke-linecap="round" stroke-linejoin="miter" stroke-miterlimit="4" stroke-opacity="1" stroke-width="1" d="M 10.96875,3.03125 L 2,12.03125 L 4,12.03125 L 4,19 L 18,19 L 18,12 L 19.9375,12 L 16,8.03125 L 16,5 L 14,5 L 14,6.0625 L 10.96875,3.03125 z" display="inline" opacity="1"/><path id="BevelShadow" fill="#000" fill-opacity="1" stroke="none" stroke-dasharray="none" stroke-linecap="round" stroke-linejoin="miter" stroke-miterlimit="4" stroke-opacity="1" stroke-width="1" d="M 10.96875 3.03125 L 2 12.03125 L 3 12.03125 L 10.96875 4.03125 L 14 7.0625 L 14 6.0625 L 10.96875 3.03125 z M 14 5 L 14 6 L 16 6 L 16 5 L 14 5 z M 16 8.03125 L 16 9.03125 L 18.9375 12 L 19.9375 12 L 16 8.03125 z" display="inline" opacity=".5"/><path id="BevelHighlight" fill="#fff" fill-opacity="1" stroke="none" stroke-dasharray="none" stroke-linecap="round" stroke-linejoin="miter" stroke-miterlimit="4" stroke-opacity="1" stroke-width="1" d="M 18 12 L 18 13 L 19.9375 13 L 19.9375 12 L 18 12 z M 2 12.03125 L 2 13.03125 L 4 13.03125 L 4 12.03125 L 2 12.03125 z M 4 19 L 4 20 L 18 20 L 18 19 L 4 19 z" display="inline" opacity=".3"/></g></svg>