<svg xmlns="http://www.w3.org/2000/svg" xmlns:svg="http://www.w3.org/2000/svg" xmlns:xlink="http://www.w3.org/1999/xlink" id="svg2" width="22" height="22" version="1.0"><defs id="defs4"><linearGradient id="StandardGradient" x1="11.162" x2="11.162" y1="5.655" y2="18.098" gradientTransform="scale(1.1310246,0.8841541)" gradientUnits="userSpaceOnUse"><stop id="stop3280" offset="0" stop-color="#000" stop-opacity=".863"/><stop id="stop3282" offset="1" stop-color="#000" stop-opacity=".471"/></linearGradient><linearGradient id="linearGradient3627" x1="11.162" x2="11.162" y1="5.655" y2="18.098" gradientTransform="matrix(1.1310246,0,0,0.8841541,-30,0)" gradientUnits="userSpaceOnUse" xlink:href="#StandardGradient"/><linearGradient id="linearGradient3634" x1="11.162" x2="11.162" y1="5.655" y2="18.098" gradientTransform="matrix(1.1310246,0,0,0.8841541,-30,20)" gradientUnits="userSpaceOnUse" xlink:href="#StandardGradient"/><clipPath id="clipPath3637" clipPathUnits="userSpaceOnUse"><path id="path3639" fill="#f0f" fill-opacity="1" stroke="none" d="m -30,0 0,22 22,0 0,-22 -22,0 z m 15.03125,5 3.03125,0 0,5 c 0,1.662 -1.337999,3 -3,3 l -5,0 0,3 L -26,11.5625 -19.9375,7 l 0,2.96875 2.96875,0 c 1.671127,0 2,-0.360122 2,-2.03125 l 0,-2.9375 z" display="inline"/></clipPath><linearGradient id="linearGradient2853" x1="11.162" x2="11.162" y1="5.655" y2="18.098" gradientTransform="matrix(1.1310246,0,0,-0.8841541,0,9)" gradientUnits="userSpaceOnUse" xlink:href="#StandardGradient"/><linearGradient id="linearGradient2855" x1="11.162" x2="11.162" y1="5.655" y2="18.098" gradientTransform="scale(1.1310246,0.8841541)" gradientUnits="userSpaceOnUse" xlink:href="#StandardGradient"/><linearGradient id="linearGradient2858" x1="11.162" x2="11.162" y1="5.655" y2="18.098" gradientTransform="matrix(1.1310246,0,0,0.8841541,3,4)" gradientUnits="userSpaceOnUse" xlink:href="#StandardGradient"/><linearGradient id="linearGradient3640" x1="11.162" x2="11.162" y1="5.655" y2="18.098" gradientTransform="matrix(1.6965369,0,0,1.3262312,2.5,-1.5)" gradientUnits="userSpaceOnUse" xlink:href="#StandardGradient"/><linearGradient id="linearGradient3642" x1="11.162" x2="11.162" y1="5.655" y2="18.098" gradientTransform="matrix(1.1310246,0,0,0.8841541,3,4)" gradientUnits="userSpaceOnUse" xlink:href="#StandardGradient"/><linearGradient id="linearGradient3652" x1="11.162" x2="11.162" y1="5.655" y2="18.098" gradientTransform="matrix(1.1310246,0,0,0.8841541,3,5)" gradientUnits="userSpaceOnUse" xlink:href="#StandardGradient"/><linearGradient id="linearGradient3656" x1="11.162" x2="11.162" y1="5.655" y2="18.098" gradientTransform="matrix(1.1310246,0,0,0.8841541,3,4)" gradientUnits="userSpaceOnUse" xlink:href="#StandardGradient"/><linearGradient id="linearGradient3661" x1="11.162" x2="11.162" y1="5.655" y2="18.098" gradientTransform="matrix(1.1310246,0,0,0.8841541,-27,4)" gradientUnits="userSpaceOnUse" xlink:href="#StandardGradient"/><clipPath id="clipPath3668" clipPathUnits="userSpaceOnUse"><path id="path3670" fill="#f0f" fill-opacity="1" stroke="none" d="m -30,0 0,22 22,0 0,-22 -22,0 z m 13.0625,3 3,0 c 1.662001,0 3,1.338 3,3 l 0,7 c 0,1.662 -1.337999,3 -3,3 l -3,0 0,3 -6.0625,-4 6.0625,-4 0,2.96875 1.96875,0 c 1.671127,0 2,-0.360122 2,-2.03125 l 0,-4.875 c 0,-1.6711282 -0.328873,-2.03125 -2,-2.03125 l -1.96875,0 0,-2.03125 z M -26,13.5 c 0.828427,0 1.5,0.671573 1.5,1.5 0,0.828428 -0.671573,1.5 -1.5,1.5 -0.828427,0 -1.5,-0.671572 -1.5,-1.5 0,-0.828427 0.671573,-1.5 1.5,-1.5 z" display="inline"/></clipPath><filter id="filter3672"><feGaussianBlur id="feGaussianBlur3674" stdDeviation=".488"/></filter><linearGradient id="linearGradient3989" x1="11.162" x2="11.162" y1="5.655" y2="18.098" gradientTransform="matrix(1.1310246,0,0,0.8841541,3,4)" gradientUnits="userSpaceOnUse" xlink:href="#StandardGradient"/><linearGradient id="linearGradient3993" x1="11.162" x2="11.162" y1="5.655" y2="18.098" gradientTransform="matrix(1.1310246,0,0,0.8841541,3,4)" gradientUnits="userSpaceOnUse" xlink:href="#StandardGradient"/><linearGradient id="linearGradient4000" x1="11.162" x2="11.162" y1="5.655" y2="18.098" gradientTransform="matrix(1.1310246,0,0,0.8841541,3,4)" gradientUnits="userSpaceOnUse" xlink:href="#StandardGradient"/></defs><metadata id="metadata7"/><g id="layer3" display="inline"><path id="path3991" fill="#fff" fill-opacity="1" stroke="none" d="M 12.875 2 A 0.99718534 0.99718534 0 0 0 12.0625 3 L 12.0625 5.03125 A 0.99718534 0.99718534 0 0 0 13.0625 6.03125 L 15.03125 6.03125 C 15.795191 6.03125 15.974712 6.1632103 15.9375 6.125 C 15.900288 6.0867897 16.03125 6.2923437 16.03125 7.0625 L 16.03125 11.9375 C 16.03125 12.707656 15.900288 12.91321 15.9375 12.875 C 15.974712 12.83679 15.795191 12.96875 15.03125 12.96875 L 14.0625 12.96875 L 14.0625 11 A 0.99718534 0.99718534 0 0 0 12.5 10.15625 L 6.4375 14.15625 A 0.99718534 0.99718534 0 0 0 6.21875 14.375 C 5.9089937 13.347554 5.1212386 12.5 4 12.5 C 2.6327077 12.5 1.5 13.632708 1.5 15 C 1.5 16.367293 2.6327085 17.5 4 17.5 C 5.1212379 17.5 5.9089935 16.652446 6.21875 15.625 A 0.99718534 0.99718534 0 0 0 6.4375 15.84375 L 12.5 19.84375 A 0.99718534 0.99718534 0 0 0 14.0625 19 L 14.0625 17 L 16.0625 17 C 18.259639 17 20.0625 15.197138 20.0625 13 L 20.0625 6 C 20.0625 3.8028618 18.259639 2 16.0625 2 L 13.0625 2 A 0.99718534 0.99718534 0 0 0 12.96875 2 A 0.99718534 0.99718534 0 0 0 12.875 2 z M 13.0625 3 L 16.0625 3 C 17.724501 3 19.0625 4.338 19.0625 6 L 19.0625 13 C 19.0625 14.662 17.724501 16 16.0625 16 L 13.0625 16 L 13.0625 19 L 7 15 L 13.0625 11 L 13.0625 13.96875 L 15.03125 13.96875 C 16.702377 13.96875 17.03125 13.608628 17.03125 11.9375 L 17.03125 7.0625 C 17.03125 5.3913718 16.702377 5.03125 15.03125 5.03125 L 13.0625 5.03125 L 13.0625 3 z M 4 13.5 C 4.828427 13.5 5.5 14.171573 5.5 15 C 5.5 15.828428 4.828427 16.5 4 16.5 C 3.1715729 16.5 2.5 15.828428 2.5 15 C 2.5 14.171573 3.1715729 13.5 4 13.5 z" display="inline" opacity=".15"/><path id="path3638" fill="url(#linearGradient3642)" fill-opacity="1" stroke="none" d="M 13.0625 3 L 13.0625 5.03125 L 15.03125 5.03125 C 16.702377 5.03125 17.03125 5.3913718 17.03125 7.0625 L 17.03125 11.9375 C 17.03125 13.608628 16.702377 13.96875 15.03125 13.96875 L 13.0625 13.96875 L 13.0625 11 L 7 15 L 13.0625 19 L 13.0625 16 L 16.0625 16 C 17.724501 16 19.0625 14.662 19.0625 13 L 19.0625 6 C 19.0625 4.338 17.724501 3 16.0625 3 L 13.0625 3 z M 4 13.5 C 3.1715729 13.5 2.5 14.171573 2.5 15 C 2.5 15.828428 3.1715729 16.5 4 16.5 C 4.828427 16.5 5.5 15.828428 5.5 15 C 5.5 14.171573 4.828427 13.5 4 13.5 z" display="inline"/><path id="path3645" fill="#000" fill-opacity="1" stroke="none" d="M 13.0625 3 L 13.0625 4 L 16.0625 4 C 17.724501 4 19.0625 5.338 19.0625 7 L 19.0625 6 C 19.0625 4.338 17.724501 3 16.0625 3 L 13.0625 3 z M 13.0625 11 L 7 15 L 7.75 15.5 L 13.0625 12 L 13.0625 11 z M 17.03125 11.9375 C 17.03125 13.608628 16.702377 13.96875 15.03125 13.96875 L 13.0625 13.96875 L 13.0625 14.96875 L 15.03125 14.96875 C 16.702377 14.96875 17.03125 14.608628 17.03125 12.9375 L 17.03125 11.9375 z M 4 13.5 C 3.1715729 13.5 2.5 14.171573 2.5 15 C 2.5 15.172589 2.540108 15.345681 2.59375 15.5 C 2.7975898 14.913588 3.3441619 14.5 4 14.5 C 4.655838 14.5 5.2024102 14.913588 5.40625 15.5 C 5.4598921 15.345681 5.5 15.172589 5.5 15 C 5.5 14.171573 4.828427 13.5 4 13.5 z" display="inline" opacity=".5"/><path id="path3650" fill="#fff" fill-opacity="1" stroke="none" d="M 13.0625 5.03125 L 13.0625 6.03125 L 15.03125 6.03125 C 16.702377 6.03125 17.03125 6.3913718 17.03125 8.0625 L 17.03125 7.0625 C 17.03125 5.3913718 16.702377 5.03125 15.03125 5.03125 L 13.0625 5.03125 z M 19.0625 13 C 19.0625 14.662 17.724501 16 16.0625 16 L 13.0625 16 L 13.0625 17 L 16.0625 17 C 17.724501 17 19.0625 15.662 19.0625 14 L 19.0625 13 z M 2.59375 15.5 C 2.540108 15.654319 2.5 15.827411 2.5 16 C 2.5 16.828428 3.1715729 17.5 4 17.5 C 4.828427 17.5 5.5 16.828428 5.5 16 C 5.5 15.827411 5.4598921 15.654319 5.40625 15.5 C 5.2024102 16.086412 4.655838 16.5 4 16.5 C 3.3441619 16.5 2.7975898 16.086412 2.59375 15.5 z M 7.75 15.5 L 7 16 L 13.0625 20 L 13.0625 19 L 7.75 15.5 z" display="inline" opacity=".3"/></g></svg>