<svg xmlns="http://www.w3.org/2000/svg" xmlns:svg="http://www.w3.org/2000/svg" xmlns:xlink="http://www.w3.org/1999/xlink" id="svg2" width="22" height="22" version="1.0"><defs id="defs4"><linearGradient id="StandardGradient" x1="10.006" x2="10.006" y1="4.163" y2="17.168" gradientTransform="matrix(-1.0765258,0,0,0.9227364,22.008013,0.1584665)" gradientUnits="userSpaceOnUse"><stop id="stop3318" offset="0" stop-color="#000" stop-opacity=".863"/><stop id="stop3320" offset="1" stop-color="#000" stop-opacity=".471"/></linearGradient><linearGradient id="linearGradient2855" x1="10.006" x2="10.006" y1="4.163" y2="17.168" gradientTransform="matrix(-1.0765258,0,0,0.9227364,-7.991987,0.1584665)" gradientUnits="userSpaceOnUse" xlink:href="#StandardGradient"/><clipPath id="clipPath2862" clipPathUnits="userSpaceOnUse"><path id="path2864" fill="#f0f" fill-opacity="1" stroke="none" d="m -30,0 0,22 22,0 0,-22 -22,0 z m 9.03125,4 8.96875,6 -8.96875,6 0,-2.9375 -5.03125,0 0,-6.03125 5.03125,0 0,-3.03125 z" display="inline"/></clipPath><linearGradient id="linearGradient2841" x1="10.006" x2="10.006" y1="4.163" y2="17.168" gradientTransform="matrix(-1.0765258,0,0,0.9227364,21.008013,0.1584665)" gradientUnits="userSpaceOnUse" xlink:href="#StandardGradient"/><linearGradient id="linearGradient2856" x1="10.006" x2="10.006" y1="4.163" y2="17.168" gradientTransform="matrix(-1.0765258,0,0,0.9227364,-8.991987,0.1584665)" gradientUnits="userSpaceOnUse" xlink:href="#StandardGradient"/><clipPath id="clipPath2863" clipPathUnits="userSpaceOnUse"><path id="path2865" fill="#f0f" fill-opacity="1" stroke="none" d="m -30,0 0,22 22,0 0,-22 -22,0 z m 8.03125,4 8.96875,6 0,-6 2,0 0,12 -2,0 0,-6 -8.96875,6 0,-2.9375 -5.03125,0 0,-6.03125 5.03125,0 0,-3.03125 z" display="inline"/></clipPath><filter id="filter3643"><feGaussianBlur id="feGaussianBlur3645" stdDeviation=".42"/></filter><linearGradient id="linearGradient3978" x1="10.006" x2="10.006" y1="4.163" y2="17.168" gradientTransform="matrix(-1.0765258,0,0,0.9227364,21.008013,0.1584665)" gradientUnits="userSpaceOnUse" xlink:href="#StandardGradient"/><linearGradient id="linearGradient3982" x1="10.006" x2="10.006" y1="4.163" y2="17.168" gradientTransform="matrix(-1.0765258,0,0,0.9227364,21.008013,0.1584665)" gradientUnits="userSpaceOnUse" xlink:href="#StandardGradient"/></defs><metadata id="metadata7"/><g id="layer1" display="inline"><path id="path3980" fill="#fff" fill-opacity="1" stroke="none" d="M 7.90625 3 A 1.0038356 1.0038356 0 0 0 7.03125 4 L 7.03125 6.03125 L 3 6.03125 A 1.0038356 1.0038356 0 0 0 2 7.03125 L 2 13.0625 A 1.0038356 1.0038356 0 0 0 3 14.0625 L 7.03125 14.0625 L 7.03125 16 A 1.0038356 1.0038356 0 0 0 8.59375 16.84375 L 16 11.875 L 16 16 A 1.0038356 1.0038356 0 0 0 17 17 L 19 17 A 1.0038356 1.0038356 0 0 0 20 16 L 20 4 A 1.0038356 1.0038356 0 0 0 19 3 L 17 3 A 1.0038356 1.0038356 0 0 0 16 4 L 16 8.125 L 8.59375 3.15625 A 1.0038356 1.0038356 0 0 0 7.90625 3 z M 8.03125 4 L 17 10 L 17 4 L 19 4 L 19 16 L 17 16 L 17 10 L 8.03125 16 L 8.03125 13.0625 L 3 13.0625 L 3 7.03125 L 8.03125 7.03125 L 8.03125 4 z" display="inline" opacity=".15"/><path id="BevelHighlight" fill="#fff" fill-opacity="1" stroke="none" d="M 17 10 L 8.03125 16 L 8.03125 17 L 17 11 L 17 10 z M 3 13.0625 L 3 14.0625 L 8.03125 14.0625 L 8.03125 13.0625 L 3 13.0625 z M 17 16 L 17 17 L 19 17 L 19 16 L 17 16 z" display="inline" opacity=".3"/><path id="Symbol" fill="url(#linearGradient2841)" fill-opacity="1" stroke="none" d="M 8.03125 4 L 8.03125 7.03125 L 3 7.03125 L 3 13.0625 L 8.03125 13.0625 L 8.03125 16 L 17 10 L 8.03125 4 z M 17 10 L 17 16 L 19 16 L 19 4 L 17 4 L 17 10 z" display="inline"/><path id="BevelShadow" fill="#000" fill-opacity="1" stroke="none" d="M 8.03125 4 L 8.03125 5 L 16.25 10.5 L 17 10 L 8.03125 4 z M 17 4 L 17 5 L 19 5 L 19 4 L 17 4 z M 3 7.03125 L 3 8.03125 L 8.03125 8.03125 L 8.03125 7.03125 L 3 7.03125 z" display="inline" opacity=".5"/></g></svg>