<svg xmlns="http://www.w3.org/2000/svg" xmlns:svg="http://www.w3.org/2000/svg" xmlns:xlink="http://www.w3.org/1999/xlink" id="svg2" width="22" height="22" version="1.0"><defs id="defs4"><linearGradient id="StandardGradient" x1="10.006" x2="10.006" y1="4.163" y2="17.168" gradientTransform="matrix(-1.0765258,0,0,0.9227364,22.008013,0.1584665)" gradientUnits="userSpaceOnUse"><stop id="stop3318" offset="0" stop-color="#000" stop-opacity=".863"/><stop id="stop3320" offset="1" stop-color="#000" stop-opacity=".471"/></linearGradient><linearGradient id="linearGradient2855" x1="10.006" x2="10.006" y1="4.163" y2="17.168" gradientTransform="matrix(-1.0765258,0,0,0.9227364,-7.991987,0.1584665)" gradientUnits="userSpaceOnUse" xlink:href="#StandardGradient"/><clipPath id="clipPath2862" clipPathUnits="userSpaceOnUse"><path id="path2864" fill="#f0f" fill-opacity="1" stroke="none" d="m -30,0 0,22 22,0 0,-22 -22,0 z m 9.03125,4 8.96875,6 -8.96875,6 0,-2.9375 -5.03125,0 0,-6.03125 5.03125,0 0,-3.03125 z" display="inline"/></clipPath><filter id="filter3638"><feGaussianBlur id="feGaussianBlur3640" stdDeviation=".39"/></filter><linearGradient id="linearGradient5523" x1="10.006" x2="10.006" y1="4.163" y2="17.168" gradientTransform="matrix(-1.0765258,0,0,0.9227364,22.008013,0.1584665)" gradientUnits="userSpaceOnUse" xlink:href="#StandardGradient"/><linearGradient id="linearGradient5527" x1="10.006" x2="10.006" y1="4.163" y2="17.168" gradientTransform="matrix(-1.0765258,0,0,0.9227364,22.008013,0.1584665)" gradientUnits="userSpaceOnUse" xlink:href="#StandardGradient"/></defs><metadata id="metadata7"/><g id="layer1" display="inline"><path id="path5525" fill="#fff" fill-opacity="1" stroke="none" d="M 8.90625 2.96875 A 1.0265842 1.0265842 0 0 0 8 4 L 8 6 L 4 6 A 1.0265842 1.0265842 0 0 0 2.96875 7.03125 L 2.96875 13.0625 A 1.0265842 1.0265842 0 0 0 4 14.09375 L 8 14.09375 L 8 16 A 1.0265842 1.0265842 0 0 0 9.59375 16.84375 L 18.5625 10.84375 A 1.0265842 1.0265842 0 0 0 18.5625 9.15625 L 9.59375 3.15625 A 1.0265842 1.0265842 0 0 0 8.90625 2.96875 z M 9.03125 4 L 18 10 L 9.03125 16 L 9.03125 13.0625 L 4 13.0625 L 4 7.03125 L 9.03125 7.03125 L 9.03125 4 z" display="inline" opacity=".15"/><path id="BevelHighlight" fill="#fff" fill-opacity="1" stroke="none" stroke-dasharray="none" stroke-linecap="round" stroke-linejoin="miter" stroke-miterlimit="4" stroke-opacity="1" stroke-width="1" d="M 18,10 L 18,11 L 9.03125,17 L 9.03125,16 L 18,10 z M 9.03125,13.0625 L 9.03125,14.0625 L 4,14.0625 L 4,13.0625 L 9.03125,13.0625 z" display="inline" opacity=".3"/><path id="Symbol" fill="url(#StandardGradient)" fill-opacity="1" stroke="none" stroke-dasharray="none" stroke-linecap="round" stroke-linejoin="miter" stroke-miterlimit="4" stroke-opacity="1" stroke-width="1" d="M 9.02288,4 L 18,9.9976252 L 9.02288,16 L 9.02288,13.062512 L 4,13.062512 L 4,7.0176849 L 9.02288,7.0283839 L 9.02288,4 z" display="inline" opacity="1"/><path id="BevelShadow" fill="#000" fill-opacity="1" stroke="none" stroke-dasharray="none" stroke-linecap="round" stroke-linejoin="miter" stroke-miterlimit="4" stroke-opacity="1" stroke-width="1" d="M 9.03125,4 L 18,10 L 17.25,10.5 L 9.03125,5 L 9.03125,4 z M 9.03125,7.03125 L 9.03125,8.03125 L 4,8.03125 L 4,7.03125 L 9.03125,7.03125 z" display="inline" opacity=".5"/></g></svg>