<svg xmlns="http://www.w3.org/2000/svg" xmlns:svg="http://www.w3.org/2000/svg" xmlns:xlink="http://www.w3.org/1999/xlink" id="svg2" width="22" height="22" version="1.0"><defs id="defs4"><linearGradient id="StandardGradient" x1="10.006" x2="10.006" y1="4.163" y2="17.168" gradientTransform="matrix(1.0765258,0,0,0.9227364,-8.0131635e-3,0.1584665)" gradientUnits="userSpaceOnUse"><stop id="stop3337" offset="0" stop-color="#000" stop-opacity=".863"/><stop id="stop3339" offset="1" stop-color="#000" stop-opacity=".471"/></linearGradient><linearGradient id="linearGradient2855" x1="10.006" x2="10.006" y1="4.163" y2="17.168" gradientTransform="matrix(1.0765258,0,0,0.9227364,-30.008013,0.1584665)" gradientUnits="userSpaceOnUse" xlink:href="#StandardGradient"/><clipPath id="clipPath2862" clipPathUnits="userSpaceOnUse"><path id="path2864" fill="#f0f" fill-opacity="1" stroke="none" d="m -30,0 0,22 22,0 0,-22 -22,0 z m 12.96875,4 0,3.03125 5.03125,0 0,6.03125 -5.03125,0 0,2.9375 L -26,10 -17.03125,4 z" display="inline"/></clipPath><filter id="filter3638"><feGaussianBlur id="feGaussianBlur3640" stdDeviation=".39"/></filter><linearGradient id="linearGradient5512" x1="10.006" x2="10.006" y1="4.163" y2="17.168" gradientTransform="matrix(1.0765258,0,0,0.9227364,-0.00801316,0.1584665)" gradientUnits="userSpaceOnUse" xlink:href="#StandardGradient"/><linearGradient id="linearGradient5516" x1="10.006" x2="10.006" y1="4.163" y2="17.168" gradientTransform="matrix(1.0765258,0,0,0.9227364,-0.00801316,0.1584665)" gradientUnits="userSpaceOnUse" xlink:href="#StandardGradient"/></defs><metadata id="metadata7"/><g id="layer1" display="inline"><path id="path5514" fill="#fff" fill-opacity="1" stroke="none" d="M 12.84375 2.96875 A 1.0169605 1.0169605 0 0 0 12.40625 3.15625 L 3.4375 9.15625 A 1.0169605 1.0169605 0 0 0 3.4375 10.84375 L 12.40625 16.84375 A 1.0169605 1.0169605 0 0 0 14 16 L 14 14.09375 L 18 14.09375 A 1.0169605 1.0169605 0 0 0 19.03125 13.0625 L 19.03125 7.03125 A 1.0169605 1.0169605 0 0 0 18 6 L 14 6 L 14 4 A 1.0169605 1.0169605 0 0 0 12.9375 2.96875 A 1.0169605 1.0169605 0 0 0 12.84375 2.96875 z M 12.96875 4 L 12.96875 7.03125 L 18 7.03125 L 18 13.0625 L 12.96875 13.0625 L 12.96875 16 L 4 10 L 12.96875 4 z" display="inline" opacity=".15"/><path id="BevelHighlight" fill="#fff" fill-opacity="1" stroke="none" stroke-dasharray="none" stroke-linecap="round" stroke-linejoin="miter" stroke-miterlimit="4" stroke-opacity="1" stroke-width="1" d="M 4 10 L 4 11 L 12.96875 17 L 12.96875 16 L 4 10 z M 12.96875 13.0625 L 12.96875 14.0625 L 18 14.0625 L 18 13.0625 L 12.96875 13.0625 z" display="inline" opacity=".3"/><path id="Symbol" fill="url(#StandardGradient)" fill-opacity="1" stroke="none" stroke-dasharray="none" stroke-linecap="round" stroke-linejoin="miter" stroke-miterlimit="4" stroke-opacity="1" stroke-width="1" d="M 12.97712,4 L 4,9.9976252 L 12.97712,16 L 12.97712,13.062512 L 18,13.062512 L 18,7.0176849 L 12.97712,7.0283839 L 12.97712,4 z" display="inline" opacity="1"/><path id="BevelShadow" fill="#000" fill-opacity="1" stroke="none" stroke-dasharray="none" stroke-linecap="round" stroke-linejoin="miter" stroke-miterlimit="4" stroke-opacity="1" stroke-width="1" d="M 12.96875 4 L 4 10 L 4.75 10.5 L 12.96875 5 L 12.96875 4 z M 12.96875 7.03125 L 12.96875 8.03125 L 18 8.03125 L 18 7.03125 L 12.96875 7.03125 z" display="inline" opacity=".5"/></g></svg>