<svg xmlns="http://www.w3.org/2000/svg" xmlns:svg="http://www.w3.org/2000/svg" xmlns:xlink="http://www.w3.org/1999/xlink" id="svg2" width="22" height="22" version="1.0"><defs id="defs4"><linearGradient id="StandardGradient" x1="7.023" x2="7.023" y1="8" y2="20.052" gradientTransform="matrix(-1.3333333,0,0,0.75,22,0)" gradientUnits="userSpaceOnUse"><stop id="stop3389" offset="0" stop-color="#000" stop-opacity=".863"/><stop id="stop3391" offset="1" stop-color="#000" stop-opacity=".471"/></linearGradient><linearGradient id="linearGradient3626" x1="7.023" x2="7.023" y1="8" y2="20.052" gradientTransform="matrix(-1.3333333,0,0,0.75,-8,0)" gradientUnits="userSpaceOnUse" xlink:href="#StandardGradient"/><clipPath id="clipPath3633" clipPathUnits="userSpaceOnUse"><path id="path3635" fill="#f0f" fill-opacity="1" stroke="none" d="m -30,0 0,22 22,0 0,-22 -22,0 z m 3,6 7,3.9375 L -20,6 -13,9.9375 -13,6 l 2,0 0,9 -2,0 0,-3.9375 L -20,15 -20,11.0625 -27,15 -27,6 z" display="inline"/></clipPath><filter id="filter3637"><feGaussianBlur id="feGaussianBlur3639" stdDeviation=".375"/></filter><linearGradient id="linearGradient3940" x1="7.023" x2="7.023" y1="8" y2="20.052" gradientTransform="matrix(-1.3333333,0,0,0.75,22,0)" gradientUnits="userSpaceOnUse" xlink:href="#StandardGradient"/><linearGradient id="linearGradient3944" x1="7.023" x2="7.023" y1="8" y2="20.052" gradientTransform="matrix(-1.3333333,0,0,0.75,22,0)" gradientUnits="userSpaceOnUse" xlink:href="#StandardGradient"/></defs><metadata id="metadata7"/><g id="layer1"><path id="path3942" fill="#fff" fill-opacity="1" fill-rule="nonzero" stroke="none" d="M 2.8125 5.03125 A 0.95886472 0.95886472 0 0 0 2.03125 6 L 2.03125 15 A 0.95886472 0.95886472 0 0 0 3.46875 15.84375 L 9.03125 12.71875 L 9.03125 15 A 0.95886472 0.95886472 0 0 0 10.46875 15.84375 L 16.03125 12.71875 L 16.03125 15 A 0.95886472 0.95886472 0 0 0 17 15.96875 L 19 15.96875 A 0.95886472 0.95886472 0 0 0 19.96875 15 L 19.96875 6 A 0.95886472 0.95886472 0 0 0 19 5.03125 L 17 5.03125 A 0.95886472 0.95886472 0 0 0 16.03125 6 L 16.03125 8.28125 L 10.46875 5.15625 A 0.95886472 0.95886472 0 0 0 9.03125 6 L 9.03125 8.28125 L 3.46875 5.15625 A 0.95886472 0.95886472 0 0 0 2.90625 5.03125 A 0.95886472 0.95886472 0 0 0 2.8125 5.03125 z M 3 6 L 10 9.9375 L 10 6 L 17 9.9375 L 17 6 L 19 6 L 19 15 L 17 15 L 17 11.0625 L 10 15 L 10 11.0625 L 3 15 L 3 6 z" opacity=".15"/><path id="Symbol" fill="url(#StandardGradient)" fill-opacity="1" fill-rule="nonzero" stroke="none" stroke-dasharray="none" stroke-dashoffset="0" stroke-linecap="round" stroke-linejoin="round" stroke-miterlimit="4" stroke-opacity="1" stroke-width="1.25" d="M 19,6 L 19,15 L 17,15 L 17,11.0625 L 10,15 L 10,11.0625 L 3,15 L 3,6 L 10,9.9375 L 10,6 L 17,9.9375 L 17,6 L 19,6 z" opacity="1"/><path id="BevelShadow" fill="#000" fill-opacity="1" fill-rule="nonzero" stroke="none" stroke-dasharray="none" stroke-dashoffset="0" stroke-linecap="round" stroke-linejoin="round" stroke-miterlimit="4" stroke-opacity="1" stroke-width="1.25" d="M 19,6 L 19,7 L 17,7 L 17,6 L 19,6 z M 10,6 L 17,9.9375 L 17,10.9375 L 10,7 L 10,6 z M 3,6 L 10,9.9375 L 10,10.9375 L 3,7 L 3,6 z" opacity=".5"/><path id="BevelHighlight" fill="#fff" fill-opacity="1" fill-rule="nonzero" stroke="none" stroke-dasharray="none" stroke-dashoffset="0" stroke-linecap="round" stroke-linejoin="round" stroke-miterlimit="4" stroke-opacity="1" stroke-width="1.25" d="M 17,11.0625 L 17,12.0625 L 10,16 L 10,15 L 17,11.0625 z M 10,11.0625 L 10,12.0625 L 3,16 L 3,15 L 10,11.0625 z M 19,15 L 19,16 L 17,16 L 17,15 L 19,15 z" opacity=".3"/></g></svg>