<svg xmlns="http://www.w3.org/2000/svg" xmlns:svg="http://www.w3.org/2000/svg" xmlns:xlink="http://www.w3.org/1999/xlink" id="svg2" width="22" height="22" version="1.0"><defs id="defs4"><linearGradient id="StandardGradient" x1="9.236" x2="9.236" y1="7.448" y2="14.312" gradientTransform="scale(0.9306049,1.0745699)" gradientUnits="userSpaceOnUse"><stop id="stop3389" offset="0" stop-color="#000" stop-opacity=".863"/><stop id="stop3391" offset="1" stop-color="#000" stop-opacity=".471"/></linearGradient><linearGradient id="linearGradient3626" x1="9.236" x2="9.236" y1="7.448" y2="14.312" gradientTransform="scale(0.9306049,1.0745699)" gradientUnits="userSpaceOnUse" xlink:href="#StandardGradient"/><clipPath id="clipPath3633" clipPathUnits="userSpaceOnUse"><path id="path3635" fill="#f0f" fill-opacity="1" stroke="none" d="m 2.7047777,5.7361189 0,12.4695601 12.7624023,0 0,-12.4695601 -12.7624023,0 z m 3.4806551,2.2671928 6.3812012,3.6841883 -6.3812012,3.684188 0,-7.3683763 z" display="inline"/></clipPath><linearGradient id="linearGradient2841" x1="9.236" x2="9.236" y1="7.448" y2="14.312" gradientTransform="matrix(0,-1.166683,1.8958598,0,-9.120214,20.754569)" gradientUnits="userSpaceOnUse" xlink:href="#StandardGradient"/><linearGradient id="linearGradient2846" x1="13.504" x2="3.183" y1="9.558" y2="9.558" gradientTransform="matrix(0,-1.166683,1.8958598,0,-9.120214,20.754569)" gradientUnits="userSpaceOnUse" xlink:href="#StandardGradient"/><linearGradient id="linearGradient2844" x1="13.504" x2="3.183" y1="9.558" y2="9.558" gradientTransform="matrix(0,-1.166683,1.8958598,0,-9.120214,21.754569)" gradientUnits="userSpaceOnUse" xlink:href="#StandardGradient"/><linearGradient id="linearGradient3624" x1="13.504" x2="3.183" y1="9.558" y2="9.558" gradientTransform="matrix(0,-1.166683,1.8958598,0,-9.120214,21.754569)" gradientUnits="userSpaceOnUse" xlink:href="#StandardGradient"/><linearGradient id="linearGradient3628" x1="13.504" x2="3.183" y1="9.558" y2="9.558" gradientTransform="matrix(0,-1.166683,1.8958598,0,-9.120214,20.754569)" gradientUnits="userSpaceOnUse" xlink:href="#StandardGradient"/><linearGradient id="linearGradient3633" x1="13.504" x2="3.183" y1="9.558" y2="9.558" gradientTransform="matrix(0,-1.166683,1.8958598,0,-39.120214,20.754569)" gradientUnits="userSpaceOnUse" xlink:href="#StandardGradient"/><clipPath id="clipPath3641" clipPathUnits="userSpaceOnUse"><path id="path3643" fill="#f0f" fill-opacity="1" stroke="none" d="m -30,0 0,22 22,0 0,-22 -22,0 z m 11.5,5 6.5,8 -13,0 6.5,-8 z m -6.5,10 13,0 0,3 -13,0 0,-3 z" display="inline"/></clipPath><linearGradient id="linearGradient4545" x1="13.504" x2="3.183" y1="9.558" y2="9.558" gradientTransform="matrix(0,-1.166683,1.8958598,0,-9.120214,20.754569)" gradientUnits="userSpaceOnUse" xlink:href="#StandardGradient"/><linearGradient id="linearGradient4549" x1="13.504" x2="3.183" y1="9.558" y2="9.558" gradientTransform="matrix(0,-1.166683,1.8958598,0,-9.120214,20.754569)" gradientUnits="userSpaceOnUse" xlink:href="#StandardGradient"/></defs><metadata id="metadata7"/><g id="layer1"><path id="path4547" fill="#fff" fill-opacity="1" fill-rule="nonzero" stroke="none" d="M 11.375 3.96875 A 1.0331964 1.0331964 0 0 0 10.6875 4.34375 L 4.1875 12.34375 A 1.0331964 1.0331964 0 0 0 4.6875 14 A 1.0331964 1.0331964 0 0 0 3.96875 15 L 3.96875 18 A 1.0331964 1.0331964 0 0 0 5 19.03125 L 18 19.03125 A 1.0331964 1.0331964 0 0 0 19.03125 18 L 19.03125 15 A 1.0331964 1.0331964 0 0 0 18.3125 14 A 1.0331964 1.0331964 0 0 0 18.8125 12.34375 L 12.3125 4.34375 A 1.0331964 1.0331964 0 0 0 11.375 3.96875 z M 11.5 5 L 18 13 L 5 13 L 11.5 5 z M 5 15 L 18 15 L 18 18 L 5 18 L 5 15 z" opacity=".15"/><path id="Symbol" fill="url(#linearGradient2846)" fill-opacity="1" fill-rule="nonzero" stroke="none" d="M 11.5,5 5,13 18,13 11.5,5 z M 5,15 l 0,3 13,0 0,-3 -13,0 z"/><path id="path2840" fill="#000" fill-opacity="1" fill-rule="nonzero" stroke="none" d="M 11.5 5 L 5 13 L 5.8125 13 L 11.5 6 L 17.1875 13 L 18 13 L 11.5 5 z M 5 15 L 5 16 L 18 16 L 18 15 L 5 15 z" opacity=".5"/><path id="path3622" fill="#fff" fill-opacity="1" fill-rule="nonzero" stroke="none" d="M 5.8125 13 L 5 14 L 18 14 L 17.1875 13 L 5.8125 13 z M 5 18 L 5 19 L 18 19 L 18 18 L 5 18 z" opacity=".3"/></g></svg>