<svg xmlns="http://www.w3.org/2000/svg" xmlns:svg="http://www.w3.org/2000/svg" xmlns:xlink="http://www.w3.org/1999/xlink" id="svg2" width="22" height="22" version="1.0"><defs id="defs4"><linearGradient id="StandardGradient" x1="9.397" x2="9.397" y1="5.547" y2="19.983" gradientTransform="scale(1.1094004,0.9013878)" gradientUnits="userSpaceOnUse"><stop id="stop3389" offset="0" stop-color="#000" stop-opacity=".863"/><stop id="stop3391" offset="1" stop-color="#000" stop-opacity=".471"/></linearGradient><linearGradient id="linearGradient3627" x1="9.397" x2="9.397" y1="5.547" y2="19.983" gradientTransform="matrix(1.1094004,0,0,0.9013878,-30,0)" gradientUnits="userSpaceOnUse" xlink:href="#StandardGradient"/><clipPath id="clipPath3634" clipPathUnits="userSpaceOnUse"><path id="path3636" fill="#f0f" fill-opacity="1" stroke="none" d="m -30,0 0,22 22,0 0,-22 -22,0 z m 5.5,5 11,0 c 1.385,0 2.5,1.115 2.5,2.5 l 0,6 c 0,1.385 -1.115,2.5 -2.5,2.5 l -1.5,0 0,2 -5,-3 5,-3 0,2 0.5,0 c 0.831,0 1.5,-0.669 1.5,-1.5 l 0,-4 C -13,7.669 -13.669,7 -14.5,7 l -9,0 C -24.331,7 -25,7.669 -25,8.5 l 0,4 c 0,0.831 0.669,1.5 1.5,1.5 l 1.5,0 0,1.78125 c 0,0.08107 0.0208,0.141232 0.03125,0.21875 L -24.5,16 c -1.385,0 -2.5,-1.115 -2.5,-2.5 l 0,-6 C -27,6.115 -25.885,5 -24.5,5 z" display="inline"/></clipPath><filter id="filter3638"><feGaussianBlur id="feGaussianBlur3640" stdDeviation=".435"/></filter><linearGradient id="linearGradient3198" x1="9.397" x2="9.397" y1="5.547" y2="19.983" gradientTransform="scale(1.1094004,0.9013878)" gradientUnits="userSpaceOnUse" xlink:href="#StandardGradient"/><linearGradient id="linearGradient3202" x1="9.397" x2="9.397" y1="5.547" y2="19.983" gradientTransform="scale(1.1094004,0.9013878)" gradientUnits="userSpaceOnUse" xlink:href="#StandardGradient"/><linearGradient id="linearGradient3975" x1="9.397" x2="9.397" y1="5.547" y2="19.983" gradientTransform="scale(1.1094004,0.9013878)" gradientUnits="userSpaceOnUse" xlink:href="#StandardGradient"/></defs><metadata id="metadata7"/><g id="layer1"><path id="path3200" fill="#fff" fill-opacity="1" fill-rule="nonzero" stroke="none" d="M 5.5,3.96875 C 3.564347,3.96875 1.96875,5.5643469 1.96875,7.5 l 0,6 c 0,1.935653 1.595597,3.53125 3.53125,3.53125 l 2.53125,0 A 1.0260952,1.0260952 0 0 0 9.0625,15.875 C 9.0548,15.81761 9.03576,15.80622 9.03125,15.78125 c 0,-0.04721 -0.0047,-0.07443 0,-0.0625 l 0,-0.34375 a 1.0260952,1.0260952 0 0 0 0.4375,0.5 l 5,3 A 1.0260952,1.0260952 0 0 0 16.03125,18 l 0,-0.96875 0.46875,0 c 1.935653,0 3.53125,-1.595597 3.53125,-3.53125 l 0,-6 c 0,-1.9356531 -1.595597,-3.53125 -3.53125,-3.53125 l -11,0 z M 5.5,5 16.5,5 C 17.885,5 19,6.115 19,7.5 l 0,6 c 0,1.385 -1.115,2.5 -2.5,2.5 l -1.5,0 0,2 -5,-3 5,-3 0,2 0.5,0 c 0.831,0 1.5,-0.669 1.5,-1.5 l 0,-4 C 17,7.669 16.331,7 15.5,7 l -9,0 C 5.669,7 5,7.669 5,8.5 l 0,4 C 5,13.331 5.669,14 6.5,14 L 8,14 8,15.78125 C 8,15.86232 8.0208,15.922482 8.03125,16 L 5.5,16 C 4.115,16 3,14.885 3,13.5 l 0,-6 C 3,6.115 4.115,5 5.5,5 z m 1,3.03125 9,0 c 0.280347,0 0.46875,0.1884031 0.46875,0.46875 l 0,3.1875 a 1.0260952,1.0260952 0 0 0 -1.5,-0.5625 l -5,3 a 1.0260952,1.0260952 0 0 0 -0.4375,0.53125 L 9.03125,14 A 1.0260952,1.0260952 0 0 0 8,12.96875 l -1.5,0 c -0.280347,0 -0.46875,-0.188403 -0.46875,-0.46875 l 0,-4 C 6.03125,8.2196531 6.219653,8.03125 6.5,8.03125 z" opacity=".15"/><path id="Symbol" fill="url(#StandardGradient)" fill-opacity="1" fill-rule="nonzero" stroke="none" stroke-dasharray="none" stroke-dashoffset="0" stroke-linecap="square" stroke-linejoin="round" stroke-miterlimit="4" stroke-opacity="1" stroke-width="1" d="M 5.5,5 C 4.115,5 3,6.115 3,7.5 L 3,13.5 C 3,14.885 4.115,16 5.5,16 L 8.03125,16 C 8.0208,15.922482 8,15.862323 8,15.78125 L 8,14 L 6.5,14 C 5.669,14 5,13.331 5,12.5 L 5,8.5 C 5,7.669 5.669,7 6.5,7 L 15.5,7 C 16.331,7 17,7.669 17,8.5 L 17,12.5 C 17,13.331 16.331,14 15.5,14 L 15,14 L 15,12 L 10,15 L 15,18 L 15,16 L 16.5,16 C 17.885,16 19,14.885 19,13.5 L 19,7.5 C 19,6.115 17.885,5 16.5,5 L 5.5,5 z" opacity="1"/><path id="BevelShadow" fill="#000" fill-opacity="1" fill-rule="nonzero" stroke="none" stroke-dasharray="none" stroke-dashoffset="0" stroke-linecap="square" stroke-linejoin="round" stroke-miterlimit="4" stroke-opacity="1" stroke-width="1" d="M 5.5 5 C 4.115 5 3 6.115 3 7.5 L 3 8.5 C 3 7.115 4.115 6 5.5 6 L 16.5 6 C 17.885 6 19 7.115 19 8.5 L 19 7.5 C 19 6.115 17.885 5 16.5 5 L 5.5 5 z M 15 12 L 10 15 L 10.84375 15.5 L 15 13 L 15 12 z M 5 12.5 L 5 13.5 C 5 14.331 5.669 15 6.5 15 L 8 15 L 8 14 L 6.5 14 C 5.669 14 5 13.331 5 12.5 z M 17 12.5 C 17 13.331 16.331 14 15.5 14 L 15 14 L 15 15 L 15.5 15 C 16.331 15 17 14.331 17 13.5 L 17 12.5 z M 8 15.78125 L 8 16 L 8.03125 16 C 8.0208 15.922482 8 15.862323 8 15.78125 z" opacity=".5"/><path id="BevelHighlight" fill="#fff" fill-opacity="1" fill-rule="nonzero" stroke="none" stroke-dasharray="none" stroke-dashoffset="0" stroke-linecap="square" stroke-linejoin="round" stroke-miterlimit="4" stroke-opacity="1" stroke-width="1" d="M 6.5 7 C 5.669 7 5 7.669 5 8.5 L 5 9.5 C 5 8.669 5.669 8 6.5 8 L 15.5 8 C 16.331 8 17 8.669 17 9.5 L 17 8.5 C 17 7.669 16.331 7 15.5 7 L 6.5 7 z M 3 13.5 L 3 14.5 C 3 15.885 4.115 17 5.5 17 L 8.03125 17 C 8.0208 16.922482 8 16.862323 8 16.78125 L 8 16 L 5.5 16 C 4.115 16 3 14.885 3 13.5 z M 19 13.5 C 19 14.885 17.885 16 16.5 16 L 15 16 L 15 17 L 16.5 17 C 17.885 17 19 15.885 19 14.5 L 19 13.5 z M 10 15 L 10 16 L 15 19 L 15 18 L 10 15 z" opacity=".3"/></g></svg>