<svg xmlns="http://www.w3.org/2000/svg" xmlns:svg="http://www.w3.org/2000/svg" xmlns:xlink="http://www.w3.org/1999/xlink" id="svg2" width="22" height="22" version="1.0"><defs id="defs4"><linearGradient id="SpecificGradient" x1="10.762" x2="10.762" y1="4" y2="18.011" gradientUnits="userSpaceOnUse"><stop id="stop3292" offset="0" stop-color="#ad0707" stop-opacity="1"/><stop id="stop3294" offset="1" stop-color="#f75535" stop-opacity="1"/></linearGradient><linearGradient id="linearGradient3627" x1="10.762" x2="10.762" y1="4" y2="18.011" gradientTransform="translate(-30,0)" gradientUnits="userSpaceOnUse" xlink:href="#SpecificGradient"/><clipPath id="clipPath3634" clipPathUnits="userSpaceOnUse"><path id="path3636" fill="#f0f" fill-opacity="1" stroke="none" d="m -30,0 0,22 22,0 0,-22 -22,0 z M -22.78125,4 -19,7.78125 -15.21875,4 -12,7.21875 -15.78125,11 -12,14.78125 -15.21875,18 -19,14.21875 -22.78125,18 -26,14.78125 -22.21875,11 -26,7.21875 -22.78125,4 z" display="inline"/></clipPath><linearGradient id="linearGradient3621" x1="4" x2="18" y1="11" y2="11" gradientUnits="userSpaceOnUse" xlink:href="#SpecificGradient"/><linearGradient id="linearGradient3625" x1="4" x2="18" y1="11" y2="11" gradientTransform="matrix(0,1,-1,0,22,0)" gradientUnits="userSpaceOnUse" xlink:href="#SpecificGradient"/><linearGradient id="linearGradient3629" x1="4" x2="18" y1="11" y2="11" gradientUnits="userSpaceOnUse" xlink:href="#SpecificGradient"/><linearGradient id="linearGradient3634" x1="4" x2="18" y1="11" y2="11" gradientTransform="matrix(0,1,-1,0,22,1)" gradientUnits="userSpaceOnUse" xlink:href="#SpecificGradient"/><linearGradient id="linearGradient3639" x1="4" x2="18" y1="11" y2="11" gradientUnits="userSpaceOnUse" xlink:href="#SpecificGradient"/><linearGradient id="linearGradient3644" x1="4" x2="18" y1="11" y2="11" gradientUnits="userSpaceOnUse" xlink:href="#SpecificGradient"/><clipPath id="clipPath3651" clipPathUnits="userSpaceOnUse"><path id="path3653" fill="#f0f" fill-opacity="1" stroke="none" d="M 0,22 22,22 22,0 0,0 0,22 z M 4,11 c 0,-3.865993 3.1340068,-7 7,-7 3.865993,0 7,3.134007 7,7 0,3.865993 -3.134007,7 -7,7 -3.8659932,0 -7,-3.134007 -7,-7 z" display="inline"/></clipPath><linearGradient id="linearGradient3815" x1="4" x2="18" y1="11" y2="11" gradientTransform="matrix(0,1.1428571,-1.1428571,0,23.571429,-1.5714286)" gradientUnits="userSpaceOnUse" xlink:href="#SpecificGradient"/></defs><metadata id="metadata7"/><g id="layer3" display="inline"><path id="path3813" fill="#fff" fill-opacity="1" stroke="none" d="M 11 3 C 6.5817222 3 3 6.5817222 3 11 C 3 15.418278 6.5817222 19 11 19 C 15.418278 19 19 15.418278 19 11 C 19 6.5817222 15.418278 3 11 3 z M 11 4 C 14.865993 4 18 7.1340068 18 11 C 18 14.865993 14.865993 18 11 18 C 7.1340068 18 4 14.865993 4 11 C 4 7.1340068 7.1340068 4 11 4 z" opacity=".15"/><path id="path2841" fill="url(#linearGradient3621)" fill-opacity="1" stroke="none" d="M 18,11 A 7,7 0 1 1 4,11 7,7 0 1 1 18,11 z" transform="matrix(0,1,-1,0,22,0)"/><path id="path3623" fill="#500000" fill-opacity="1" stroke="none" d="M 11 4 C 7.1340068 4 4 7.1340068 4 11 C 4 11.168225 4.0195795 11.334745 4.03125 11.5 C 4.2877786 7.867514 7.3022322 5 11 5 C 14.697768 5 17.712221 7.867514 17.96875 11.5 C 17.98042 11.334745 18 11.168225 18 11 C 18 7.1340068 14.865993 4 11 4 z" opacity=".5"/><path id="path3632" fill="#fff" fill-opacity="1" stroke="none" d="M 4.03125 11.5 C 4.0195795 11.665255 4 11.831775 4 12 C 4 15.865993 7.1340068 19 11 19 C 14.865993 19 18 15.865993 18 12 C 18 11.831775 17.98042 11.665255 17.96875 11.5 C 17.712221 15.132486 14.697768 18 11 18 C 7.3022322 18 4.2877786 15.132486 4.03125 11.5 z" opacity=".3"/></g></svg>