<svg xmlns="http://www.w3.org/2000/svg" xmlns:svg="http://www.w3.org/2000/svg" xmlns:xlink="http://www.w3.org/1999/xlink" id="svg2" width="22" height="22" version="1.0"><defs id="defs4"><linearGradient id="StandardGradient" x1="7.023" x2="7.023" y1="8" y2="20.052" gradientTransform="scale(1.3333333,0.75)" gradientUnits="userSpaceOnUse"><stop id="stop3389" offset="0" stop-color="#000" stop-opacity=".863"/><stop id="stop3391" offset="1" stop-color="#000" stop-opacity=".471"/></linearGradient><linearGradient id="linearGradient3627" x1="7.023" x2="7.023" y1="8" y2="20.052" gradientTransform="matrix(1.3333333,0,0,0.75,-30,0)" gradientUnits="userSpaceOnUse" xlink:href="#StandardGradient"/><clipPath id="clipPath3634" clipPathUnits="userSpaceOnUse"><path id="path3636" fill="#f0f" fill-opacity="1" stroke="none" d="m -30,0 0,22 22,0 0,-22 -22,0 z m 3,6 2,0 0,3.9375 L -18,6 -18,9.9375 -11,6 l 0,9 -7,-3.9375 0,3.9375 -7,-3.9375 0,3.9375 -2,0 0,-9 z" display="inline"/></clipPath><filter id="filter3638"><feGaussianBlur id="feGaussianBlur3640" stdDeviation=".375"/></filter><linearGradient id="linearGradient4459" x1="7.023" x2="7.023" y1="8" y2="20.052" gradientTransform="scale(1.3333333,0.75)" gradientUnits="userSpaceOnUse" xlink:href="#StandardGradient"/><linearGradient id="linearGradient4463" x1="7.023" x2="7.023" y1="8" y2="20.052" gradientTransform="scale(1.3333333,0.75)" gradientUnits="userSpaceOnUse" xlink:href="#StandardGradient"/></defs><metadata id="metadata7"/><g id="layer1"><path id="path4461" fill="#fff" fill-opacity="1" fill-rule="nonzero" stroke="none" d="M 2.8125 4.96875 A 1.029652 1.029652 0 0 0 1.96875 6 L 1.96875 15 A 1.029652 1.029652 0 0 0 3 16.03125 L 5 16.03125 A 1.029652 1.029652 0 0 0 6.03125 15 L 6.03125 12.84375 L 11.5 15.90625 A 1.029652 1.029652 0 0 0 13.03125 15 L 13.03125 12.84375 L 18.5 15.90625 A 1.029652 1.029652 0 0 0 20.03125 15 L 20.03125 6 A 1.029652 1.029652 0 0 0 18.5 5.09375 L 13.03125 8.15625 L 13.03125 6 A 1.029652 1.029652 0 0 0 11.5 5.09375 L 6.03125 8.15625 L 6.03125 6 A 1.029652 1.029652 0 0 0 5 4.96875 L 3 4.96875 A 1.029652 1.029652 0 0 0 2.90625 4.96875 A 1.029652 1.029652 0 0 0 2.8125 4.96875 z M 3 6 L 5 6 L 5 9.9375 L 12 6 L 12 9.9375 L 19 6 L 19 15 L 12 11.0625 L 12 15 L 5 11.0625 L 5 15 L 3 15 L 3 6 z" opacity=".15"/><path id="Symbol" fill="url(#StandardGradient)" fill-opacity="1" fill-rule="nonzero" stroke="none" stroke-dasharray="none" stroke-dashoffset="0" stroke-linecap="round" stroke-linejoin="round" stroke-miterlimit="4" stroke-opacity="1" stroke-width="1.25" d="M 3,6 L 3,15 L 5,15 L 5,11.0625 L 12,15 L 12,11.0625 L 19,15 L 19,6 L 12,9.9375 L 12,6 L 5,9.9375 L 5,6 L 3,6 z" opacity="1"/><path id="BevelShadow" fill="#000" fill-opacity="1" fill-rule="nonzero" stroke="none" stroke-dasharray="none" stroke-dashoffset="0" stroke-linecap="round" stroke-linejoin="round" stroke-miterlimit="4" stroke-opacity="1" stroke-width="1.25" d="M 3 6 L 3 7 L 5 7 L 5 6 L 3 6 z M 12 6 L 5 9.9375 L 5 10.9375 L 12 7 L 12 6 z M 19 6 L 12 9.9375 L 12 10.9375 L 19 7 L 19 6 z" opacity=".5"/><path id="BevelHighlight" fill="#fff" fill-opacity="1" fill-rule="nonzero" stroke="none" stroke-dasharray="none" stroke-dashoffset="0" stroke-linecap="round" stroke-linejoin="round" stroke-miterlimit="4" stroke-opacity="1" stroke-width="1.25" d="M 5 11.0625 L 5 12.0625 L 12 16 L 12 15 L 5 11.0625 z M 12 11.0625 L 12 12.0625 L 19 16 L 19 15 L 12 11.0625 z M 3 15 L 3 16 L 5 16 L 5 15 L 3 15 z" opacity=".3"/></g></svg>