<svg xmlns="http://www.w3.org/2000/svg" xmlns:svg="http://www.w3.org/2000/svg" xmlns:xlink="http://www.w3.org/1999/xlink" id="svg2" width="22" height="22" version="1.0"><defs id="defs4"><linearGradient id="StandardGradient" x1="9.236" x2="9.236" y1="7.448" y2="14.312" gradientTransform="matrix(1.6041892,0,0,1.8958598,-4.6625321,-10.120214)" gradientUnits="userSpaceOnUse"><stop id="stop3389" offset="0" stop-color="#000" stop-opacity=".863"/><stop id="stop3391" offset="1" stop-color="#000" stop-opacity=".471"/></linearGradient><linearGradient id="linearGradient2415" x1="9.236" x2="9.236" y1="7.448" y2="14.312" gradientTransform="matrix(1.6041892,0,0,1.8958598,15.337468,-10.120214)" gradientUnits="userSpaceOnUse" xlink:href="#StandardGradient"/><linearGradient id="linearGradient3627" x1="9.236" x2="9.236" y1="7.448" y2="14.312" gradientTransform="matrix(1.6041892,0,0,1.8958598,-14.662532,-10.120214)" gradientUnits="userSpaceOnUse" xlink:href="#StandardGradient"/><clipPath id="clipPath3634" clipPathUnits="userSpaceOnUse"><path id="path3636" fill="#f0f" fill-opacity="1" stroke="none" d="m -30,0 0,22 22,0 0,-22 -22,0 z m 6,5 4,0 0,12 -4,0 0,-12 z m 6,0 4,0 0,12 -4,0 0,-12 z" display="inline"/></clipPath><linearGradient id="linearGradient2851" x1="9.236" x2="9.236" y1="7.448" y2="14.312" gradientTransform="matrix(1.925027,0,0,1.8958598,16.204962,-10.120214)" gradientUnits="userSpaceOnUse" xlink:href="#StandardGradient"/><linearGradient id="linearGradient2855" x1="9.236" x2="9.236" y1="7.448" y2="14.312" gradientTransform="matrix(1.925027,0,0,1.8958598,-13.795038,-10.120214)" gradientUnits="userSpaceOnUse" xlink:href="#StandardGradient"/><clipPath id="clipPath2862" clipPathUnits="userSpaceOnUse"><path id="path2864" fill="#f0f" fill-opacity="1" stroke="none" d="m -30,0 0,22 22,0 0,-22 -22,0 z m 5,5 3.59375,0 1.21875,0 2.375,0 1.21875,0 3.59375,0 0,12 -3.59375,0 -1.21875,0 -2.375,0 -1.21875,0 L -25,17 -25,5 z" display="inline"/></clipPath><filter id="filter3639"><feGaussianBlur id="feGaussianBlur3641" stdDeviation=".36"/></filter><linearGradient id="linearGradient3982" x1="9.236" x2="9.236" y1="7.448" y2="14.312" gradientTransform="matrix(1.925027,0,0,1.8958598,16.204962,-10.120214)" gradientUnits="userSpaceOnUse" xlink:href="#StandardGradient"/><linearGradient id="linearGradient3986" x1="9.236" x2="9.236" y1="7.448" y2="14.312" gradientTransform="matrix(1.925027,0,0,1.8958598,16.204962,-10.120214)" gradientUnits="userSpaceOnUse" xlink:href="#StandardGradient"/></defs><metadata id="metadata7"/><g id="layer1"><path id="path3984" fill="#fff" fill-opacity="1" fill-rule="nonzero" stroke="none" d="M 4.8125 3.96875 A 1.0309468 1.0309468 0 0 0 3.96875 5 L 3.96875 17 A 1.0309468 1.0309468 0 0 0 5 18.03125 L 8.59375 18.03125 L 9.8125 18.03125 L 12.1875 18.03125 L 13.40625 18.03125 L 17 18.03125 A 1.0309468 1.0309468 0 0 0 18.03125 17 L 18.03125 5 A 1.0309468 1.0309468 0 0 0 17 3.96875 L 13.40625 3.96875 L 12.1875 3.96875 L 9.8125 3.96875 L 8.59375 3.96875 L 5 3.96875 A 1.0309468 1.0309468 0 0 0 4.90625 3.96875 A 1.0309468 1.0309468 0 0 0 4.8125 3.96875 z M 5 5 L 8.59375 5 L 9.8125 5 L 12.1875 5 L 13.40625 5 L 17 5 L 17 17 L 13.40625 17 L 12.1875 17 L 9.8125 17 L 8.59375 17 L 5 17 L 5 5 z" opacity=".15"/><path id="Symbol" fill="url(#linearGradient2851)" fill-opacity="1" fill-rule="nonzero" stroke="none" d="m 5,5 0,12 3.6,0 1.2,0 2.4,0 1.2,0 L 17,17 17,5 13.4,5 12.2,5 9.8,5 8.6,5 5,5 z"/><path id="BevelShadow" fill="#000" fill-opacity="1" fill-rule="nonzero" stroke="none" d="M 5,5 5,6 6.2,6 9.8,6 12.2,6 15.8,6 17,6 17,5 15.8,5 12.2,5 9.8,5 6.2,5 5,5 z" opacity=".5"/><path id="BevelHighlight" fill="#fff" fill-opacity="1" fill-rule="nonzero" stroke="none" d="m 5,17 0,1 1.2,0 3.6,0 2.4,0 3.6,0 1.2,0 0,-1 -1.2,0 -3.6,0 -2.4,0 -3.6,0 -1.2,0 z" opacity=".3"/></g></svg>