<svg xmlns="http://www.w3.org/2000/svg" xmlns:svg="http://www.w3.org/2000/svg" xmlns:xlink="http://www.w3.org/1999/xlink" id="svg2" width="22" height="22" version="1.0"><defs id="defs4"><marker id="TriangleOutM" orient="auto" overflow="visible" refX="0" refY="0"><path id="path3841" fill-rule="evenodd" stroke="#000" stroke-width="1pt" marker-start="none" d="M 5.77,0.0 L -2.88,5.0 L -2.88,-5.0 L 5.77,0.0 z" transform="scale(0.4)"/></marker><marker id="Arrow2Mend" orient="auto" overflow="visible" refX="0" refY="0"><path id="path3722" fill-rule="evenodd" stroke-linejoin="round" stroke-width=".625" d="M 8.7185878,4.0337352 L -2.2072895,0.016013256 L 8.7185884,-4.0017078 C 6.9730900,-1.6296469 6.9831476,1.6157441 8.7185878,4.0337352 z" font-size="12" transform="scale(0.6) rotate(180) translate(0,0)"/></marker><marker id="Arrow1Send" orient="auto" overflow="visible" refX="0" refY="0"><path id="path3710" fill-rule="evenodd" stroke="#000" stroke-width="1pt" marker-start="none" d="M 0.0,0.0 L 5.0,-5.0 L -12.5,0.0 L 5.0,5.0 L 0.0,0.0 z" transform="scale(0.2) rotate(180) translate(6,0)"/></marker><linearGradient id="StandardGradient" x1="10.006" x2="10.006" y1="4.163" y2="17.168" gradientTransform="matrix(1.0765258,0,0,0.9227364,-20.008013,0.1584665)" gradientUnits="userSpaceOnUse"><stop id="stop3337" offset="0" stop-color="#000" stop-opacity=".863"/><stop id="stop3339" offset="1" stop-color="#000" stop-opacity=".471"/></linearGradient><linearGradient id="linearGradient2409" x1="24.81" x2="24.81" y1="4.163" y2="21.401" gradientTransform="matrix(1.0765258,0,0,0.9227364,-21.008013,-0.8102835)" gradientUnits="userSpaceOnUse" xlink:href="#StandardGradient"/><linearGradient id="linearGradient2415" x1="24.81" x2="24.81" y1="1.962" y2="23.64" gradientTransform="matrix(1.0765258,0,0,0.9227364,-21.008013,-0.8102835)" gradientUnits="userSpaceOnUse" xlink:href="#StandardGradient"/><linearGradient id="linearGradient2424" x1="24.81" x2="24.81" y1="1.962" y2="23.64" gradientTransform="matrix(1.0765258,0,0,0.9227364,-21.008013,-0.8102835)" gradientUnits="userSpaceOnUse" xlink:href="#StandardGradient"/><linearGradient id="linearGradient2427" x1="24.81" x2="24.81" y1="1.962" y2="23.64" gradientTransform="matrix(1.0765258,0,0,0.9227364,-21.008013,-0.8102835)" gradientUnits="userSpaceOnUse" xlink:href="#StandardGradient"/><linearGradient id="linearGradient3654" x1="24.81" x2="24.81" y1="1.962" y2="23.64" gradientTransform="matrix(1.0765258,0,0,0.9227364,-51.008013,-0.8102835)" gradientUnits="userSpaceOnUse" xlink:href="#StandardGradient"/><clipPath id="clipPath3661" clipPathUnits="userSpaceOnUse"><path id="path3663" fill="#f0f" fill-opacity="1" stroke="none" d="m -30,0 0,22 22,0 0,-22 -22,0 z m 11,1 3,4 -6,0 3,-4 z m -4,5 8,0 c 0.554,0 1,0.446 1,1 l 0,9 -10,0 0,-9 c 0,-0.554 0.446,-1 1,-1 z m 3.5,1 c -0.276,0 -0.5,0.2240002 -0.5,0.5 0,0.276 0.224,0.5000002 0.5,0.5 0.276,0 0.5,-0.2239998 0.5,-0.5 0,-0.276 -0.224,-0.4999998 -0.5,-0.5 z m 2,0 c -0.276,0 -0.5,0.2240002 -0.5,0.5 0,0.276 0.224,0.5000002 0.5,0.5 0.276,0 0.5,-0.2239998 0.5,-0.5 0,-0.276 -0.224,-0.4999998 -0.5,-0.5 z m 2,0 c -0.276,0 -0.5,0.2240002 -0.5,0.5 0,0.276 0.224,0.5000002 0.5,0.5 0.276,0 0.5,-0.2239998 0.5,-0.5 0,-0.276 -0.224,-0.4999998 -0.5,-0.5 z m -9.5,1 0,6 -4,-3 4,-3 z m 12,0 4,3 -4,3 0,-6 z m -9,1 0,5 6,0 0,-5 -6,0 z m 0,8 6,0 -3,4 -3,-4 z" display="inline"/></clipPath><filter id="filter3665"><feGaussianBlur id="feGaussianBlur3667" stdDeviation=".6"/></filter><linearGradient id="linearGradient4040" x1="24.81" x2="24.81" y1="1.962" y2="23.64" gradientTransform="matrix(1.0765258,0,0,0.9227364,-21.008013,-0.8102835)" gradientUnits="userSpaceOnUse" xlink:href="#StandardGradient"/><linearGradient id="linearGradient4044" x1="24.81" x2="24.81" y1="1.962" y2="23.64" gradientTransform="matrix(1.0765258,0,0,0.9227364,-21.008013,-0.8102835)" gradientUnits="userSpaceOnUse" xlink:href="#StandardGradient"/></defs><metadata id="metadata7"/><g id="layer1" display="inline"><path id="path4042" fill="#fff" fill-opacity="1" stroke="none" d="M 10.84375 0 A 0.98721165 0.98721165 0 0 0 10.21875 0.40625 L 7.21875 4.40625 A 0.98721165 0.98721165 0 0 0 7 5 C 5.9162138 5 5 5.9162138 5 7 A 0.98721165 0.98721165 0 0 0 4.40625 7.21875 L 0.40625 10.21875 A 0.98721165 0.98721165 0 0 0 0.40625 11.78125 L 4.40625 14.78125 A 0.98721165 0.98721165 0 0 0 5 15 L 5 16 A 0.98721165 0.98721165 0 0 0 6 17 L 7 17 A 0.98721165 0.98721165 0 0 0 7.21875 17.59375 L 10.21875 21.59375 A 0.98721165 0.98721165 0 0 0 11.78125 21.59375 L 14.78125 17.59375 A 0.98721165 0.98721165 0 0 0 15 17 L 16 17 A 0.98721165 0.98721165 0 0 0 17 16 L 17 15 A 0.98721165 0.98721165 0 0 0 17.59375 14.78125 L 21.59375 11.78125 A 0.98721165 0.98721165 0 0 0 21.59375 10.21875 L 17.59375 7.21875 A 0.98721165 0.98721165 0 0 0 17 7 C 17 5.9162138 16.083786 5 15 5 A 0.98721165 0.98721165 0 0 0 14.78125 4.40625 L 11.78125 0.40625 A 0.98721165 0.98721165 0 0 0 10.9375 0 A 0.98721165 0.98721165 0 0 0 10.84375 0 z M 11 1 L 14 5 L 8 5 L 11 1 z M 7 6 L 15 6 C 15.554 6 16 6.446 16 7 L 16 16 L 6 16 L 6 7 C 6 6.446 6.446 6 7 6 z M 5 8 L 5 14 L 1 11 L 5 8 z M 17 8 L 21 11 L 17 14 L 17 8 z M 8 9 L 8 14 L 14 14 L 14 9 L 8 9 z M 9 10 L 13 10 L 13 13 L 9 13 L 9 10 z M 8 17 L 14 17 L 11 21 L 8 17 z" display="inline" opacity=".15"/><path id="Symbol" fill="url(#linearGradient2427)" fill-opacity="1" stroke="none" stroke-dasharray="none" stroke-linecap="round" stroke-linejoin="miter" stroke-miterlimit="4" stroke-opacity="1" stroke-width="1" d="M 11 1 L 8 5 L 14 5 L 11 1 z M 7 6 C 6.446 6 6 6.446 6 7 L 6 16 L 16 16 L 16 7 C 16 6.446 15.554 6 15 6 L 7 6 z M 10.5 7 C 10.776 7.0000002 11 7.224 11 7.5 C 11 7.7760002 10.776 8 10.5 8 C 10.224 8.0000002 10 7.776 10 7.5 C 10 7.2240002 10.224 7 10.5 7 z M 12.5 7 C 12.776 7.0000002 13 7.224 13 7.5 C 13 7.7760002 12.776 8 12.5 8 C 12.224 8.0000002 12 7.776 12 7.5 C 12 7.2240002 12.224 7 12.5 7 z M 14.5 7 C 14.776 7.0000002 15 7.224 15 7.5 C 15 7.7760002 14.776 8 14.5 8 C 14.224 8.0000002 14 7.776 14 7.5 C 14 7.2240002 14.224 7 14.5 7 z M 5 8 L 1 11 L 5 14 L 5 8 z M 17 8 L 17 14 L 21 11 L 17 8 z M 8 9 L 14 9 L 14 14 L 8 14 L 8 9 z M 8 17 L 11 21 L 14 17 L 8 17 z" display="inline" opacity="1"/><path id="BevelShadow" fill="#000" fill-opacity="1" stroke="none" stroke-dasharray="none" stroke-linecap="round" stroke-linejoin="miter" stroke-miterlimit="4" stroke-opacity="1" stroke-width="1" d="M 11,1 L 8,5 L 8.75,5 L 11,2 L 13.25,5 L 14,5 L 11,1 z M 7,6 C 6.446,6 6,6.446 6,7 L 6,8 C 6,7.446 6.446,7 7,7 L 10.5,7 L 12.5,7 L 14.5,7 L 15,7 C 15.554,7 16,7.446 16,8 L 16,7 C 16,6.446 15.554,6 15,6 L 14,6 L 8,6 L 7,6 z M 5,8 L 1,11 L 1.65625,11.5 L 5,9 L 5,8 z M 10.5,8 C 10.224,8 10,8.2240002 10,8.5 C 10,8.776 10.224,9.0000002 10.5,9 C 10.776,9 11,8.7760002 11,8.5 C 11,8.224 10.776,8.0000002 10.5,8 z M 12.5,8 C 12.224,8 12,8.2240002 12,8.5 C 12,8.776 12.224,9.0000002 12.5,9 C 12.776,9 13,8.7760002 13,8.5 C 13,8.224 12.776,8.0000002 12.5,8 z M 14.5,8 C 14.224,8 14,8.2240002 14,8.5 C 14,8.776 14.224,9.0000002 14.5,9 C 14.776,9 15,8.7760002 15,8.5 C 15,8.224 14.776,8.0000002 14.5,8 z M 17,8 L 17,9 L 20.34375,11.5 L 21,11 L 17,8 z M 8,14 L 8,15 L 14,15 L 14,14 L 8,14 z M 8,17 L 8.75,18 L 13.25,18 L 14,17 L 8,17 z" display="inline" opacity=".5"/><path id="BevelHighlight" fill="#fff" fill-opacity="1" stroke="none" stroke-dasharray="none" stroke-linecap="round" stroke-linejoin="miter" stroke-miterlimit="4" stroke-opacity="1" stroke-width="1" d="M 8,5 L 8,6 L 14,6 L 14,5 L 8,5 z M 10.5,7 C 10.224,7 10,7.2240002 10,7.5 C 10,7.776 10.224,8.0000002 10.5,8 C 10.776,8 11,7.7760002 11,7.5 C 11,7.224 10.776,7.0000002 10.5,7 z M 12.5,7 C 12.224,7 12,7.2240002 12,7.5 C 12,7.776 12.224,8.0000002 12.5,8 C 12.776,8 13,7.7760002 13,7.5 C 13,7.224 12.776,7.0000002 12.5,7 z M 14.5,7 C 14.224,7 14,7.2240002 14,7.5 C 14,7.776 14.224,8.0000002 14.5,8 C 14.776,8 15,7.7760002 15,7.5 C 15,7.224 14.776,7.0000002 14.5,7 z M 8,9 L 8,10 L 14,10 L 14,9 L 8,9 z M 1,11 L 1,12 L 5,15 L 5,14 L 1,11 z M 21,11 L 17,14 L 17,15 L 21,12 L 21,11 z M 6,16 L 6,17 L 8,17 L 14,17 L 16,17 L 16,16 L 6,16 z M 14,17 L 11,21 L 8,17 L 8,18 L 11,22 L 14,18 L 14,17 z" display="inline" opacity=".3"/></g></svg>