<svg xmlns="http://www.w3.org/2000/svg" xmlns:svg="http://www.w3.org/2000/svg" xmlns:xlink="http://www.w3.org/1999/xlink" id="svg2" width="22" height="22" version="1.0"><defs id="defs4"><linearGradient id="StandardGradient" x1="11" x2="11" y1="3.937" y2="18.083" gradientUnits="userSpaceOnUse"><stop id="stop3292" offset="0" stop-color="#000" stop-opacity=".863"/><stop id="stop3294" offset="1" stop-color="#000" stop-opacity=".471"/></linearGradient><linearGradient id="linearGradient3627" x1="11" x2="11" y1="3.937" y2="18.083" gradientTransform="translate(-30,0)" gradientUnits="userSpaceOnUse" xlink:href="#StandardGradient"/><clipPath id="clipPath3634" clipPathUnits="userSpaceOnUse"><path id="path3636" fill="#f0f" fill-opacity="1" stroke="none" d="m -30,0 0,22 22,0 0,-22 -22,0 z M -22.78125,4 -19,7.78125 -15.21875,4 -12,7.21875 -15.78125,11 -12,14.78125 -15.21875,18 -19,14.21875 -22.78125,18 -26,14.78125 -22.21875,11 -26,7.21875 -22.78125,4 z" display="inline"/></clipPath><filter id="filter3638"><feGaussianBlur id="feGaussianBlur3640" stdDeviation=".42"/></filter><linearGradient id="linearGradient4525" x1="11" x2="11" y1="3.937" y2="18.083" gradientUnits="userSpaceOnUse" xlink:href="#StandardGradient"/><linearGradient id="linearGradient4529" x1="11" x2="11" y1="3.937" y2="18.083" gradientUnits="userSpaceOnUse" xlink:href="#StandardGradient"/></defs><metadata id="metadata7"/><g id="layer3" display="inline"><path id="path4527" fill="#fff" fill-opacity="1" stroke="none" d="M 7.1875 3 A 0.98427028 0.98427028 0 0 0 7 3.03125 A 0.98427028 0.98427028 0 0 0 6.53125 3.3125 L 3.3125 6.53125 A 0.98427028 0.98427028 0 0 0 3.3125 7.90625 L 6.40625 11 L 3.3125 14.09375 A 0.98427028 0.98427028 0 0 0 3.3125 15.46875 L 6.53125 18.6875 A 0.98427028 0.98427028 0 0 0 7.90625 18.6875 L 11 15.59375 L 14.09375 18.6875 A 0.98427028 0.98427028 0 0 0 15.46875 18.6875 L 18.6875 15.46875 A 0.98427028 0.98427028 0 0 0 18.6875 14.09375 L 15.59375 11 L 18.6875 7.90625 A 0.98427028 0.98427028 0 0 0 18.6875 6.53125 L 15.46875 3.3125 A 0.98427028 0.98427028 0 0 0 14.09375 3.3125 L 11 6.40625 L 7.90625 3.3125 A 0.98427028 0.98427028 0 0 0 7.1875 3 z M 7.21875 4 L 11 7.78125 L 14.78125 4 L 18 7.21875 L 14.21875 11 L 18 14.78125 L 14.78125 18 L 11 14.21875 L 7.21875 18 L 4 14.78125 L 7.78125 11 L 4 7.21875 L 7.21875 4 z" opacity=".15"/><path id="Symbol" fill="url(#StandardGradient)" fill-opacity="1" stroke="none" stroke-dasharray="none" stroke-linecap="round" stroke-linejoin="miter" stroke-miterlimit="4" stroke-opacity="1" stroke-width="1" d="M 14.769231,3.9999998 L 11,7.7692305 L 7.2307694,3.9999998 L 4,7.230769 L 7.7692309,10.999999 L 4,14.76923 L 7.2307694,18 L 11,14.230768 L 14.769231,18 L 18,14.76923 L 14.230769,10.999999 L 18,7.230769 L 14.769231,3.9999998 z" opacity="1"/><path id="BevelShadow" fill="#000" fill-opacity="1" stroke="none" stroke-dasharray="none" stroke-linecap="round" stroke-linejoin="miter" stroke-miterlimit="4" stroke-opacity="1" stroke-width="1" d="M 7.21875 4 L 4 7.21875 L 4.5 7.71875 L 7.21875 5 L 11 8.78125 L 14.78125 5 L 17.5 7.71875 L 18 7.21875 L 14.78125 4 L 11 7.78125 L 7.21875 4 z M 7.78125 11 L 7.28125 11.5 L 7.25 11.53125 L 4 14.78125 L 4.5 15.28125 L 7.78125 12 L 7.78125 11 z M 14.21875 11 L 14.21875 12 L 17.5 15.28125 L 18 14.78125 L 14.75 11.53125 L 14.71875 11.5 L 14.21875 11 z" opacity=".5"/><path id="BevelHighlight" fill="#fff" fill-opacity="1" stroke="none" stroke-dasharray="none" stroke-linecap="round" stroke-linejoin="miter" stroke-miterlimit="4" stroke-opacity="1" stroke-width="1" d="M 4 7.21875 L 4 8.21875 L 7.28125 11.5 L 7.78125 11 L 4 7.21875 z M 18 7.21875 L 14.21875 11 L 14.71875 11.5 L 18 8.21875 L 18 7.21875 z M 11 14.21875 L 7.21875 18 L 4 14.78125 L 4 15.78125 L 7.21875 19 L 11 15.21875 L 14.78125 19 L 18 15.78125 L 18 14.78125 L 14.78125 18 L 11 14.21875 z" opacity=".3"/></g></svg>