<svg xmlns="http://www.w3.org/2000/svg" xmlns:svg="http://www.w3.org/2000/svg" xmlns:xlink="http://www.w3.org/1999/xlink" id="svg2" width="22" height="22" version="1.0"><defs id="defs4"><marker id="TriangleOutM" orient="auto" overflow="visible" refX="0" refY="0"><path id="path3841" fill-rule="evenodd" stroke="#000" stroke-width="1pt" marker-start="none" d="M 5.77,0.0 L -2.88,5.0 L -2.88,-5.0 L 5.77,0.0 z" transform="scale(0.4)"/></marker><marker id="Arrow2Mend" orient="auto" overflow="visible" refX="0" refY="0"><path id="path3722" fill-rule="evenodd" stroke-linejoin="round" stroke-width=".625" d="M 8.7185878,4.0337352 L -2.2072895,0.016013256 L 8.7185884,-4.0017078 C 6.9730900,-1.6296469 6.9831476,1.6157441 8.7185878,4.0337352 z" font-size="12" transform="scale(0.6) rotate(180) translate(0,0)"/></marker><marker id="Arrow1Send" orient="auto" overflow="visible" refX="0" refY="0"><path id="path3710" fill-rule="evenodd" stroke="#000" stroke-width="1pt" marker-start="none" d="M 0.0,0.0 L 5.0,-5.0 L -12.5,0.0 L 5.0,5.0 L 0.0,0.0 z" transform="scale(0.2) rotate(180) translate(6,0)"/></marker><linearGradient id="StandardGradient" x1="10.006" x2="10.006" y1="4.163" y2="17.168" gradientTransform="matrix(1.0765258,0,0,0.9227364,-20.008013,0.1584665)" gradientUnits="userSpaceOnUse"><stop id="stop3337" offset="0" stop-color="#000" stop-opacity=".863"/><stop id="stop3339" offset="1" stop-color="#000" stop-opacity=".471"/></linearGradient><linearGradient id="linearGradient2409" x1="24.81" x2="24.81" y1="4.163" y2="21.401" gradientTransform="matrix(1.0765258,0,0,0.9227364,-21.008013,-1.8102835)" gradientUnits="userSpaceOnUse" xlink:href="#StandardGradient"/><linearGradient id="linearGradient2405" x1="24.81" x2="24.81" y1="4.163" y2="21.401" gradientTransform="matrix(1.0765258,0,0,0.9227364,-21.008013,-1.8102835)" gradientUnits="userSpaceOnUse" xlink:href="#StandardGradient"/><linearGradient id="linearGradient3648" x1="24.81" x2="24.81" y1="4.163" y2="21.401" gradientTransform="matrix(1.0765258,0,0,0.9227364,-21.008013,-2.8102835)" gradientUnits="userSpaceOnUse" xlink:href="#StandardGradient"/><linearGradient id="linearGradient3651" x1="24.81" x2="24.81" y1="5.21" y2="24.723" gradientTransform="matrix(1.0765258,0,0,0.9227364,-21.008013,-2.8102835)" gradientUnits="userSpaceOnUse" xlink:href="#StandardGradient"/><linearGradient id="linearGradient3686" x1="24.81" x2="24.81" y1="5.21" y2="24.723" gradientTransform="matrix(1.0765258,0,0,0.9227364,-21.008013,-1.8102835)" gradientUnits="userSpaceOnUse" xlink:href="#StandardGradient"/><linearGradient id="linearGradient3688" x1="24.81" x2="24.81" y1="5.21" y2="24.723" gradientTransform="matrix(1.0765258,0,0,0.9227364,-21.008013,-2.8102835)" gradientUnits="userSpaceOnUse" xlink:href="#StandardGradient"/><linearGradient id="linearGradient3693" x1="24.81" x2="24.81" y1="5.21" y2="24.723" gradientTransform="matrix(1.0765258,0,0,0.9227364,-21.008013,-1.8102835)" gradientUnits="userSpaceOnUse" xlink:href="#StandardGradient"/><linearGradient id="linearGradient3697" x1="24.81" x2="24.81" y1="5.21" y2="24.723" gradientTransform="matrix(1.0765258,0,0,0.9227364,-21.008013,-2.8102835)" gradientUnits="userSpaceOnUse" xlink:href="#StandardGradient"/><linearGradient id="linearGradient3702" x1="24.81" x2="24.81" y1="5.21" y2="24.723" gradientTransform="matrix(1.0765258,0,0,0.9227364,-51.008013,-2.8102835)" gradientUnits="userSpaceOnUse" xlink:href="#StandardGradient"/><clipPath id="clipPath3709" clipPathUnits="userSpaceOnUse"><path id="path3711" fill="#f0f" fill-opacity="1" stroke="none" d="m -30,0 0,22 22,0 0,-22 -22,0 z m 3,2 16,0 c 0.554,0 1,0.446 1,1 l 0,13 c 0,0.554 -0.446,1 -1,1 l -7,0 0,-2 6,0 0,-9 -14,0 0,7 -2,0 0,-10 c 0,-0.554 0.446,-1 1,-1 z m 10,1 0,1 1,0 0,-1 -1,0 z m 2,0 0,1 1,0 0,-1 -1,0 z m 2,0 0,1 1,0 0,-1 -1,0 z m -12,8 3,0 0,3 3,0 0,3 -3,0 0,3 -3,0 0,-3 -3,0 0,-3 3,0 0,-3 z" display="inline"/></clipPath><filter id="filter3713"><feGaussianBlur id="feGaussianBlur3715" stdDeviation=".54"/></filter><linearGradient id="linearGradient3988" x1="24.81" x2="24.81" y1="5.21" y2="24.723" gradientTransform="matrix(1.0765258,0,0,0.9227364,-21.008013,-2.8102835)" gradientUnits="userSpaceOnUse" xlink:href="#StandardGradient"/><linearGradient id="linearGradient3992" x1="24.81" x2="24.81" y1="5.21" y2="24.723" gradientTransform="matrix(1.0765258,0,0,0.9227364,-21.008013,-2.8102835)" gradientUnits="userSpaceOnUse" xlink:href="#StandardGradient"/></defs><metadata id="metadata7"/><g id="layer1" display="inline"><path id="path3990" fill="#fff" fill-opacity="1" stroke="none" d="M 3 1.03125 C 1.9314261 1.03125 1.03125 1.9314261 1.03125 3 L 1.03125 13 A 0.95886466 0.95886466 0 0 0 1.1875 13.46875 A 0.95886466 0.95886466 0 0 0 1.1875 13.5 A 0.95886466 0.95886466 0 0 0 1.03125 14 L 1.03125 17 A 0.95886466 0.95886466 0 0 0 2 17.96875 L 4.03125 17.96875 L 4.03125 20 A 0.95886466 0.95886466 0 0 0 5 20.96875 L 8 20.96875 A 0.95886466 0.95886466 0 0 0 8.96875 20 L 8.96875 17.96875 L 11 17.96875 A 0.95886466 0.95886466 0 0 0 11.46875 17.8125 A 0.95886466 0.95886466 0 0 0 11.5 17.8125 A 0.95886466 0.95886466 0 0 0 12 17.96875 L 19 17.96875 C 20.068574 17.96875 20.96875 17.068574 20.96875 16 L 20.96875 3 C 20.96875 1.9314261 20.068574 1.03125 19 1.03125 L 3 1.03125 z M 3 2 L 19 2 C 19.554 2 20 2.446 20 3 L 20 16 C 20 16.554 19.554 17 19 17 L 12 17 L 12 15 L 18 15 L 18 6 L 4 6 L 4 13 L 2 13 L 2 3 C 2 2.446 2.446 2 3 2 z M 13 3 L 13 4 L 14 4 L 14 3 L 13 3 z M 15 3 L 15 4 L 16 4 L 16 3 L 15 3 z M 17 3 L 17 4 L 18 4 L 18 3 L 17 3 z M 4.96875 6.96875 L 17.03125 6.96875 L 17.03125 14.03125 L 12 14.03125 A 0.95886466 0.95886466 0 0 0 11.96875 14.03125 L 11.96875 14 A 0.95886466 0.95886466 0 0 0 11 13.03125 L 8.96875 13.03125 L 8.96875 11 A 0.95886466 0.95886466 0 0 0 8 10.03125 L 5 10.03125 A 0.95886466 0.95886466 0 0 0 4.96875 10.03125 L 4.96875 6.96875 z M 5 11 L 8 11 L 8 14 L 11 14 L 11 17 L 8 17 L 8 20 L 5 20 L 5 17 L 2 17 L 2 14 L 5 14 L 5 11 z" display="inline" opacity=".15"/><path id="Symbol" fill="url(#linearGradient3651)" fill-opacity="1" stroke="none" d="M 3 2 C 2.446 2 2 2.446 2 3 L 2 13 L 4 13 L 4 6 L 18 6 L 18 15 L 12 15 L 12 17 L 19 17 C 19.554 17 20 16.554 20 16 L 20 3 C 20 2.446 19.554 2 19 2 L 3 2 z M 13 3 L 14 3 L 14 4 L 13 4 L 13 3 z M 15 3 L 16 3 L 16 4 L 15 4 L 15 3 z M 17 3 L 18 3 L 18 4 L 17 4 L 17 3 z M 5 11 L 5 14 L 2 14 L 2 17 L 5 17 L 5 20 L 8 20 L 8 17 L 11 17 L 11 14 L 8 14 L 8 11 L 5 11 z" display="inline"/><path id="path3682" fill="#000" fill-opacity="1" stroke="none" d="M 3 2 C 2.446 2 2 2.446 2 3 L 2 4 C 2 3.446 2.446 3 3 3 L 13 3 L 14 3 L 15 3 L 16 3 L 17 3 L 18 3 L 19 3 C 19.554 3 20 3.446 20 4 L 20 3 C 20 2.446 19.554 2 19 2 L 3 2 z M 13 4 L 13 5 L 14 5 L 14 4 L 13 4 z M 15 4 L 15 5 L 16 5 L 16 4 L 15 4 z M 17 4 L 17 5 L 18 5 L 18 4 L 17 4 z M 5 11 L 5 12 L 8 12 L 8 11 L 5 11 z M 2 14 L 2 15 L 5 15 L 5 14 L 4 14 L 2 14 z M 8 14 L 8 15 L 11 15 L 11 14 L 8 14 z M 12 15 L 12 16 L 18 16 L 18 15 L 12 15 z" display="inline" opacity=".5"/><path id="path3691" fill="#fff" fill-opacity="1" stroke="none" d="M 13 3 L 13 4 L 14 4 L 14 3 L 13 3 z M 15 3 L 15 4 L 16 4 L 16 3 L 15 3 z M 17 3 L 17 4 L 18 4 L 18 3 L 17 3 z M 4 6 L 4 7 L 18 7 L 18 6 L 4 6 z M 2 13 L 2 14 L 4 14 L 4 13 L 2 13 z M 20 16 C 20 16.554 19.554 17 19 17 L 12 17 L 12 18 L 19 18 C 19.554 18 20 17.554 20 17 L 20 16 z M 2 17 L 2 18 L 5 18 L 5 17 L 2 17 z M 8 17 L 8 18 L 11 18 L 11 17 L 8 17 z M 5 20 L 5 21 L 8 21 L 8 20 L 5 20 z" display="inline" opacity=".3"/></g></svg>