<svg xmlns="http://www.w3.org/2000/svg" xmlns:svg="http://www.w3.org/2000/svg" xmlns:xlink="http://www.w3.org/1999/xlink" id="svg2" width="96" height="96" display="inline" version="1.0"><defs id="defs4"><linearGradient id="linearGradient3295"><stop id="stop3297" offset="0" stop-color="#559829" stop-opacity="1"/><stop id="stop3299" offset="1" stop-color="#86c837" stop-opacity="1"/></linearGradient><linearGradient id="linearGradient3287"><stop id="stop3289" offset="0" stop-color="#cd0000" stop-opacity="1"/><stop id="stop3291" offset="1" stop-color="#e55300" stop-opacity="1"/></linearGradient><linearGradient id="linearGradient3279"><stop id="stop3281" offset="0" stop-color="#f08e00" stop-opacity="1"/><stop id="stop3283" offset="1" stop-color="#ffd200" stop-opacity="1"/></linearGradient><linearGradient id="linearGradient3271"><stop id="stop3273" offset="0" stop-color="#395d93" stop-opacity="1"/><stop id="stop3275" offset="1" stop-color="#6e92c7" stop-opacity="1"/></linearGradient><linearGradient id="linearGradient3327"><stop id="stop3330" offset="0" stop-color="#000" stop-opacity="1"/><stop id="stop3333" offset="1" stop-color="#000" stop-opacity="0"/></linearGradient><linearGradient id="linearGradient3335" x1="11.375" x2="11.375" y1="22" y2="-9.817" gradientUnits="userSpaceOnUse" xlink:href="#linearGradient3327"/><linearGradient id="linearGradient4081"><stop id="stop4083" offset="0" stop-color="#aaa" stop-opacity="1"/><stop id="stop4085" offset="1" stop-color="#f0f0f0" stop-opacity="1"/></linearGradient><linearGradient id="linearGradient4057"><stop id="stop4059" offset="0" stop-color="#816647" stop-opacity="1"/><stop id="stop4061" offset="1" stop-color="#a6845d" stop-opacity="1"/></linearGradient><linearGradient id="linearGradient3929"><stop id="stop3931" offset="0" stop-color="#000" stop-opacity="1"/><stop id="stop3933" offset="1" stop-color="#000" stop-opacity="0"/></linearGradient><linearGradient id="linearGradient4051" x1="9.495" x2="9.495" y1="15.517" y2="-4.179" gradientUnits="userSpaceOnUse" xlink:href="#linearGradient3929"/><linearGradient id="linearGradient4063" x1="9.171" x2="9.171" y1="21" y2=".972" gradientUnits="userSpaceOnUse" xlink:href="#linearGradient4057"/><linearGradient id="linearGradient4089" x1="6.102" x2="6.102" y1="154.582" y2="36.995" gradientUnits="userSpaceOnUse" xlink:href="#linearGradient4081"/><linearGradient id="linearGradient4103" x1="6.102" x2="6.102" y1="154.582" y2="36.995" gradientUnits="userSpaceOnUse" xlink:href="#linearGradient4081"/><linearGradient id="linearGradient4105" x1="6.102" x2="6.102" y1="154.582" y2="36.995" gradientUnits="userSpaceOnUse" xlink:href="#linearGradient4081"/><linearGradient id="linearGradient4107" x1="6.102" x2="6.102" y1="154.582" y2="36.995" gradientUnits="userSpaceOnUse" xlink:href="#linearGradient4081"/><linearGradient id="linearGradient4109" x1="6.102" x2="6.102" y1="154.582" y2="36.995" gradientUnits="userSpaceOnUse" xlink:href="#linearGradient4081"/><linearGradient id="linearGradient4111" x1="6.102" x2="6.102" y1="154.582" y2="36.995" gradientUnits="userSpaceOnUse" xlink:href="#linearGradient4081"/><linearGradient id="linearGradient4113" x1="6.102" x2="6.102" y1="154.582" y2="36.995" gradientUnits="userSpaceOnUse" xlink:href="#linearGradient4081"/><linearGradient id="linearGradient4115" x1="6.102" x2="6.102" y1="154.582" y2="36.995" gradientUnits="userSpaceOnUse" xlink:href="#linearGradient4081"/><linearGradient id="linearGradient4117" x1="6.102" x2="6.102" y1="154.582" y2="36.995" gradientUnits="userSpaceOnUse" xlink:href="#linearGradient4081"/><linearGradient id="linearGradient4119" x1="6.102" x2="6.102" y1="154.582" y2="36.995" gradientUnits="userSpaceOnUse" xlink:href="#linearGradient4081"/><linearGradient id="linearGradient4121" x1="6.102" x2="6.102" y1="154.582" y2="36.995" gradientUnits="userSpaceOnUse" xlink:href="#linearGradient4081"/><linearGradient id="linearGradient4123" x1="6.102" x2="6.102" y1="154.582" y2="36.995" gradientUnits="userSpaceOnUse" xlink:href="#linearGradient4081"/><linearGradient id="linearGradient4125" x1="6.102" x2="6.102" y1="154.582" y2="36.995" gradientUnits="userSpaceOnUse" xlink:href="#linearGradient4081"/><linearGradient id="linearGradient4127" x1="6.102" x2="6.102" y1="154.582" y2="36.995" gradientUnits="userSpaceOnUse" xlink:href="#linearGradient4081"/><linearGradient id="linearGradient4129" x1="6.102" x2="6.102" y1="154.582" y2="36.995" gradientUnits="userSpaceOnUse" xlink:href="#linearGradient4081"/><linearGradient id="linearGradient4132" x1="6.102" x2="6.102" y1="154.582" y2="36.995" gradientTransform="matrix(0.1317916,0,0,0.1317916,11.619896,-1.9882468)" gradientUnits="userSpaceOnUse" xlink:href="#linearGradient4081"/><linearGradient id="linearGradient4141" x1="6.102" x2="6.102" y1="154.582" y2="36.995" gradientTransform="matrix(0.1317916,0,0,0.1317916,11.619896,-1.9882468)" gradientUnits="userSpaceOnUse" xlink:href="#linearGradient4081"/><linearGradient id="linearGradient4148" x1="6.102" x2="6.102" y1="154.582" y2="36.995" gradientTransform="matrix(0.1317916,0,0,0.1317916,11.619896,-1.9882468)" gradientUnits="userSpaceOnUse" xlink:href="#linearGradient4081"/><linearGradient id="linearGradient4158" x1="6.102" x2="6.102" y1="154.582" y2="36.995" gradientTransform="matrix(0.1317916,0,0,0.1317916,11.619896,-1.9882468)" gradientUnits="userSpaceOnUse" xlink:href="#linearGradient4081"/><linearGradient id="linearGradient4180" x1="6.102" x2="6.102" y1="154.582" y2="36.995" gradientUnits="userSpaceOnUse" xlink:href="#linearGradient4081"/><linearGradient id="linearGradient4182" x1="6.102" x2="6.102" y1="154.582" y2="36.995" gradientTransform="matrix(0.1317916,0,0,0.1317916,11.619896,-1.9882468)" gradientUnits="userSpaceOnUse" xlink:href="#linearGradient4081"/><linearGradient id="linearGradient4184" x1="6.102" x2="6.102" y1="154.582" y2="36.995" gradientUnits="userSpaceOnUse" xlink:href="#linearGradient4081"/><linearGradient id="linearGradient4186" x1="6.102" x2="6.102" y1="154.582" y2="36.995" gradientTransform="matrix(0.1317916,0,0,0.1317916,11.619896,-1.9882468)" gradientUnits="userSpaceOnUse" xlink:href="#linearGradient4081"/><linearGradient id="linearGradient2480" x1="6.102" x2="6.102" y1="154.582" y2="36.995" gradientTransform="matrix(0.1256322,0,0,0.1256322,11.921746,-1.0005124)" gradientUnits="userSpaceOnUse" xlink:href="#linearGradient4081"/><linearGradient id="linearGradient2483" x1="6.102" x2="6.102" y1="154.582" y2="36.995" gradientTransform="matrix(0.1256322,0,0,0.1256322,11.921746,-1.0005124)" gradientUnits="userSpaceOnUse" xlink:href="#linearGradient4081"/><linearGradient id="linearGradient2489" x1="6.102" x2="6.102" y1="154.582" y2="36.995" gradientTransform="matrix(0.1256322,0,0,0.1256322,11.921746,-1.0005124)" gradientUnits="userSpaceOnUse" xlink:href="#linearGradient4081"/><linearGradient id="linearGradient2495" x1="6.102" x2="6.102" y1="154.582" y2="36.995" gradientTransform="matrix(0.1256322,0,0,0.1256322,11.921746,-1.0005124)" gradientUnits="userSpaceOnUse" xlink:href="#linearGradient4081"/><linearGradient id="linearGradient2498" x1="6.102" x2="6.102" y1="154.582" y2="36.995" gradientTransform="matrix(0.1256322,0,0,0.1256322,11.921746,-1.0005124)" gradientUnits="userSpaceOnUse" xlink:href="#linearGradient4081"/><linearGradient id="linearGradient2501" x1="6.102" x2="6.102" y1="154.582" y2="36.995" gradientTransform="matrix(0.1256322,0,0,0.1256322,11.921746,-1.0005124)" gradientUnits="userSpaceOnUse" xlink:href="#linearGradient4081"/><linearGradient id="linearGradient2504" x1="6.102" x2="6.102" y1="154.582" y2="36.995" gradientTransform="matrix(0.1256322,0,0,0.1256322,11.921746,-1.0005124)" gradientUnits="userSpaceOnUse" xlink:href="#linearGradient4081"/><linearGradient id="linearGradient2506" x1="6.102" x2="6.102" y1="154.582" y2="36.995" gradientUnits="userSpaceOnUse" xlink:href="#linearGradient4081"/><linearGradient id="linearGradient2508" x1="6.102" x2="6.102" y1="154.582" y2="36.995" gradientTransform="matrix(0.1317916,0,0,0.1317916,11.619896,-1.9882468)" gradientUnits="userSpaceOnUse" xlink:href="#linearGradient4081"/><linearGradient id="linearGradient2510" x1="6.102" x2="6.102" y1="154.582" y2="36.995" gradientTransform="matrix(0.1317916,0,0,0.1317916,11.619896,-1.9882468)" gradientUnits="userSpaceOnUse" xlink:href="#linearGradient4081"/><clipPath id="clipPath4974" clipPathUnits="userSpaceOnUse"><path id="path4976" fill="#fff" fill-opacity="1" stroke="none" d="M 16.625,2 C 15.93281,2.046173 15.13978,2.350316 14.5,2.875 13.716105,3.517873 13.079371,5.1522168 13.25,6.0625 13.337976,6.531842 13.692147,7.1029241 14.03125,7.28125 14.662734,7.613335 15.813682,7.0624791 16.875,5.9375 18.021489,4.722239 18.547995,3.383178 18.15625,2.625 17.915497,2.159052 17.31719,1.953827 16.625,2 z M 10.96875,2.71875 C 10.005789,2.719616 9.496306,3.3967078 9.5,4.6875 c 0.00253,0.88392 0.31322,1.6791318 0.71875,1.875 0.301512,0.145631 0.309051,0.1320361 0.6875,0 C 11.533114,6.343793 12.122053,4.8839409 12,3.90625 11.900109,3.106091 11.556193,2.7182209 10.96875,2.71875 z m -3.8125,1.3125 C 6.976067,4.0573035 6.795347,4.173262 6.625,4.34375 6.281636,4.687396 6.277056,4.8747068 6.28125,5.53125 6.286196,6.305553 6.475145,6.7277249 7,7.28125 7.392601,7.695296 7.675716,7.7200481 8.03125,7.34375 8.416388,6.936117 8.535971,6.296057 8.40625,5.59375 8.208416,4.5226825 7.696799,3.9530895 7.15625,4.03125 z M 4.46875,6.375 C 4.281799,6.4054104 4.1133,6.5115553 3.9375,6.6875 3.476154,7.14923 3.798831,8.4188978 4.53125,9.0625 5.405425,9.830669 6.111327,9.1273309 5.8125,7.78125 5.599846,6.8233425 5.029603,6.2837687 4.46875,6.375 z M 12.5,8.0625 C 11.88094,8.0518483 11.187196,8.1034691 10.46875,8.25 8.61799,8.627471 7.13709,9.3254488 6.1875,10.28125 5.640611,10.831715 5.327697,11.341306 5.0625,12.125 c -0.641919,1.896963 0.546896,4.595678 2.8125,6.4375 0.844088,0.686203 1.359152,0.993313 2.21875,1.28125 0.445736,0.149308 0.799163,0.183992 1.625,0.15625 0.946716,-0.03181 1.139252,-0.07408 1.75,-0.375 0.895036,-0.440989 1.909553,-1.461035 2.34375,-2.34375 0.264885,-0.5385 0.307321,-0.768628 0.28125,-1.21875 -0.04452,-0.768578 -0.342658,-0.977756 -1.3125,-0.96875 -1.38452,0.01285 -1.965756,0.333932 -2.25,1.3125 -0.21469,0.739118 -0.452038,1 -0.9375,1 -0.769368,0 -1.5625,-0.611791 -1.5625,-1.25 0,-0.443994 0.715313,-1.10577 2.5,-2.3125 2.514116,-1.69994 3.378489,-2.734111 3.25,-3.875 C 15.64852,8.7901993 14.35718,8.0944552 12.5,8.0625 z"/></clipPath><clipPath id="clipPath4995" clipPathUnits="userSpaceOnUse"><path id="path4997" fill="#fff" fill-opacity="1" fill-rule="nonzero" stroke="none" d="M 30,0 30,22 52,22 52,0 30,0 z M 46.625,2 C 47.31719,1.953827 47.915497,2.159052 48.15625,2.625 48.547995,3.383178 48.021489,4.722239 46.875,5.9375 45.813682,7.0624791 44.662734,7.613335 44.03125,7.28125 43.692147,7.1029241 43.337976,6.531842 43.25,6.0625 43.079371,5.1522168 43.716105,3.517873 44.5,2.875 45.13978,2.350316 45.93281,2.046173 46.625,2 z m -5.65625,0.71875 c 0.587443,-5.291e-4 0.931359,0.387341 1.03125,1.1875 0.122053,0.9776909 -0.466886,2.437543 -1.09375,2.65625 -0.378449,0.1320361 -0.385988,0.145631 -0.6875,0 C 39.81322,6.3666318 39.502528,5.57142 39.5,4.6875 39.496306,3.3967078 40.005789,2.719616 40.96875,2.71875 z m -3.8125,1.3125 c 0.540549,-0.078161 1.052166,0.4914325 1.25,1.5625 0.129721,0.702307 0.01014,1.342367 -0.375,1.75 C 37.675716,7.7200481 37.392601,7.695296 37,7.28125 36.475145,6.7277249 36.286196,6.305553 36.28125,5.53125 36.277056,4.8747068 36.281636,4.687396 36.625,4.34375 36.795347,4.173262 36.976067,4.0573035 37.15625,4.03125 z M 34.46875,6.375 C 35.029603,6.2837687 35.599846,6.8233425 35.8125,7.78125 36.111327,9.1273309 35.405425,9.830669 34.53125,9.0625 33.798831,8.4188978 33.476154,7.14923 33.9375,6.6875 34.1133,6.5115553 34.281799,6.4054104 34.46875,6.375 z M 42.5,8.0625 c 1.85718,0.031955 3.14852,0.7276993 3.28125,1.90625 0.128489,1.140889 -0.735884,2.17506 -3.25,3.875 -1.784687,1.20673 -2.5,1.868506 -2.5,2.3125 0,0.638209 0.793132,1.25 1.5625,1.25 0.485462,0 0.72281,-0.260882 0.9375,-1 0.284244,-0.978568 0.86548,-1.299646 2.25,-1.3125 0.969842,-0.009 1.267977,0.200172 1.3125,0.96875 0.02607,0.450122 -0.01637,0.68025 -0.28125,1.21875 -0.434197,0.882715 -1.448714,1.902761 -2.34375,2.34375 -0.610748,0.300916 -0.803284,0.343192 -1.75,0.375 -0.825837,0.02774 -1.179264,-0.0069 -1.625,-0.15625 C 39.234152,19.555813 38.719088,19.248703 37.875,18.5625 35.609396,16.720678 34.420581,14.021963 35.0625,12.125 35.327697,11.341306 35.640611,10.831715 36.1875,10.28125 37.13709,9.3254488 38.61799,8.627471 40.46875,8.25 41.187196,8.1034691 41.88094,8.0518483 42.5,8.0625 z" display="inline"/></clipPath><linearGradient id="linearGradient5065" x1="11.509" x2="11.509" y1="6.667" y2="2.688" gradientTransform="translate(-30,-30)" gradientUnits="userSpaceOnUse" xlink:href="#linearGradient4081"/><linearGradient id="linearGradient5068" x1="17.212" x2="17.212" y1="7.381" y2="1.988" gradientTransform="translate(-30,-30)" gradientUnits="userSpaceOnUse" xlink:href="#linearGradient4081"/><linearGradient id="linearGradient5071" x1="7.374" x2="7.374" y1="7.605" y2="4.035" gradientTransform="translate(-30,-30)" gradientUnits="userSpaceOnUse" xlink:href="#linearGradient4081"/><linearGradient id="linearGradient5074" x1="4.95" x2="4.95" y1="9.393" y2="6.364" gradientTransform="translate(-30,-30)" gradientUnits="userSpaceOnUse" xlink:href="#linearGradient4081"/><linearGradient id="linearGradient5077" x1="13" x2="13" y1="20" y2="7.996" gradientTransform="translate(-30,-30)" gradientUnits="userSpaceOnUse" xlink:href="#linearGradient4081"/><linearGradient id="linearGradient3345" x1="6.839" x2="6.839" y1="16.3" y2="6.053" gradientUnits="userSpaceOnUse" xlink:href="#linearGradient4081"/><linearGradient id="linearGradient3355" x1="12.316" x2="12.316" y1="18.468" y2="3.482" gradientUnits="userSpaceOnUse" xlink:href="#linearGradient4081"/><linearGradient id="linearGradient3357" x1="18.765" x2="18.765" y1="21" y2=".967" gradientUnits="userSpaceOnUse" xlink:href="#linearGradient4081"/><linearGradient id="linearGradient3522" x1="6.839" x2="6.839" y1="16.3" y2="6.053" gradientTransform="translate(1,0)" gradientUnits="userSpaceOnUse" xlink:href="#linearGradient4081"/><linearGradient id="linearGradient3527" x1="6.839" x2="6.839" y1="16.3" y2="6.053" gradientTransform="translate(1,30)" gradientUnits="userSpaceOnUse" xlink:href="#linearGradient4081"/><linearGradient id="linearGradient3540" x1="14.525" x2="14.525" y1="17.419" y2="4.625" gradientTransform="translate(1,30)" gradientUnits="userSpaceOnUse" xlink:href="#linearGradient4081"/><linearGradient id="linearGradient3542" x1="10.505" x2="10.505" y1="15.281" y2="6.746" gradientTransform="translate(1,30)" gradientUnits="userSpaceOnUse" xlink:href="#linearGradient4081"/><linearGradient id="linearGradient3552" x1="16.5" x2="16.5" y1="19.543" y2="2.5" gradientTransform="translate(1,0)" gradientUnits="userSpaceOnUse" xlink:href="#linearGradient4081"/><linearGradient id="linearGradient3723" x1="12" x2="12" y1="19" y2="2.969" gradientTransform="translate(1,-1)" gradientUnits="userSpaceOnUse" xlink:href="#linearGradient4081"/><linearGradient id="linearGradient2902" x1="12" x2="12" y1="19" y2="2.969" gradientTransform="translate(2,-1)" gradientUnits="userSpaceOnUse" xlink:href="#linearGradient4081"/><linearGradient id="linearGradient2904" x1="12" x2="12" y1="19" y2="2.969" gradientTransform="translate(0,-1)" gradientUnits="userSpaceOnUse" xlink:href="#linearGradient4081"/><linearGradient id="linearGradient2906" x1="12" x2="12" y1="19" y2="2.969" gradientTransform="translate(-1,-1)" gradientUnits="userSpaceOnUse" xlink:href="#linearGradient4081"/><linearGradient id="linearGradient2909" x1="12" x2="12" y1="19" y2="5" gradientTransform="translate(-31,-1)" gradientUnits="userSpaceOnUse" xlink:href="#linearGradient4081"/><linearGradient id="linearGradient3689" x1="96" x2="96" y1="-2" y2="-82" gradientTransform="translate(90,16)" gradientUnits="userSpaceOnUse" xlink:href="#linearGradient4081"/><linearGradient id="linearGradient3691" x1="72" x2="72" y1="-2" y2="-66" gradientTransform="translate(94,16)" gradientUnits="userSpaceOnUse" xlink:href="#linearGradient4081"/><linearGradient id="linearGradient3693" x1="56" x2="56" y1="-2" y2="-50" gradientTransform="translate(98,16)" gradientUnits="userSpaceOnUse" xlink:href="#linearGradient4081"/><linearGradient id="linearGradient3695" x1="24" x2="24" y1="-2" y2="-34" gradientTransform="translate(102,16)" gradientUnits="userSpaceOnUse" xlink:href="#linearGradient4081"/><linearGradient id="linearGradient3737" x1="96" x2="96" y1="-2" y2="-82" gradientTransform="translate(-20,90)" gradientUnits="userSpaceOnUse" xlink:href="#linearGradient4081"/><linearGradient id="linearGradient3740" x1="96" x2="96" y1="-2" y2="-82" gradientTransform="translate(-20,90)" gradientUnits="userSpaceOnUse" xlink:href="#linearGradient4081"/><linearGradient id="linearGradient3744" x1="96" x2="96" y1="-2" y2="-82" gradientTransform="translate(-20,18)" gradientUnits="userSpaceOnUse" xlink:href="#linearGradient4081"/><linearGradient id="linearGradient3755" x1="96" x2="96" y1="-2" y2="-82" gradientTransform="translate(-20,90)" gradientUnits="userSpaceOnUse" xlink:href="#linearGradient4081"/><linearGradient id="linearGradient3538" x1="16.5" x2="16.5" y1="19.543" y2="2.5" gradientTransform="translate(1,0)" gradientUnits="userSpaceOnUse" xlink:href="#linearGradient4081-7"/><linearGradient id="linearGradient4081-7"><stop id="stop4083-8" offset="0" stop-color="#aaa" stop-opacity="1"/><stop id="stop4085-6" offset="1" stop-color="#f0f0f0" stop-opacity="1"/></linearGradient><linearGradient id="linearGradient3540-8" x1="14.525" x2="14.525" y1="17.419" y2="4.625" gradientTransform="translate(1,0)" gradientUnits="userSpaceOnUse" xlink:href="#linearGradient4081-7"/><linearGradient id="linearGradient2926"><stop id="stop2928" offset="0" stop-color="#aaa" stop-opacity="1"/><stop id="stop2930" offset="1" stop-color="#f0f0f0" stop-opacity="1"/></linearGradient><linearGradient id="linearGradient3542-8" x1="10.505" x2="10.505" y1="15.281" y2="6.746" gradientTransform="translate(1,0)" gradientUnits="userSpaceOnUse" xlink:href="#linearGradient4081-7"/><linearGradient id="linearGradient2933"><stop id="stop2935" offset="0" stop-color="#aaa" stop-opacity="1"/><stop id="stop2937" offset="1" stop-color="#f0f0f0" stop-opacity="1"/></linearGradient><linearGradient id="linearGradient3527-4" x1="6.839" x2="6.839" y1="16.3" y2="6.053" gradientTransform="translate(1,0)" gradientUnits="userSpaceOnUse" xlink:href="#linearGradient4081-7"/><linearGradient id="linearGradient2940"><stop id="stop2942" offset="0" stop-color="#aaa" stop-opacity="1"/><stop id="stop2944" offset="1" stop-color="#f0f0f0" stop-opacity="1"/></linearGradient><linearGradient id="linearGradient2950" x1="16.5" x2="16.5" y1="19.543" y2="2.5" gradientTransform="translate(1,0)" gradientUnits="userSpaceOnUse" xlink:href="#linearGradient4081-7"/><linearGradient id="linearGradient2975" x1="16.5" x2="16.5" y1="19.543" y2="2.5" gradientTransform="translate(1,0)" gradientUnits="userSpaceOnUse" xlink:href="#linearGradient4081-7"/><linearGradient id="linearGradient2977" x1="14.525" x2="14.525" y1="17.419" y2="4.625" gradientTransform="translate(1,0)" gradientUnits="userSpaceOnUse" xlink:href="#linearGradient4081-7"/><linearGradient id="linearGradient2979" x1="6.839" x2="6.839" y1="16.3" y2="6.053" gradientTransform="translate(1,0)" gradientUnits="userSpaceOnUse" xlink:href="#linearGradient4081-7"/><linearGradient id="linearGradient2981" x1="10.505" x2="10.505" y1="15.281" y2="6.746" gradientTransform="translate(1,0)" gradientUnits="userSpaceOnUse" xlink:href="#linearGradient4081-7"/><linearGradient id="linearGradient2984" x1="10.505" x2="10.505" y1="15.281" y2="6.746" gradientTransform="matrix(4.4444444,0,0,4.4444444,0.1783475,-74.958333)" gradientUnits="userSpaceOnUse" xlink:href="#linearGradient4081-7"/><linearGradient id="linearGradient2987" x1="6.839" x2="6.839" y1="16.3" y2="6.053" gradientTransform="matrix(4.4656308,0,0,4.4038322,3.5343696,-74.422993)" gradientUnits="userSpaceOnUse" xlink:href="#linearGradient4081-7"/><linearGradient id="linearGradient2990" x1="14.525" x2="14.525" y1="17.419" y2="4.625" gradientTransform="matrix(4.4444444,0,0,4.4444444,1.8342174,-0.972221)" gradientUnits="userSpaceOnUse" xlink:href="#linearGradient4081-7"/><linearGradient id="linearGradient2993" x1="16.5" x2="16.5" y1="19.543" y2="2.5" gradientTransform="matrix(4.4444444,0,0,4.4444444,3.555556,-0.958333)" gradientUnits="userSpaceOnUse" xlink:href="#linearGradient4081-7"/><linearGradient id="linearGradient2999" x1="10.505" x2="10.505" y1="15.281" y2="6.746" gradientTransform="matrix(4.4444444,0,0,4.4444444,0.1783475,-0.958333)" gradientUnits="userSpaceOnUse" xlink:href="#linearGradient4081-7"/><linearGradient id="linearGradient3007" x1="10.505" x2="10.505" y1="15.281" y2="6.746" gradientTransform="matrix(4.4444444,0,0,4.4444444,0.1783475,-0.958333)" gradientUnits="userSpaceOnUse" xlink:href="#linearGradient4081-7"/><linearGradient id="linearGradient3013" x1="14.525" x2="14.525" y1="17.419" y2="4.625" gradientTransform="matrix(4.4444444,0,0,4.4444444,1.8342174,-0.972221)" gradientUnits="userSpaceOnUse" xlink:href="#linearGradient4081-7"/><linearGradient id="linearGradient3021" x1="16.5" x2="16.5" y1="19.543" y2="2.5" gradientTransform="matrix(4.4444444,0,0,4.4444444,3.555556,-72.958333)" gradientUnits="userSpaceOnUse" xlink:href="#linearGradient4081-7"/><linearGradient id="linearGradient3023" x1="16.5" x2="16.5" y1="19.543" y2="2.5" gradientTransform="matrix(4.4444444,0,0,4.4444444,3.555556,-0.958333)" gradientUnits="userSpaceOnUse" xlink:href="#linearGradient4081-7"/><linearGradient id="linearGradient3002" x1="16.5" x2="16.5" y1="19.543" y2="2.5" gradientTransform="matrix(4.4444444,0,0,4.4444444,3.555556,73.041667)" gradientUnits="userSpaceOnUse" xlink:href="#linearGradient4081-7"/><linearGradient id="linearGradient3777" x1="9.981" x2="9.981" y1=".625" y2="-11.792" gradientTransform="matrix(4.4444444,0,0,4.4444444,3.555556,73.041667)" gradientUnits="userSpaceOnUse" xlink:href="#linearGradient4081"/><linearGradient id="linearGradient2961" x1="9.981" x2="9.981" y1=".625" y2="-11.792" gradientTransform="matrix(4.4444444,0,0,4.4444444,3.555556,147.04167)" gradientUnits="userSpaceOnUse" xlink:href="#linearGradient4081"/><linearGradient id="linearGradient3736" x1="8.449" x2="8.449" y1="-17.352" y2="-27.198" gradientTransform="matrix(4.4444444,0,0,4.4444444,3.555556,147.04167)" gradientUnits="userSpaceOnUse" xlink:href="#linearGradient4081"/><linearGradient id="linearGradient2955" x1="4.883" x2="4.883" y1="-33.968" y2="-43.829" gradientTransform="matrix(4.4444444,0,0,4.4444444,3.555556,147.04167)" gradientUnits="userSpaceOnUse" xlink:href="#linearGradient4081"/><linearGradient id="linearGradient7193" x1="11" x2="19" y1="11.016" y2="11.016" gradientTransform="matrix(0,-0.8456457,0.8456457,0,5.6846841,23.700311)" gradientUnits="userSpaceOnUse" xlink:href="#linearGradient3183"/><linearGradient id="linearGradient3183"><stop id="stop3185" offset="0" stop-color="#c80000" stop-opacity="1"/><stop id="stop3187" offset="1" stop-color="#f3604d" stop-opacity="1"/></linearGradient><linearGradient id="linearGradient2927" x1="11" x2="19" y1="11.016" y2="11.016" gradientTransform="matrix(0,-3.0000004,2.9652505,0,27.335916,19.000009)" gradientUnits="userSpaceOnUse" xlink:href="#linearGradient3183"/><linearGradient id="linearGradient2974" x1="11" x2="19" y1="11.016" y2="11.016" gradientTransform="matrix(0,-3.0000004,2.9652505,0,27.335916,21.000009)" gradientUnits="userSpaceOnUse" xlink:href="#linearGradient3183"/><linearGradient id="linearGradient2976" x1="11" x2="19" y1="11.016" y2="11.016" gradientTransform="matrix(0,-3.0000004,2.9652505,0,27.335916,93.000009)" gradientUnits="userSpaceOnUse" xlink:href="#linearGradient3183"/></defs><metadata id="metadata7"/><g id="layer1" display="inline" transform="translate(0,74)"><path id="path3761" fill="#000" fill-opacity="1" fill-rule="evenodd" stroke="none" d="m 53.84375,-38.96875 c 7.23e-4,-8.4e-5 -0.09447,0.03137 -0.09375,0.03125 7.18e-4,-1.2e-4 -0.09446,1.55e-4 -0.09375,0 7.11e-4,-1.55e-4 -0.09445,0.03144 -0.09375,0.03125 0.001,-2.62e-4 -0.126005,0.03158 -0.125,0.03125 0.001,-3.35e-4 -0.125978,0.06291 -0.125,0.0625 9.78e-4,-4.08e-4 -0.157196,0.06298 -0.15625,0.0625 9.46e-4,-4.78e-4 -0.125908,0.06305 -0.125,0.0625 9.08e-4,-5.45e-4 -0.09462,0.09436 -0.09375,0.09375 8.66e-4,-6.1e-4 -0.12582,0.06317 -0.125,0.0625 8.2e-4,-6.71e-4 -0.09452,0.09448 -0.09375,0.09375 5.77e-4,-5.47e-4 -0.06575,0.06523 -0.09375,0.09375 -0.0093,0.0095 -0.03143,0.03145 -0.03125,0.03125 l -6,6.0625 c 9.53e-4,-0.001 -0.125853,0.157339 -0.125,0.15625 8.53e-4,-0.0011 -0.0945,0.126165 -0.09375,0.125 7.46e-4,-0.0012 -0.09438,0.15748 -0.09375,0.15625 6.32e-4,-0.0012 -0.09426,0.188785 -0.09375,0.1875 5.13e-4,-0.0013 -0.06289,0.157577 -0.0625,0.15625 3.89e-4,-0.0013 -0.03151,0.188858 -0.03125,0.1875 2.61e-4,-0.0014 -0.03138,0.188877 -0.03125,0.1875 1.31e-4,-0.0014 0,0.188883 0,0.1875 0,-0.0014 1.31e-4,0.188877 0,0.1875 -1.31e-4,-0.0014 0.03151,0.188858 0.03125,0.1875 -2.61e-4,-0.0014 0.03164,0.188827 0.03125,0.1875 -3.89e-4,-0.0013 0.06301,0.157535 0.0625,0.15625 -5.13e-4,-0.0013 0.09438,0.18873 0.09375,0.1875 -6.32e-4,-0.0012 0.0945,0.157415 0.09375,0.15625 -7.46e-4,-0.0012 0.0946,0.126089 0.09375,0.125 -8.53e-4,-0.0011 0.125953,0.157253 0.125,0.15625 l 4.5,4.5625 -4.5,4.5625 c 9.53e-4,-0.001 -0.125853,0.157339 -0.125,0.15625 8.53e-4,-0.0011 -0.0945,0.126165 -0.09375,0.125 7.46e-4,-0.0012 -0.09438,0.15748 -0.09375,0.15625 6.32e-4,-0.0012 -0.09426,0.188785 -0.09375,0.1875 5.13e-4,-0.0013 -0.06289,0.157577 -0.0625,0.15625 3.89e-4,-0.0013 -0.03151,0.188858 -0.03125,0.1875 2.61e-4,-0.0014 -0.03138,0.188877 -0.03125,0.1875 1.31e-4,-0.0014 0,0.188883 0,0.1875 0,-0.0014 1.31e-4,0.188877 0,0.1875 -1.31e-4,-0.0014 0.03151,0.188858 0.03125,0.1875 -2.61e-4,-0.0014 0.03164,0.188827 0.03125,0.1875 -3.89e-4,-0.0013 0.06301,0.157535 0.0625,0.15625 -5.13e-4,-0.0013 0.09438,0.18873 0.09375,0.1875 -6.32e-4,-0.0012 0.0945,0.157415 0.09375,0.15625 -7.46e-4,-0.0012 0.0946,0.126089 0.09375,0.125 -8.53e-4,-0.0011 0.125953,0.157253 0.125,0.15625 l 6.03125,6.09375 c -9.87e-4,-0.001 0.126082,0.125927 0.125,0.125 -0.0011,-9.27e-4 0.157418,0.125817 0.15625,0.125 -0.0012,-8.17e-4 0.157492,0.09445 0.15625,0.09375 -0.0012,-6.99e-4 0.188805,0.09432 0.1875,0.09375 -0.0013,-5.74e-4 0.188854,0.06294 0.1875,0.0625 -0.0014,-4.44e-4 0.157641,0.06281 0.15625,0.0625 -0.0014,-3.1e-4 0.188915,0.03142 0.1875,0.03125 -0.0014,-1.72e-4 0.220175,3.3e-5 0.21875,0 -0.0014,-3.3e-5 0.188921,-1.06e-4 0.1875,0 -0.0014,1.06e-4 0.188904,-0.03149 0.1875,-0.03125 -0.0014,2.45e-4 0.188874,-0.03163 0.1875,-0.03125 -0.0014,3.81e-4 0.15758,-0.06301 0.15625,-0.0625 -0.0013,5.13e-4 0.188773,-0.06314 0.1875,-0.0625 -0.0013,6.41e-4 0.157455,-0.09451 0.15625,-0.09375 -0.0012,7.62e-4 0.157374,-0.125876 0.15625,-0.125 -0.0011,8.76e-4 0.157283,-0.125982 0.15625,-0.125 l 4.59375,-4.5625 4.40625,4.5 c -5.08e-4,-5.29e-4 0.06303,0.063 0.0625,0.0625 -5.34e-4,-5.03e-4 0.09431,0.06298 0.09375,0.0625 -5.59e-4,-4.76e-4 0.06308,0.06295 0.0625,0.0625 -5.82e-4,-4.47e-4 0.09435,0.06292 0.09375,0.0625 -6.04e-4,-4.17e-4 0.06312,0.06289 0.0625,0.0625 -6.24e-4,-3.86e-4 0.09439,0.06285 0.09375,0.0625 -6.43e-4,-3.54e-4 0.09441,0.03157 0.09375,0.03125 -6.6e-4,-3.21e-4 0.09443,0.03154 0.09375,0.03125 -6.75e-4,-2.88e-4 0.06319,0.0315 0.0625,0.03125 -6.89e-4,-2.53e-4 0.09445,0.03147 0.09375,0.03125 -7e-4,-2.18e-4 0.09446,0.03143 0.09375,0.03125 -7.11e-4,-1.83e-4 0.125719,0.0314 0.125,0.03125 -7.19e-4,-1.47e-4 0.09448,0.03136 0.09375,0.03125 -7.25e-4,-1.1e-4 0.09448,7.4e-5 0.09375,0 -7.3e-4,-7.4e-5 0.09448,3.7e-5 0.09375,0 -7.33e-4,-3.7e-5 0.09448,0 0.09375,0 -7.34e-4,0 0.09448,-3.7e-5 0.09375,0 -7.33e-4,3.7e-5 0.09448,-7.4e-5 0.09375,0 -7.3e-4,7.4e-5 0.09448,-1.1e-4 0.09375,0 -7.25e-4,1.1e-4 0.09447,-0.0314 0.09375,-0.03125 -7.19e-4,1.47e-4 0.125711,-0.03143 0.125,-0.03125 -7.11e-4,1.83e-4 0.09445,-0.03147 0.09375,-0.03125 -7e-4,2.18e-4 0.09444,-0.0315 0.09375,-0.03125 -6.89e-4,2.53e-4 0.06318,-0.03154 0.0625,-0.03125 -6.75e-4,2.88e-4 0.09441,-0.03157 0.09375,-0.03125 -6.6e-4,3.21e-4 0.09439,-0.0316 0.09375,-0.03125 -6.43e-4,3.54e-4 0.09437,-0.06289 0.09375,-0.0625 -6.24e-4,3.86e-4 0.0631,-0.06292 0.0625,-0.0625 -6.04e-4,4.17e-4 0.09433,-0.06295 0.09375,-0.0625 -5.82e-4,4.47e-4 0.06306,-0.06298 0.0625,-0.0625 -5.59e-4,4.76e-4 0.09428,-0.063 0.09375,-0.0625 -5.34e-4,5.03e-4 0.06301,-0.06303 0.0625,-0.0625 l 6.21875,-6.28125 c -9.82e-4,0.001 0.125876,-0.157374 0.125,-0.15625 -8.76e-4,0.0011 0.125762,-0.157455 0.125,-0.15625 -7.62e-4,0.0012 0.09439,-0.157523 0.09375,-0.15625 -6.41e-4,0.0013 0.06301,-0.18883 0.0625,-0.1875 -5.13e-4,0.0013 0.06288,-0.157624 0.0625,-0.15625 -3.81e-4,0.0014 0.0315,-0.188904 0.03125,-0.1875 -2.45e-4,0.0014 0.03136,-0.188921 0.03125,-0.1875 -1.06e-4,0.0014 -3.3e-5,-0.188925 0,-0.1875 3.3e-5,0.0014 -1.72e-4,-0.220165 0,-0.21875 1.72e-4,0.0014 -0.03156,-0.188891 -0.03125,-0.1875 3.1e-4,0.0014 -0.06294,-0.157604 -0.0625,-0.15625 4.44e-4,0.0014 -0.06307,-0.188805 -0.0625,-0.1875 5.74e-4,0.0013 -0.09445,-0.188742 -0.09375,-0.1875 6.99e-4,0.0012 -0.09457,-0.157418 -0.09375,-0.15625 8.17e-4,0.0012 -0.125927,-0.157332 -0.125,-0.15625 9.27e-4,0.0011 -0.126029,-0.125987 -0.125,-0.125 L 68.9375,-25 l 4.40625,-4.3125 c -0.001,9.87e-4 0.125927,-0.126082 0.125,-0.125 -9.27e-4,0.0011 0.125817,-0.157418 0.125,-0.15625 -8.17e-4,0.0012 0.09445,-0.157492 0.09375,-0.15625 -6.99e-4,0.0012 0.09432,-0.188805 0.09375,-0.1875 -5.74e-4,0.0013 0.06294,-0.188854 0.0625,-0.1875 -4.44e-4,0.0014 0.06281,-0.157641 0.0625,-0.15625 -3.1e-4,0.0014 0.03142,-0.188915 0.03125,-0.1875 -1.72e-4,0.0014 3.3e-5,-0.220175 0,-0.21875 -3.3e-5,0.0014 -1.06e-4,-0.188921 0,-0.1875 1.06e-4,0.0014 -0.0315,-0.188904 -0.03125,-0.1875 2.45e-4,0.0014 -0.03163,-0.188874 -0.03125,-0.1875 3.81e-4,0.0014 -0.06301,-0.15758 -0.0625,-0.15625 5.13e-4,0.0013 -0.06314,-0.188773 -0.0625,-0.1875 6.41e-4,0.0013 -0.09451,-0.157455 -0.09375,-0.15625 7.62e-4,0.0012 -0.125876,-0.157374 -0.125,-0.15625 8.76e-4,0.0011 -0.125982,-0.157283 -0.125,-0.15625 l -6.21875,-6.28125 c 5.08e-4,5.29e-4 -0.06303,-0.063 -0.0625,-0.0625 5.34e-4,5.03e-4 -0.09431,-0.06298 -0.09375,-0.0625 5.59e-4,4.76e-4 -0.06308,-0.06295 -0.0625,-0.0625 5.82e-4,4.47e-4 -0.09435,-0.06292 -0.09375,-0.0625 6.04e-4,4.17e-4 -0.06312,-0.06289 -0.0625,-0.0625 6.24e-4,3.86e-4 -0.09439,-0.06285 -0.09375,-0.0625 6.43e-4,3.54e-4 -0.09441,-0.03157 -0.09375,-0.03125 6.6e-4,3.21e-4 -0.09443,-0.03154 -0.09375,-0.03125 6.75e-4,2.88e-4 -0.06319,-0.0315 -0.0625,-0.03125 6.89e-4,2.53e-4 -0.09445,-0.03147 -0.09375,-0.03125 7e-4,2.18e-4 -0.09446,-0.03143 -0.09375,-0.03125 7.11e-4,1.83e-4 -0.125719,-0.0314 -0.125,-0.03125 7.19e-4,1.47e-4 -0.09448,-0.03136 -0.09375,-0.03125 7.25e-4,1.1e-4 -0.09448,-7.4e-5 -0.09375,0 7.3e-4,7.4e-5 -0.09448,-3.7e-5 -0.09375,0 7.33e-4,3.7e-5 -0.09448,0 -0.09375,0 7.34e-4,0 -0.09448,3.7e-5 -0.09375,0 7.33e-4,-3.7e-5 -0.09448,7.4e-5 -0.09375,0 7.3e-4,-7.4e-5 -0.09448,1.1e-4 -0.09375,0 7.25e-4,-1.1e-4 -0.09447,0.0314 -0.09375,0.03125 7.19e-4,-1.47e-4 -0.125711,0.03143 -0.125,0.03125 7.11e-4,-1.83e-4 -0.09445,0.03147 -0.09375,0.03125 7e-4,-2.18e-4 -0.09444,0.0315 -0.09375,0.03125 6.89e-4,-2.53e-4 -0.06318,0.03154 -0.0625,0.03125 6.75e-4,-2.88e-4 -0.09441,0.03157 -0.09375,0.03125 6.6e-4,-3.21e-4 -0.09439,0.0316 -0.09375,0.03125 6.43e-4,-3.54e-4 -0.09437,0.06289 -0.09375,0.0625 6.24e-4,-3.86e-4 -0.0631,0.06292 -0.0625,0.0625 6.04e-4,-4.17e-4 -0.09433,0.06295 -0.09375,0.0625 5.82e-4,-4.47e-4 -0.06306,0.06298 -0.0625,0.0625 5.59e-4,-4.76e-4 -0.09428,0.063 -0.09375,0.0625 5.34e-4,-5.03e-4 -0.06301,0.06303 -0.0625,0.0625 l -4.40625,4.5 -4.5625,-4.53125 c 1.71e-4,1.72e-4 -0.02075,-0.0212 -0.03125,-0.03125 -0.021,-0.0201 -0.06286,-0.06283 -0.0625,-0.0625 5.39e-4,4.91e-4 -0.06306,-0.06296 -0.0625,-0.0625 5.63e-4,4.63e-4 -0.06309,-0.06294 -0.0625,-0.0625 5.85e-4,4.35e-4 -0.09436,-0.03166 -0.09375,-0.03125 6.06e-4,4.05e-4 -0.09438,-0.06287 -0.09375,-0.0625 6.26e-4,3.74e-4 -0.06314,-0.06284 -0.0625,-0.0625 6.44e-4,3.42e-4 -0.09441,-0.03156 -0.09375,-0.03125 6.6e-4,3.09e-4 -0.09443,-0.03153 -0.09375,-0.03125 6.75e-4,2.76e-4 -0.09444,-0.03149 -0.09375,-0.03125 6.88e-4,2.42e-4 -0.09445,-0.03146 -0.09375,-0.03125 6.99e-4,2.07e-4 -0.09446,-0.03142 -0.09375,-0.03125 7.08e-4,1.72e-4 -0.09447,-0.03139 -0.09375,-0.03125 7.16e-4,1.36e-4 -0.09447,-1e-4 -0.09375,0 7.22e-4,1e-4 -0.09448,-0.03131 -0.09375,-0.03125 7.26e-4,6.4e-5 -0.09448,-2.8e-5 -0.09375,0 7.28e-4,2.8e-5 -0.09448,9e-6 -0.09375,0 a 0.9965754,0.9965754 0 0 0 -0.0625,0 c 7.26e-4,-4.7e-5 -0.09447,8.4e-5 -0.09375,0 z" display="inline" opacity=".1"/><path id="path3757" fill="#000" fill-opacity="1" fill-rule="evenodd" stroke="none" d="m 53.8125,-37.9375 a 0.95278301,0.95278301 0 0 0 -0.46875,0.28125 l -6.03125,6.09375 a 0.95278301,0.95278301 0 0 0 0,1.3125 L 52.5,-25 l -5.1875,5.25 a 0.95278301,0.95278301 0 0 0 0,1.3125 l 6.03125,6.09375 a 0.95278301,0.95278301 0 0 0 1.34375,0.03125 l 5.28125,-5.25 5.125,5.21875 a 0.95278301,0.95278301 0 0 0 1.375,0 L 72.6875,-18.625 a 0.95278301,0.95278301 0 0 0 -0.03125,-1.34375 L 67.5,-25 72.65625,-30.03125 A 0.95278301,0.95278301 0 0 0 72.6875,-31.375 l -6.21875,-6.28125 a 0.95278301,0.95278301 0 0 0 -1.375,0 l -5.125,5.21875 -5.28125,-5.25 a 0.95278301,0.95278301 0 0 0 -0.875,-0.25 z" display="inline" opacity=".15"/><path id="path3751" fill="#000" fill-opacity="1" fill-rule="evenodd" stroke="none" d="M 48,-19.093748 54.023165,-13 59.953669,-18.906248 65.791502,-13 72,-19.281248 66.16216,-24.999998 72,-30.718748 65.791502,-37 59.953669,-31.09375 54.023165,-37 48,-30.906249 53.837841,-24.999998 48,-19.093748 z" display="inline" opacity=".3"/><path id="path2947" fill="#000" fill-opacity="1" fill-rule="nonzero" stroke="none" d="m 30.53125,-49.9375 c -1.792735,0.202346 -3.164968,1.175643 -4.3125,2.21875 -1.147532,1.043107 -2.116404,2.173506 -3.125,2.9375 -1.309293,1.03524 -2.305983,2.277941 -3.28125,2.84375 -3.19673,0.125083 -6.711997,-0.467046 -10.21875,0.53125 a 0.98188401,0.98188401 0 0 0 -0.0625,0.03125 c -1.938453,0.741787 -3.1866088,2.253002 -3.84375,3.9375 -0.6454065,1.654418 -0.7693726,3.476683 -0.625,5.15625 3.985e-4,0.03101 -3.817e-4,0.06273 0,0.09375 0.07303,5.935151 -0.1592821,11.925169 0.125,17.9375 a 0.98188401,0.98188401 0 0 0 0,0.125 c 0.6541371,4.1949853 4.851407,6.524928 8.75,6.03125 0.04188,-0.0053 0.0832,0.00596 0.125,0 l 6.03125,0 c 2.547293,2.3331893 4.977456,4.8760097 7.71875,7.15625 a 0.98188401,0.98188401 0 0 0 0.125,0.09375 c 1.297402,0.75429153 2.663553,0.94413745 3.875,0.65625 1.211447,-0.28788745 2.2461,-1.0181685 3.0625,-1.9375 1.591477,-1.7921312 2.432102,-4.3554646 2.0625,-6.71875 -0.0096,-0.061362 0.01126,-0.1264298 0,-0.1875 -0.01371,-11.23942 0.01905,-22.472232 -0.03125,-33.71875 a 0.98188401,0.98188401 0 0 0 0,-0.0625 c -0.09064,-1.631226 -0.649351,-3.314822 -1.6875,-4.6875 -1.038149,-1.372678 -2.629815,-2.418492 -4.5625,-2.4375 a 0.98188401,0.98188401 0 0 0 -0.125,0 z" display="inline" opacity=".08"/><path id="path2956" fill="#000" fill-opacity="1" fill-rule="nonzero" stroke="none" d="m 30.65625,-48.96875 c -3.001858,0.338819 -4.712753,3.259871 -6.96875,4.96875 -1.203186,0.951343 -2.225794,2.343046 -3.53125,3.03125 -3.422325,0.180722 -6.96213,-0.444881 -10.28125,0.5 -3.3270971,1.273178 -4.1365537,5.013582 -3.84375,8.1875 0.077082,5.999634 -0.1580915,12.012849 0.125,18 0.568362,3.644909 4.326415,5.711478 7.78125,5.21875 l 6.53125,0 c 2.682327,2.4327539 5.187752,5.0617331 7.96875,7.375 4.43749,2.57989547 8.283801,-3.0759015 7.53125,-7.15625 -0.01432,-11.304734 0.01931,-22.602066 -0.03125,-33.90625 -0.159153,-2.864265 -2.094385,-6.187407 -5.28125,-6.21875 z" display="inline" opacity=".1"/><path id="path2965" fill="#000" fill-opacity="1" fill-rule="nonzero" stroke="none" d="m 30.65625,-47.90625 c -0.345799,-5e-5 -0.63266,0.114392 -0.84375,0.1875 a 0.90418672,0.90418672 0 0 0 -0.03125,0 c -0.374293,0.14485 -0.862389,0.361504 -1.28125,0.75 l -7.71875,7.0625 -8.46875,0 c -2.8961717,0 -5.21875,2.352552 -5.21875,5.3125 l 0,19.03125 c 0,2.959948 2.29149,5.4375 5.21875,5.4375 l 8.59375,0 L 28.5,-3 a 0.90418672,0.90418672 0 0 0 0.03125,0.03125 c 0.633998,0.5503992 1.401951,0.8755416 2.1875,0.875 0.785549,-5.416e-4 1.55368,-0.3273091 2.1875,-0.875 1.277406,-1.1038292 2.007406,-2.9671776 2,-4.9375 l 0,-7.71875 0,-18.71875 0,-7.6875 c 0.01644,-1.685759 -0.519108,-3.294435 -1.46875,-4.4375 -0.727902,-0.876162 -1.724029,-1.437339 -2.78125,-1.4375 z" display="inline" opacity=".15"/><path id="path3798" fill="#000" fill-opacity="1" fill-rule="nonzero" stroke="none" d="m 30.65625,-47 c -0.242952,-3.5e-5 -0.321146,0.04141 -0.5625,0.125 -0.314988,0.121899 -0.692367,0.306153 -0.96875,0.5625 l -8,7.3125 -8.8125,0 C 9.8890582,-39 8,-37.099262 8,-34.59375 l 0,19.03125 c 0,2.505512 1.8890586,4.53125 4.3125,4.53125 l 8.9375,0 7.875,7.375 c 0.999696,0.867876 2.186633,0.86486 3.1875,0 1.000869,-0.864869 1.693988,-2.523874 1.6875,-4.25 l 0,-7.71875 0,-18.71875 0,-7.6875 c 0.01442,-1.479075 -0.47854,-2.946409 -1.25,-3.875 C 32.171404,-46.602695 31.385111,-46.999889 30.65625,-47 z" display="inline" opacity=".3"/><path id="path2953" fill="url(#linearGradient2955)" fill-opacity="1" fill-rule="nonzero" stroke="none" d="m 30.65625,-48 c -0.242952,-3.5e-5 -0.321146,0.04141 -0.5625,0.125 -0.314988,0.121899 -0.692367,0.306153 -0.96875,0.5625 l -8,7.3125 -8.8125,0 C 9.8890582,-40 8,-38.099262 8,-35.59375 l 0,19.03125 c 0,2.505512 1.8890586,4.53125 4.3125,4.53125 l 8.9375,0 7.875,7.375 c 0.999696,0.867876 2.186633,0.86486 3.1875,0 1.000869,-0.864869 1.693988,-2.523874 1.6875,-4.25 l 0,-7.71875 0,-18.71875 0,-7.6875 c 0.01442,-1.479075 -0.47854,-2.946409 -1.25,-3.875 C 32.171404,-47.602695 31.385111,-47.999889 30.65625,-48 z" display="inline"/><path id="path2983" fill="#fff" fill-opacity="1" fill-rule="nonzero" stroke="none" d="m 30.65625,26 c -0.242952,-3.5e-5 -0.321146,0.04141 -0.5625,0.125 -0.314988,0.121899 -0.692367,0.306153 -0.96875,0.5625 l -8,7.3125 -8.8125,0 C 9.889058,34 8,35.900738 8,38.40625 l 0,2 C 8,37.900738 9.889058,36 12.3125,36 l 8.8125,0 8,-7.3125 c 0.276383,-0.256347 0.653762,-0.440601 0.96875,-0.5625 0.241354,-0.08359 0.319548,-0.125035 0.5625,-0.125 0.728861,1.11e-4 1.515154,0.397305 2.09375,1.09375 0.77146,0.928591 1.26442,2.395925 1.25,3.875 l 0,-2 c 0.01442,-1.479075 -0.47854,-2.946409 -1.25,-3.875 C 32.171404,26.397305 31.385111,26.000111 30.65625,26 z" display="inline" opacity=".6" transform="translate(0,-74)"/><path id="path7165" fill="url(#linearGradient2927)" fill-opacity="1" fill-rule="evenodd" stroke="none" d="M 48,-20.093748 54.023165,-14 59.953669,-19.906248 65.791502,-14 72,-20.281248 66.16216,-25.999998 72,-31.718748 65.791502,-38 59.953669,-32.09375 54.023165,-38 48,-31.906249 53.837841,-25.999998 48,-20.093748 z" display="inline"/><path id="path2970" fill="#fff" fill-opacity="1" fill-rule="evenodd" stroke="none" d="M 54.03125,36 48,42.09375 l 1,1 L 54.03125,38 59.96875,43.90625 65.78125,38 71,43.25 72,42.28125 65.78125,36 59.96875,41.90625 54.03125,36 z M 53.836424,47.975812 48,53.90625 l 1,1 L 53.84375,50 53.836424,47.975812 z M 66.179069,48.023082 66.15625,50 71,54.75 72,53.71875 66.179069,48.023082 z" display="inline" opacity=".2" transform="translate(0,-74)"/></g></svg>