<svg xmlns="http://www.w3.org/2000/svg" xmlns:svg="http://www.w3.org/2000/svg" xmlns:xlink="http://www.w3.org/1999/xlink" id="svg2408" width="96" height="96" version="1.0"><defs id="defs2410"><linearGradient id="linearGradient3853"><stop id="stop3855" offset="0" stop-color="#666" stop-opacity="1"/><stop id="stop3857" offset="1" stop-color="#828282" stop-opacity="1"/></linearGradient><linearGradient id="linearGradient3831"><stop id="stop3833" offset="0" stop-color="#267387" stop-opacity="1"/><stop id="stop3835" offset="1" stop-color="#5bb9d2" stop-opacity="1"/></linearGradient><linearGradient id="linearGradient3824"><stop id="stop3826" offset="0" stop-color="#e4e4e4" stop-opacity="1"/><stop id="stop3828" offset="1" stop-color="#989898" stop-opacity="1"/></linearGradient><linearGradient id="linearGradient3840"><stop id="stop3842" offset="0" stop-color="#000" stop-opacity="0"/><stop id="stop3844" offset=".828" stop-color="#000" stop-opacity="1"/><stop id="stop3846" offset="1" stop-color="#000" stop-opacity="0"/></linearGradient><linearGradient id="linearGradient3830"><stop id="stop3832" offset="0" stop-color="#fff" stop-opacity="1"/><stop id="stop3834" offset="1" stop-color="#3a3a3a" stop-opacity="1"/></linearGradient><linearGradient id="linearGradient3763"><stop id="stop3765" offset="0" stop-color="#dadada" stop-opacity="1"/><stop id="stop3767" offset=".391" stop-color="#fff" stop-opacity="1"/><stop id="stop3769" offset="1" stop-color="#b9b9b9" stop-opacity="1"/></linearGradient><linearGradient id="linearGradient3755"><stop id="stop3757" offset="0" stop-color="#fff" stop-opacity="1"/><stop id="stop3759" offset="1" stop-color="#fff" stop-opacity="0"/></linearGradient><linearGradient id="linearGradient3742"><stop id="stop3744" offset="0" stop-color="#000" stop-opacity="1"/><stop id="stop3746" offset="1" stop-color="#000" stop-opacity="0"/></linearGradient><linearGradient id="linearGradient4164"><stop id="stop4166" offset="0" stop-color="#fff" stop-opacity="1"/><stop id="stop4168" offset="1" stop-color="#fff" stop-opacity="0"/></linearGradient><linearGradient id="linearGradient4156"><stop id="stop4158" offset="0" stop-color="#000" stop-opacity="0"/><stop id="stop4172" offset=".918" stop-color="#000" stop-opacity="1"/><stop id="stop4160" offset="1" stop-color="#000" stop-opacity="0"/></linearGradient><linearGradient id="linearGradient4120"><stop id="stop4122" offset="0" stop-color="#fff" stop-opacity="1"/><stop id="stop4124" offset="1" stop-color="#989898" stop-opacity="1"/></linearGradient><linearGradient id="linearGradient4059"><stop id="stop4061" offset="0" stop-color="#ccc" stop-opacity="1"/><stop id="stop4063" offset="1" stop-color="#969696" stop-opacity="1"/></linearGradient><linearGradient id="linearGradient3981"><stop id="stop3983" offset="0" stop-color="#ccc" stop-opacity="1"/><stop id="stop3989" offset=".5" stop-color="#929292" stop-opacity="1"/><stop id="stop3985" offset="1" stop-color="#ccc" stop-opacity="1"/></linearGradient><linearGradient id="linearGradient3971"><stop id="stop3973" offset="0" stop-color="#000" stop-opacity="0"/><stop id="stop3979" offset=".874" stop-color="#000" stop-opacity="0"/><stop id="stop3975" offset="1" stop-color="#000" stop-opacity="1"/></linearGradient><linearGradient id="linearGradient3954"><stop id="stop3956" offset="0" stop-color="#1a1a1a" stop-opacity="1"/><stop id="stop3958" offset="1" stop-color="#3a3a3a" stop-opacity="1"/></linearGradient><linearGradient id="linearGradient3859"><stop id="stop3861" offset="0" stop-color="gray" stop-opacity="1"/><stop id="stop3863" offset="1" stop-color="#d0d0d0" stop-opacity="1"/></linearGradient><linearGradient id="linearGradient3693"><stop id="stop3695" offset="0" stop-color="#dadada" stop-opacity="1"/><stop id="stop3701" offset=".391" stop-color="#fff" stop-opacity="1"/><stop id="stop3697" offset="1" stop-color="#585c4b" stop-opacity="1"/></linearGradient><linearGradient id="linearGradient3677"><stop id="stop3679" offset="0" stop-color="#fff" stop-opacity="1"/><stop id="stop3681" offset="1" stop-color="#fff" stop-opacity="0"/></linearGradient><linearGradient id="linearGradient3614"><stop id="stop3616" offset="0" stop-color="#b9b9b9" stop-opacity="1"/><stop id="stop3618" offset="1" stop-color="#dedede" stop-opacity="1"/></linearGradient><linearGradient id="ButtonShadow" x1="45.448" x2="45.448" y1="92.54" y2="7.017" gradientTransform="scale(1.0058652,0.994169)" gradientUnits="userSpaceOnUse"><stop id="stop3750" offset="0" stop-color="#000" stop-opacity="1"/><stop id="stop3752" offset="1" stop-color="#000" stop-opacity=".588"/></linearGradient><linearGradient id="linearGradient3737"><stop id="stop3739" offset="0" stop-color="#fff" stop-opacity="1"/><stop id="stop3741" offset="1" stop-color="#fff" stop-opacity="0"/></linearGradient><linearGradient id="linearGradient3700"><stop id="stop3702" offset="0" stop-color="#a0a0a0" stop-opacity="1"/><stop id="stop3704" offset="1" stop-color="#c8c8c8" stop-opacity="1"/></linearGradient><linearGradient id="linearGradient3706" x1="48" x2="48" y1="90" y2="5.988" gradientUnits="userSpaceOnUse" xlink:href="#linearGradient3700"/><linearGradient id="linearGradient3743" x1="36.357" x2="36.357" y1="6" y2="63.893" gradientUnits="userSpaceOnUse" xlink:href="#linearGradient3737"/><filter id="filter3174"><feGaussianBlur id="feGaussianBlur3176" stdDeviation="1.71"/></filter><linearGradient id="linearGradient3188" x1="36.357" x2="36.357" y1="6" y2="63.893" gradientUnits="userSpaceOnUse" xlink:href="#linearGradient3737"/><filter id="filter3794" width="1.384" height="1.384" x="-.192" y="-.192"><feGaussianBlur id="feGaussianBlur3796" stdDeviation="5.28"/></filter><linearGradient id="linearGradient3613" x1="48" x2="48" y1="20.221" y2="138.661" gradientUnits="userSpaceOnUse" xlink:href="#linearGradient3737"/><radialGradient id="radialGradient3619" cx="48" cy="90.172" r="42" fx="48" fy="90.172" gradientTransform="matrix(1.1573129,0,0,0.99590774,-7.5510206,0.19713193)" gradientUnits="userSpaceOnUse" xlink:href="#linearGradient3737"/><clipPath id="clipPath3613" clipPathUnits="userSpaceOnUse"><rect id="rect3615" width="84" height="84" x="6" y="6" fill="#fff" fill-opacity="1" fill-rule="nonzero" stroke="none" rx="6" ry="6"/></clipPath><linearGradient id="linearGradient3617" x1="48" x2="48" y1="90" y2="5.988" gradientUnits="userSpaceOnUse" xlink:href="#linearGradient3614"/><linearGradient id="linearGradient3628" x1="15" x2="81" y1="48" y2="48" gradientTransform="matrix(0.96969697,0,0,0.96969697,-94.545455,1.4545455)" gradientUnits="userSpaceOnUse" xlink:href="#linearGradient3859"/><linearGradient id="linearGradient3683" x1="15" x2="81" y1="48" y2="48" gradientTransform="matrix(0,0.96969697,-0.96969697,0,94.54546,1.4545455)" gradientUnits="userSpaceOnUse" xlink:href="#linearGradient3677"/><linearGradient id="linearGradient3867" x1="82" x2="88" y1="76" y2="76" gradientTransform="matrix(0.66666667,0,0,1.5,23.333333,-84)" gradientUnits="userSpaceOnUse" xlink:href="#linearGradient3763"/><linearGradient id="linearGradient3960" x1="27.022" x2="67.428" y1="45.745" y2="45.745" gradientUnits="userSpaceOnUse" xlink:href="#linearGradient3954"/><radialGradient id="radialGradient3977" cx="48" cy="48" r="27" fx="48" fy="48" gradientTransform="matrix(0.59259259,0,0,0.59259259,19.555557,19.555558)" gradientUnits="userSpaceOnUse" xlink:href="#linearGradient3971"/><linearGradient id="linearGradient3987" x1="35.061" x2="59.081" y1="46.054" y2="46.054" gradientUnits="userSpaceOnUse" xlink:href="#linearGradient3981"/><clipPath id="clipPath4009" clipPathUnits="userSpaceOnUse"><path id="path4011" fill="red" fill-opacity="1" stroke="none" d="m 67.427683,45.744911 a 20.203051,20.203051 0 1 1 -40.406101,0 20.203051,20.203051 0 1 1 40.406101,0 z" transform="matrix(1.4145804,-0.81670835,0.81670835,1.4145804,-56.163288,21.858899)"/></clipPath><linearGradient id="linearGradient4050" x1="27.022" x2="67.428" y1="45.745" y2="45.745" gradientUnits="userSpaceOnUse" xlink:href="#linearGradient3737"/><linearGradient id="linearGradient4065" x1="48" x2="48" y1="28.438" y2="64" gradientTransform="matrix(0.54536345,0,0,0.54536345,21.822554,21.822556)" gradientUnits="userSpaceOnUse" xlink:href="#linearGradient4059"/><linearGradient id="linearGradient4126" x1="45.541" x2="45.541" y1="27.225" y2="65.948" gradientUnits="userSpaceOnUse" xlink:href="#linearGradient4120"/><linearGradient id="linearGradient4170" x1="36" x2="60" y1="48" y2="48" gradientTransform="matrix(0.54536345,0,0,0.54536345,21.822554,21.822556)" gradientUnits="userSpaceOnUse" xlink:href="#linearGradient4164"/><linearGradient id="linearGradient4262" x1="41.713" x2="53.53" y1="36.094" y2="59.906" gradientTransform="matrix(0.54536345,0,0,0.54536345,21.822554,21.822556)" gradientUnits="userSpaceOnUse" xlink:href="#linearGradient3737"/><linearGradient id="linearGradient3748" x1="-83" x2="-15" y1="48" y2="48" gradientTransform="translate(1,1)" gradientUnits="userSpaceOnUse" xlink:href="#linearGradient3742"/><linearGradient id="linearGradient3761" x1="38.75" x2="38.75" y1="15" y2="104.195" gradientUnits="userSpaceOnUse" xlink:href="#linearGradient3755"/><linearGradient id="linearGradient3779" x1="82" x2="88" y1="76" y2="76" gradientTransform="matrix(0.66666667,0,0,1.5,23.333333,-48)" gradientUnits="userSpaceOnUse" xlink:href="#linearGradient3763"/><radialGradient id="radialGradient3817" cx="47.225" cy="45.745" r="20.203" fx="47.225" fy="45.745" gradientUnits="userSpaceOnUse" xlink:href="#linearGradient4156"/><linearGradient id="linearGradient3819" x1="45.541" x2="45.541" y1="27.225" y2="65.948" gradientUnits="userSpaceOnUse" xlink:href="#linearGradient4120"/><linearGradient id="linearGradient3821" x1="36" x2="60" y1="48" y2="48" gradientTransform="matrix(0.54536345,0,0,0.54536345,81.822554,21.822556)" gradientUnits="userSpaceOnUse" xlink:href="#linearGradient4164"/><linearGradient id="linearGradient3823" x1="41.713" x2="53.53" y1="36.094" y2="59.906" gradientTransform="matrix(0.54536345,0,0,0.54536345,81.822554,21.822556)" gradientUnits="userSpaceOnUse" xlink:href="#linearGradient3737"/><linearGradient id="linearGradient3836" x1="41.469" x2="54.531" y1="48" y2="48" gradientTransform="matrix(0,1,-1,0,96,0)" gradientUnits="userSpaceOnUse" xlink:href="#linearGradient3830"/><radialGradient id="radialGradient3838" cx="47.225" cy="45.745" r="20.203" fx="47.225" fy="45.745" gradientUnits="userSpaceOnUse" xlink:href="#linearGradient3840"/><linearGradient id="linearGradient3850" x1="45.541" x2="45.541" y1="27.225" y2="65.948" gradientTransform="matrix(0.44547728,0,0,0.44547728,26.962499,27.621681)" gradientUnits="userSpaceOnUse" xlink:href="#linearGradient4120"/><linearGradient id="linearGradient3855" x1="45.541" x2="45.541" y1="27.99" y2="65.948" gradientTransform="matrix(0.44547728,0,0,0.44547728,26.962499,27.621681)" gradientUnits="userSpaceOnUse" xlink:href="#linearGradient4059"/><linearGradient id="linearGradient3864" x1="45.541" x2="45.541" y1="27.99" y2="65.948" gradientTransform="matrix(0.44547728,0,0,0.44547728,26.962499,28.621681)" gradientUnits="userSpaceOnUse" xlink:href="#linearGradient4059"/><linearGradient id="linearGradient3868" x1="45.541" x2="45.541" y1="27.99" y2="65.948" gradientTransform="matrix(0.44547728,0,0,0.44547728,26.962499,27.621681)" gradientUnits="userSpaceOnUse" xlink:href="#linearGradient4059"/><linearGradient id="linearGradient3938" x1="-83" x2="-15" y1="48" y2="48" gradientTransform="translate(1,1)" gradientUnits="userSpaceOnUse" xlink:href="#linearGradient3742"/><linearGradient id="linearGradient3942" x1="-83" x2="-15" y1="48" y2="48" gradientTransform="translate(1,1)" gradientUnits="userSpaceOnUse" xlink:href="#linearGradient3742"/><linearGradient id="linearGradient3744" x1="14" x2="14" y1="4" y2="8" gradientUnits="userSpaceOnUse" xlink:href="#linearGradient3738"/><linearGradient id="linearGradient3738"><stop id="stop3740" offset="0" stop-color="#9ae8fb" stop-opacity="1"/><stop id="stop3742" offset="1" stop-color="#50bad4" stop-opacity="1"/></linearGradient><radialGradient id="radialGradient3816" cx="57" cy="43.639" r="11" fx="57" fy="43.639" gradientTransform="matrix(1.4247695,-5.0547426e-8,1.8199729e-8,0.51299189,-24.211861,14.391327)" gradientUnits="userSpaceOnUse" xlink:href="#linearGradient3738"/><linearGradient id="linearGradient3822" x1="55.733" x2="55.733" y1="40.798" y2="30.783" gradientTransform="translate(0,-2)" gradientUnits="userSpaceOnUse" xlink:href="#linearGradient3824"/><linearGradient id="linearGradient3837" x1="49.914" x2="49.929" y1="32.338" y2="39.283" gradientTransform="translate(0,-2)" gradientUnits="userSpaceOnUse" xlink:href="#linearGradient3831"/><linearGradient id="linearGradient3860" x1="48.904" x2="48.904" y1="46.02" y2="41.967" gradientTransform="translate(0,-88)" gradientUnits="userSpaceOnUse" xlink:href="#linearGradient2949"/><linearGradient id="linearGradient3778"><stop id="stop3780" offset="0" stop-color="#323232" stop-opacity="1"/><stop id="stop3782" offset="1" stop-color="#505050" stop-opacity="1"/></linearGradient><linearGradient id="linearGradient2942"><stop id="stop2944" offset="0" stop-color="#323232" stop-opacity="1"/><stop id="stop2946" offset="1" stop-color="#505050" stop-opacity="1"/></linearGradient><linearGradient id="linearGradient2949"><stop id="stop2951" offset="0" stop-color="#323232" stop-opacity="1"/><stop id="stop2953" offset="1" stop-color="#505050" stop-opacity="1"/></linearGradient><linearGradient id="linearGradient3770"><stop id="stop3772" offset="0" stop-color="#802b27" stop-opacity="1"/><stop id="stop3774" offset="1" stop-color="#a93833" stop-opacity="1"/></linearGradient><linearGradient id="linearGradient3980" x1="48.904" x2="48.904" y1="46.02" y2="41.967" gradientTransform="translate(8,-88)" gradientUnits="userSpaceOnUse" xlink:href="#linearGradient2949"/><linearGradient id="linearGradient3990" x1="48.904" x2="48.904" y1="46.02" y2="41.967" gradientTransform="translate(16,-88)" gradientUnits="userSpaceOnUse" xlink:href="#linearGradient2949"/><linearGradient id="linearGradient4016" x1="48.904" x2="48.904" y1="46.02" y2="41.967" gradientTransform="translate(0,-94)" gradientUnits="userSpaceOnUse" xlink:href="#linearGradient2949"/><linearGradient id="linearGradient4018" x1="48.904" x2="48.904" y1="46.02" y2="41.967" gradientTransform="translate(8,-94)" gradientUnits="userSpaceOnUse" xlink:href="#linearGradient2949"/><linearGradient id="linearGradient4020" x1="48.904" x2="48.904" y1="46.02" y2="41.967" gradientTransform="translate(16,-94)" gradientUnits="userSpaceOnUse" xlink:href="#linearGradient2949"/><linearGradient id="linearGradient4046" x1="48.904" x2="48.904" y1="46.02" y2="41.967" gradientTransform="translate(0,-100)" gradientUnits="userSpaceOnUse" xlink:href="#linearGradient2949"/><linearGradient id="linearGradient4048" x1="48.904" x2="48.904" y1="46.02" y2="41.967" gradientTransform="translate(8,-100)" gradientUnits="userSpaceOnUse" xlink:href="#linearGradient2949"/><linearGradient id="linearGradient4051" x1="48.904" x2="48.904" y1="46.02" y2="41.967" gradientTransform="translate(16,-100)" gradientUnits="userSpaceOnUse" xlink:href="#linearGradient2949"/><linearGradient id="linearGradient4077" x1="48.904" x2="48.904" y1="46.02" y2="41.967" gradientTransform="translate(0,-106)" gradientUnits="userSpaceOnUse" xlink:href="#linearGradient2949"/><linearGradient id="linearGradient4079" x1="48.904" x2="48.904" y1="46.02" y2="41.967" gradientTransform="translate(8,-106)" gradientUnits="userSpaceOnUse" xlink:href="#linearGradient2949"/><linearGradient id="linearGradient4081" x1="48.904" x2="48.904" y1="46.02" y2="41.967" gradientTransform="translate(16,-106)" gradientUnits="userSpaceOnUse" xlink:href="#linearGradient2949"/><linearGradient id="linearGradient3820" x1="24.117" x2="36.618" y1="38.358" y2="38.358" gradientUnits="userSpaceOnUse" xlink:href="#linearGradient4120"/><linearGradient id="linearGradient3841" x1="27" x2="35" y1="52.359" y2="52" gradientTransform="translate(1,0)" gradientUnits="userSpaceOnUse" xlink:href="#linearGradient3677"/><linearGradient id="linearGradient3849" x1="27" x2="33" y1="52" y2="52" gradientTransform="translate(1,0)" gradientUnits="userSpaceOnUse" xlink:href="#linearGradient4120"/><linearGradient id="linearGradient3861" x1="28.805" x2="36.618" y1="36.796" y2="38.358" gradientUnits="userSpaceOnUse" xlink:href="#linearGradient3824"/><linearGradient id="linearGradient3891" x1="28.805" x2="36.618" y1="36.796" y2="38.358" gradientUnits="userSpaceOnUse" xlink:href="#linearGradient3824"/><filter id="filter3901" width="1.6" height="1.15" x="-.3" y="-.075"><feGaussianBlur id="feGaussianBlur3903" stdDeviation=".75"/></filter><radialGradient id="radialGradient3916" cx="53" cy="47" r="3" fx="53" fy="47" gradientUnits="userSpaceOnUse" xlink:href="#linearGradient3677"/><radialGradient id="radialGradient3920" cx="53" cy="47" r="3" fx="53" fy="47" gradientTransform="translate(8,0)" gradientUnits="userSpaceOnUse" xlink:href="#linearGradient3677"/><radialGradient id="radialGradient3926" cx="53" cy="47" r="3" fx="53" fy="47" gradientTransform="translate(0,6)" gradientUnits="userSpaceOnUse" xlink:href="#linearGradient3677"/><radialGradient id="radialGradient3928" cx="53" cy="47" r="3" fx="53" fy="47" gradientTransform="translate(8,6)" gradientUnits="userSpaceOnUse" xlink:href="#linearGradient3677"/><radialGradient id="radialGradient3934" cx="53" cy="47" r="3" fx="53" fy="47" gradientTransform="translate(0,12)" gradientUnits="userSpaceOnUse" xlink:href="#linearGradient3677"/><radialGradient id="radialGradient3936" cx="53" cy="47" r="3" fx="53" fy="47" gradientTransform="translate(8,12)" gradientUnits="userSpaceOnUse" xlink:href="#linearGradient3677"/><linearGradient id="linearGradient3026" x1="32.251" x2="32.251" y1="6.132" y2="90.239" gradientTransform="matrix(1.0238095,0,0,1.0119048,-1.1428571,-98.071429)" gradientUnits="userSpaceOnUse" xlink:href="#ButtonShadow-0"/><linearGradient id="ButtonShadow-0" x1="45.448" x2="45.448" y1="92.54" y2="7.017" gradientTransform="matrix(1.0058652,0,0,0.994169,100,0)" gradientUnits="userSpaceOnUse"><stop id="stop3750-8" offset="0" stop-color="#000" stop-opacity="1"/><stop id="stop3752-5" offset="1" stop-color="#000" stop-opacity=".588"/></linearGradient><linearGradient id="linearGradient3780" x1="32.251" x2="32.251" y1="6.132" y2="90.239" gradientTransform="matrix(1.0238095,0,0,1.0119048,-1.1428571,-98.071429)" gradientUnits="userSpaceOnUse" xlink:href="#ButtonShadow-0"/><linearGradient id="linearGradient2886" x1="45.448" x2="45.448" y1="92.54" y2="7.017" gradientTransform="matrix(1.0058652,0,0,0.994169,100,0)" gradientUnits="userSpaceOnUse"><stop id="stop2888" offset="0" stop-color="#000" stop-opacity="1"/><stop id="stop2890" offset="1" stop-color="#000" stop-opacity=".588"/></linearGradient><linearGradient id="linearGradient3772" x1="32.251" x2="32.251" y1="6.132" y2="90.239" gradientTransform="matrix(1.0238095,0,0,1.0119048,-1.1428571,-98.071429)" gradientUnits="userSpaceOnUse" xlink:href="#ButtonShadow-0"/><linearGradient id="linearGradient2893" x1="45.448" x2="45.448" y1="92.54" y2="7.017" gradientTransform="matrix(1.0058652,0,0,0.994169,100,0)" gradientUnits="userSpaceOnUse"><stop id="stop2895" offset="0" stop-color="#000" stop-opacity="1"/><stop id="stop2897" offset="1" stop-color="#000" stop-opacity=".588"/></linearGradient><linearGradient id="linearGradient3725" x1="32.251" x2="32.251" y1="6.132" y2="90.239" gradientTransform="matrix(1.0238095,0,0,1.0119048,-1.1428571,-98.071429)" gradientUnits="userSpaceOnUse" xlink:href="#ButtonShadow-0"/><linearGradient id="linearGradient2900" x1="45.448" x2="45.448" y1="92.54" y2="7.017" gradientTransform="matrix(1.0058652,0,0,0.994169,100,0)" gradientUnits="userSpaceOnUse"><stop id="stop2902" offset="0" stop-color="#000" stop-opacity="1"/><stop id="stop2904" offset="1" stop-color="#000" stop-opacity=".588"/></linearGradient><linearGradient id="linearGradient3721" x1="32.251" x2="32.251" y1="6.132" y2="90.239" gradientTransform="translate(0,-97)" gradientUnits="userSpaceOnUse" xlink:href="#ButtonShadow-0"/><linearGradient id="linearGradient2907" x1="45.448" x2="45.448" y1="92.54" y2="7.017" gradientTransform="matrix(1.0058652,0,0,0.994169,100,0)" gradientUnits="userSpaceOnUse"><stop id="stop2909" offset="0" stop-color="#000" stop-opacity="1"/><stop id="stop2911" offset="1" stop-color="#000" stop-opacity=".588"/></linearGradient><linearGradient id="linearGradient2918" x1="32.251" x2="32.251" y1="6.132" y2="90.239" gradientTransform="matrix(1.0238095,0,0,1.0119048,-1.1428571,-98.071429)" gradientUnits="userSpaceOnUse" xlink:href="#ButtonShadow-0"/></defs><metadata id="metadata2413"/><g id="layer2" display="none"><rect id="rect3745" width="86" height="85" x="5" y="7" fill="url(#ButtonShadow)" fill-opacity="1" fill-rule="nonzero" stroke="none" filter="url(#filter3174)" opacity=".9" rx="6" ry="6"/></g><g id="layer6" display="inline"><path id="path3786" fill="url(#linearGradient2918)" fill-opacity="1" fill-rule="nonzero" stroke="none" d="m 12,-95.03125 c -5.5110903,0 -10.03125,4.52016 -10.03125,10.03125 l 0,71 c 0,5.5110902 4.5201598,10.03125 10.03125,10.03125 l 72,0 c 5.51109,0 10.03125,-4.5201597 10.03125,-10.03125 l 0,-71 c 0,-5.51109 -4.52016,-10.03125 -10.03125,-10.03125 l -72,0 z" display="inline" opacity=".08" transform="scale(1,-1)"/><path id="path3778" fill="url(#linearGradient3780)" fill-opacity="1" fill-rule="nonzero" stroke="none" d="m 12,-94.03125 c -4.971633,0 -9.03125,4.059617 -9.03125,9.03125 l 0,71 c 0,4.9716329 4.0596171,9.03125 9.03125,9.03125 l 72,0 c 4.971633,0 9.03125,-4.059617 9.03125,-9.03125 l 0,-71 c 0,-4.971633 -4.059617,-9.03125 -9.03125,-9.03125 l -72,0 z" display="inline" opacity=".1" transform="scale(1,-1)"/><path id="path3770" fill="url(#linearGradient3772)" fill-opacity="1" fill-rule="nonzero" stroke="none" d="m 12,-93 c -4.4091333,0 -8,3.590867 -8,8 l 0,71 c 0,4.4091333 3.5908667,8 8,8 l 72,0 c 4.409133,0 8,-3.5908667 8,-8 l 0,-71 c 0,-4.409133 -3.590867,-8 -8,-8 l -72,0 z" display="inline" opacity=".2" transform="scale(1,-1)"/><rect id="rect3723" width="86" height="85" x="5" y="-92" fill="url(#linearGradient3725)" fill-opacity="1" fill-rule="nonzero" stroke="none" display="inline" opacity=".3" rx="7" ry="7" transform="scale(1,-1)"/><rect id="rect3716" width="84" height="84" x="6" y="-91" fill="url(#linearGradient3721)" fill-opacity="1" fill-rule="nonzero" stroke="none" display="inline" opacity=".45" rx="6" ry="6" transform="scale(1,-1)"/></g><g id="layer1" display="inline"><rect id="rect2419" width="84" height="84" x="6" y="6" fill="url(#linearGradient3617)" fill-opacity="1" fill-rule="nonzero" stroke="none" rx="6" ry="6"/><path id="rect3728" fill="url(#linearGradient3188)" fill-opacity="1" fill-rule="nonzero" stroke="none" d="M 12,6 C 8.676,6 6,8.676 6,12 l 0,2 0,68 0,2 c 0,0.334721 0.04135,0.6507 0.09375,0.96875 0.0487,0.295596 0.09704,0.596915 0.1875,0.875 0.00988,0.03038 0.020892,0.0636 0.03125,0.09375 0.098865,0.287771 0.2348802,0.547452 0.375,0.8125 0.1445918,0.273507 0.3156161,0.535615 0.5,0.78125 0.1843839,0.245635 0.3737765,0.473472 0.59375,0.6875 0.439947,0.428056 0.94291,0.814526 1.5,1.09375 0.278545,0.139612 0.5734731,0.246947 0.875,0.34375 -0.2562018,-0.100222 -0.4867109,-0.236272 -0.71875,-0.375 -0.00741,-0.0044 -0.023866,0.0045 -0.03125,0 -0.031933,-0.0193 -0.062293,-0.04251 -0.09375,-0.0625 -0.120395,-0.0767 -0.2310226,-0.163513 -0.34375,-0.25 -0.1061728,-0.0808 -0.2132809,-0.161112 -0.3125,-0.25 C 8.4783201,88.557317 8.3087904,88.373362 8.15625,88.1875 8.0486711,88.057245 7.9378561,87.922215 7.84375,87.78125 7.818661,87.74287 7.805304,87.69538 7.78125,87.65625 7.716487,87.553218 7.6510225,87.451733 7.59375,87.34375 7.4927417,87.149044 7.3880752,86.928049 7.3125,86.71875 7.30454,86.69694 7.288911,86.6782 7.28125,86.65625 7.2494249,86.5643 7.2454455,86.469419 7.21875,86.375 7.1884177,86.268382 7.1483606,86.171969 7.125,86.0625 7.0521214,85.720988 7,85.364295 7,85 L 7,83 7,15 7,13 C 7,10.218152 9.2181517,8 12,8 l 2,0 68,0 2,0 c 2.781848,0 5,2.218152 5,5 l 0,2 0,68 0,2 c 0,0.364295 -0.05212,0.720988 -0.125,1.0625 -0.04415,0.206893 -0.08838,0.397658 -0.15625,0.59375 -0.0077,0.02195 -0.0233,0.04069 -0.03125,0.0625 -0.06274,0.173739 -0.138383,0.367449 -0.21875,0.53125 -0.04158,0.0828 -0.07904,0.169954 -0.125,0.25 -0.0546,0.09721 -0.126774,0.18835 -0.1875,0.28125 -0.09411,0.140965 -0.204921,0.275995 -0.3125,0.40625 -0.143174,0.17445 -0.303141,0.346998 -0.46875,0.5 -0.01117,0.0102 -0.01998,0.02115 -0.03125,0.03125 -0.138386,0.125556 -0.285091,0.234436 -0.4375,0.34375 -0.102571,0.07315 -0.204318,0.153364 -0.3125,0.21875 -0.0074,0.0045 -0.02384,-0.0044 -0.03125,0 -0.232039,0.138728 -0.462548,0.274778 -0.71875,0.375 0.301527,-0.0968 0.596455,-0.204138 0.875,-0.34375 0.55709,-0.279224 1.060053,-0.665694 1.5,-1.09375 0.219973,-0.214028 0.409366,-0.441865 0.59375,-0.6875 0.184384,-0.245635 0.355408,-0.507743 0.5,-0.78125 0.14012,-0.265048 0.276135,-0.524729 0.375,-0.8125 0.01041,-0.03078 0.02133,-0.06274 0.03125,-0.09375 0.09046,-0.278085 0.1388,-0.579404 0.1875,-0.875 C 89.95865,84.6507 90,84.334721 90,84 l 0,-2 0,-68 0,-2 C 90,8.676 87.324,6 84,6 L 12,6 z" opacity=".5"/><path id="path3615" fill="url(#radialGradient3619)" fill-opacity="1" fill-rule="nonzero" stroke="none" d="M 12,90 C 8.676,90 6,87.324 6,84 L 6,82 6,14 6,12 c 0,-0.334721 0.04135,-0.6507 0.09375,-0.96875 0.0487,-0.295596 0.09704,-0.596915 0.1875,-0.875 C 6.29113,10.12587 6.302142,10.09265 6.3125,10.0625 6.411365,9.774729 6.5473802,9.515048 6.6875,9.25 6.8320918,8.976493 7.0031161,8.714385 7.1875,8.46875 7.3718839,8.223115 7.5612765,7.995278 7.78125,7.78125 8.221197,7.353194 8.72416,6.966724 9.28125,6.6875 9.559795,6.547888 9.8547231,6.440553 10.15625,6.34375 9.9000482,6.443972 9.6695391,6.580022 9.4375,6.71875 c -0.00741,0.0044 -0.023866,-0.0045 -0.03125,0 -0.031933,0.0193 -0.062293,0.04251 -0.09375,0.0625 -0.120395,0.0767 -0.2310226,0.163513 -0.34375,0.25 -0.1061728,0.0808 -0.2132809,0.161112 -0.3125,0.25 C 8.4783201,7.442683 8.3087904,7.626638 8.15625,7.8125 8.0486711,7.942755 7.9378561,8.077785 7.84375,8.21875 7.818661,8.25713 7.805304,8.30462 7.78125,8.34375 7.716487,8.446782 7.6510225,8.548267 7.59375,8.65625 7.4927417,8.850956 7.3880752,9.071951 7.3125,9.28125 7.30454,9.30306 7.288911,9.3218 7.28125,9.34375 7.2494249,9.4357 7.2454455,9.530581 7.21875,9.625 7.1884177,9.731618 7.1483606,9.828031 7.125,9.9375 7.0521214,10.279012 7,10.635705 7,11 l 0,2 0,68 0,2 c 0,2.781848 2.2181517,5 5,5 l 2,0 68,0 2,0 c 2.781848,0 5,-2.218152 5,-5 l 0,-2 0,-68 0,-2 C 89,10.635705 88.94788,10.279012 88.875,9.9375 88.83085,9.730607 88.78662,9.539842 88.71875,9.34375 88.71105,9.3218 88.69545,9.30306 88.6875,9.28125 88.62476,9.107511 88.549117,8.913801 88.46875,8.75 88.42717,8.6672 88.38971,8.580046 88.34375,8.5 88.28915,8.40279 88.216976,8.31165 88.15625,8.21875 88.06214,8.077785 87.951329,7.942755 87.84375,7.8125 87.700576,7.63805 87.540609,7.465502 87.375,7.3125 87.36383,7.3023 87.35502,7.29135 87.34375,7.28125 87.205364,7.155694 87.058659,7.046814 86.90625,6.9375 86.803679,6.86435 86.701932,6.784136 86.59375,6.71875 c -0.0074,-0.0045 -0.02384,0.0044 -0.03125,0 -0.232039,-0.138728 -0.462548,-0.274778 -0.71875,-0.375 0.301527,0.0968 0.596455,0.204138 0.875,0.34375 0.55709,0.279224 1.060053,0.665694 1.5,1.09375 0.219973,0.214028 0.409366,0.441865 0.59375,0.6875 0.184384,0.245635 0.355408,0.507743 0.5,0.78125 0.14012,0.265048 0.276135,0.524729 0.375,0.8125 0.01041,0.03078 0.02133,0.06274 0.03125,0.09375 0.09046,0.278085 0.1388,0.579404 0.1875,0.875 C 89.95865,11.3493 90,11.665279 90,12 l 0,2 0,68 0,2 c 0,3.324 -2.676,6 -6,6 l -72,0 z" opacity=".25"/></g><g id="layer4" display="inline"><path id="path3940" fill="url(#linearGradient3942)" fill-opacity="1" fill-rule="nonzero" stroke="none" d="m -79,13 c -2.204152,0 -4,1.795848 -4,4 l 0,62 c 0,2.204152 1.795848,4 4,4 l 60,0 c 2.204152,0 4,-1.795848 4,-4 l 0,-62 c 0,-2.204152 -1.795848,-4 -4,-4 l -60,0 z" opacity=".1" transform="matrix(0,-1,1,0,0,0)"/><rect id="rect3740" width="66" height="68" x="-82" y="14" fill="url(#linearGradient3748)" fill-opacity="1" fill-rule="nonzero" stroke="none" opacity=".2" rx="3" ry="3" transform="matrix(0,-1,1,0,0,0)"/><rect id="rect3736" width="66" height="66" x="-81" y="15" fill="#000" fill-opacity="1" fill-rule="nonzero" stroke="none" opacity=".4" rx="2" ry="2" transform="matrix(0,-1,1,0,0,0)"/><rect id="rect3620" width="64" height="64" x="-80" y="16" fill="url(#linearGradient3628)" fill-opacity="1" fill-rule="nonzero" stroke="none" transform="matrix(0,-1,1,0,0,0)"/><rect id="rect3771" width="6" height="14" x="77" y="23" fill="#000" fill-opacity="1" stroke="none" opacity=".4" rx="2" ry="2"/><path id="rect3750" fill="url(#linearGradient3761)" fill-opacity="1" fill-rule="nonzero" stroke="none" d="m 16,16 0,64 64,0 0,-64 -64,0 z m 2,2 60,0 0,60 -60,0 0,-60 z" opacity=".5"/><rect id="rect3789" width="4" height="12" x="78" y="24" fill="url(#linearGradient3867)" fill-opacity="1" stroke="none" rx="1" ry="1"/><rect id="rect3775" width="6" height="14" x="77" y="59" fill="#000" fill-opacity="1" stroke="none" opacity=".4" rx="2" ry="2"/><rect id="rect3777" width="4" height="12" x="78" y="60" fill="url(#linearGradient3779)" fill-opacity="1" stroke="none" rx="1" ry="1"/><rect id="rect3912" width="4" height="1" x="78" y="30" fill="#000" fill-opacity="1" stroke="none" opacity=".2"/><rect id="rect3914" width="4" height="1" x="78" y="66" fill="#000" fill-opacity="1" stroke="none" opacity=".2"/><path id="rect3916" fill="#fff" fill-opacity="1" stroke="none" d="m 79,24 c -0.554,0 -1,0.446 -1,1 l 0,1 c 0,-0.554 0.446,-1 1,-1 l 2,0 c 0.554,0 1,0.446 1,1 l 0,-1 c 0,-0.554 -0.446,-1 -1,-1 l -2,0 z"/><path id="path3926" fill="#fff" fill-opacity="1" stroke="none" d="m 79,60 c -0.554,0 -1,0.446 -1,1 l 0,1 c 0,-0.554 0.446,-1 1,-1 l 2,0 c 0.554,0 1,0.446 1,1 l 0,-1 c 0,-0.554 -0.446,-1 -1,-1 l -2,0 z"/></g><g id="layer5" display="inline"><rect id="rect3171" width="66" height="66" x="15" y="15" fill="url(#linearGradient3613)" fill-opacity="1" fill-rule="nonzero" stroke="#fff" stroke-dasharray="none" stroke-dashoffset="0" stroke-linecap="round" stroke-linejoin="miter" stroke-miterlimit="4" stroke-opacity="1" stroke-width=".5" clip-path="url(#clipPath3613)" filter="url(#filter3794)" opacity=".1" rx="12" ry="12"/></g><g id="layer3" display="inline"><rect id="rect3893" width="6" height="24" x="32" y="42" fill="#000" fill-opacity="1" stroke="none" filter="url(#filter3901)" opacity=".1" rx="1" ry="1"/><path id="path3865" fill="#000" fill-opacity="1" stroke="none" d="m 36.618029,38.35817 a 6.250319,6.250319 0 1 1 -12.500638,0 6.250319,6.250319 0 1 1 12.500638,0 z" opacity=".15" transform="matrix(0,1.1199429,1.1199429,0,-11.958959,3.9898994)"/><path id="path3871" fill="#000" fill-opacity="1" stroke="none" d="m 36.618029,38.35817 a 6.250319,6.250319 0 1 1 -12.500638,0 6.250319,6.250319 0 1 1 12.500638,0 z" opacity=".4" transform="matrix(0,0.959951,0.959951,0,-5.8219633,9.8484866)"/><rect id="rect3818" width="24" height="10" x="45" y="29" fill="url(#linearGradient3822)" fill-opacity="1" stroke="none" display="inline" rx="2" ry="2"/><rect id="rect3718" width="21" height="7" x="46.5" y="30.5" fill="url(#radialGradient3816)" fill-opacity="1" stroke="url(#linearGradient3837)" stroke-dasharray="none" stroke-miterlimit="4" stroke-opacity="1" stroke-width="1" display="inline" rx="1" ry="1"/><rect id="rect3760" width="6" height="4" x="46" y="-46" fill="url(#linearGradient3860)" fill-opacity="1" stroke="none" rx=".5" ry=".5" transform="scale(1,-1)"/><text id="text3812" x="48.369" y="34.947" fill="#000" fill-opacity="1" stroke="none" font-family="Lilliput Steps" font-size="1.944" font-stretch="normal" font-style="normal" font-variant="normal" font-weight="normal" opacity=".4" text-anchor="start" writing-mode="lr-tb" xml:space="preserve" style="text-align:start;line-height:125%;-inkscape-font-specification:Lilliput Steps"><tspan id="tspan3814" x="48.369" y="34.947">ENTER CODE</tspan></text><path id="rect3950" fill="#000" fill-opacity="1" stroke="none" d="M 46 45.5 L 46 46.5 C 46 46.777 46.223 47 46.5 47 L 51.5 47 C 51.777 47 52 46.777 52 46.5 L 52 45.5 C 52 45.777 51.777 46 51.5 46 L 46.5 46 C 46.223 46 46 45.777 46 45.5 z" opacity=".2"/><text id="text3968" x="49.002" y="45.186" fill="#fff" fill-opacity="1" stroke="none" font-family="Liberation Sans" font-size="3.444" font-stretch="normal" font-style="normal" font-variant="normal" font-weight="normal" text-anchor="middle" writing-mode="lr-tb" xml:space="preserve" style="text-align:center;line-height:125%;-inkscape-font-specification:Liberation Sans"><tspan id="tspan3970" x="49.002" y="45.186">7</tspan></text><rect id="rect3972" width="6" height="4" x="54" y="-46" fill="url(#linearGradient3980)" fill-opacity="1" stroke="none" rx=".5" ry=".5" transform="scale(1,-1)"/><path id="path3974" fill="#000" fill-opacity="1" stroke="none" d="m 54,45.5 0,1 c 0,0.277 0.223,0.5 0.5,0.5 l 5,0 c 0.277,0 0.5,-0.223 0.5,-0.5 l 0,-1 c 0,0.277 -0.223,0.5 -0.5,0.5 l -5,0 C 54.223,46 54,45.777 54,45.5 z" opacity=".2"/><text font-stretch="normal" style="text-align:center;line-height:125%;-inkscape-font-specification:Liberation Sans" id="text3976" x="57.002" y="45.186" fill="#fff" fill-opacity="1" stroke="none" font-family="Liberation Sans" font-size="3.444" font-style="normal" font-variant="normal" font-weight="normal" text-anchor="middle" writing-mode="lr-tb" xml:space="preserve"><tspan id="tspan3978" x="57.002" y="45.186">8</tspan></text><rect id="rect3982" width="6" height="4" x="62" y="-46" fill="url(#linearGradient3990)" fill-opacity="1" stroke="none" rx=".5" ry=".5" transform="scale(1,-1)"/><path id="path3984" fill="#000" fill-opacity="1" stroke="none" d="m 62,45.5 0,1 c 0,0.277 0.223,0.5 0.5,0.5 l 5,0 c 0.277,0 0.5,-0.223 0.5,-0.5 l 0,-1 c 0,0.277 -0.223,0.5 -0.5,0.5 l -5,0 C 62.223,46 62,45.777 62,45.5 z" opacity=".2"/><text id="text3986" x="65.002" y="45.186" fill="#fff" fill-opacity="1" stroke="none" font-family="Liberation Sans" font-size="3.444" font-stretch="normal" font-style="normal" font-variant="normal" font-weight="normal" text-anchor="middle" writing-mode="lr-tb" xml:space="preserve" style="text-align:center;line-height:125%;-inkscape-font-specification:Liberation Sans"><tspan id="tspan3988" x="65.002" y="45.186">9</tspan></text><rect id="rect3992" width="6" height="4" x="46" y="-52" fill="url(#linearGradient4016)" fill-opacity="1" stroke="none" rx=".5" ry=".5" transform="scale(1,-1)"/><path id="path3994" fill="#000" fill-opacity="1" stroke="none" d="m 46,51.5 0,1 c 0,0.277 0.223,0.5 0.5,0.5 l 5,0 c 0.277,0 0.5,-0.223 0.5,-0.5 l 0,-1 c 0,0.277 -0.223,0.5 -0.5,0.5 l -5,0 C 46.223,52 46,51.777 46,51.5 z" opacity=".2"/><text font-stretch="normal" style="text-align:center;line-height:125%;-inkscape-font-specification:Liberation Sans" id="text3996" x="49.002" y="51.186" fill="#fff" fill-opacity="1" stroke="none" font-family="Liberation Sans" font-size="3.444" font-style="normal" font-variant="normal" font-weight="normal" text-anchor="middle" writing-mode="lr-tb" xml:space="preserve"><tspan id="tspan3998" x="49.002" y="51.186">4</tspan></text><rect id="rect4000" width="6" height="4" x="54" y="-52" fill="url(#linearGradient4018)" fill-opacity="1" stroke="none" rx=".5" ry=".5" transform="scale(1,-1)"/><path id="path4002" fill="#000" fill-opacity="1" stroke="none" d="m 54,51.5 0,1 c 0,0.277 0.223,0.5 0.5,0.5 l 5,0 c 0.277,0 0.5,-0.223 0.5,-0.5 l 0,-1 c 0,0.277 -0.223,0.5 -0.5,0.5 l -5,0 C 54.223,52 54,51.777 54,51.5 z" opacity=".2"/><text id="text4004" x="57.002" y="51.186" fill="#fff" fill-opacity="1" stroke="none" font-family="Liberation Sans" font-size="3.444" font-stretch="normal" font-style="normal" font-variant="normal" font-weight="normal" text-anchor="middle" writing-mode="lr-tb" xml:space="preserve" style="text-align:center;line-height:125%;-inkscape-font-specification:Liberation Sans"><tspan id="tspan4006" x="57.002" y="51.186">5</tspan></text><rect id="rect4008" width="6" height="4" x="62" y="-52" fill="url(#linearGradient4020)" fill-opacity="1" stroke="none" rx=".5" ry=".5" transform="scale(1,-1)"/><path id="path4010" fill="#000" fill-opacity="1" stroke="none" d="m 62,51.5 0,1 c 0,0.277 0.223,0.5 0.5,0.5 l 5,0 c 0.277,0 0.5,-0.223 0.5,-0.5 l 0,-1 c 0,0.277 -0.223,0.5 -0.5,0.5 l -5,0 C 62.223,52 62,51.777 62,51.5 z" opacity=".2"/><text font-stretch="normal" style="text-align:center;line-height:125%;-inkscape-font-specification:Liberation Sans" id="text4012" x="65.002" y="51.186" fill="#fff" fill-opacity="1" stroke="none" font-family="Liberation Sans" font-size="3.444" font-style="normal" font-variant="normal" font-weight="normal" text-anchor="middle" writing-mode="lr-tb" xml:space="preserve"><tspan id="tspan4014" x="65.002" y="51.186">6</tspan></text><rect id="rect4022" width="6" height="4" x="46" y="-58" fill="url(#linearGradient4046)" fill-opacity="1" stroke="none" rx=".5" ry=".5" transform="scale(1,-1)"/><path id="path4024" fill="#000" fill-opacity="1" stroke="none" d="m 46,57.5 0,1 c 0,0.277 0.223,0.5 0.5,0.5 l 5,0 c 0.277,0 0.5,-0.223 0.5,-0.5 l 0,-1 c 0,0.277 -0.223,0.5 -0.5,0.5 l -5,0 C 46.223,58 46,57.777 46,57.5 z" opacity=".2"/><text id="text4026" x="49.002" y="57.186" fill="#fff" fill-opacity="1" stroke="none" font-family="Liberation Sans" font-size="3.444" font-stretch="normal" font-style="normal" font-variant="normal" font-weight="normal" text-anchor="middle" writing-mode="lr-tb" xml:space="preserve" style="text-align:center;line-height:125%;-inkscape-font-specification:Liberation Sans"><tspan id="tspan4028" x="49.002" y="57.186">1</tspan></text><rect id="rect4030" width="6" height="4" x="54" y="-58" fill="url(#linearGradient4048)" fill-opacity="1" stroke="none" rx=".5" ry=".5" transform="scale(1,-1)"/><path id="path4032" fill="#000" fill-opacity="1" stroke="none" d="m 54,57.5 0,1 c 0,0.277 0.223,0.5 0.5,0.5 l 5,0 c 0.277,0 0.5,-0.223 0.5,-0.5 l 0,-1 c 0,0.277 -0.223,0.5 -0.5,0.5 l -5,0 C 54.223,58 54,57.777 54,57.5 z" opacity=".2"/><text font-stretch="normal" style="text-align:center;line-height:125%;-inkscape-font-specification:Liberation Sans" id="text4034" x="57.002" y="57.186" fill="#fff" fill-opacity="1" stroke="none" font-family="Liberation Sans" font-size="3.444" font-style="normal" font-variant="normal" font-weight="normal" text-anchor="middle" writing-mode="lr-tb" xml:space="preserve"><tspan id="tspan4036" x="57.002" y="57.186">2</tspan></text><rect id="rect4038" width="6" height="4" x="62" y="-58" fill="url(#linearGradient4051)" fill-opacity="1" stroke="none" rx=".5" ry=".5" transform="scale(1,-1)"/><path id="path4040" fill="#000" fill-opacity="1" stroke="none" d="m 62,57.5 0,1 c 0,0.277 0.223,0.5 0.5,0.5 l 5,0 c 0.277,0 0.5,-0.223 0.5,-0.5 l 0,-1 c 0,0.277 -0.223,0.5 -0.5,0.5 l -5,0 C 62.223,58 62,57.777 62,57.5 z" opacity=".2"/><text id="text4042" x="65.002" y="57.186" fill="#fff" fill-opacity="1" stroke="none" font-family="Liberation Sans" font-size="3.444" font-stretch="normal" font-style="normal" font-variant="normal" font-weight="normal" text-anchor="middle" writing-mode="lr-tb" xml:space="preserve" style="text-align:center;line-height:125%;-inkscape-font-specification:Liberation Sans"><tspan id="tspan4044" x="65.002" y="57.186">3</tspan></text><rect id="rect4053" width="6" height="4" x="46" y="-64" fill="url(#linearGradient4077)" fill-opacity="1" stroke="none" rx=".5" ry=".5" transform="scale(1,-1)"/><path id="path4055" fill="#000" fill-opacity="1" stroke="none" d="m 46,63.5 0,1 c 0,0.277 0.223,0.5 0.5,0.5 l 5,0 c 0.277,0 0.5,-0.223 0.5,-0.5 l 0,-1 c 0,0.277 -0.223,0.5 -0.5,0.5 l -5,0 C 46.223,64 46,63.777 46,63.5 z" opacity=".2"/><text font-stretch="normal" style="text-align:center;line-height:125%;-inkscape-font-specification:Liberation Sans" id="text4057" x="49.002" y="63.186" fill="#fff" fill-opacity="1" stroke="none" font-family="Liberation Sans" font-size="3.444" font-style="normal" font-variant="normal" font-weight="normal" text-anchor="middle" writing-mode="lr-tb" xml:space="preserve"><tspan id="tspan4059" x="49.002" y="63.186">*</tspan></text><rect id="rect4061" width="6" height="4" x="54" y="-64" fill="url(#linearGradient4079)" fill-opacity="1" stroke="none" rx=".5" ry=".5" transform="scale(1,-1)"/><path id="path4063" fill="#000" fill-opacity="1" stroke="none" d="m 54,63.5 0,1 c 0,0.277 0.223,0.5 0.5,0.5 l 5,0 c 0.277,0 0.5,-0.223 0.5,-0.5 l 0,-1 c 0,0.277 -0.223,0.5 -0.5,0.5 l -5,0 C 54.223,64 54,63.777 54,63.5 z" opacity=".2"/><text id="text4065" x="57.002" y="63.186" fill="#fff" fill-opacity="1" stroke="none" font-family="Liberation Sans" font-size="3.444" font-stretch="normal" font-style="normal" font-variant="normal" font-weight="normal" text-anchor="middle" writing-mode="lr-tb" xml:space="preserve" style="text-align:center;line-height:125%;-inkscape-font-specification:Liberation Sans"><tspan id="tspan4067" x="57.002" y="63.186">0</tspan></text><rect id="rect4069" width="6" height="4" x="62" y="-64" fill="url(#linearGradient4081)" fill-opacity="1" stroke="none" rx=".5" ry=".5" transform="scale(1,-1)"/><path id="path4071" fill="#000" fill-opacity="1" stroke="none" d="m 62,63.5 0,1 c 0,0.277 0.223,0.5 0.5,0.5 l 5,0 c 0.277,0 0.5,-0.223 0.5,-0.5 l 0,-1 c 0,0.277 -0.223,0.5 -0.5,0.5 l -5,0 C 62.223,64 62,63.777 62,63.5 z" opacity=".2"/><text font-stretch="normal" style="text-align:center;line-height:125%;-inkscape-font-specification:Liberation Sans" id="text4073" x="65.002" y="63.186" fill="#fff" fill-opacity="1" stroke="none" font-family="Liberation Sans" font-size="3.444" font-style="normal" font-variant="normal" font-weight="normal" text-anchor="middle" writing-mode="lr-tb" xml:space="preserve"><tspan id="tspan4075" x="65.002" y="63.186">#</tspan></text><path id="path3806" fill="url(#linearGradient3820)" fill-opacity="1" stroke="none" d="m 36.618029,38.35817 a 6.250319,6.250319 0 1 1 -12.500638,0 6.250319,6.250319 0 1 1 12.500638,0 z" transform="matrix(0,0.959951,0.959951,0,-5.8219633,8.8484866)"/><path id="path3880" fill="#000" fill-opacity="1" stroke="none" d="m 32,34 c -1.876884,0 -3.443707,1.287639 -3.875,3.03125 -0.632368,0.0919 -1.125,0.544818 -1.125,1.125 l 0,25.6875 C 27,64.490083 27.605083,65 28.34375,65 l 1,0 4.3125,0 1,0 C 35.394917,65 36,64.490083 36,63.84375 l 0,-25.6875 c 0,-0.02262 0.0014,-0.0402 0,-0.0625 7.22e-4,-0.03127 0,-0.06231 0,-0.09375 0,-2.209139 -1.790861,-4 -4,-4 z" opacity=".15"/><path id="rect3875" fill="#000" fill-opacity="1" stroke="none" d="m 28.34375,37 c -0.0756,0 -0.146648,0.02077 -0.21875,0.03125 C 28.048651,37.339912 28,37.667745 28,38 c 0,0.03144 -7.22e-4,0.06248 0,0.09375 -0.0014,0.0223 0,0.03988 0,0.0625 l 0,25.6875 C 28,64.490083 28.605083,65 29.34375,65 l 4.3125,0 C 34.394917,65 35,64.490083 35,63.84375 l 0,-25.6875 C 35,37.509917 34.394917,37 33.65625,37 l -5.3125,0 z" opacity=".4"/><rect id="rect3808" width="6" height="24" x="28" y="40" fill="url(#linearGradient3849)" fill-opacity="1" stroke="none" rx="1" ry="1"/><path id="path3811" fill="url(#linearGradient3891)" fill-opacity="1" stroke="none" d="m 36.618029,38.35817 a 6.250319,6.250319 0 1 1 -12.500638,0 6.250319,6.250319 0 1 1 12.500638,0 z" transform="matrix(0.63996732,0,0,0.63996732,11.565658,13.452025)"/><path id="rect3822" fill="url(#linearGradient3841)" fill-opacity="1" stroke="none" d="M 28.0625,40.71875 C 28.033734,40.812267 28,40.896804 28,41 l 0,22 c 0,0.554 0.446,1 1,1 l 4,0 c 0.554,0 1,-0.446 1,-1 L 34,41 C 34,40.896804 33.966266,40.812267 33.9375,40.71875 33.665941,41.012591 33.348369,41.235538 33,41.4375 L 33,62.5 c 0,0.277 -0.223,0.5 -0.5,0.5 l -3,0 C 29.223,63 29,62.777 29,62.5 l 0,-21.0625 c -0.348369,-0.201962 -0.665941,-0.424909 -0.9375,-0.71875 z"/><path id="path3886" fill="#000" fill-opacity="1" stroke="none" d="m 31,34 c -2.209139,0 -4,1.790861 -4,4 0,0.17012 0.04189,0.335468 0.0625,0.5 C 27.309566,36.527954 28.960981,35 31,35 c 2.039019,0 3.690434,1.527954 3.9375,3.5 C 34.958113,38.335468 35,38.17012 35,38 35,35.790861 33.209139,34 31,34 z" opacity=".2"/><path id="rect3905" fill="url(#radialGradient3916)" fill-opacity="1" stroke="none" d="M 52 44 L 52 47 L 50 47 L 50 48 L 52 48 L 52 50 L 54 50 L 54 48 L 56 48 L 56 47 L 54 47 L 54 44 L 52 44 z" opacity=".4"/><path id="path3918" fill="url(#radialGradient3920)" fill-opacity="1" stroke="none" d="m 60,44 0,3 -2,0 0,1 2,0 0,2 2,0 0,-2 2,0 0,-1 -2,0 0,-3 -2,0 z" opacity=".4"/><path id="path3922" fill="url(#radialGradient3926)" fill-opacity="1" stroke="none" d="m 52,50 0,3 -2,0 0,1 2,0 0,2 2,0 0,-2 2,0 0,-1 -2,0 0,-3 -2,0 z" opacity=".4"/><path id="path3924" fill="url(#radialGradient3928)" fill-opacity="1" stroke="none" d="m 60,50 0,3 -2,0 0,1 2,0 0,2 2,0 0,-2 2,0 0,-1 -2,0 0,-3 -2,0 z" opacity=".4"/><path id="path3930" fill="url(#radialGradient3934)" fill-opacity="1" stroke="none" d="m 52,56 0,3 -2,0 0,1 2,0 0,2 2,0 0,-2 2,0 0,-1 -2,0 0,-3 -2,0 z" opacity=".4"/><path id="path3932" fill="url(#radialGradient3936)" fill-opacity="1" stroke="none" d="m 60,56 0,3 -2,0 0,1 2,0 0,2 2,0 0,-2 2,0 0,-1 -2,0 0,-3 -2,0 z" opacity=".4"/></g></svg>