<svg xmlns="http://www.w3.org/2000/svg" xmlns:svg="http://www.w3.org/2000/svg" xmlns:xlink="http://www.w3.org/1999/xlink" id="svg2" width="22" height="22" display="inline" version="1.0"><defs id="defs4"><linearGradient id="linearGradient4018"><stop id="stop4020" offset="0" stop-color="#a05a2c" stop-opacity="1"/><stop id="stop4022" offset="1" stop-color="#794421" stop-opacity="1"/></linearGradient><linearGradient id="linearGradient3294"><stop id="stop3296" offset="0" stop-color="#72401f" stop-opacity="1"/><stop id="stop3298" offset="1" stop-color="#72401f" stop-opacity="0"/></linearGradient><linearGradient id="linearGradient3300" x1="5" x2="11.227" y1="64" y2="64" gradientTransform="translate(-16.272747,-65.321555)" gradientUnits="userSpaceOnUse" xlink:href="#linearGradient3294"/><linearGradient id="linearGradient3250"><stop id="stop3252" offset="0" stop-color="#c4875e" stop-opacity="1"/><stop id="stop3254" offset="1" stop-color="#c4875e" stop-opacity="0"/></linearGradient><linearGradient id="linearGradient3238"><stop id="stop3240" offset="0" stop-color="#784421" stop-opacity="1"/><stop id="stop3242" offset="1" stop-color="#784421" stop-opacity="0"/></linearGradient><linearGradient id="linearGradient3327"><stop id="stop3330" offset="0" stop-color="#000" stop-opacity="1"/><stop id="stop3333" offset="1" stop-color="#000" stop-opacity="0"/></linearGradient><linearGradient id="linearGradient3335" x1="11.375" x2="11.375" y1="22" y2="-9.817" gradientUnits="userSpaceOnUse" xlink:href="#linearGradient3327"/><linearGradient id="linearGradient3181" x1="-3.061" x2="-3.061" y1="27.258" y2="7.254" gradientTransform="translate(11.119372,-6.2581977)" gradientUnits="userSpaceOnUse" xlink:href="#ButtonColor"/><linearGradient id="ButtonShadow" x1="9.355" x2="9.355" y1="21.743" y2=".494" gradientTransform="scale(0.9883037,1.0118347)" gradientUnits="userSpaceOnUse"><stop id="stop3277" offset="0" stop-color="#000" stop-opacity=".706"/><stop id="stop3279" offset="1" stop-color="#000" stop-opacity=".157"/></linearGradient><linearGradient id="linearGradient3232"><stop id="stop3234" offset="0" stop-color="#000" stop-opacity="1"/><stop id="stop3236" offset="1" stop-color="#000" stop-opacity="0"/></linearGradient><linearGradient id="linearGradient3221" x1="11" x2="11" y1="14.806" y2="-6" gradientUnits="userSpaceOnUse" xlink:href="#linearGradient3232"/><linearGradient id="ButtonColor" x1="10.32" x2="10.32" y1="21" y2=".999" gradientUnits="userSpaceOnUse"><stop id="stop3189" offset="0" stop-color="#9a6f32" stop-opacity="1"/><stop id="stop3248" offset=".201" stop-color="#cfa569" stop-opacity="1"/><stop id="stop3191" offset="1" stop-color="#dbbb8e" stop-opacity="1"/></linearGradient><linearGradient id="linearGradient38042" x1="9.355" x2="9.355" y1="21.743" y2=".494" gradientTransform="scale(0.9883037,1.0118347)" gradientUnits="userSpaceOnUse" xlink:href="#ButtonShadow"/><linearGradient id="linearGradient4070" x1="5" x2="21" y1="28" y2="28" gradientTransform="matrix(0.25,0,0,0.5,-0.2499999,-7.9999999)" gradientUnits="userSpaceOnUse" xlink:href="#linearGradient3238"/><linearGradient id="linearGradient4072" x1="5" x2="21" y1="27" y2="27" gradientTransform="matrix(0.25,0,0,0.5,-0.2499999,-10)" gradientUnits="userSpaceOnUse" xlink:href="#linearGradient3250"/><linearGradient id="linearGradient4080" x1="5" x2="21" y1="28" y2="28" gradientTransform="matrix(0.25,0,0,0.5,-0.2499999,-7.9999999)" gradientUnits="userSpaceOnUse" xlink:href="#linearGradient3238"/><linearGradient id="linearGradient4082" x1="5" x2="21" y1="27" y2="27" gradientTransform="matrix(0.25,0,0,0.5,-0.2499999,-10)" gradientUnits="userSpaceOnUse" xlink:href="#linearGradient3250"/><linearGradient id="linearGradient4090" x1="5" x2="21" y1="28" y2="28" gradientTransform="matrix(0.25,0,0,0.5,-0.2499999,-7.9999999)" gradientUnits="userSpaceOnUse" xlink:href="#linearGradient3238"/><linearGradient id="linearGradient4092" x1="5" x2="21" y1="27" y2="27" gradientTransform="matrix(0.25,0,0,0.5,-0.2499999,-10)" gradientUnits="userSpaceOnUse" xlink:href="#linearGradient3250"/><linearGradient id="linearGradient4107" x1="1" x2="2.955" y1="11" y2="11" gradientUnits="userSpaceOnUse" xlink:href="#linearGradient3294"/><linearGradient id="linearGradient3845" x1="11" x2="21" y1="19.5" y2="19.5" gradientUnits="userSpaceOnUse" spreadMethod="reflect" xlink:href="#linearGradient3831"/><linearGradient id="linearGradient3831"><stop id="stop3833" offset="0" stop-color="#fff" stop-opacity="1"/><stop id="stop3821" offset=".75" stop-color="#fff" stop-opacity=".498"/><stop id="stop3835" offset="1" stop-color="#fff" stop-opacity="0"/></linearGradient><linearGradient id="linearGradient3078" x1="10" x2="10" y1="1" y2="16" gradientTransform="translate(1,-1)" gradientUnits="userSpaceOnUse" xlink:href="#linearGradient3823"/><linearGradient id="linearGradient3823"><stop id="stop3825" offset="0" stop-color="#fff" stop-opacity="1"/><stop id="stop3829" offset="1" stop-color="#fff" stop-opacity="0"/></linearGradient><linearGradient id="linearGradient3888" x1="10" x2="10" y1="1" y2="16" gradientUnits="userSpaceOnUse" xlink:href="#linearGradient3823"/><linearGradient id="linearGradient3923" x1="22" x2="3" y1="15" y2="15" gradientTransform="translate(-1,1)" gradientUnits="userSpaceOnUse" xlink:href="#linearGradient3917"/><linearGradient id="linearGradient3917"><stop id="stop3919" offset="0" stop-color="#fff" stop-opacity="1"/><stop id="stop3921" offset="1" stop-color="#fff" stop-opacity="0"/></linearGradient><linearGradient id="linearGradient4111" x1="40" x2="40" y1="88" y2="80" gradientTransform="matrix(0.2519685,0,0,0.24803149,-0.2443406,-1.850271)" gradientUnits="userSpaceOnUse" xlink:href="#linearGradient3890"/><linearGradient id="linearGradient3890"><stop id="stop3892" offset="0" stop-color="#fff" stop-opacity="1"/><stop id="stop3898" offset=".5" stop-color="#eceadb" stop-opacity="1"/><stop id="stop3894" offset="1" stop-color="#d8d3a6" stop-opacity="1"/></linearGradient><linearGradient id="linearGradient3845-9" x1="11" x2="21" y1="19.5" y2="19.5" gradientTransform="translate(1,-1)" gradientUnits="userSpaceOnUse" spreadMethod="reflect" xlink:href="#linearGradient3831-4"/><linearGradient id="linearGradient3831-4"><stop id="stop3833-9" offset="0" stop-color="#fff" stop-opacity="1"/><stop id="stop3821-0" offset=".75" stop-color="#fff" stop-opacity=".498"/><stop id="stop3835-9" offset="1" stop-color="#fff" stop-opacity="0"/></linearGradient><linearGradient id="linearGradient3201" x1="11" x2="21" y1="19.5" y2="19.5" gradientUnits="userSpaceOnUse" spreadMethod="reflect" xlink:href="#linearGradient3831-4"/><linearGradient id="linearGradient4024" x1="4" x2="4" y1="17" y2="21" gradientUnits="userSpaceOnUse" xlink:href="#linearGradient4018"/><linearGradient id="linearGradient4060" x1="-9" x2="-3" y1="14.25" y2="14.25" gradientUnits="userSpaceOnUse" xlink:href="#linearGradient3250"/><linearGradient id="linearGradient4064" x1="-9" x2="-3" y1="14.25" y2="14.25" gradientTransform="translate(0,1)" gradientUnits="userSpaceOnUse" xlink:href="#linearGradient3294"/><linearGradient id="linearGradient4071" x1="-9" x2="-3" y1="14.25" y2="14.25" gradientUnits="userSpaceOnUse" xlink:href="#linearGradient3250"/><linearGradient id="linearGradient4073" x1="-9" x2="-3" y1="14.25" y2="14.25" gradientTransform="translate(0,1)" gradientUnits="userSpaceOnUse" xlink:href="#linearGradient3294"/><linearGradient id="linearGradient4081" x1="-9" x2="-3" y1="14.25" y2="14.25" gradientUnits="userSpaceOnUse" xlink:href="#linearGradient3250"/><linearGradient id="linearGradient4083" x1="-9" x2="-3" y1="14.25" y2="14.25" gradientTransform="translate(0,1)" gradientUnits="userSpaceOnUse" xlink:href="#linearGradient3294"/><linearGradient id="linearGradient4091" x1="-9" x2="-3" y1="14.25" y2="14.25" gradientUnits="userSpaceOnUse" xlink:href="#linearGradient3250"/><linearGradient id="linearGradient4093" x1="-9" x2="-3" y1="14.25" y2="14.25" gradientTransform="translate(0,1)" gradientUnits="userSpaceOnUse" xlink:href="#linearGradient3294"/></defs><metadata id="metadata7"/><g id="layer1"><g id="g3337" display="inline"><rect id="rect3371" width="21" height="21.5" x=".5" y=".5" fill="url(#linearGradient3335)" fill-opacity="1" stroke="none" stroke-dasharray="none" stroke-linecap="round" stroke-linejoin="miter" stroke-miterlimit="4" stroke-opacity="1" stroke-width="1" display="inline" opacity=".3" rx="2.5" ry="2.5"/><rect id="rect2553" width="20" height="20" x="1" y="2" fill="#000" fill-opacity="1" stroke="none" stroke-dasharray="none" stroke-linecap="round" stroke-linejoin="miter" stroke-miterlimit="4" stroke-opacity="1" stroke-width="1" display="inline" opacity=".5" rx="2.381" ry="2.326"/></g><rect id="rect3173" width="20" height="20" x="1" y="1" fill="url(#linearGradient3181)" fill-opacity="1" fill-rule="evenodd" stroke="none" stroke-dasharray="none" stroke-dashoffset="0" stroke-linecap="round" stroke-linejoin="miter" stroke-miterlimit="4" stroke-opacity="1" stroke-width=".25" display="inline" opacity="1" rx="2" ry="2"/><path id="rect4005" fill="url(#linearGradient4024)" fill-opacity="1" fill-rule="nonzero" stroke="none" stroke-dasharray="none" stroke-dashoffset="0" stroke-linecap="square" stroke-linejoin="round" stroke-miterlimit="4" stroke-opacity="1" stroke-width="1.5" d="M 3 1 C 1.892 1 1 1.892 1 3 L 1 19 C 1 20.108 1.892 21 3 21 L 5.03125 21 L 5.03125 1 L 3 1 z" opacity="1"/><g id="g4095"><g id="g4067" transform="translate(10,0)"><path id="rect4026" fill="url(#linearGradient4071)" fill-opacity="1" fill-rule="nonzero" stroke="none" stroke-width="2" d="M -7.5,13 C -8.331,13 -9,13.669 -9,14.5 l 0,1 C -9,14.669 -8.331,14 -7.5,14 l 2.5,0 0,-1 -2.5,0 z" color="#000" display="inline" enable-background="accumulate" overflow="visible" visibility="visible" style="marker:none"/><path d="M -7.5,14 C -8.331,14 -9,14.669 -9,15.5 l 0,1 C -9,15.669 -8.331,15 -7.5,15 l 2.5,0 0,-1 -2.5,0 z" style="marker:none" id="path4062" fill="url(#linearGradient4073)" fill-opacity="1" fill-rule="nonzero" stroke="none" stroke-width="2" color="#000" display="inline" enable-background="accumulate" overflow="visible" visibility="visible"/></g><g id="g4075" transform="translate(10,-5)"><path d="M -7.5,13 C -8.331,13 -9,13.669 -9,14.5 l 0,1 C -9,14.669 -8.331,14 -7.5,14 l 2.5,0 0,-1 -2.5,0 z" style="marker:none" id="path4077" fill="url(#linearGradient4081)" fill-opacity="1" fill-rule="nonzero" stroke="none" stroke-width="2" color="#000" display="inline" enable-background="accumulate" overflow="visible" visibility="visible"/><path id="path4079" fill="url(#linearGradient4083)" fill-opacity="1" fill-rule="nonzero" stroke="none" stroke-width="2" d="M -7.5,14 C -8.331,14 -9,14.669 -9,15.5 l 0,1 C -9,15.669 -8.331,15 -7.5,15 l 2.5,0 0,-1 -2.5,0 z" color="#000" display="inline" enable-background="accumulate" overflow="visible" visibility="visible" style="marker:none"/></g><g id="g4085" transform="translate(10,-10)"><path id="path4087" fill="url(#linearGradient4091)" fill-opacity="1" fill-rule="nonzero" stroke="none" stroke-width="2" d="M -7.5,13 C -8.331,13 -9,13.669 -9,14.5 l 0,1 C -9,14.669 -8.331,14 -7.5,14 l 2.5,0 0,-1 -2.5,0 z" color="#000" display="inline" enable-background="accumulate" overflow="visible" visibility="visible" style="marker:none"/><path d="M -7.5,14 C -8.331,14 -9,14.669 -9,15.5 l 0,1 C -9,15.669 -8.331,15 -7.5,15 l 2.5,0 0,-1 -2.5,0 z" style="marker:none" id="path4089" fill="url(#linearGradient4093)" fill-opacity="1" fill-rule="nonzero" stroke="none" stroke-width="2" color="#000" display="inline" enable-background="accumulate" overflow="visible" visibility="visible"/></g></g><path id="text3202" fill="#784421" fill-opacity="1" stroke="none" d="m 10.091352,5.5574145 -0.2546486,0 L 8.4421979,9.092182 C 8.3209365,9.407462 8.2966844,9.449904 8.2057381,9.546913 8.1087296,9.662111 7.9389632,9.734869 7.7752605,9.734869 l -0.024252,0 0,0.284964 1.6067124,0 0,-0.284964 -0.1212611,0 c -0.3274052,0 -0.4911086,-0.115199 -0.4911086,-0.345597 0,-0.072756 0.01819,-0.15764 0.054567,-0.254648 L 9,8.6010737 l 1.606712,0 0.327406,0.8124513 c 0.03638,0.090945 0.0485,0.133388 0.0485,0.163703 0,0.097009 -0.151576,0.157641 -0.37591,0.157641 l -0.254649,0 0,0.284964 1.879552,0 0,-0.284964 -0.08488,0 c -0.303153,0 -0.369847,-0.048506 -0.509298,-0.388037 L 10.091352,5.5574145 m -0.2970903,0.9943425 0.6851263,1.7219108 -1.3581274,0 0.6730011,-1.7219108 m 3.4781163,-1.0004056 -1.042848,0.066694 0,0.2607122 0.212208,0 c 0.224332,0 0.260712,0.042441 0.260712,0.3031532 l 0,2.3585327 c 0,0.8124508 -0.03032,1.2065518 -0.109136,1.5642718 l 0.230397,0 0.297089,-0.472919 c 0.248586,0.327405 0.533551,0.478982 0.909461,0.478982 0.745756,0 1.303559,-0.648749 1.303559,-1.5218302 0,-0.8730808 -0.509299,-1.4854518 -1.236865,-1.4854518 -0.369847,0 -0.594181,0.1273253 -0.824577,0.4729197 l 0,-2.0250643 m 0.715441,1.8613617 c 0.45473,0 0.709378,0.4426044 0.709378,1.2368662 0,0.7639447 -0.248585,1.2004867 -0.691189,1.2004867 -0.478981,0 -0.763946,-0.442605 -0.763946,-1.1883608 0,-0.8063877 0.260713,-1.2489921 0.745757,-1.2489921 M 17.90238,9.128561 c -0.194018,0.43654 -0.400162,0.612371 -0.715441,0.612371 -0.485045,0 -0.788198,-0.442605 -0.788198,-1.1519842 0,-0.7336303 0.29709,-1.2247398 0.745758,-1.2247398 0.18189,0 0.339531,0.084883 0.339531,0.1818925 0,0.018189 -0.01213,0.036378 -0.03638,0.072756 -0.09701,0.1151985 -0.121261,0.1758295 -0.121261,0.2789011 0,0.200082 0.151578,0.3395311 0.363784,0.3395311 0.212207,0 0.369847,-0.1697658 0.369847,-0.4122875 0,-0.4062255 -0.406225,-0.7215056 -0.945837,-0.7215056 -0.788198,0 -1.352065,0.6487492 -1.352065,1.5521463 0,0.8609537 0.515362,1.4551357 1.267181,1.4551357 0.539614,0 0.848829,-0.248586 1.109541,-0.891271 L 17.90238,9.128561" display="inline" font-family="Century Schoolbook L" font-size="36" font-stretch="normal" font-style="normal" font-variant="normal" font-weight="normal" text-anchor="start" writing-mode="lr-tb" style="text-align:start;line-height:100%;-inkscape-font-specification:Century Schoolbook L"/><path id="text3210" fill="#784421" fill-opacity="1" stroke="none" d="m 9.6496443,11.293266 -0.035478,0 -0.03641,0.05695 c -0.060684,-0.04855 -0.101763,-0.06442 -0.169914,-0.06442 -0.073755,0 -0.131638,0.02054 -0.190455,0.06815 -0.092426,0.07469 -0.135372,0.168981 -0.135372,0.295017 0,0.09523 0.028008,0.174583 0.082157,0.235267 0.057882,0.06535 0.143774,0.103629 0.2334001,0.103629 0.078421,0 0.1335039,-0.02427 0.1941879,-0.08496 l 0.034543,0.08402 0.039212,0 0,-0.205392 c 0,-0.05041 0,-0.05135 0.0056,-0.05788 0.0084,-0.0093 0.028008,-0.01307 0.078422,-0.01307 l 0.014004,0 0,-0.04388 -0.296884,0 0,0.04388 0.017738,0 c 0.078422,0 0.084958,0.0047 0.084958,0.05602 0,0.04014 -0.00747,0.07749 -0.018673,0.0999 -0.023339,0.04575 -0.083089,0.07749 -0.143774,0.07749 -0.05975,0 -0.120434,-0.03081 -0.152176,-0.07749 -0.034543,-0.05135 -0.049481,-0.117633 -0.049481,-0.217528 0,-0.208192 0.069087,-0.319291 0.198857,-0.319291 0.10643,0 0.180184,0.07656 0.2184621,0.225931 l 0.040144,0 -0.013069,-0.262341 m 0.3056066,0.245536 -0.1615129,0.01027 0,0.04015 0.03361,0 c 0.034542,0 0.040145,0.0065 0.040145,0.04668 l 0,0.223131 0,0.03734 c 0,0.03735 -0.01027,0.04388 -0.07002,0.04388 l -0.00373,0 0,0.03361 0.2362,0 0,-0.03361 -0.0037,0 c -0.060685,0 -0.070954,-0.0065 -0.070954,-0.04388 l 0,-0.03734 0,-0.09709 c 0,-0.04575 0.00654,-0.08776 0.016805,-0.109231 0.019604,-0.04201 0.061617,-0.07095 0.1017621,-0.07095 0.02427,0 0.05228,0.014 0.06629,0.03268 0.01401,0.01961 0.02054,0.04855 0.02054,0.09336 l 0,0.151243 0,0.03734 c 0,0.03735 -0.01027,0.04388 -0.07095,0.04388 l -0.0037,0 0,0.03361 0.2362,0 0,-0.03361 -0.0037,0 c -0.05975,0 -0.07002,-0.0065 -0.07002,-0.04388 l 0,-0.03734 0,-0.146575 c 0,-0.06722 -0.0028,-0.08403 -0.01961,-0.115767 -0.02334,-0.04481 -0.07095,-0.07189 -0.126036,-0.07189 -0.05975,0 -0.10643,0.02801 -0.1475081,0.08962 l 0,-0.07562 m 0.6192821,-0.014 c -0.113899,0 -0.203525,0.101762 -0.203525,0.232465 0,0.127903 0.08963,0.230599 0.201658,0.230599 0.112032,0 0.201657,-0.102696 0.201657,-0.231532 0,-0.127903 -0.08963,-0.231532 -0.19979,-0.231532 m 0,0.04014 c 0.06535,0 0.101762,0.06815 0.101762,0.191388 0,0.124168 -0.03641,0.191388 -0.103629,0.191388 -0.06722,0 -0.10363,-0.06722 -0.10363,-0.190455 0,-0.126969 0.03548,-0.192321 0.105497,-0.192321 m 0.419186,-0.02614 -0.166182,0.01027 0,0.04015 0.03828,0 c 0.03454,0 0.04015,0.0065 0.04015,0.04668 l 0,0.223131 0,0.03641 c 0,0.03828 -0.01027,0.04481 -0.07002,0.04481 l -0.0037,0 0,0.03361 0.235267,0 0,-0.03361 -0.0037,0 c -0.05975,0 -0.07002,-0.0065 -0.07002,-0.04481 l 0,-0.03641 0,-0.132572 c 0,-0.08309 0.04575,-0.144707 0.10643,-0.144707 0.02427,0 0.05041,0.01307 0.06162,0.03081 0.01307,0.01774 0.01867,0.04481 0.01867,0.08309 l 0,0.16338 0,0.03734 c 0,0.03735 -0.01027,0.04388 -0.07095,0.04388 l -0.0037,0 0,0.03361 0.236201,0 0,-0.03361 -0.0037,0 c -0.05975,0 -0.07002,-0.0065 -0.07002,-0.04388 l 0,-0.03734 0,-0.124169 c 0,-0.09336 0.04201,-0.15311 0.107364,-0.15311 0.03081,0 0.05602,0.01774 0.06815,0.04668 0.0084,0.02054 0.0112,0.04108 0.0112,0.07749 l 0,0.153111 0,0.03734 c 0,0.03735 -0.01027,0.04388 -0.07095,0.04388 l -0.0037,0 0,0.03361 0.2362,0 0,-0.03361 -0.0037,0 c -0.05975,0 -0.07002,-0.0065 -0.07002,-0.04481 l 0,-0.03641 0,-0.171783 c 0,-0.05788 -0.0056,-0.07749 -0.02987,-0.10923 -0.02707,-0.03454 -0.06535,-0.05321 -0.110165,-0.05321 -0.06068,0 -0.105497,0.02894 -0.145642,0.09336 -0.01587,-0.05601 -0.06628,-0.09336 -0.128837,-0.09336 -0.05602,0 -0.09803,0.02707 -0.134437,0.08589 l 0,-0.07189 m 1.076132,0.224998 c 9.34e-4,-0.14004 -0.07842,-0.239001 -0.192321,-0.239001 -0.119501,0 -0.209127,0.103629 -0.209127,0.243668 0,0.130704 0.08496,0.219396 0.210994,0.219396 0.08869,0 0.152177,-0.04388 0.190454,-0.132572 l -0.03268,-0.01774 c -0.03828,0.07189 -0.07749,0.0999 -0.14004,0.0999 -0.04761,0 -0.08216,-0.02054 -0.10643,-0.06162 -0.01681,-0.02801 -0.02427,-0.06068 -0.02334,-0.112031 l 0.302486,0 m -0.301552,-0.04014 c 0,-0.02894 0.0037,-0.04948 0.01307,-0.07562 0.01961,-0.05602 0.04948,-0.08309 0.09429,-0.08309 0.05695,0 0.09429,0.04948 0.09429,0.124168 0,0.02707 -0.0084,0.03454 -0.03828,0.03454 l -0.16338,0 m 0.721059,0.135372 0,0.02707 c 0,0.03921 -0.0084,0.04388 -0.08309,0.04388 l -0.01774,0 0,0.04388 0.313689,0 c 0.08309,0 0.146575,-0.01307 0.196056,-0.04108 0.09429,-0.05321 0.146576,-0.159645 0.146576,-0.299685 0,-0.127903 -0.04668,-0.229665 -0.132572,-0.285682 -0.05135,-0.03267 -0.120434,-0.04761 -0.226864,-0.04761 l -0.296885,0 0,0.04388 0.01774,0 c 0.07469,0 0.08309,0.0047 0.08309,0.04388 l 0,0.02707 0,0.444393 m 0.157779,0.07095 c -0.04668,0 -0.05322,-0.0056 -0.05322,-0.05135 l 0,-0.48267 c 0,-0.04575 0.0065,-0.05228 0.05322,-0.05228 l 0.04855,0 c 0.159644,0 0.22593,0.08682 0.22593,0.29315 0,0.209126 -0.06068,0.29315 -0.210993,0.29315 l -0.06348,0 m 0.632366,-0.391178 -0.175516,0.01027 0,0.04015 0.04761,0 c 0.03454,0 0.04014,0.0065 0.04014,0.04668 l 0,0.223131 0,0.03734 c 0,0.03735 -0.01027,0.04388 -0.07002,0.04388 l -0.0065,0 0,0.03361 0.241802,0 0,-0.03361 -0.0065,0 c -0.06069,0 -0.07095,-0.0065 -0.07095,-0.04388 l 0,-0.03734 0,-0.320225 m -0.04388,-0.232466 c -0.02987,0 -0.05415,0.02427 -0.05415,0.05415 0,0.02894 0.02427,0.05415 0.05321,0.05415 0.03081,0 0.05508,-0.02427 0.05508,-0.05415 0,-0.02988 -0.02427,-0.05415 -0.05415,-0.05415 m 0.506434,0.530284 c -0.02988,0.06722 -0.06162,0.09429 -0.110165,0.09429 -0.07469,0 -0.121368,-0.06815 -0.121368,-0.177383 0,-0.112966 0.04575,-0.188587 0.114833,-0.188587 0.02801,0 0.05228,0.01307 0.05228,0.02801 0,0.0028 -0.0019,0.0056 -0.0056,0.0112 -0.01494,0.01774 -0.01867,0.02707 -0.01867,0.04294 0,0.03081 0.02334,0.05228 0.05602,0.05228 0.03268,0 0.05695,-0.02614 0.05695,-0.06349 0,-0.06255 -0.06255,-0.111097 -0.145642,-0.111097 -0.121367,0 -0.208192,0.09989 -0.208192,0.239001 0,0.13257 0.07936,0.224063 0.195123,0.224063 0.08309,0 0.130703,-0.03828 0.170848,-0.137239 l -0.03641,-0.014 m 0.233735,-0.297818 0,-0.184852 -0.03828,0 c -0.0093,0.121368 -0.05041,0.182985 -0.126036,0.188587 l 0,0.03641 0.07656,0 0,0.238067 c 0,0.06535 0.0019,0.08869 0.0112,0.110165 0.01494,0.03921 0.05228,0.06068 0.10643,0.06068 0.03641,0 0.06815,-0.0112 0.08963,-0.03174 0.03081,-0.02987 0.04855,-0.07936 0.04855,-0.130703 0,-0.0056 0,-0.01214 -9.33e-4,-0.02147 l -0.03921,0 c -0.0028,0.08402 -0.02707,0.126968 -0.07282,0.126968 -0.02147,0 -0.04015,-0.0112 -0.04668,-0.02707 -0.0056,-0.01307 -0.0084,-0.03641 -0.0084,-0.07002 l 0,-0.254873 0.137238,0 0,-0.04014 -0.137238,0 m 0.374066,0 -0.175516,0.01027 0,0.04015 0.04761,0 c 0.03454,0 0.04015,0.0065 0.04015,0.04668 l 0,0.223131 0,0.03734 c 0,0.03735 -0.01027,0.04388 -0.07002,0.04388 l -0.0065,0 0,0.03361 0.241802,0 0,-0.03361 -0.0065,0 c -0.06068,0 -0.07095,-0.0065 -0.07095,-0.04388 l 0,-0.03734 0,-0.320225 m -0.04388,-0.232466 c -0.02988,0 -0.05415,0.02427 -0.05415,0.05415 0,0.02894 0.02427,0.05415 0.05321,0.05415 0.03081,0 0.05508,-0.02427 0.05508,-0.05415 0,-0.02988 -0.02427,-0.05415 -0.05415,-0.05415 m 0.380397,0.218463 c -0.113898,0 -0.203524,0.101762 -0.203524,0.232465 0,0.127903 0.08963,0.230599 0.201657,0.230599 0.112031,0 0.201656,-0.102696 0.201656,-0.231532 0,-0.127903 -0.08962,-0.231532 -0.199789,-0.231532 m 0,0.04014 c 0.06535,0 0.101762,0.06815 0.101762,0.191388 0,0.124168 -0.03641,0.191388 -0.103629,0.191388 -0.06722,0 -0.10363,-0.06722 -0.10363,-0.190455 0,-0.126969 0.03548,-0.192321 0.105497,-0.192321 m 0.418252,-0.02614 -0.161512,0.01027 0,0.04015 0.03361,0 c 0.03454,0 0.04014,0.0065 0.04014,0.04668 l 0,0.223131 0,0.03734 c 0,0.03735 -0.01027,0.04388 -0.07002,0.04388 l -0.0037,0 0,0.03361 0.2362,0 0,-0.03361 -0.0037,0 c -0.06068,0 -0.07095,-0.0065 -0.07095,-0.04388 l 0,-0.03734 0,-0.09709 c 0,-0.04575 0.0065,-0.08776 0.0168,-0.109231 0.01961,-0.04201 0.06162,-0.07095 0.101762,-0.07095 0.02427,0 0.05228,0.014 0.06628,0.03268 0.01401,0.01961 0.02054,0.04855 0.02054,0.09336 l 0,0.151243 0,0.03734 c 0,0.03735 -0.01027,0.04388 -0.07095,0.04388 l -0.0037,0 0,0.03361 0.236202,0 0,-0.03361 -0.0037,0 c -0.05975,0 -0.07002,-0.0065 -0.07002,-0.04388 l 0,-0.03734 0,-0.146575 c 0,-0.06722 -0.0028,-0.08403 -0.0196,-0.115767 -0.02334,-0.04481 -0.07095,-0.07189 -0.126036,-0.07189 -0.05975,0 -0.106431,0.02801 -0.147509,0.08962 l 0,-0.07562 m 0.806002,0.134438 c 0,-0.05882 -0.01027,-0.08869 -0.03735,-0.111097 -0.03081,-0.02428 -0.07655,-0.03734 -0.136305,-0.03734 -0.104563,0 -0.182052,0.04948 -0.182052,0.116699 0,0.03548 0.02147,0.05788 0.05415,0.05788 0.02894,0 0.05041,-0.01961 0.05041,-0.04761 0,-0.01214 -0.0047,-0.02521 -0.014,-0.03828 -0.0056,-0.0065 -0.0065,-0.0093 -0.0065,-0.01214 0,-0.01961 0.03828,-0.03641 0.08309,-0.03641 0.02894,0 0.06162,0.0093 0.07656,0.02334 0.01774,0.01494 0.02427,0.03734 0.02427,0.07935 l 0,0.03641 c -0.09803,0.0168 -0.127903,0.02427 -0.173648,0.04201 -0.08029,0.02988 -0.119501,0.07376 -0.119501,0.132571 0,0.06629 0.05321,0.109231 0.135372,0.109231 0.06442,0 0.122301,-0.02614 0.162446,-0.07375 0.01494,0.04761 0.03828,0.06629 0.08216,0.06629 0.04201,0 0.08589,-0.02707 0.08589,-0.05415 0,-0.0065 -0.0047,-0.0112 -0.0093,-0.0112 -0.0037,0 -0.0075,9.34e-4 -0.014,0.0037 -0.01494,0.0056 -0.01867,0.0065 -0.02614,0.0065 -0.02614,0 -0.03548,-0.01774 -0.03548,-0.06442 l 0,-0.187654 m -0.08776,0.1139 c 0,0.05602 -0.0028,0.06909 -0.01867,0.09336 -0.02334,0.03454 -0.06629,0.05788 -0.10643,0.05788 -0.04201,0 -0.07376,-0.03081 -0.07376,-0.07282 0,-0.03921 0.01961,-0.06722 0.06068,-0.08682 0.02894,-0.01307 0.06535,-0.02241 0.138172,-0.03454 l 0,0.04295 m 0.370303,-0.248338 -0.165246,0.01027 0,0.04015 0.03828,0 c 0.03454,0 0.04014,0.0065 0.04014,0.04668 l 0,0.223131 0,0.03734 c 0,0.03735 -0.01027,0.04388 -0.07095,0.04388 l -0.0037,0 0,0.03361 0.249271,0 0,-0.03361 -0.01774,0 c -0.05975,0 -0.07002,-0.0065 -0.07002,-0.04388 l 0,-0.03734 0,-0.0093 c 0,-0.07002 0.01307,-0.140973 0.03641,-0.194188 0.0224,-0.05228 0.05415,-0.08122 0.09336,-0.08589 -0.01307,0.01494 -0.0168,0.02427 -0.0168,0.04201 0,0.02988 0.02147,0.05135 0.05135,0.05135 0.03361,0 0.05695,-0.02521 0.05695,-0.06349 0,-0.04481 -0.03174,-0.07469 -0.08122,-0.07469 -0.05882,0 -0.110164,0.04761 -0.14004,0.12977 l 0,-0.115767 m 0.509148,0.316489 -0.102696,-0.239933 c -0.0037,-0.0084 -0.0056,-0.01494 -0.0056,-0.01961 0,-0.0168 0.0112,-0.02334 0.04294,-0.02334 l 0.01961,0 0,-0.03361 -0.222196,0 0,0.03361 0.01027,0 c 0.02988,0 0.04668,0.01307 0.06349,0.05041 L 16.660311,11.967324 16.64444,12 c -0.03361,0.07095 -0.07749,0.120435 -0.107363,0.120435 -0.0084,0 -0.01494,-0.0037 -0.01494,-0.0093 0,-0.0019 9.33e-4,-0.0047 0.0019,-0.0084 0.0028,-0.0084 0.0047,-0.01681 0.0047,-0.02427 0,-0.02427 -0.02054,-0.04201 -0.04761,-0.04201 -0.03268,0 -0.05602,0.02427 -0.05602,0.05788 0,0.04108 0.03641,0.07189 0.08496,0.07189 0.04948,0 0.09149,-0.02427 0.128837,-0.07469 0.02894,-0.03921 0.04761,-0.07656 0.08869,-0.180184 l 0.10643,-0.263276 c 0.02334,-0.05695 0.04295,-0.07562 0.07842,-0.07562 l 0.0056,0 0,-0.03361 -0.186721,0 0,0.03361 0.01494,0 c 0.03548,0 0.05041,0.01027 0.05041,0.03454 0,0.0093 -0.0028,0.02147 -0.0093,0.03734 l -0.08496,0.210992" display="inline" font-family="Century Schoolbook L" font-size="6" font-stretch="normal" font-style="normal" font-variant="normal" font-weight="normal" text-anchor="start" writing-mode="lr-tb" style="text-align:start;line-height:100%;-inkscape-font-specification:Century Schoolbook L"/><path id="path4015" fill="#784421" fill-opacity="1" fill-rule="evenodd" stroke="none" d="m 7.25,2.28125 0,0.25 0,0.71875 -0.75,0 -0.25,0 0,0.25 0,4.09375 c 0,2.645833 0,4.291667 0,6.9375 l 0,0.25 0.25,0 0.75,0 0,0.71875 0,0.25 0.25,0 4.25,0 2.46875,0 4.25,0 0.25,0 0,-0.25 0,-0.71875 0.75,0 0.25,0 0,-0.25 c 0,-2.645833 0,-4.291667 0,-6.9375 l 0,-4.09375 0,-0.25 -0.25,0 -0.75,0 0,-0.71875 0,-0.25 -0.25,0 -4.25,0 -2.46875,0 -4.25,0 z m 0.5,0.5 4,0 2.46875,0 4,0 0,0.71875 0,0.25 0.25,0 0.75,0 0,3.84375 c 0,2.5625 0,4.125 0,6.6875 l -0.75,0 -0.25,0 0,0.25 0,0.71875 -4,0 -2.46875,0 -4,0 0,-0.71875 0,-0.25 -0.25,0 -0.75,0 c 0,-2.5625 0,-4.125 0,-6.6875 l 0,-3.84375 0.75,0 0.25,0 0,-0.25 z M 6,1.9911661 l 0.75,0 0,0.75 -0.75,0 z m 13.25,0 0.75,0 0,0.75 -0.75,0 z M 6,15.25 l 0.75,0 0,0.75 L 6,16 z m 13.25,0 0.75,0 0,0.75 -0.75,0 z" opacity=".4"/><path id="path4099" fill="url(#linearGradient4107)" fill-opacity="1" fill-rule="nonzero" stroke="none" stroke-dasharray="none" stroke-dashoffset="0" stroke-linecap="square" stroke-linejoin="round" stroke-miterlimit="4" stroke-opacity="1" stroke-width="1.5" d="M 3,1 C 1.892,1 1,1.892 1,3 L 1,19 C 1,20.108 1.892,21 3,21 L 3.03125,21 L 3.03125,1 L 3,1 z" opacity="1"/><path id="rect3050" fill="url(#linearGradient3888)" fill-opacity="1" fill-rule="evenodd" stroke="none" d="M 3,1 C 1.892,1 1,1.892 1,3 l 0,16 c 0,1.108 0.892,2 2,2 l 16,0 c 1.108,0 2,-0.892 2,-2 L 21,3 C 21,1.892 20.108,1 19,1 L 3,1 z m 0,1.03125 16,0 c 0.5497,0 0.96875,0.4190495 0.96875,0.96875 l 0,16 c 0,0.5497 -0.41905,0.96875 -0.96875,0.96875 l -16,0 C 2.4502995,19.96875 2.03125,19.5497 2.03125,19 l 0,-16 C 2.03125,2.4502995 2.4502995,2.03125 3,2.03125 z" display="inline" opacity=".3"/><path id="path3235" fill="url(#linearGradient3845)" fill-opacity="1" fill-rule="evenodd" stroke="none" d="M 3,21 C 1.892,21 1,20.108 1,19 l 0,-1 c 0,1.108 0.892,2 2,2 l 16,0 c 1.108,0 2,-0.892 2,-2 l 0,1 c 0,1.108 -0.892,2 -2,2 L 3,21 z" display="inline" opacity=".15"/><path id="path3235-1" fill="url(#linearGradient3201)" fill-opacity="1" fill-rule="evenodd" stroke="none" d="M 3,21 C 1.892,21 1,20.108 1,19 l 0,-1 c 0,1.108 0.892,2 2,2 l 16,0 c 1.108,0 2,-0.892 2,-2 l 0,1 c 0,1.108 -0.892,2 -2,2 L 3,21 z" display="inline" opacity=".2"/><path id="path3073" fill="url(#linearGradient4111)" fill-opacity="1" fill-rule="nonzero" stroke="none" stroke-width="2" d="m 3.03125,18 c -0.5618764,0 -1,0.431278 -1,0.984375 0,0.553097 0.4381236,0.984375 1,0.984375 l 16.291584,0 C 19.703008,19.928991 20,19.61753 20,19.232407 L 20,18 z" color="#000" display="inline" enable-background="accumulate" overflow="visible" visibility="visible" style="marker:none"/><path id="rect3896" fill="#000" fill-opacity="1" fill-rule="nonzero" stroke="none" stroke-width="2" d="m 21,16 c 0,0.554 -0.446,1 -1,1 l -1,0 -1,0 -15,0 c -0.554,0 -1,0.446 -1,1 l 0,1 c 0,0.1385 0.043281,0.255281 0.09375,0.375 -0.049853,-0.120088 -0.0625,-0.265781 -0.0625,-0.40625 0,-0.561876 0.438124,-1 1,-1 L 18,17.96875 18,18 l 2,0 c 0.554,0 1,-0.446 1,-1 l 0,-1 z M 2.625,19.90625 C 2.744719,19.956719 2.8615,20 3,20 l 16,0 0,-0.03125 -15.96875,0 c -0.140469,0 -0.286162,-0.01265 -0.40625,-0.0625 z" color="#000" display="inline" enable-background="accumulate" opacity=".25" overflow="visible" visibility="visible" style="marker:none"/><path id="path3915" fill="url(#linearGradient3923)" fill-opacity="1" fill-rule="nonzero" stroke="none" stroke-width="2" d="m 21,15 c 0,0.554 -0.446,1 -1,1 l -1,0 -1,0 -15,0 c -0.554,0 -1,0.446 -1,1 l 0,1 c 0,0.1385 0.04328,0.255281 0.09375,0.375 -0.04985,-0.120088 -0.0625,-0.265781 -0.0625,-0.40625 0,-0.561876 0.438124,-1 1,-1 L 18,16.96875 18,17 l 2,0 c 0.554,0 1,-0.446 1,-1 l 0,-1 z M 2.625,18.90625 C 2.744719,18.956719 2.8615,19 3,19 l 16,0 0,-0.03125 -15.96875,0 c -0.140469,0 -0.286162,-0.01265 -0.40625,-0.0625 z" color="#000" display="inline" enable-background="accumulate" opacity=".2" overflow="visible" visibility="visible" style="marker:none"/><path id="path3933" fill="#000" fill-opacity="1" fill-rule="nonzero" stroke="none" stroke-width="2" d="m 21,17 c 0,0.554 -0.446,1 -1,1 l -1,0 -1,0 -15,0 C 2.870862,18.0038 2.736317,18.0469 2.625,18.09375 2.513669,18.14068 2.398775,18.199487 2.3125,18.28125 2.222617,18.37168 2.143603,18.505324 2.09375,18.625 2.043897,18.744676 2.03125,18.861726 2.03125,19 c 0,0.179107 0.043789,0.327916 0.125,0.46875 0.169575,-0.303441 0.495074,-0.5 0.875,-0.5 L 18,18.96875 18,19 l 2,0 c 0.554,0 1,-0.446 1,-1 l 0,-1 z M 18,20.96875 18,21 l 1,0 0,-0.03125 -1,0 z" color="#000" display="inline" enable-background="accumulate" opacity=".15" overflow="visible" visibility="visible" style="marker:none"/></g></svg>