<svg xmlns="http://www.w3.org/2000/svg" xmlns:svg="http://www.w3.org/2000/svg" xmlns:xlink="http://www.w3.org/1999/xlink" id="svg2" width="22" height="22" display="inline" version="1.0"><defs id="defs4"><linearGradient id="linearGradient3327"><stop id="stop3330" offset="0" stop-color="#000" stop-opacity="1"/><stop id="stop3333" offset="1" stop-color="#000" stop-opacity="0"/></linearGradient><linearGradient id="linearGradient3335" x1="11.375" x2="11.375" y1="22" y2="-9.817" gradientUnits="userSpaceOnUse" xlink:href="#linearGradient3327"/><linearGradient id="linearGradient3181" x1="1.881" x2="-3.061" y1="27.258" y2="7.254" gradientTransform="translate(11.119372,-6.2581977)" gradientUnits="userSpaceOnUse" xlink:href="#linearGradient3614"/><linearGradient id="ButtonShadow" x1="9.355" x2="9.355" y1="21.743" y2=".494" gradientTransform="scale(0.9883037,1.0118347)" gradientUnits="userSpaceOnUse"><stop id="stop3277" offset="0" stop-color="#000" stop-opacity=".706"/><stop id="stop3279" offset="1" stop-color="#000" stop-opacity=".157"/></linearGradient><linearGradient id="linearGradient3232"><stop id="stop3234" offset="0" stop-color="#000" stop-opacity="1"/><stop id="stop3236" offset="1" stop-color="#000" stop-opacity="0"/></linearGradient><linearGradient id="linearGradient3221" x1="11" x2="11" y1="14.806" y2="-6" gradientUnits="userSpaceOnUse" xlink:href="#linearGradient3232"/><linearGradient id="ButtonColor" x1="10.32" x2="10.32" y1="21" y2=".999" gradientUnits="userSpaceOnUse"><stop id="stop3189" offset="0" stop-color="#29669f" stop-opacity="1"/><stop id="stop3191" offset="1" stop-color="#88b6e0" stop-opacity="1"/></linearGradient><linearGradient id="linearGradient38042" x1="9.355" x2="9.355" y1="21.743" y2=".494" gradientTransform="scale(0.9883037,1.0118347)" gradientUnits="userSpaceOnUse" xlink:href="#ButtonShadow"/><filter id="filter3194" width="1.36" height="1.36" x="-.18" y="-.18"><feGaussianBlur id="feGaussianBlur3196" stdDeviation="1.2"/></filter><clipPath id="clipPath2849" clipPathUnits="userSpaceOnUse"><rect id="rect2851" width="20" height="20" x="1" y="1" fill="#fff" fill-opacity="1" fill-rule="evenodd" stroke="none" display="inline" rx="2" ry="2"/></clipPath><linearGradient id="linearGradient3641" x1="67.071" x2="48" y1="78" y2="14" gradientTransform="matrix(0.47563997,0,0,0.47563997,-50.807597,-16.830718)" gradientUnits="userSpaceOnUse" xlink:href="#linearGradient3737"/><linearGradient id="linearGradient3737"><stop id="stop3739" offset="0" stop-color="#fff" stop-opacity="1"/><stop id="stop3741" offset="1" stop-color="#fff" stop-opacity="0"/></linearGradient><linearGradient id="linearGradient3628" x1="16" x2="80" y1="46" y2="46" gradientTransform="matrix(0.47563997,0,0,0.47563997,-17.781998,6.097441)" gradientUnits="userSpaceOnUse" xlink:href="#linearGradient3622"/><linearGradient id="linearGradient3622"><stop id="stop3624" offset="0" stop-color="#d6d6d6" stop-opacity="1"/><stop id="stop3626" offset="1" stop-color="#eaeaea" stop-opacity="1"/></linearGradient><radialGradient id="radialGradient3619" cx="48" cy="90.172" r="42" fx="48" fy="90.172" gradientTransform="matrix(0.55046427,0,0,0.47369352,-54.399165,-16.736955)" gradientUnits="userSpaceOnUse" xlink:href="#linearGradient3737"/><linearGradient id="linearGradient3666" x1="6" x2="48" y1="48" y2="81.071" gradientTransform="matrix(-0.47563997,0,0,0.47563997,-5.146161,-16.830718)" gradientUnits="userSpaceOnUse" xlink:href="#linearGradient3650"/><linearGradient id="linearGradient3650"><stop id="stop3652" offset="0" stop-color="#000" stop-opacity="0"/><stop id="stop3660" offset=".3" stop-color="#000" stop-opacity="0"/><stop id="stop3658" offset=".5" stop-color="#000" stop-opacity=".157"/><stop id="stop3662" offset=".7" stop-color="#000" stop-opacity="0"/><stop id="stop3654" offset="1" stop-color="#000" stop-opacity="0"/></linearGradient><linearGradient id="linearGradient3188" x1="36.357" x2="36.357" y1="6" y2="63.893" gradientTransform="matrix(0.47563997,0,0,0.47563997,-50.807597,-16.830718)" gradientUnits="userSpaceOnUse" xlink:href="#linearGradient3737"/><linearGradient id="linearGradient3656" x1="6" x2="48" y1="48" y2="81.071" gradientTransform="matrix(0.47563997,0,0,0.47563997,-50.807597,-16.830718)" gradientUnits="userSpaceOnUse" xlink:href="#linearGradient3650"/><linearGradient id="linearGradient3738"><stop id="stop3740" offset="0" stop-color="#000" stop-opacity="0"/><stop id="stop3742" offset=".3" stop-color="#000" stop-opacity="0"/><stop id="stop3744" offset=".5" stop-color="#000" stop-opacity=".118"/><stop id="stop3746" offset=".7" stop-color="#000" stop-opacity="0"/><stop id="stop3748" offset="1" stop-color="#000" stop-opacity="0"/></linearGradient><linearGradient id="linearGradient3670" x1="13.321" x2="48" y1="48" y2="84.286" gradientTransform="matrix(0.47563997,0,0,-0.47563997,-50.807597,28.830718)" gradientUnits="userSpaceOnUse" xlink:href="#linearGradient3672"/><linearGradient id="linearGradient3672"><stop id="stop3674" offset="0" stop-color="#fff" stop-opacity="0"/><stop id="stop3676" offset=".3" stop-color="#fff" stop-opacity="0"/><stop id="stop3678" offset=".5" stop-color="#fff" stop-opacity=".484"/><stop id="stop3680" offset=".753" stop-color="#fff" stop-opacity="0"/><stop id="stop3682" offset="1" stop-color="#fff" stop-opacity="0"/></linearGradient><linearGradient id="linearGradient3686" x1="13.321" x2="48" y1="48" y2="84.286" gradientTransform="matrix(-0.47563997,0,0,-0.47563997,-5.146161,28.830718)" gradientUnits="userSpaceOnUse" xlink:href="#linearGradient3672"/><linearGradient id="linearGradient3758"><stop id="stop3760" offset="0" stop-color="#fff" stop-opacity="0"/><stop id="stop3762" offset=".3" stop-color="#fff" stop-opacity="0"/><stop id="stop3764" offset=".5" stop-color="#fff" stop-opacity=".484"/><stop id="stop3766" offset=".753" stop-color="#fff" stop-opacity="0"/><stop id="stop3768" offset="1" stop-color="#fff" stop-opacity="0"/></linearGradient><linearGradient id="linearGradient3617" x1="63.536" x2="32.071" y1="90" y2="6" gradientUnits="userSpaceOnUse" xlink:href="#linearGradient3614"/><linearGradient id="linearGradient3614"><stop id="stop3616" offset="0" stop-color="#b3b3b3" stop-opacity="1"/><stop id="stop3618" offset="1" stop-color="#d2d2d2" stop-opacity="1"/></linearGradient><linearGradient id="linearGradient3785" x1="63.536" x2="32.071" y1="90" y2="6" gradientTransform="matrix(0.47563997,0,0,0.47563997,-50.807597,-16.830718)" gradientUnits="userSpaceOnUse" xlink:href="#linearGradient3614"/><linearGradient id="linearGradient2910" x1="13.321" x2="48" y1="48" y2="84.286" gradientTransform="matrix(-0.47563997,0,0,-0.47563997,74.853839,28.830718)" gradientUnits="userSpaceOnUse" xlink:href="#linearGradient3672"/><linearGradient id="linearGradient2912" x1="13.321" x2="48" y1="48" y2="84.286" gradientTransform="matrix(0.47563997,0,0,-0.47563997,29.192403,28.830718)" gradientUnits="userSpaceOnUse" xlink:href="#linearGradient3672"/><linearGradient id="linearGradient2914" x1="6" x2="48" y1="48" y2="81.071" gradientTransform="matrix(0.47563997,0,0,0.47563997,29.192403,-16.830718)" gradientUnits="userSpaceOnUse" xlink:href="#linearGradient3650"/><linearGradient id="linearGradient2916" x1="6" x2="48" y1="48" y2="81.071" gradientTransform="matrix(-0.47563997,0,0,0.47563997,74.853839,-16.830718)" gradientUnits="userSpaceOnUse" xlink:href="#linearGradient3650"/><linearGradient id="linearGradient2924" x1="13.321" x2="48" y1="48" y2="84.286" gradientTransform="matrix(-0.47563997,0,0,-0.47563997,74.853839,28.830718)" gradientUnits="userSpaceOnUse" xlink:href="#linearGradient3672"/><linearGradient id="linearGradient2926" x1="13.321" x2="48" y1="48" y2="84.286" gradientTransform="matrix(0.47563997,0,0,-0.47563997,29.192403,28.830718)" gradientUnits="userSpaceOnUse" xlink:href="#linearGradient3672"/><linearGradient id="linearGradient2928" x1="6" x2="48" y1="48" y2="81.071" gradientTransform="matrix(0.47563997,0,0,0.47563997,29.192403,-16.830718)" gradientUnits="userSpaceOnUse" xlink:href="#linearGradient3650"/><linearGradient id="linearGradient2930" x1="6" x2="48" y1="48" y2="81.071" gradientTransform="matrix(-0.47563997,0,0,0.47563997,74.853839,-16.830718)" gradientUnits="userSpaceOnUse" xlink:href="#linearGradient3650"/><clipPath id="clipPath2936" clipPathUnits="userSpaceOnUse"><rect id="rect2938" width="39.954" height="39.954" x="32.046" y="-13.977" fill="#f0f" fill-opacity="1" fill-rule="evenodd" stroke="none" display="inline" rx="3.995" ry="3.995"/></clipPath><linearGradient id="linearGradient3720" x1="3" x2="19" y1="10" y2="10" gradientTransform="translate(-1,-21)" gradientUnits="userSpaceOnUse" xlink:href="#linearGradient3622"/><linearGradient id="linearGradient3733" x1="13" x2="7.721" y1="18" y2="-1.701" gradientUnits="userSpaceOnUse" xlink:href="#linearGradient3737"/><linearGradient id="linearGradient3845" x1="11" x2="21" y1="19.5" y2="19.5" gradientUnits="userSpaceOnUse" spreadMethod="reflect" xlink:href="#linearGradient3831"/><linearGradient id="linearGradient3831"><stop id="stop3833" offset="0" stop-color="#fff" stop-opacity="1"/><stop id="stop3821" offset=".75" stop-color="#fff" stop-opacity=".498"/><stop id="stop3835" offset="1" stop-color="#fff" stop-opacity="0"/></linearGradient><linearGradient id="linearGradient3078" x1="10" x2="10" y1="1" y2="16" gradientTransform="translate(1,-1)" gradientUnits="userSpaceOnUse" xlink:href="#linearGradient3823"/><linearGradient id="linearGradient3823"><stop id="stop3825" offset="0" stop-color="#fff" stop-opacity="1"/><stop id="stop3829" offset="1" stop-color="#fff" stop-opacity="0"/></linearGradient><linearGradient id="linearGradient3888" x1="10" x2="10" y1="1" y2="16" gradientUnits="userSpaceOnUse" xlink:href="#linearGradient3823"/></defs><metadata id="metadata7"/><g id="layer1" display="inline"><g id="g3337" display="inline"><rect id="rect3371" width="21" height="21.5" x=".5" y=".5" fill="url(#linearGradient3335)" fill-opacity="1" stroke="none" display="inline" opacity=".3" rx="2.5" ry="2.5"/><rect id="rect2553" width="20" height="20" x="1" y="2" fill="#000" fill-opacity="1" stroke="none" display="inline" opacity=".5" rx="2.381" ry="2.326"/></g><rect id="rect3173" width="20" height="20" x="1" y="1" fill="url(#linearGradient3181)" fill-opacity="1" fill-rule="evenodd" stroke="none" display="inline" rx="2" ry="2"/><g id="g2918" clip-path="url(#clipPath2936)" transform="matrix(0.50057869,0,0,0.50057869,-15.041666,7.9965279)"><path id="path2902" fill="url(#linearGradient2924)" fill-opacity="1" fill-rule="nonzero" stroke="none" d="m 72,6 0,-17.123039 c 0,-1.581027 -1.272813,-2.85384 -2.85384,-2.85384 l -17.123039,0 L 52.023121,6 72,6 z"/><path id="path2904" fill="url(#linearGradient2926)" fill-opacity="1" fill-rule="nonzero" stroke="none" d="m 32.046242,6 0,-17.123039 c 0,-1.581027 1.272813,-2.85384 2.85384,-2.85384 l 17.123039,0 0,19.976879 -19.976879,0 z"/><path id="path2906" fill="url(#linearGradient2928)" fill-opacity="1" fill-rule="nonzero" stroke="none" d="m 32.046242,6 0,17.123039 c 0,1.581027 1.272813,2.85384 2.85384,2.85384 l 17.123039,0 0,-19.976879 -19.976879,0 z"/><path id="path2908" fill="url(#linearGradient2930)" fill-opacity="1" fill-rule="nonzero" stroke="none" d="m 72,6 0,17.123039 c 0,1.581027 -1.272813,2.85384 -2.85384,2.85384 l -17.123039,0 L 52.023121,6 72,6 z"/></g><rect id="rect2940" width="16" height="16" x="2" y="-19" fill="url(#linearGradient3720)" fill-opacity="1" fill-rule="evenodd" stroke="none" display="inline" rx="2" ry="2" transform="matrix(0,1,-1,0,0,0)"/><path id="rect3722" fill="url(#linearGradient3733)" fill-opacity="1" fill-rule="evenodd" stroke="none" d="M 5 2 C 3.892 2 3 2.892 3 4 L 3 16 C 3 17.108 3.892 18 5 18 L 17 18 C 18.108 18 19 17.108 19 16 L 19 4 C 19 2.892 18.108 2 17 2 L 5 2 z M 5 3 L 17 3 C 17.554 3 18 3.446 18 4 L 18 16 C 18 16.554 17.554 17 17 17 L 5 17 C 4.446 17 4 16.554 4 16 L 4 4 C 4 3.446 4.446 3 5 3 z" display="inline"/><g font-style="normal" style="text-align:start;line-height:125%;-inkscape-font-specification:DejaVu Sans" id="g3735" fill="#000" fill-opacity="1" stroke="none" font-family="DejaVu Sans" font-size="51.599" font-stretch="normal" font-variant="normal" font-weight="normal" opacity=".9" text-anchor="start" transform="matrix(0.23809523,0,0,0.23809523,-0.42857104,-1.1904762)" writing-mode="lr-tb"><path id="path3737" d="m 50.670666,53.084585 c -3.745665,1.4e-5 -6.340744,0.428328 -7.785243,1.284943 -1.44452,0.856641 -2.166775,2.317947 -2.166767,4.383923 -8e-6,1.646078 0.537484,2.956215 1.612478,3.930414 1.091771,0.957412 2.569874,1.436116 4.434313,1.436113 2.56987,3e-6 4.627456,-0.907015 6.172765,-2.721056 1.562066,-1.830826 2.343109,-4.257938 2.343132,-7.281344 l 0,-1.032993 -4.610678,0 m 9.246551,-1.914817 0,16.09958 -4.635873,0 0,-4.283143 c -1.05821,1.71326 -2.376745,2.981405 -3.955609,3.804439 -1.578901,0.806238 -3.510513,1.209357 -5.794841,1.209358 -2.889032,-10e-7 -5.19017,-0.806239 -6.90342,-2.418716 -1.696465,-1.629271 -2.544694,-3.804434 -2.544691,-6.525495 -3e-6,-3.174554 1.058184,-5.568073 3.174565,-7.180564 2.133165,-1.612461 5.307727,-2.418699 9.523696,-2.418717 l 6.5003,0 0,-0.453509 c -2.3e-5,-2.133153 -0.705481,-3.779222 -2.116377,-4.938212 -1.39414,-1.175741 -3.359345,-1.763623 -5.895621,-1.763648 -1.61249,2.5e-5 -3.182975,0.193186 -4.711458,0.579484 -1.528502,0.386347 -2.998207,0.965831 -4.409118,1.738453 l 0,-4.283144 c 1.696454,-0.655041 3.342523,-1.142143 4.938212,-1.461308 1.59567,-0.335904 3.149357,-0.50387 4.661068,-0.503899 4.081565,2.9e-5 7.130153,1.058216 9.145771,3.174565 2.015571,2.116401 3.023369,5.324556 3.023396,9.624476 m -15.620876,-25.169767 7.104979,9.422916 -3.854829,0 -8.213558,-9.422916 4.963408,0"/></g><path id="rect3050" fill="url(#linearGradient3888)" fill-opacity="1" fill-rule="evenodd" stroke="none" d="M 3,1 C 1.892,1 1,1.892 1,3 l 0,16 c 0,1.108 0.892,2 2,2 l 16,0 c 1.108,0 2,-0.892 2,-2 L 21,3 C 21,1.892 20.108,1 19,1 L 3,1 z m 0,1.03125 16,0 c 0.5497,0 0.96875,0.4190495 0.96875,0.96875 l 0,16 c 0,0.5497 -0.41905,0.96875 -0.96875,0.96875 l -16,0 C 2.4502995,19.96875 2.03125,19.5497 2.03125,19 l 0,-16 C 2.03125,2.4502995 2.4502995,2.03125 3,2.03125 z" display="inline" opacity=".4"/><path id="path3235" fill="url(#linearGradient3845)" fill-opacity="1" fill-rule="evenodd" stroke="none" d="M 3,21 C 1.892,21 1,20.108 1,19 l 0,-1 c 0,1.108 0.892,2 2,2 l 16,0 c 1.108,0 2,-0.892 2,-2 l 0,1 c 0,1.108 -0.892,2 -2,2 L 3,21 z" display="inline" opacity=".2"/></g><g id="layer2" display="none"><rect id="rect2410" width="16" height="16" x="3" y="3" fill="#fff" fill-opacity="1" fill-rule="nonzero" stroke="none" clip-path="url(#clipPath2849)" display="inline" filter="url(#filter3194)" opacity=".15" rx="2" ry="2"/></g></svg>