<svg xmlns="http://www.w3.org/2000/svg" xmlns:svg="http://www.w3.org/2000/svg" xmlns:xlink="http://www.w3.org/1999/xlink" id="svg2" width="22" height="22" display="inline" version="1.0"><defs id="defs4"><linearGradient id="linearGradient3770"><stop id="stop3772" offset="0" stop-color="#802b27" stop-opacity="1"/><stop id="stop3774" offset="1" stop-color="#a93833" stop-opacity="1"/></linearGradient><linearGradient id="linearGradient3776" x1="93.747" x2="93.747" y1="54" y2="64" gradientTransform="translate(-60.068314,-71.291519)" gradientUnits="userSpaceOnUse" xlink:href="#linearGradient3770"/><linearGradient id="linearGradient3720"><stop id="stop3722" offset="0" stop-color="#928075" stop-opacity="1"/><stop id="stop3724" offset="1" stop-color="#5b4f48" stop-opacity="1"/></linearGradient><linearGradient id="linearGradient3760" x1="96" x2="96" y1="80" y2="70" gradientTransform="translate(-60.068314,-71.291519)" gradientUnits="userSpaceOnUse" xlink:href="#linearGradient3720"/><linearGradient id="linearGradient3762"><stop id="stop3764" offset="0" stop-color="#c06517" stop-opacity="1"/><stop id="stop3766" offset="1" stop-color="#e88b3b" stop-opacity="1"/></linearGradient><linearGradient id="linearGradient3768" x1="94.746" x2="94.746" y1="102" y2="112.049" gradientTransform="translate(-60.068314,-71.291519)" gradientUnits="userSpaceOnUse" xlink:href="#linearGradient3762"/><linearGradient id="linearGradient3778"><stop id="stop3780" offset="0" stop-color="#323232" stop-opacity="1"/><stop id="stop3782" offset="1" stop-color="#505050" stop-opacity="1"/></linearGradient><linearGradient id="linearGradient3816" x1="30.247" x2="30.247" y1="102" y2="112" gradientTransform="translate(-17.40165,-87.291519)" gradientUnits="userSpaceOnUse" xlink:href="#linearGradient3778"/><linearGradient id="linearGradient3327"><stop id="stop3330" offset="0" stop-color="#000" stop-opacity="1"/><stop id="stop3333" offset="1" stop-color="#000" stop-opacity="0"/></linearGradient><linearGradient id="linearGradient3335" x1="11.375" x2="11.375" y1="22" y2="-9.817" gradientUnits="userSpaceOnUse" xlink:href="#linearGradient3327"/><linearGradient id="linearGradient3181" x1="-3.061" x2="-3.061" y1="27.258" y2="7.254" gradientTransform="translate(11.119372,-6.2581979)" gradientUnits="userSpaceOnUse" xlink:href="#ButtonColor"/><linearGradient id="linearGradient7125"><stop id="stop7127" offset="0" stop-color="#cdd2ab" stop-opacity="1"/><stop id="stop7129" offset="1" stop-color="#9ea56c" stop-opacity="1"/></linearGradient><linearGradient id="linearGradient3187"><stop id="stop6225" offset="0" stop-color="#b4b4b4" stop-opacity="1"/><stop id="stop6227" offset="1" stop-color="#e6e6e6" stop-opacity="1"/></linearGradient><linearGradient id="linearGradient3465"><stop id="stop3467" offset="0" stop-color="#a0978c" stop-opacity="1"/><stop id="stop3469" offset="1" stop-color="#fefefd" stop-opacity="1"/></linearGradient><linearGradient id="linearGradient3471" x1="35.5" x2="35.5" y1="14" y2="38.047" gradientTransform="matrix(0.1976744,0,0,0.1818182,-0.4651161,-0.2272725)" gradientUnits="userSpaceOnUse" xlink:href="#linearGradient3465"/><linearGradient id="linearGradient3929"><stop id="stop3931" offset="0" stop-color="#000" stop-opacity="1"/><stop id="stop7149" offset=".71" stop-color="#6a6a6a" stop-opacity="1"/><stop id="stop3933" offset="1" stop-color="#d5d5d5" stop-opacity="1"/></linearGradient><linearGradient id="ButtonShadow" x1="9.355" x2="9.355" y1="21.743" y2=".494" gradientTransform="scale(0.9883037,1.0118347)" gradientUnits="userSpaceOnUse"><stop id="stop3277" offset="0" stop-color="#000" stop-opacity=".706"/><stop id="stop3279" offset="1" stop-color="#000" stop-opacity=".157"/></linearGradient><linearGradient id="linearGradient3232"><stop id="stop3234" offset="0" stop-color="#000" stop-opacity="1"/><stop id="stop3236" offset="1" stop-color="#000" stop-opacity="0"/></linearGradient><linearGradient id="linearGradient3221" x1="11" x2="11" y1="14.806" y2="-6" gradientUnits="userSpaceOnUse" xlink:href="#linearGradient3232"/><linearGradient id="ButtonColor" x1="10.32" x2="10.32" y1="21" y2=".999" gradientUnits="userSpaceOnUse" spreadMethod="pad" xlink:href="#linearGradient3187"><stop id="stop3189" offset="0" stop-color="#bbb5ad" stop-opacity="1"/><stop id="stop3191" offset="1" stop-color="#e9e7e4" stop-opacity="1"/></linearGradient><linearGradient id="linearGradient7075" x1="23.482" x2="23.482" y1="98.618" y2="96" gradientTransform="matrix(0.7644287,0,0,0.7644287,-13.817431,-93.385159)" gradientUnits="userSpaceOnUse" xlink:href="#linearGradient3778"/><linearGradient id="linearGradient7087" x1="23.482" x2="23.482" y1="98.618" y2="96" gradientTransform="matrix(0.7644287,0,0,0.7644287,-9.817431,-55.385159)" gradientUnits="userSpaceOnUse" xlink:href="#linearGradient3720"/><linearGradient id="linearGradient7091" x1="23.482" x2="23.482" y1="98.618" y2="96" gradientTransform="matrix(0.7644287,0,0,0.7644287,-5.817431,-55.385159)" gradientUnits="userSpaceOnUse" xlink:href="#linearGradient3720"/><linearGradient id="linearGradient7095" x1="23.482" x2="23.482" y1="99.272" y2="96" gradientTransform="matrix(0.7644287,0,0,0.7644287,-1.817431,-60.385159)" gradientUnits="userSpaceOnUse" xlink:href="#linearGradient3929"/><linearGradient id="linearGradient7103" x1="23.482" x2="23.482" y1="98.618" y2="96" gradientTransform="matrix(0.7644287,0,0,0.7644287,-13.817431,-90.385159)" gradientUnits="userSpaceOnUse" xlink:href="#linearGradient3778"/><linearGradient id="linearGradient7105" x1="23.482" x2="23.482" y1="98.618" y2="96" gradientTransform="matrix(0.7644287,0,0,0.7644287,-9.817431,-90.385159)" gradientUnits="userSpaceOnUse" xlink:href="#linearGradient3778"/><linearGradient id="linearGradient7107" x1="23.482" x2="23.482" y1="98.618" y2="96" gradientTransform="matrix(0.7644287,0,0,0.7644287,-5.817431,-90.385159)" gradientUnits="userSpaceOnUse" xlink:href="#linearGradient3778"/><linearGradient id="linearGradient7115" x1="23.482" x2="23.482" y1="98.618" y2="96" gradientTransform="matrix(0.7644287,0,0,0.7644287,-13.817431,-87.385159)" gradientUnits="userSpaceOnUse" xlink:href="#linearGradient3778"/><linearGradient id="linearGradient7117" x1="23.482" x2="23.482" y1="98.618" y2="96" gradientTransform="matrix(0.7644287,0,0,0.7644287,-9.817431,-87.385159)" gradientUnits="userSpaceOnUse" xlink:href="#linearGradient3778"/><linearGradient id="linearGradient7119" x1="23.482" x2="23.482" y1="98.618" y2="96" gradientTransform="matrix(0.7644287,0,0,0.7644287,-5.817431,-87.385159)" gradientUnits="userSpaceOnUse" xlink:href="#linearGradient3778"/><linearGradient id="linearGradient7123" x1="23.482" x2="23.482" y1="98.618" y2="96" gradientTransform="matrix(0.7644287,0,0,0.7644287,-1.817431,-61.385159)" gradientUnits="userSpaceOnUse" xlink:href="#linearGradient3929"/><linearGradient id="linearGradient7153" x1="23.482" x2="23.482" y1="98.618" y2="96" gradientTransform="matrix(0.7644287,0,0,0.7644287,-1.817431,-55.385159)" gradientUnits="userSpaceOnUse" xlink:href="#linearGradient3929"/><linearGradient id="linearGradient7157" x1="23.482" x2="23.482" y1="98.618" y2="96" gradientTransform="matrix(0.7644287,0,0,0.7644287,-1.817431,-58.385159)" gradientUnits="userSpaceOnUse" xlink:href="#linearGradient3929"/><linearGradient id="linearGradient6066" x1="9.355" x2="9.355" y1="21.743" y2=".494" gradientTransform="scale(0.9883037,1.0118347)" gradientUnits="userSpaceOnUse" xlink:href="#ButtonShadow"/><linearGradient id="linearGradient4677" x1="23.482" x2="23.482" y1="98.618" y2="96" gradientTransform="matrix(0.7644287,0,0,0.7644287,-13.817431,-84.385159)" gradientUnits="userSpaceOnUse" xlink:href="#linearGradient3778"/><linearGradient id="linearGradient4679" x1="23.482" x2="23.482" y1="98.618" y2="96" gradientTransform="matrix(0.7644287,0,0,0.7644287,-9.817431,-84.385159)" gradientUnits="userSpaceOnUse" xlink:href="#linearGradient3778"/><linearGradient id="linearGradient4681" x1="23.482" x2="23.482" y1="98.618" y2="96" gradientTransform="matrix(0.7644287,0,0,0.7644287,-5.817431,-84.385159)" gradientUnits="userSpaceOnUse" xlink:href="#linearGradient3778"/><linearGradient id="linearGradient4683" x1="23.482" x2="23.482" y1="98.618" y2="96" gradientTransform="matrix(0.7644287,0,0,0.7644287,-1.817431,-64.385159)" gradientUnits="userSpaceOnUse" xlink:href="#linearGradient3929"/><linearGradient id="linearGradient4693" x1="23.482" x2="23.482" y1="98.618" y2="96" gradientTransform="matrix(0.7644287,0,0,0.7644287,-0.817431,-93.385159)" gradientUnits="userSpaceOnUse" xlink:href="#linearGradient3762"/><linearGradient id="linearGradient4695" x1="23.482" x2="23.482" y1="98.618" y2="96" gradientTransform="matrix(0.7644287,0,0,0.7644287,-0.817431,-58.385159)" gradientUnits="userSpaceOnUse" xlink:href="#linearGradient3720"/><linearGradient id="linearGradient4697" x1="23.482" x2="23.482" y1="98.618" y2="96" gradientTransform="matrix(0.7644287,0,0,0.7644287,-0.817431,-61.385159)" gradientUnits="userSpaceOnUse" xlink:href="#linearGradient3720"/><linearGradient id="linearGradient4699" x1="23.482" x2="23.482" y1="98.618" y2="96" gradientTransform="matrix(0.7644287,0,0,0.7644287,-0.817431,-64.385159)" gradientUnits="userSpaceOnUse" xlink:href="#linearGradient3770"/><linearGradient id="linearGradient3845" x1="11" x2="21" y1="19.5" y2="19.5" gradientUnits="userSpaceOnUse" spreadMethod="reflect" xlink:href="#linearGradient3831"/><linearGradient id="linearGradient3831"><stop id="stop3833" offset="0" stop-color="#fff" stop-opacity="1"/><stop id="stop3821" offset=".75" stop-color="#fff" stop-opacity=".498"/><stop id="stop3835" offset="1" stop-color="#fff" stop-opacity="0"/></linearGradient><linearGradient id="linearGradient3078" x1="10" x2="10" y1="1" y2="16" gradientTransform="translate(1,-1)" gradientUnits="userSpaceOnUse" xlink:href="#linearGradient3823"/><linearGradient id="linearGradient3823"><stop id="stop3825" offset="0" stop-color="#fff" stop-opacity="1"/><stop id="stop3829" offset="1" stop-color="#fff" stop-opacity="0"/></linearGradient><linearGradient id="linearGradient3888" x1="10" x2="10" y1="1" y2="16" gradientUnits="userSpaceOnUse" xlink:href="#linearGradient3823"/></defs><metadata id="metadata7"/><g id="layer1"><g id="g3337" display="inline"><rect id="rect3371" width="21" height="21.5" x=".5" y=".5" fill="url(#linearGradient3335)" fill-opacity="1" stroke="none" display="inline" opacity=".3" rx="2.5" ry="2.5"/><rect id="rect2553" width="20" height="20" x="1" y="2" fill="#000" fill-opacity="1" stroke="none" display="inline" opacity=".5" rx="2.381" ry="2.326"/></g><rect id="rect3173" width="20" height="20" x="1" y="1" fill="url(#linearGradient3181)" fill-opacity="1" fill-rule="evenodd" stroke="none" display="inline" rx="2" ry="2"/><path id="rect3050" fill="url(#linearGradient3888)" fill-opacity="1" fill-rule="evenodd" stroke="none" d="M 3,1 C 1.892,1 1,1.892 1,3 l 0,16 c 0,1.108 0.892,2 2,2 l 16,0 c 1.108,0 2,-0.892 2,-2 L 21,3 C 21,1.892 20.108,1 19,1 L 3,1 z m 0,1.03125 16,0 c 0.5497,0 0.96875,0.4190495 0.96875,0.96875 l 0,16 c 0,0.5497 -0.41905,0.96875 -0.96875,0.96875 l -16,0 C 2.4502995,19.96875 2.03125,19.5497 2.03125,19 l 0,-16 C 2.03125,2.4502995 2.4502995,2.03125 3,2.03125 z" display="inline" opacity=".5"/><path id="path3235" fill="url(#linearGradient3845)" fill-opacity="1" fill-rule="evenodd" stroke="none" d="M 3,21 C 1.892,21 1,20.108 1,19 l 0,-1 c 0,1.108 0.892,2 2,2 l 16,0 c 1.108,0 2,-0.892 2,-2 l 0,1 c 0,1.108 -0.892,2 -2,2 L 3,21 z" display="inline" opacity=".3"/></g><g id="layer2" display="inline"><rect id="rect3463" width="16.643" height="4.569" x="2.673" y="2.731" fill="#bdc490" fill-opacity="1" stroke="none" display="inline" rx=".387" ry=".415"/><path id="rect4723" fill="#a0a66c" fill-opacity="1" stroke="none" d="m 2.5,2.5 0,5 17,0 0,-5 -17,0 z m 2,1 13,0 c 0.554,0 1,0.446 1,1 l 0,1 c 0,0.554 -0.446,1 -1,1 l -13,0 c -0.554,0 -1,-0.446 -1,-1 l 0,-1 c 0,-0.554 0.446,-1 1,-1 z" display="inline"/><rect id="rect3555" width="17" height="5" x="2.5" y="2.5" fill="none" stroke="url(#linearGradient3471)" stroke-dasharray="none" stroke-dashoffset="0" stroke-linecap="butt" stroke-linejoin="round" stroke-miterlimit="4" stroke-opacity="1" stroke-width="1" display="inline" rx=".5" ry=".5"/><rect id="rect3445" width="3" height="2" x="3" y="-20" fill="url(#linearGradient7075)" fill-opacity="1" stroke="none" display="inline" rx=".5" ry=".5" transform="scale(1,-1)"/><rect id="rect7085" width="3" height="2" x="7" y="18" fill="url(#linearGradient7087)" fill-opacity="1" stroke="none" display="inline" rx=".5" ry=".5"/><rect id="rect7089" width="3" height="2" x="11" y="18" fill="url(#linearGradient7091)" fill-opacity="1" stroke="none" display="inline" rx=".5" ry=".5"/><rect id="rect7097" width="3" height="2" x="3" y="-17" fill="url(#linearGradient7103)" fill-opacity="1" stroke="none" display="inline" rx=".5" ry=".5" transform="scale(1,-1)"/><rect id="rect7099" width="3" height="2" x="7" y="-17" fill="url(#linearGradient7105)" fill-opacity="1" stroke="none" display="inline" rx=".5" ry=".5" transform="scale(1,-1)"/><rect id="rect7101" width="3" height="2" x="11" y="-17" fill="url(#linearGradient7107)" fill-opacity="1" stroke="none" display="inline" rx=".5" ry=".5" transform="scale(1,-1)"/><rect id="rect7109" width="3" height="2" x="3" y="-14" fill="url(#linearGradient7115)" fill-opacity="1" stroke="none" display="inline" rx=".5" ry=".5" transform="scale(1,-1)"/><rect id="rect7111" width="3" height="2" x="7" y="-14" fill="url(#linearGradient7117)" fill-opacity="1" stroke="none" display="inline" rx=".5" ry=".5" transform="scale(1,-1)"/><rect id="rect7113" width="3" height="2" x="11" y="-14" fill="url(#linearGradient7119)" fill-opacity="1" stroke="none" display="inline" rx=".5" ry=".5" transform="scale(1,-1)"/><rect id="rect4669" width="3" height="2" x="3" y="-11" fill="url(#linearGradient4677)" fill-opacity="1" stroke="none" display="inline" rx=".5" ry=".5" transform="scale(1,-1)"/><rect id="rect4671" width="3" height="2" x="7" y="-11" fill="url(#linearGradient4679)" fill-opacity="1" stroke="none" display="inline" rx=".5" ry=".5" transform="scale(1,-1)"/><rect id="rect4673" width="3" height="2" x="11" y="-11" fill="url(#linearGradient4681)" fill-opacity="1" stroke="none" display="inline" rx=".5" ry=".5" transform="scale(1,-1)"/><rect id="rect4685" width="3" height="2" x="16" y="-20" fill="url(#linearGradient4693)" fill-opacity="1" stroke="none" display="inline" rx=".5" ry=".5" transform="scale(1,-1)"/><rect id="rect4687" width="3" height="2" x="16" y="15" fill="url(#linearGradient4695)" fill-opacity="1" stroke="none" display="inline" rx=".5" ry=".5"/><rect id="rect4689" width="3" height="2" x="16" y="12" fill="url(#linearGradient4697)" fill-opacity="1" stroke="none" display="inline" rx=".5" ry=".5"/><rect id="rect4691" width="3" height="2" x="16" y="9" fill="url(#linearGradient4699)" fill-opacity="1" stroke="none" display="inline" rx=".5" ry=".5"/><path id="path3961" fill="#000" fill-opacity="1" stroke="none" d="m 18,4.6215157 -0.305705,0.2691382 -0.309728,-0.2691382 0,-0.5428376 L 17.694295,3.8095397 18,4.0786781 18,4.6215157 m -0.357997,-0.8530307 -0.305704,0.2736995 -0.615434,0 -0.305704,-0.2736995 0.305704,-0.2691383 0.615434,0 0.305704,0.2691383 M 18,5.7847398 17.694295,6.0538777 17.384567,5.7847398 l 0,-0.5428378 L 17.694295,4.9727638 18,5.241902 18,5.7847398 m -1.319358,-1.1632241 -0.305705,0.2691382 -0.309728,-0.2691382 0,-0.5428376 0.309728,-0.2691384 0.305705,0.2691384 0,0.5428376 m 0.961361,1.487102 -0.309727,0.2691383 -0.611411,0 -0.309727,-0.2691383 0.309727,-0.2736994 0.611411,0 0.309727,0.2736994 m -0.961361,-0.3238779 -0.305705,0.2691379 -0.309728,-0.2691379 0,-0.5428378 0.309728,-0.2691382 0.305705,0.2691382 0,0.5428378" display="inline" font-family="Endless Showroom" font-size="48" font-stretch="normal" font-style="normal" font-variant="normal" font-weight="900" opacity=".6" text-anchor="start" writing-mode="lr-tb" style="text-align:start;line-height:100%;-inkscape-font-specification:Endless Showroom Heavy"/></g></svg>