<svg xmlns="http://www.w3.org/2000/svg" xmlns:svg="http://www.w3.org/2000/svg" xmlns:xlink="http://www.w3.org/1999/xlink" id="svg2" width="24" height="24" display="inline" version="1.0"><defs id="defs4"><linearGradient id="linearGradient4315"><stop id="stop4317" offset="0" stop-color="#fff" stop-opacity="1"/><stop id="stop4319" offset="1" stop-color="#fff" stop-opacity="0"/></linearGradient><linearGradient id="linearGradient4213"><stop id="stop4215" offset="0" stop-color="#989898" stop-opacity="1"/><stop id="stop4217" offset="1" stop-color="#e3e3e3" stop-opacity="1"/></linearGradient><linearGradient id="linearGradient3327"><stop id="stop3330" offset="0" stop-color="#000" stop-opacity="1"/><stop id="stop3333" offset="1" stop-color="#000" stop-opacity="0"/></linearGradient><linearGradient id="linearGradient3335" x1="11.375" x2="11.375" y1="22" y2="-9.817" gradientUnits="userSpaceOnUse" xlink:href="#linearGradient3327"/><linearGradient id="linearGradient3181" x1="-3.061" x2="-3.061" y1="27.258" y2="7.254" gradientTransform="translate(12.119372,-7.2581977)" gradientUnits="userSpaceOnUse" xlink:href="#linearGradient3641"/><linearGradient id="ButtonShadow" x1="9.355" x2="9.355" y1="21.743" y2=".494" gradientTransform="scale(0.9883037,1.0118347)" gradientUnits="userSpaceOnUse"><stop id="stop3277" offset="0" stop-color="#000" stop-opacity=".706"/><stop id="stop3279" offset="1" stop-color="#000" stop-opacity=".157"/></linearGradient><linearGradient id="linearGradient3232"><stop id="stop3234" offset="0" stop-color="#000" stop-opacity="1"/><stop id="stop3236" offset="1" stop-color="#000" stop-opacity="0"/></linearGradient><linearGradient id="linearGradient3221" x1="11" x2="11" y1="14.806" y2="-6" gradientUnits="userSpaceOnUse" xlink:href="#linearGradient3232"/><linearGradient id="ButtonColor" x1="10.32" x2="10.32" y1="21" y2=".999" gradientUnits="userSpaceOnUse"><stop id="stop3189" offset="0" stop-color="#29669f" stop-opacity="1"/><stop id="stop3191" offset="1" stop-color="#88b6e0" stop-opacity="1"/></linearGradient><linearGradient id="linearGradient38042" x1="9.355" x2="9.355" y1="21.743" y2=".494" gradientTransform="scale(0.9883037,1.0118347)" gradientUnits="userSpaceOnUse" xlink:href="#ButtonShadow"/><filter id="filter3194" width="1.36" height="1.36" x="-.18" y="-.18" color-interpolation-filters="sRGB"><feGaussianBlur id="feGaussianBlur3196" stdDeviation="1.2"/></filter><clipPath id="clipPath2849" clipPathUnits="userSpaceOnUse"><rect id="rect2851" width="20" height="20" x="1" y="1" fill="#fff" fill-opacity="1" fill-rule="evenodd" stroke="none" display="inline" rx="2" ry="2"/></clipPath><linearGradient id="linearGradient3617" x1="48" x2="48" y1="90" y2="5.988" gradientUnits="userSpaceOnUse" xlink:href="#linearGradient3641"/><linearGradient id="linearGradient3641"><stop id="stop3643" offset="0" stop-color="#b4b4b4" stop-opacity="1"/><stop id="stop3645" offset="1" stop-color="#dcdcdc" stop-opacity="1"/></linearGradient><linearGradient id="linearGradient3746"><stop id="stop3748" offset="0" stop-color="#404040" stop-opacity="1"/><stop id="stop3753" offset=".6" stop-color="#0a0a0a" stop-opacity="1"/><stop id="stop3751" offset="1" stop-color="#4e4e4e" stop-opacity="1"/></linearGradient><linearGradient id="linearGradient3732"><stop id="stop3734" offset="0" stop-color="#000" stop-opacity="0"/><stop id="stop3740" offset=".95" stop-color="#000" stop-opacity="0"/><stop id="stop3736" offset="1" stop-color="#000" stop-opacity="1"/></linearGradient><linearGradient id="linearGradient3650"><stop id="stop3709" offset="0" stop-color="#141414" stop-opacity="1"/><stop id="stop3654" offset="1" stop-color="#616161" stop-opacity="1"/></linearGradient><linearGradient id="linearGradient3719"><stop id="stop3721" offset="0" stop-color="#4b4b4b" stop-opacity="1"/><stop id="stop3723" offset=".374" stop-color="#232323" stop-opacity="1"/><stop id="stop3725" offset="1" stop-color="#5c5c5c" stop-opacity="1"/></linearGradient><linearGradient id="linearGradient3670" x1="16.162" x2="76.838" y1="52.099" y2="52.099" gradientUnits="userSpaceOnUse" xlink:href="#linearGradient3664"/><linearGradient id="linearGradient3664"><stop id="stop3666" offset="0" stop-color="#000" stop-opacity=".298"/><stop id="stop3668" offset="1" stop-color="#fff" stop-opacity=".645"/></linearGradient><linearGradient id="linearGradient3681"><stop id="stop3683" offset="0" stop-color="#fff" stop-opacity=".185"/><stop id="stop3689" offset=".309" stop-color="#fff" stop-opacity=".109"/><stop id="stop3691" offset=".436" stop-color="#000" stop-opacity="0"/><stop id="stop3693" offset=".545" stop-color="#000" stop-opacity="0"/><stop id="stop3695" offset=".583" stop-color="#fff" stop-opacity="0"/><stop id="stop3697" offset=".615" stop-color="#000" stop-opacity=".181"/><stop id="stop3699" offset=".691" stop-color="#000" stop-opacity=".431"/><stop id="stop3701" offset=".781" stop-color="#fff" stop-opacity=".081"/><stop id="stop3703" offset=".876" stop-color="#000" stop-opacity="0"/><stop id="stop3685" offset="1" stop-color="#fff" stop-opacity="0"/></linearGradient><linearGradient id="linearGradient3797"><stop id="stop3799" offset="0" stop-color="#fff" stop-opacity="1"/><stop id="stop3805" offset=".5" stop-color="#fff" stop-opacity="1"/><stop id="stop3801" offset="1" stop-color="#fff" stop-opacity="0"/></linearGradient><linearGradient id="linearGradient3881"><stop id="stop3883" offset="0" stop-color="#d40000" stop-opacity="0"/><stop id="stop3889" offset=".5" stop-color="#d40000" stop-opacity="1"/><stop id="stop3885" offset="1" stop-color="#d40000" stop-opacity="0"/></linearGradient><linearGradient id="linearGradient3891"><stop id="stop3893" offset="0" stop-color="#d42aff" stop-opacity="0"/><stop id="stop3899" offset=".5" stop-color="#d42aff" stop-opacity="1"/><stop id="stop3895" offset="1" stop-color="#d42aff" stop-opacity="0"/></linearGradient><linearGradient id="linearGradient3901"><stop id="stop3903" offset="0" stop-color="#60f" stop-opacity="0"/><stop id="stop3909" offset=".5" stop-color="#60f" stop-opacity="1"/><stop id="stop3905" offset="1" stop-color="#60f" stop-opacity="0"/></linearGradient><linearGradient id="linearGradient3911"><stop id="stop3913" offset="0" stop-color="#2a7fff" stop-opacity="0"/><stop id="stop3919" offset=".5" stop-color="#2a7fff" stop-opacity="1"/><stop id="stop3915" offset="1" stop-color="#2a7fff" stop-opacity="0"/></linearGradient><linearGradient id="linearGradient3921"><stop id="stop3923" offset="0" stop-color="#5fd3bc" stop-opacity="0"/><stop id="stop3929" offset=".5" stop-color="#5fd3bc" stop-opacity="1"/><stop id="stop3925" offset="1" stop-color="#5fd3bc" stop-opacity="0"/></linearGradient><linearGradient id="linearGradient3851"><stop id="stop3853" offset="0" stop-color="#55d400" stop-opacity="0"/><stop id="stop3859" offset=".5" stop-color="#55d400" stop-opacity="1"/><stop id="stop3855" offset="1" stop-color="#55d400" stop-opacity="0"/></linearGradient><linearGradient id="linearGradient3861"><stop id="stop3863" offset="0" stop-color="#fc0" stop-opacity="0"/><stop id="stop3869" offset=".5" stop-color="#fc0" stop-opacity="1"/><stop id="stop3865" offset="1" stop-color="#fc0" stop-opacity="0"/></linearGradient><linearGradient id="linearGradient3871"><stop id="stop3873" offset="0" stop-color="#f60" stop-opacity="0"/><stop id="stop3879" offset=".5" stop-color="#f60" stop-opacity="1"/><stop id="stop3875" offset="1" stop-color="#f60" stop-opacity="0"/></linearGradient><clipPath id="clipPath3798" clipPathUnits="userSpaceOnUse"><path id="path3800" fill="#f0f" fill-opacity="1" stroke="none" d="m 61.366765,45.997448 a 13.637059,13.637059 0 1 1 -27.274118,0 13.637059,13.637059 0 1 1 27.274118,0 z" transform="matrix(1.0266143,0,0,1.0266143,-0.999999,0.778362)"/></clipPath><linearGradient id="linearGradient4227" x1="5" x2="9" y1="5" y2="5" gradientTransform="translate(-12,7)" gradientUnits="userSpaceOnUse" xlink:href="#linearGradient4213"/><linearGradient id="linearGradient4233" x1="5" x2="9" y1="5" y2="5" gradientTransform="translate(-12,12)" gradientUnits="userSpaceOnUse" xlink:href="#linearGradient4213"/><linearGradient id="linearGradient4273" x1="5" x2="9" y1="5" y2="5" gradientTransform="translate(-22,3)" gradientUnits="userSpaceOnUse" xlink:href="#linearGradient4213"/><linearGradient id="linearGradient4279" x1="5" x2="9" y1="5" y2="5" gradientTransform="translate(-12,2)" gradientUnits="userSpaceOnUse" xlink:href="#linearGradient4213"/><linearGradient id="linearGradient4321" x1="6" x2="9" y1="5" y2="5" gradientTransform="translate(-12,-12)" gradientUnits="userSpaceOnUse" xlink:href="#linearGradient4315"/><linearGradient id="linearGradient4325" x1="5" x2="9" y1="5" y2="5" gradientTransform="translate(-17,9)" gradientUnits="userSpaceOnUse" xlink:href="#linearGradient4213"/><linearGradient id="linearGradient4329" x1="5" x2="11" y1="5" y2="5" gradientTransform="translate(-14,3)" gradientUnits="userSpaceOnUse" xlink:href="#linearGradient4213"/><linearGradient id="linearGradient4333" x1="5" x2="9" y1="5" y2="5" gradientTransform="translate(-22,11)" gradientUnits="userSpaceOnUse" xlink:href="#linearGradient4213"/><linearGradient id="linearGradient4337" x1="6" x2="9" y1="5" y2="5" gradientTransform="translate(-12,-22)" gradientUnits="userSpaceOnUse" xlink:href="#linearGradient4315"/><linearGradient id="linearGradient4341" x1="6" x2="9" y1="5" y2="5" gradientTransform="translate(-12,-17)" gradientUnits="userSpaceOnUse" xlink:href="#linearGradient4315"/><linearGradient id="linearGradient4345" x1="6" x2="11" y1="5" y2="5" gradientTransform="translate(-14,-15)" gradientUnits="userSpaceOnUse" xlink:href="#linearGradient4315"/><linearGradient id="linearGradient4349" x1="6" x2="9" y1="5" y2="5" gradientTransform="translate(-17,-19)" gradientUnits="userSpaceOnUse" xlink:href="#linearGradient4315"/><linearGradient id="linearGradient4353" x1="6" x2="9" y1="5" y2="5" gradientTransform="translate(-22,-21)" gradientUnits="userSpaceOnUse" xlink:href="#linearGradient4315"/><linearGradient id="linearGradient4357" x1="6" x2="9" y1="5" y2="5" gradientTransform="translate(-22,-16)" gradientUnits="userSpaceOnUse" xlink:href="#linearGradient4315"/><linearGradient id="linearGradient3996" x1="5" x2="9" y1="5" y2="5" gradientTransform="translate(-17,-26)" gradientUnits="userSpaceOnUse" xlink:href="#linearGradient4213"/><linearGradient id="linearGradient3998" x1="5" x2="9" y1="5" y2="5" gradientTransform="translate(-17,-21)" gradientUnits="userSpaceOnUse" xlink:href="#linearGradient4213"/><linearGradient id="linearGradient4000" x1="5" x2="9" y1="5" y2="5" gradientTransform="translate(-22,-27)" gradientUnits="userSpaceOnUse" xlink:href="#linearGradient4213"/><linearGradient id="linearGradient4002" x1="6" x2="9" y1="5" y2="5" gradientTransform="translate(-17,16)" gradientUnits="userSpaceOnUse" xlink:href="#linearGradient4315"/><linearGradient id="linearGradient4004" x1="6" x2="9" y1="5" y2="5" gradientTransform="translate(-17,11)" gradientUnits="userSpaceOnUse" xlink:href="#linearGradient4315"/><linearGradient id="linearGradient4006" x1="6" x2="9" y1="5" y2="5" gradientTransform="translate(-22,14)" gradientUnits="userSpaceOnUse" xlink:href="#linearGradient4315"/><linearGradient id="linearGradient4012" x1="5" x2="9" y1="5" y2="5" gradientTransform="translate(-15,10)" gradientUnits="userSpaceOnUse" xlink:href="#linearGradient4213"/><linearGradient id="linearGradient4014" x1="6" x2="9" y1="5" y2="5" gradientTransform="translate(-14,-23)" gradientUnits="userSpaceOnUse" xlink:href="#linearGradient4315"/><linearGradient id="linearGradient4020" x1="5" x2="9" y1="5" y2="5" gradientTransform="translate(-15,10)" gradientUnits="userSpaceOnUse" xlink:href="#linearGradient4213"/><linearGradient id="linearGradient4022" x1="6" x2="9" y1="5" y2="5" gradientTransform="translate(-14,-22)" gradientUnits="userSpaceOnUse" xlink:href="#linearGradient4315"/><linearGradient id="linearGradient4028" x1="5" x2="9" y1="5" y2="5" gradientTransform="translate(-23,2)" gradientUnits="userSpaceOnUse" xlink:href="#linearGradient4213"/><linearGradient id="linearGradient4030" x1="6" x2="9" y1="5" y2="5" gradientTransform="translate(-22,-14)" gradientUnits="userSpaceOnUse" xlink:href="#linearGradient4315"/><linearGradient id="linearGradient4036" x1="5" x2="11" y1="5" y2="5" gradientTransform="translate(-14,10)" gradientUnits="userSpaceOnUse" xlink:href="#linearGradient4213"/><linearGradient id="linearGradient4038" x1="6" x2="11" y1="5" y2="5" gradientTransform="translate(-14,-22)" gradientUnits="userSpaceOnUse" xlink:href="#linearGradient4315"/><linearGradient id="linearGradient4044" x1="5" x2="11" y1="5" y2="5" gradientTransform="translate(-21,2)" gradientUnits="userSpaceOnUse" xlink:href="#linearGradient4213"/><linearGradient id="linearGradient4046" x1="6" x2="11" y1="5" y2="5" gradientTransform="translate(-21,-14)" gradientUnits="userSpaceOnUse" xlink:href="#linearGradient4315"/><linearGradient id="linearGradient4060" x1="6" x2="11" y1="5" y2="5" gradientTransform="matrix(0,-1,-1,0,15,21)" gradientUnits="userSpaceOnUse" xlink:href="#linearGradient4315"/><linearGradient id="linearGradient4062" x1="5" x2="11" y1="5" y2="5" gradientTransform="matrix(0,-1,1,0,3,21)" gradientUnits="userSpaceOnUse" xlink:href="#linearGradient4213"/><linearGradient id="linearGradient4066" x1="5" x2="11" y1="5" y2="5" gradientTransform="translate(-14,10)" gradientUnits="userSpaceOnUse" xlink:href="#linearGradient4213"/><linearGradient id="linearGradient4092" x1="5" x2="11" y1="5" y2="5" gradientTransform="matrix(0,-1,1,0,20,16)" gradientUnits="userSpaceOnUse" xlink:href="#linearGradient4213"/><linearGradient id="linearGradient4094" x1="6" x2="11" y1="5" y2="5" gradientTransform="translate(-14,-32)" gradientUnits="userSpaceOnUse" xlink:href="#linearGradient4315"/><linearGradient id="linearGradient3078" x1="10" x2="10" y1="1" y2="16" gradientTransform="translate(1,-1)" gradientUnits="userSpaceOnUse" xlink:href="#linearGradient3823"/><linearGradient id="linearGradient3823"><stop id="stop3825" offset="0" stop-color="#fff" stop-opacity="1"/><stop id="stop3829" offset="1" stop-color="#fff" stop-opacity="0"/></linearGradient><linearGradient id="linearGradient3845" x1="11" x2="21" y1="19.5" y2="19.5" gradientTransform="translate(1,-1)" gradientUnits="userSpaceOnUse" spreadMethod="reflect" xlink:href="#linearGradient3831"/><linearGradient id="linearGradient3831"><stop id="stop3833" offset="0" stop-color="#fff" stop-opacity="1"/><stop id="stop3821" offset=".75" stop-color="#fff" stop-opacity=".498"/><stop id="stop3835" offset="1" stop-color="#fff" stop-opacity="0"/></linearGradient><linearGradient id="linearGradient3961" x1="10" x2="10" y1="1" y2="16" gradientTransform="translate(1,-1)" gradientUnits="userSpaceOnUse" xlink:href="#linearGradient3823"/></defs><metadata id="metadata7"/><g id="layer1" transform="translate(0,2)"><g id="g3337" display="inline" transform="translate(1,-1)"><rect id="rect3371" width="21" height="21.5" x=".5" y=".5" fill="url(#linearGradient3335)" fill-opacity="1" stroke="none" display="inline" opacity=".3" rx="2.5" ry="2.5"/><rect id="rect2553" width="20" height="20" x="1" y="2" fill="#000" fill-opacity="1" stroke="none" display="inline" opacity=".5" rx="2.381" ry="2.326"/></g><rect id="rect3173" width="20" height="20" x="2" y="0" fill="url(#linearGradient3181)" fill-opacity="1" fill-rule="evenodd" stroke="none" display="inline" opacity=".96" rx="2" ry="2"/><path id="rect3050" fill="url(#linearGradient3961)" fill-opacity="1" fill-rule="evenodd" stroke="none" d="M 4,0 C 2.892,0 2,0.892 2,2 l 0,16 c 0,1.108 0.892,2 2,2 l 16,0 c 1.108,0 2,-0.892 2,-2 L 22,2 C 22,0.892 21.108,0 20,0 L 4,0 z m 0,1.03125 16,0 c 0.5497,0 0.96875,0.4190495 0.96875,0.96875 l 0,16 c 0,0.5497 -0.41905,0.96875 -0.96875,0.96875 l -16,0 C 3.4502995,18.96875 3.03125,18.5497 3.03125,18 l 0,-16 C 3.03125,1.4502995 3.4502995,1.03125 4,1.03125 z" display="inline" opacity=".5"/><path id="path3235" fill="url(#linearGradient3845)" fill-opacity="1" fill-rule="evenodd" stroke="none" d="M 4,20 C 2.892,20 2,19.108 2,18 l 0,-1 c 0,1.108 0.892,2 2,2 l 16,0 c 1.108,0 2,-0.892 2,-2 l 0,1 c 0,1.108 -0.892,2 -2,2 L 4,20 z" display="inline" opacity=".3"/></g><g id="layer2" transform="translate(0,2)"><rect id="rect2410" width="16" height="16" x="3" y="3" fill="#fff" fill-opacity="1" fill-rule="nonzero" stroke="none" clip-path="url(#clipPath2849)" display="inline" filter="url(#filter3194)" opacity=".5" rx="2" ry="2" transform="translate(1,-1)"/></g><g id="layer3" transform="translate(0,2)"><path id="rect4050" fill="#333" fill-opacity="1" fill-rule="nonzero" stroke="none" stroke-width="1" d="M 6.25,2 C 5.5575,2 5,2.5575 5,3.25 l 0,5 0,0.5 0,7 C 5,16.4425 5.5575,17 6.25,17 l 10.5,0 C 17.4425,17 18,16.4425 18,15.75 L 18,10 18.75,10 C 19.4425,10 20,9.4425 20,8.75 l 0,-5.5 C 20,2.5575 19.4425,2 18.75,2 L 6.25,2 z" color="#000" display="inline" enable-background="accumulate" opacity=".5" overflow="visible" visibility="visible" style="marker:none"/><rect id="rect4241" width="6" height="6" x="-9" y="6" fill="url(#linearGradient4329)" fill-opacity="1" fill-rule="nonzero" stroke="none" stroke-width="1" color="#000" display="inline" enable-background="accumulate" overflow="visible" rx="1" ry="1" transform="matrix(0,-1,1,0,0,0)" visibility="visible" style="marker:none"/><rect id="rect4343" width="4" height="4" x="-8" y="-11" fill="url(#linearGradient4345)" fill-opacity="1" fill-rule="nonzero" stroke="none" stroke-width="1" color="#000" display="inline" enable-background="accumulate" overflow="visible" rx=".5" transform="matrix(0,-1,-1,0,0,0)" visibility="visible" style="marker:none"/><rect id="rect3968" width="4" height="4" x="-12" y="-23" fill="url(#linearGradient3996)" fill-opacity="1" fill-rule="nonzero" stroke="none" stroke-width="1" color="#000" display="inline" enable-background="accumulate" overflow="visible" rx=".5" ry=".5" transform="matrix(0,-1,1,0,0,0)" visibility="visible" style="marker:none"/><rect id="rect3970" width="4" height="4" x="-12" y="-18" fill="url(#linearGradient3998)" fill-opacity="1" fill-rule="nonzero" stroke="none" stroke-width="1" color="#000" display="inline" enable-background="accumulate" overflow="visible" rx=".5" ry=".5" transform="matrix(0,-1,1,0,0,0)" visibility="visible" style="marker:none"/><rect id="rect3972" width="4" height="7" x="-17" y="-24" fill="url(#linearGradient4000)" fill-opacity="1" fill-rule="nonzero" stroke="none" stroke-width="1" color="#000" display="inline" enable-background="accumulate" overflow="visible" rx=".5" ry=".5" transform="matrix(0,-1,1,0,0,0)" visibility="visible" style="marker:none"/><path id="path3974" fill="#000" fill-opacity="1" fill-rule="nonzero" stroke="none" stroke-width="1" d="m -23,11.5 0,1 c 0,0.277 0.223,0.5 0.5,0.5 l 3,0 c 0.277,0 0.5,-0.223 0.5,-0.5 l 0,-1 c 0,0.277 -0.223,0.5 -0.5,0.5 l -3,0 c -0.277,0 -0.5,-0.223 -0.5,-0.5 z" color="#000" display="inline" enable-background="accumulate" opacity=".6" overflow="visible" visibility="visible" style="marker:none"/><path id="path3976" fill="#000" fill-opacity="1" fill-rule="nonzero" stroke="none" stroke-width="1" d="m -18,11.5 0,1 c 0,0.277 0.223,0.5 0.5,0.5 l 3,0 c 0.277,0 0.5,-0.223 0.5,-0.5 l 0,-1 c 0,0.277 -0.223,0.5 -0.5,0.5 l -3,0 c -0.277,0 -0.5,-0.223 -0.5,-0.5 z" color="#000" display="inline" enable-background="accumulate" opacity=".6" overflow="visible" visibility="visible" style="marker:none"/><path id="path3978" fill="#000" fill-opacity="1" fill-rule="nonzero" stroke="none" stroke-width="1" d="m -24,16.5 0,1 c 0,0.277 0.223,0.5 0.5,0.5 l 6,0 c 0.277,0 0.5,-0.223 0.5,-0.5 l 0,-1 c 0,0.277 -0.223,0.5 -0.5,0.5 l -6,0 c -0.277,0 -0.5,-0.223 -0.5,-0.5 z" color="#000" display="inline" enable-background="accumulate" opacity=".6" overflow="visible" visibility="visible" style="marker:none"/><rect id="rect3980" width="2" height="2" x="-11" y="20" fill="url(#linearGradient4002)" fill-opacity="1" fill-rule="nonzero" stroke="none" stroke-width="1" color="#000" display="inline" enable-background="accumulate" overflow="visible" rx=".25" ry=".25" transform="matrix(0,-1,-1,0,0,0)" visibility="visible" style="marker:none"/><rect id="rect3982" width="2" height="2" x="-11" y="15" fill="url(#linearGradient4004)" fill-opacity="1" fill-rule="nonzero" stroke="none" stroke-width="1" color="#000" display="inline" enable-background="accumulate" overflow="visible" rx=".25" ry=".25" transform="matrix(0,-1,-1,0,0,0)" visibility="visible" style="marker:none"/><rect id="rect3984" width="2" height="5" x="-16" y="18" fill="url(#linearGradient4006)" fill-opacity="1" fill-rule="nonzero" stroke="none" stroke-width="1" color="#000" display="inline" enable-background="accumulate" overflow="visible" rx=".25" ry=".25" transform="matrix(0,-1,-1,0,0,0)" visibility="visible" style="marker:none"/><rect id="rect3986" width="1" height="1" x="-17" y="9" fill="#000" fill-opacity="1" fill-rule="nonzero" stroke="none" stroke-width="1" color="#000" display="inline" enable-background="accumulate" opacity=".3" overflow="visible" visibility="visible" style="marker:none"/><rect id="rect3988" width="1" height="1" x="-22" y="9" fill="#000" fill-opacity="1" fill-rule="nonzero" stroke="none" stroke-width="1" color="#000" display="inline" enable-background="accumulate" opacity=".3" overflow="visible" visibility="visible" style="marker:none"/><rect id="rect3990" width="1" height="1" x="-23" y="14" fill="#000" fill-opacity="1" fill-rule="nonzero" stroke="none" stroke-width="1" color="#000" display="inline" enable-background="accumulate" opacity=".5" overflow="visible" visibility="visible" style="marker:none"/><rect id="rect3992" width="1" height="1" x="-22" y="14" fill="#000" fill-opacity="1" fill-rule="nonzero" stroke="none" stroke-width="1" color="#000" display="inline" enable-background="accumulate" opacity=".3" overflow="visible" visibility="visible" style="marker:none"/><rect id="rect3994" width="1" height="1" x="-21" y="14" fill="#000" fill-opacity="1" fill-rule="nonzero" stroke="none" stroke-width="1" color="#000" display="inline" enable-background="accumulate" opacity=".4" overflow="visible" visibility="visible" style="marker:none"/><path id="path4085" fill="#000" fill-opacity="1" fill-rule="nonzero" stroke="none" stroke-width="1" d="m 6,8 0,1 c 0,0.554 0.446,1 1,1 l 4,0 c 0.554,0 1,-0.446 1,-1 l 0,-1 c 0,0.554 -0.446,1 -1,1 L 7,9 C 6.446,9 6,8.554 6,8 z m 7,0 0,1 c 0,0.554 0.446,1 1,1 l 2,0 2,0 c 0.554,0 1,-0.446 1,-1 l 0,-1 c 0,0.554 -0.446,1 -1,1 L 14,9 C 13.446,9 13,8.554 13,8 z m -7,7 0,1 c 0,0.554 0.446,1 1,1 l 9,0 c 0.554,0 1,-0.446 1,-1 l 0,-1 c 0,0.554 -0.446,1 -1,1 L 7,16 C 6.446,16 6,15.554 6,15 z" color="#000" display="inline" enable-background="accumulate" opacity=".6" overflow="visible" visibility="visible" style="marker:none"/><path id="path4068" fill="red" fill-opacity="1" fill-rule="nonzero" stroke="none" stroke-width="1" d="M 14 3.96875 C 12.900763 3.96875 11.96875 4.9007631 11.96875 6 L 11.96875 10 C 11.96875 10.348325 12.055913 10.678342 12.21875 10.96875 L 7 10.96875 C 5.900763 10.96875 4.96875 11.900763 4.96875 13 L 4.96875 17 C 4.96875 18.099237 5.900763 19.03125 7 19.03125 L 16 19.03125 C 17.099237 19.03125 18.03125 18.099237 18.03125 17 L 18.03125 13 C 18.03125 12.651675 17.944087 12.321658 17.78125 12.03125 L 18 12.03125 C 19.099237 12.03125 20.03125 11.099237 20.03125 10 L 20.03125 6 C 20.03125 4.9007631 19.099237 3.96875 18 3.96875 L 14 3.96875 z" color="#000" display="inline" enable-background="accumulate" opacity=".6" overflow="visible" transform="translate(0,-2)" visibility="visible" style="marker:none"/><rect id="rect4032" width="6" height="6" x="-9" y="13" fill="url(#linearGradient4036)" fill-opacity="1" fill-rule="nonzero" stroke="none" stroke-width="1" color="#000" display="inline" enable-background="accumulate" overflow="visible" rx="1" ry="1" transform="matrix(0,-1,1,0,0,0)" visibility="visible" style="marker:none"/><rect id="rect4034" width="4" height="4" x="-8" y="-18" fill="url(#linearGradient4038)" fill-opacity="1" fill-rule="nonzero" stroke="none" stroke-width="1" color="#000" display="inline" enable-background="accumulate" overflow="visible" rx=".5" transform="matrix(0,-1,-1,0,0,0)" visibility="visible" style="marker:none"/><path id="rect4040" fill="url(#linearGradient4062)" fill-opacity="1" fill-rule="nonzero" stroke="none" stroke-width="1" d="m 6,15 0,-4 c 0,-0.554 0.446,-1 1,-1 l 9,0 c 0.554,0 1,0.446 1,1 l 0,4 c 0,0.554 -0.446,1 -1,1 L 7,16 C 6.446,16 6,15.554 6,15 z" color="#000" display="inline" enable-background="accumulate" overflow="visible" visibility="visible" style="marker:none"/><path id="rect4042" fill="url(#linearGradient4060)" fill-opacity="1" fill-rule="nonzero" stroke="none" stroke-width="1" d="m 16,14.5 0,-3 C 16,11.223 15.777,11 15.5,11 l -8,0 C 7.223,11 7,11.223 7,11.5 l 0,3 C 7,14.777 7.223,15 7.5,15 l 8,0 c 0.277,0 0.5,-0.223 0.5,-0.5 z" color="#000" display="inline" enable-background="accumulate" overflow="visible" visibility="visible" style="marker:none"/><path id="path4055" fill="#fff" fill-opacity="1" fill-rule="nonzero" stroke="none" stroke-width="1" d="M 20,8.75 C 20,9.4425 19.4425,10 18.75,10 l -0.75,0 0,1 0.75,0 C 19.4425,11 20,10.4425 20,9.75 l 0,-1 z m -15,7 0,1 C 5,17.4425 5.5575,18 6.25,18 l 10.5,0 C 17.4425,18 18,17.4425 18,16.75 l 0,-1 C 18,16.4425 17.4425,17 16.75,17 L 6.25,17 C 5.5575,17 5,16.4425 5,15.75 z" color="#000" display="inline" enable-background="accumulate" opacity=".6" overflow="visible" visibility="visible" style="marker:none"/><path id="rect4088" fill="red" fill-opacity="1" fill-rule="nonzero" stroke="none" stroke-width="1" d="m 14,3 c -0.554,0 -1,0.446 -1,1 l 0,4 c 0,0.554 0.446,1 1,1 l 4,0 c 0.554,0 1,-0.446 1,-1 L 19,4 C 19,3.446 18.554,3 18,3 l -4,0 z m 0.5,1 3,0 C 17.777,4 18,4.223 18,4.5 l 0,3 C 18,7.777 17.777,8 17.5,8 l -3,0 C 14.223,8 14,7.777 14,7.5 l 0,-3 C 14,4.223 14.223,4 14.5,4 z" color="#000" display="inline" enable-background="accumulate" opacity=".2" overflow="visible" visibility="visible" style="marker:none"/><path id="path4101" fill="red" fill-opacity="1" fill-rule="nonzero" stroke="none" stroke-width="1" d="m 7,10 c -0.554,0 -1,0.446 -1,1 l 0,4 c 0,0.554 0.446,1 1,1 l 9,0 c 0.554,0 1,-0.446 1,-1 l 0,-4 c 0,-0.554 -0.446,-1 -1,-1 l -9,0 z m 0.5,1 8,0 c 0.277,0 0.5,0.223 0.5,0.5 l 0,3 c 0,0.277 -0.223,0.5 -0.5,0.5 l -8,0 C 7.223,15 7,14.777 7,14.5 l 0,-3 C 7,11.223 7.223,11 7.5,11 z" color="#000" display="inline" enable-background="accumulate" opacity=".2" overflow="visible" visibility="visible" style="marker:none"/><g font-stretch="normal" style="text-align:start;line-height:125%;-inkscape-font-specification:Liberation Sans" id="text4104" fill="#4d4d4d" fill-opacity="1" stroke="none" font-family="Liberation Sans" font-size="3" font-style="normal" font-variant="normal" font-weight="normal" text-anchor="start" writing-mode="lr-tb"><path id="path4120" fill="#4d4d4d" d="m 9.7094727,7 -0.2358399,-0.6035156 -0.9404297,0 L 8.2958984,7 8.0058594,7 8.8481445,4.9360352 l 0.3178711,0 L 9.9951172,7 9.7094727,7 M 9.125,5.4970703 c -0.015626,-0.039061 -0.030763,-0.078612 -0.04541,-0.1186523 -0.013673,-0.040037 -0.02588,-0.07617 -0.036621,-0.1083985 -0.010743,-0.033201 -0.020021,-0.060545 -0.027832,-0.082031 -0.00684,-0.022459 -0.010743,-0.036131 -0.011719,-0.041016 -0.00195,0.00488 -0.00635,0.018556 -0.013184,0.041016 -0.00684,0.022463 -0.016114,0.050295 -0.027832,0.083496 -0.010743,0.033205 -0.023438,0.069826 -0.038086,0.1098633 C 8.9106436,5.4213883 8.8964835,5.460939 8.8818359,5.5 l -0.2636718,0.6782227 0.7719726,0 L 9.125,5.4970703"/></g><g font-stretch="normal" style="text-align:start;line-height:125%;-inkscape-font-specification:Liberation Sans" id="text4108" fill="#4d4d4d" fill-opacity="1" stroke="none" font-family="Liberation Sans" font-size="3" font-style="normal" font-variant="normal" font-weight="normal" text-anchor="start" writing-mode="lr-tb"><path id="path4117" fill="#4d4d4d" d="m 16.73877,7 -1.643555,0 0,-0.2094727 1.256836,-1.6259765 -1.149903,0 0,-0.2285156 1.467774,0 0,0.2036132 -1.256836,1.631836 1.325684,0 0,0.2285156"/></g><g font-stretch="normal" style="text-align:start;line-height:125%;-inkscape-font-specification:Liberation Sans" id="text4112" fill="#4d4d4d" fill-opacity="1" stroke="none" font-family="Liberation Sans" font-size="3" font-style="normal" font-variant="normal" font-weight="normal" text-anchor="start" writing-mode="lr-tb"><path id="path4123" fill="#4d4d4d" d="m 9.1601563,12.133789 c -0.1171886,2e-6 -0.2211924,0.01953 -0.3120118,0.05859 -0.089844,0.03906 -0.165528,0.09473 -0.2270507,0.166992 -0.060548,0.07227 -0.1064459,0.159181 -0.1376954,0.260742 -0.03125,0.101564 -0.046875,0.214357 -0.046875,0.338379 -4e-7,0.124024 0.016601,0.237794 0.049805,0.341309 0.034179,0.102539 0.082519,0.190918 0.1450196,0.265136 0.063476,0.07422 0.1406242,0.131837 0.2314453,0.172852 0.091796,0.04102 0.1948231,0.06152 0.309082,0.06152 0.080077,1e-6 0.1528307,-0.01025 0.2182617,-0.03076 0.066405,-0.02148 0.1259751,-0.05127 0.178711,-0.08936 0.053709,-0.03809 0.1015608,-0.08301 0.1435546,-0.134765 0.04199,-0.05273 0.0791,-0.11084 0.1113282,-0.174317 l 0.2285155,0.114258 c -0.03711,0.07715 -0.08301,0.148926 -0.1376952,0.215332 -0.054689,0.06641 -0.1191424,0.124024 -0.1933594,0.172852 -0.073244,0.04883 -0.1567398,0.0874 -0.2504883,0.115722 -0.092775,0.02734 -0.1967786,0.04102 -0.3120117,0.04102 -0.1669932,0 -0.3134774,-0.02637 -0.4394531,-0.0791 -0.1250006,-0.05371 -0.229981,-0.127929 -0.3149414,-0.222656 -0.083985,-0.0957 -0.1469729,-0.208984 -0.1889649,-0.339844 -0.041992,-0.130858 -0.062988,-0.273925 -0.062988,-0.429199 -2e-7,-0.161132 0.021972,-0.306639 0.065918,-0.436523 0.044922,-0.129882 0.109863,-0.240233 0.1948242,-0.331055 0.085937,-0.09179 0.1914057,-0.162107 0.3164063,-0.210938 0.1249991,-0.0498 0.2675771,-0.0747 0.4277344,-0.07471 0.2197251,3e-6 0.4033187,0.04297 0.5507812,0.128907 0.1474591,0.08594 0.2558574,0.21338 0.3251952,0.382324 l -0.2651366,0.08789 c -0.019533,-0.04883 -0.0459,-0.09521 -0.079102,-0.139161 -0.033205,-0.04492 -0.074709,-0.08447 -0.1245117,-0.118652 -0.049806,-0.03418 -0.1083999,-0.06152 -0.1757812,-0.08203 -0.066408,-0.02051 -0.1425794,-0.03076 -0.2285156,-0.03076"/><path id="path4125" fill="#4d4d4d" d="m 10.979492,13.988281 c -0.04004,0.01074 -0.08106,0.01904 -0.123047,0.0249 -0.04102,0.0068 -0.08887,0.01025 -0.143554,0.01025 -0.210938,-1e-6 -0.316407,-0.119629 -0.316407,-0.358887 l 0,-1.057617 -0.183105,0 0,-0.191895 0.193359,0 0.07764,-0.354492 0.175781,0 0,0.354492 0.292969,0 0,0.191895 -0.292969,0 0,1.000488 c 0,0.07617 0.01221,0.129883 0.03662,0.161133 0.02539,0.03027 0.06885,0.04541 0.130371,0.04541 0.02539,0 0.0498,-0.002 0.07324,-0.0059 0.02441,-0.0039 0.05078,-0.0088 0.0791,-0.01465 l 0,0.194824"/><path id="path4127" fill="#4d4d4d" d="m 11.208008,14 0,-1.21582 c 0,-0.0332 -4.89e-4,-0.06689 -0.0015,-0.101075 0,-0.03515 -4.89e-4,-0.06885 -0.0015,-0.101074 -9.77e-4,-0.03223 -0.002,-0.0625 -0.0029,-0.09082 -9.76e-4,-0.02832 -0.002,-0.05371 -0.0029,-0.07617 l 0.249023,0 c 9.76e-4,0.02246 0.002,0.04834 0.0029,0.07764 0.002,0.02832 0.0034,0.05762 0.0044,0.08789 0.002,0.03028 0.0029,0.05957 0.0029,0.08789 9.76e-4,0.02735 0.0015,0.05078 0.0015,0.07031 l 0.0059,0 c 0.01855,-0.06055 0.03809,-0.112792 0.05859,-0.156739 0.02148,-0.04492 0.04639,-0.08154 0.07471,-0.109863 0.02832,-0.02929 0.06201,-0.05078 0.101074,-0.06445 0.03906,-0.01465 0.08642,-0.02197 0.14209,-0.02197 0.02148,2e-6 0.04199,0.002 0.06152,0.0059 0.01953,0.0029 0.03467,0.0059 0.04541,0.0088 l 0,0.241699 c -0.01758,-0.0049 -0.03809,-0.0083 -0.06152,-0.01025 -0.02344,-0.0029 -0.04981,-0.0044 -0.0791,-0.0044 -0.06055,2e-6 -0.112306,0.01367 -0.155274,0.04102 -0.04199,0.02735 -0.07666,0.06543 -0.104004,0.114258 -0.02637,0.04785 -0.0459,0.10547 -0.05859,0.172851 -0.0127,0.06641 -0.01904,0.139161 -0.01904,0.218262 l 0,0.826172 -0.263672,0"/><path id="path4129" fill="#4d4d4d" d="m 12.204102,14 0,-2.173828 0.263671,0 0,2.173828 -0.263671,0"/></g></g></svg>