<svg xmlns="http://www.w3.org/2000/svg" xmlns:svg="http://www.w3.org/2000/svg" xmlns:xlink="http://www.w3.org/1999/xlink" id="svg2" width="24" height="24" display="inline" version="1.0"><defs id="defs4"><linearGradient id="linearGradient3667"><stop id="stop3669" offset="0" stop-color="#999" stop-opacity="1"/><stop id="stop3671" offset="1" stop-color="#999" stop-opacity="0"/></linearGradient><linearGradient id="linearGradient3327"><stop id="stop3330" offset="0" stop-color="#000" stop-opacity="1"/><stop id="stop3333" offset="1" stop-color="#000" stop-opacity="0"/></linearGradient><linearGradient id="linearGradient3335" x1="11.375" x2="11.375" y1="22" y2="-9.817" gradientUnits="userSpaceOnUse" xlink:href="#linearGradient3327"/><linearGradient id="linearGradient3181" x1="-3.061" x2="-3.061" y1="27.258" y2="7.254" gradientTransform="translate(12.119372,-7.258198)" gradientUnits="userSpaceOnUse" xlink:href="#linearGradient3664"/><linearGradient id="ButtonShadow" x1="9.355" x2="9.355" y1="21.743" y2=".494" gradientTransform="scale(0.9883037,1.0118347)" gradientUnits="userSpaceOnUse"><stop id="stop3277" offset="0" stop-color="#000" stop-opacity=".706"/><stop id="stop3279" offset="1" stop-color="#000" stop-opacity=".157"/></linearGradient><linearGradient id="linearGradient3232"><stop id="stop3234" offset="0" stop-color="#000" stop-opacity="1"/><stop id="stop3236" offset="1" stop-color="#000" stop-opacity="0"/></linearGradient><linearGradient id="linearGradient3221" x1="11" x2="11" y1="14.806" y2="-6" gradientUnits="userSpaceOnUse" xlink:href="#linearGradient3232"/><linearGradient id="ButtonColor" x1="10.32" x2="10.32" y1="21" y2=".999" gradientUnits="userSpaceOnUse"><stop id="stop3189" offset="0" stop-color="#29669f" stop-opacity="1"/><stop id="stop3191" offset="1" stop-color="#88b6e0" stop-opacity="1"/></linearGradient><linearGradient id="linearGradient38042" x1="9.355" x2="9.355" y1="21.743" y2=".494" gradientTransform="scale(0.9883037,1.0118347)" gradientUnits="userSpaceOnUse" xlink:href="#ButtonShadow"/><filter id="filter3194" width="1.36" height="1.36" x="-.18" y="-.18" color-interpolation-filters="sRGB"><feGaussianBlur id="feGaussianBlur3196" stdDeviation="1.2"/></filter><clipPath id="clipPath2849" clipPathUnits="userSpaceOnUse"><rect id="rect2851" width="20" height="20" x="1" y="1" fill="#fff" fill-opacity="1" fill-rule="evenodd" stroke="none" display="inline" rx="2" ry="2"/></clipPath><linearGradient id="linearGradient3617" x1="48" x2="48" y1="90" y2="5.988" gradientUnits="userSpaceOnUse" xlink:href="#linearGradient3664"/><linearGradient id="linearGradient3664"><stop id="stop3666" offset="0" stop-color="#c8c8c8" stop-opacity="1"/><stop id="stop3668" offset=".791" stop-color="#c8c8c8" stop-opacity="1"/><stop id="stop3672" offset=".915" stop-color="#dadada" stop-opacity="1"/><stop id="stop3670" offset="1" stop-color="#f0f0f0" stop-opacity="1"/></linearGradient><linearGradient id="linearGradient3673" x1="11" x2="11" y1="6" y2="18" gradientTransform="matrix(1,0,0,1.0769231,0,-1.4615385)" gradientUnits="userSpaceOnUse" xlink:href="#linearGradient3667"/><linearGradient id="linearGradient3761"><stop id="stop3763" offset="0" stop-color="#333" stop-opacity="1"/><stop id="stop3765" offset="1" stop-color="#515151" stop-opacity="1"/></linearGradient><linearGradient id="linearGradient3794"><stop id="stop3796" offset="0" stop-color="#ae0000" stop-opacity="1"/><stop id="stop3798" offset="1" stop-color="#ff3131" stop-opacity="1"/></linearGradient><linearGradient id="linearGradient3871"><stop id="stop3873" offset="0" stop-color="#333" stop-opacity="1"/><stop id="stop3875" offset="1" stop-color="#515151" stop-opacity="1"/></linearGradient><linearGradient id="linearGradient3078" x1="10" x2="10" y1="1" y2="16" gradientTransform="translate(1,-1)" gradientUnits="userSpaceOnUse" xlink:href="#linearGradient3823"/><linearGradient id="linearGradient3823"><stop id="stop3825" offset="0" stop-color="#fff" stop-opacity="1"/><stop id="stop3829" offset="1" stop-color="#fff" stop-opacity="0"/></linearGradient><linearGradient id="linearGradient3845" x1="11" x2="21" y1="19.5" y2="19.5" gradientTransform="translate(1,-1)" gradientUnits="userSpaceOnUse" spreadMethod="reflect" xlink:href="#linearGradient3831"/><linearGradient id="linearGradient3831"><stop id="stop3833" offset="0" stop-color="#fff" stop-opacity="1"/><stop id="stop3821" offset=".75" stop-color="#fff" stop-opacity=".498"/><stop id="stop3835" offset="1" stop-color="#fff" stop-opacity="0"/></linearGradient><linearGradient id="linearGradient3984" x1="10" x2="10" y1="1" y2="16" gradientTransform="translate(1,-1)" gradientUnits="userSpaceOnUse" xlink:href="#linearGradient3823"/><linearGradient id="linearGradient3850" x1="10" x2="10" y1="5" y2="2" gradientUnits="userSpaceOnUse" xlink:href="#linearGradient3871"/><linearGradient id="linearGradient3856" x1="10" x2="10" y1="1" y2="16" gradientTransform="translate(1,1)" gradientUnits="userSpaceOnUse" xlink:href="#linearGradient3823"/><linearGradient id="linearGradient3867" x1="4" x2="5" y1="3.5" y2="3.5" gradientUnits="userSpaceOnUse" xlink:href="#linearGradient3183-0"/><linearGradient id="linearGradient3913" x1="104" x2="120" y1="8" y2="8" gradientTransform="translate(-127,-27)" gradientUnits="userSpaceOnUse" xlink:href="#linearGradient3183-0"/><linearGradient id="linearGradient3183-0"><stop id="stop3185-9" offset="0" stop-color="#c80000" stop-opacity="1"/><stop id="stop3187-6" offset="1" stop-color="#f3604d" stop-opacity="1"/></linearGradient><linearGradient id="linearGradient3905" x1="104" x2="120" y1="8" y2="8" gradientTransform="translate(-104,104)" gradientUnits="userSpaceOnUse" xlink:href="#linearGradient3637"/><linearGradient id="linearGradient3637"><stop id="stop3639" offset="0" stop-color="#f0f0f0" stop-opacity="1"/><stop id="stop3641" offset="1" stop-color="#aaa" stop-opacity="1"/></linearGradient><linearGradient id="linearGradient3099" x1="104" x2="120" y1="8" y2="8" gradientTransform="translate(-121,-27)" gradientUnits="userSpaceOnUse" xlink:href="#linearGradient3637"/><linearGradient id="linearGradient3904" x1="3" x2="4" y1="3.5" y2="3.5" gradientTransform="translate(5,0)" gradientUnits="userSpaceOnUse" xlink:href="#linearGradient3183-0"/><linearGradient id="linearGradient3912" x1="3" x2="4" y1="3.5" y2="3.5" gradientTransform="translate(-12,4)" gradientUnits="userSpaceOnUse" xlink:href="#linearGradient3637"/><linearGradient id="linearGradient3916" x1="3" x2="4" y1="3.5" y2="3.5" gradientTransform="translate(-12,2)" gradientUnits="userSpaceOnUse" xlink:href="#linearGradient3637"/><linearGradient id="linearGradient3924" x1="4" x2="5" y1="3.5" y2="3.5" gradientUnits="userSpaceOnUse" xlink:href="#linearGradient3637"/><linearGradient id="linearGradient3928" x1="4" x2="5" y1="3.5" y2="3.5" gradientUnits="userSpaceOnUse" xlink:href="#linearGradient3637"/></defs><metadata id="metadata7"/><g id="layer1" display="inline" transform="translate(0,2)"><g id="g3337" display="inline" transform="translate(1,-1)"><rect id="rect3371" width="21" height="21.5" x=".5" y=".5" fill="url(#linearGradient3335)" fill-opacity="1" stroke="none" display="inline" opacity=".3" rx="2.5" ry="2.5"/><rect id="rect2553" width="20" height="20" x="1" y="2" fill="#000" fill-opacity="1" stroke="none" display="inline" opacity=".5" rx="2.381" ry="2.326"/></g><rect id="rect3173" width="20" height="18" x="2" y="2" fill="url(#linearGradient3181)" fill-opacity="1" fill-rule="evenodd" stroke="none" display="inline" rx="2" ry="2"/><path id="rect3050" fill="url(#linearGradient3984)" fill-opacity="1" fill-rule="evenodd" stroke="none" d="M 4,0 C 2.892,0 2,0.892 2,2 l 0,16 c 0,1.108 0.892,2 2,2 l 16,0 c 1.108,0 2,-0.892 2,-2 L 22,2 C 22,0.892 21.108,0 20,0 L 4,0 z m 0,1.03125 16,0 c 0.5497,0 0.96875,0.4190495 0.96875,0.96875 l 0,16 c 0,0.5497 -0.41905,0.96875 -0.96875,0.96875 l -16,0 C 3.4502995,18.96875 3.03125,18.5497 3.03125,18 l 0,-16 C 3.03125,1.4502995 3.4502995,1.03125 4,1.03125 z" display="inline" opacity=".5"/><path id="rect3071" fill="url(#linearGradient3850)" fill-opacity="1" fill-rule="nonzero" stroke="none" stroke-width="1" d="M 4,2 C 2.892,2 2,2.892 2,4 L 2,6 22,6 22,4 C 22,2.892 21.108,2 20,2 z" color="#000" display="inline" enable-background="accumulate" overflow="visible" transform="translate(0,-2)" visibility="visible" style="marker:none"/><path id="path3235" fill="url(#linearGradient3845)" fill-opacity="1" fill-rule="evenodd" stroke="none" d="M 4,20 C 2.892,20 2,19.108 2,18 l 0,-1 c 0,1.108 0.892,2 2,2 l 16,0 c 1.108,0 2,-0.892 2,-2 l 0,1 c 0,1.108 -0.892,2 -2,2 L 4,20 z" display="inline" opacity=".35"/><rect id="rect3665" width="18" height="13" x="3" y="6" fill="url(#linearGradient3673)" fill-opacity="1" fill-rule="nonzero" stroke="none" stroke-width="1.5" color="#000" display="inline" enable-background="accumulate" overflow="visible" visibility="visible" style="marker:none"/><rect id="rect3663" width="16" height="11" x="4" y="7" fill="#fff" fill-opacity="1" fill-rule="nonzero" stroke="none" stroke-width="1.5" color="#000" display="inline" enable-background="accumulate" overflow="visible" visibility="visible" style="marker:none"/><rect id="rect3675" width="18" height="1" x="3" y="18" fill="#fff" fill-opacity="1" fill-rule="nonzero" stroke="none" stroke-width="1.5" color="#000" display="inline" enable-background="accumulate" opacity=".3" overflow="visible" visibility="visible" style="marker:none"/><g id="text3686" fill="#fff" fill-opacity="1" stroke="none" font-family="Droid Sans" font-size="8" font-stretch="normal" font-style="normal" font-variant="normal" font-weight="bold" text-anchor="start" transform="matrix(0.15697285,0,0,0.15697285,7.8845841,0.404342)" writing-mode="lr-tb" style="text-align:start;line-height:125%;-inkscape-font-specification:Abandoned Bitplane Bold"><path id="path3691" fill="#fff" d="m 19.026227,14.949776 c -4e-6,0.255209 -0.04427,0.485678 -0.132813,0.691406 -0.08594,0.203126 -0.213545,0.377605 -0.382812,0.523437 -0.16667,0.14323 -0.372399,0.253907 -0.617188,0.332032 -0.242189,0.07813 -0.520835,0.117187 -0.835937,0.117187 -0.276043,0 -0.54297,-0.02865 -0.800781,-0.08594 -0.255209,-0.05729 -0.492188,-0.143229 -0.710938,-0.257813 l 0,-1.125 c 0.125,0.0599 0.251302,0.118491 0.378906,0.175781 0.127604,0.05469 0.25651,0.104168 0.386719,0.148438 0.132811,0.04427 0.264322,0.07943 0.394531,0.105469 0.132811,0.02604 0.264322,0.03906 0.394532,0.03906 0.13281,1e-6 0.246091,-0.01432 0.339843,-0.04297 0.09635,-0.03125 0.173175,-0.07292 0.230469,-0.125 0.05989,-0.05469 0.102862,-0.118488 0.128906,-0.191406 0.02864,-0.07552 0.04297,-0.15755 0.04297,-0.246094 -2e-6,-0.106769 -0.02344,-0.200519 -0.07031,-0.28125 -0.04427,-0.08333 -0.108076,-0.160154 -0.191407,-0.230468 -0.08073,-0.07292 -0.179689,-0.143227 -0.296875,-0.210938 -0.114585,-0.06771 -0.243491,-0.13932 -0.386718,-0.214844 -0.119794,-0.0625 -0.253908,-0.138018 -0.402344,-0.226562 -0.148439,-0.08854 -0.289064,-0.197914 -0.421875,-0.328125 -0.130209,-0.132809 -0.239584,-0.291663 -0.328125,-0.476563 -0.08854,-0.187496 -0.132813,-0.411454 -0.132813,-0.671875 0,-0.255203 0.04167,-0.483068 0.125,-0.683593 0.08594,-0.20312 0.207031,-0.373693 0.363282,-0.511719 0.156249,-0.14062 0.345051,-0.24739 0.566406,-0.320313 0.223957,-0.07291 0.473956,-0.109369 0.75,-0.109375 0.138018,6e-6 0.272133,0.0091 0.402344,0.02734 0.132809,0.01824 0.263018,0.04428 0.390625,0.07813 0.130205,0.03386 0.260413,0.07553 0.390625,0.125 0.130205,0.04949 0.264319,0.106776 0.402343,0.171875 l -0.390625,0.941406 c -0.11719,-0.05468 -0.226565,-0.10286 -0.328125,-0.144531 -0.101565,-0.04166 -0.200523,-0.07682 -0.296875,-0.105469 -0.09636,-0.02864 -0.191408,-0.04947 -0.285156,-0.0625 -0.09115,-0.01562 -0.183596,-0.02343 -0.277344,-0.02344 -0.203127,5e-6 -0.359376,0.05469 -0.46875,0.164062 -0.106772,0.106776 -0.160157,0.250005 -0.160156,0.429688 -10e-7,0.09636 0.01562,0.182296 0.04687,0.257812 0.03385,0.07292 0.08594,0.141931 0.15625,0.207032 0.07292,0.06511 0.165363,0.131514 0.277344,0.199218 0.114581,0.06771 0.252602,0.144535 0.414062,0.230469 0.19531,0.10417 0.374998,0.210941 0.539063,0.320313 0.164059,0.106773 0.304684,0.226565 0.421875,0.359375 0.119788,0.130211 0.212236,0.278648 0.277344,0.445312 0.0651,0.166669 0.09765,0.361981 0.09766,0.585938"/><path id="path3693" fill="#fff" d="m 19.366071,12.168526 1.304687,0 0.703125,2.457031 c 0.04167,0.135418 0.07161,0.279949 0.08984,0.433594 0.02083,0.153647 0.03385,0.291668 0.03906,0.414062 l 0.02344,0 c 0.0052,-0.05989 0.01172,-0.126301 0.01953,-0.199219 0.01042,-0.07292 0.02213,-0.147134 0.03516,-0.222656 0.01302,-0.07552 0.02734,-0.149738 0.04297,-0.222656 0.01823,-0.07552 0.03646,-0.143227 0.05469,-0.203125 l 0.6875,-2.457031 1.3125,0 -1.726563,4.925781 c -0.161461,0.460936 -0.381512,0.803384 -0.660156,1.027344 -0.278647,0.223956 -0.627605,0.335935 -1.046875,0.335937 -0.135417,-2e-6 -0.252605,-0.0078 -0.351563,-0.02344 -0.09896,-0.01302 -0.183594,-0.02735 -0.253906,-0.04297 l 0,-0.945313 c 0.05469,0.01302 0.123698,0.02474 0.207031,0.03516 0.08333,0.01041 0.170573,0.01562 0.261719,0.01563 0.124999,-1e-6 0.23177,-0.01693 0.320313,-0.05078 0.08854,-0.03385 0.164061,-0.08203 0.226562,-0.144531 0.0651,-0.0599 0.119791,-0.132813 0.164063,-0.21875 0.04687,-0.08594 0.08724,-0.182292 0.121093,-0.289062 l 0.07422,-0.21875 -1.648437,-4.40625"/><path id="path3695" fill="#fff" d="m 27.213727,15.238838 c -4e-6,0.229168 -0.04167,0.429689 -0.125,0.601563 -0.08334,0.171875 -0.201826,0.315104 -0.355469,0.429687 -0.153648,0.114584 -0.339846,0.200521 -0.558594,0.257813 -0.218752,0.05729 -0.463543,0.08594 -0.734375,0.08594 -0.14323,0 -0.276043,-0.0052 -0.398437,-0.01563 -0.122397,-0.0078 -0.238282,-0.02214 -0.347656,-0.04297 -0.109376,-0.02083 -0.214845,-0.04687 -0.316407,-0.07813 -0.101563,-0.03125 -0.204427,-0.07031 -0.308593,-0.117187 l 0,-0.984375 c 0.109374,0.05469 0.223957,0.104168 0.34375,0.148437 0.122395,0.04427 0.243488,0.08333 0.363281,0.117188 0.11979,0.03125 0.235676,0.05599 0.347656,0.07422 0.114582,0.01823 0.220051,0.02734 0.316406,0.02734 0.106769,10e-7 0.197915,-0.0091 0.273438,-0.02734 0.07552,-0.02083 0.136717,-0.04818 0.183594,-0.08203 0.04948,-0.03646 0.08463,-0.07812 0.105468,-0.125 0.02344,-0.04948 0.03515,-0.101561 0.03516,-0.15625 -3e-6,-0.05469 -0.0091,-0.102863 -0.02734,-0.144531 -0.01563,-0.04427 -0.05339,-0.08984 -0.113281,-0.136719 -0.0599,-0.04948 -0.14844,-0.104165 -0.265625,-0.164062 -0.114585,-0.0625 -0.269533,-0.138019 -0.464844,-0.226563 -0.190105,-0.08593 -0.35547,-0.17057 -0.496094,-0.253906 -0.138021,-0.08593 -0.252605,-0.180987 -0.34375,-0.285156 -0.08854,-0.104164 -0.154948,-0.222654 -0.199219,-0.355469 -0.04427,-0.135414 -0.06641,-0.29557 -0.06641,-0.480469 0,-0.203121 0.03906,-0.380204 0.117188,-0.53125 0.07812,-0.153641 0.188801,-0.281246 0.332031,-0.382812 0.143228,-0.101558 0.315103,-0.177079 0.515625,-0.226563 0.203123,-0.05208 0.428384,-0.07812 0.675781,-0.07813 0.260415,5e-6 0.50781,0.02995 0.742188,0.08984 0.234372,0.0599 0.475257,0.149744 0.722656,0.269531 l -0.359375,0.84375 c -0.19792,-0.09375 -0.386721,-0.170569 -0.566406,-0.230468 -0.17969,-0.05989 -0.359377,-0.08984 -0.539063,-0.08984 -0.16146,4e-6 -0.278647,0.02865 -0.351562,0.08594 -0.07031,0.0573 -0.105471,0.13542 -0.105469,0.234375 -2e-6,0.05209 0.0091,0.09896 0.02734,0.140625 0.01823,0.03907 0.05469,0.08073 0.109375,0.125 0.05468,0.04167 0.131508,0.08854 0.230468,0.140625 0.09896,0.04948 0.227863,0.11068 0.386719,0.183594 0.184894,0.08073 0.35156,0.161461 0.5,0.242188 0.148435,0.07813 0.276039,0.167971 0.382813,0.269531 0.106767,0.101564 0.188798,0.220054 0.246093,0.355469 0.05729,0.135418 0.08593,0.29948 0.08594,0.492187"/><path id="path3697" fill="#fff" d="m 29.920758,15.664619 c 0.117185,10e-7 0.227862,-0.01302 0.332031,-0.03906 0.106768,-0.02604 0.214841,-0.05859 0.324219,-0.09766 l 0,0.886718 c -0.111982,0.05729 -0.251305,0.104167 -0.417969,0.140625 -0.164064,0.03906 -0.343752,0.05859 -0.539062,0.05859 -0.190106,0 -0.367189,-0.02214 -0.53125,-0.06641 -0.164064,-0.04427 -0.305991,-0.121094 -0.425781,-0.230469 -0.119793,-0.111979 -0.214845,-0.260416 -0.285157,-0.445312 -0.06771,-0.187499 -0.101563,-0.421874 -0.101562,-0.703125 l 0,-2.105469 -0.570313,0 0,-0.503906 0.65625,-0.398438 0.34375,-0.921875 0.761719,0 0,0.929688 1.0625,0 0,0.894531 -1.0625,0 0,2.105469 c -2e-6,0.169272 0.04167,0.294272 0.125,0.375 0.08333,0.08073 0.192706,0.121094 0.328125,0.121093"/><path id="path3699" fill="#fff" d="m 33.225446,12.934151 c -0.21094,3e-6 -0.386721,0.07422 -0.527344,0.222656 -0.138023,0.148441 -0.21745,0.381513 -0.238281,0.699219 l 1.519531,0 c -0.0026,-0.13281 -0.01953,-0.255206 -0.05078,-0.367188 -0.03125,-0.111976 -0.07813,-0.20833 -0.140625,-0.289062 -0.0625,-0.08333 -0.140628,-0.148434 -0.234375,-0.195313 -0.09375,-0.04687 -0.203128,-0.07031 -0.328125,-0.07031 m 0.152343,3.679687 c -0.312502,0 -0.600262,-0.04557 -0.863281,-0.136719 -0.263022,-0.09114 -0.489584,-0.227864 -0.679687,-0.410156 -0.190105,-0.184895 -0.338543,-0.416666 -0.445313,-0.695312 -0.104167,-0.281249 -0.15625,-0.610676 -0.15625,-0.988282 0,-0.38281 0.04818,-0.717445 0.144531,-1.003906 0.09635,-0.286455 0.230468,-0.524736 0.402344,-0.714844 0.174478,-0.192704 0.382811,-0.337235 0.625,-0.433593 0.24479,-0.09635 0.515623,-0.144527 0.8125,-0.144532 0.28906,5e-6 0.549476,0.04428 0.78125,0.132813 0.234372,0.08594 0.432288,0.213546 0.59375,0.382812 0.164059,0.169275 0.289059,0.377608 0.375,0.625 0.08854,0.244795 0.132808,0.526045 0.132813,0.84375 l 0,0.578125 -2.664063,0 c 0.0052,0.166669 0.03125,0.31771 0.07813,0.453125 0.04948,0.132814 0.117186,0.246095 0.203125,0.339844 0.08854,0.09115 0.194009,0.161459 0.316406,0.210938 0.124998,0.04948 0.266925,0.07422 0.425782,0.07422 0.132809,10e-7 0.257809,-0.0065 0.375,-0.01953 0.119788,-0.01562 0.235674,-0.03776 0.347656,-0.06641 0.111976,-0.02865 0.222653,-0.0638 0.332031,-0.105469 0.109371,-0.04427 0.221351,-0.09505 0.335938,-0.152344 l 0,0.921875 c -0.104171,0.05469 -0.209639,0.101563 -0.316407,0.140625 -0.10417,0.03646 -0.214847,0.06771 -0.332031,0.09375 -0.117191,0.02604 -0.243492,0.04427 -0.378906,0.05469 -0.13542,0.01302 -0.283857,0.01953 -0.445313,0.01953"/><path id="path3701" fill="#fff" d="m 39.866071,16.535713 -1.191407,0 0,-2.550781 c -3e-6,-0.315101 -0.04688,-0.550778 -0.140625,-0.707031 -0.09375,-0.158851 -0.240888,-0.238278 -0.441406,-0.238282 -0.151044,4e-6 -0.277346,0.03125 -0.378906,0.09375 -0.09896,0.0625 -0.178387,0.154952 -0.238281,0.277344 -0.0599,0.122399 -0.102867,0.273441 -0.128907,0.453125 -0.02604,0.17969 -0.03906,0.385419 -0.03906,0.617188 l 0,2.054687 -1.191406,0 0,-4.367187 0.910156,0 0.160156,0.558593 0.06641,0 c 0.0625,-0.111975 0.136717,-0.208329 0.222657,-0.289062 0.08854,-0.08073 0.184893,-0.147131 0.289062,-0.199219 0.104165,-0.05208 0.214842,-0.08984 0.332031,-0.113281 0.117185,-0.02604 0.235675,-0.03906 0.355469,-0.03906 0.299476,5e-6 0.553382,0.05209 0.761719,0.15625 0.210934,0.101567 0.372392,0.263025 0.484375,0.484375 l 0.09766,0 c 0.0625,-0.111975 0.138017,-0.208329 0.226563,-0.289062 0.08854,-0.08073 0.186193,-0.147131 0.292968,-0.199219 0.106766,-0.05208 0.218745,-0.08984 0.335938,-0.113281 0.119786,-0.02604 0.239578,-0.03906 0.359375,-0.03906 0.468744,5e-6 0.821608,0.127609 1.058594,0.382813 0.239576,0.252608 0.359368,0.658858 0.359375,1.21875 l 0,2.847656 -1.195313,0 0,-2.550781 c -5e-6,-0.315101 -0.04688,-0.550778 -0.140625,-0.707031 -0.09376,-0.158851 -0.240891,-0.238278 -0.441406,-0.238282 -0.283859,4e-6 -0.485682,0.113285 -0.605469,0.339844 -0.119796,0.223961 -0.179692,0.545576 -0.179687,0.964844 l 0,2.191406"/><path id="path3703" fill="#fff" d="m 49.061383,16.535713 -0.335937,-1.527344 c -0.01042,-0.04427 -0.02474,-0.106769 -0.04297,-0.1875 -0.01563,-0.08333 -0.03386,-0.175779 -0.05469,-0.277343 -0.02084,-0.104165 -0.04297,-0.21354 -0.06641,-0.328125 -0.02084,-0.117185 -0.04297,-0.233071 -0.06641,-0.347657 -0.05209,-0.268226 -0.109378,-0.557288 -0.171875,-0.867187 l -0.02344,0 c -0.0599,0.309899 -0.114586,0.600263 -0.164062,0.871094 -0.02084,0.114586 -0.04297,0.230471 -0.06641,0.347656 -0.02084,0.11719 -0.04167,0.227867 -0.0625,0.332031 -0.02084,0.101565 -0.04037,0.194012 -0.05859,0.277344 -0.01563,0.08333 -0.02865,0.148439 -0.03906,0.195312 l -0.351562,1.511719 -1.28125,0 -1.175781,-4.367187 1.183593,0 0.441407,1.933593 c 0.02344,0.101565 0.04687,0.223961 0.07031,0.367188 0.02604,0.140627 0.04948,0.283856 0.07031,0.429687 0.02343,0.143231 0.04427,0.27995 0.0625,0.410157 0.01823,0.127605 0.03255,0.229167 0.04297,0.304687 l 0.02344,0 c 0.0026,-0.04948 0.0078,-0.11328 0.01563,-0.191406 0.01042,-0.08073 0.02213,-0.166665 0.03516,-0.257813 0.01302,-0.09114 0.02604,-0.183592 0.03906,-0.277343 0.01562,-0.09635 0.02995,-0.186196 0.04297,-0.269532 0.01562,-0.08333 0.02864,-0.156247 0.03906,-0.21875 0.01302,-0.0651 0.02343,-0.110674 0.03125,-0.136718 l 0.476562,-2.09375 1.3125,0 0.457032,2.09375 c 0.01302,0.05729 0.02994,0.145835 0.05078,0.265625 0.02083,0.119793 0.04166,0.248699 0.0625,0.386718 0.02343,0.135419 0.04296,0.268231 0.05859,0.398438 0.01562,0.127605 0.02473,0.227866 0.02734,0.300781 l 0.02344,0 c 0.0078,-0.0651 0.02083,-0.161457 0.03906,-0.289062 0.02083,-0.127603 0.04297,-0.264322 0.06641,-0.410157 0.02343,-0.148435 0.04817,-0.295571 0.07422,-0.441406 0.02864,-0.145831 0.05468,-0.269529 0.07813,-0.371094 l 0.457032,-1.933593 1.167968,0 -1.191406,4.367187 -1.296875,0"/><path id="path3705" fill="#fff" d="m 52.127789,11.039619 c 0,-0.111973 0.01693,-0.204421 0.05078,-0.277343 0.03385,-0.07551 0.07943,-0.135411 0.136718,-0.179688 0.0599,-0.04687 0.128906,-0.07942 0.207032,-0.09766 0.08073,-0.01822 0.165363,-0.02734 0.253906,-0.02734 0.08854,6e-6 0.171874,0.0091 0.25,0.02734 0.07812,0.01823 0.145832,0.05079 0.203125,0.09766 0.05989,0.04428 0.106769,0.104173 0.140625,0.179688 0.03646,0.07292 0.05469,0.16537 0.05469,0.277343 -10e-7,0.109381 -0.01823,0.201829 -0.05469,0.277344 -0.03386,0.07553 -0.08073,0.136724 -0.140625,0.183594 -0.05729,0.04428 -0.125002,0.07683 -0.203125,0.09766 -0.07813,0.01823 -0.16146,0.02735 -0.25,0.02734 -0.08854,5e-6 -0.173178,-0.0091 -0.253906,-0.02734 -0.07813,-0.02083 -0.147136,-0.05338 -0.207032,-0.09766 -0.05729,-0.04687 -0.102865,-0.108068 -0.136718,-0.183594 -0.03385,-0.07551 -0.05078,-0.167963 -0.05078,-0.277344 m 1.242188,5.496094 -1.191406,0 0,-4.367187 1.191406,0 0,4.367187"/><path id="path3707" fill="#fff" d="m 58.405133,16.535713 -1.191406,0 0,-2.550781 c -3e-6,-0.315101 -0.04818,-0.550778 -0.144531,-0.707031 -0.09375,-0.158851 -0.244795,-0.238278 -0.453125,-0.238282 -0.156253,4e-6 -0.286461,0.03125 -0.390625,0.09375 -0.104169,0.0625 -0.187502,0.154952 -0.25,0.277344 -0.0599,0.122399 -0.102867,0.273441 -0.128907,0.453125 -0.02604,0.17969 -0.03906,0.385419 -0.03906,0.617188 l 0,2.054687 -1.191406,0 0,-4.367187 0.910156,0 0.160156,0.558593 0.06641,0 c 0.0625,-0.111975 0.138019,-0.208329 0.226563,-0.289062 0.09114,-0.08073 0.190102,-0.147131 0.296875,-0.199219 0.106768,-0.05208 0.22005,-0.08984 0.339844,-0.113281 0.119789,-0.02604 0.242184,-0.03906 0.367187,-0.03906 0.213539,5e-6 0.407549,0.03125 0.582031,0.09375 0.174476,0.0599 0.324215,0.154953 0.449219,0.285157 0.124996,0.130212 0.22135,0.296878 0.289063,0.5 0.0677,0.200524 0.101558,0.441409 0.101562,0.722656 l 0,2.847656"/><path id="path3709" fill="#fff" d="m 60.916852,16.613838 c -0.22396,0 -0.428387,-0.04818 -0.613281,-0.144531 -0.184897,-0.09635 -0.343751,-0.238281 -0.476563,-0.425781 -0.132813,-0.190104 -0.23698,-0.425781 -0.3125,-0.707032 -0.07292,-0.281248 -0.109375,-0.606769 -0.109375,-0.976562 0,-0.374998 0.03646,-0.703122 0.109375,-0.984375 0.07552,-0.283851 0.180989,-0.52083 0.316406,-0.710938 0.13802,-0.192704 0.302083,-0.337235 0.492188,-0.433593 0.190103,-0.09635 0.399738,-0.144527 0.628906,-0.144532 0.140623,5e-6 0.269529,0.01693 0.386719,0.05078 0.117185,0.03125 0.222654,0.07683 0.316406,0.136718 0.09375,0.0573 0.177081,0.125005 0.25,0.203125 0.07552,0.07553 0.141924,0.158859 0.199219,0.25 l 0.03906,0 c -0.01563,-0.101558 -0.02995,-0.204423 -0.04297,-0.308593 -0.01302,-0.08854 -0.02474,-0.182288 -0.03516,-0.28125 -0.0078,-0.101558 -0.01172,-0.195308 -0.01172,-0.28125 l 0,-1.398438 1.191406,0 0,6.078125 -0.910156,0 -0.230469,-0.566406 -0.05078,0 c -0.05469,0.08854 -0.117191,0.173177 -0.1875,0.253906 -0.07032,0.07813 -0.152347,0.145834 -0.246094,0.203125 -0.09115,0.05729 -0.195315,0.102865 -0.3125,0.136719 -0.114586,0.03385 -0.244794,0.05078 -0.390625,0.05078 m 0.433594,-0.949219 c 0.140622,10e-7 0.260414,-0.02344 0.359375,-0.07031 0.09896,-0.04948 0.178382,-0.122395 0.238281,-0.21875 0.0625,-0.09896 0.10807,-0.221353 0.136719,-0.367188 0.03125,-0.145831 0.04817,-0.316404 0.05078,-0.511718 l 0,-0.128907 c -3e-6,-0.210935 -0.01302,-0.398434 -0.03906,-0.5625 -0.02604,-0.164059 -0.06901,-0.300778 -0.128906,-0.410156 -0.0599,-0.111976 -0.140628,-0.196611 -0.242187,-0.253906 -0.101565,-0.05729 -0.229169,-0.08593 -0.382813,-0.08594 -0.250002,4e-6 -0.433595,0.113285 -0.550781,0.339844 -0.117189,0.223961 -0.175783,0.550784 -0.175781,0.980469 -2e-6,0.429689 0.05859,0.752606 0.175781,0.96875 0.11979,0.213543 0.305987,0.320313 0.558594,0.320312"/><path id="path3711" fill="#fff" d="m 65.483258,14.344307 c -1e-6,0.434898 0.0612,0.763022 0.183594,0.984375 0.122394,0.218751 0.321612,0.328126 0.597656,0.328125 0.273435,10e-7 0.471352,-0.110676 0.59375,-0.332031 0.122393,-0.221353 0.183591,-0.548176 0.183594,-0.980469 -3e-6,-0.434893 -0.0612,-0.759112 -0.183594,-0.972656 -0.122398,-0.216143 -0.322919,-0.324216 -0.601562,-0.324219 -0.27344,3e-6 -0.471356,0.108076 -0.59375,0.324219 -0.119794,0.213544 -0.179689,0.537763 -0.179688,0.972656 m 2.773438,0 c -5e-6,0.364585 -0.04688,0.687501 -0.140625,0.96875 -0.09115,0.281251 -0.223963,0.51823 -0.398438,0.710937 -0.171878,0.192709 -0.382816,0.339844 -0.632812,0.441407 -0.247399,0.09896 -0.526045,0.148437 -0.835938,0.148437 -0.289064,0 -0.554689,-0.04948 -0.796875,-0.148437 -0.242189,-0.101563 -0.451824,-0.248698 -0.628906,-0.441407 -0.17448,-0.192707 -0.311199,-0.429686 -0.410156,-0.710937 -0.09896,-0.281249 -0.148438,-0.604165 -0.148438,-0.96875 0,-0.361977 0.04557,-0.683591 0.136719,-0.964844 0.09375,-0.281246 0.226562,-0.516923 0.398437,-0.707031 0.174479,-0.192704 0.385416,-0.338538 0.632813,-0.4375 0.247394,-0.09895 0.527342,-0.148433 0.839844,-0.148438 0.28906,5e-6 0.554684,0.04948 0.796875,0.148438 0.242184,0.09896 0.450517,0.244796 0.625,0.4375 0.177079,0.190108 0.3151,0.425785 0.414062,0.707031 0.09895,0.281253 0.148433,0.602867 0.148438,0.964844"/><path id="path3713" fill="#fff" d="m 72.623883,16.535713 -0.335937,-1.527344 c -0.01042,-0.04427 -0.02474,-0.106769 -0.04297,-0.1875 -0.01563,-0.08333 -0.03386,-0.175779 -0.05469,-0.277343 -0.02084,-0.104165 -0.04297,-0.21354 -0.06641,-0.328125 -0.02084,-0.117185 -0.04297,-0.233071 -0.06641,-0.347657 -0.05209,-0.268226 -0.109378,-0.557288 -0.171875,-0.867187 l -0.02344,0 c -0.0599,0.309899 -0.114586,0.600263 -0.164062,0.871094 -0.02084,0.114586 -0.04297,0.230471 -0.06641,0.347656 -0.02084,0.11719 -0.04167,0.227867 -0.0625,0.332031 -0.02084,0.101565 -0.04037,0.194012 -0.05859,0.277344 -0.01563,0.08333 -0.02865,0.148439 -0.03906,0.195312 l -0.351562,1.511719 -1.28125,0 -1.175781,-4.367187 1.183593,0 0.441407,1.933593 c 0.02344,0.101565 0.04687,0.223961 0.07031,0.367188 0.02604,0.140627 0.04948,0.283856 0.07031,0.429687 0.02343,0.143231 0.04427,0.27995 0.0625,0.410157 0.01823,0.127605 0.03255,0.229167 0.04297,0.304687 l 0.02344,0 c 0.0026,-0.04948 0.0078,-0.11328 0.01563,-0.191406 0.01041,-0.08073 0.02213,-0.166665 0.03516,-0.257813 0.01302,-0.09114 0.02604,-0.183592 0.03906,-0.277343 0.01562,-0.09635 0.02995,-0.186196 0.04297,-0.269532 0.01562,-0.08333 0.02864,-0.156247 0.03906,-0.21875 0.01302,-0.0651 0.02343,-0.110674 0.03125,-0.136718 l 0.476562,-2.09375 1.3125,0 0.457032,2.09375 c 0.01302,0.05729 0.02994,0.145835 0.05078,0.265625 0.02083,0.119793 0.04166,0.248699 0.0625,0.386718 0.02343,0.135419 0.04296,0.268231 0.05859,0.398438 0.01562,0.127605 0.02473,0.227866 0.02734,0.300781 l 0.02344,0 c 0.0078,-0.0651 0.02083,-0.161457 0.03906,-0.289062 0.02083,-0.127603 0.04296,-0.264322 0.06641,-0.410157 0.02343,-0.148435 0.04817,-0.295571 0.07422,-0.441406 0.02864,-0.145831 0.05468,-0.269529 0.07813,-0.371094 l 0.457032,-1.933593 1.167968,0 -1.191406,4.367187 -1.296875,0"/></g><path id="path3852" fill="url(#linearGradient3856)" fill-opacity="1" fill-rule="evenodd" stroke="none" d="M 4 2 C 2.892 2 2 2.892 2 4 L 2 6 L 3.03125 6 L 3.03125 4 C 3.03125 3.4502995 3.4502995 3.03125 4 3.03125 L 20 3.03125 C 20.5497 3.03125 20.96875 3.4502995 20.96875 4 L 20.96875 6 L 22 6 L 22 4 C 22 2.892 21.108 2 20 2 L 4 2 z" display="inline" opacity=".2" transform="translate(0,-2)"/><path id="path3859" fill="url(#linearGradient3867)" fill-opacity="1" fill-rule="nonzero" stroke="none" stroke-width="1" d="M 5,3.5 C 5,3.7761424 4.7761424,4 4.5,4 4.2238576,4 4,3.7761424 4,3.5 4,3.2238576 4.2238576,3 4.5,3 4.7761424,3 5,3.2238576 5,3.5 z" color="#000" display="inline" enable-background="accumulate" overflow="visible" transform="matrix(0,-1.5,1.5,0,-0.75,9.25)" visibility="visible" style="marker:none"/><rect id="rect3897" width="16" height="16" x="-17" y="-27" fill="url(#linearGradient3099)" fill-opacity="1" fill-rule="nonzero" stroke="none" stroke-width="2" color="#000" display="inline" enable-background="accumulate" overflow="visible" transform="matrix(0,1,1,0,0,0)" visibility="visible" style="marker:none"/><rect id="rect3911" width="16" height="16" x="-23" y="-27" fill="url(#linearGradient3913)" fill-opacity="1" fill-rule="nonzero" stroke="none" stroke-width="2" color="#000" display="inline" enable-background="accumulate" overflow="visible" transform="matrix(0,-1,1,0,0,0)" visibility="visible" style="marker:none"/><rect id="rect3896" width="1" height="1" x="8" y="3" fill="url(#linearGradient3904)" fill-opacity="1" fill-rule="nonzero" stroke="none" stroke-width="1" color="#000" display="inline" enable-background="accumulate" overflow="visible" transform="matrix(0,-1,1,0,0,0)" visibility="visible" style="marker:none"/><rect id="rect3910" width="1" height="1" x="-9" y="7" fill="url(#linearGradient3912)" fill-opacity="1" fill-rule="nonzero" stroke="none" stroke-width="1" color="#000" display="inline" enable-background="accumulate" overflow="visible" transform="matrix(0,1,1,0,0,0)" visibility="visible" style="marker:none"/><rect id="rect3914" width="1" height="1" x="-9" y="5" fill="url(#linearGradient3916)" fill-opacity="1" fill-rule="nonzero" stroke="none" stroke-width="1" color="#000" display="inline" enable-background="accumulate" overflow="visible" transform="matrix(0,1,1,0,0,0)" visibility="visible" style="marker:none"/><path id="path3922" fill="url(#linearGradient3924)" fill-opacity="1" fill-rule="nonzero" stroke="none" stroke-width="1" d="M 5,3.5 C 5,3.7761424 4.7761424,4 4.5,4 4.2238576,4 4,3.7761424 4,3.5 4,3.2238576 4.2238576,3 4.5,3 4.7761424,3 5,3.2238576 5,3.5 z" color="#000" display="inline" enable-background="accumulate" opacity=".8" overflow="visible" transform="matrix(0,1.5,1.5,0,3.25,-4.25)" visibility="visible" style="marker:none"/><path id="path3926" fill="url(#linearGradient3928)" fill-opacity="1" fill-rule="nonzero" stroke="none" stroke-width="1" d="M 5,3.5 C 5,3.7761424 4.7761424,4 4.5,4 4.2238576,4 4,3.7761424 4,3.5 4,3.2238576 4.2238576,3 4.5,3 4.7761424,3 5,3.2238576 5,3.5 z" color="#000" display="inline" enable-background="accumulate" opacity=".8" overflow="visible" transform="matrix(0,1.5,1.5,0,1.25,-4.25)" visibility="visible" style="marker:none"/></g><g id="layer2" display="none" transform="translate(0,2)"><rect id="rect2410" width="16" height="16" x="3" y="3" fill="#fff" fill-opacity="1" fill-rule="nonzero" stroke="none" clip-path="url(#clipPath2849)" display="inline" filter="url(#filter3194)" opacity=".15" rx="2" ry="2" transform="translate(1,-1)"/></g></svg>