<svg xmlns="http://www.w3.org/2000/svg" xmlns:svg="http://www.w3.org/2000/svg" xmlns:xlink="http://www.w3.org/1999/xlink" id="svg2" width="22" height="22" display="inline" version="1.0"><defs id="defs4"><linearGradient id="linearGradient4411"><stop id="stop4413" offset="0" stop-color="#0a0a0a" stop-opacity="1"/><stop id="stop4415" offset="1" stop-color="#3c3c3c" stop-opacity="1"/></linearGradient><linearGradient id="linearGradient6059"><stop id="stop6061" offset="0" stop-color="#000" stop-opacity=".426"/><stop id="stop6063" offset="1" stop-color="#fff" stop-opacity=".317"/></linearGradient><linearGradient id="linearGradient6151"><stop id="stop6153" offset="0" stop-color="#5b5b5b" stop-opacity="1"/><stop id="stop6155" offset="1" stop-color="#0a0a0a" stop-opacity="1"/></linearGradient><linearGradient id="linearGradient3265"><stop id="stop3267" offset="0" stop-color="#8d8df1" stop-opacity="1"/><stop id="stop3269" offset="1" stop-color="#6547e0" stop-opacity="1"/></linearGradient><radialGradient id="radialGradient7013" cx="77.203" cy="-.562" r="21" fx="77.203" fy="-.562" gradientTransform="matrix(-0.2150123,0,0,-9.7219987e-2,25.601934,11.998931)" gradientUnits="userSpaceOnUse" xlink:href="#linearGradient3265"/><linearGradient id="linearGradient3737"><stop id="stop3739" offset="0" stop-color="#fff" stop-opacity="1"/><stop id="stop3741" offset="1" stop-color="#fff" stop-opacity="0"/></linearGradient><radialGradient id="radialGradient7015" cx="34.521" cy="45" r="27" fx="34.521" fy="45" gradientTransform="matrix(0.1919464,-1.5717656e-8,0,0.1470006,-2.5836848,9.0463369)" gradientUnits="userSpaceOnUse" xlink:href="#linearGradient3737"/><linearGradient id="linearGradient3303"><stop id="stop3305" offset="0" stop-color="#1a1a1a" stop-opacity="1"/><stop id="stop3313" offset=".25" stop-color="#1a1a1a" stop-opacity="1"/><stop id="stop3311" offset=".501" stop-color="#cdff01" stop-opacity="1"/><stop id="stop3315" offset=".75" stop-color="#1a1a1a" stop-opacity="1"/><stop id="stop3307" offset="1" stop-color="#1a1a1a" stop-opacity="1"/></linearGradient><linearGradient id="linearGradient7168" x1="30" x2="48" y1="31" y2="31" gradientTransform="matrix(0.131969,0,0,0.5,-0.6657837,2.3665771e-7)" gradientUnits="userSpaceOnUse" xlink:href="#linearGradient3303"/><linearGradient id="linearGradient6069"><stop id="stop6071" offset="0" stop-color="#fff" stop-opacity="1"/><stop id="stop6073" offset="1" stop-color="#7c7c7c" stop-opacity="1"/></linearGradient><linearGradient id="linearGradient5892"><stop id="stop5894" offset="0" stop-color="#333" stop-opacity="1"/><stop id="stop5896" offset="1" stop-color="#555" stop-opacity="1"/></linearGradient><linearGradient id="linearGradient3700"><stop id="stop3702" offset="0" stop-color="#dcdcdc" stop-opacity="1"/><stop id="stop3704" offset="1" stop-color="#f0f0f0" stop-opacity="1"/></linearGradient><linearGradient id="linearGradient4594"><stop id="stop4596" offset="0" stop-color="#fff" stop-opacity="1"/><stop id="stop4598" offset="1" stop-color="#fff" stop-opacity="0"/></linearGradient><linearGradient id="linearGradient3175"><stop id="stop3177" offset="0" stop-color="#55a6eb" stop-opacity="1"/><stop id="stop3179" offset="1" stop-color="#1754c4" stop-opacity="1"/></linearGradient><linearGradient id="linearGradient3327"><stop id="stop3330" offset="0" stop-color="#000" stop-opacity="1"/><stop id="stop3333" offset="1" stop-color="#000" stop-opacity="0"/></linearGradient><linearGradient id="ButtonShadow" x1="9.355" x2="9.355" y1="21.743" y2=".494" gradientTransform="scale(0.9883037,1.0118347)" gradientUnits="userSpaceOnUse"><stop id="stop3277" offset="0" stop-color="#000" stop-opacity=".706"/><stop id="stop3279" offset="1" stop-color="#000" stop-opacity=".157"/></linearGradient><linearGradient id="linearGradient3232"><stop id="stop3234" offset="0" stop-color="#000" stop-opacity="1"/><stop id="stop3236" offset="1" stop-color="#000" stop-opacity="0"/></linearGradient><linearGradient id="linearGradient3221" x1="11" x2="11" y1="14.806" y2="-6" gradientUnits="userSpaceOnUse" xlink:href="#linearGradient3232"/><linearGradient id="ButtonColor" x1="10.32" x2="10.32" y1="21" y2=".999" gradientUnits="userSpaceOnUse"><stop id="stop3189" offset="0" stop-color="#29669f" stop-opacity="1"/><stop id="stop3191" offset="1" stop-color="#88b6e0" stop-opacity="1"/></linearGradient><linearGradient id="linearGradient38042" x1="9.355" x2="9.355" y1="21.743" y2=".494" gradientTransform="scale(0.9883037,1.0118347)" gradientUnits="userSpaceOnUse" xlink:href="#ButtonShadow"/><radialGradient id="radialGradient3360" cx="48" cy="-15.894" r="35.938" fx="48" fy="-15.894" gradientTransform="matrix(-5.0683284e-3,1.2204755,-1.3843695,-5.7456085e-3,26.241279,-46.842142)" gradientUnits="userSpaceOnUse" xlink:href="#linearGradient3175"/><linearGradient id="linearGradient3380" x1="1" x2="11" y1="9" y2="9" gradientTransform="translate(-12.000001,-0.9999998)" gradientUnits="userSpaceOnUse" xlink:href="#linearGradient3700"/><radialGradient id="radialGradient3382" cx="48" cy="-15.894" r="35.938" fx="48" fy="-15.894" gradientTransform="matrix(-5.0683284e-3,1.2204755,-1.3843695,-5.7456085e-3,26.241279,-46.842142)" gradientUnits="userSpaceOnUse" xlink:href="#linearGradient3175"/><linearGradient id="linearGradient3384" x1="10.733" x2="10.733" y1="4" y2="8.814" gradientTransform="matrix(0.5288575,0,0,0.5288575,1.6537103,1.796232)" gradientUnits="userSpaceOnUse" xlink:href="#linearGradient4594"/><linearGradient id="linearGradient3386" x1="10.733" x2="10.733" y1="1.777" y2="13.937" gradientTransform="translate(-4,5.3674303e-8)" gradientUnits="userSpaceOnUse" xlink:href="#linearGradient4594"/><linearGradient id="linearGradient4515" x1="10.733" x2="10.733" y1="1.777" y2="13.937" gradientTransform="translate(-4,5.3674303e-8)" gradientUnits="userSpaceOnUse" xlink:href="#linearGradient4594"/><linearGradient id="linearGradient4518" x1="10.733" x2="10.733" y1="4" y2="8.814" gradientTransform="matrix(0.5288575,0,0,0.5288575,1.6537103,1.796232)" gradientUnits="userSpaceOnUse" xlink:href="#linearGradient4594"/><linearGradient id="linearGradient4524" x1="1" x2="11" y1="9" y2="9" gradientTransform="translate(-12.000001,-0.9999998)" gradientUnits="userSpaceOnUse" xlink:href="#linearGradient3700"/><linearGradient id="linearGradient4528" x1="1" x2="11" y1="9" y2="9" gradientTransform="translate(-22.000001,-0.9999998)" gradientUnits="userSpaceOnUse" xlink:href="#linearGradient4411"/><linearGradient id="linearGradient4555" x1="11.046" x2="11.046" y1="20" y2="16.989" gradientTransform="matrix(0.6666666,0,0,1.3333334,-2,-6.6666665)" gradientUnits="userSpaceOnUse" xlink:href="#linearGradient5892"/><linearGradient id="linearGradient4567" x1="5.5" x2="5.5" y1="16" y2="20" gradientTransform="translate(0,-36)" gradientUnits="userSpaceOnUse" xlink:href="#linearGradient3232"/><linearGradient id="linearGradient4575" x1="11.046" x2="11.046" y1="20" y2="16.989" gradientTransform="matrix(0.6666666,0,0,1.3333334,0,-6.6666665)" gradientUnits="userSpaceOnUse" xlink:href="#linearGradient5892"/><linearGradient id="linearGradient4577" x1="30" x2="48" y1="31" y2="31" gradientTransform="matrix(0.1111111,0,0,0.5,2.6666663,2.3665771e-7)" gradientUnits="userSpaceOnUse" xlink:href="#linearGradient3303"/><linearGradient id="linearGradient4579" x1="5.5" x2="5.5" y1="16" y2="20" gradientTransform="translate(2,-36)" gradientUnits="userSpaceOnUse" xlink:href="#linearGradient3232"/><linearGradient id="linearGradient4587" x1="11.046" x2="11.046" y1="20" y2="16.989" gradientTransform="matrix(0.6666666,0,0,1.3333334,2,-6.6666665)" gradientUnits="userSpaceOnUse" xlink:href="#linearGradient5892"/><linearGradient id="linearGradient4589" x1="30" x2="48" y1="31" y2="31" gradientTransform="matrix(0.1111111,0,0,0.5,4.6666663,2.3665771e-7)" gradientUnits="userSpaceOnUse" xlink:href="#linearGradient3303"/><linearGradient id="linearGradient4591" x1="5.5" x2="5.5" y1="16" y2="20" gradientTransform="translate(4,-36)" gradientUnits="userSpaceOnUse" xlink:href="#linearGradient3232"/><linearGradient id="linearGradient4616" x1="11.375" x2="11.375" y1="22" y2="-9.817" gradientTransform="translate(-40,0)" gradientUnits="userSpaceOnUse" xlink:href="#linearGradient3327"/><linearGradient id="linearGradient4638" x1="11.189" x2="11.189" y1="22" y2="-5.893" gradientUnits="userSpaceOnUse" xlink:href="#linearGradient3327"/><linearGradient id="linearGradient3845" x1="11" x2="21" y1="19.5" y2="19.5" gradientUnits="userSpaceOnUse" spreadMethod="reflect" xlink:href="#linearGradient3831"/><linearGradient id="linearGradient3831"><stop id="stop3833" offset="0" stop-color="#fff" stop-opacity="1"/><stop id="stop3821" offset=".75" stop-color="#fff" stop-opacity=".498"/><stop id="stop3835" offset="1" stop-color="#fff" stop-opacity="0"/></linearGradient><linearGradient id="linearGradient3073" x1="6" x2="11" y1="20" y2="20" gradientTransform="translate(10,0)" gradientUnits="userSpaceOnUse" spreadMethod="reflect" xlink:href="#linearGradient3831"/><linearGradient id="linearGradient3890" x1="6" x2="11" y1="20" y2="20" gradientUnits="userSpaceOnUse" spreadMethod="reflect" xlink:href="#linearGradient3831"/><linearGradient id="linearGradient3894" x1="6" x2="11" y1="20" y2="20" gradientTransform="translate(0,-10)" gradientUnits="userSpaceOnUse" spreadMethod="reflect" xlink:href="#linearGradient3831"/><linearGradient id="linearGradient3932" x1="1" x2="11" y1="9" y2="9" gradientTransform="matrix(0,1,1,0,-0.9999998,9.999999)" gradientUnits="userSpaceOnUse" xlink:href="#linearGradient4594"/><linearGradient id="linearGradient3936" x1="1" x2="11" y1="9" y2="9" gradientTransform="translate(9.999999,-0.9999998)" gradientUnits="userSpaceOnUse" xlink:href="#linearGradient4594"/><linearGradient id="linearGradient3940" x1="2" x2="11" y1="9" y2="9" gradientTransform="translate(9.999999,-0.9999998)" gradientUnits="userSpaceOnUse" xlink:href="#linearGradient4594"/><linearGradient id="linearGradient3943" x1="1" x2="8" y1="9" y2="9" gradientTransform="matrix(0,1,1,0,-0.9999998,9.999999)" gradientUnits="userSpaceOnUse" xlink:href="#linearGradient4594"/><linearGradient id="linearGradient3947" x1="1" x2="8" y1="9" y2="9" gradientTransform="matrix(0,1,1,0,9.0000002,9.999999)" gradientUnits="userSpaceOnUse" xlink:href="#linearGradient4594"/><linearGradient id="linearGradient3951" x1="1" x2="8" y1="9" y2="9" gradientTransform="matrix(0,1,1,0,-0.9999998,-10e-7)" gradientUnits="userSpaceOnUse" xlink:href="#linearGradient4594"/></defs><metadata id="metadata7"/><g id="layer1"><path id="rect4625" fill="url(#linearGradient4638)" fill-opacity="1" fill-rule="nonzero" stroke="none" stroke-dasharray="none" stroke-dashoffset="0" stroke-linecap="round" stroke-linejoin="round" stroke-miterlimit="4" stroke-opacity="1" stroke-width=".5" d="M 3 0.5 C 1.615 0.5 0.5 1.615 0.5 3 L 0.5 9.5 C 0.5 10.176342 0.75411557 10.800834 1.1875 11.25 C 0.75411557 11.699166 0.5 12.323658 0.5 13 L 0.5 19.5 C 0.5 20.885 1.615 22 3 22 L 9 22 C 9.824075 22 10.545093 21.611481 11 21 C 11.454907 21.611481 12.175925 22 13 22 L 19 22 C 20.385 22 21.5 20.885 21.5 19.5 L 21.5 13 C 21.5 11.615 20.385 10.5 19 10.5 L 13 10.5 C 12.175925 10.5 11.454907 10.888519 11 11.5 C 10.936299 11.414379 10.88644 11.326633 10.8125 11.25 C 11.245884 10.800834 11.5 10.176342 11.5 9.5 L 11.5 3 C 11.5 1.615 10.385 0.5 9 0.5 L 3 0.5 z" display="inline" opacity=".4"/><path id="rect4618" fill="#000" fill-opacity="1" fill-rule="nonzero" stroke="none" stroke-dasharray="none" stroke-dashoffset="0" stroke-linecap="round" stroke-linejoin="round" stroke-miterlimit="4" stroke-opacity="1" stroke-width=".5" d="M 3 2 C 1.892 2 1 2.892 1 4 L 1 10 C 1 11.108 1.892 12 3 12 C 1.892 12 1 12.892 1 14 L 1 20 C 1 21.108 1.892 22 3 22 L 9 22 C 10.108 22 11 21.108 11 20 C 11 21.108 11.892 22 13 22 L 19 22 C 20.108 22 21 21.108 21 20 L 21 14 C 21 12.892 20.108 12 19 12 L 13 12 C 11.892 12 11 12.892 11 14 C 11 12.892 10.108 12 9 12 C 10.108 12 11 11.108 11 10 L 11 4 C 11 2.892 10.108 2 9 2 L 3 2 z" display="inline" opacity=".4"/><rect id="rect3371" width="21" height="21.5" x="-39.5" y=".5" fill="url(#linearGradient4616)" fill-opacity="1" stroke="none" stroke-dasharray="none" stroke-linecap="round" stroke-linejoin="miter" stroke-miterlimit="4" stroke-opacity="1" stroke-width="1" display="inline" opacity=".3" rx="2.5" ry="2.5"/><rect id="rect2553" width="20" height="20" x="-39" y="2" fill="#000" fill-opacity="1" stroke="none" stroke-dasharray="none" stroke-linecap="round" stroke-linejoin="miter" stroke-miterlimit="4" stroke-opacity="1" stroke-width="1" display="inline" opacity=".5" rx="2.381" ry="2.326"/><path id="path3188" fill="#000" fill-opacity="1" fill-rule="evenodd" stroke="none" stroke-dasharray="none" stroke-dashoffset="0" stroke-linecap="round" stroke-linejoin="miter" stroke-miterlimit="4" stroke-opacity="1" stroke-width=".25" d="M 2.9999999,20.999999 C 1.8919999,20.999999 0.99999993,20.108 0.99999993,19 L 0.99999993,18 C 0.99999993,19.108 1.8919999,20 2.9999999,20 L 19,20 C 20.108,20 21,19.108 21,18 L 21,19 C 21,20.108 20.108,20.999999 19,20.999999 L 2.9999999,20.999999 z" display="inline" opacity=".15"/><rect id="rect3196" width="10" height="10" x="-11" y="1" fill="url(#linearGradient4524)" fill-opacity="1" fill-rule="nonzero" stroke="none" stroke-dasharray="none" stroke-dashoffset="0" stroke-linecap="round" stroke-linejoin="round" stroke-miterlimit="4" stroke-opacity="1" stroke-width=".5" display="inline" rx="2" ry="2" transform="matrix(0,-1,1,0,0,0)"/><path id="rect2568" fill="#000" fill-opacity="1" fill-rule="nonzero" stroke="none" stroke-dasharray="none" stroke-dashoffset="0" stroke-linecap="square" stroke-linejoin="miter" stroke-miterlimit="4" stroke-opacity="1" stroke-width="1" d="M 3,2 C 2.446,2 2,2.446 2,3 L 2,8 C 2,8.554 2.446,9 3,9 L 4,9 L 4,9.5 C 4,9.777 4.223,10 4.5,10 L 7.5,10 C 7.777,10 8,9.777 8,9.5 L 8,9 L 9,9 C 9.554,9 10,8.554 10,8 L 10,3 C 10,2.446 9.554,2 9,2 L 3,2 z"/><path id="path2573" fill="url(#radialGradient3360)" fill-opacity="1" fill-rule="nonzero" stroke="none" stroke-dasharray="none" stroke-dashoffset="0" stroke-linecap="square" stroke-linejoin="round" stroke-miterlimit="4" stroke-opacity=".697" stroke-width="1" d="M 12.0625,12.0625 L 12.0625,65.9375 L 83.9375,65.9375 L 83.9375,12.0625 L 12.0625,12.0625 z" display="inline" transform="matrix(-8.3478261e-2,0,0,-9.2807425e-2,10.006957,9.1194896)"/><path id="path4577" fill="#12429a" fill-opacity="1" fill-rule="nonzero" stroke="none" stroke-dasharray="none" stroke-dashoffset="0" stroke-linecap="square" stroke-linejoin="round" stroke-miterlimit="4" stroke-opacity=".697" stroke-width="1" d="M 3.0000004,2.9558315 L 3,8.0848072 L 8.980565,8.0977257 L 8.9805654,2.96875 L 3.0000004,2.9558315 z M 3.9375004,3.9870815 L 8.0430654,4 L 8.043065,7.0664756 L 3.9375,7.0535571 L 3.9375004,3.9870815 z" display="inline" opacity=".5"/><path id="path4592" fill="url(#linearGradient4518)" fill-opacity="1" fill-rule="evenodd" stroke="none" stroke-linecap="butt" stroke-linejoin="miter" stroke-opacity="1" stroke-width="1" d="M 5.7688825,3.9116619 L 6.8100707,7.0848067 L 8,7.0848067 L 8,3.9116619 L 5.7688825,3.9116619 z" display="inline" opacity=".7"/><path id="path4602" fill="url(#linearGradient4515)" fill-opacity="1" fill-rule="evenodd" stroke="none" stroke-linecap="butt" stroke-linejoin="miter" stroke-opacity="1" stroke-width="1" d="M 5.0625,2 L 5.40625,3 L 9,3 L 9,8 L 7.09375,8 L 7.6875,9.84375 C 7.8720864,9.7628797 8,9.6530185 8,9.375 L 8,9 L 9,9 C 9.554,9 10,8.554 10,8 L 10,3 C 10,2.4460001 9.554,2 9,2 L 5.0625,2 z" display="inline" opacity=".15"/><g id="g3366" transform="translate(10,10)"><rect id="rect3368" width="10" height="10" x="-11" y="1" fill="url(#linearGradient3380)" fill-opacity="1" fill-rule="nonzero" stroke="none" stroke-dasharray="none" stroke-dashoffset="0" stroke-linecap="round" stroke-linejoin="round" stroke-miterlimit="4" stroke-opacity="1" stroke-width=".5" display="inline" opacity="1" rx="2" ry="2" transform="matrix(0,-1,1,0,0,0)"/><path id="path3370" fill="#000" fill-opacity="1" fill-rule="nonzero" stroke="none" stroke-dasharray="none" stroke-dashoffset="0" stroke-linecap="square" stroke-linejoin="miter" stroke-miterlimit="4" stroke-opacity="1" stroke-width="1" d="M 3,2 C 2.446,2 2,2.446 2,3 L 2,8 C 2,8.554 2.446,9 3,9 L 4,9 L 4,9.5 C 4,9.777 4.223,10 4.5,10 L 7.5,10 C 7.777,10 8,9.777 8,9.5 L 8,9 L 9,9 C 9.554,9 10,8.554 10,8 L 10,3 C 10,2.446 9.554,2 9,2 L 3,2 z" opacity="1"/><path id="path3372" fill="url(#radialGradient3382)" fill-opacity="1" fill-rule="nonzero" stroke="none" stroke-dasharray="none" stroke-dashoffset="0" stroke-linecap="square" stroke-linejoin="round" stroke-miterlimit="4" stroke-opacity=".697" stroke-width="1" d="M 12.0625,12.0625 L 12.0625,65.9375 L 83.9375,65.9375 L 83.9375,12.0625 L 12.0625,12.0625 z" display="inline" opacity="1" transform="matrix(-8.3478261e-2,0,0,-9.2807425e-2,10.006957,9.1194896)"/><path id="path3374" fill="#12429a" fill-opacity="1" fill-rule="nonzero" stroke="none" stroke-dasharray="none" stroke-dashoffset="0" stroke-linecap="square" stroke-linejoin="round" stroke-miterlimit="4" stroke-opacity=".697" stroke-width="1" d="M 3.0000004,2.9558315 L 3,8.0848072 L 8.980565,8.0977257 L 8.9805654,2.96875 L 3.0000004,2.9558315 z M 3.9375004,3.9870815 L 8.0430654,4 L 8.043065,7.0664756 L 3.9375,7.0535571 L 3.9375004,3.9870815 z" display="inline" opacity=".5"/><path id="path3376" fill="url(#linearGradient3384)" fill-opacity="1" fill-rule="evenodd" stroke="none" stroke-linecap="butt" stroke-linejoin="miter" stroke-opacity="1" stroke-width="1" d="M 5.7688825,3.9116619 L 6.8100707,7.0848067 L 8,7.0848067 L 8,3.9116619 L 5.7688825,3.9116619 z" display="inline" opacity=".7"/><path id="path3378" fill="url(#linearGradient3386)" fill-opacity="1" fill-rule="evenodd" stroke="none" stroke-linecap="butt" stroke-linejoin="miter" stroke-opacity="1" stroke-width="1" d="M 5.0625,2 L 5.40625,3 L 9,3 L 9,8 L 7.09375,8 L 7.6875,9.84375 C 7.8720864,9.7628797 8,9.6530185 8,9.375 L 8,9 L 9,9 C 9.554,9 10,8.554 10,8 L 10,3 C 10,2.4460001 9.554,2 9,2 L 5.0625,2 z" display="inline" opacity=".15"/></g><rect id="rect4526" width="10" height="10" x="-21" y="1" fill="url(#linearGradient4528)" fill-opacity="1" fill-rule="nonzero" stroke="none" stroke-dasharray="none" stroke-dashoffset="0" stroke-linecap="round" stroke-linejoin="round" stroke-miterlimit="4" stroke-opacity="1" stroke-width=".5" display="inline" rx="2" ry="2" transform="matrix(0,-1,1,0,0,0)"/><path id="rect3273" fill="url(#radialGradient7015)" fill-opacity="1" fill-rule="nonzero" stroke="none" stroke-dasharray="none" stroke-dashoffset="0" stroke-linecap="square" stroke-linejoin="miter" stroke-miterlimit="4" stroke-opacity="1" stroke-width="2" d="M 4.0424029,11.031802 L 4.0424029,15 L 10.035336,15 L 10.035336,11.217811 C 9.8882338,11.105128 9.7187587,11.031802 9.5359248,11.031802 L 4.0424029,11.031802 z" display="inline" opacity=".2"/><rect id="rect3255" width="4.069" height="1.982" x="4.963" y="12.018" fill="url(#radialGradient7013)" fill-opacity="1" fill-rule="nonzero" stroke="none" stroke-dasharray="none" stroke-dashoffset="0" stroke-linecap="square" stroke-linejoin="miter" stroke-miterlimit="4" stroke-opacity="1" stroke-width="1" display="inline" opacity="1"/><rect id="rect4532" width="2" height="4" x="4" y="16" fill="url(#linearGradient4555)" fill-opacity="1" fill-rule="nonzero" stroke="none" stroke-dasharray="none" stroke-dashoffset="0" stroke-linecap="square" stroke-linejoin="miter" stroke-miterlimit="4" stroke-opacity="1" stroke-width=".5" display="inline"/><rect id="rect4557" width="1" height="4" x="5" y="-20" fill="url(#linearGradient4567)" fill-opacity="1" fill-rule="nonzero" stroke="none" stroke-dasharray="none" stroke-dashoffset="0" stroke-linecap="square" stroke-linejoin="miter" stroke-miterlimit="4" stroke-opacity="1" stroke-width=".5" display="inline" opacity=".6" transform="scale(1,-1)"/><rect id="rect4569" width="2" height="4" x="6" y="16" fill="url(#linearGradient4575)" fill-opacity="1" fill-rule="nonzero" stroke="none" stroke-dasharray="none" stroke-dashoffset="0" stroke-linecap="square" stroke-linejoin="miter" stroke-miterlimit="4" stroke-opacity="1" stroke-width=".5" display="inline"/><rect id="rect4573" width="1" height="4" x="7" y="-20" fill="url(#linearGradient4579)" fill-opacity="1" fill-rule="nonzero" stroke="none" stroke-dasharray="none" stroke-dashoffset="0" stroke-linecap="square" stroke-linejoin="miter" stroke-miterlimit="4" stroke-opacity="1" stroke-width=".5" display="inline" opacity=".6" transform="scale(1,-1)"/><rect id="rect4581" width="2" height="4" x="8" y="16" fill="url(#linearGradient4587)" fill-opacity="1" fill-rule="nonzero" stroke="none" stroke-dasharray="none" stroke-dashoffset="0" stroke-linecap="square" stroke-linejoin="miter" stroke-miterlimit="4" stroke-opacity="1" stroke-width=".5" display="inline"/><rect id="rect4585" width="1" height="4" x="9" y="-20" fill="url(#linearGradient4591)" fill-opacity="1" fill-rule="nonzero" stroke="none" stroke-dasharray="none" stroke-dashoffset="0" stroke-linecap="square" stroke-linejoin="miter" stroke-miterlimit="4" stroke-opacity="1" stroke-width=".5" display="inline" opacity=".6" transform="scale(1,-1)"/><rect id="rect4593" width="1" height="9.938" x="3" y="10.98" fill="#000" fill-opacity="1" fill-rule="nonzero" stroke="none" stroke-dasharray="none" stroke-dashoffset="0" stroke-linecap="square" stroke-linejoin="miter" stroke-miterlimit="4" stroke-opacity="1" stroke-width="1" opacity=".4"/><rect id="rect4595" width=".972" height=".994" x="2.01" y="18.047" fill="#b3b3b3" fill-opacity="1" fill-rule="nonzero" stroke="none" stroke-dasharray="none" stroke-dashoffset="0" stroke-linecap="square" stroke-linejoin="miter" stroke-miterlimit="4" stroke-opacity="1" stroke-width="1" opacity=".4"/><rect id="rect4597" width=".972" height=".994" x="2.01" y="16.047" fill="#b3b3b3" fill-opacity="1" fill-rule="nonzero" stroke="none" stroke-dasharray="none" stroke-dashoffset="0" stroke-linecap="square" stroke-linejoin="miter" stroke-miterlimit="4" stroke-opacity="1" stroke-width="1" opacity=".4"/><rect id="rect4599" width=".972" height=".994" x="2.01" y="12.047" fill="#b3b3b3" fill-opacity="1" fill-rule="nonzero" stroke="none" stroke-dasharray="none" stroke-dashoffset="0" stroke-linecap="square" stroke-linejoin="miter" stroke-miterlimit="4" stroke-opacity="1" stroke-width="1" opacity=".4"/><rect id="rect4601" width="5.963" height=".994" x="4.01" y="16.047" fill="#b3b3b3" fill-opacity="1" fill-rule="nonzero" stroke="none" stroke-dasharray="none" stroke-dashoffset="0" stroke-linecap="square" stroke-linejoin="miter" stroke-miterlimit="4" stroke-opacity="1" stroke-width="1" opacity=".2"/><rect id="rect4640" width="5.982" height=".957" x="4" y="15.043" fill="#000" fill-opacity="1" fill-rule="nonzero" stroke="none" stroke-dasharray="none" stroke-dashoffset="0" stroke-linecap="square" stroke-linejoin="miter" stroke-miterlimit="4" stroke-opacity="1" stroke-width="1" opacity=".521"/><rect id="rect4642" width="1" height="1" x="5" y="15" fill="#aad400" fill-opacity="1" fill-rule="nonzero" stroke="none" stroke-dasharray="none" stroke-dashoffset="0" stroke-linecap="square" stroke-linejoin="miter" stroke-miterlimit="4" stroke-opacity="1" stroke-width="1" opacity="1"/><rect id="rect4644" width="1" height="1" x="7" y="15" fill="#aad400" fill-opacity="1" fill-rule="nonzero" stroke="none" stroke-dasharray="none" stroke-dashoffset="0" stroke-linecap="square" stroke-linejoin="miter" stroke-miterlimit="4" stroke-opacity="1" stroke-width="1" opacity="1"/><rect id="rect4646" width="1" height="1" x="9" y="15" fill="#aad400" fill-opacity="1" fill-rule="nonzero" stroke="none" stroke-dasharray="none" stroke-dashoffset="0" stroke-linecap="square" stroke-linejoin="miter" stroke-miterlimit="4" stroke-opacity="1" stroke-width="1" opacity="1"/><path id="path3235" fill="url(#linearGradient3073)" fill-opacity="1" fill-rule="evenodd" stroke="none" d="m 13,21 c -1.108,0 -2,-0.892 -2,-2 l 0,-1 c 0,1.108 0.892,2 2,2 l 6,0 c 1.108,0 2,-0.892 2,-2 l 0,1 c 0,1.108 -0.892,2 -2,2 z" display="inline" opacity=".35"/><path id="path3888" fill="url(#linearGradient3890)" fill-opacity="1" fill-rule="evenodd" stroke="none" d="M 3,21 C 1.892,21 1,20.108 1,19 l 0,-1 c 0,1.108 0.892,2 2,2 l 6,0 c 1.108,0 2,-0.892 2,-2 l 0,1 c 0,1.108 -0.892,2 -2,2 z" display="inline" opacity=".15"/><path id="path3892" fill="url(#linearGradient3894)" fill-opacity="1" fill-rule="evenodd" stroke="none" d="M 3,11 C 1.892,11 1,10.108 1,9 L 1,8 c 0,1.108 0.892,2 2,2 l 6,0 c 1.108,0 2,-0.892 2,-2 l 0,1 c 0,1.108 -0.892,2 -2,2 z" display="inline" opacity=".35"/><g id="g3896" transform="translate(10,10)"><rect id="rect3898" width="10" height="10" x="-11" y="1" fill="url(#linearGradient3380)" fill-opacity="1" fill-rule="nonzero" stroke="none" stroke-dasharray="none" stroke-dashoffset="0" stroke-linecap="round" stroke-linejoin="round" stroke-miterlimit="4" stroke-opacity="1" stroke-width=".5" display="inline" opacity="1" rx="2" ry="2" transform="matrix(0,-1,1,0,0,0)"/><path id="path3900" fill="#000" fill-opacity="1" fill-rule="nonzero" stroke="none" stroke-dasharray="none" stroke-dashoffset="0" stroke-linecap="square" stroke-linejoin="miter" stroke-miterlimit="4" stroke-opacity="1" stroke-width="1" d="M 3,2 C 2.446,2 2,2.446 2,3 L 2,8 C 2,8.554 2.446,9 3,9 L 4,9 L 4,9.5 C 4,9.777 4.223,10 4.5,10 L 7.5,10 C 7.777,10 8,9.777 8,9.5 L 8,9 L 9,9 C 9.554,9 10,8.554 10,8 L 10,3 C 10,2.446 9.554,2 9,2 L 3,2 z" opacity="1"/><path id="path3902" fill="url(#radialGradient3382)" fill-opacity="1" fill-rule="nonzero" stroke="none" stroke-dasharray="none" stroke-dashoffset="0" stroke-linecap="square" stroke-linejoin="round" stroke-miterlimit="4" stroke-opacity=".697" stroke-width="1" d="M 12.0625,12.0625 L 12.0625,65.9375 L 83.9375,65.9375 L 83.9375,12.0625 L 12.0625,12.0625 z" display="inline" opacity="1" transform="matrix(-8.3478261e-2,0,0,-9.2807425e-2,10.006957,9.1194896)"/><path id="path3904" fill="#12429a" fill-opacity="1" fill-rule="nonzero" stroke="none" stroke-dasharray="none" stroke-dashoffset="0" stroke-linecap="square" stroke-linejoin="round" stroke-miterlimit="4" stroke-opacity=".697" stroke-width="1" d="M 3.0000004,2.9558315 L 3,8.0848072 L 8.980565,8.0977257 L 8.9805654,2.96875 L 3.0000004,2.9558315 z M 3.9375004,3.9870815 L 8.0430654,4 L 8.043065,7.0664756 L 3.9375,7.0535571 L 3.9375004,3.9870815 z" display="inline" opacity=".5"/><path id="path3906" fill="url(#linearGradient3384)" fill-opacity="1" fill-rule="evenodd" stroke="none" stroke-linecap="butt" stroke-linejoin="miter" stroke-opacity="1" stroke-width="1" d="M 5.7688825,3.9116619 L 6.8100707,7.0848067 L 8,7.0848067 L 8,3.9116619 L 5.7688825,3.9116619 z" display="inline" opacity=".7"/><path id="path3908" fill="url(#linearGradient3386)" fill-opacity="1" fill-rule="evenodd" stroke="none" stroke-linecap="butt" stroke-linejoin="miter" stroke-opacity="1" stroke-width="1" d="M 5.0625,2 L 5.40625,3 L 9,3 L 9,8 L 7.09375,8 L 7.6875,9.84375 C 7.8720864,9.7628797 8,9.6530185 8,9.375 L 8,9 L 9,9 C 9.554,9 10,8.554 10,8 L 10,3 C 10,2.4460001 9.554,2 9,2 L 5.0625,2 z" display="inline" opacity=".15"/></g><path id="rect3930" fill="url(#linearGradient3943)" fill-opacity="1" fill-rule="nonzero" stroke="none" d="M 3 11 C 1.892 11 1 11.892 1 13 L 1 19 C 1 20.108 1.892 21 3 21 L 9 21 C 10.108 21 11 20.108 11 19 L 11 13 C 11 11.892 10.108 11 9 11 L 3 11 z M 3 11.96875 L 9 11.96875 C 9.5894732 11.96875 10.03125 12.410527 10.03125 13 L 10.03125 19 C 10.03125 19.589473 9.5894732 20.03125 9 20.03125 L 3 20.03125 C 2.4105268 20.03125 1.96875 19.589473 1.96875 19 L 1.96875 13 C 1.96875 12.410527 2.4105268 11.96875 3 11.96875 z" display="inline" opacity=".2"/><path id="path3945" fill="url(#linearGradient3947)" fill-opacity="1" fill-rule="nonzero" stroke="none" d="m 13,11 c -1.108,0 -2,0.892 -2,2 l 0,6 c 0,1.108 0.892,2 2,2 l 6,0 c 1.108,0 2,-0.892 2,-2 l 0,-6 c 0,-1.108 -0.892,-2 -2,-2 l -6,0 z m 0,0.96875 6,0 c 0.589473,0 1.03125,0.441777 1.03125,1.03125 l 0,6 c 0,0.589473 -0.441777,1.03125 -1.03125,1.03125 l -6,0 c -0.589473,0 -1.03125,-0.441777 -1.03125,-1.03125 l 0,-6 c 0,-0.589473 0.441777,-1.03125 1.03125,-1.03125 z" display="inline" opacity=".7"/><path id="path3949" fill="url(#linearGradient3951)" fill-opacity="1" fill-rule="nonzero" stroke="none" d="M 3,1 C 1.892,1 1,1.892 1,3 l 0,6 c 0,1.108 0.892,2 2,2 l 6,0 c 1.108,0 2,-0.892 2,-2 L 11,3 C 11,1.892 10.108,1 9,1 L 3,1 z m 0,0.96875 6,0 c 0.589473,0 1.03125,0.441777 1.03125,1.03125 l 0,6 c 0,0.589473 -0.441777,1.03125 -1.03125,1.03125 l -6,0 C 2.410527,10.03125 1.96875,9.589473 1.96875,9 l 0,-6 C 1.96875,2.410527 2.410527,1.96875 3,1.96875 z" display="inline" opacity=".7"/></g></svg>