<svg xmlns="http://www.w3.org/2000/svg" xmlns:svg="http://www.w3.org/2000/svg" xmlns:xlink="http://www.w3.org/1999/xlink" id="svg2" width="24" height="24" display="inline" version="1.0"><defs id="defs4"><linearGradient id="linearGradient3327"><stop id="stop3330" offset="0" stop-color="#000" stop-opacity="1"/><stop id="stop3333" offset="1" stop-color="#000" stop-opacity="0"/></linearGradient><linearGradient id="linearGradient3335" x1="11.375" x2="11.375" y1="22" y2="-9.817" gradientUnits="userSpaceOnUse" xlink:href="#linearGradient3327"/><linearGradient id="ButtonShadow" x1="9.355" x2="9.355" y1="21.743" y2=".494" gradientTransform="scale(0.9883037,1.0118347)" gradientUnits="userSpaceOnUse"><stop id="stop3277" offset="0" stop-color="#000" stop-opacity=".706"/><stop id="stop3279" offset="1" stop-color="#000" stop-opacity=".078"/></linearGradient><linearGradient id="ButtonColor" x1="10.32" x2="10.32" y1="21" y2=".999" gradientUnits="userSpaceOnUse"><stop id="stop19440" offset="0" stop-color="#8f1cac" stop-opacity="1"/><stop id="stop19442" offset="1" stop-color="#d285e6" stop-opacity="1"/></linearGradient><linearGradient id="linearGradient3181" x1="-3.061" x2="-3.061" y1="27.258" y2="7.254" gradientTransform="translate(12.119372,-7.2581978)" gradientUnits="userSpaceOnUse" xlink:href="#linearGradient4138"/><linearGradient id="linearGradient3215"><stop id="stop3217" offset="0" stop-color="#000" stop-opacity="1"/><stop id="stop3219" offset="1" stop-color="#000" stop-opacity="0"/></linearGradient><linearGradient id="linearGradient3221" x1="11" x2="11" y1="14.806" y2="-6" gradientUnits="userSpaceOnUse" xlink:href="#linearGradient3215"/><linearGradient id="linearGradient2442" x1="47.667" x2="47.667" y1="121.972" y2="5.949" gradientTransform="matrix(0.1678362,0,0,0.1678362,0.244736,0.2447379)" gradientUnits="userSpaceOnUse" xlink:href="#linearGradient3187"/><linearGradient id="linearGradient3544"><stop id="stop3546" offset="0" stop-color="#040404" stop-opacity="1"/><stop id="stop3548" offset="1" stop-color="#4b4b4b" stop-opacity="1"/></linearGradient><linearGradient id="linearGradient3532"><stop id="stop3534" offset="0" stop-color="#fff" stop-opacity="1"/><stop id="stop3536" offset="1" stop-color="#fff" stop-opacity="0"/></linearGradient><linearGradient id="linearGradient3495"><stop id="stop3497" offset="0" stop-color="#555" stop-opacity="1"/><stop id="stop3503" offset=".44" stop-color="#797979" stop-opacity="1"/><stop id="stop3505" offset=".578" stop-color="#999" stop-opacity="1"/><stop id="stop3499" offset="1" stop-color="#d3d3d3" stop-opacity="1"/></linearGradient><linearGradient id="linearGradient3436"><stop id="stop3438" offset="0" stop-color="#fff" stop-opacity="1"/><stop id="stop3440" offset="1" stop-color="#fff" stop-opacity="0"/></linearGradient><linearGradient id="linearGradient3423"><stop id="stop3425" offset="0" stop-color="#000" stop-opacity="1"/><stop id="stop3427" offset="1" stop-color="#000" stop-opacity="0"/></linearGradient><linearGradient id="linearGradient3330"><stop id="stop3332" offset="0" stop-color="#c8c8c8" stop-opacity="1"/><stop id="stop3338" offset=".564" stop-color="#646464" stop-opacity="1"/><stop id="stop3340" offset=".642" stop-color="#505050" stop-opacity="1"/><stop id="stop3334" offset="1" stop-color="#282828" stop-opacity="1"/></linearGradient><linearGradient id="linearGradient3322"><stop id="stop3324" offset="0" stop-color="#fff" stop-opacity="1"/><stop id="stop3326" offset="1" stop-color="#282828" stop-opacity="1"/></linearGradient><linearGradient id="linearGradient3929"><stop id="stop3931" offset="0" stop-color="#000" stop-opacity="1"/><stop id="stop3933" offset="1" stop-color="#000" stop-opacity=".588"/></linearGradient><linearGradient id="linearGradient3187"><stop id="stop3189" offset="0" stop-color="#95450b" stop-opacity="1"/><stop id="stop3191" offset="1" stop-color="#d79869" stop-opacity="1"/></linearGradient><radialGradient id="radialGradient3994" cx="71.418" cy="32.695" r="34.449" fx="71.418" fy="32.695" gradientTransform="matrix(-4.9335871e-8,1.5375001,-2.1378289,-6.8599443e-8,141.31345,-77.110153)" gradientUnits="userSpaceOnUse" xlink:href="#linearGradient3330"/><linearGradient id="linearGradient3996" x1="74.863" x2="74.863" y1="30.972" y2="80.731" gradientUnits="userSpaceOnUse" xlink:href="#linearGradient3322"/><linearGradient id="linearGradient3998" x1="61.99" x2="61.99" y1="30.972" y2="99.992" gradientUnits="userSpaceOnUse" xlink:href="#linearGradient3495"/><radialGradient id="radialGradient4010" cx="71.418" cy="32.695" r="34.449" fx="71.418" fy="32.695" gradientTransform="matrix(-4.9335871e-8,1.5375001,-2.1378289,-6.8599443e-8,141.31345,-77.110153)" gradientUnits="userSpaceOnUse" xlink:href="#linearGradient3330"/><linearGradient id="linearGradient4012" x1="74.863" x2="74.863" y1="30.972" y2="80.731" gradientUnits="userSpaceOnUse" xlink:href="#linearGradient3322"/><linearGradient id="linearGradient4014" x1="61.99" x2="61.99" y1="30.972" y2="99.992" gradientUnits="userSpaceOnUse" xlink:href="#linearGradient3495"/><linearGradient id="linearGradient4019" x1="69.184" x2="69.184" y1="78.969" y2="49.031" gradientTransform="translate(29.5,-55)" gradientUnits="userSpaceOnUse" xlink:href="#linearGradient3532"/><linearGradient id="linearGradient4024" x1="62.638" x2="61.638" y1="94" y2="65.679" gradientTransform="matrix(0.1808593,0,0,0.1808593,-1.2731072,-2.1492146)" gradientUnits="userSpaceOnUse" xlink:href="#linearGradient3436"/><linearGradient id="linearGradient4027" x1="60.34" x2="60.34" y1="34" y2="60.063" gradientTransform="matrix(0.1808593,0,0,0.1808593,-1.2731072,-2.1492146)" gradientUnits="userSpaceOnUse" xlink:href="#linearGradient3423"/><linearGradient id="linearGradient4031" x1="67.288" x2="68.183" y1="31.233" y2="92.192" gradientUnits="userSpaceOnUse" xlink:href="#linearGradient3436"/><linearGradient id="linearGradient4033" x1="59.141" x2="59.141" y1="31.833" y2="99.174" gradientUnits="userSpaceOnUse" xlink:href="#linearGradient3544"/><linearGradient id="linearGradient4035" x1="61.99" x2="61.99" y1="30.972" y2="99.992" gradientUnits="userSpaceOnUse" xlink:href="#linearGradient3495"/><radialGradient id="radialGradient4037" cx="71.418" cy="32.695" r="34.449" fx="71.418" fy="32.695" gradientTransform="matrix(-4.9335871e-8,1.5375001,-2.1378289,-6.8599443e-8,141.31345,-77.110153)" gradientUnits="userSpaceOnUse" xlink:href="#linearGradient3330"/><linearGradient id="linearGradient4039" x1="74.863" x2="74.863" y1="30.972" y2="80.731" gradientUnits="userSpaceOnUse" xlink:href="#linearGradient3322"/><radialGradient id="radialGradient4052" cx="71.418" cy="32.695" r="34.449" fx="71.418" fy="32.695" gradientTransform="matrix(-4.9335871e-8,1.5375001,-2.1378289,-6.8599443e-8,141.31345,-77.110153)" gradientUnits="userSpaceOnUse" xlink:href="#linearGradient3330"/><linearGradient id="linearGradient4054" x1="74.863" x2="74.863" y1="30.972" y2="80.731" gradientUnits="userSpaceOnUse" xlink:href="#linearGradient3322"/><linearGradient id="linearGradient4056" x1="60.34" x2="60.34" y1="34" y2="60.063" gradientTransform="matrix(0.1808593,0,0,0.1808593,-1.2731072,-2.1492146)" gradientUnits="userSpaceOnUse" xlink:href="#linearGradient3423"/><linearGradient id="linearGradient4058" x1="62.638" x2="61.638" y1="94" y2="65.679" gradientTransform="matrix(0.1808593,0,0,0.1808593,-1.2731072,-2.1492146)" gradientUnits="userSpaceOnUse" xlink:href="#linearGradient3436"/><linearGradient id="linearGradient4060" x1="61.99" x2="61.99" y1="30.972" y2="99.992" gradientUnits="userSpaceOnUse" xlink:href="#linearGradient3495"/><linearGradient id="linearGradient4062" x1="69.184" x2="69.184" y1="78.969" y2="49.031" gradientTransform="translate(29.5,-55)" gradientUnits="userSpaceOnUse" xlink:href="#linearGradient3532"/><linearGradient id="linearGradient4064" x1="59.141" x2="59.141" y1="31.833" y2="99.174" gradientUnits="userSpaceOnUse" xlink:href="#linearGradient3544"/><linearGradient id="linearGradient4066" x1="67.288" x2="68.183" y1="31.233" y2="92.192" gradientUnits="userSpaceOnUse" xlink:href="#linearGradient3436"/><linearGradient id="linearGradient3706" x1="48" x2="48" y1="90" y2="5.988" gradientUnits="userSpaceOnUse" xlink:href="#linearGradient4138"/><linearGradient id="linearGradient4138"><stop id="stop4140" offset="0" stop-color="#505050" stop-opacity="1"/><stop id="stop4142" offset="1" stop-color="#8c8c8c" stop-opacity="1"/></linearGradient><linearGradient id="linearGradient4161" x1="48" x2="48" y1="90" y2="5.988" gradientTransform="translate(-83,-50)" gradientUnits="userSpaceOnUse" xlink:href="#linearGradient4138"/><radialGradient id="radialGradient3801" cx="71.418" cy="32.695" r="34.449" fx="71.418" fy="32.695" gradientTransform="matrix(-4.7003791e-8,1.4648233,-2.0367749,-6.5356785e-8,114.59173,-87.793832)" gradientUnits="userSpaceOnUse" xlink:href="#linearGradient3330-3"/><linearGradient id="linearGradient3330-3"><stop id="stop3332-3" offset="0" stop-color="#f0f0f0" stop-opacity="1"/><stop id="stop3338-9" offset=".564" stop-color="#b4b4b4" stop-opacity="1"/><stop id="stop3340-5" offset=".642" stop-color="#a0a0a0" stop-opacity="1"/><stop id="stop3334-5" offset="1" stop-color="#787878" stop-opacity="1"/></linearGradient><linearGradient id="linearGradient3803" x1="74.863" x2="74.863" y1="30.972" y2="80.731" gradientTransform="matrix(0.95273054,0,0,0.95273055,-20.041905,-14.328634)" gradientUnits="userSpaceOnUse" xlink:href="#linearGradient3322-3"/><linearGradient id="linearGradient3322-3"><stop id="stop3324-7" offset="0" stop-color="#6b6b6b" stop-opacity="1"/><stop id="stop3326-6" offset="1" stop-color="#282828" stop-opacity="1"/></linearGradient><radialGradient id="radialGradient4186" cx="71.418" cy="32.695" r="34.449" fx="71.418" fy="32.695" gradientTransform="matrix(-4.7003791e-8,1.4648233,-2.0367749,-6.5356785e-8,49.59173,-134.79383)" gradientUnits="userSpaceOnUse" xlink:href="#linearGradient3330-3"/><linearGradient id="linearGradient4188" x1="74.863" x2="74.863" y1="30.972" y2="80.731" gradientTransform="matrix(0.95273054,0,0,0.95273055,-85.041905,-61.328634)" gradientUnits="userSpaceOnUse" xlink:href="#linearGradient3322-3"/><radialGradient id="radialGradient3801-7" cx="71.418" cy="32.695" r="34.449" fx="71.418" fy="32.695" gradientTransform="matrix(-4.7003791e-8,1.4648233,-2.0367749,-6.5356785e-8,114.59173,-87.793832)" gradientUnits="userSpaceOnUse" xlink:href="#linearGradient4190"/><linearGradient id="linearGradient4190"><stop id="stop4192" offset="0" stop-color="#f0f0f0" stop-opacity="1"/><stop id="stop4194" offset=".564" stop-color="#b4b4b4" stop-opacity="1"/><stop id="stop4196" offset=".642" stop-color="#a0a0a0" stop-opacity="1"/><stop id="stop4198" offset="1" stop-color="#787878" stop-opacity="1"/></linearGradient><linearGradient id="linearGradient3803-5" x1="74.863" x2="74.863" y1="30.972" y2="80.731" gradientTransform="matrix(0.95273054,0,0,0.95273055,-20.041905,-14.328634)" gradientUnits="userSpaceOnUse" xlink:href="#linearGradient3322-7"/><linearGradient id="linearGradient3322-7"><stop id="stop3324-3" offset="0" stop-color="#6b6b6b" stop-opacity="1"/><stop id="stop3326-0" offset="1" stop-color="#282828" stop-opacity="1"/></linearGradient><radialGradient id="radialGradient4223" cx="71.418" cy="32.695" r="34.449" fx="71.418" fy="32.695" gradientTransform="matrix(-4.7003791e-8,1.4648233,-2.0367749,-6.5356785e-8,47.59173,-138.79383)" gradientUnits="userSpaceOnUse" xlink:href="#linearGradient4190"/><linearGradient id="linearGradient4225" x1="74.863" x2="74.863" y1="30.972" y2="80.731" gradientTransform="matrix(0.95273054,0,0,0.95273055,-87.041905,-65.328634)" gradientUnits="userSpaceOnUse" xlink:href="#linearGradient3322-7"/><linearGradient id="linearGradient4874" x1="62.638" x2="61.638" y1="94" y2="65.679" gradientTransform="matrix(0.19230762,0,0,0.19230762,-0.30768998,-2.3080631)" gradientUnits="userSpaceOnUse" xlink:href="#linearGradient3436"/><linearGradient id="linearGradient4877" x1="60.34" x2="60.34" y1="34" y2="60.063" gradientTransform="matrix(0.19230762,0,0,0.19230762,-0.30768998,-2.3080631)" gradientUnits="userSpaceOnUse" xlink:href="#linearGradient3423"/><radialGradient id="radialGradient4881" cx="71.418" cy="32.695" r="34.449" fx="71.418" fy="32.695" gradientTransform="matrix(-4.9335871e-8,1.5375001,-2.1378289,-6.8599443e-8,141.31345,-77.110153)" gradientUnits="userSpaceOnUse" xlink:href="#linearGradient4190"/><radialGradient id="radialGradient3838" cx="86.75" cy="80.753" r="34.497" fx="86.75" fy="80.753" gradientUnits="userSpaceOnUse" xlink:href="#linearGradient4227"/><linearGradient id="linearGradient4227"><stop id="stop4229" offset="0" stop-color="#eacc72" stop-opacity="1"/><stop id="stop4231" offset="1" stop-color="#d49110" stop-opacity="1"/></linearGradient><radialGradient id="radialGradient4252" cx="86.75" cy="80.753" r="34.497" fx="86.75" fy="80.753" gradientUnits="userSpaceOnUse" xlink:href="#linearGradient4227"/><radialGradient id="radialGradient4904" cx="89.331" cy="83.334" r="35.827" fx="89.331" fy="83.334" gradientUnits="userSpaceOnUse" xlink:href="#linearGradient4227"/><radialGradient id="radialGradient4910" cx="71.418" cy="32.695" r="34.449" fx="71.418" fy="32.695" gradientTransform="matrix(-1.1750982e-8,0.36620688,-0.50919518,-1.6339243e-8,-1.3520183,-21.948555)" gradientUnits="userSpaceOnUse" xlink:href="#linearGradient4190"/><radialGradient id="radialGradient4917" cx="71.418" cy="32.695" r="34.449" fx="71.418" fy="32.695" gradientTransform="matrix(-1.1750982e-8,0.36620688,-0.50919518,-1.6339243e-8,-1.3520183,-22.948555)" gradientUnits="userSpaceOnUse" xlink:href="#linearGradient4190"/><radialGradient id="radialGradient4919" cx="71.418" cy="32.695" r="34.449" fx="71.418" fy="32.695" gradientTransform="matrix(-1.1750982e-8,0.36620688,-0.50919518,-1.6339243e-8,-1.3520183,-21.948555)" gradientUnits="userSpaceOnUse" xlink:href="#linearGradient4190"/><filter id="filter4938"><feGaussianBlur id="feGaussianBlur4940" stdDeviation="1.344"/></filter><linearGradient id="linearGradient4952" x1="19" x2="21" y1="17" y2="17" gradientTransform="matrix(1.5,0,0,1.5,-12.5,-45)" gradientUnits="userSpaceOnUse" xlink:href="#linearGradient4190"/><linearGradient id="linearGradient3078" x1="10" x2="10" y1="1" y2="16" gradientTransform="translate(1,-1)" gradientUnits="userSpaceOnUse" xlink:href="#linearGradient3823"/><linearGradient id="linearGradient3823"><stop id="stop3825" offset="0" stop-color="#fff" stop-opacity="1"/><stop id="stop3829" offset="1" stop-color="#fff" stop-opacity="0"/></linearGradient><linearGradient id="linearGradient3845" x1="11" x2="21" y1="19.5" y2="19.5" gradientTransform="translate(1,-1)" gradientUnits="userSpaceOnUse" spreadMethod="reflect" xlink:href="#linearGradient3831"/><linearGradient id="linearGradient3831"><stop id="stop3833" offset="0" stop-color="#fff" stop-opacity="1"/><stop id="stop3821" offset=".75" stop-color="#fff" stop-opacity=".498"/><stop id="stop3835" offset="1" stop-color="#fff" stop-opacity="0"/></linearGradient><linearGradient id="linearGradient3984" x1="10" x2="10" y1="1" y2="16" gradientTransform="translate(1,-1)" gradientUnits="userSpaceOnUse" xlink:href="#linearGradient3823"/></defs><metadata id="metadata7"/><g id="layer1" display="inline" transform="translate(0,2)"><g id="g3337" display="inline" transform="translate(1,-1)"><rect id="rect3371" width="21" height="21.5" x=".5" y=".5" fill="url(#linearGradient3335)" fill-opacity="1" stroke="none" display="inline" opacity=".3" rx="2.5" ry="2.5"/><rect id="rect2553" width="20" height="20" x="1" y="2" fill="#000" fill-opacity="1" stroke="none" display="inline" opacity=".5" rx="2.381" ry="2.326"/></g><rect id="rect3173" width="20" height="20" x="2" y="0" fill="url(#linearGradient3181)" fill-opacity="1" fill-rule="evenodd" stroke="none" display="inline" rx="2" ry="2"/><path id="rect3050" fill="url(#linearGradient3984)" fill-opacity="1" fill-rule="evenodd" stroke="none" d="M 4,0 C 2.892,0 2,0.892 2,2 l 0,16 c 0,1.108 0.892,2 2,2 l 16,0 c 1.108,0 2,-0.892 2,-2 L 22,2 C 22,0.892 21.108,0 20,0 L 4,0 z m 0,1.03125 16,0 c 0.5497,0 0.96875,0.4190495 0.96875,0.96875 l 0,16 c 0,0.5497 -0.41905,0.96875 -0.96875,0.96875 l -16,0 C 3.4502995,18.96875 3.03125,18.5497 3.03125,18 l 0,-16 C 3.03125,1.4502995 3.4502995,1.03125 4,1.03125 z" display="inline" opacity=".2"/><path id="path3235" fill="url(#linearGradient3845)" fill-opacity="1" fill-rule="evenodd" stroke="none" d="M 4,20 C 2.892,20 2,19.108 2,18 l 0,-1 c 0,1.108 0.892,2 2,2 l 16,0 c 1.108,0 2,-0.892 2,-2 l 0,1 c 0,1.108 -0.892,2 -2,2 L 4,20 z" display="inline" opacity=".15"/></g><g id="layer2" display="inline" transform="translate(0,2)"><path id="path4959" fill="#000" fill-opacity="1" fill-rule="nonzero" stroke="none" stroke-width="1" d="m 20.5,15.1875 c -0.711127,0 -1.3125,0.601373 -1.3125,1.3125 0,0.270369 0.16631,0.476528 0.3125,0.6875 -1.265127,0 -2.3125,1.047373 -2.3125,2.3125 0,1.265127 1.047373,2.3125 2.3125,2.3125 1.265127,0 2.3125,-1.047373 2.3125,-2.3125 0,-0.788522 -0.481932,-1.363842 -1.09375,-1.78125 0.595903,-0.119946 1.09375,-0.592817 1.09375,-1.21875 0,-0.711127 -0.601373,-1.3125 -1.3125,-1.3125 z" color="#000" display="inline" enable-background="accumulate" opacity=".2" overflow="visible" transform="translate(0,-2)" visibility="visible" style="marker:none"/><path id="path4934" fill="#000" fill-opacity="1" fill-rule="evenodd" stroke="none" d="m 105.00536,65.421051 a 33.587574,33.587574 0 1 1 -67.175148,0 33.587574,33.587574 0 1 1 67.175148,0 z" filter="url(#filter4938)" opacity=".8" transform="matrix(0.23818332,0,0,0.23818332,-5.0105253,-5.082203)"/><path id="path3320" fill="url(#radialGradient4881)" fill-opacity="1" fill-rule="evenodd" stroke="none" d="m 105.00536,65.421051 a 33.587574,33.587574 0 1 1 -67.175148,0 33.587574,33.587574 0 1 1 67.175148,0 z" transform="matrix(0.23818332,0,0,0.23818332,-5.0105253,-5.5822031)"/><path id="path3412" fill="#323232" fill-opacity="1" fill-rule="evenodd" stroke="none" d="m 105.00536,65.421051 a 33.587574,33.587574 0 1 1 -67.175148,0 33.587574,33.587574 0 1 1 67.175148,0 z" transform="matrix(0.17863749,0,0,0.17863749,-0.75789397,-1.6866523)"/><path id="path3493" fill="url(#radialGradient4904)" fill-opacity="1" fill-rule="evenodd" stroke="#c2c2c2" stroke-dasharray="none" stroke-dashoffset="0" stroke-linecap="butt" stroke-linejoin="round" stroke-miterlimit="4" stroke-opacity="1" stroke-width="4.478" d="m 105.00536,65.421051 a 33.587574,33.587574 0 1 1 -67.175148,0 33.587574,33.587574 0 1 1 67.175148,0 z" transform="matrix(0.11164843,0,0,0.11164843,4.0263164,2.6958424)"/><path id="path3540" fill="url(#linearGradient4064)" fill-opacity="1" fill-rule="evenodd" stroke="none" d="m 105.00536,65.421051 a 33.587574,33.587574 0 1 1 -67.175148,0 33.587574,33.587574 0 1 1 67.175148,0 z" transform="matrix(0.04626073,0,0,0.04626073,8.6961547,6.9731954)"/><path id="path3552" fill="url(#linearGradient4066)" fill-opacity="1" fill-rule="evenodd" stroke="none" d="m 105.00536,65.421051 a 33.587574,33.587574 0 1 1 -67.175148,0 33.587574,33.587574 0 1 1 67.175148,0 z" opacity=".8" transform="matrix(0.03462107,0,0,0.02222229,9.5274339,7.9593933)"/><path id="path4906" fill="#fff" fill-opacity="1" fill-rule="evenodd" stroke="none" d="M 6.03125,10.625 C 6.023779,10.747591 6,10.875529 6,11 c 0,3.313708 2.686292,6 6,6 3.313708,0 6,-2.686292 6,-6 0,-0.124471 -0.02378,-0.252409 -0.03125,-0.375 C 17.66149,13.650536 15.106601,16 12,16 8.893399,16 6.33851,13.650536 6.03125,10.625 z" opacity=".2"/><path id="path4924" fill="#000" fill-opacity="1" fill-rule="evenodd" stroke="none" d="m 7.7573593,5.7573593 c -2.3431457,2.3431458 -2.3431457,6.1421357 0,8.4852817 0.088014,0.08801 0.1952943,0.161666 0.2872621,0.243068 C 6.1225098,12.129066 6.267767,8.6611652 8.4644661,6.4644661 10.661165,4.2677668 14.129066,4.1225098 16.485709,6.0446214 c -0.0814,-0.091968 -0.155054,-0.1992478 -0.243068,-0.2872621 -2.343146,-2.3431457 -6.142136,-2.3431454 -8.4852817,0 z" opacity=".5"/><path id="path4929" fill="#fff" fill-opacity="1" fill-rule="evenodd" stroke="none" d="m 6.53125,10 c 0,2.757254 2.0411882,5.008303 4.6875,5.40625 C 8.8264135,14.916707 7.03125,12.787058 7.03125,10.25 7.03125,7.350505 9.381755,5 12.28125,5 14.818308,5 16.947957,6.795163 17.4375,9.1875 17.039553,6.541188 14.788504,4.5 12.03125,4.5 c -3.037566,0 -5.5,2.462434 -5.5,5.5 z M 17.4375,9.1875 C 17.47247,9.358381 17.48208,9.54226 17.5,9.71875 17.4907,9.535964 17.46421,9.365149 17.4375,9.1875 z m -6.21875,6.21875 c 0.177649,0.02671 0.348464,0.05321 0.53125,0.0625 -0.17649,-0.01792 -0.360369,-0.02753 -0.53125,-0.0625 z" opacity=".4"/><rect id="rect4942" width="1" height="1" x="20" y="16" fill="#7fff2a" fill-opacity="1" fill-rule="nonzero" stroke="none" stroke-width="1" color="#000" display="inline" enable-background="accumulate" opacity=".8" overflow="visible" rx="2" ry="1" transform="translate(0,-2)" visibility="visible" style="marker:none"/><rect id="rect4944" width="3" height="3" x="16" y="-21" fill="url(#linearGradient4952)" fill-opacity="1" fill-rule="nonzero" stroke="none" stroke-width="1" color="#000" display="inline" enable-background="accumulate" opacity=".8" overflow="visible" rx="6" ry="3" transform="matrix(0,1,-1,0,0,0)" visibility="visible" style="marker:none"/></g></svg>