<svg xmlns="http://www.w3.org/2000/svg" xmlns:svg="http://www.w3.org/2000/svg" xmlns:xlink="http://www.w3.org/1999/xlink" id="svg2" width="22" height="22" display="inline" version="1.0"><defs id="defs4"><linearGradient id="linearGradient3327"><stop id="stop3330" offset="0" stop-color="#000" stop-opacity="1"/><stop id="stop3333" offset="1" stop-color="#000" stop-opacity="0"/></linearGradient><linearGradient id="linearGradient3335" x1="11.375" x2="11.375" y1="22" y2="-9.817" gradientUnits="userSpaceOnUse" xlink:href="#linearGradient3327"/><linearGradient id="linearGradient3181" x1="-3.061" x2="-3.061" y1="27.258" y2="7.254" gradientTransform="translate(11.119372,-6.2581977)" gradientUnits="userSpaceOnUse" xlink:href="#ButtonColor"/><filter id="filter8716" width="1.54" height="2.081" x="-.27" y="-.541"><feGaussianBlur id="feGaussianBlur8718" stdDeviation="2.021"/></filter><linearGradient id="ButtonShadow" x1="9.355" x2="9.355" y1="21.743" y2=".494" gradientTransform="scale(0.9883037,1.0118347)" gradientUnits="userSpaceOnUse"><stop id="stop3277" offset="0" stop-color="#000" stop-opacity=".706"/><stop id="stop3279" offset="1" stop-color="#000" stop-opacity=".157"/></linearGradient><linearGradient id="linearGradient3232"><stop id="stop3234" offset="0" stop-color="#000" stop-opacity="1"/><stop id="stop3236" offset="1" stop-color="#000" stop-opacity="0"/></linearGradient><linearGradient id="linearGradient3221" x1="11" x2="11" y1="14.806" y2="-6" gradientUnits="userSpaceOnUse" xlink:href="#linearGradient3232"/><linearGradient id="ButtonColor" x1="10.32" x2="10.32" y1="21" y2=".999" gradientUnits="userSpaceOnUse"><stop id="stop3189" offset="0" stop-color="#1d5282" stop-opacity="1"/><stop id="stop3191" offset="1" stop-color="#568fc2" stop-opacity="1"/></linearGradient><linearGradient id="linearGradient38042" x1="9.355" x2="9.355" y1="21.743" y2=".494" gradientTransform="scale(0.9883037,1.0118347)" gradientUnits="userSpaceOnUse" xlink:href="#ButtonShadow"/><filter id="filter4317"><feGaussianBlur id="feGaussianBlur4319" stdDeviation=".261"/></filter><linearGradient id="linearGradient3078" x1="10" x2="10" y1="1" y2="16" gradientTransform="translate(1,-1)" gradientUnits="userSpaceOnUse" xlink:href="#linearGradient3823"/><linearGradient id="linearGradient3823"><stop id="stop3825" offset="0" stop-color="#fff" stop-opacity="1"/><stop id="stop3829" offset="1" stop-color="#fff" stop-opacity="0"/></linearGradient><linearGradient id="linearGradient3845" x1="11" x2="21" y1="19.5" y2="19.5" gradientUnits="userSpaceOnUse" spreadMethod="reflect" xlink:href="#linearGradient3831"/><linearGradient id="linearGradient3831"><stop id="stop3833" offset="0" stop-color="#fff" stop-opacity="1"/><stop id="stop3821" offset=".75" stop-color="#fff" stop-opacity=".498"/><stop id="stop3835" offset="1" stop-color="#fff" stop-opacity="0"/></linearGradient><linearGradient id="linearGradient3961" x1="10" x2="10" y1="1" y2="16" gradientUnits="userSpaceOnUse" xlink:href="#linearGradient3823"/><clipPath id="clipPath2849" clipPathUnits="userSpaceOnUse"><rect id="rect2851" width="20" height="20" x="1" y="1" fill="#fff" fill-opacity="1" fill-rule="evenodd" stroke="none" display="inline" rx="2" ry="2"/></clipPath><filter id="filter3194" width="1.36" height="1.36" x="-.18" y="-.18" color-interpolation-filters="sRGB"><feGaussianBlur id="feGaussianBlur3196" stdDeviation="1.2"/></filter></defs><metadata id="metadata7"/><g id="layer1"><g id="g3337" display="inline"><rect id="rect3371" width="21" height="21.5" x=".5" y=".5" fill="url(#linearGradient3335)" fill-opacity="1" stroke="none" display="inline" opacity=".3" rx="2.5" ry="2.5"/><rect id="rect2553" width="20" height="20" x="1" y="2" fill="#000" fill-opacity="1" stroke="none" display="inline" opacity=".5" rx="2.381" ry="2.326"/></g><rect id="rect3173" width="20" height="20" x="1" y="1" fill="url(#linearGradient3181)" fill-opacity="1" fill-rule="evenodd" stroke="none" display="inline" rx="2" ry="2"/><path id="rect3050" fill="url(#linearGradient3961)" fill-opacity="1" fill-rule="evenodd" stroke="none" d="M 3,1 C 1.892,1 1,1.892 1,3 l 0,16 c 0,1.108 0.892,2 2,2 l 16,0 c 1.108,0 2,-0.892 2,-2 L 21,3 C 21,1.892 20.108,1 19,1 L 3,1 z m 0,1.03125 16,0 c 0.5497,0 0.96875,0.4190495 0.96875,0.96875 l 0,16 c 0,0.5497 -0.41905,0.96875 -0.96875,0.96875 l -16,0 C 2.4502995,19.96875 2.03125,19.5497 2.03125,19 l 0,-16 C 2.03125,2.4502995 2.4502995,2.03125 3,2.03125 z" display="inline" opacity=".3"/><path id="path3235" fill="url(#linearGradient3845)" fill-opacity="1" fill-rule="evenodd" stroke="none" d="M 3,21 C 1.892,21 1,20.108 1,19 l 0,-1 c 0,1.108 0.892,2 2,2 l 16,0 c 1.108,0 2,-0.892 2,-2 l 0,1 c 0,1.108 -0.892,2 -2,2 L 3,21 z" display="inline" opacity=".2"/></g><g id="layer2"><rect id="rect2410" width="16" height="16" x="3" y="3" fill="#fff" fill-opacity="1" fill-rule="nonzero" stroke="none" clip-path="url(#clipPath2849)" display="inline" filter="url(#filter3194)" opacity=".15" rx="2" ry="2"/></g><g id="layer3" display="inline"><path id="path4315" fill="#000" fill-opacity="1" stroke="none" d="m 12.641425,6.1031102 c 0,0.8849164 -0.702137,1.6031096 -1.56727,1.6031096 -0.865135,0 -1.5672717,-0.7181932 -1.5672717,-1.6031096 0,-0.8849171 0.7021367,-1.6031107 1.5672717,-1.6031107 0.865133,0 1.56727,0.7181936 1.56727,1.6031107 z m 3.911692,1.7046255 C 12.757142,8.6925668 9.3972292,8.6729197 5.3226193,7.8243901 5.1246476,7.7897788 4.9354796,8.0798926 4.9333587,8.2508796 c -0.00194,0.171011 0.1048618,0.31849 0.2567518,0.398063 l 4.1724658,1.3538924 -0.028538,3.108079 -1.472295,4.654903 c -0.1417996,0.211963 -0.098581,0.484185 0.1141121,0.625495 0.2127022,0.141333 0.5143325,0.09827 0.6561476,-0.113717 l 2.375988,-5.024507 2.331136,5.015824 c 0.126051,0.219854 0.407036,0.296226 0.627616,0.170604 0.220578,-0.125629 0.297213,-0.405669 0.171166,-0.625525 l -1.444965,-4.674929 -0.05705,-3.014383 4.231013,-1.4923904 c 0.170949,-0.119479 0.245215,-0.345671 0.171172,-0.540211 C 16.964029,7.897516 16.76054,7.7841611 16.553099,7.8077357 l 1.4e-5,0 z" display="inline" filter="url(#filter4317)" opacity=".8"/><path id="path6668" fill="#fff" fill-opacity="1" stroke="none" d="m 12.641425,5.6031105 c 0,0.8849164 -0.702137,1.6031096 -1.56727,1.6031096 -0.865135,0 -1.5672717,-0.7181932 -1.5672717,-1.6031096 0,-0.8849171 0.7021367,-1.6031107 1.5672717,-1.6031107 0.865133,0 1.56727,0.7181936 1.56727,1.6031107 z M 16.553117,7.307736 C 12.757142,8.1925671 9.3972292,8.17292 5.3226193,7.3243904 5.1246476,7.2897791 4.9354796,7.5798929 4.9333587,7.7508799 c -0.00194,0.171011 0.1048618,0.31849 0.2567518,0.398063 l 4.1724658,1.353892 -0.028538,3.1080791 -1.472295,4.654903 c -0.1417996,0.211963 -0.098581,0.484185 0.1141121,0.625495 0.2127022,0.141333 0.5143325,0.09827 0.6561476,-0.113717 l 2.375988,-5.024507 2.331136,5.015824 c 0.126051,0.219854 0.407036,0.296226 0.627616,0.170604 0.220578,-0.125629 0.297213,-0.405669 0.171166,-0.625525 l -1.444965,-4.674929 -0.05705,-3.0143823 4.231013,-1.4923908 c 0.170949,-0.119479 0.245215,-0.345671 0.171172,-0.540211 C 16.964029,7.3975163 16.76054,7.2841614 16.553099,7.307736 l 1.4e-5,0 z" display="inline"/><rect id="rect4290" width="17" height="17" x="2.5" y="2.5" fill="none" stroke="#fff" stroke-dasharray="none" stroke-dashoffset="0" stroke-linecap="round" stroke-linejoin="miter" stroke-miterlimit="4" stroke-opacity="1" stroke-width="1" display="inline" opacity=".5" rx="1" ry="1"/></g></svg>