<svg xmlns="http://www.w3.org/2000/svg" xmlns:svg="http://www.w3.org/2000/svg" xmlns:xlink="http://www.w3.org/1999/xlink" id="svg2" width="24" height="24" display="inline" version="1.0"><defs id="defs4"><linearGradient id="linearGradient4315"><stop id="stop4317" offset="0" stop-color="#fff" stop-opacity="1"/><stop id="stop4319" offset="1" stop-color="#fff" stop-opacity="0"/></linearGradient><linearGradient id="linearGradient4213"><stop id="stop4215" offset="0" stop-color="#989898" stop-opacity="1"/><stop id="stop4217" offset="1" stop-color="#e3e3e3" stop-opacity="1"/></linearGradient><linearGradient id="linearGradient3327"><stop id="stop3330" offset="0" stop-color="#000" stop-opacity="1"/><stop id="stop3333" offset="1" stop-color="#000" stop-opacity="0"/></linearGradient><linearGradient id="linearGradient3335" x1="11.375" x2="11.375" y1="22" y2="-9.817" gradientUnits="userSpaceOnUse" xlink:href="#linearGradient3327"/><linearGradient id="linearGradient3181" x1="-3.061" x2="-3.061" y1="27.258" y2="7.254" gradientTransform="translate(12.119372,-7.2581977)" gradientUnits="userSpaceOnUse" xlink:href="#linearGradient3641"/><linearGradient id="ButtonShadow" x1="9.355" x2="9.355" y1="21.743" y2=".494" gradientTransform="scale(0.9883037,1.0118347)" gradientUnits="userSpaceOnUse"><stop id="stop3277" offset="0" stop-color="#000" stop-opacity=".706"/><stop id="stop3279" offset="1" stop-color="#000" stop-opacity=".157"/></linearGradient><linearGradient id="linearGradient3232"><stop id="stop3234" offset="0" stop-color="#000" stop-opacity="1"/><stop id="stop3236" offset="1" stop-color="#000" stop-opacity="0"/></linearGradient><linearGradient id="linearGradient3221" x1="11" x2="11" y1="14.806" y2="-6" gradientUnits="userSpaceOnUse" xlink:href="#linearGradient3232"/><linearGradient id="ButtonColor" x1="10.32" x2="10.32" y1="21" y2=".999" gradientUnits="userSpaceOnUse"><stop id="stop3189" offset="0" stop-color="#29669f" stop-opacity="1"/><stop id="stop3191" offset="1" stop-color="#88b6e0" stop-opacity="1"/></linearGradient><linearGradient id="linearGradient38042" x1="9.355" x2="9.355" y1="21.743" y2=".494" gradientTransform="scale(0.9883037,1.0118347)" gradientUnits="userSpaceOnUse" xlink:href="#ButtonShadow"/><filter id="filter3194" width="1.36" height="1.36" x="-.18" y="-.18" color-interpolation-filters="sRGB"><feGaussianBlur id="feGaussianBlur3196" stdDeviation="1.2"/></filter><clipPath id="clipPath2849" clipPathUnits="userSpaceOnUse"><rect id="rect2851" width="20" height="20" x="1" y="1" fill="#fff" fill-opacity="1" fill-rule="evenodd" stroke="none" display="inline" rx="2" ry="2"/></clipPath><linearGradient id="linearGradient3617" x1="48" x2="48" y1="90" y2="5.988" gradientUnits="userSpaceOnUse" xlink:href="#linearGradient3641"/><linearGradient id="linearGradient3641"><stop id="stop3643" offset="0" stop-color="#b4b4b4" stop-opacity="1"/><stop id="stop3645" offset="1" stop-color="#dcdcdc" stop-opacity="1"/></linearGradient><linearGradient id="linearGradient3746"><stop id="stop3748" offset="0" stop-color="#404040" stop-opacity="1"/><stop id="stop3753" offset=".6" stop-color="#0a0a0a" stop-opacity="1"/><stop id="stop3751" offset="1" stop-color="#4e4e4e" stop-opacity="1"/></linearGradient><linearGradient id="linearGradient3732"><stop id="stop3734" offset="0" stop-color="#000" stop-opacity="0"/><stop id="stop3740" offset=".95" stop-color="#000" stop-opacity="0"/><stop id="stop3736" offset="1" stop-color="#000" stop-opacity="1"/></linearGradient><linearGradient id="linearGradient3650"><stop id="stop3709" offset="0" stop-color="#141414" stop-opacity="1"/><stop id="stop3654" offset="1" stop-color="#616161" stop-opacity="1"/></linearGradient><linearGradient id="linearGradient3719"><stop id="stop3721" offset="0" stop-color="#4b4b4b" stop-opacity="1"/><stop id="stop3723" offset=".374" stop-color="#232323" stop-opacity="1"/><stop id="stop3725" offset="1" stop-color="#5c5c5c" stop-opacity="1"/></linearGradient><linearGradient id="linearGradient3670" x1="16.162" x2="76.838" y1="52.099" y2="52.099" gradientUnits="userSpaceOnUse" xlink:href="#linearGradient3664"/><linearGradient id="linearGradient3664"><stop id="stop3666" offset="0" stop-color="#000" stop-opacity=".298"/><stop id="stop3668" offset="1" stop-color="#fff" stop-opacity=".645"/></linearGradient><linearGradient id="linearGradient3681"><stop id="stop3683" offset="0" stop-color="#fff" stop-opacity=".185"/><stop id="stop3689" offset=".309" stop-color="#fff" stop-opacity=".109"/><stop id="stop3691" offset=".436" stop-color="#000" stop-opacity="0"/><stop id="stop3693" offset=".545" stop-color="#000" stop-opacity="0"/><stop id="stop3695" offset=".583" stop-color="#fff" stop-opacity="0"/><stop id="stop3697" offset=".615" stop-color="#000" stop-opacity=".181"/><stop id="stop3699" offset=".691" stop-color="#000" stop-opacity=".431"/><stop id="stop3701" offset=".781" stop-color="#fff" stop-opacity=".081"/><stop id="stop3703" offset=".876" stop-color="#000" stop-opacity="0"/><stop id="stop3685" offset="1" stop-color="#fff" stop-opacity="0"/></linearGradient><linearGradient id="linearGradient3797"><stop id="stop3799" offset="0" stop-color="#fff" stop-opacity="1"/><stop id="stop3805" offset=".5" stop-color="#fff" stop-opacity="1"/><stop id="stop3801" offset="1" stop-color="#fff" stop-opacity="0"/></linearGradient><linearGradient id="linearGradient3881"><stop id="stop3883" offset="0" stop-color="#d40000" stop-opacity="0"/><stop id="stop3889" offset=".5" stop-color="#d40000" stop-opacity="1"/><stop id="stop3885" offset="1" stop-color="#d40000" stop-opacity="0"/></linearGradient><linearGradient id="linearGradient3891"><stop id="stop3893" offset="0" stop-color="#d42aff" stop-opacity="0"/><stop id="stop3899" offset=".5" stop-color="#d42aff" stop-opacity="1"/><stop id="stop3895" offset="1" stop-color="#d42aff" stop-opacity="0"/></linearGradient><linearGradient id="linearGradient3901"><stop id="stop3903" offset="0" stop-color="#60f" stop-opacity="0"/><stop id="stop3909" offset=".5" stop-color="#60f" stop-opacity="1"/><stop id="stop3905" offset="1" stop-color="#60f" stop-opacity="0"/></linearGradient><linearGradient id="linearGradient3911"><stop id="stop3913" offset="0" stop-color="#2a7fff" stop-opacity="0"/><stop id="stop3919" offset=".5" stop-color="#2a7fff" stop-opacity="1"/><stop id="stop3915" offset="1" stop-color="#2a7fff" stop-opacity="0"/></linearGradient><linearGradient id="linearGradient3921"><stop id="stop3923" offset="0" stop-color="#5fd3bc" stop-opacity="0"/><stop id="stop3929" offset=".5" stop-color="#5fd3bc" stop-opacity="1"/><stop id="stop3925" offset="1" stop-color="#5fd3bc" stop-opacity="0"/></linearGradient><linearGradient id="linearGradient3851"><stop id="stop3853" offset="0" stop-color="#55d400" stop-opacity="0"/><stop id="stop3859" offset=".5" stop-color="#55d400" stop-opacity="1"/><stop id="stop3855" offset="1" stop-color="#55d400" stop-opacity="0"/></linearGradient><linearGradient id="linearGradient3861"><stop id="stop3863" offset="0" stop-color="#fc0" stop-opacity="0"/><stop id="stop3869" offset=".5" stop-color="#fc0" stop-opacity="1"/><stop id="stop3865" offset="1" stop-color="#fc0" stop-opacity="0"/></linearGradient><linearGradient id="linearGradient3871"><stop id="stop3873" offset="0" stop-color="#f60" stop-opacity="0"/><stop id="stop3879" offset=".5" stop-color="#f60" stop-opacity="1"/><stop id="stop3875" offset="1" stop-color="#f60" stop-opacity="0"/></linearGradient><clipPath id="clipPath3798" clipPathUnits="userSpaceOnUse"><path id="path3800" fill="#f0f" fill-opacity="1" stroke="none" d="m 61.366765,45.997448 a 13.637059,13.637059 0 1 1 -27.274118,0 13.637059,13.637059 0 1 1 27.274118,0 z" transform="matrix(1.0266143,0,0,1.0266143,-0.999999,0.778362)"/></clipPath><linearGradient id="linearGradient4227" x1="5" x2="9" y1="5" y2="5" gradientTransform="translate(-12,7)" gradientUnits="userSpaceOnUse" xlink:href="#linearGradient4213"/><linearGradient id="linearGradient4233" x1="5" x2="9" y1="5" y2="5" gradientTransform="translate(-12,12)" gradientUnits="userSpaceOnUse" xlink:href="#linearGradient4213"/><linearGradient id="linearGradient4273" x1="5" x2="9" y1="5" y2="5" gradientTransform="translate(-22,3)" gradientUnits="userSpaceOnUse" xlink:href="#linearGradient4213"/><linearGradient id="linearGradient4279" x1="5" x2="9" y1="5" y2="5" gradientTransform="translate(-12,2)" gradientUnits="userSpaceOnUse" xlink:href="#linearGradient4213"/><linearGradient id="linearGradient4321" x1="6" x2="9" y1="5" y2="5" gradientTransform="translate(-12,-12)" gradientUnits="userSpaceOnUse" xlink:href="#linearGradient4315"/><linearGradient id="linearGradient4325" x1="5" x2="9" y1="5" y2="5" gradientTransform="translate(-17,9)" gradientUnits="userSpaceOnUse" xlink:href="#linearGradient4213"/><linearGradient id="linearGradient4329" x1="5" x2="9" y1="5" y2="5" gradientTransform="translate(-17,4)" gradientUnits="userSpaceOnUse" xlink:href="#linearGradient4213"/><linearGradient id="linearGradient4333" x1="5" x2="9" y1="5" y2="5" gradientTransform="translate(-22,11)" gradientUnits="userSpaceOnUse" xlink:href="#linearGradient4213"/><linearGradient id="linearGradient4337" x1="6" x2="9" y1="5" y2="5" gradientTransform="translate(-12,-22)" gradientUnits="userSpaceOnUse" xlink:href="#linearGradient4315"/><linearGradient id="linearGradient4341" x1="6" x2="9" y1="5" y2="5" gradientTransform="translate(-12,-17)" gradientUnits="userSpaceOnUse" xlink:href="#linearGradient4315"/><linearGradient id="linearGradient4345" x1="6" x2="9" y1="5" y2="5" gradientTransform="translate(-17,-14)" gradientUnits="userSpaceOnUse" xlink:href="#linearGradient4315"/><linearGradient id="linearGradient4349" x1="6" x2="9" y1="5" y2="5" gradientTransform="translate(-17,-19)" gradientUnits="userSpaceOnUse" xlink:href="#linearGradient4315"/><linearGradient id="linearGradient4353" x1="6" x2="9" y1="5" y2="5" gradientTransform="translate(-22,-21)" gradientUnits="userSpaceOnUse" xlink:href="#linearGradient4315"/><linearGradient id="linearGradient4357" x1="6" x2="9" y1="5" y2="5" gradientTransform="translate(-22,-16)" gradientUnits="userSpaceOnUse" xlink:href="#linearGradient4315"/><linearGradient id="linearGradient3845" x1="11" x2="21" y1="19.5" y2="19.5" gradientTransform="translate(1,-1)" gradientUnits="userSpaceOnUse" spreadMethod="reflect" xlink:href="#linearGradient3831"/><linearGradient id="linearGradient3831"><stop id="stop3833" offset="0" stop-color="#fff" stop-opacity="1"/><stop id="stop3821" offset=".75" stop-color="#fff" stop-opacity=".498"/><stop id="stop3835" offset="1" stop-color="#fff" stop-opacity="0"/></linearGradient><linearGradient id="linearGradient3084" x1="10" x2="10" y1="1" y2="16" gradientUnits="userSpaceOnUse" xlink:href="#linearGradient3823"/><linearGradient id="linearGradient3823"><stop id="stop3825" offset="0" stop-color="#fff" stop-opacity="1"/><stop id="stop3829" offset="1" stop-color="#fff" stop-opacity="0"/></linearGradient><linearGradient id="linearGradient3078" x1="10" x2="10" y1="1" y2="16" gradientTransform="translate(1,-1)" gradientUnits="userSpaceOnUse" xlink:href="#linearGradient3823"/></defs><metadata id="metadata7"/><g id="layer1" transform="translate(0,2)"><g id="g3337" display="inline" transform="translate(1,-1)"><rect id="rect3371" width="21" height="21.5" x=".5" y=".5" fill="url(#linearGradient3335)" fill-opacity="1" stroke="none" display="inline" opacity=".3" rx="2.5" ry="2.5"/><rect id="rect2553" width="20" height="20" x="1" y="2" fill="#000" fill-opacity="1" stroke="none" display="inline" opacity=".5" rx="2.381" ry="2.326"/></g><rect id="rect3173" width="20" height="20" x="2" y="0" fill="url(#linearGradient3181)" fill-opacity="1" fill-rule="evenodd" stroke="none" display="inline" opacity=".96" rx="2" ry="2"/><path id="rect3050" fill="url(#linearGradient3078)" fill-opacity="1" fill-rule="evenodd" stroke="none" d="M 4,0 C 2.892,0 2,0.892 2,2 l 0,16 c 0,1.108 0.892,2 2,2 l 16,0 c 1.108,0 2,-0.892 2,-2 L 22,2 C 22,0.892 21.108,0 20,0 L 4,0 z m 0,1.03125 16,0 c 0.5497,0 0.96875,0.4190495 0.96875,0.96875 l 0,16 c 0,0.5497 -0.41905,0.96875 -0.96875,0.96875 l -16,0 C 3.4502995,18.96875 3.03125,18.5497 3.03125,18 l 0,-16 C 3.03125,1.4502995 3.4502995,1.03125 4,1.03125 z" display="inline" opacity=".6"/><path id="path3235" fill="url(#linearGradient3845)" fill-opacity="1" fill-rule="evenodd" stroke="none" d="M 4,20 C 2.892,20 2,19.108 2,18 l 0,-1 c 0,1.108 0.892,2 2,2 l 16,0 c 1.108,0 2,-0.892 2,-2 l 0,1 c 0,1.108 -0.892,2 -2,2 L 4,20 z" display="inline" opacity=".35"/></g><g id="layer2" transform="translate(0,2)"><rect id="rect2410" width="16" height="16" x="3" y="3" fill="#fff" fill-opacity="1" fill-rule="nonzero" stroke="none" clip-path="url(#clipPath2849)" display="inline" filter="url(#filter3194)" opacity=".5" rx="2" ry="2" transform="translate(1,-1)"/></g><g id="layer3" transform="translate(0,2)"><path id="rect4302" fill="#000" fill-opacity="1" fill-rule="nonzero" stroke="none" stroke-width="1" d="M 5,4 C 4.446,4 4,4.446 4,5 l 0,4 c 0,0.554 0.446,1 1,1 l 1,0 0,4 c -0.554,0 -1,0.446 -1,1 l 0,4 c 0,0.554 0.446,1 1,1 l 12,0 c 0.554,0 1,-0.446 1,-1 l 0,-4 c 0,-0.554 -0.446,-1 -1,-1 l -1,0 0,-4 2,0 c 0.554,0 1,-0.446 1,-1 L 20,5 C 20,4.446 19.554,4 19,4 L 5,4 z" color="#000" display="inline" enable-background="accumulate" opacity=".5" overflow="visible" transform="translate(0,-2)" visibility="visible" style="marker:none"/><rect id="rect3416" width="4" height="4" x="-7" y="5" fill="url(#linearGradient4279)" fill-opacity="1" fill-rule="nonzero" stroke="none" stroke-width="1" color="#000" display="inline" enable-background="accumulate" overflow="visible" rx=".5" ry=".5" transform="matrix(0,-1,1,0,0,0)" visibility="visible" style="marker:none"/><rect id="rect4221" width="2" height="2" x="-6" y="-8" fill="url(#linearGradient4321)" fill-opacity="1" fill-rule="nonzero" stroke="none" stroke-width="1" color="#000" display="inline" enable-background="accumulate" overflow="visible" rx=".25" ry=".25" transform="matrix(0,-1,-1,0,0,0)" visibility="visible" style="marker:none"/><rect id="rect4223" width="4" height="4" x="-7" y="10" fill="url(#linearGradient4227)" fill-opacity="1" fill-rule="nonzero" stroke="none" stroke-width="1" color="#000" display="inline" enable-background="accumulate" overflow="visible" rx=".5" ry=".5" transform="matrix(0,-1,1,0,0,0)" visibility="visible" style="marker:none"/><rect id="rect4229" width="4" height="4" x="-7" y="15" fill="url(#linearGradient4233)" fill-opacity="1" fill-rule="nonzero" stroke="none" stroke-width="1" color="#000" display="inline" enable-background="accumulate" overflow="visible" rx=".5" ry=".5" transform="matrix(0,-1,1,0,0,0)" visibility="visible" style="marker:none"/><rect id="rect4241" width="4" height="4" x="-12" y="7" fill="url(#linearGradient4329)" fill-opacity="1" fill-rule="nonzero" stroke="none" stroke-width="1" color="#000" display="inline" enable-background="accumulate" overflow="visible" rx=".5" ry=".5" transform="matrix(0,-1,1,0,0,0)" visibility="visible" style="marker:none"/><rect id="rect4249" width="4" height="4" x="-12" y="12" fill="url(#linearGradient4325)" fill-opacity="1" fill-rule="nonzero" stroke="none" stroke-width="1" color="#000" display="inline" enable-background="accumulate" overflow="visible" rx=".5" ry=".5" transform="matrix(0,-1,1,0,0,0)" visibility="visible" style="marker:none"/><rect id="rect4257" width="4" height="7" x="-17" y="6" fill="url(#linearGradient4273)" fill-opacity="1" fill-rule="nonzero" stroke="none" stroke-width="1" color="#000" display="inline" enable-background="accumulate" overflow="visible" rx=".5" ry=".5" transform="matrix(0,-1,1,0,0,0)" visibility="visible" style="marker:none"/><rect id="rect4265" width="4" height="4" x="-17" y="14" fill="url(#linearGradient4333)" fill-opacity="1" fill-rule="nonzero" stroke="none" stroke-width="1" color="#000" display="inline" enable-background="accumulate" overflow="visible" rx=".5" ry=".5" transform="matrix(0,-1,1,0,0,0)" visibility="visible" style="marker:none"/><path id="rect4281" fill="#000" fill-opacity="1" fill-rule="nonzero" stroke="none" stroke-width="1" d="m 5,8.5 0,1 C 5,9.777 5.223,10 5.5,10 l 3,0 C 8.777,10 9,9.777 9,9.5 l 0,-1 C 9,8.777 8.777,9 8.5,9 l -3,0 C 5.223,9 5,8.777 5,8.5 z m 5,0 0,1 c 0,0.277 0.223,0.5 0.5,0.5 l 3,0 C 13.777,10 14,9.777 14,9.5 l 0,-1 C 14,8.777 13.777,9 13.5,9 l -3,0 C 10.223,9 10,8.777 10,8.5 z m 5,0 0,1 c 0,0.277 0.223,0.5 0.5,0.5 l 3,0 C 18.777,10 19,9.777 19,9.5 l 0,-1 C 19,8.777 18.777,9 18.5,9 l -3,0 C 15.223,9 15,8.777 15,8.5 z m -8,5 0,1 C 7,14.777 7.223,15 7.5,15 l 3,0 c 0.277,0 0.5,-0.223 0.5,-0.5 l 0,-1 c 0,0.277 -0.223,0.5 -0.5,0.5 l -3,0 C 7.223,14 7,13.777 7,13.5 z m 5,0 0,1 c 0,0.277 0.223,0.5 0.5,0.5 l 3,0 c 0.277,0 0.5,-0.223 0.5,-0.5 l 0,-1 c 0,0.277 -0.223,0.5 -0.5,0.5 l -3,0 C 12.223,14 12,13.777 12,13.5 z m -6,5 0,1 C 6,19.777 6.223,20 6.5,20 l 6,0 c 0.277,0 0.5,-0.223 0.5,-0.5 l 0,-1 c 0,0.277 -0.223,0.5 -0.5,0.5 l -6,0 C 6.223,19 6,18.777 6,18.5 z m 8,0 0,1 c 0,0.277 0.223,0.5 0.5,0.5 l 3,0 c 0.277,0 0.5,-0.223 0.5,-0.5 l 0,-1 c 0,0.277 -0.223,0.5 -0.5,0.5 l -3,0 C 14.223,19 14,18.777 14,18.5 z" color="#000" display="inline" enable-background="accumulate" opacity=".6" overflow="visible" transform="translate(0,-2)" visibility="visible" style="marker:none"/><path id="path4310" fill="#fff" fill-opacity="1" fill-rule="nonzero" stroke="none" stroke-width="1" d="m 4,9 0,1 c 0,0.554 0.446,1 1,1 l 1,0 0,-1 -1,0 C 4.446,10 4,9.554 4,9 z m 16,0 c 0,0.554 -0.446,1 -1,1 l -2,0 0,1 2,0 c 0.554,0 1,-0.446 1,-1 L 20,9 z M 5,19 5,20 c 0,0.554 0.446,1 1,1 l 12,0 c 0.554,0 1,-0.446 1,-1 l 0,-1 c 0,0.554 -0.446,1 -1,1 L 6,20 C 5.446,20 5,19.554 5,19 z" color="#000" display="inline" enable-background="accumulate" opacity=".6" overflow="visible" transform="translate(0,-2)" visibility="visible" style="marker:none"/><rect id="rect4335" width="2" height="2" x="-6" y="-18" fill="url(#linearGradient4337)" fill-opacity="1" fill-rule="nonzero" stroke="none" stroke-width="1" color="#000" display="inline" enable-background="accumulate" overflow="visible" rx=".25" ry=".25" transform="matrix(0,-1,-1,0,0,0)" visibility="visible" style="marker:none"/><rect id="rect4339" width="2" height="2" x="-6" y="-13" fill="url(#linearGradient4341)" fill-opacity="1" fill-rule="nonzero" stroke="none" stroke-width="1" color="#000" display="inline" enable-background="accumulate" overflow="visible" rx=".25" ry=".25" transform="matrix(0,-1,-1,0,0,0)" visibility="visible" style="marker:none"/><rect id="rect4343" width="2" height="2" x="-11" y="-10" fill="url(#linearGradient4345)" fill-opacity="1" fill-rule="nonzero" stroke="none" stroke-width="1" color="#000" display="inline" enable-background="accumulate" overflow="visible" rx=".25" ry=".25" transform="matrix(0,-1,-1,0,0,0)" visibility="visible" style="marker:none"/><rect id="rect4347" width="2" height="2" x="-11" y="-15" fill="url(#linearGradient4349)" fill-opacity="1" fill-rule="nonzero" stroke="none" stroke-width="1" color="#000" display="inline" enable-background="accumulate" overflow="visible" rx=".25" ry=".25" transform="matrix(0,-1,-1,0,0,0)" visibility="visible" style="marker:none"/><rect id="rect4351" width="2" height="2" x="-16" y="-17" fill="url(#linearGradient4353)" fill-opacity="1" fill-rule="nonzero" stroke="none" stroke-width="1" color="#000" display="inline" enable-background="accumulate" overflow="visible" rx=".25" ry=".25" transform="matrix(0,-1,-1,0,0,0)" visibility="visible" style="marker:none"/><rect id="rect4355" width="2" height="5" x="-16" y="-12" fill="url(#linearGradient4357)" fill-opacity="1" fill-rule="nonzero" stroke="none" stroke-width="1" color="#000" display="inline" enable-background="accumulate" overflow="visible" rx=".25" ry=".25" transform="matrix(0,-1,-1,0,0,0)" visibility="visible" style="marker:none"/><rect id="rect4360" width="1" height="1" x="6" y="6" fill="#000" fill-opacity="1" fill-rule="nonzero" stroke="none" stroke-width="1" color="#000" display="inline" enable-background="accumulate" opacity=".3" overflow="visible" transform="translate(0,-2)" visibility="visible" style="marker:none"/><rect id="rect4364" width="1" height="1" x="11" y="4" fill="#000" fill-opacity="1" fill-rule="nonzero" stroke="none" stroke-width="1" color="#000" display="inline" enable-background="accumulate" opacity=".4" overflow="visible" visibility="visible" style="marker:none"/><rect id="rect4366" width="1" height="1" x="16" y="4" fill="#000" fill-opacity="1" fill-rule="nonzero" stroke="none" stroke-width="1" color="#000" display="inline" enable-background="accumulate" opacity=".3" overflow="visible" visibility="visible" style="marker:none"/><rect id="rect4368" width="1" height="1" x="13" y="9" fill="#000" fill-opacity="1" fill-rule="nonzero" stroke="none" stroke-width="1" color="#000" display="inline" enable-background="accumulate" opacity=".3" overflow="visible" visibility="visible" style="marker:none"/><rect id="rect4370" width="1" height="1" x="8" y="9" fill="#000" fill-opacity="1" fill-rule="nonzero" stroke="none" stroke-width="1" color="#000" display="inline" enable-background="accumulate" opacity=".3" overflow="visible" visibility="visible" style="marker:none"/><rect id="rect4372" width="1" height="1" x="7" y="14" fill="#000" fill-opacity="1" fill-rule="nonzero" stroke="none" stroke-width="1" color="#000" display="inline" enable-background="accumulate" opacity=".5" overflow="visible" visibility="visible" style="marker:none"/><rect id="rect4374" width="1" height="1" x="8" y="14" fill="#000" fill-opacity="1" fill-rule="nonzero" stroke="none" stroke-width="1" color="#000" display="inline" enable-background="accumulate" opacity=".3" overflow="visible" visibility="visible" style="marker:none"/><rect id="rect4376" width="1" height="1" x="9" y="14" fill="#000" fill-opacity="1" fill-rule="nonzero" stroke="none" stroke-width="1" color="#000" display="inline" enable-background="accumulate" opacity=".4" overflow="visible" visibility="visible" style="marker:none"/><rect id="rect4378" width="1" height="1" x="15" y="14" fill="#000" fill-opacity="1" fill-rule="nonzero" stroke="none" stroke-width="1" color="#000" display="inline" enable-background="accumulate" opacity=".3" overflow="visible" visibility="visible" style="marker:none"/></g></svg>