<svg xmlns="http://www.w3.org/2000/svg" xmlns:svg="http://www.w3.org/2000/svg" xmlns:xlink="http://www.w3.org/1999/xlink" id="svg2" width="22" height="22" display="inline" version="1.0"><defs id="defs4"><linearGradient id="linearGradient3972"><stop id="stop3974" offset="0" stop-color="#000" stop-opacity="1"/><stop id="stop3976" offset="1" stop-color="#000" stop-opacity="0"/></linearGradient><linearGradient id="linearGradient3327"><stop id="stop3330" offset="0" stop-color="#000" stop-opacity="1"/><stop id="stop3333" offset="1" stop-color="#000" stop-opacity="0"/></linearGradient><linearGradient id="linearGradient3335" x1="11.375" x2="11.375" y1="22" y2="-9.817" gradientUnits="userSpaceOnUse" xlink:href="#linearGradient3327"/><linearGradient id="ButtonShadow" x1="9.355" x2="9.355" y1="21.743" y2=".494" gradientTransform="scale(0.9883037,1.0118347)" gradientUnits="userSpaceOnUse"><stop id="stop3277" offset="0" stop-color="#000" stop-opacity=".706"/><stop id="stop3279" offset="1" stop-color="#000" stop-opacity=".157"/></linearGradient><linearGradient id="linearGradient3232"><stop id="stop3234" offset="0" stop-color="#000" stop-opacity="1"/><stop id="stop3236" offset="1" stop-color="#000" stop-opacity="0"/></linearGradient><linearGradient id="linearGradient3221" x1="11" x2="11" y1="14.806" y2="-6" gradientUnits="userSpaceOnUse" xlink:href="#linearGradient3232"/><linearGradient id="ButtonColor" x1="10.32" x2="10.32" y1="21" y2=".999" gradientUnits="userSpaceOnUse"><stop id="stop3189" offset="0" stop-color="#29669f" stop-opacity="1"/><stop id="stop3191" offset="1" stop-color="#88b6e0" stop-opacity="1"/></linearGradient><linearGradient id="linearGradient38042" x1="9.355" x2="9.355" y1="21.743" y2=".494" gradientTransform="scale(0.9883037,1.0118347)" gradientUnits="userSpaceOnUse" xlink:href="#ButtonShadow"/><filter id="filter3194" width="1.36" height="1.36" x="-.18" y="-.18" color-interpolation-filters="sRGB"><feGaussianBlur id="feGaussianBlur3196" stdDeviation="1.2"/></filter><clipPath id="clipPath2849" clipPathUnits="userSpaceOnUse"><rect id="rect2851" width="20" height="20" x="1" y="1" fill="#fff" fill-opacity="1" fill-rule="evenodd" stroke="none" display="inline" rx="2" ry="2"/></clipPath><radialGradient id="radialGradient2858" cx="48" cy="90.172" r="42" fx="48" fy="90.172" gradientTransform="matrix(0.29846825,0,0,0.25684224,-33.578346,-5.1388041)" gradientUnits="userSpaceOnUse" xlink:href="#linearGradient3737-4"/><linearGradient id="linearGradient3737-4"><stop id="stop3739-1" offset="0" stop-color="#fff" stop-opacity="1"/><stop id="stop3741-8" offset="1" stop-color="#fff" stop-opacity="0"/></linearGradient><linearGradient id="linearGradient4424" x1="8.965" x2="8.965" y1="44.04" y2="52.263" gradientTransform="matrix(-0.25789762,0,0,0.25789762,-5.850364,-12.189644)" gradientUnits="userSpaceOnUse" xlink:href="#linearGradient4414"/><linearGradient id="linearGradient4414"><stop id="stop4416" offset="0" stop-color="#dac3a2" stop-opacity="1"/><stop id="stop4418" offset="1" stop-color="#dac3a2" stop-opacity="0"/></linearGradient><linearGradient id="linearGradient4420" x1="8.965" x2="8.965" y1="44.04" y2="52.263" gradientTransform="matrix(0.25789762,0,0,0.25789762,-0.04760323,-1.3488591)" gradientUnits="userSpaceOnUse" xlink:href="#linearGradient4414"/><linearGradient id="linearGradient3737"><stop id="stop3739" offset="0" stop-color="#fff" stop-opacity="1"/><stop id="stop3741" offset="1" stop-color="#fff" stop-opacity="0"/></linearGradient><linearGradient id="linearGradient3277" x1="50.499" x2="50.499" y1="19.882" y2="47.295" gradientTransform="matrix(0.26307136,0,0,0.26307136,-32.997348,-3.7051321)" gradientUnits="userSpaceOnUse" xlink:href="#linearGradient4309"/><linearGradient id="linearGradient4309" x1="52.25" x2="52.25" y1="47.247" y2=".239" gradientUnits="userSpaceOnUse"><stop id="stop4311" offset="0" stop-color="#d8cab2" stop-opacity="1"/><stop id="stop4321" offset=".457" stop-color="#d2b98c" stop-opacity="1"/><stop id="stop4323" offset=".486" stop-color="#F9F7EF"/><stop id="stop4325" offset=".491" stop-color="#FFF"/><stop id="stop4327" offset=".492" stop-color="#FBF9F4"/><stop id="stop4329" offset=".495" stop-color="#EFE7D0"/><stop id="stop4331" offset=".498" stop-color="#E4D6B0"/><stop id="stop4333" offset=".501" stop-color="#DAC894"/><stop id="stop4335" offset=".505" stop-color="#c7a572" stop-opacity="1"/><stop id="stop4347" offset="1" stop-color="#d7c198" stop-opacity="1"/></linearGradient><linearGradient id="linearGradient3264" x1="47.227" x2="6.33" y1="29.04" y2="18.082" gradientTransform="matrix(-0.23809522,0,0,0.23809522,22.42857,-0.4761893)" gradientUnits="userSpaceOnUse" xlink:href="#linearGradient4295"/><linearGradient id="linearGradient4295"><stop id="stop4297" offset="0" stop-color="#b88f56" stop-opacity="1"/><stop id="stop4299" offset="1" stop-color="#d9bd98" stop-opacity="1"/></linearGradient><linearGradient id="linearGradient2489" x1="48" x2="6.781" y1="42" y2="18.202" gradientTransform="matrix(0.23809522,0,0,0.23809522,-0.4285716,-0.4761893)" gradientUnits="userSpaceOnUse" xlink:href="#linearGradient4295"/><linearGradient id="linearGradient3134"><stop id="stop3136" offset="0" stop-color="#b88f56" stop-opacity="1"/><stop id="stop3138" offset="1" stop-color="#d9bd98" stop-opacity="1"/></linearGradient><linearGradient id="linearGradient5092"><stop id="stop5094" offset="0" stop-color="#be9f6a" stop-opacity="1"/><stop id="stop5096" offset="1" stop-color="#e5d2b2" stop-opacity="1"/></linearGradient><linearGradient id="linearGradient4394" x1="10" x2="10" y1="40.263" y2="89.666" gradientTransform="matrix(0.25789762,0,0,0.25789762,-31.630956,-5.1896441)" gradientUnits="userSpaceOnUse" xlink:href="#linearGradient3737"/><linearGradient id="linearGradient4402" x1="10" x2="10" y1="40.263" y2="89.666" gradientTransform="matrix(-0.25789762,0,0,0.25789762,-7.872784,-5.1896441)" gradientUnits="userSpaceOnUse" xlink:href="#linearGradient3737"/><linearGradient id="linearGradient4400" x1="8" x2="8" y1="38.127" y2="87.03" gradientTransform="matrix(-0.25789762,0,0,0.25789762,-6.872784,-5.1896441)" gradientUnits="userSpaceOnUse" xlink:href="#linearGradient4370"/><linearGradient id="linearGradient4370"><stop id="stop4372" offset="0" stop-color="#8a5b30" stop-opacity="1"/><stop id="stop4374" offset="1" stop-color="#8a5b30" stop-opacity="0"/></linearGradient><radialGradient id="radialGradient4432" cx="48" cy="73.146" r="42" fx="48" fy="73.146" gradientTransform="matrix(0.2066107,0,0,0.02267574,1.082686,8.14059)" gradientUnits="userSpaceOnUse" xlink:href="#linearGradient4426"/><linearGradient id="linearGradient4426"><stop id="stop4428" offset="0" stop-color="#71461e" stop-opacity="1"/><stop id="stop4430" offset="1" stop-color="#71461e" stop-opacity="0"/></linearGradient><linearGradient id="linearGradient3706" x1="54.187" x2="54.187" y1="90" y2="39.853" gradientTransform="matrix(0.25789762,0,0,0.25789762,-31.630956,-5.1896441)" gradientUnits="userSpaceOnUse" xlink:href="#linearGradient4289"/><linearGradient id="linearGradient4289"><stop id="stop4291" offset="0" stop-color="#996c3b" stop-opacity="1"/><stop id="stop4293" offset="1" stop-color="#c19e6d" stop-opacity="1"/></linearGradient><linearGradient id="linearGradient4376" x1="8" x2="8" y1="38.127" y2="71.877" gradientUnits="userSpaceOnUse" xlink:href="#linearGradient4370"/><linearGradient id="linearGradient3198" x1="8" x2="8" y1="38.127" y2="71.877" gradientTransform="matrix(0.25789762,0,0,0.25789762,-31.630956,-5.1896441)" gradientUnits="userSpaceOnUse" xlink:href="#linearGradient4370"/><radialGradient id="radialGradient3820" cx="48" cy="73.146" r="42" fx="48" fy="73.146" gradientTransform="matrix(0.2066107,0,0,0.02267574,31.082686,8.14059)" gradientUnits="userSpaceOnUse" xlink:href="#linearGradient4426"/><linearGradient id="linearGradient3822" x1="47.079" x2="6.596" y1="32.783" y2="9.41" gradientTransform="matrix(0.23809522,0,0,0.23809522,29.571428,-0.4761893)" gradientUnits="userSpaceOnUse" xlink:href="#linearGradient5092"/><linearGradient id="linearGradient3824" x1="48" x2="6.781" y1="42" y2="18.202" gradientTransform="matrix(0.23809522,0,0,0.23809522,29.571428,-0.4761893)" gradientUnits="userSpaceOnUse" xlink:href="#linearGradient4295"/><linearGradient id="linearGradient3826" x1="47.227" x2="6.33" y1="29.04" y2="18.082" gradientTransform="matrix(-0.23809522,0,0,0.23809522,52.42857,-0.4761893)" gradientUnits="userSpaceOnUse" xlink:href="#linearGradient4295"/><linearGradient id="linearGradient3828" x1="23.143" x2="66.964" y1="42" y2="6" gradientTransform="matrix(0.23809522,0,0,0.23809522,29.571428,-0.4761893)" gradientUnits="userSpaceOnUse" xlink:href="#linearGradient3737"/><linearGradient id="linearGradient3835" x1="-3.061" x2="-3.061" y1="27.258" y2="7.254" gradientTransform="translate(11.119372,23.741802)" gradientUnits="userSpaceOnUse" xlink:href="#ButtonColor"/><linearGradient id="linearGradient3865" x1="6" x2="16" y1="9" y2="1" gradientUnits="userSpaceOnUse" xlink:href="#linearGradient3737-4"/><linearGradient id="linearGradient3867" x1="-3.061" x2="-3.061" y1="27.258" y2="7.254" gradientTransform="translate(11.119372,-6.2581977)" gradientUnits="userSpaceOnUse" xlink:href="#linearGradient4289"/><linearGradient id="linearGradient3871" x1="10" x2="10" y1="40.263" y2="89.666" gradientTransform="matrix(0.25789762,0,0,0.20929333,-0.07883586,2.0414377)" gradientUnits="userSpaceOnUse" xlink:href="#linearGradient3737"/><linearGradient id="linearGradient3877" x1="10" x2="10" y1="40.263" y2="89.666" gradientTransform="matrix(-0.25789762,0,0,0.20638289,22.074726,2.1462134)" gradientUnits="userSpaceOnUse" xlink:href="#linearGradient3737"/><linearGradient id="linearGradient3879" x1="8.965" x2="8.965" y1="44.04" y2="52.263" gradientTransform="matrix(-0.25789762,0,0,0.25789762,22.043494,-1.3488591)" gradientUnits="userSpaceOnUse" xlink:href="#linearGradient4414"/><linearGradient id="linearGradient3883" x1="8" x2="8" y1="38.127" y2="87.03" gradientTransform="matrix(-0.25789762,0,0,0.2166481,22.060961,0.53562129)" gradientUnits="userSpaceOnUse" xlink:href="#linearGradient4370"/><linearGradient id="linearGradient3889" x1="50.499" x2="50.499" y1="19.882" y2="47.295" gradientTransform="matrix(0.2514503,0,0,0.2514503,-2.2295098,0.92066851)" gradientUnits="userSpaceOnUse" xlink:href="#linearGradient4309"/><filter id="filter3895" width="1.3" height="1.095" x="-.15" y="-.047" color-interpolation-filters="sRGB"><feGaussianBlur id="feGaussianBlur3897" stdDeviation=".248"/></filter><linearGradient id="linearGradient3844" x1="51.429" x2="90.714" y1="72.786" y2="72.786" gradientUnits="userSpaceOnUse" xlink:href="#linearGradient3778"/><linearGradient id="linearGradient3778"><stop id="stop3780" offset="0" stop-color="#499119" stop-opacity="1"/><stop id="stop3782" offset="1" stop-color="#8fd625" stop-opacity="1"/></linearGradient><linearGradient id="linearGradient3908" x1="123.075" x2="123.075" y1="75.788" y2="59.879" gradientUnits="userSpaceOnUse" xlink:href="#linearGradient5010"/><linearGradient id="linearGradient5010"><stop id="stop5012" offset="0" stop-color="#000" stop-opacity="1"/><stop id="stop5014" offset="1" stop-color="#000" stop-opacity="0"/></linearGradient><clipPath id="clipPath3894" clipPathUnits="userSpaceOnUse"><path id="path3896" fill="#fff" fill-opacity="1" stroke="none" d="m 128,56 c -9.94113,0 -18,8.058875 -18,18 0,9.941125 8.05887,18 18,18 9.94113,0 18,-8.058875 18,-18 0,-9.941125 -8.05887,-18 -18,-18 z m -6,4.5 12,0 0,13.75 5,0 -11,13.75 -11,-13.75 5,0 0,-13.75 z"/></clipPath><linearGradient id="linearGradient3953" x1="51.429" x2="90.714" y1="72.786" y2="72.786" gradientTransform="matrix(0,-0.30545455,0.30545455,0,12.767273,39.709091)" gradientUnits="userSpaceOnUse" xlink:href="#linearGradient3778"/><linearGradient id="linearGradient3955" x1="15.843" x2="15.843" y1="18.633" y2="14.039" gradientTransform="translate(19,-2)" gradientUnits="userSpaceOnUse" xlink:href="#linearGradient3737-4"/><clipPath id="clipPath3962" clipPathUnits="userSpaceOnUse"><path id="path3964" fill="url(#linearGradient3966)" fill-opacity="1" stroke="none" d="m 35,10 c -3.313708,0 -6,2.686292 -6,6 0,3.313708 2.686292,6 6,6 3.313708,0 6,-2.686292 6,-6 0,-3.313708 -2.686292,-6 -6,-6 z m -2,2 4,0 0,4 1,0 -3,4 -3,-4 1,0 0,-4 z" display="inline"/></clipPath><linearGradient id="linearGradient3966" x1="51.429" x2="90.714" y1="72.786" y2="72.786" gradientTransform="matrix(0,-0.30545455,0.30545455,0,12.767273,37.709091)" gradientUnits="userSpaceOnUse" xlink:href="#linearGradient3778"/><linearGradient id="linearGradient3978" x1="36.275" x2="36.275" y1="20.122" y2="11.793" gradientUnits="userSpaceOnUse" xlink:href="#linearGradient3972"/><linearGradient id="linearGradient4090" x1="69" x2="69" y1="122" y2="5.978" gradientTransform="matrix(0.30997964,0,0,0.31034484,48.14012,54.137931)" gradientUnits="userSpaceOnUse" xlink:href="#linearGradient3187"/><linearGradient id="linearGradient3187"><stop id="stop3189-7" offset="0" stop-color="#1e71ac" stop-opacity="1"/><stop id="stop3191-6" offset="1" stop-color="#81c1e9" stop-opacity="1"/></linearGradient><linearGradient id="linearGradient4087" x1="69" x2="69" y1="122" y2="5.978" gradientTransform="matrix(0.10332655,0,0,0.10344828,9.3941633,8.3793103)" gradientUnits="userSpaceOnUse" xlink:href="#linearGradient3210-5"/><linearGradient id="linearGradient3210-5"><stop id="stop3212-7" offset="0" stop-color="#cd2323" stop-opacity="1"/><stop id="stop3214-3" offset="1" stop-color="#ef7474" stop-opacity="1"/></linearGradient><linearGradient id="linearGradient3142" x1="69" x2="69" y1="122" y2="5.978" gradientTransform="matrix(0.10332655,0,0,0.10344828,9.38004,8.3793103)" gradientUnits="userSpaceOnUse" xlink:href="#linearGradient3187"/><linearGradient id="linearGradient4065" x1="120.646" x2="118.333" y1="87.489" y2="67.706" gradientUnits="userSpaceOnUse" xlink:href="#linearGradient5010-3"/><linearGradient id="linearGradient5010-3"><stop id="stop5012-8" offset="0" stop-color="#000" stop-opacity="1"/><stop id="stop5014-6" offset="1" stop-color="#000" stop-opacity="0"/></linearGradient><clipPath id="clipPath4029" clipPathUnits="userSpaceOnUse"><path id="path4031" fill="url(#linearGradient4033)" fill-opacity="1" stroke="none" d="m 118,56 c -9.94112,0 -18,8.05887 -18,18 0,9.94112 8.05888,18 18,18 9.73052,0 17.63723,-7.725264 17.96875,-17.375 l 0,-1.25 C 135.63723,63.725255 127.73052,56 118,56 z m -6,10.75 c 5.9493,0.05747 10.83155,4.941297 11.03125,10.875 l 3.75,0.03125 -6,8.71875 -6.15625,-8.8125 3.96875,0.03125 c -0.25101,-4.905678 -4.48929,-9.950635 -11.71875,-9.625 1.52232,-0.80073 3.27178,-1.236656 5.125,-1.21875 z" display="inline"/></clipPath><linearGradient id="linearGradient3250"><stop id="stop3252" offset="0" stop-color="#fff" stop-opacity="1"/><stop id="stop3254" offset=".433" stop-color="#fff" stop-opacity=".498"/><stop id="stop3256" offset="1" stop-color="#fff" stop-opacity="0"/></linearGradient><linearGradient id="linearGradient4051" x1="120.646" x2="118.333" y1="87.489" y2="67.706" gradientUnits="userSpaceOnUse" xlink:href="#linearGradient5010-3"/><clipPath id="clipPath3176" clipPathUnits="userSpaceOnUse"><path id="path3178" fill="url(#linearGradient4033)" fill-opacity="1" stroke="none" d="m 118,56 c -9.94112,0 -18,8.05887 -18,18 0,9.94112 8.05888,18 18,18 9.73052,0 17.63723,-7.725264 17.96875,-17.375 l 0,-1.25 C 135.63723,63.725255 127.73052,56 118,56 z m -6,10.75 c 5.9493,0.05747 10.83155,4.941297 11.03125,10.875 l 3.75,0.03125 -6,8.71875 -6.15625,-8.8125 3.96875,0.03125 c -0.25101,-4.905678 -4.48929,-9.950635 -11.71875,-9.625 1.52232,-0.80073 3.27178,-1.236656 5.125,-1.21875 z" display="inline"/></clipPath><linearGradient id="linearGradient4053" x1="84.36" x2="84.36" y1="79.417" y2="5.184" gradientTransform="matrix(0.21255549,-0.21255549,0.21438275,0.21438275,85.712974,78.527634)" gradientUnits="userSpaceOnUse" xlink:href="#linearGradient3250"/><linearGradient id="linearGradient3185"><stop id="stop3187" offset="0" stop-color="#fff" stop-opacity="1"/><stop id="stop3189-0" offset=".433" stop-color="#fff" stop-opacity=".498"/><stop id="stop3191-4" offset="1" stop-color="#fff" stop-opacity="0"/></linearGradient><linearGradient id="linearGradient3000" x1="69" x2="69" y1="122" y2="5.978" gradientTransform="matrix(0.10332655,0,0,0.10344828,9.38004,8.3793103)" gradientUnits="userSpaceOnUse" xlink:href="#linearGradient3187"/><linearGradient id="linearGradient3002" x1="69" x2="69" y1="122" y2="5.978" gradientTransform="matrix(0.10332655,0,0,0.10344828,9.3941633,8.3793103)" gradientUnits="userSpaceOnUse" xlink:href="#linearGradient3210-5"/><filter id="filter3778" width="1.223" height="1.106" x="-.112" y="-.053"><feGaussianBlur id="feGaussianBlur3780" stdDeviation=".201"/></filter><filter id="filter3788" width="1.225" height="1.106" x="-.112" y="-.053"><feGaussianBlur id="feGaussianBlur3790" stdDeviation=".201"/></filter><linearGradient id="linearGradient3078" x1="10" x2="10" y1="1" y2="16" gradientTransform="translate(1,-1)" gradientUnits="userSpaceOnUse" xlink:href="#linearGradient3823"/><linearGradient id="linearGradient3823"><stop id="stop3825" offset="0" stop-color="#fff" stop-opacity="1"/><stop id="stop3829" offset="1" stop-color="#fff" stop-opacity="0"/></linearGradient><linearGradient id="linearGradient3845" x1="11" x2="21" y1="19.5" y2="19.5" gradientUnits="userSpaceOnUse" spreadMethod="reflect" xlink:href="#linearGradient3831"/><linearGradient id="linearGradient3831"><stop id="stop3833" offset="0" stop-color="#fff" stop-opacity="1"/><stop id="stop3821" offset=".75" stop-color="#fff" stop-opacity=".498"/><stop id="stop3835" offset="1" stop-color="#fff" stop-opacity="0"/></linearGradient><linearGradient id="linearGradient4007" x1="10" x2="10" y1="1" y2="16" gradientUnits="userSpaceOnUse" xlink:href="#linearGradient3823"/></defs><metadata id="metadata7"/><g id="layer1"><g id="g3337" display="inline"><path id="rect3371" fill="url(#linearGradient3335)" fill-opacity="1" stroke="none" d="M 3,0.5 11,2.7789276e-4 19,0.5 c 1.382306,0.0863461 2.5,1.115 2.5,2.5 l 0,16.5 C 21.5,20.885 20.385,22 19,22 L 3,22 C 1.615,22 0.5,20.885 0.5,19.5 L 0.5,3 C 0.5,1.615 1.6176942,0.5863461 3,0.5 z" display="inline" opacity=".3"/><path id="rect2553" fill="#000" fill-opacity="1" stroke="none" d="M 3.3809524,2 18.619048,2 C 19.938095,2 21,3.0372093 21,4.3255813 L 21,19.674419 C 21,20.962791 19.938095,22 18.619048,22 L 3.3809524,22 C 2.0619048,22 1,20.962791 1,19.674419 L 1,4.3255813 C 1,3.0372093 2.0619048,2 3.3809524,2 z" display="inline" opacity=".5"/></g><rect id="rect3173" width="20" height="20" x="1" y="1" fill="url(#linearGradient3867)" fill-opacity="1" fill-rule="evenodd" stroke="none" display="inline" rx="2" ry="2"/><path id="rect3183" fill="#fff" fill-opacity="1" fill-rule="evenodd" stroke="none" d="m 2.9999999,0.99999982 c -1.108,0 -1.99999997,0.89199998 -1.99999997,1.99999998 l 0,1 c 0,-1.108 0.89199997,-2 1.99999997,-2 l 16.0000001,0 c 1.108,0 2,0.892 2,2 l 0,-1 c 0,-1.108 -0.892,-1.99999998 -2,-1.99999998 l -16.0000001,0 z" display="inline" opacity=".25"/><path id="path3287" fill="url(#radialGradient4432)" fill-opacity="1" fill-rule="nonzero" stroke="none" d="M 1,8.095238 1,8.571429 C 1,9.362857 1.6371428,10 2.4285716,10 l 17.1428554,0 c 0.791428,0 1.428571,-0.637143 1.428571,-1.428571 l 0,-0.476191 c 0,0.791429 -0.637143,1.428572 -1.428571,1.428572 l -17.1428554,0 C 1.6371428,9.52381 1,8.886667 1,8.095238 z" display="inline"/><path id="path3869" fill="url(#linearGradient3871)" fill-opacity="1" fill-rule="nonzero" stroke="none" d="m 1.9843451,9.5759968 0,10.9813592 c 0.14877,0.108077 0.323642,0.193196 0.515795,0.248536 l 0,-11.2298952 -0.515795,0 z" display="inline" opacity=".3"/><path id="path4404" fill="url(#linearGradient4420)" fill-opacity="1" fill-rule="evenodd" stroke="none" d="m 1.5480568,8.266824 c 0.6187259,1.432838 0.4884679,4.13569 0.4884679,4.13569 l 0.472185,-0.06513 C 2.4435797,10.220692 2.6226847,9.439144 3.7950067,9.40658 1.9461407,9.098436 1.5480568,8.266823 1.5480568,8.266823 z" display="inline"/><path id="path3873" fill="url(#linearGradient3877)" fill-opacity="1" fill-rule="nonzero" stroke="none" d="m 20.011545,9.5759968 0,10.8286522 c -0.14877,0.106574 -0.323642,0.19051 -0.515795,0.24508 l 0,-11.0737322 0.515795,0 z" display="inline" opacity=".3"/><rect id="rect2483" width="20" height="5.714" x="1" y="3.81" fill="#3c2510" fill-opacity="1" fill-rule="nonzero" stroke="none" display="inline" rx="1.429" ry="1.429"/><path id="rect2481" fill="url(#linearGradient2489)" fill-opacity="1" fill-rule="nonzero" stroke="none" d="M 11,0.46875 3,1 C 1.8944239,1.0732493 1,1.892 1,3 l 0,5.09375 c 0,0.791429 0.6460712,1.4375 1.4375,1.4375 L 11,9.0625 11,0.46875 z" display="inline"/><path id="path3881" fill="url(#linearGradient3883)" fill-opacity="1" fill-rule="nonzero" stroke="none" d="m 20.513575,8.3349526 0,10.3991094 c 0,0.386015 -0.199759,0.730474 -0.515795,0.968146 l 0,-11.3672554 0.515795,0 z" display="inline"/><path id="path3875" fill="url(#linearGradient3879)" fill-opacity="1" fill-rule="evenodd" stroke="none" d="m 20.447834,8.266824 c -0.618726,1.432838 -0.488468,4.13569 -0.488468,4.13569 l -0.472185,-0.06513 c 0.06513,-2.116692 -0.113975,-2.89824 -1.286297,-2.930804 1.848866,-0.308144 2.24695,-1.139757 2.24695,-1.139757 z" display="inline"/><path id="path3262" fill="url(#linearGradient3264)" fill-opacity="1" fill-rule="nonzero" stroke="none" d="m 11,0.46875 0,8.59375 8.5625,0.46875 C 20.353928,9.53125 21,8.885179 21,8.09375 L 21,3 C 21,1.892 20.105576,1.073249 19,1 L 11,0.46875 z" display="inline"/><path id="path3891" fill="#543b22" fill-opacity="1" d="M 10.908768,0.91796901 9.0615448,1.048995 9.0433204,13.5 13.017154,12.475581 12.976795,1.0269102 10.908768,0.91796901 z" display="inline" filter="url(#filter3895)"/><path id="path3887" fill="url(#linearGradient3889)" fill-opacity="1" d="M 10.908768,0.46968901 9.0615448,0.60071498 9.0433204,13.05172 13.017154,12.027301 12.976795,0.57863017 10.908768,0.46968901 z" display="inline"/><rect id="rect4363" width=".546" height="8.503" x="10.454" y=".506" fill="#8d6137" fill-opacity="1" fill-rule="nonzero" stroke="none" display="inline" opacity=".2"/><rect id="rect4365" width=".524" height="8.503" x="11" y=".506" fill="#fff" fill-opacity="1" fill-rule="nonzero" stroke="none" display="inline" opacity=".2"/><path id="path3833" fill="url(#linearGradient3835)" fill-opacity="1" fill-rule="evenodd" stroke="none" d="M 3,31 11,30.469965 19,31 c 1.105576,0.07325 2,0.892 2,2 l 0,16 c 0,1.108 -0.892,2 -2,2 L 3,51 C 1.892,51 1,50.108 1,49 L 1,33 c 0,-1.108 0.8944239,-1.926751 2,-2 z" display="inline"/><path id="path3847" fill="url(#linearGradient3865)" fill-opacity="1" fill-rule="nonzero" stroke="none" d="M 11,0.46875 3,1 C 1.8944239,1.0732493 1,1.892 1,3 l 0,5.09375 c 0,0.791429 0.6460712,1.4375 1.4375,1.4375 L 11,9.0625 19.5625,9.53125 C 20.353928,9.53125 21,8.885179 21,8.09375 L 21,3 C 21,1.892 20.105576,1.073249 19,1 L 11,0.46875 z m -0.0625,0.90625 0.125,0 7.875,0.53125 C 19.62731,1.9519528 20.09375,2.3837807 20.09375,3 l 0,5.09375 c 0,0.294108 -0.237143,0.53125 -0.53125,0.53125 l -8.5,-0.46875 a 0.91390801,0.91390801 0 0 0 -0.125,0 L 2.4375,8.625 C 2.1433915,8.625 1.90625,8.3878587 1.90625,8.09375 L 1.90625,3 c 0,-0.6162194 0.4664395,-1.048047 1.15625,-1.09375 L 10.9375,1.375 z" display="inline" opacity=".3"/><rect id="rect3742" width="1" height="5" x="18" y="-9" fill="#825023" fill-opacity="1" stroke="none" opacity=".6" transform="matrix(0,1,-1,0,0,0)"/><rect id="rect3744" width="1" height="3" x="17" y="-7" fill="#825023" fill-opacity="1" stroke="none" transform="matrix(0,1,-1,0,0,0)"/><path id="path3235" fill="url(#linearGradient3845)" fill-opacity="1" fill-rule="evenodd" stroke="none" d="M 3,21 C 1.892,21 1,20.108 1,19 l 0,-1 c 0,1.108 0.892,2 2,2 l 16,0 c 1.108,0 2,-0.892 2,-2 l 0,1 c 0,1.108 -0.892,2 -2,2 L 3,21 z" display="inline" opacity=".25"/></g><g id="layer2"><rect id="rect2410" width="16" height="16" x="3" y="3" fill="#fff" fill-opacity="1" fill-rule="nonzero" stroke="none" clip-path="url(#clipPath2849)" display="inline" filter="url(#filter3194)" opacity=".15" rx="2" ry="2"/></g><g id="layer3"><path id="path4000" fill="#000" fill-opacity="1" stroke="none" d="m 90.714283,72.785713 a 19.642857,19.642857 0 1 1 -39.285713,0 19.642857,19.642857 0 1 1 39.285713,0 z" display="inline" opacity=".4" transform="matrix(0,-0.38181819,0.36909092,0,-12.114546,41.636363)"/><g id="g2996" transform="matrix(1.1666667,0,0,1.1666667,-3.6666667,-3.5)"><path id="rect5186" fill="url(#linearGradient3000)" fill-opacity="1" stroke="none" d="m 16,9 c -3.313707,0 -6,2.68629 -6,6 0,3.313707 2.686293,6 6,6 3.243507,0 5.879077,-2.575088 5.989583,-5.791667 l 0,-0.416666 C 21.879077,11.575085 19.243507,9 16,9 z" display="inline"/><path id="path2436" fill="url(#linearGradient3002)" fill-opacity="1" stroke="none" d="M 16.822917,9.0625 15.1875,20.9375 C 15.453737,20.973618 15.723857,21 16,21 c 3.31371,0 6,-2.686292 6,-6 0,-3.034021 -2.253463,-5.53574 -5.177083,-5.9375 z" clip-path="none" display="inline"/></g><path id="path3782" fill="#910000" fill-opacity="1" stroke="none" d="m 16.881863,10.473069 c 2.124531,1.94139 1.888034,4.558275 0.579119,6.008361 L 16.375133,15.323192 15.615039,19.558 19.741263,18.797906 18.691609,17.712059 c 1.612436,-1.724746 1.620618,-4.464009 -0.03619,-6.153143 -0.516099,-0.526167 -1.120299,-0.882932 -1.773552,-1.085847 z" display="inline" filter="url(#filter3788)"/><path id="path3862" fill="#fff" fill-opacity="1" stroke="none" d="m 16.881863,9.9733031 c 2.124531,1.9413899 1.888034,4.5582749 0.579119,6.0083609 l -1.085849,-1.158238 -0.760094,4.234808 4.126224,-0.760094 -1.049654,-1.085847 C 20.304045,15.487547 20.312227,12.748284 18.655419,11.05915 18.13932,10.532983 17.53512,10.176218 16.881867,9.9733031 z" display="inline"/><path id="path3004" fill="#18547d" fill-opacity="1" stroke="none" d="m 14.438956,10.292069 -4.16242,0.760093 1.049655,1.085848 c -1.612436,1.724745 -1.6206181,4.464008 0.03619,6.153142 0.516097,0.526168 1.120298,0.882932 1.773552,1.085848 -2.12453,-1.94139 -1.888035,-4.558274 -0.57912,-6.00836 l 1.122042,1.158238 0.760096,-4.234809 z" display="inline" filter="url(#filter3778)"/><path id="path4018" fill="#fff" fill-opacity="1" stroke="none" d="m 14.438956,9.7924651 -4.16242,0.7600929 1.049655,1.085848 c -1.612436,1.724745 -1.6206181,4.464008 0.03619,6.153142 0.516097,0.526168 1.120298,0.882932 1.773552,1.085848 -2.12453,-1.94139 -1.888035,-4.558274 -0.57912,-6.00836 l 1.122042,1.158238 0.760096,-4.2348089 z" display="inline"/><path id="path3739" fill="#fff" fill-opacity="1" stroke="none" d="m 15,7.0000007 c -3.865993,0 -6.9999999,3.1340073 -6.9999999,7.0000003 0,0.168225 0.019579,0.334745 0.03125,0.5 C 8.2877788,10.867515 11.302232,8.0000006 15,8.0000006 c 3.697768,0 6.712221,2.8675144 6.96875,6.5000004 C 21.98042,14.334746 22,14.168226 22,14.000001 22,10.134008 18.865993,7.0000007 15,7.0000007 z" display="inline" opacity=".4"/></g></svg>