<svg xmlns="http://www.w3.org/2000/svg" xmlns:svg="http://www.w3.org/2000/svg" xmlns:xlink="http://www.w3.org/1999/xlink" id="svg2" width="24" height="24" display="inline" version="1.0"><defs id="defs4"><linearGradient id="linearGradient3873"><stop id="stop3875" offset="0" stop-color="#868686" stop-opacity="1"/><stop id="stop3877" offset="1" stop-color="#5a5a5a" stop-opacity="1"/></linearGradient><linearGradient id="linearGradient3744"><stop id="stop3746" offset="0" stop-color="red" stop-opacity="1"/><stop id="stop3748" offset="1" stop-color="red" stop-opacity="0"/></linearGradient><linearGradient id="linearGradient3724"><stop id="stop3726" offset="0" stop-color="#000" stop-opacity="1"/><stop id="stop3728" offset="1" stop-color="#000" stop-opacity="0"/></linearGradient><linearGradient id="linearGradient3327"><stop id="stop3330" offset="0" stop-color="#000" stop-opacity="1"/><stop id="stop3333" offset="1" stop-color="#000" stop-opacity="0"/></linearGradient><linearGradient id="linearGradient3335" x1="11.375" x2="11.375" y1="22" y2="-9.817" gradientUnits="userSpaceOnUse" xlink:href="#linearGradient3327"/><linearGradient id="linearGradient3181" x1="-3.061" x2="-3.061" y1="27.258" y2="7.254" gradientTransform="translate(12.119372,-7.2581977)" gradientUnits="userSpaceOnUse" xlink:href="#linearGradient3700-8"/><linearGradient id="ButtonShadow" x1="9.355" x2="9.355" y1="21.743" y2=".494" gradientTransform="scale(0.9883037,1.0118347)" gradientUnits="userSpaceOnUse"><stop id="stop3277" offset="0" stop-color="#000" stop-opacity=".706"/><stop id="stop3279" offset="1" stop-color="#000" stop-opacity=".157"/></linearGradient><linearGradient id="linearGradient3232"><stop id="stop3234" offset="0" stop-color="#000" stop-opacity="1"/><stop id="stop3236" offset="1" stop-color="#000" stop-opacity="0"/></linearGradient><linearGradient id="linearGradient3221" x1="11" x2="11" y1="14.806" y2="-6" gradientUnits="userSpaceOnUse" xlink:href="#linearGradient3232"/><linearGradient id="ButtonColor" x1="10.32" x2="10.32" y1="21" y2=".999" gradientUnits="userSpaceOnUse"><stop id="stop3189" offset="0" stop-color="#29669f" stop-opacity="1"/><stop id="stop3191" offset="1" stop-color="#88b6e0" stop-opacity="1"/></linearGradient><linearGradient id="linearGradient38042" x1="9.355" x2="9.355" y1="21.743" y2=".494" gradientTransform="scale(0.9883037,1.0118347)" gradientUnits="userSpaceOnUse" xlink:href="#ButtonShadow"/><filter id="filter3194" width="1.36" height="1.36" x="-.18" y="-.18" color-interpolation-filters="sRGB"><feGaussianBlur id="feGaussianBlur3196" stdDeviation="1.2"/></filter><clipPath id="clipPath2849" clipPathUnits="userSpaceOnUse"><rect id="rect2851" width="20" height="20" x="1" y="1" fill="#fff" fill-opacity="1" fill-rule="evenodd" stroke="none" display="inline" rx="2" ry="2"/></clipPath><linearGradient id="linearGradient3926" x1="48" x2="48" y1="90" y2="5.988" gradientUnits="userSpaceOnUse" xlink:href="#linearGradient3700"/><linearGradient id="linearGradient3700"><stop id="stop3702" offset="0" stop-color="#6bc72e" stop-opacity="1"/><stop id="stop3704" offset="1" stop-color="#b5f48b" stop-opacity="1"/></linearGradient><linearGradient id="linearGradient3965" x1="48" x2="48" y1="90" y2="5.988" gradientTransform="translate(-70,-37)" gradientUnits="userSpaceOnUse" xlink:href="#linearGradient3700"/><radialGradient id="radialGradient3682" cx="48" cy="48" r="32" fx="48" fy="48" gradientUnits="userSpaceOnUse" xlink:href="#linearGradient3674"/><linearGradient id="linearGradient3674"><stop id="stop3676" offset="0" stop-color="#fff" stop-opacity="1"/><stop id="stop3684" offset=".9" stop-color="#fff" stop-opacity="1"/><stop id="stop3678" offset="1" stop-color="#e5e5e5" stop-opacity="1"/></linearGradient><radialGradient id="radialGradient3985" cx="48" cy="48" r="32" fx="48" fy="48" gradientUnits="userSpaceOnUse" xlink:href="#linearGradient3674-9"/><linearGradient id="linearGradient3730" x1="15.556" x2="15.556" y1="-4.243" y2="-8.485" gradientUnits="userSpaceOnUse" xlink:href="#linearGradient3724"/><linearGradient id="linearGradient3738" x1="-2.794" x2="-2.294" y1="13.16" y2="10.421" gradientUnits="userSpaceOnUse" xlink:href="#linearGradient3724"/><linearGradient id="linearGradient3750" x1="9.003" x2="9.003" y1="12.765" y2="5.485" gradientTransform="translate(-6.3426653,-28.157392)" gradientUnits="userSpaceOnUse" xlink:href="#linearGradient3744"/><linearGradient id="linearGradient3078" x1="10" x2="10" y1="1" y2="16" gradientTransform="translate(1,-1)" gradientUnits="userSpaceOnUse" xlink:href="#linearGradient3823"/><linearGradient id="linearGradient3823"><stop id="stop3825" offset="0" stop-color="#fff" stop-opacity="1"/><stop id="stop3829" offset="1" stop-color="#fff" stop-opacity="0"/></linearGradient><linearGradient id="linearGradient3845" x1="11" x2="21" y1="19.5" y2="19.5" gradientTransform="translate(1,-1)" gradientUnits="userSpaceOnUse" spreadMethod="reflect" xlink:href="#linearGradient3831"/><linearGradient id="linearGradient3831"><stop id="stop3833" offset="0" stop-color="#fff" stop-opacity="1"/><stop id="stop3821" offset=".75" stop-color="#fff" stop-opacity=".498"/><stop id="stop3835" offset="1" stop-color="#fff" stop-opacity="0"/></linearGradient><linearGradient id="linearGradient3892" x1="10" x2="10" y1="1" y2="16" gradientTransform="translate(1,-1)" gradientUnits="userSpaceOnUse" xlink:href="#linearGradient3823"/><linearGradient id="linearGradient3926-8" x1="48" x2="48" y1="90" y2="5.988" gradientUnits="userSpaceOnUse" xlink:href="#linearGradient3700-8"/><linearGradient id="linearGradient3700-8"><stop id="stop3702-5" offset="0" stop-color="#1f1f1f" stop-opacity="1"/><stop id="stop3704-0" offset="1" stop-color="#2f2f2f" stop-opacity="1"/></linearGradient><radialGradient id="radialGradient3682-9" cx="48" cy="48" r="32" fx="48" fy="48" gradientUnits="userSpaceOnUse" xlink:href="#linearGradient3674-9"/><linearGradient id="linearGradient3674-9"><stop id="stop3676-6" offset="0" stop-color="#fff" stop-opacity="1"/><stop id="stop3684-0" offset=".3" stop-color="#fff" stop-opacity="1"/><stop id="stop3925" offset=".9" stop-color="#f0f0f0" stop-opacity="1"/><stop id="stop3678-6" offset="1" stop-color="#d2d2d2" stop-opacity="1"/></linearGradient><radialGradient id="radialGradient3979" cx="48" cy="60" r="5" fx="48" fy="60" gradientUnits="userSpaceOnUse" xlink:href="#linearGradient3674-8"/><linearGradient id="linearGradient3674-8"><stop id="stop3676-1" offset="0" stop-color="#fff" stop-opacity="1"/><stop id="stop3684-6" offset=".3" stop-color="#fff" stop-opacity="1"/><stop id="stop3925-3" offset=".9" stop-color="#f0f0f0" stop-opacity="1"/><stop id="stop3678-9" offset="1" stop-color="#d2d2d2" stop-opacity="1"/></linearGradient><linearGradient id="linearGradient3923" x1="43" x2="53" y1="60" y2="60" gradientUnits="userSpaceOnUse" xlink:href="#linearGradient3327"/></defs><metadata id="metadata7"/><g id="layer1" transform="translate(0,2)"><g id="g3337" display="inline" transform="translate(1,-1)"><rect id="rect3371" width="21" height="21.5" x=".5" y=".5" fill="url(#linearGradient3335)" fill-opacity="1" stroke="none" display="inline" opacity=".3" rx="2.5" ry="2.5"/><rect id="rect2553" width="20" height="20" x="1" y="2" fill="#000" fill-opacity="1" stroke="none" display="inline" opacity=".5" rx="2.381" ry="2.326"/></g><rect id="rect3173" width="20" height="20" x="2" y="0" fill="url(#linearGradient3181)" fill-opacity="1" fill-rule="evenodd" stroke="none" display="inline" rx="2" ry="2"/></g><g id="layer2" transform="translate(0,2)"><rect id="rect2410" width="16" height="16" x="3" y="3" fill="#fff" fill-opacity="1" fill-rule="nonzero" stroke="none" clip-path="url(#clipPath2849)" display="inline" filter="url(#filter3194)" opacity=".15" rx="2" ry="2" transform="translate(1,-1)"/></g><g id="layer3" transform="translate(0,2)"><path id="path3680" fill="#000" fill-opacity="1" fill-rule="nonzero" stroke="none" stroke-width="1" d="m 80,48 a 32,32 0 1 1 -64,0 32,32 0 1 1 64,0 z" color="#000" display="inline" enable-background="accumulate" opacity=".2" overflow="visible" transform="matrix(0,0.28125,-0.28125,0,25.5,-3.5)" visibility="visible" style="marker:none"/><path id="path3647" fill="url(#radialGradient3985)" fill-opacity="1" fill-rule="nonzero" stroke="none" stroke-width="1" d="M 80,48 C 80,65.673112 65.673112,80 48,80 30.326888,80 16,65.673112 16,48 16,30.326888 30.326888,16 48,16 65.673112,16 80,30.326888 80,48 z" color="#000" display="inline" enable-background="accumulate" overflow="visible" transform="matrix(0,0.25,-0.25,0,24,-2)" visibility="visible" style="marker:none"/><path id="path3692" fill="#000" fill-opacity="1" fill-rule="nonzero" stroke="none" stroke-width="1" d="M 12,5.5 C 12,5.7761424 11.776142,6 11.5,6 11.223858,6 11,5.7761424 11,5.5 11,5.2238576 11.223858,5 11.5,5 11.776142,5 12,5.2238576 12,5.5 z" color="#000" display="inline" enable-background="accumulate" opacity=".4" overflow="visible" transform="translate(0,-2)" visibility="visible" style="marker:none"/><path id="path3694" fill="#000" fill-opacity="1" fill-rule="nonzero" stroke="none" stroke-width="1" d="M 12,5.5 C 12,5.7761424 11.776142,6 11.5,6 11.223858,6 11,5.7761424 11,5.5 11,5.2238576 11.223858,5 11.5,5 11.776142,5 12,5.2238576 12,5.5 z" color="#000" display="inline" enable-background="accumulate" opacity=".25" overflow="visible" transform="matrix(0.8660254,0.5,-0.5,0.8660254,7.6076952,-6.3923048)" visibility="visible" style="marker:none"/><path id="path3696" fill="#000" fill-opacity="1" fill-rule="nonzero" stroke="none" stroke-width="1" d="M 12,5.5 C 12,5.7761424 11.776142,6 11.5,6 11.223858,6 11,5.7761424 11,5.5 11,5.2238576 11.223858,5 11.5,5 11.776142,5 12,5.2238576 12,5.5 z" color="#000" display="inline" enable-background="accumulate" opacity=".25" overflow="visible" transform="matrix(0.5,0.8660254,-0.8660254,0.5,16.392305,-6.3923048)" visibility="visible" style="marker:none"/><path id="path3698" fill="#000" fill-opacity="1" fill-rule="nonzero" stroke="none" stroke-width="1" d="M 12,5.5 C 12,5.7761424 11.776142,6 11.5,6 11.223858,6 11,5.7761424 11,5.5 11,5.2238576 11.223858,5 11.5,5 11.776142,5 12,5.2238576 12,5.5 z" color="#000" display="inline" enable-background="accumulate" opacity=".4" overflow="visible" transform="matrix(0,1,-1,0,24,-1.9999999)" visibility="visible" style="marker:none"/><path id="path3700" fill="#000" fill-opacity="1" fill-rule="nonzero" stroke="none" stroke-width="1" d="M 12,5.5 C 12,5.7761424 11.776142,6 11.5,6 11.223858,6 11,5.7761424 11,5.5 11,5.2238576 11.223858,5 11.5,5 11.776142,5 12,5.2238576 12,5.5 z" color="#000" display="inline" enable-background="accumulate" opacity=".25" overflow="visible" transform="matrix(-0.5,0.8660254,-0.8660254,-0.5,28.392305,5.6076951)" visibility="visible" style="marker:none"/><path id="path3702" fill="#000" fill-opacity="1" fill-rule="nonzero" stroke="none" stroke-width="1" d="M 12,5.5 C 12,5.7761424 11.776142,6 11.5,6 11.223858,6 11,5.7761424 11,5.5 11,5.2238576 11.223858,5 11.5,5 11.776142,5 12,5.2238576 12,5.5 z" color="#000" display="inline" enable-background="accumulate" opacity=".25" overflow="visible" transform="matrix(-0.8660254,0.5,-0.5,-0.8660254,28.392305,14.392305)" visibility="visible" style="marker:none"/><path id="path3704" fill="#000" fill-opacity="1" fill-rule="nonzero" stroke="none" stroke-width="1" d="M 12,5.5 C 12,5.7761424 11.776142,6 11.5,6 11.223858,6 11,5.7761424 11,5.5 11,5.2238576 11.223858,5 11.5,5 11.776142,5 12,5.2238576 12,5.5 z" color="#000" display="inline" enable-background="accumulate" opacity=".4" overflow="visible" transform="matrix(-1,0,0,-1,24,22)" visibility="visible" style="marker:none"/><path id="path3706" fill="#000" fill-opacity="1" fill-rule="nonzero" stroke="none" stroke-width="1" d="M 12,5.5 C 12,5.7761424 11.776142,6 11.5,6 11.223858,6 11,5.7761424 11,5.5 11,5.2238576 11.223858,5 11.5,5 11.776142,5 12,5.2238576 12,5.5 z" color="#000" display="inline" enable-background="accumulate" opacity=".25" overflow="visible" transform="matrix(-0.8660254,-0.5,0.5,-0.8660254,16.392305,26.392305)" visibility="visible" style="marker:none"/><path id="path3708" fill="#000" fill-opacity="1" fill-rule="nonzero" stroke="none" stroke-width="1" d="M 12,5.5 C 12,5.7761424 11.776142,6 11.5,6 11.223858,6 11,5.7761424 11,5.5 11,5.2238576 11.223858,5 11.5,5 11.776142,5 12,5.2238576 12,5.5 z" color="#000" display="inline" enable-background="accumulate" opacity=".25" overflow="visible" transform="matrix(-0.5,-0.8660254,0.8660254,-0.5,7.6076952,26.392305)" visibility="visible" style="marker:none"/><path id="path3710" fill="#000" fill-opacity="1" fill-rule="nonzero" stroke="none" stroke-width="1" d="M 12,5.5 C 12,5.7761424 11.776142,6 11.5,6 11.223858,6 11,5.7761424 11,5.5 11,5.2238576 11.223858,5 11.5,5 11.776142,5 12,5.2238576 12,5.5 z" color="#000" display="inline" enable-background="accumulate" opacity=".4" overflow="visible" transform="matrix(0,-1,1,0,-3.7964328e-8,22)" visibility="visible" style="marker:none"/><path id="path3712" fill="#000" fill-opacity="1" fill-rule="nonzero" stroke="none" stroke-width="1" d="M 12,5.5 C 12,5.7761424 11.776142,6 11.5,6 11.223858,6 11,5.7761424 11,5.5 11,5.2238576 11.223858,5 11.5,5 11.776142,5 12,5.2238576 12,5.5 z" color="#000" display="inline" enable-background="accumulate" opacity=".25" overflow="visible" transform="matrix(0.5,-0.8660254,0.8660254,0.5,-4.3923049,14.392305)" visibility="visible" style="marker:none"/><path id="path3714" fill="#000" fill-opacity="1" fill-rule="nonzero" stroke="none" stroke-width="1" d="M 12,5.5 C 12,5.7761424 11.776142,6 11.5,6 11.223858,6 11,5.7761424 11,5.5 11,5.2238576 11.223858,5 11.5,5 11.776142,5 12,5.2238576 12,5.5 z" color="#000" display="inline" enable-background="accumulate" opacity=".25" overflow="visible" transform="matrix(0.8660254,-0.5,0.5,0.8660254,-4.392305,5.6076953)" visibility="visible" style="marker:none"/><path id="path3716" fill="#000" fill-opacity="1" fill-rule="nonzero" stroke="none" stroke-width="1" d="m 13,12 c 0,0.552285 -0.447715,1 -1,1 -0.552285,0 -1,-0.447715 -1,-1 0,-0.552285 0.447715,-1 1,-1 0.552285,0 1,0.447715 1,1 z" color="#000" display="inline" enable-background="accumulate" opacity="1" overflow="visible" transform="translate(0,-2)" visibility="visible" style="marker:none"/><rect id="rect3718" width="1" height="5" x="-3.16" y="10.392" fill="url(#linearGradient3738)" fill-opacity="1" fill-rule="nonzero" stroke="none" stroke-width="1" color="#000" display="inline" enable-background="accumulate" overflow="visible" transform="matrix(0.5,-0.8660254,0.8660254,0.5,0,0)" visibility="visible" style="marker:none"/><rect id="rect3720" width="1" height="7" x="15.056" y="-8.414" fill="url(#linearGradient3730)" fill-opacity="1" fill-rule="nonzero" stroke="none" stroke-width="1" color="#000" display="inline" enable-background="accumulate" overflow="visible" transform="matrix(0.70710678,0.70710678,-0.70710678,0.70710678,0,0)" visibility="visible" style="marker:none"/><rect id="rect3740" width="1" height="7" x="2.16" y="-22.392" fill="url(#linearGradient3750)" fill-opacity="1" fill-rule="nonzero" stroke="none" stroke-width="1" color="#000" display="inline" enable-background="accumulate" overflow="visible" transform="matrix(-0.5,0.86602541,-0.86602541,-0.5,0,0)" visibility="visible" style="marker:none"/><path id="rect3050" fill="url(#linearGradient3892)" fill-opacity="1" fill-rule="evenodd" stroke="none" d="M 4,0 C 2.892,0 2,0.892 2,2 l 0,16 c 0,1.108 0.892,2 2,2 l 16,0 c 1.108,0 2,-0.892 2,-2 L 22,2 C 22,0.892 21.108,0 20,0 L 4,0 z m 0,1.03125 16,0 c 0.5497,0 0.96875,0.4190495 0.96875,0.96875 l 0,16 c 0,0.5497 -0.41905,0.96875 -0.96875,0.96875 l -16,0 C 3.4502995,18.96875 3.03125,18.5497 3.03125,18 l 0,-16 C 3.03125,1.4502995 3.4502995,1.03125 4,1.03125 z" display="inline" opacity=".2"/><path id="path3235" fill="url(#linearGradient3845)" fill-opacity="1" fill-rule="evenodd" stroke="none" d="M 4,20 C 2.892,20 2,19.108 2,18 l 0,-1 c 0,1.108 0.892,2 2,2 l 16,0 c 1.108,0 2,-0.892 2,-2 l 0,1 c 0,1.108 -0.892,2 -2,2 L 4,20 z" display="inline" opacity=".15"/><path id="path3975" fill="url(#linearGradient3923)" fill-opacity="1" fill-rule="nonzero" stroke="none" stroke-width="1.5" d="m 53,60 a 5,5 0 1 1 -10,0 5,5 0 1 1 10,0 z" color="#000" display="inline" enable-background="accumulate" opacity=".3" overflow="visible" transform="matrix(0,0.3,0.3,0,-6,-1.4)" visibility="visible" style="marker:none"/></g></svg>