<svg xmlns="http://www.w3.org/2000/svg" xmlns:svg="http://www.w3.org/2000/svg" xmlns:xlink="http://www.w3.org/1999/xlink" id="svg2" width="16" height="16" display="inline" version="1.0"><defs id="defs4"><linearGradient id="linearGradient3801"><stop id="stop3803" offset="0" stop-color="#4a99e1" stop-opacity="1"/><stop id="stop3805" offset="1" stop-color="#0046b5" stop-opacity="1"/></linearGradient><linearGradient id="linearGradient3327"><stop id="stop3330" offset="0" stop-color="#000" stop-opacity="1"/><stop id="stop3333" offset="1" stop-color="#000" stop-opacity="0"/></linearGradient><linearGradient id="ButtonColor" x1="10.32" x2="10.32" y1="21" y2=".999" gradientUnits="userSpaceOnUse"><stop id="stop3189" offset="0" stop-color="#e6e6e6" stop-opacity="1"/><stop id="stop3191" offset="1" stop-color="#f5f5f5" stop-opacity="1"/></linearGradient><linearGradient id="linearGradient3192" x1="9.057" x2="9.057" y1="10.203" y2="-12.199" gradientTransform="translate(0,5.8006549)" gradientUnits="userSpaceOnUse" xlink:href="#linearGradient3327"/><linearGradient id="linearGradient3204" x1="1" x2="15" y1="9" y2="9" gradientTransform="translate(-16,-1)" gradientUnits="userSpaceOnUse" xlink:href="#ButtonColor"/><linearGradient id="linearGradient3173" x1="1" x2="15" y1="9" y2="9" gradientTransform="translate(-16,-1)" gradientUnits="userSpaceOnUse" xlink:href="#ButtonColor"/><linearGradient id="linearGradient3177" x1="1" x2="15" y1="9" y2="9" gradientTransform="translate(-16,-1)" gradientUnits="userSpaceOnUse" xlink:href="#ButtonColor"/><linearGradient id="linearGradient3179" x1="1" x2="15" y1="9" y2="9" gradientTransform="matrix(0,-1,1,0,-1,16)" gradientUnits="userSpaceOnUse" xlink:href="#ButtonColor"/><linearGradient id="linearGradient3612" x1="8" x2="8" y1="15" y2="-1" gradientUnits="userSpaceOnUse" xlink:href="#linearGradient3327"/><linearGradient id="linearGradient3204-0" x1="1" x2="16.956" y1="9" y2="9" gradientTransform="translate(-17,-2)" gradientUnits="userSpaceOnUse" xlink:href="#ButtonColor-5"/><linearGradient id="ButtonColor-5" x1="10.32" x2="10.32" y1="21" y2=".999" gradientUnits="userSpaceOnUse"><stop id="stop3189-0" offset="0" stop-color="#e6e6e6" stop-opacity="1"/><stop id="stop3191-2" offset="1" stop-color="#f5f5f5" stop-opacity="1"/></linearGradient><linearGradient id="linearGradient2897" x1="9.057" x2="9.057" y1="10.203" y2="-19.304" gradientTransform="translate(-0.499722,5.300655)" gradientUnits="userSpaceOnUse" xlink:href="#linearGradient3327-7"/><linearGradient id="linearGradient3327-7"><stop id="stop3330-6" offset="0" stop-color="#000" stop-opacity="1"/><stop id="stop3333-8" offset="1" stop-color="#000" stop-opacity="0"/></linearGradient><linearGradient id="linearGradient3767" x1="1" x2="16.956" y1="9" y2="9" gradientTransform="translate(-17,-2)" gradientUnits="userSpaceOnUse" xlink:href="#ButtonColor-5"/><linearGradient id="linearGradient3787" x1="31" x2="36" y1="61" y2="70" gradientTransform="matrix(0.18689639,0,0,0.18689639,24.412806,-1.2045488)" gradientUnits="userSpaceOnUse" xlink:href="#linearGradient3894-4"/><linearGradient id="linearGradient3894-4"><stop id="stop3896-6" offset="0" stop-color="#93ddf7" stop-opacity="1"/><stop id="stop3898-5" offset="1" stop-color="#93ddf7" stop-opacity="0"/></linearGradient><linearGradient id="linearGradient3790" x1="40" x2="42" y1="69" y2="64" gradientTransform="matrix(0.18689639,0,0,0.18689639,24.412806,-1.7652379)" gradientUnits="userSpaceOnUse" xlink:href="#linearGradient3934-3"/><linearGradient id="linearGradient3934-3"><stop id="stop3936-2" offset="0" stop-color="#003d9e" stop-opacity="1"/><stop id="stop3938-5" offset="1" stop-color="#003d9e" stop-opacity="0"/></linearGradient><linearGradient id="linearGradient3793" x1="40" x2="41.884" y1="70" y2="62.968" gradientTransform="matrix(0.18689639,0,0,0.18689639,24.412806,-1.7652379)" gradientUnits="userSpaceOnUse" xlink:href="#linearGradient3934-3"/><radialGradient id="radialGradient3823" cx="39.769" cy="69.844" r="11" fx="39.769" fy="69.844" gradientTransform="matrix(1.1597853,-0.1400901,0.07244171,0.58349276,-11.414104,33.34065)" gradientUnits="userSpaceOnUse" xlink:href="#linearGradient3958-5"/><linearGradient id="linearGradient3958-5"><stop id="stop3960-3" offset="0" stop-color="#01a3f1" stop-opacity="1"/><stop id="stop3962-6" offset="1" stop-color="#01a3f1" stop-opacity="0"/></linearGradient><linearGradient id="linearGradient3797" x1="31" x2="36" y1="61" y2="70" gradientTransform="matrix(0.1859195,0,0,0.19178082,18.430855,-0.5753424)" gradientUnits="userSpaceOnUse" xlink:href="#linearGradient3894-4"/><linearGradient id="linearGradient3800" x1="40" x2="42" y1="69" y2="64" gradientTransform="matrix(0.1859195,0,0,0.19178082,18.430855,-1.1506849)" gradientUnits="userSpaceOnUse" xlink:href="#linearGradient3934-3"/><linearGradient id="linearGradient3803" x1="40" x2="41.884" y1="70" y2="62.968" gradientTransform="matrix(0.1859195,0,0,0.19178082,18.430855,-1.1506849)" gradientUnits="userSpaceOnUse" xlink:href="#linearGradient3934-3"/><radialGradient id="radialGradient3825" cx="39.769" cy="69.844" r="11" fx="39.769" fy="69.844" gradientTransform="matrix(1.1597853,-0.1400901,0.07244171,0.58349276,-11.414104,33.34065)" gradientUnits="userSpaceOnUse" xlink:href="#linearGradient3958-5"/><radialGradient id="radialGradient3810" cx="40.285" cy="39.106" r="19" fx="40.285" fy="39.106" gradientTransform="matrix(0.64686831,-0.10197913,0.0359521,0.22804935,4.042603,2.0026448)" gradientUnits="userSpaceOnUse" xlink:href="#linearGradient3816-9"/><linearGradient id="linearGradient3816-9"><stop id="stop3818-3" offset="0" stop-color="#51acff" stop-opacity="1"/><stop id="stop3824-4" offset=".5" stop-color="#6abaee" stop-opacity=".675"/><stop id="stop3820-0" offset="1" stop-color="#318fe4" stop-opacity="0"/></linearGradient><linearGradient id="linearGradient3827" x1="52" x2="51.631" y1="10" y2="8.084" gradientTransform="matrix(0.19178082,0,0,0.19178082,18.290183,1.4246576)" gradientUnits="userSpaceOnUse" xlink:href="#linearGradient3828-5"/><linearGradient id="linearGradient3828-5"><stop id="stop3830-1" offset="0" stop-color="#a2d7fb" stop-opacity="1"/><stop id="stop3832-9" offset="1" stop-color="#a2d7fb" stop-opacity="0"/></linearGradient><radialGradient id="radialGradient3819" cx="41.753" cy="36.957" r="19" fx="41.753" fy="36.957" gradientTransform="matrix(0.64497796,-0.11332151,0.05771893,0.32851163,-2.765268,-0.6366035)" gradientUnits="userSpaceOnUse" xlink:href="#linearGradient3816-9"/><linearGradient id="linearGradient3969"><stop id="stop3971" offset="0" stop-color="#51acff" stop-opacity="1"/><stop id="stop3973" offset=".5" stop-color="#6abaee" stop-opacity=".675"/><stop id="stop3975" offset="1" stop-color="#318fe4" stop-opacity="0"/></linearGradient><radialGradient id="radialGradient3780" cx="5" cy="12.5" r="2" fx="5" fy="12.5" gradientTransform="matrix(1,0,0,0.75,0,3.125)" gradientUnits="userSpaceOnUse" xlink:href="#linearGradient3958-5"/><radialGradient id="radialGradient3788" cx="5" cy="12.5" r="2" fx="5" fy="12.5" gradientTransform="matrix(1,0,0,0.75,0,3.125)" gradientUnits="userSpaceOnUse" xlink:href="#linearGradient3958-5"/><linearGradient id="linearGradient3807" x1="7" x2="10" y1="4" y2="7" gradientUnits="userSpaceOnUse" xlink:href="#linearGradient3801"/></defs><metadata id="metadata7"/><g id="layer1"><rect id="rect3196" width="16" height="16" x="-16" y="0" fill="url(#linearGradient3767)" fill-opacity="1" fill-rule="nonzero" stroke="none" display="inline" rx="2" ry="2" transform="matrix(0,-1,1,0,0,0)"/><path id="rect2410" fill="url(#linearGradient2897)" fill-opacity="1" fill-rule="nonzero" stroke="none" d="M 2,0 C 0.892,0 0,0.892 0,2 l 0,12 c 0,1.108 0.892,2 2,2 l 12,0 c 1.108,0 2,-0.892 2,-2 L 16,2 C 16,0.892 15.108,0 14,0 L 2,0 z m 0.5,1 11,0 C 14.331,1 15,1.669 15,2.5 l 0,11 c 0,0.831 -0.669,1.5 -1.5,1.5 l -11,0 C 1.669,15 1,14.331 1,13.5 L 1,2.5 C 1,1.669 1.669,1 2.5,1 z" display="inline" opacity=".4"/><path id="rect3770" fill="#fff" fill-opacity="1" stroke="none" d="M 2.5,1 C 1.669,1 1,1.669 1,2.5 l 0,1 C 1,2.669 1.669,2 2.5,2 l 11,0 C 14.331,2 15,2.669 15,3.5 l 0,-1 C 15,1.669 14.331,1 13.5,1 l -11,0 z" display="inline" opacity=".6"/></g><g id="layer2"><path id="rect3760" fill="url(#linearGradient3807)" fill-opacity="1" fill-rule="nonzero" stroke="none" stroke-width=".5" d="M 12 3 L 6 4 L 6 5 L 6 6 L 6 10.0625 C 5.6047687 9.9369761 5.13453 9.9343453 4.65625 10.0625 C 3.5893178 10.348384 2.8793373 11.231051 3.09375 12.03125 C 3.3081627 12.831449 4.3705678 13.223384 5.4375 12.9375 C 6.3578611 12.69089 6.978966 12.010804 7 11.3125 C 7.0003018 11.302481 6.9999543 11.291271 7 11.28125 L 7 5.84375 L 11 5.15625 L 11 9.0625 C 10.604769 8.9369761 10.13453 8.9343453 9.65625 9.0625 C 8.5893178 9.3483836 7.8793373 10.231051 8.09375 11.03125 C 8.3081627 11.831449 9.3705678 12.223384 10.4375 11.9375 C 11.371066 11.687352 11.996771 10.989752 12 10.28125 L 12 5 L 12 3 z" color="#000" display="inline" enable-background="accumulate" opacity="1" overflow="visible" visibility="visible" style="marker:none"/><path id="path3770" fill="url(#radialGradient3780)" fill-opacity="1" fill-rule="nonzero" stroke="none" stroke-width=".5" d="m 7,12.5 a 2,1.5 0 1 1 -4,0 2,1.5 0 1 1 4,0 z" color="#000" display="inline" enable-background="accumulate" opacity=".6" overflow="visible" transform="matrix(0.96592583,-0.25881905,0.25881905,0.96592583,-3.0244632,0.720022)" visibility="visible" style="marker:none"/><path id="path3772" fill="url(#radialGradient3788)" fill-opacity="1" fill-rule="nonzero" stroke="none" stroke-width=".5" d="m 7,12.5 a 2,1.5 0 1 1 -4,0 2,1.5 0 1 1 4,0 z" color="#000" display="inline" enable-background="accumulate" opacity=".6" overflow="visible" transform="matrix(0.96592583,-0.25881905,0.25881905,0.96592583,1.9755368,-0.2799776)" visibility="visible" style="marker:none"/><rect id="rect3790" width="1" height="6.323" x="-14" y="5" fill="#00f" fill-opacity="1" fill-rule="nonzero" stroke="none" stroke-width=".5" color="#000" display="inline" enable-background="accumulate" overflow="visible" visibility="visible" style="marker:none"/><path id="path3792" fill="#00f" fill-opacity="1" fill-rule="nonzero" stroke="none" stroke-width=".5" d="m 7,12.5 a 2,1.5 0 1 1 -4,0 2,1.5 0 1 1 4,0 z" color="#000" display="inline" enable-background="accumulate" overflow="visible" transform="matrix(0.96592583,-0.25881905,0.25881905,0.96592583,-23.024463,0.7200224)" visibility="visible" style="marker:none"/><rect id="rect3794" width="1" height="6.323" x="-9" y="4" fill="#00f" fill-opacity="1" fill-rule="nonzero" stroke="none" stroke-width=".5" color="#000" display="inline" enable-background="accumulate" overflow="visible" visibility="visible" style="marker:none"/><path id="path3796" fill="#00f" fill-opacity="1" fill-rule="nonzero" stroke="none" stroke-width=".5" d="m 7,12.5 a 2,1.5 0 1 1 -4,0 2,1.5 0 1 1 4,0 z" color="#000" display="inline" enable-background="accumulate" overflow="visible" transform="matrix(0.96592583,-0.25881905,0.25881905,0.96592583,-18.024463,-0.2799776)" visibility="visible" style="marker:none"/><path id="path3798" fill="#00f" stroke="none" d="m -14,4 6,-1 0,2 -6,1 0,-2 z"/></g></svg>