<svg xmlns="http://www.w3.org/2000/svg" xmlns:svg="http://www.w3.org/2000/svg" xmlns:xlink="http://www.w3.org/1999/xlink" id="svg2" width="16" height="16" display="inline" version="1.0"><defs id="defs4"><linearGradient id="linearGradient3327"><stop id="stop3330" offset="0" stop-color="#000" stop-opacity="1"/><stop id="stop3333" offset="1" stop-color="#000" stop-opacity="0"/></linearGradient><linearGradient id="ButtonColor" x1="10.32" x2="10.32" y1="21" y2=".999" gradientUnits="userSpaceOnUse"><stop id="stop3189" offset="0" stop-color="#e6e6e6" stop-opacity="1"/><stop id="stop3191" offset="1" stop-color="#f5f5f5" stop-opacity="1"/></linearGradient><linearGradient id="linearGradient3192" x1="9.057" x2="9.057" y1="10.203" y2="-12.199" gradientTransform="translate(0,5.8006549)" gradientUnits="userSpaceOnUse" xlink:href="#linearGradient3327"/><linearGradient id="linearGradient3204" x1="1" x2="15" y1="9" y2="9" gradientTransform="translate(-16,-1)" gradientUnits="userSpaceOnUse" xlink:href="#ButtonColor"/><linearGradient id="linearGradient3173" x1="1" x2="15" y1="9" y2="9" gradientTransform="translate(-16,-1)" gradientUnits="userSpaceOnUse" xlink:href="#ButtonColor"/><linearGradient id="linearGradient3177" x1="1" x2="15" y1="9" y2="9" gradientTransform="translate(-16,-1)" gradientUnits="userSpaceOnUse" xlink:href="#ButtonColor"/><linearGradient id="linearGradient3179" x1="1" x2="15" y1="9" y2="9" gradientTransform="matrix(0,-1,1,0,-1,16)" gradientUnits="userSpaceOnUse" xlink:href="#ButtonColor"/><linearGradient id="linearGradient3612" x1="8" x2="8" y1="15" y2="-1" gradientUnits="userSpaceOnUse" xlink:href="#linearGradient3327"/><linearGradient id="linearGradient3204-0" x1="1" x2="16.956" y1="9" y2="9" gradientTransform="translate(-17,-2)" gradientUnits="userSpaceOnUse" xlink:href="#ButtonColor-5"/><linearGradient id="ButtonColor-5" x1="10.32" x2="10.32" y1="21" y2=".999" gradientUnits="userSpaceOnUse"><stop id="stop3189-0" offset="0" stop-color="#e6e6e6" stop-opacity="1"/><stop id="stop3191-2" offset="1" stop-color="#f5f5f5" stop-opacity="1"/></linearGradient><linearGradient id="linearGradient2897" x1="9.057" x2="9.057" y1="10.203" y2="-19.304" gradientTransform="translate(-0.499722,5.300655)" gradientUnits="userSpaceOnUse" xlink:href="#linearGradient3327-7"/><linearGradient id="linearGradient3327-7"><stop id="stop3330-6" offset="0" stop-color="#000" stop-opacity="1"/><stop id="stop3333-8" offset="1" stop-color="#000" stop-opacity="0"/></linearGradient><linearGradient id="linearGradient3767" x1="1" x2="16.956" y1="9" y2="9" gradientTransform="translate(-17,-2)" gradientUnits="userSpaceOnUse" xlink:href="#ButtonColor-5"/><clipPath id="clipPath2952" clipPathUnits="userSpaceOnUse"><rect id="rect2954" width="72" height="56" x="12" y="20" fill="red" fill-opacity="1" fill-rule="nonzero" stroke="none" stroke-width="1" color="#000" display="inline" enable-background="accumulate" opacity=".652" overflow="visible" rx="3" ry="3" visibility="visible" style="marker:none"/></clipPath><linearGradient id="linearGradient3938" x1="48" x2="48" y1="48" y2="72" gradientUnits="userSpaceOnUse" spreadMethod="reflect" xlink:href="#linearGradient3940"/><linearGradient id="linearGradient3940"><stop id="stop3942" offset="0" stop-color="#555" stop-opacity="1"/><stop id="stop3944" offset="1" stop-color="#2b2b2b" stop-opacity="1"/></linearGradient><radialGradient id="radialGradient3934" cx="56" cy="24" r="16" fx="56" fy="24" gradientUnits="userSpaceOnUse" xlink:href="#linearGradient3928"/><linearGradient id="linearGradient3928"><stop id="stop3930" offset="0" stop-color="#00ce99" stop-opacity="1"/><stop id="stop3932" offset="1" stop-color="#00805f" stop-opacity="0"/></linearGradient><radialGradient id="radialGradient3867" cx="60.563" cy="49.721" r="19.437" fx="60.563" fy="49.721" gradientUnits="userSpaceOnUse" xlink:href="#linearGradient3751"/><linearGradient id="linearGradient3751"><stop id="stop3754" offset="0" stop-color="#80e5ff" stop-opacity="1"/><stop id="stop3869" offset=".5" stop-color="#80e5ff" stop-opacity=".403"/><stop id="stop3756" offset="1" stop-color="#80e5ff" stop-opacity="0"/></linearGradient><radialGradient id="radialGradient3747" cx="47.977" cy="64.058" r="24.023" fx="47.977" fy="64.058" gradientUnits="userSpaceOnUse" xlink:href="#linearGradient3739"/><linearGradient id="linearGradient3739"><stop id="stop3742" offset="0" stop-color="#5fbcd3" stop-opacity="1"/><stop id="stop3745" offset="1" stop-color="#5fbcd3" stop-opacity="0"/></linearGradient><radialGradient id="radialGradient3758" cx="60.563" cy="49.721" r="19.437" fx="60.563" fy="49.721" gradientUnits="userSpaceOnUse" xlink:href="#linearGradient3751"/><linearGradient id="linearGradient3888"><stop id="stop3890" offset="0" stop-color="#80e5ff" stop-opacity="1"/><stop id="stop3892" offset=".5" stop-color="#80e5ff" stop-opacity=".403"/><stop id="stop3894" offset="1" stop-color="#80e5ff" stop-opacity="0"/></linearGradient><radialGradient id="radialGradient3833" cx="58.5" cy="37.5" r="2.5" fx="58.5" fy="37.5" gradientUnits="userSpaceOnUse" xlink:href="#linearGradient3827"/><linearGradient id="linearGradient3827"><stop id="stop3829" offset="0" stop-color="#fff" stop-opacity="1"/><stop id="stop3831" offset="1" stop-color="#fff" stop-opacity="0"/></linearGradient><radialGradient id="radialGradient3837" cx="58.5" cy="37.5" r="2.5" fx="58.5" fy="37.5" gradientUnits="userSpaceOnUse" xlink:href="#linearGradient3827"/><radialGradient id="radialGradient3841" cx="58.5" cy="37.5" r="2.5" fx="58.5" fy="37.5" gradientUnits="userSpaceOnUse" xlink:href="#linearGradient3827"/><radialGradient id="radialGradient3845" cx="58.5" cy="37.5" r="2.5" fx="58.5" fy="37.5" gradientUnits="userSpaceOnUse" xlink:href="#linearGradient3827"/><radialGradient id="radialGradient3849" cx="58.5" cy="37.5" r="2.5" fx="58.5" fy="37.5" gradientUnits="userSpaceOnUse" xlink:href="#linearGradient3827"/><radialGradient id="radialGradient3853" cx="58.5" cy="37.5" r="2.5" fx="58.5" fy="37.5" gradientUnits="userSpaceOnUse" xlink:href="#linearGradient3827"/><radialGradient id="radialGradient3857" cx="58.5" cy="37.5" r="2.5" fx="58.5" fy="37.5" gradientUnits="userSpaceOnUse" xlink:href="#linearGradient3827"/><radialGradient id="radialGradient3861" cx="58.5" cy="37.5" r="2.5" fx="58.5" fy="37.5" gradientUnits="userSpaceOnUse" xlink:href="#linearGradient3827"/><linearGradient id="linearGradient4012" x1="1" x2="16.956" y1="9" y2="9" gradientTransform="matrix(0,-1,1,0,-2,17)" gradientUnits="userSpaceOnUse" xlink:href="#ButtonColor-5"/><linearGradient id="linearGradient3855" x1="47.61" x2="47.61" y1="121.366" y2="6.634" gradientTransform="matrix(0.08928571,0,0,0.0892857,6.2857146,4.2857156)" gradientUnits="userSpaceOnUse" xlink:href="#linearGradient3290-7"/><linearGradient id="linearGradient3290-7"><stop id="stop3292-2" offset="0" stop-color="#ba0000" stop-opacity="1"/><stop id="stop3294-3" offset="1" stop-color="#ff331e" stop-opacity="1"/></linearGradient><linearGradient id="linearGradient3796" x1="47.61" x2="47.61" y1="121.366" y2="6.634" gradientTransform="matrix(0.49450546,0,0,0.49999989,16.351652,10.400029)" gradientUnits="userSpaceOnUse" xlink:href="#linearGradient3290-7"/><linearGradient id="linearGradient3796-2" x1="47.61" x2="47.61" y1="121.366" y2="6.634" gradientTransform="matrix(0.49450546,0,0,0.49999989,16.351652,10.400029)" gradientUnits="userSpaceOnUse" xlink:href="#linearGradient3290-7-8"/><linearGradient id="linearGradient3290-7-8"><stop id="stop3292-2-8" offset="0" stop-color="#ba0000" stop-opacity="1"/><stop id="stop3294-3-7" offset="1" stop-color="#ff331e" stop-opacity="1"/></linearGradient><linearGradient id="linearGradient3730" x1="47.61" x2="47.61" y1="121.366" y2="6.634" gradientTransform="matrix(0.07142857,0,0,0.07142856,3.428572,3.428572)" gradientUnits="userSpaceOnUse" xlink:href="#linearGradient3290-7-8"/><clipPath id="clipPath2952-1" clipPathUnits="userSpaceOnUse"><rect id="rect2954-8" width="72" height="56" x="12" y="20" fill="red" fill-opacity="1" fill-rule="nonzero" stroke="none" stroke-width="1" color="#000" display="inline" enable-background="accumulate" opacity=".652" overflow="visible" rx="3" ry="3" visibility="visible" style="marker:none"/></clipPath><linearGradient id="linearGradient3938-0" x1="48" x2="48" y1="48" y2="72" gradientUnits="userSpaceOnUse" spreadMethod="reflect" xlink:href="#linearGradient3940-6"/><linearGradient id="linearGradient3940-6"><stop id="stop3942-3" offset="0" stop-color="#5184cf" stop-opacity="1"/><stop id="stop3944-3" offset="1" stop-color="#123a76" stop-opacity="1"/></linearGradient><radialGradient id="radialGradient3934-7" cx="56" cy="24" r="16" fx="56" fy="24" gradientUnits="userSpaceOnUse" xlink:href="#linearGradient3928-5"/><linearGradient id="linearGradient3928-5"><stop id="stop3930-5" offset="0" stop-color="#00ce99" stop-opacity="1"/><stop id="stop3932-3" offset="1" stop-color="#00805f" stop-opacity="0"/></linearGradient><radialGradient id="radialGradient3867-6" cx="60.563" cy="49.721" r="19.437" fx="60.563" fy="49.721" gradientUnits="userSpaceOnUse" xlink:href="#linearGradient3751-3"/><linearGradient id="linearGradient3751-3"><stop id="stop3754-0" offset="0" stop-color="#80e5ff" stop-opacity="1"/><stop id="stop3869-8" offset=".5" stop-color="#80e5ff" stop-opacity=".403"/><stop id="stop3756-6" offset="1" stop-color="#80e5ff" stop-opacity="0"/></linearGradient><radialGradient id="radialGradient3747-7" cx="47.977" cy="64.058" r="24.023" fx="47.977" fy="64.058" gradientUnits="userSpaceOnUse" xlink:href="#linearGradient3739-1"/><linearGradient id="linearGradient3739-1"><stop id="stop3742-1" offset="0" stop-color="#5fbcd3" stop-opacity="1"/><stop id="stop3745-7" offset="1" stop-color="#5fbcd3" stop-opacity="0"/></linearGradient><radialGradient id="radialGradient3758-7" cx="60.563" cy="49.721" r="19.437" fx="60.563" fy="49.721" gradientUnits="userSpaceOnUse" xlink:href="#linearGradient3751-3"/><linearGradient id="linearGradient2965"><stop id="stop2967" offset="0" stop-color="#80e5ff" stop-opacity="1"/><stop id="stop2969" offset=".5" stop-color="#80e5ff" stop-opacity=".403"/><stop id="stop2971" offset="1" stop-color="#80e5ff" stop-opacity="0"/></linearGradient><radialGradient id="radialGradient3833-6" cx="58.5" cy="37.5" r="2.5" fx="58.5" fy="37.5" gradientUnits="userSpaceOnUse" xlink:href="#linearGradient3827-9"/><linearGradient id="linearGradient3827-9"><stop id="stop3829-7" offset="0" stop-color="#fff" stop-opacity="1"/><stop id="stop3831-1" offset="1" stop-color="#fff" stop-opacity="0"/></linearGradient><radialGradient id="radialGradient3837-8" cx="58.5" cy="37.5" r="2.5" fx="58.5" fy="37.5" gradientUnits="userSpaceOnUse" xlink:href="#linearGradient3827-9"/><radialGradient id="radialGradient3841-6" cx="58.5" cy="37.5" r="2.5" fx="58.5" fy="37.5" gradientUnits="userSpaceOnUse" xlink:href="#linearGradient3827-9"/><radialGradient id="radialGradient3845-8" cx="58.5" cy="37.5" r="2.5" fx="58.5" fy="37.5" gradientUnits="userSpaceOnUse" xlink:href="#linearGradient3827-9"/><radialGradient id="radialGradient3849-3" cx="58.5" cy="37.5" r="2.5" fx="58.5" fy="37.5" gradientUnits="userSpaceOnUse" xlink:href="#linearGradient3827-9"/><radialGradient id="radialGradient3853-7" cx="58.5" cy="37.5" r="2.5" fx="58.5" fy="37.5" gradientUnits="userSpaceOnUse" xlink:href="#linearGradient3827-9"/><radialGradient id="radialGradient3857-7" cx="58.5" cy="37.5" r="2.5" fx="58.5" fy="37.5" gradientUnits="userSpaceOnUse" xlink:href="#linearGradient3827-9"/><radialGradient id="radialGradient3861-0" cx="58.5" cy="37.5" r="2.5" fx="58.5" fy="37.5" gradientUnits="userSpaceOnUse" xlink:href="#linearGradient3827-9"/></defs><metadata id="metadata7"/><g id="layer1"><rect id="rect3196" width="16" height="16" x="-16" y="0" fill="url(#linearGradient3767)" fill-opacity="1" fill-rule="nonzero" stroke="none" display="inline" rx="2" ry="2" transform="matrix(0,-1,1,0,0,0)"/><path id="rect2410" fill="url(#linearGradient2897)" fill-opacity="1" fill-rule="nonzero" stroke="none" d="M 2,0 C 0.892,0 0,0.892 0,2 l 0,12 c 0,1.108 0.892,2 2,2 l 12,0 c 1.108,0 2,-0.892 2,-2 L 16,2 C 16,0.892 15.108,0 14,0 L 2,0 z m 0.5,1 11,0 C 14.331,1 15,1.669 15,2.5 l 0,11 c 0,0.831 -0.669,1.5 -1.5,1.5 l -11,0 C 1.669,15 1,14.331 1,13.5 L 1,2.5 C 1,1.669 1.669,1 2.5,1 z" display="inline" opacity=".4"/><path id="rect3770" fill="#fff" fill-opacity="1" stroke="none" d="M 2.5,1 C 1.669,1 1,1.669 1,2.5 l 0,1 C 1,2.669 1.669,2 2.5,2 l 11,0 C 14.331,2 15,2.669 15,3.5 l 0,-1 C 15,1.669 14.331,1 13.5,1 l -11,0 z" display="inline" opacity=".6"/><rect id="rect3179" width="13" height="10" x="-18.5" y="3" fill="red" fill-opacity="1" fill-rule="nonzero" stroke="none" stroke-width=".5" color="#000" display="inline" enable-background="accumulate" opacity=".6" overflow="visible" rx=".552" ry=".552" visibility="visible" style="marker:none"/></g><g id="layer2"><g id="g3871" clip-path="url(#clipPath2952-1)" display="inline" transform="matrix(0.18055556,0,0,0.17857144,-0.6666667,-0.5714328)"><rect id="rect3966" width="72" height="56" x="12" y="20" fill="url(#linearGradient3938-0)" fill-opacity="1" fill-rule="nonzero" stroke="none" stroke-width="1" color="#000" display="inline" enable-background="accumulate" overflow="visible" visibility="visible" style="marker:none"/><path id="path3918" fill="url(#radialGradient3934-7)" fill-opacity="1" fill-rule="nonzero" stroke="none" stroke-width="1" d="M 72,24 C 72,32.836556 64.836556,40 56,40 47.163444,40 40,32.836556 40,24 40,15.163444 47.163444,8 56,8 c 8.836556,0 16,7.163444 16,16 z" color="#000" display="inline" enable-background="accumulate" opacity=".5" overflow="visible" transform="matrix(2.75,0,0,2.75,-126,-40)" visibility="visible" style="marker:none"/><path id="path3865" fill="url(#radialGradient3867-6)" fill-opacity="1" fill-rule="nonzero" stroke="none" stroke-width="1" d="m 80,49.720657 c 0,10.73482 -8.702291,19.437111 -19.437111,19.437111 -10.73482,0 -19.437111,-8.702291 -19.437111,-19.437111 0,-10.73482 8.702291,-19.437111 19.437111,-19.437111 C 71.297709,30.283546 80,38.985837 80,49.720657 z" color="#000" display="inline" enable-background="accumulate" opacity=".697" overflow="visible" transform="matrix(0.92606356,0,0,0.92606356,20.477805,-0.04448889)" visibility="visible" style="marker:none"/><path id="path3737" fill="url(#radialGradient3747-7)" fill-opacity="1" fill-rule="nonzero" stroke="none" stroke-width="1" d="m 71.999998,64.057671 c 0,13.267341 -10.755305,24.022646 -24.022646,24.022646 -13.267341,0 -24.022646,-10.755305 -24.022646,-24.022646 0,-13.267341 10.755305,-24.022646 24.022646,-24.022646 13.267341,0 24.022646,10.755305 24.022646,24.022646 z" color="#000" display="inline" enable-background="accumulate" overflow="visible" transform="translate(-23.999998,-16.057671)" visibility="visible" style="marker:none"/><path id="path3749" fill="url(#radialGradient3758-7)" fill-opacity="1" fill-rule="nonzero" stroke="none" stroke-width="1" d="m 80,49.720657 c 0,10.73482 -8.702291,19.437111 -19.437111,19.437111 -10.73482,0 -19.437111,-8.702291 -19.437111,-19.437111 0,-10.73482 8.702291,-19.437111 19.437111,-19.437111 C 71.297709,30.283546 80,38.985837 80,49.720657 z" color="#000" display="inline" enable-background="accumulate" opacity=".434" overflow="visible" transform="translate(-12.562889,-5.1577682)" visibility="visible" style="marker:none"/><path id="path3779" fill="#fff" fill-opacity="1" fill-rule="nonzero" stroke="none" stroke-width="1" d="M 61,37.5 C 61,38.880712 59.880712,40 58.5,40 57.119288,40 56,38.880712 56,37.5 56,36.119288 57.119288,35 58.5,35 c 1.380712,0 2.5,1.119288 2.5,2.5 z" color="#000" display="inline" enable-background="accumulate" opacity=".4" overflow="visible" visibility="visible" style="marker:none"/><path id="path3781" fill="#fff" fill-opacity="1" fill-rule="nonzero" stroke="none" stroke-width="1" d="M 61,37.5 C 61,38.880712 59.880712,40 58.5,40 57.119288,40 56,38.880712 56,37.5 56,36.119288 57.119288,35 58.5,35 c 1.380712,0 2.5,1.119288 2.5,2.5 z" color="#000" display="inline" enable-background="accumulate" opacity=".504" overflow="visible" transform="translate(-33.5,10)" visibility="visible" style="marker:none"/><path id="path3783" fill="#fff" fill-opacity="1" fill-rule="nonzero" stroke="none" stroke-width="1" d="M 61,37.5 C 61,38.880712 59.880712,40 58.5,40 57.119288,40 56,38.880712 56,37.5 56,36.119288 57.119288,35 58.5,35 c 1.380712,0 2.5,1.119288 2.5,2.5 z" color="#000" display="inline" enable-background="accumulate" opacity=".3" overflow="visible" transform="translate(4,13.5)" visibility="visible" style="marker:none"/><path id="path3785" fill="#fff" fill-opacity="1" fill-rule="nonzero" stroke="none" stroke-width="1" d="M 61,37.5 C 61,38.880712 59.880712,40 58.5,40 57.119288,40 56,38.880712 56,37.5 56,36.119288 57.119288,35 58.5,35 c 1.380712,0 2.5,1.119288 2.5,2.5 z" color="#000" display="inline" enable-background="accumulate" opacity=".504" overflow="visible" transform="translate(17,8.5)" visibility="visible" style="marker:none"/><path id="path3787" fill="#fff" fill-opacity="1" fill-rule="nonzero" stroke="none" stroke-width="1" d="M 61,37.5 C 61,38.880712 59.880712,40 58.5,40 57.119288,40 56,38.880712 56,37.5 56,36.119288 57.119288,35 58.5,35 c 1.380712,0 2.5,1.119288 2.5,2.5 z" color="#000" display="inline" enable-background="accumulate" opacity=".504" overflow="visible" transform="translate(-17,7.5)" visibility="visible" style="marker:none"/><path id="path3789" fill="#fff" fill-opacity="1" fill-rule="nonzero" stroke="none" stroke-width="1" d="M 61,37.5 C 61,38.880712 59.880712,40 58.5,40 57.119288,40 56,38.880712 56,37.5 56,36.119288 57.119288,35 58.5,35 c 1.380712,0 2.5,1.119288 2.5,2.5 z" color="#000" display="inline" enable-background="accumulate" opacity=".504" overflow="visible" transform="translate(-42,3.5)" visibility="visible" style="marker:none"/><path id="path3791" fill="#fff" fill-opacity="1" fill-rule="nonzero" stroke="none" stroke-width="1" d="M 61,37.5 C 61,38.880712 59.880712,40 58.5,40 57.119288,40 56,38.880712 56,37.5 56,36.119288 57.119288,35 58.5,35 c 1.380712,0 2.5,1.119288 2.5,2.5 z" color="#000" display="inline" enable-background="accumulate" opacity=".3" overflow="visible" transform="translate(-42,3.5)" visibility="visible" style="marker:none"/><path id="path3793" fill="#fff" fill-opacity="1" fill-rule="nonzero" stroke="none" stroke-width="1" d="M 61,37.5 C 61,38.880712 59.880712,40 58.5,40 57.119288,40 56,38.880712 56,37.5 56,36.119288 57.119288,35 58.5,35 c 1.380712,0 2.5,1.119288 2.5,2.5 z" color="#000" display="inline" enable-background="accumulate" opacity=".504" overflow="visible" transform="matrix(0.4,0,0,0.4,-6.4,35)" visibility="visible" style="marker:none"/><path id="path3795" fill="#fff" fill-opacity="1" fill-rule="nonzero" stroke="none" stroke-width="1" d="M 61,37.5 C 61,38.880712 59.880712,40 58.5,40 57.119288,40 56,38.880712 56,37.5 56,36.119288 57.119288,35 58.5,35 c 1.380712,0 2.5,1.119288 2.5,2.5 z" color="#000" display="inline" enable-background="accumulate" opacity=".504" overflow="visible" transform="matrix(0.4,0,0,0.4,7.6,38)" visibility="visible" style="marker:none"/><path id="path3797" fill="#fff" fill-opacity="1" fill-rule="nonzero" stroke="none" stroke-width="1" d="M 61,37.5 C 61,38.880712 59.880712,40 58.5,40 57.119288,40 56,38.880712 56,37.5 56,36.119288 57.119288,35 58.5,35 c 1.380712,0 2.5,1.119288 2.5,2.5 z" color="#000" display="inline" enable-background="accumulate" opacity=".504" overflow="visible" transform="matrix(0.4,0,0,0.4,9.6,34)" visibility="visible" style="marker:none"/><path id="path3799" fill="#fff" fill-opacity="1" fill-rule="nonzero" stroke="none" stroke-width="1" d="M 61,37.5 C 61,38.880712 59.880712,40 58.5,40 57.119288,40 56,38.880712 56,37.5 56,36.119288 57.119288,35 58.5,35 c 1.380712,0 2.5,1.119288 2.5,2.5 z" color="#000" display="inline" enable-background="accumulate" opacity=".3" overflow="visible" transform="matrix(0.4,0,0,0.4,16.6,36)" visibility="visible" style="marker:none"/><path id="path3801" fill="#fff" fill-opacity="1" fill-rule="nonzero" stroke="none" stroke-width="1" d="M 61,37.5 C 61,38.880712 59.880712,40 58.5,40 57.119288,40 56,38.880712 56,37.5 56,36.119288 57.119288,35 58.5,35 c 1.380712,0 2.5,1.119288 2.5,2.5 z" color="#000" display="inline" enable-background="accumulate" opacity=".504" overflow="visible" transform="matrix(0.4,0,0,0.4,28.6,28)" visibility="visible" style="marker:none"/><path id="path3803" fill="#fff" fill-opacity="1" fill-rule="nonzero" stroke="none" stroke-width="1" d="M 61,37.5 C 61,38.880712 59.880712,40 58.5,40 57.119288,40 56,38.880712 56,37.5 56,36.119288 57.119288,35 58.5,35 c 1.380712,0 2.5,1.119288 2.5,2.5 z" color="#000" display="inline" enable-background="accumulate" opacity=".504" overflow="visible" transform="matrix(0.4,0,0,0.4,45.6,33)" visibility="visible" style="marker:none"/><path id="path3805" fill="#fff" fill-opacity="1" fill-rule="nonzero" stroke="none" stroke-width="1" d="M 61,37.5 C 61,38.880712 59.880712,40 58.5,40 57.119288,40 56,38.880712 56,37.5 56,36.119288 57.119288,35 58.5,35 c 1.380712,0 2.5,1.119288 2.5,2.5 z" color="#000" display="inline" enable-background="accumulate" opacity=".504" overflow="visible" transform="matrix(0.4,0,0,0.4,47.6,29)" visibility="visible" style="marker:none"/><path id="path3807" fill="#fff" fill-opacity="1" fill-rule="nonzero" stroke="none" stroke-width="1" d="M 61,37.5 C 61,38.880712 59.880712,40 58.5,40 57.119288,40 56,38.880712 56,37.5 56,36.119288 57.119288,35 58.5,35 c 1.380712,0 2.5,1.119288 2.5,2.5 z" color="#000" display="inline" enable-background="accumulate" opacity=".504" overflow="visible" transform="matrix(0.4,0,0,0.4,55.6,23)" visibility="visible" style="marker:none"/><path id="path3809" fill="#fff" fill-opacity="1" fill-rule="nonzero" stroke="none" stroke-width="1" d="M 61,37.5 C 61,38.880712 59.880712,40 58.5,40 57.119288,40 56,38.880712 56,37.5 56,36.119288 57.119288,35 58.5,35 c 1.380712,0 2.5,1.119288 2.5,2.5 z" color="#000" display="inline" enable-background="accumulate" opacity=".504" overflow="visible" transform="matrix(0.4,0,0,0.4,38.6,30)" visibility="visible" style="marker:none"/><path id="path3811" fill="#fff" fill-opacity="1" fill-rule="nonzero" stroke="none" stroke-width="1" d="M 61,37.5 C 61,38.880712 59.880712,40 58.5,40 57.119288,40 56,38.880712 56,37.5 56,36.119288 57.119288,35 58.5,35 c 1.380712,0 2.5,1.119288 2.5,2.5 z" color="#000" display="inline" enable-background="accumulate" opacity=".504" overflow="visible" transform="matrix(0.4,0,0,0.4,38.6,30)" visibility="visible" style="marker:none"/><path id="path3813" fill="#fff" fill-opacity="1" fill-rule="nonzero" stroke="none" stroke-width="1" d="M 61,37.5 C 61,38.880712 59.880712,40 58.5,40 57.119288,40 56,38.880712 56,37.5 56,36.119288 57.119288,35 58.5,35 c 1.380712,0 2.5,1.119288 2.5,2.5 z" color="#000" display="inline" enable-background="accumulate" opacity=".504" overflow="visible" transform="matrix(0.6,0,0,0.6,-1.1,21)" visibility="visible" style="marker:none"/><path id="path3815" fill="#fff" fill-opacity="1" fill-rule="nonzero" stroke="none" stroke-width="1" d="M 61,37.5 C 61,38.880712 59.880712,40 58.5,40 57.119288,40 56,38.880712 56,37.5 56,36.119288 57.119288,35 58.5,35 c 1.380712,0 2.5,1.119288 2.5,2.5 z" color="#000" display="inline" enable-background="accumulate" opacity=".504" overflow="visible" transform="matrix(0.6,0,0,0.6,-6.6,18.5)" visibility="visible" style="marker:none"/><path id="path3817" fill="#fff" fill-opacity="1" fill-rule="nonzero" stroke="none" stroke-width="1" d="M 61,37.5 C 61,38.880712 59.880712,40 58.5,40 57.119288,40 56,38.880712 56,37.5 56,36.119288 57.119288,35 58.5,35 c 1.380712,0 2.5,1.119288 2.5,2.5 z" color="#000" display="inline" enable-background="accumulate" opacity=".504" overflow="visible" transform="matrix(0.6,0,0,0.6,15.9,31)" visibility="visible" style="marker:none"/><path id="path3819" fill="#fff" fill-opacity="1" fill-rule="nonzero" stroke="none" stroke-width="1" d="M 61,37.5 C 61,38.880712 59.880712,40 58.5,40 57.119288,40 56,38.880712 56,37.5 56,36.119288 57.119288,35 58.5,35 c 1.380712,0 2.5,1.119288 2.5,2.5 z" color="#000" display="inline" enable-background="accumulate" opacity=".504" overflow="visible" transform="matrix(0.6,0,0,0.6,19.4,26.5)" visibility="visible" style="marker:none"/><path id="path3821" fill="#fff" fill-opacity="1" fill-rule="nonzero" stroke="none" stroke-width="1" d="M 61,37.5 C 61,38.880712 59.880712,40 58.5,40 57.119288,40 56,38.880712 56,37.5 56,36.119288 57.119288,35 58.5,35 c 1.380712,0 2.5,1.119288 2.5,2.5 z" color="#000" display="inline" enable-background="accumulate" opacity=".504" overflow="visible" transform="matrix(0.6,0,0,0.6,19.4,26.5)" visibility="visible" style="marker:none"/><path id="path3823" fill="#fff" fill-opacity="1" fill-rule="nonzero" stroke="none" stroke-width="1" d="M 61,37.5 C 61,38.880712 59.880712,40 58.5,40 57.119288,40 56,38.880712 56,37.5 56,36.119288 57.119288,35 58.5,35 c 1.380712,0 2.5,1.119288 2.5,2.5 z" color="#000" display="inline" enable-background="accumulate" opacity=".504" overflow="visible" transform="matrix(0.6,0,0,0.6,37.9,29)" visibility="visible" style="marker:none"/><path id="path3825" fill="url(#radialGradient3833-6)" fill-opacity="1" fill-rule="nonzero" stroke="none" stroke-width="1" d="M 61,37.5 C 61,38.880712 59.880712,40 58.5,40 57.119288,40 56,38.880712 56,37.5 56,36.119288 57.119288,35 58.5,35 c 1.380712,0 2.5,1.119288 2.5,2.5 z" color="#000" display="inline" enable-background="accumulate" opacity=".3" overflow="visible" transform="matrix(1.6,0,0,1.6,-43.6,-16)" visibility="visible" style="marker:none"/><path id="path3835" fill="url(#radialGradient3837-8)" fill-opacity="1" fill-rule="nonzero" stroke="none" stroke-width="1" d="M 61,37.5 C 61,38.880712 59.880712,40 58.5,40 57.119288,40 56,38.880712 56,37.5 56,36.119288 57.119288,35 58.5,35 c 1.380712,0 2.5,1.119288 2.5,2.5 z" color="#000" display="inline" enable-background="accumulate" opacity=".3" overflow="visible" transform="matrix(1.6,0,0,1.6,-23.6,-10)" visibility="visible" style="marker:none"/><path id="path3839" fill="url(#radialGradient3841-6)" fill-opacity="1" fill-rule="nonzero" stroke="none" stroke-width="1" d="M 61,37.5 C 61,38.880712 59.880712,40 58.5,40 57.119288,40 56,38.880712 56,37.5 56,36.119288 57.119288,35 58.5,35 c 1.380712,0 2.5,1.119288 2.5,2.5 z" color="#000" display="inline" enable-background="accumulate" opacity=".3" overflow="visible" transform="matrix(1.6,0,0,1.6,-72.6,-15)" visibility="visible" style="marker:none"/><path id="path3843" fill="url(#radialGradient3845-8)" fill-opacity="1" fill-rule="nonzero" stroke="none" stroke-width="1" d="M 61,37.5 C 61,38.880712 59.880712,40 58.5,40 57.119288,40 56,38.880712 56,37.5 56,36.119288 57.119288,35 58.5,35 c 1.380712,0 2.5,1.119288 2.5,2.5 z" color="#000" display="inline" enable-background="accumulate" opacity=".3" overflow="visible" transform="matrix(1.6,0,0,1.6,-59.6,-9)" visibility="visible" style="marker:none"/><path id="path3847" fill="url(#radialGradient3849-3)" fill-opacity="1" fill-rule="nonzero" stroke="none" stroke-width="1" d="M 61,37.5 C 61,38.880712 59.880712,40 58.5,40 57.119288,40 56,38.880712 56,37.5 56,36.119288 57.119288,35 58.5,35 c 1.380712,0 2.5,1.119288 2.5,2.5 z" color="#000" display="inline" enable-background="accumulate" opacity=".3" overflow="visible" transform="translate(-27,2.5)" visibility="visible" style="marker:none"/><path id="path3851" fill="url(#radialGradient3853-7)" fill-opacity="1" fill-rule="nonzero" stroke="none" stroke-width="1" d="M 61,37.5 C 61,38.880712 59.880712,40 58.5,40 57.119288,40 56,38.880712 56,37.5 56,36.119288 57.119288,35 58.5,35 c 1.380712,0 2.5,1.119288 2.5,2.5 z" color="#000" display="inline" enable-background="accumulate" opacity=".3" overflow="visible" transform="translate(9,4.5)" visibility="visible" style="marker:none"/><path id="path3855" fill="url(#radialGradient3857-7)" fill-opacity="1" fill-rule="nonzero" stroke="none" stroke-width="1" d="M 61,37.5 C 61,38.880712 59.880712,40 58.5,40 57.119288,40 56,38.880712 56,37.5 56,36.119288 57.119288,35 58.5,35 c 1.380712,0 2.5,1.119288 2.5,2.5 z" color="#000" display="inline" enable-background="accumulate" opacity=".3" overflow="visible" transform="translate(21,6.5)" visibility="visible" style="marker:none"/><path id="path3859" fill="url(#radialGradient3861-0)" fill-opacity="1" fill-rule="nonzero" stroke="none" stroke-width="1" d="M 61,37.5 C 61,38.880712 59.880712,40 58.5,40 57.119288,40 56,38.880712 56,37.5 56,36.119288 57.119288,35 58.5,35 c 1.380712,0 2.5,1.119288 2.5,2.5 z" color="#000" display="inline" enable-background="accumulate" opacity=".3" overflow="visible" transform="translate(-35,12.5)" visibility="visible" style="marker:none"/><path id="path3863" fill="#fff" fill-opacity="1" fill-rule="nonzero" stroke="none" stroke-width="1" d="M 61,37.5 C 61,38.880712 59.880712,40 58.5,40 57.119288,40 56,38.880712 56,37.5 56,36.119288 57.119288,35 58.5,35 c 1.380712,0 2.5,1.119288 2.5,2.5 z" color="#000" display="inline" enable-background="accumulate" opacity=".504" overflow="visible" transform="matrix(0.4,0,0,0.4,39.6,24)" visibility="visible" style="marker:none"/></g><path id="rect3181" fill="#fff" fill-opacity="1" fill-rule="nonzero" stroke="none" stroke-width=".5" d="m 1.5,12.4375 0,1 C 1.5,13.743071 1.7569289,14 2.0625,14 l 11.875,0 C 14.243071,14 14.5,13.743071 14.5,13.4375 l 0,-1 C 14.5,12.743071 14.243071,13 13.9375,13 L 2.0625,13 C 1.7569289,13 1.5,12.743071 1.5,12.4375 z" color="#000" display="inline" enable-background="accumulate" opacity=".6" overflow="visible" visibility="visible" style="marker:none"/><path id="rect3186" fill="#000" fill-opacity="1" fill-rule="nonzero" stroke="none" stroke-width=".5" d="M 2.0625,3 C 1.7569289,3 1.5,3.2569289 1.5,3.5625 l 0,8.875 C 1.5,12.743071 1.7569289,13 2.0625,13 l 11.875,0 C 14.243071,13 14.5,12.743071 14.5,12.4375 l 0,-8.875 C 14.5,3.2569289 14.243071,3 13.9375,3 L 2.0625,3 z m 0,0.5 11.875,0 C 13.95953,3.5 14,3.5404668 14,3.5625 l 0,8.875 C 14,12.45953 13.95953,12.5 13.9375,12.5 l -11.875,0 C 2.0404668,12.5 2,12.459533 2,12.4375 L 2,3.5625 C 2,3.5404666 2.0404666,3.5 2.0625,3.5 z" color="#000" display="inline" enable-background="accumulate" opacity=".2" overflow="visible" visibility="visible" style="marker:none"/></g></svg>