<svg xmlns="http://www.w3.org/2000/svg" xmlns:svg="http://www.w3.org/2000/svg" xmlns:xlink="http://www.w3.org/1999/xlink" id="svg2" width="16" height="16" display="inline" version="1.0"><defs id="defs4"><linearGradient id="linearGradient3880"><stop id="stop3882" offset="0" stop-color="#6d5131" stop-opacity="1"/><stop id="stop3884" offset="1" stop-color="#6d5131" stop-opacity="0"/></linearGradient><linearGradient id="linearGradient3327"><stop id="stop3330" offset="0" stop-color="#000" stop-opacity="1"/><stop id="stop3333" offset="1" stop-color="#000" stop-opacity="0"/></linearGradient><linearGradient id="ButtonColor" x1="10.32" x2="10.32" y1="21" y2=".999" gradientUnits="userSpaceOnUse"><stop id="stop3189" offset="0" stop-color="#e6e6e6" stop-opacity="1"/><stop id="stop3191" offset="1" stop-color="#f5f5f5" stop-opacity="1"/></linearGradient><linearGradient id="linearGradient3192" x1="9.057" x2="9.057" y1="10.203" y2="-12.199" gradientTransform="translate(0,5.8006549)" gradientUnits="userSpaceOnUse" xlink:href="#linearGradient3327"/><linearGradient id="linearGradient3204" x1="1" x2="15" y1="9" y2="9" gradientTransform="translate(-16,-1)" gradientUnits="userSpaceOnUse" xlink:href="#ButtonColor"/><linearGradient id="linearGradient3173" x1="1" x2="15" y1="9" y2="9" gradientTransform="translate(-16,-1)" gradientUnits="userSpaceOnUse" xlink:href="#ButtonColor"/><linearGradient id="linearGradient3177" x1="1" x2="15" y1="9" y2="9" gradientTransform="translate(-16,-1)" gradientUnits="userSpaceOnUse" xlink:href="#ButtonColor"/><linearGradient id="linearGradient3179" x1="1" x2="15" y1="9" y2="9" gradientTransform="matrix(0,-1,1,0,-1,16)" gradientUnits="userSpaceOnUse" xlink:href="#ButtonColor"/><linearGradient id="linearGradient3612" x1="8" x2="8" y1="15" y2="-1" gradientUnits="userSpaceOnUse" xlink:href="#linearGradient3327"/><linearGradient id="linearGradient3204-0" x1="1" x2="16.956" y1="9" y2="9" gradientTransform="translate(-17,-2)" gradientUnits="userSpaceOnUse" xlink:href="#ButtonColor-5"/><linearGradient id="ButtonColor-5" x1="10.32" x2="10.32" y1="21" y2=".999" gradientUnits="userSpaceOnUse"><stop id="stop3189-0" offset="0" stop-color="#e6e6e6" stop-opacity="1"/><stop id="stop3191-2" offset="1" stop-color="#f5f5f5" stop-opacity="1"/></linearGradient><linearGradient id="linearGradient2897" x1="9.057" x2="9.057" y1="10.203" y2="-19.304" gradientTransform="translate(-0.499722,5.300655)" gradientUnits="userSpaceOnUse" xlink:href="#linearGradient3327-7"/><linearGradient id="linearGradient3327-7"><stop id="stop3330-6" offset="0" stop-color="#000" stop-opacity="1"/><stop id="stop3333-8" offset="1" stop-color="#000" stop-opacity="0"/></linearGradient><linearGradient id="linearGradient3767" x1="1" x2="16.956" y1="9" y2="9" gradientTransform="translate(-17,-2)" gradientUnits="userSpaceOnUse" xlink:href="#linearGradient4289"/><linearGradient id="linearGradient3867" x1="-3.061" x2="-3.061" y1="27.258" y2="7.254" gradientTransform="translate(11.119372,-6.2581977)" gradientUnits="userSpaceOnUse" xlink:href="#linearGradient4289"/><linearGradient id="linearGradient4289"><stop id="stop4291" offset="0" stop-color="#996c3b" stop-opacity="1"/><stop id="stop4293" offset="1" stop-color="#c19e6d" stop-opacity="1"/></linearGradient><linearGradient id="linearGradient3889" x1="50.499" x2="50.499" y1="19.882" y2="47.295" gradientTransform="matrix(0.2514503,0,0,0.2514503,-42.22951,-5.0793315)" gradientUnits="userSpaceOnUse" xlink:href="#linearGradient4309"/><linearGradient id="linearGradient4309" x1="52.25" x2="52.25" y1="47.247" y2=".239" gradientUnits="userSpaceOnUse"><stop id="stop4311" offset="0" stop-color="#d8cab2" stop-opacity="1"/><stop id="stop4321" offset=".457" stop-color="#d2b98c" stop-opacity="1"/><stop id="stop4323" offset=".486" stop-color="#F9F7EF"/><stop id="stop4325" offset=".491" stop-color="#FFF"/><stop id="stop4327" offset=".492" stop-color="#FBF9F4"/><stop id="stop4329" offset=".495" stop-color="#EFE7D0"/><stop id="stop4331" offset=".498" stop-color="#E4D6B0"/><stop id="stop4333" offset=".501" stop-color="#DAC894"/><stop id="stop4335" offset=".505" stop-color="#c7a572" stop-opacity="1"/><stop id="stop4347" offset="1" stop-color="#d7c198" stop-opacity="1"/></linearGradient><linearGradient id="linearGradient2489" x1="48" x2="6.781" y1="42" y2="18.202" gradientTransform="matrix(0.23809522,0,0,0.23809522,-40.428572,-6.4761893)" gradientUnits="userSpaceOnUse" xlink:href="#linearGradient4295"/><linearGradient id="linearGradient4295"><stop id="stop4297" offset="0" stop-color="#b88f56" stop-opacity="1"/><stop id="stop4299" offset="1" stop-color="#d9bd98" stop-opacity="1"/></linearGradient><linearGradient id="linearGradient3264" x1="47.227" x2="6.33" y1="29.04" y2="18.082" gradientTransform="matrix(-0.23809522,0,0,0.23809522,-17.57143,-6.4761893)" gradientUnits="userSpaceOnUse" xlink:href="#linearGradient4295"/><linearGradient id="linearGradient3007"><stop id="stop3009" offset="0" stop-color="#b88f56" stop-opacity="1"/><stop id="stop3011" offset="1" stop-color="#d9bd98" stop-opacity="1"/></linearGradient><linearGradient id="linearGradient3017" x1="-3.061" x2="-3.061" y1="27.258" y2="7.254" gradientTransform="translate(-28.880628,-12.258198)" gradientUnits="userSpaceOnUse" xlink:href="#linearGradient4289"/><linearGradient id="linearGradient3859" x1="1" x2="16.956" y1="9" y2="9" gradientTransform="translate(-8,-2)" gradientUnits="userSpaceOnUse" xlink:href="#linearGradient4289"/><linearGradient id="linearGradient3865" x1="1" x2="16.956" y1="9" y2="9" gradientTransform="matrix(0,-1,1,0,-2,8)" gradientUnits="userSpaceOnUse" xlink:href="#linearGradient4289"/><linearGradient id="linearGradient3868" x1="5" x2="5" y1="10" y2="2" gradientTransform="matrix(0,-1,1,0,-2,8)" gradientUnits="userSpaceOnUse" xlink:href="#linearGradient4295"/><linearGradient id="linearGradient3872" x1="5" x2="5" y1="10" y2="2" gradientTransform="matrix(0,-1,-1,0,18,8)" gradientUnits="userSpaceOnUse" xlink:href="#linearGradient4295"/><linearGradient id="linearGradient3876" x1="50.499" x2="50.499" y1="16.167" y2="47.295" gradientTransform="matrix(0.2514503,0,0,0.2514503,-5.22951,-1.0793315)" gradientUnits="userSpaceOnUse" xlink:href="#linearGradient4309"/><linearGradient id="linearGradient3886" x1="7.978" x2="14" y1="7.489" y2="7.489" gradientUnits="userSpaceOnUse" spreadMethod="reflect" xlink:href="#linearGradient3880"/><linearGradient id="linearGradient3877" x1="10" x2="10" y1="40.263" y2="89.666" gradientTransform="matrix(-0.25789762,0,0,0.20638289,22.074726,2.1462134)" gradientUnits="userSpaceOnUse" xlink:href="#linearGradient3737"/><linearGradient id="linearGradient3737"><stop id="stop3739" offset="0" stop-color="#fff" stop-opacity="1"/><stop id="stop3741" offset="1" stop-color="#fff" stop-opacity="0"/></linearGradient><linearGradient id="linearGradient3036" x1="10" x2="10" y1="40.263" y2="89.666" gradientTransform="matrix(-0.50000023,0,0,0.15047142,6.0000019,0.58302948)" gradientUnits="userSpaceOnUse" xlink:href="#linearGradient3737"/><linearGradient id="linearGradient3909" x1="10" x2="10" y1="40.263" y2="89.666" gradientTransform="matrix(-0.50000023,0,0,0.15047142,19.000002,0.58302948)" gradientUnits="userSpaceOnUse" xlink:href="#linearGradient3737"/></defs><metadata id="metadata7"/><g id="layer1"><rect id="rect3196" width="16" height="16" x="-16" y="0" fill="url(#linearGradient3767)" fill-opacity="1" fill-rule="nonzero" stroke="none" display="inline" rx="2" ry="2" transform="matrix(0,-1,1,0,0,0)"/><path id="path3907" fill="url(#linearGradient3909)" fill-opacity="1" fill-rule="nonzero" stroke="none" d="m 15,6 0,7.895047 c -0.288428,0.0777 -0.627462,0.138899 -1,0.178685 L 14,6 15,6 z" display="inline" opacity=".3"/><path id="path3873" fill="url(#linearGradient3036)" fill-opacity="1" fill-rule="nonzero" stroke="none" d="m 2,6 0,7.895047 c -0.2884285,0.0777 -0.6274625,0.138899 -1,0.178685 L 1,6 2,6 z" display="inline" opacity=".3"/><path id="path3870" fill="url(#linearGradient3872)" fill-opacity="1" fill-rule="nonzero" stroke="none" d="m 14,0 c 1.108,0 2,0.892 2,2 l 0,3 c 0,1.108 -0.892,2 -2,2 L 8,7 8,0 14,0 z" display="inline"/><path id="rect3861" fill="url(#linearGradient3868)" fill-opacity="1" fill-rule="nonzero" stroke="none" d="M 2 0 C 0.892 0 3.0947467e-18 0.892 0 2 L 0 5 C 0 6.108 0.892 7 2 7 L 8 7 L 8 0 L 2 0 z" display="inline"/><rect id="rect3878" width="12.039" height="1.022" x="1.961" y="6.978" fill="url(#linearGradient3886)" fill-opacity="1" fill-rule="nonzero" stroke="none" stroke-width=".5" color="#000" display="inline" enable-background="accumulate" opacity="1" overflow="visible" visibility="visible" style="marker:none"/><path id="path3874" fill="url(#linearGradient3876)" fill-opacity="1" d="M 6.061545,0.0220848 6.043325,11.05172 10.017159,10.027301 9.976799,0 6.061545,0.0220848 z" display="inline"/><path id="rect2410" fill="url(#linearGradient2897)" fill-opacity="1" fill-rule="nonzero" stroke="none" d="M 2,0 C 0.892,0 0,0.892 0,2 l 0,12 c 0,1.108 0.892,2 2,2 l 12,0 c 1.108,0 2,-0.892 2,-2 L 16,2 C 16,0.892 15.108,0 14,0 L 2,0 z m 0.5,1 11,0 C 14.331,1 15,1.669 15,2.5 l 0,11 c 0,0.831 -0.669,1.5 -1.5,1.5 l -11,0 C 1.669,15 1,14.331 1,13.5 L 1,2.5 C 1,1.669 1.669,1 2.5,1 z" display="inline" opacity=".4"/><path id="rect3770" fill="#fff" fill-opacity="1" stroke="none" d="M 2.5,1 C 1.669,1 1,1.669 1,2.5 l 0,1 C 1,2.669 1.669,2 2.5,2 l 11,0 C 14.331,2 15,2.669 15,3.5 l 0,-1 C 15,1.669 14.331,1 13.5,1 l -11,0 z" display="inline" opacity=".2"/></g></svg>