<svg xmlns="http://www.w3.org/2000/svg" xmlns:svg="http://www.w3.org/2000/svg" xmlns:xlink="http://www.w3.org/1999/xlink" id="svg2" width="16" height="16" display="inline" version="1.0"><defs id="defs4"><linearGradient id="linearGradient3327"><stop id="stop3330" offset="0" stop-color="#000" stop-opacity="1"/><stop id="stop3333" offset="1" stop-color="#000" stop-opacity="0"/></linearGradient><linearGradient id="ButtonColor" x1="10.32" x2="10.32" y1="21" y2=".999" gradientUnits="userSpaceOnUse"><stop id="stop3189" offset="0" stop-color="#e6e6e6" stop-opacity="1"/><stop id="stop3191" offset="1" stop-color="#f5f5f5" stop-opacity="1"/></linearGradient><linearGradient id="linearGradient3192" x1="9.057" x2="9.057" y1="10.203" y2="-12.199" gradientTransform="translate(0,5.8006549)" gradientUnits="userSpaceOnUse" xlink:href="#linearGradient3327"/><linearGradient id="linearGradient3204" x1="1" x2="15" y1="9" y2="9" gradientTransform="translate(-16,-1)" gradientUnits="userSpaceOnUse" xlink:href="#ButtonColor"/><linearGradient id="linearGradient3173" x1="1" x2="15" y1="9" y2="9" gradientTransform="translate(-16,-1)" gradientUnits="userSpaceOnUse" xlink:href="#ButtonColor"/><linearGradient id="linearGradient3177" x1="1" x2="15" y1="9" y2="9" gradientTransform="translate(-16,-1)" gradientUnits="userSpaceOnUse" xlink:href="#ButtonColor"/><linearGradient id="linearGradient3179" x1="1" x2="15" y1="9" y2="9" gradientTransform="matrix(0,-1,1,0,-1,16)" gradientUnits="userSpaceOnUse" xlink:href="#ButtonColor"/><linearGradient id="linearGradient3612" x1="8" x2="8" y1="15" y2="-1" gradientUnits="userSpaceOnUse" xlink:href="#linearGradient3327"/><linearGradient id="linearGradient3204-0" x1="1" x2="16.956" y1="9" y2="9" gradientTransform="translate(-17,-2)" gradientUnits="userSpaceOnUse" xlink:href="#ButtonColor-5"/><linearGradient id="ButtonColor-5" x1="10.32" x2="10.32" y1="21" y2=".999" gradientUnits="userSpaceOnUse"><stop id="stop3189-0" offset="0" stop-color="#e6e6e6" stop-opacity="1"/><stop id="stop3191-2" offset="1" stop-color="#f5f5f5" stop-opacity="1"/></linearGradient><linearGradient id="linearGradient2897" x1="9.057" x2="9.057" y1="10.203" y2="-19.304" gradientTransform="translate(-0.499722,5.300655)" gradientUnits="userSpaceOnUse" xlink:href="#linearGradient3327-7"/><linearGradient id="linearGradient3327-7"><stop id="stop3330-6" offset="0" stop-color="#000" stop-opacity="1"/><stop id="stop3333-8" offset="1" stop-color="#000" stop-opacity="0"/></linearGradient><linearGradient id="linearGradient3767" x1="1" x2="16.956" y1="9" y2="9" gradientTransform="translate(-17,-2)" gradientUnits="userSpaceOnUse" xlink:href="#ButtonColor-5"/><linearGradient id="linearGradient2919" x1="50.899" x2="50.899" y1="63.671" y2="32.308" gradientTransform="matrix(0.24859036,0,0,0.24859036,1.4420812,-3.049375)" gradientUnits="userSpaceOnUse" xlink:href="#linearGradient4604"/><linearGradient id="linearGradient4604"><stop id="stop4606" offset="0" stop-color="#ed6a12" stop-opacity="1"/><stop id="stop4608" offset="1" stop-color="#f48d0b" stop-opacity="1"/></linearGradient><linearGradient id="linearGradient2925" x1="50.899" x2="50.899" y1="63.671" y2="32.308" gradientTransform="matrix(0.18117362,0,0,0.18117362,0.11271856,-0.86916814)" gradientUnits="userSpaceOnUse" xlink:href="#linearGradient4604"/><linearGradient id="linearGradient2944"><stop id="stop2946" offset="0" stop-color="#ed6a12" stop-opacity="1"/><stop id="stop2948" offset="1" stop-color="#f48d0b" stop-opacity="1"/></linearGradient><linearGradient id="linearGradient2952" x1="50.899" x2="50.899" y1="63.671" y2="32.308" gradientTransform="matrix(0.18117362,0,0,0.18117362,0.08190546,-0.86916814)" gradientUnits="userSpaceOnUse" xlink:href="#linearGradient4604"/></defs><metadata id="metadata7"/><g id="layer1"><rect id="rect3196" width="16" height="16" x="-16" y="0" fill="url(#linearGradient3767)" fill-opacity="1" fill-rule="nonzero" stroke="none" display="inline" rx="2" ry="2" transform="matrix(0,-1,1,0,0,0)"/><path id="rect2410" fill="url(#linearGradient2897)" fill-opacity="1" fill-rule="nonzero" stroke="none" d="M 2,0 C 0.892,0 0,0.892 0,2 l 0,12 c 0,1.108 0.892,2 2,2 l 12,0 c 1.108,0 2,-0.892 2,-2 L 16,2 C 16,0.892 15.108,0 14,0 L 2,0 z m 0.5,1 11,0 C 14.331,1 15,1.669 15,2.5 l 0,11 c 0,0.831 -0.669,1.5 -1.5,1.5 l -11,0 C 1.669,15 1,14.331 1,13.5 L 1,2.5 C 1,1.669 1.669,1 2.5,1 z" display="inline" opacity=".4"/><path id="rect3770" fill="#fff" fill-opacity="1" stroke="none" d="M 2.5,1 C 1.669,1 1,1.669 1,2.5 l 0,1 C 1,2.669 1.669,2 2.5,2 l 11,0 C 14.331,2 15,2.669 15,3.5 l 0,-1 C 15,1.669 14.331,1 13.5,1 l -11,0 z" display="inline" opacity=".6"/><path id="path2923" fill="url(#linearGradient2952)" fill-opacity="1" stroke="none" d="M 9.2649782,4.9972475 C 8.5675296,4.9972533 8.0292927,5.1494779 7.6573229,5.4594484 7.2853508,5.7694298 7.1013417,6.2164285 7.1013417,6.7924627 c 0,0.4598016 0.1358505,0.8273389 0.4019142,1.0985647 0.2686451,0.2712323 0.6874049,0.4654855 1.2660285,0.589474 L 9.35206,8.6077739 c 0.3513032,0.077497 0.5804059,0.1630873 0.69665,0.2612441 0.118821,0.098161 0.180858,0.2411918 0.180862,0.4220095 -4e-6,0.2014859 -0.08818,0.3537111 -0.2612444,0.4622009 C 9.795254,9.8617208 9.5435605,9.9206938 9.2180884,9.9206929 8.8977776,9.9206938 8.5661405,9.8714804 8.2200024,9.7733242 7.8764443,9.6725835 7.5243176,9.5208398 7.1549307,9.3245204 l 0,1.2593306 c 0.3693869,0.136906 0.7358732,0.238389 1.1052631,0.308133 0.3693862,0.06975 0.7384554,0.107177 1.1052631,0.107177 0.7775201,0 1.3510881,-0.152224 1.7282301,-0.462201 0.379715,-0.312558 0.569373,-0.7887586 0.569378,-1.4267939 -5e-6,-0.4856268 -0.13069,-0.8618762 -0.401914,-1.1253584 C 10.989916,7.7213312 10.531142,7.5244937 9.8879451,7.3953336 L 9.2515813,7.2680611 C 8.9493522,7.2060691 8.738155,7.1322558 8.6219159,7.0470084 8.5082568,6.959186 8.4544499,6.840278 8.4544521,6.6852855 8.4544499,6.4786397 8.5385087,6.3212487 8.7089978,6.2230847 8.8794817,6.1249308 9.1429531,6.0757213 9.4994285,6.0757162 c 0.268643,5.1e-6 0.5551855,0.041549 0.8574165,0.1138756 0.302222,0.072334 0.61337,0.1794635 0.9311,0.3215315 l 0,-1.2258372 C 10.928884,5.1897159 10.578773,5.1174338 10.242969,5.0709318 9.9071582,5.0218585 9.5827009,4.9972533 9.2649782,4.9972475 z" display="inline" font-family="DejaVu Sans" font-size="38.201" font-stretch="normal" font-style="normal" font-variant="normal" font-weight="bold" text-anchor="start" writing-mode="lr-tb" style="text-align:start;line-height:125%;-inkscape-font-specification:DejaVu Sans Bold"/><path id="path4613" fill="url(#linearGradient2925)" fill-opacity="1" stroke="none" d="m 4.8613419,5.0039525 0,5.0641155 c -0.067677,0.759754 -0.404739,1.119919 -1.1856462,1.051674 l -0.2411484,-7e-6 0,1.165551 0.3148325,0 c 0.8183212,-2e-6 1.42621,-0.181438 1.8287079,-0.549283 0.405161,-0.367845 0.6095672,-0.924255 0.6095701,-1.667941 l 0,-5.0641161 -1.3263159,0 z" display="inline" font-family="DejaVu Sans" font-size="38.201" font-stretch="normal" font-style="normal" font-variant="normal" font-weight="bold" text-anchor="start" writing-mode="lr-tb" style="text-align:start;line-height:125%;-inkscape-font-specification:DejaVu Sans Bold"/></g></svg>