<svg xmlns="http://www.w3.org/2000/svg" xmlns:svg="http://www.w3.org/2000/svg" xmlns:xlink="http://www.w3.org/1999/xlink" id="svg2" width="16" height="16" display="inline" version="1.0"><defs id="defs4"><linearGradient id="linearGradient3327"><stop id="stop3330" offset="0" stop-color="#000" stop-opacity="1"/><stop id="stop3333" offset="1" stop-color="#000" stop-opacity="0"/></linearGradient><linearGradient id="ButtonColor" x1="10.32" x2="10.32" y1="21" y2=".999" gradientUnits="userSpaceOnUse"><stop id="stop3189" offset="0" stop-color="#e6e6e6" stop-opacity="1"/><stop id="stop3191" offset="1" stop-color="#f5f5f5" stop-opacity="1"/></linearGradient><linearGradient id="linearGradient3192" x1="9.057" x2="9.057" y1="10.203" y2="-12.199" gradientTransform="translate(0,5.8006549)" gradientUnits="userSpaceOnUse" xlink:href="#linearGradient3327"/><linearGradient id="linearGradient3204" x1="1" x2="15" y1="9" y2="9" gradientTransform="translate(-16,-1)" gradientUnits="userSpaceOnUse" xlink:href="#ButtonColor"/><linearGradient id="linearGradient3173" x1="1" x2="15" y1="9" y2="9" gradientTransform="translate(-16,-1)" gradientUnits="userSpaceOnUse" xlink:href="#ButtonColor"/><linearGradient id="linearGradient3177" x1="1" x2="15" y1="9" y2="9" gradientTransform="translate(-16,-1)" gradientUnits="userSpaceOnUse" xlink:href="#ButtonColor"/><linearGradient id="linearGradient3179" x1="1" x2="15" y1="9" y2="9" gradientTransform="matrix(0,-1,1,0,-1,16)" gradientUnits="userSpaceOnUse" xlink:href="#ButtonColor"/><linearGradient id="linearGradient3612" x1="8" x2="8" y1="15" y2="-1" gradientUnits="userSpaceOnUse" xlink:href="#linearGradient3327"/><linearGradient id="linearGradient3204-0" x1="1" x2="16.956" y1="9" y2="9" gradientTransform="translate(-17,-2)" gradientUnits="userSpaceOnUse" xlink:href="#ButtonColor-5"/><linearGradient id="ButtonColor-5" x1="10.32" x2="10.32" y1="21" y2=".999" gradientUnits="userSpaceOnUse"><stop id="stop3189-0" offset="0" stop-color="#e6e6e6" stop-opacity="1"/><stop id="stop3191-2" offset="1" stop-color="#f5f5f5" stop-opacity="1"/></linearGradient><linearGradient id="linearGradient2897" x1="9.057" x2="9.057" y1="10.203" y2="-19.304" gradientTransform="translate(-0.499722,5.300655)" gradientUnits="userSpaceOnUse" xlink:href="#linearGradient3327-7"/><linearGradient id="linearGradient3327-7"><stop id="stop3330-6" offset="0" stop-color="#000" stop-opacity="1"/><stop id="stop3333-8" offset="1" stop-color="#000" stop-opacity="0"/></linearGradient><linearGradient id="linearGradient3767" x1="1" x2="16.956" y1="9" y2="9" gradientTransform="translate(-17,-2)" gradientUnits="userSpaceOnUse" xlink:href="#ButtonColor-0"/><linearGradient id="linearGradient3261" x1="6.809" x2="6.809" y1="25.634" y2="5.542" gradientTransform="translate(2.749583,-5.6341014)" gradientUnits="userSpaceOnUse" xlink:href="#ButtonColor-0"/><linearGradient id="ButtonColor-0" x1="58.65" x2="58.65" y1="122" y2="5.425" gradientTransform="translate(20.488606,-18.489718)" gradientUnits="userSpaceOnUse"><stop id="stop3189-7" offset="0" stop-color="#000" stop-opacity="1"/><stop id="stop3191-0" offset="1" stop-color="#515151" stop-opacity="1"/></linearGradient><linearGradient id="linearGradient3764" x1="6.809" x2="6.809" y1="25.634" y2="5.542" gradientTransform="translate(-27.250417,-8.6341014)" gradientUnits="userSpaceOnUse" xlink:href="#ButtonColor-0"/><radialGradient id="radialGradient3692" cx="64" cy="64" r="42" fx="64" fy="64" gradientTransform="matrix(0.2163118,7.3809524e-8,-6.1670823e-8,0.1807372,-1.8439498,-1.90052)" gradientUnits="userSpaceOnUse" xlink:href="#linearGradient3720"/><linearGradient id="linearGradient3720"><stop id="stop3722" offset="0" stop-color="#efad51" stop-opacity="1"/><stop id="stop3724" offset="1" stop-color="#d56616" stop-opacity="1"/></linearGradient><radialGradient id="radialGradient3783" cx="64" cy="64" r="42" fx="64" fy="64" gradientTransform="matrix(0.1545084,4.9015625e-8,-4.4050579e-8,0.12002444,-1.8885348,0.08502902)" gradientUnits="userSpaceOnUse" xlink:href="#linearGradient3720"/><radialGradient id="radialGradient3810" cx="64" cy="64" r="42" fx="64" fy="64" gradientTransform="matrix(0.1545084,4.9015625e-8,-4.4050579e-8,0.12002444,-1.8885348,9.085029)" gradientUnits="userSpaceOnUse" xlink:href="#linearGradient3720"/><radialGradient id="radialGradient3817" cx="64" cy="64" r="42" fx="64" fy="64" gradientTransform="matrix(0.1545084,-4.9015625e-8,-4.4050579e-8,-0.12002444,-1.8885348,6.946221)" gradientUnits="userSpaceOnUse" xlink:href="#linearGradient3720"/></defs><metadata id="metadata7"/><g id="layer1"><rect id="rect3196" width="16" height="16" x="-16" y="0" fill="url(#linearGradient3767)" fill-opacity="1" fill-rule="nonzero" stroke="none" display="inline" rx="2" ry="2" transform="matrix(0,-1,1,0,0,0)"/><path id="path3815" fill="url(#radialGradient3817)" fill-opacity="1" fill-rule="evenodd" stroke="none" d="M 3.25,3 C 3.1180957,3 3,2.903884 3,2.78125 l 0,-2.75 10,0 0,2.75 C 13,2.903884 12.881905,3 12.75,3 l -9.5,0 z" display="inline"/><path id="path3808" fill="url(#radialGradient3810)" fill-opacity="1" fill-rule="evenodd" stroke="none" d="M 3.25 13.03125 C 3.1180957 13.03125 3 13.127366 3 13.25 L 3 16 L 13 16 L 13 13.25 C 13 13.127366 12.881905 13.03125 12.75 13.03125 L 3.25 13.03125 z" display="inline"/><path id="rect2410" fill="url(#linearGradient2897)" fill-opacity="1" fill-rule="nonzero" stroke="none" d="M 2,0 C 0.892,0 0,0.892 0,2 l 0,12 c 0,1.108 0.892,2 2,2 l 12,0 c 1.108,0 2,-0.892 2,-2 L 16,2 C 16,0.892 15.108,0 14,0 L 2,0 z m 0.5,1 11,0 C 14.331,1 15,1.669 15,2.5 l 0,11 c 0,0.831 -0.669,1.5 -1.5,1.5 l -11,0 C 1.669,15 1,14.331 1,13.5 L 1,2.5 C 1,1.669 1.669,1 2.5,1 z" display="inline" opacity=".4"/><path id="rect3770" fill="#fff" fill-opacity="1" stroke="none" d="M 2.5,1 C 1.669,1 1,1.669 1,2.5 l 0,1 C 1,2.669 1.669,2 2.5,2 l 11,0 C 14.331,2 15,2.669 15,3.5 l 0,-1 C 15,1.669 14.331,1 13.5,1 l -11,0 z" display="inline" opacity=".2"/><rect id="rect3761" width="1" height="1" x="1" y="1" fill="#fff" fill-opacity="1" fill-rule="nonzero" stroke="none" stroke-width=".5" color="#000" display="inline" enable-background="accumulate" opacity="1" overflow="visible" visibility="visible" style="marker:none"/><rect id="rect3763" width="1" height="1" x="1" y="3" fill="#fff" fill-opacity="1" fill-rule="nonzero" stroke="none" stroke-width=".5" color="#000" display="inline" enable-background="accumulate" overflow="visible" visibility="visible" style="marker:none"/><rect id="rect3765" width="1" height="1" x="1" y="5" fill="#fff" fill-opacity="1" fill-rule="nonzero" stroke="none" stroke-width=".5" color="#000" display="inline" enable-background="accumulate" overflow="visible" visibility="visible" style="marker:none"/><rect id="rect3767" width="1" height="1" x="1" y="7" fill="#fff" fill-opacity="1" fill-rule="nonzero" stroke="none" stroke-width=".5" color="#000" display="inline" enable-background="accumulate" overflow="visible" visibility="visible" style="marker:none"/><rect id="rect3769" width="1" height="1" x="1" y="9" fill="#fff" fill-opacity="1" fill-rule="nonzero" stroke="none" stroke-width=".5" color="#000" display="inline" enable-background="accumulate" overflow="visible" visibility="visible" style="marker:none"/><rect id="rect3771" width="1" height="1" x="1" y="11" fill="#fff" fill-opacity="1" fill-rule="nonzero" stroke="none" stroke-width=".5" color="#000" display="inline" enable-background="accumulate" overflow="visible" visibility="visible" style="marker:none"/><rect id="rect3773" width="1" height="1" x="1" y="13" fill="#fff" fill-opacity="1" fill-rule="nonzero" stroke="none" stroke-width=".5" color="#000" display="inline" enable-background="accumulate" overflow="visible" visibility="visible" style="marker:none"/><rect id="rect3775" width="1" height="1" x="14" y="1" fill="#fff" fill-opacity="1" fill-rule="nonzero" stroke="none" stroke-width=".5" color="#000" display="inline" enable-background="accumulate" overflow="visible" visibility="visible" style="marker:none"/><rect id="rect3777" width="1" height="1" x="14" y="3" fill="#fff" fill-opacity="1" fill-rule="nonzero" stroke="none" stroke-width=".5" color="#000" display="inline" enable-background="accumulate" overflow="visible" visibility="visible" style="marker:none"/><rect id="rect3779" width="1" height="1" x="14" y="5" fill="#fff" fill-opacity="1" fill-rule="nonzero" stroke="none" stroke-width=".5" color="#000" display="inline" enable-background="accumulate" overflow="visible" visibility="visible" style="marker:none"/><rect id="rect3781" width="1" height="1" x="14" y="7" fill="#fff" fill-opacity="1" fill-rule="nonzero" stroke="none" stroke-width=".5" color="#000" display="inline" enable-background="accumulate" overflow="visible" visibility="visible" style="marker:none"/><rect id="rect3783" width="1" height="1" x="14" y="9" fill="#fff" fill-opacity="1" fill-rule="nonzero" stroke="none" stroke-width=".5" color="#000" display="inline" enable-background="accumulate" overflow="visible" visibility="visible" style="marker:none"/><rect id="rect3785" width="1" height="1" x="14" y="11" fill="#fff" fill-opacity="1" fill-rule="nonzero" stroke="none" stroke-width=".5" color="#000" display="inline" enable-background="accumulate" overflow="visible" visibility="visible" style="marker:none"/><rect id="rect3787" width="1" height="1" x="14" y="13" fill="#fff" fill-opacity="1" fill-rule="nonzero" stroke="none" stroke-width=".5" color="#000" display="inline" enable-background="accumulate" overflow="visible" visibility="visible" style="marker:none"/><path id="path3343" fill="url(#radialGradient3783)" fill-opacity="1" fill-rule="evenodd" stroke="none" d="M 3.238095,4.034162 C 3.1061907,4.034162 3,4.1328889 3,4.2555229 l 0,7.5207961 c 0,0.122635 0.1061907,0.221361 0.238095,0.221361 l 9.52381,0 C 12.89381,11.99768 13,11.898954 13,11.776319 L 13,4.2555229 C 13,4.1328889 12.89381,4.034162 12.761905,4.034162 l -9.52381,0 z" display="inline"/></g></svg>