<svg xmlns="http://www.w3.org/2000/svg" xmlns:svg="http://www.w3.org/2000/svg" xmlns:xlink="http://www.w3.org/1999/xlink" id="svg2" width="16" height="16" display="inline" version="1.0"><defs id="defs4"><linearGradient id="linearGradient3327"><stop id="stop3330" offset="0" stop-color="#000" stop-opacity="1"/><stop id="stop3333" offset="1" stop-color="#000" stop-opacity="0"/></linearGradient><linearGradient id="ButtonColor" x1="10.32" x2="10.32" y1="21" y2=".999" gradientUnits="userSpaceOnUse"><stop id="stop3189" offset="0" stop-color="#29669f" stop-opacity="1"/><stop id="stop3191" offset="1" stop-color="#88b6e0" stop-opacity="1"/></linearGradient><linearGradient id="linearGradient3192" x1="9.057" x2="9.057" y1="10.203" y2="-12.199" gradientTransform="translate(0,5.8006549)" gradientUnits="userSpaceOnUse" xlink:href="#linearGradient3327"/><linearGradient id="linearGradient3204" x1="1" x2="15" y1="9" y2="9" gradientTransform="translate(-17,-2)" gradientUnits="userSpaceOnUse" xlink:href="#ButtonColor-1"/><linearGradient id="linearGradient3173" x1="1" x2="15" y1="9" y2="9" gradientTransform="translate(-16,-1)" gradientUnits="userSpaceOnUse" xlink:href="#ButtonColor"/><linearGradient id="linearGradient3177" x1="1" x2="15" y1="9" y2="9" gradientTransform="translate(-16,-1)" gradientUnits="userSpaceOnUse" xlink:href="#ButtonColor"/><linearGradient id="linearGradient3179" x1="1" x2="15" y1="9" y2="9" gradientTransform="matrix(0,-1,1,0,-1,16)" gradientUnits="userSpaceOnUse" xlink:href="#ButtonColor"/><linearGradient id="linearGradient3612" x1="8" x2="8" y1="15" y2="-1" gradientUnits="userSpaceOnUse" xlink:href="#linearGradient3327"/><linearGradient id="linearGradient3181" x1="-3.061" x2="-3.061" y1="27.258" y2="7.254" gradientTransform="translate(11.119372,-6.2581977)" gradientUnits="userSpaceOnUse" xlink:href="#ButtonColor-1"/><linearGradient id="ButtonColor-1" x1="10.32" x2="10.32" y1="21" y2=".999" gradientUnits="userSpaceOnUse"><stop id="stop3189-4" offset="0" stop-color="#dcdcdc" stop-opacity="1"/><stop id="stop3191-9" offset="1" stop-color="#f0f0f0" stop-opacity="1"/></linearGradient><linearGradient id="linearGradient3617" x1="1" x2="15" y1="9" y2="9" gradientTransform="translate(-17,-22)" gradientUnits="userSpaceOnUse" xlink:href="#ButtonColor-1"/><linearGradient id="linearGradient3634" x1="7.553" x2="7.553" y1="15.951" y2="-7.356" gradientUnits="userSpaceOnUse" xlink:href="#linearGradient3327"/><linearGradient id="linearGradient3638" x1="1" x2="15" y1="9" y2="9" gradientTransform="matrix(0,-1,1,0,-42,17)" gradientUnits="userSpaceOnUse" xlink:href="#ButtonColor-1"/><linearGradient id="linearGradient3643" x1="1" x2="15" y1="9" y2="9" gradientTransform="matrix(0,-1,1,0,-22,17)" gradientUnits="userSpaceOnUse" xlink:href="#ButtonColor-1"/><linearGradient id="linearGradient3649" x1="1" x2="15" y1="9" y2="9" gradientTransform="matrix(0,-1,1,0,-22,18)" gradientUnits="userSpaceOnUse" xlink:href="#ButtonColor-1"/><linearGradient id="linearGradient3651" x1="1" x2="15" y1="9" y2="9" gradientTransform="matrix(0,-1,1,0,-22,17)" gradientUnits="userSpaceOnUse" xlink:href="#ButtonColor-1"/><linearGradient id="linearGradient3656" x1="1" x2="15" y1="9" y2="9" gradientTransform="matrix(0,-1,1,0,-2,17)" gradientUnits="userSpaceOnUse" xlink:href="#ButtonColor-1"/><linearGradient id="linearGradient3667" x1="1" x2="15" y1="9" y2="9" gradientTransform="matrix(0,-1,1,0,-2,17)" gradientUnits="userSpaceOnUse" xlink:href="#ButtonColor-1"/></defs><metadata id="metadata7"/><g id="layer1"><rect id="rect3196" width="16" height="16" x="-16" y="0" fill="url(#linearGradient3204)" fill-opacity="1" fill-rule="nonzero" stroke="none" rx="2" ry="2" transform="matrix(0,-1,1,0,0,0)"/><path id="rect3626" fill="#c83737" fill-opacity="1" fill-rule="nonzero" stroke="none" d="m 3,-9 c -1.108,0 -2,0.892 -2,2 l 0,3 14,0 0,-3 c 0,-1.108 -0.892,-2 -2,-2 L 3,-9 z"/><path id="rect3647" fill="#000" fill-opacity="1" stroke="none" d="M 30,7 29,8 29,9 30,8.34375 30,12 l -1,0 0,1 3,0 0,-1 -1,0 0,-4 0,-1 -1,0 z" opacity=".7"/><path id="path3655" fill="#000" fill-opacity="1" stroke="none" d="m 26,6.9717314 c -1.104569,0 -2,1.349474 -2,3.0141343 C 24,11.650526 24.895431,13 26,13 27.104569,13 28,11.650526 28,9.9858657 28,8.3212054 27.104569,6.9717314 26,6.9717314 z m 0,1.1033885 c 0.533048,0 0.96875,0.8553124 0.96875,1.9107458 0,1.0554333 -0.435702,1.9107463 -0.96875,1.9107463 -0.533048,0 -0.96875,-0.855313 -0.96875,-1.9107463 0,-1.0554334 0.435702,-1.9107458 0.96875,-1.9107458 z" opacity=".7"/><rect id="rect3615" width="16" height="16" x="-16" y="-20" fill="url(#linearGradient3617)" fill-opacity="1" fill-rule="nonzero" stroke="none" rx="2" ry="2" transform="matrix(0,-1,1,0,0,0)"/><path id="rect3619" fill="red" fill-opacity="1" fill-rule="nonzero" stroke="none" d="M -18 0 C -19.108 0 -20 0.892 -20 2 L -20 14 C -20 15.108 -19.108 16 -18 16 L -6 16 C -4.892 16 -4 15.108 -4 14 L -4 2 C -4 0.892 -4.892 3.0947467e-18 -6 0 L -18 0 z M -17.96875 1 L -6.03125 1 C -5.4473874 1 -5 1.4473874 -5 2.03125 L -5 13.96875 C -5 14.552612 -5.4473874 15 -6.03125 15 L -17.96875 15 C -18.552612 15 -19 14.552612 -19 13.96875 L -19 2.03125 C -19 1.4473874 -18.552612 1 -17.96875 1 z"/><path id="rect3663" fill="#c83737" fill-opacity="1" fill-rule="nonzero" stroke="none" d="M 2,0 C 0.892,0 0,0.892 0,2 L 0,5 16,5 16,2 C 16,0.892 15.108,0 14,0 L 2,0 z"/><path id="path3626" fill="url(#linearGradient3634)" fill-opacity="1" fill-rule="nonzero" stroke="none" d="M 2,0 C 0.892,0 0,0.892 0,2 l 0,12 c 0,1.108 0.892,2 2,2 l 12,0 c 1.108,0 2,-0.892 2,-2 L 16,2 C 16,0.892 15.108,0 14,0 L 2,0 z m 0.03125,1 11.9375,0 C 14.552613,1 15,1.4473874 15,2.03125 l 0,11.9375 C 15,14.552612 14.552613,15 13.96875,15 L 2.03125,15 C 1.447388,15 1,14.552612 1,13.96875 L 1,2.03125 C 1,1.4473874 1.447388,1 2.03125,1 z" opacity=".5"/><path id="rect3636" fill="url(#linearGradient3643)" fill-opacity="1" fill-rule="nonzero" stroke="none" d="M -17.96875,1 C -18.552612,1 -19,1.4473874 -19,2.03125 l 0,11.9375 C -19,14.552612 -18.552612,15 -17.96875,15 l 11.9375,0 C -5.447387,15 -5,14.552612 -5,13.96875 L -5,2.03125 C -5,1.4473874 -5.447387,1 -6.03125,1 l -11.9375,0 z"/><path id="path3645" fill="#fff" fill-opacity="1" fill-rule="nonzero" stroke="none" d="M 2.03125,1 C 1.447388,1 1,1.4473874 1,2.03125 l 0,1 C 1,2.4473874 1.447388,2 2.03125,2 l 11.9375,0 C 14.552613,2 15,2.4473874 15,3.03125 l 0,-1 C 15,1.4473874 14.552613,1 13.96875,1 L 2.03125,1 z" opacity=".2"/><path id="rect3670" fill="#333" fill-opacity="1" stroke="none" d="M 12,7 9,8.4890091 9,10 l 1,0 0,3 2,0 0,-6 z"/><path id="path3673" fill="#333" fill-opacity="1" stroke="none" d="m 5.5,7 c -1.5191187,0 -2.7506077,1.3431458 -2.7506077,3 0,1.656854 1.231489,3 2.7506077,3 1.5191187,0 2.7506077,-1.343146 2.7506077,-3 0,-1.6568542 -1.231489,-3 -2.7506077,-3 z m 0,1.625 c 0.6915658,0 1.2377735,0.6207313 1.2377735,1.375 0,0.754269 -0.5462077,1.375 -1.2377735,1.375 C 4.8084342,11.375 4.2622265,10.754269 4.2622265,10 4.2622265,9.2457313 4.8084342,8.625 5.5,8.625 z"/><rect id="rect2857" width="14" height="1" x="1" y="4" fill="#952929" fill-opacity="1" stroke="none" opacity=".5"/><rect id="rect2859" width="14" height="1" x="1" y="5" fill="#b3b3b3" fill-opacity="1" stroke="none" opacity=".5"/></g></svg>