<svg xmlns="http://www.w3.org/2000/svg" xmlns:svg="http://www.w3.org/2000/svg" xmlns:xlink="http://www.w3.org/1999/xlink" id="svg2408" width="96" height="96" version="1.0"><defs id="defs2410"><linearGradient id="linearGradient3992"><stop id="stop3994" offset="0" stop-color="#737373" stop-opacity="1"/><stop id="stop3996" offset="1" stop-color="#c4c4c4" stop-opacity="1"/></linearGradient><linearGradient id="linearGradient3978"><stop id="stop3980" offset="0" stop-color="#000" stop-opacity=".395"/><stop id="stop3986" offset=".6" stop-color="#fff" stop-opacity="0"/><stop id="stop3982" offset="1" stop-color="#fff" stop-opacity=".767"/></linearGradient><linearGradient id="linearGradient3891"><stop id="stop3893" offset="0" stop-color="#ac6b0e" stop-opacity="1"/><stop id="stop3895" offset="1" stop-color="#bd750f" stop-opacity="0"/></linearGradient><linearGradient id="linearGradient3844"><stop id="stop3846" offset="0" stop-color="#bd750f" stop-opacity="1"/><stop id="stop3848" offset="1" stop-color="#bd750f" stop-opacity="0"/></linearGradient><linearGradient id="linearGradient3828"><stop id="stop3830" offset="0" stop-color="#eacc72" stop-opacity="1"/><stop id="stop3836" offset="1" stop-color="#d49110" stop-opacity="1"/></linearGradient><linearGradient id="linearGradient3679" x1="69.184" x2="69.184" y1="78.969" y2="49.031" gradientTransform="translate(-76.01398,84.852814)" gradientUnits="userSpaceOnUse" xlink:href="#linearGradient3532"/><linearGradient id="linearGradient3691" x1="61.99" x2="61.99" y1="30.972" y2="99.992" gradientUnits="userSpaceOnUse" xlink:href="#linearGradient3495"/><linearGradient id="linearGradient3684" x1="62.638" x2="61.638" y1="94" y2="65.679" gradientTransform="matrix(0.345016,0,0,0.345016,-34.094997,126.7718)" gradientUnits="userSpaceOnUse" xlink:href="#linearGradient3436"/><linearGradient id="linearGradient3687" x1="60.34" x2="60.34" y1="34" y2="60.063" gradientTransform="matrix(0.345016,0,0,0.345016,-34.094997,126.7718)" gradientUnits="userSpaceOnUse" xlink:href="#linearGradient3423"/><linearGradient id="linearGradient3695" x1="74.863" x2="74.863" y1="30.972" y2="80.731" gradientUnits="userSpaceOnUse" xlink:href="#linearGradient3322"/><radialGradient id="radialGradient3693" cx="71.418" cy="32.695" r="34.449" fx="71.418" fy="32.695" gradientTransform="matrix(-4.9335871e-8,1.5375001,-2.1378289,-6.8599443e-8,141.31345,-77.110153)" gradientUnits="userSpaceOnUse" xlink:href="#linearGradient3330"/><linearGradient id="linearGradient3729" x1="69.184" x2="69.184" y1="78.969" y2="49.031" gradientTransform="translate(-76.01398,84.852814)" gradientUnits="userSpaceOnUse" xlink:href="#linearGradient3532"/><linearGradient id="linearGradient3727" x1="61.99" x2="61.99" y1="30.972" y2="99.992" gradientUnits="userSpaceOnUse" xlink:href="#linearGradient3495"/><linearGradient id="linearGradient3725" x1="62.638" x2="61.638" y1="94" y2="65.679" gradientTransform="matrix(0.345016,0,0,0.345016,-34.094997,126.7718)" gradientUnits="userSpaceOnUse" xlink:href="#linearGradient3436"/><linearGradient id="linearGradient3723" x1="60.34" x2="60.34" y1="34" y2="60.063" gradientTransform="matrix(0.345016,0,0,0.345016,-34.094997,126.7718)" gradientUnits="userSpaceOnUse" xlink:href="#linearGradient3423"/><linearGradient id="linearGradient3721" x1="74.863" x2="74.863" y1="30.972" y2="80.731" gradientUnits="userSpaceOnUse" xlink:href="#linearGradient3322"/><radialGradient id="radialGradient3719" cx="71.418" cy="32.695" r="34.449" fx="71.418" fy="32.695" gradientTransform="matrix(-4.9335871e-8,1.5375001,-2.1378289,-6.8599443e-8,141.31345,-77.110153)" gradientUnits="userSpaceOnUse" xlink:href="#linearGradient3330"/><linearGradient id="linearGradient3638" x1="67.288" x2="68.183" y1="31.233" y2="92.192" gradientUnits="userSpaceOnUse" xlink:href="#linearGradient3436"/><linearGradient id="linearGradient3544"><stop id="stop3546" offset="0" stop-color="#040404" stop-opacity="1"/><stop id="stop3548" offset="1" stop-color="#4b4b4b" stop-opacity="1"/></linearGradient><linearGradient id="linearGradient3636" x1="59.141" x2="59.141" y1="31.833" y2="99.174" gradientUnits="userSpaceOnUse" xlink:href="#linearGradient3544"/><linearGradient id="linearGradient3532"><stop id="stop3534" offset="0" stop-color="#fff" stop-opacity="1"/><stop id="stop3536" offset="1" stop-color="#fff" stop-opacity="0"/></linearGradient><linearGradient id="linearGradient3634" x1="69.184" x2="69.184" y1="78.969" y2="49.031" gradientUnits="userSpaceOnUse" xlink:href="#linearGradient3532"/><linearGradient id="linearGradient3495"><stop id="stop3497" offset="0" stop-color="#555" stop-opacity="1"/><stop id="stop3503" offset=".44" stop-color="#797979" stop-opacity="1"/><stop id="stop3505" offset=".578" stop-color="#999" stop-opacity="1"/><stop id="stop3499" offset="1" stop-color="#d3d3d3" stop-opacity="1"/></linearGradient><linearGradient id="linearGradient3632" x1="61.99" x2="61.99" y1="30.972" y2="99.992" gradientUnits="userSpaceOnUse" xlink:href="#linearGradient3495"/><linearGradient id="linearGradient3436"><stop id="stop3438" offset="0" stop-color="#fff" stop-opacity="1"/><stop id="stop3440" offset="1" stop-color="#fff" stop-opacity="0"/></linearGradient><linearGradient id="linearGradient3630" x1="62.638" x2="61.638" y1="94" y2="65.679" gradientUnits="userSpaceOnUse" xlink:href="#linearGradient3436"/><linearGradient id="linearGradient3423"><stop id="stop3425" offset="0" stop-color="#000" stop-opacity="1"/><stop id="stop3427" offset="1" stop-color="#000" stop-opacity="0"/></linearGradient><linearGradient id="linearGradient3628" x1="60.34" x2="60.34" y1="34" y2="60.063" gradientUnits="userSpaceOnUse" xlink:href="#linearGradient3423"/><linearGradient id="linearGradient3322"><stop id="stop3324" offset="0" stop-color="#6b6b6b" stop-opacity="1"/><stop id="stop3326" offset="1" stop-color="#282828" stop-opacity="1"/></linearGradient><linearGradient id="linearGradient3626" x1="74.863" x2="74.863" y1="30.972" y2="80.731" gradientUnits="userSpaceOnUse" xlink:href="#linearGradient3322"/><linearGradient id="linearGradient3330"><stop id="stop3332" offset="0" stop-color="#f0f0f0" stop-opacity="1"/><stop id="stop3338" offset=".564" stop-color="#b4b4b4" stop-opacity="1"/><stop id="stop3340" offset=".642" stop-color="#a0a0a0" stop-opacity="1"/><stop id="stop3334" offset="1" stop-color="#787878" stop-opacity="1"/></linearGradient><radialGradient id="radialGradient3624" cx="71.418" cy="32.695" r="34.449" fx="71.418" fy="32.695" gradientTransform="matrix(-4.9335871e-8,1.5375001,-2.1378289,-6.8599443e-8,141.31345,-77.110153)" gradientUnits="userSpaceOnUse" xlink:href="#linearGradient3330"/><linearGradient id="linearGradient3187"><stop id="stop3189" offset="0" stop-color="#505050" stop-opacity="1"/><stop id="stop3191" offset="1" stop-color="#8c8c8c" stop-opacity="1"/></linearGradient><linearGradient id="linearGradient5006" x1="69" x2="69" y1="122" y2="5.978" gradientTransform="matrix(1.0172414,0,0,1.0172414,-153.34078,-8.4993964)" gradientUnits="userSpaceOnUse" xlink:href="#linearGradient3187"/><clipPath id="clipPath2520" clipPathUnits="userSpaceOnUse"><path id="path2522" fill="#fff" fill-opacity="1" stroke="none" stroke-dasharray="none" stroke-dashoffset="0" stroke-linecap="butt" stroke-linejoin="round" stroke-miterlimit="4" stroke-opacity="1" stroke-width="6" d="M 34.155172,5 C 29.083207,5.000001 25,9.0832079 25,14.155172 L 25,113.84483 C 25,118.91679 29.083207,123 34.155172,123 L 133.84483,123 C 138.91679,123 143,118.91679 143,113.84483 L 143,14.155172 C 143,9.0832079 138.91679,5 133.84483,5 L 34.155172,5 z" opacity="1"/></clipPath><linearGradient id="ButtonShadow" x1="45.448" x2="45.448" y1="92.54" y2="7.017" gradientTransform="scale(1.0058652,0.994169)" gradientUnits="userSpaceOnUse"><stop id="stop3750" offset="0" stop-color="#000" stop-opacity="1"/><stop id="stop3752" offset="1" stop-color="#000" stop-opacity=".588"/></linearGradient><linearGradient id="linearGradient3737"><stop id="stop3739" offset="0" stop-color="#fff" stop-opacity="1"/><stop id="stop3741" offset="1" stop-color="#fff" stop-opacity="0"/></linearGradient><linearGradient id="linearGradient3700"><stop id="stop3702" offset="0" stop-color="#2276c5" stop-opacity="1"/><stop id="stop3704" offset="1" stop-color="#69a9e6" stop-opacity="1"/></linearGradient><linearGradient id="linearGradient3706" x1="48" x2="48" y1="90" y2="5.988" gradientUnits="userSpaceOnUse" xlink:href="#linearGradient3187"/><linearGradient id="linearGradient3743" x1="36.357" x2="36.357" y1="6" y2="63.893" gradientUnits="userSpaceOnUse" xlink:href="#linearGradient3737"/><filter id="filter3174"><feGaussianBlur id="feGaussianBlur3176" stdDeviation="1.71"/></filter><linearGradient id="linearGradient3188" x1="36.357" x2="36.357" y1="6" y2="63.893" gradientUnits="userSpaceOnUse" xlink:href="#linearGradient3737"/><linearGradient id="linearGradient3523" x1="48" x2="48" y1="90" y2="5.988" gradientTransform="translate(-100,0)" gradientUnits="userSpaceOnUse" xlink:href="#linearGradient3187"/><clipPath id="clipPath4587" clipPathUnits="userSpaceOnUse"><rect id="rect4589" width="112.636" height="112.636" x="27.682" y="7.682" fill="#fff" fill-opacity="1" fill-rule="nonzero" stroke="none" stroke-dasharray="none" stroke-dashoffset="0" stroke-linecap="square" stroke-linejoin="round" stroke-miterlimit="4" stroke-opacity=".697" stroke-width="1" opacity="1" rx="8.045" ry="8.045"/></clipPath><radialGradient id="radialGradient4701" cx="71.418" cy="32.695" r="34.449" fx="71.418" fy="32.695" gradientTransform="matrix(-4.9335871e-8,1.5375001,-2.1378289,-6.8599443e-8,141.31345,-77.110153)" gradientUnits="userSpaceOnUse" xlink:href="#linearGradient3330"/><linearGradient id="linearGradient4703" x1="74.863" x2="74.863" y1="30.972" y2="80.731" gradientUnits="userSpaceOnUse" xlink:href="#linearGradient3322"/><linearGradient id="linearGradient4705" x1="60.34" x2="60.34" y1="34" y2="60.063" gradientTransform="matrix(0.345016,0,0,0.345016,-34.094997,126.7718)" gradientUnits="userSpaceOnUse" xlink:href="#linearGradient3423"/><linearGradient id="linearGradient4707" x1="62.638" x2="61.638" y1="94" y2="65.679" gradientTransform="matrix(0.345016,0,0,0.345016,-34.094997,126.7718)" gradientUnits="userSpaceOnUse" xlink:href="#linearGradient3436"/><linearGradient id="linearGradient4709" x1="61.99" x2="61.99" y1="30.972" y2="99.992" gradientUnits="userSpaceOnUse" xlink:href="#linearGradient3495"/><linearGradient id="linearGradient4711" x1="69.184" x2="69.184" y1="78.969" y2="49.031" gradientTransform="translate(-76.01398,84.852814)" gradientUnits="userSpaceOnUse" xlink:href="#linearGradient3532"/><radialGradient id="radialGradient4713" cx="71.418" cy="32.695" r="34.449" fx="71.418" fy="32.695" gradientTransform="matrix(-4.9335871e-8,1.5375001,-2.1378289,-6.8599443e-8,141.31345,-77.110153)" gradientUnits="userSpaceOnUse" xlink:href="#linearGradient3330"/><linearGradient id="linearGradient4715" x1="74.863" x2="74.863" y1="30.972" y2="80.731" gradientUnits="userSpaceOnUse" xlink:href="#linearGradient3322"/><linearGradient id="linearGradient4717" x1="60.34" x2="60.34" y1="34" y2="60.063" gradientTransform="matrix(0.345016,0,0,0.345016,-34.094997,126.7718)" gradientUnits="userSpaceOnUse" xlink:href="#linearGradient3423"/><linearGradient id="linearGradient4719" x1="62.638" x2="61.638" y1="94" y2="65.679" gradientTransform="matrix(0.345016,0,0,0.345016,-34.094997,126.7718)" gradientUnits="userSpaceOnUse" xlink:href="#linearGradient3436"/><linearGradient id="linearGradient4721" x1="61.99" x2="61.99" y1="30.972" y2="99.992" gradientUnits="userSpaceOnUse" xlink:href="#linearGradient3495"/><linearGradient id="linearGradient4723" x1="69.184" x2="69.184" y1="78.969" y2="49.031" gradientTransform="translate(-76.01398,84.852814)" gradientUnits="userSpaceOnUse" xlink:href="#linearGradient3532"/><radialGradient id="radialGradient4725" cx="71.418" cy="32.695" r="34.449" fx="71.418" fy="32.695" gradientTransform="matrix(-4.9335871e-8,1.5375001,-2.1378289,-6.8599443e-8,141.31345,-77.110153)" gradientUnits="userSpaceOnUse" xlink:href="#linearGradient3330"/><linearGradient id="linearGradient4727" x1="74.863" x2="74.863" y1="30.972" y2="80.731" gradientUnits="userSpaceOnUse" xlink:href="#linearGradient3322"/><linearGradient id="linearGradient4729" x1="60.34" x2="60.34" y1="34" y2="60.063" gradientUnits="userSpaceOnUse" xlink:href="#linearGradient3423"/><linearGradient id="linearGradient4731" x1="62.638" x2="61.638" y1="94" y2="65.679" gradientUnits="userSpaceOnUse" xlink:href="#linearGradient3436"/><linearGradient id="linearGradient4733" x1="61.99" x2="61.99" y1="30.972" y2="99.992" gradientUnits="userSpaceOnUse" xlink:href="#linearGradient3495"/><linearGradient id="linearGradient4735" x1="69.184" x2="69.184" y1="78.969" y2="49.031" gradientUnits="userSpaceOnUse" xlink:href="#linearGradient3532"/><linearGradient id="linearGradient4737" x1="59.141" x2="59.141" y1="31.833" y2="99.174" gradientUnits="userSpaceOnUse" xlink:href="#linearGradient3544"/><linearGradient id="linearGradient4739" x1="67.288" x2="68.183" y1="31.233" y2="92.192" gradientUnits="userSpaceOnUse" xlink:href="#linearGradient3436"/><linearGradient id="linearGradient4782" x1="67.288" x2="68.183" y1="31.233" y2="92.192" gradientUnits="userSpaceOnUse" xlink:href="#linearGradient3436"/><radialGradient id="radialGradient3619" cx="48" cy="90.172" r="42" fx="48" fy="90.172" gradientTransform="matrix(1.1573129,0,0,0.99590774,-7.5510206,0.19713193)" gradientUnits="userSpaceOnUse" xlink:href="#linearGradient3737-2"/><linearGradient id="linearGradient3737-2"><stop id="stop3739-2" offset="0" stop-color="#fff" stop-opacity="1"/><stop id="stop3741-6" offset="1" stop-color="#fff" stop-opacity="0"/></linearGradient><radialGradient id="radialGradient2874" cx="48" cy="90.172" r="42" fx="48" fy="90.172" gradientTransform="matrix(1.1573129,0,0,0.99590774,-7.551021,0.1971319)" gradientUnits="userSpaceOnUse" xlink:href="#linearGradient3737-2"/><linearGradient id="linearGradient3613" x1="48" x2="48" y1="20.221" y2="138.661" gradientUnits="userSpaceOnUse" xlink:href="#linearGradient3737-7"/><linearGradient id="linearGradient3737-7"><stop id="stop3739-6" offset="0" stop-color="#fff" stop-opacity="1"/><stop id="stop3741-7" offset="1" stop-color="#fff" stop-opacity="0"/></linearGradient><clipPath id="clipPath3613" clipPathUnits="userSpaceOnUse"><rect id="rect3615" width="84" height="84" x="6" y="6" fill="#fff" fill-opacity="1" fill-rule="nonzero" stroke="none" rx="6" ry="6"/></clipPath><filter id="filter3794" width="1.384" height="1.384" x="-.192" y="-.192" color-interpolation-filters="sRGB"><feGaussianBlur id="feGaussianBlur3796" stdDeviation="5.28"/></filter><linearGradient id="linearGradient2908" x1="48" x2="48" y1="20.221" y2="138.661" gradientUnits="userSpaceOnUse" xlink:href="#linearGradient3737-7"/><radialGradient id="radialGradient3801" cx="71.418" cy="32.695" r="34.449" fx="71.418" fy="32.695" gradientTransform="matrix(-4.7003791e-8,1.4648233,-2.0367749,-6.5356785e-8,114.59173,-87.793832)" gradientUnits="userSpaceOnUse" xlink:href="#linearGradient3330"/><linearGradient id="linearGradient3803" x1="74.863" x2="74.863" y1="30.972" y2="80.731" gradientTransform="matrix(0.95273054,0,0,0.95273055,-20.041905,-14.328634)" gradientUnits="userSpaceOnUse" xlink:href="#linearGradient3322"/><radialGradient id="radialGradient3838" cx="86.75" cy="80.753" r="34.497" fx="86.75" fy="80.753" gradientUnits="userSpaceOnUse" xlink:href="#linearGradient3828"/><linearGradient id="linearGradient3850" x1="32.348" x2="63.652" y1="48" y2="48" gradientUnits="userSpaceOnUse" xlink:href="#linearGradient3844"/><linearGradient id="linearGradient3858" x1="32.483" x2="63.517" y1="48" y2="48" gradientUnits="userSpaceOnUse" xlink:href="#linearGradient3891"/><linearGradient id="linearGradient3878" x1="59.141" x2="59.141" y1="31.833" y2="99.174" gradientUnits="userSpaceOnUse" xlink:href="#linearGradient3544"/><linearGradient id="linearGradient3966" x1="24" x2="48" y1="48" y2="48" gradientTransform="matrix(0.5,0.8660254,-0.8660254,0.5,65.569219,-17.569219)" gradientUnits="userSpaceOnUse" xlink:href="#linearGradient3737"/><linearGradient id="linearGradient3984" x1="48" x2="52" y1="21" y2="21" gradientUnits="userSpaceOnUse" xlink:href="#linearGradient3978"/><linearGradient id="linearGradient3990" x1="48" x2="52" y1="21" y2="21" gradientUnits="userSpaceOnUse" xlink:href="#linearGradient3992"/><linearGradient id="linearGradient4002" x1="48" x2="52" y1="21" y2="21" gradientUnits="userSpaceOnUse" xlink:href="#linearGradient3978"/><linearGradient id="linearGradient4004" x1="48" x2="52" y1="21" y2="21" gradientUnits="userSpaceOnUse" xlink:href="#linearGradient3992"/><linearGradient id="linearGradient4010" x1="48" x2="52" y1="21" y2="21" gradientUnits="userSpaceOnUse" xlink:href="#linearGradient3978"/><linearGradient id="linearGradient4012" x1="48" x2="52" y1="21" y2="21" gradientUnits="userSpaceOnUse" xlink:href="#linearGradient3992"/><linearGradient id="linearGradient4018" x1="48" x2="52" y1="21" y2="21" gradientUnits="userSpaceOnUse" xlink:href="#linearGradient3978"/><linearGradient id="linearGradient4020" x1="48" x2="52" y1="21" y2="21" gradientUnits="userSpaceOnUse" xlink:href="#linearGradient3992"/><linearGradient id="linearGradient4026" x1="48" x2="52" y1="21" y2="21" gradientUnits="userSpaceOnUse" xlink:href="#linearGradient3978"/><linearGradient id="linearGradient4028" x1="48" x2="52" y1="21" y2="21" gradientUnits="userSpaceOnUse" xlink:href="#linearGradient3992"/><linearGradient id="linearGradient4034" x1="48" x2="52" y1="21" y2="21" gradientUnits="userSpaceOnUse" xlink:href="#linearGradient3978"/><linearGradient id="linearGradient4036" x1="48" x2="52" y1="21" y2="21" gradientUnits="userSpaceOnUse" xlink:href="#linearGradient3992"/><linearGradient id="linearGradient3556" x1="16" x2="20.179" y1="85.063" y2="85.063" gradientUnits="userSpaceOnUse" xlink:href="#linearGradient3376"/><linearGradient id="linearGradient3376"><stop id="stop3378" offset="0" stop-color="#1c1c1c" stop-opacity="1"/><stop id="stop3380" offset="1" stop-color="#949494" stop-opacity="1"/></linearGradient><radialGradient id="radialGradient3558" cx="18.089" cy="85.063" r="2.089" fx="18.089" fy="85.063" gradientTransform="matrix(1,0,0,1.0042736,0,-0.3635233)" gradientUnits="userSpaceOnUse" xlink:href="#linearGradient3366"/><linearGradient id="linearGradient3366"><stop id="stop3368" offset="0" stop-color="#c1ff97" stop-opacity="1"/><stop id="stop3370" offset="1" stop-color="#30c700" stop-opacity="1"/></linearGradient><radialGradient id="radialGradient2984" cx="18.089" cy="85.063" r="2.089" fx="18.089" fy="85.063" gradientTransform="matrix(1,0,0,1.0042736,0,-0.3635233)" gradientUnits="userSpaceOnUse" xlink:href="#linearGradient3366"/><linearGradient id="linearGradient4083" x1="16" x2="20.179" y1="85.063" y2="85.063" gradientUnits="userSpaceOnUse" xlink:href="#linearGradient3376"/><radialGradient id="radialGradient4085" cx="18.089" cy="85.063" r="2.089" fx="18.089" fy="85.063" gradientTransform="matrix(1,0,0,1.0042736,0,-0.3635233)" gradientUnits="userSpaceOnUse" xlink:href="#linearGradient3366"/><linearGradient id="linearGradient4089" x1="15.707" x2="20.472" y1="85.063" y2="85.063" gradientUnits="userSpaceOnUse" xlink:href="#linearGradient3495"/><linearGradient id="linearGradient4091" x1="16" x2="20.179" y1="85.063" y2="85.063" gradientUnits="userSpaceOnUse" xlink:href="#linearGradient3376"/><linearGradient id="linearGradient4115" x1="16" x2="20.179" y1="85.063" y2="85.063" gradientUnits="userSpaceOnUse" xlink:href="#linearGradient3737"/><linearGradient id="linearGradient4123" x1="16" x2="20.179" y1="85.063" y2="85.063" gradientUnits="userSpaceOnUse" xlink:href="#linearGradient3376"/><radialGradient id="radialGradient4125" cx="18.089" cy="85.063" r="2.089" fx="18.089" fy="85.063" gradientTransform="matrix(1,0,0,1.0042736,0,-0.3635233)" gradientUnits="userSpaceOnUse" xlink:href="#linearGradient3366"/><linearGradient id="linearGradient4134" x1="16" x2="20.179" y1="85.063" y2="85.063" gradientUnits="userSpaceOnUse" xlink:href="#linearGradient3376"/><radialGradient id="radialGradient4136" cx="18.089" cy="85.063" r="2.089" fx="18.089" fy="85.063" gradientTransform="matrix(1,0,0,1.0042736,0,-0.3635233)" gradientUnits="userSpaceOnUse" xlink:href="#linearGradient3366"/><linearGradient id="linearGradient3026" x1="32.251" x2="32.251" y1="6.132" y2="90.239" gradientTransform="matrix(1.0238095,0,0,1.0119048,-1.1428571,-98.071429)" gradientUnits="userSpaceOnUse" xlink:href="#ButtonShadow-0"/><linearGradient id="ButtonShadow-0" x1="45.448" x2="45.448" y1="92.54" y2="7.017" gradientTransform="matrix(1.0058652,0,0,0.994169,100,0)" gradientUnits="userSpaceOnUse"><stop id="stop3750-8" offset="0" stop-color="#000" stop-opacity="1"/><stop id="stop3752-5" offset="1" stop-color="#000" stop-opacity=".588"/></linearGradient><linearGradient id="linearGradient3780" x1="32.251" x2="32.251" y1="6.132" y2="90.239" gradientTransform="matrix(1.0238095,0,0,1.0119048,-1.1428571,-98.071429)" gradientUnits="userSpaceOnUse" xlink:href="#ButtonShadow-0"/><linearGradient id="linearGradient2886" x1="45.448" x2="45.448" y1="92.54" y2="7.017" gradientTransform="matrix(1.0058652,0,0,0.994169,100,0)" gradientUnits="userSpaceOnUse"><stop id="stop2888" offset="0" stop-color="#000" stop-opacity="1"/><stop id="stop2890" offset="1" stop-color="#000" stop-opacity=".588"/></linearGradient><linearGradient id="linearGradient3772" x1="32.251" x2="32.251" y1="6.132" y2="90.239" gradientTransform="matrix(1.0238095,0,0,1.0119048,-1.1428571,-98.071429)" gradientUnits="userSpaceOnUse" xlink:href="#ButtonShadow-0"/><linearGradient id="linearGradient2893" x1="45.448" x2="45.448" y1="92.54" y2="7.017" gradientTransform="matrix(1.0058652,0,0,0.994169,100,0)" gradientUnits="userSpaceOnUse"><stop id="stop2895" offset="0" stop-color="#000" stop-opacity="1"/><stop id="stop2897" offset="1" stop-color="#000" stop-opacity=".588"/></linearGradient><linearGradient id="linearGradient3725-7" x1="32.251" x2="32.251" y1="6.132" y2="90.239" gradientTransform="matrix(1.0238095,0,0,1.0119048,-1.1428571,-98.071429)" gradientUnits="userSpaceOnUse" xlink:href="#ButtonShadow-0"/><linearGradient id="linearGradient2900" x1="45.448" x2="45.448" y1="92.54" y2="7.017" gradientTransform="matrix(1.0058652,0,0,0.994169,100,0)" gradientUnits="userSpaceOnUse"><stop id="stop2902" offset="0" stop-color="#000" stop-opacity="1"/><stop id="stop2904" offset="1" stop-color="#000" stop-opacity=".588"/></linearGradient><linearGradient id="linearGradient3721-5" x1="32.251" x2="32.251" y1="6.132" y2="90.239" gradientTransform="translate(0,-97)" gradientUnits="userSpaceOnUse" xlink:href="#ButtonShadow-0"/><linearGradient id="linearGradient2907" x1="45.448" x2="45.448" y1="92.54" y2="7.017" gradientTransform="matrix(1.0058652,0,0,0.994169,100,0)" gradientUnits="userSpaceOnUse"><stop id="stop2909" offset="0" stop-color="#000" stop-opacity="1"/><stop id="stop2911" offset="1" stop-color="#000" stop-opacity=".588"/></linearGradient><linearGradient id="linearGradient2918" x1="32.251" x2="32.251" y1="6.132" y2="90.239" gradientTransform="matrix(1.0238095,0,0,1.0119048,-1.1428571,-98.071429)" gradientUnits="userSpaceOnUse" xlink:href="#ButtonShadow-0"/></defs><metadata id="metadata2413"/><g id="layer2" display="none"><rect id="rect3745" width="86" height="85" x="5" y="7" fill="url(#ButtonShadow)" fill-opacity="1" fill-rule="nonzero" stroke="none" filter="url(#filter3174)" opacity=".9" rx="6" ry="6"/></g><g id="layer5" display="inline"><path id="path3786" fill="url(#linearGradient2918)" fill-opacity="1" fill-rule="nonzero" stroke="none" d="m 12,-95.03125 c -5.5110903,0 -10.03125,4.52016 -10.03125,10.03125 l 0,71 c 0,5.5110902 4.5201598,10.03125 10.03125,10.03125 l 72,0 c 5.51109,0 10.03125,-4.5201597 10.03125,-10.03125 l 0,-71 c 0,-5.51109 -4.52016,-10.03125 -10.03125,-10.03125 l -72,0 z" display="inline" opacity=".08" transform="scale(1,-1)"/><path id="path3778" fill="url(#linearGradient3780)" fill-opacity="1" fill-rule="nonzero" stroke="none" d="m 12,-94.03125 c -4.971633,0 -9.03125,4.059617 -9.03125,9.03125 l 0,71 c 0,4.9716329 4.0596171,9.03125 9.03125,9.03125 l 72,0 c 4.971633,0 9.03125,-4.059617 9.03125,-9.03125 l 0,-71 c 0,-4.971633 -4.059617,-9.03125 -9.03125,-9.03125 l -72,0 z" display="inline" opacity=".1" transform="scale(1,-1)"/><path id="path3770" fill="url(#linearGradient3772)" fill-opacity="1" fill-rule="nonzero" stroke="none" d="m 12,-93 c -4.4091333,0 -8,3.590867 -8,8 l 0,71 c 0,4.4091333 3.5908667,8 8,8 l 72,0 c 4.409133,0 8,-3.5908667 8,-8 l 0,-71 c 0,-4.409133 -3.590867,-8 -8,-8 l -72,0 z" display="inline" opacity=".2" transform="scale(1,-1)"/><rect id="rect3723" width="86" height="85" x="5" y="-92" fill="url(#linearGradient3725-7)" fill-opacity="1" fill-rule="nonzero" stroke="none" display="inline" opacity=".3" rx="7" ry="7" transform="scale(1,-1)"/><rect id="rect3716" width="84" height="84" x="6" y="-91" fill="url(#linearGradient3721-5)" fill-opacity="1" fill-rule="nonzero" stroke="none" display="inline" opacity=".45" rx="6" ry="6" transform="scale(1,-1)"/></g><g id="layer1"><rect id="rect2419" width="84" height="84" x="6" y="6" fill="url(#linearGradient3706)" fill-opacity="1" fill-rule="nonzero" stroke="none" rx="6" ry="6"/><path id="rect3728" fill="url(#linearGradient3188)" fill-opacity="1" fill-rule="nonzero" stroke="none" d="M 12,6 C 8.676,6 6,8.676 6,12 l 0,2 0,68 0,2 c 0,0.334721 0.04135,0.6507 0.09375,0.96875 0.0487,0.295596 0.09704,0.596915 0.1875,0.875 0.00988,0.03038 0.020892,0.0636 0.03125,0.09375 0.098865,0.287771 0.2348802,0.547452 0.375,0.8125 0.1445918,0.273507 0.3156161,0.535615 0.5,0.78125 0.1843839,0.245635 0.3737765,0.473472 0.59375,0.6875 0.439947,0.428056 0.94291,0.814526 1.5,1.09375 0.278545,0.139612 0.5734731,0.246947 0.875,0.34375 -0.2562018,-0.100222 -0.4867109,-0.236272 -0.71875,-0.375 -0.00741,-0.0044 -0.023866,0.0045 -0.03125,0 -0.031933,-0.0193 -0.062293,-0.04251 -0.09375,-0.0625 -0.120395,-0.0767 -0.2310226,-0.163513 -0.34375,-0.25 -0.1061728,-0.0808 -0.2132809,-0.161112 -0.3125,-0.25 C 8.4783201,88.557317 8.3087904,88.373362 8.15625,88.1875 8.0486711,88.057245 7.9378561,87.922215 7.84375,87.78125 7.818661,87.74287 7.805304,87.69538 7.78125,87.65625 7.716487,87.553218 7.6510225,87.451733 7.59375,87.34375 7.4927417,87.149044 7.3880752,86.928049 7.3125,86.71875 7.30454,86.69694 7.288911,86.6782 7.28125,86.65625 7.2494249,86.5643 7.2454455,86.469419 7.21875,86.375 7.1884177,86.268382 7.1483606,86.171969 7.125,86.0625 7.0521214,85.720988 7,85.364295 7,85 L 7,83 7,15 7,13 C 7,10.218152 9.2181517,8 12,8 l 2,0 68,0 2,0 c 2.781848,0 5,2.218152 5,5 l 0,2 0,68 0,2 c 0,0.364295 -0.05212,0.720988 -0.125,1.0625 -0.04415,0.206893 -0.08838,0.397658 -0.15625,0.59375 -0.0077,0.02195 -0.0233,0.04069 -0.03125,0.0625 -0.06274,0.173739 -0.138383,0.367449 -0.21875,0.53125 -0.04158,0.0828 -0.07904,0.169954 -0.125,0.25 -0.0546,0.09721 -0.126774,0.18835 -0.1875,0.28125 -0.09411,0.140965 -0.204921,0.275995 -0.3125,0.40625 -0.143174,0.17445 -0.303141,0.346998 -0.46875,0.5 -0.01117,0.0102 -0.01998,0.02115 -0.03125,0.03125 -0.138386,0.125556 -0.285091,0.234436 -0.4375,0.34375 -0.102571,0.07315 -0.204318,0.153364 -0.3125,0.21875 -0.0074,0.0045 -0.02384,-0.0044 -0.03125,0 -0.232039,0.138728 -0.462548,0.274778 -0.71875,0.375 0.301527,-0.0968 0.596455,-0.204138 0.875,-0.34375 0.55709,-0.279224 1.060053,-0.665694 1.5,-1.09375 0.219973,-0.214028 0.409366,-0.441865 0.59375,-0.6875 0.184384,-0.245635 0.355408,-0.507743 0.5,-0.78125 0.14012,-0.265048 0.276135,-0.524729 0.375,-0.8125 0.01041,-0.03078 0.02133,-0.06274 0.03125,-0.09375 0.09046,-0.278085 0.1388,-0.579404 0.1875,-0.875 C 89.95865,84.6507 90,84.334721 90,84 l 0,-2 0,-68 0,-2 C 90,8.676 87.324,6 84,6 L 12,6 z" opacity=".35"/><path id="path3615" fill="url(#radialGradient2874)" fill-opacity="1" fill-rule="nonzero" stroke="none" d="M 12,90 C 8.676,90 6,87.324 6,84 L 6,82 6,14 6,12 c 0,-0.334721 0.04135,-0.6507 0.09375,-0.96875 0.0487,-0.295596 0.09704,-0.596915 0.1875,-0.875 C 6.29113,10.12587 6.302142,10.09265 6.3125,10.0625 6.411365,9.774729 6.5473802,9.515048 6.6875,9.25 6.8320918,8.976493 7.0031161,8.714385 7.1875,8.46875 7.3718839,8.223115 7.5612765,7.995278 7.78125,7.78125 8.221197,7.353194 8.72416,6.966724 9.28125,6.6875 9.559795,6.547888 9.8547231,6.440553 10.15625,6.34375 9.9000482,6.443972 9.6695391,6.580022 9.4375,6.71875 c -0.00741,0.0044 -0.023866,-0.0045 -0.03125,0 -0.031933,0.0193 -0.062293,0.04251 -0.09375,0.0625 -0.120395,0.0767 -0.2310226,0.163513 -0.34375,0.25 -0.1061728,0.0808 -0.2132809,0.161112 -0.3125,0.25 C 8.4783201,7.442683 8.3087904,7.626638 8.15625,7.8125 8.0486711,7.942755 7.9378561,8.077785 7.84375,8.21875 7.818661,8.25713 7.805304,8.30462 7.78125,8.34375 7.716487,8.446782 7.6510225,8.548267 7.59375,8.65625 7.4927417,8.850956 7.3880752,9.071951 7.3125,9.28125 7.30454,9.30306 7.288911,9.3218 7.28125,9.34375 7.2494249,9.4357 7.2454455,9.530581 7.21875,9.625 7.1884177,9.731618 7.1483606,9.828031 7.125,9.9375 7.0521214,10.279012 7,10.635705 7,11 l 0,2 0,68 0,2 c 0,2.781848 2.2181517,5 5,5 l 2,0 68,0 2,0 c 2.781848,0 5,-2.218152 5,-5 l 0,-2 0,-68 0,-2 C 89,10.635705 88.94788,10.279012 88.875,9.9375 88.83085,9.730607 88.78662,9.539842 88.71875,9.34375 88.71105,9.3218 88.69545,9.30306 88.6875,9.28125 88.62476,9.107511 88.549117,8.913801 88.46875,8.75 88.42717,8.6672 88.38971,8.580046 88.34375,8.5 88.28915,8.40279 88.216976,8.31165 88.15625,8.21875 88.06214,8.077785 87.951329,7.942755 87.84375,7.8125 87.700576,7.63805 87.540609,7.465502 87.375,7.3125 87.36383,7.3023 87.35502,7.29135 87.34375,7.28125 87.205364,7.155694 87.058659,7.046814 86.90625,6.9375 86.803679,6.86435 86.701932,6.784136 86.59375,6.71875 c -0.0074,-0.0045 -0.02384,0.0044 -0.03125,0 -0.232039,-0.138728 -0.462548,-0.274778 -0.71875,-0.375 0.301527,0.0968 0.596455,0.204138 0.875,0.34375 0.55709,0.279224 1.060053,0.665694 1.5,1.09375 0.219973,0.214028 0.409366,0.441865 0.59375,0.6875 0.184384,0.245635 0.355408,0.507743 0.5,0.78125 0.14012,0.265048 0.276135,0.524729 0.375,0.8125 0.01041,0.03078 0.02133,0.06274 0.03125,0.09375 0.09046,0.278085 0.1388,0.579404 0.1875,0.875 C 89.95865,11.3493 90,11.665279 90,12 l 0,2 0,68 0,2 c 0,3.324 -2.676,6 -6,6 l -72,0 z" opacity=".2"/></g><g id="layer4"><rect id="rect3171" width="66" height="66" x="15" y="15" fill="url(#linearGradient2908)" fill-opacity="1" fill-rule="nonzero" stroke="#fff" stroke-dasharray="none" stroke-dashoffset="0" stroke-linecap="round" stroke-linejoin="miter" stroke-miterlimit="4" stroke-opacity="1" stroke-width=".5" clip-path="url(#clipPath3613)" filter="url(#filter3794)" opacity=".15" rx="12" ry="12"/></g><g id="layer3"><path id="path3876" fill="#000" stroke="none" stroke-width="1" d="m 47.875,13.1875 c -19.260244,0 -34.9375,15.677256 -34.9375,34.9375 0,19.260244 15.677256,34.9375 34.9375,34.9375 19.260244,0 34.9375,-15.677256 34.9375,-34.9375 0,-19.260244 -15.677256,-34.9375 -34.9375,-34.9375 z" color="#000" display="inline" enable-background="accumulate" opacity=".05" overflow="visible" transform="matrix(1.0039488,0,0,1.0039488,-0.06318053,0.68409741)" visibility="visible" style="marker:none"/><path id="path3872" fill="#000" stroke="none" stroke-width="1" d="m 47.875,14.28125 c -18.674895,0 -33.84375,15.168855 -33.84375,33.84375 0,18.674895 15.168855,33.84375 33.84375,33.84375 18.674895,0 33.84375,-15.168855 33.84375,-33.84375 0,-18.674895 -15.168855,-33.84375 -33.84375,-33.84375 z" color="#000" display="inline" enable-background="accumulate" opacity=".1" overflow="visible" transform="matrix(1.0039488,0,0,1.0039488,-0.06318053,0.68409741)" visibility="visible" style="marker:none"/><path id="path3868" fill="#000" stroke="none" stroke-width="1" d="m 47.875,15.21875 c -18.163532,0 -32.90625,14.742718 -32.90625,32.90625 0,18.163532 14.742718,32.90625 32.90625,32.90625 18.163532,0 32.90625,-14.742718 32.90625,-32.90625 0,-18.163532 -14.742718,-32.90625 -32.90625,-32.90625 z" color="#000" display="inline" enable-background="accumulate" opacity=".15" overflow="visible" transform="matrix(1.0039488,0,0,1.0039488,-0.06318053,0.68409741)" visibility="visible" style="marker:none"/><path id="path3860" fill="#000" stroke="none" stroke-width="1" d="m 79.748274,48.125862 a 31.874136,31.874136 0 1 1 -63.748272,0 31.874136,31.874136 0 1 1 63.748272,0 z" color="#000" display="inline" enable-background="accumulate" opacity=".3" overflow="visible" transform="matrix(1.0039488,0,0,1.0039488,-0.06318053,0.68409741)" visibility="visible" style="marker:none"/><path id="path3320" fill="url(#radialGradient3801)" fill-opacity="1" fill-rule="evenodd" stroke="url(#linearGradient3803)" stroke-dasharray="none" stroke-dashoffset="0" stroke-linecap="butt" stroke-linejoin="round" stroke-miterlimit="4" stroke-opacity="1" stroke-width="1" d="M 48,16 C 30.326939,16 16,30.326939 16,48 16,65.673061 30.326939,80 48,80 65.673061,80 80,65.673061 80,48 80,30.326939 65.673061,16 48,16 z m 0,8 C 61.254834,24 72,34.745166 72,48 72,61.254834 61.254834,72 48,72 34.745166,72 24,61.254834 24,48 24,34.745166 34.745166,24 48,24 z"/><path id="path3412" fill="#323232" fill-opacity="1" fill-rule="evenodd" stroke="none" d="m 105.00536,65.421051 a 33.587574,33.587574 0 1 1 -67.175148,0 33.587574,33.587574 0 1 1 67.175148,0 z" transform="matrix(0.74432289,0,0,0.7443229,-5.1578926,-0.69438666)"/><path id="path3947" fill="url(#linearGradient3966)" fill-opacity="1" fill-rule="evenodd" stroke="none" d="M 68.78461,36 C 62.157193,24.520977 47.479023,20.587973 36,27.21539 24.520977,33.842807 20.587973,48.520977 27.21539,60 33.842807,71.479023 48.520977,75.412027 60,68.78461 71.479023,62.157193 75.412027,47.479023 68.78461,36 z m -3.464102,2 C 70.843356,47.565852 67.565852,59.797661 58,65.320508 48.434148,70.843356 36.202339,67.565852 30.679492,58 25.156644,48.434148 28.434148,36.202339 38,30.679492 47.565852,25.156644 59.797661,28.434148 65.320508,38 z" opacity=".6"/><g id="g3933" transform="translate(80,0)"><path id="path3914" fill="#000" fill-opacity="1" fill-rule="evenodd" stroke="none" d="m -32,23 c -13.807119,0 -25,11.192881 -25,25 0,13.80712 11.192881,25 25,25 13.807119,0 25,-11.19288 25,-25 0,-13.807119 -11.192881,-25 -25,-25 z m 0,3 c 12.178556,0 22,9.821444 22,22 0,12.17856 -9.821444,22 -22,22 -12.178556,0 -22,-9.82144 -22,-22 0,-12.178556 9.821444,-22 22,-22 z m 0,1 c -11.569688,0 -21,9.430312 -21,21 0,11.56969 9.430313,21 21,21 11.569687,0 21,-9.43031 21,-21 0,-11.569688 -9.430312,-21 -21,-21 z m 0,3 c 9.941125,0 18,8.058875 18,18 0,9.94113 -8.058875,18 -18,18 -9.941125,0 -18,-8.05887 -18,-18 0,-9.941125 8.058875,-18 18,-18 z" opacity=".15"/><path id="path3904" fill="#000" fill-opacity="1" fill-rule="evenodd" stroke="none" d="m -32,23 c -13.807119,0 -25,11.192881 -25,25 0,13.807119 11.192881,25 25,25 13.807119,0 25,-11.192881 25,-25 0,-13.807119 -11.192881,-25 -25,-25 z m 0,1.96875 c 12.737909,0 23.03125,10.293341 23.03125,23.03125 0,12.737909 -10.293341,23.03125 -23.03125,23.03125 -12.737909,0 -23.03125,-10.293341 -23.03125,-23.03125 0,-12.737909 10.293341,-23.03125 23.03125,-23.03125 z m 0,3.0625 c -11.010335,0 -19.96875,8.958415 -19.96875,19.96875 0,11.010335 8.958415,19.96875 19.96875,19.96875 11.010335,0 19.96875,-8.958415 19.96875,-19.96875 0,-11.010335 -8.958415,-19.96875 -19.96875,-19.96875 z M -32,30 c 9.941125,0 18,8.058875 18,18 0,9.941125 -8.058875,18 -18,18 -9.941125,0 -18,-8.058875 -18,-18 0,-9.941125 8.058875,-18 18,-18 z" opacity=".3"/><path id="path3918" fill="#000" fill-opacity="1" fill-rule="evenodd" stroke="none" d="m -32,23 c -13.807119,0 -25,11.192881 -25,25 0,13.807119 11.192881,25 25,25 13.807119,0 25,-11.192881 25,-25 0,-13.807119 -11.192881,-25 -25,-25 z m 0,1 c 13.272589,0 24,10.727411 24,24 0,13.272589 -10.727411,24 -24,24 -13.272589,0 -24,-10.727411 -24,-24 0,-13.272589 10.727411,-24 24,-24 z m 0,5 c -10.475655,0 -19,8.524345 -19,19 0,10.475655 8.524345,19 19,19 10.475655,0 19,-8.524345 19,-19 0,-10.475655 -8.524345,-19 -19,-19 z m 0,1 c 9.941125,0 18,8.058875 18,18 0,9.941125 -8.058875,18 -18,18 -9.941125,0 -18,-8.058875 -18,-18 0,-9.941125 8.058875,-18 18,-18 z" opacity=".5"/></g><path id="path3493" fill="url(#radialGradient3838)" fill-opacity="1" fill-rule="evenodd" stroke="#c2c2c2" stroke-dasharray="none" stroke-dashoffset="0" stroke-linecap="butt" stroke-linejoin="round" stroke-miterlimit="4" stroke-opacity="1" stroke-width="3.833" d="m 105.00536,65.421051 a 33.587574,33.587574 0 1 1 -67.175148,0 33.587574,33.587574 0 1 1 67.175148,0 z" transform="matrix(0.52178216,0,0,0.52178216,10.735474,13.864463)"/><path id="path3540" fill="url(#linearGradient3878)" fill-opacity="1" fill-rule="evenodd" stroke="none" d="m 105.00536,65.421051 a 33.587574,33.587574 0 1 1 -67.175148,0 33.587574,33.587574 0 1 1 67.175148,0 z" transform="matrix(0.20841033,0,0,0.20841033,33.115798,34.36558)"/><path id="path3552" fill="url(#linearGradient4782)" fill-opacity="1" fill-rule="evenodd" stroke="none" d="m 105.00536,65.421051 a 33.587574,33.587574 0 1 1 -67.175148,0 33.587574,33.587574 0 1 1 67.175148,0 z" opacity=".8" transform="matrix(0.14771625,0,0,0.09481491,37.450436,39.295048)"/><path id="path3819" fill="#fff" fill-opacity="1" fill-rule="evenodd" stroke="none" d="m 22,48.5 c -0.0031,0.166131 0,0.33312 0,0.5 0,14.359403 11.640597,26 26,26 14.359403,0 26,-11.640597 26,-26 0,-0.16688 0.0031,-0.333869 0,-0.5 C 73.73377,62.628873 62.192524,74 48,74 33.807476,74 22.26623,62.628873 22,48.5 z" opacity=".3"/><path id="path3840" fill="none" stroke="url(#linearGradient3858)" stroke-dasharray="none" stroke-dashoffset="8.6" stroke-linecap="round" stroke-linejoin="miter" stroke-miterlimit="4" stroke-opacity="1" stroke-width="1.034" d="m 63,48 a 15,15 0 1 1 -30,0 15,15 0 1 1 30,0 z" color="#000" display="inline" enable-background="accumulate" overflow="visible" transform="matrix(0.48333334,0.83715789,-0.83715789,0.48333334,64.983579,-15.383579)" visibility="visible" style="marker:none"/><path id="path3842" fill="none" stroke="url(#linearGradient3850)" stroke-dasharray="none" stroke-dashoffset="8.6" stroke-linecap="round" stroke-linejoin="miter" stroke-miterlimit="4" stroke-opacity="1" stroke-width="1.304" d="m 63,48 a 15,15 0 1 1 -30,0 15,15 0 1 1 30,0 z" color="#000" display="inline" enable-background="accumulate" overflow="visible" transform="matrix(0.38333334,0.66395281,-0.66395281,0.38333334,61.469735,-2.2697349)" visibility="visible" style="marker:none"/><path id="path3880" fill="#fff" fill-opacity="1" fill-rule="evenodd" stroke="none" d="m 41.34886,52.417388 c 0.07467,0.150249 0.137891,0.301334 0.222937,0.448637 2.209138,3.82634 7.101864,5.137342 10.928203,2.928204 3.826339,-2.209138 5.137341,-7.101864 2.928203,-10.928204 -0.08505,-0.147303 -0.184277,-0.277598 -0.277063,-0.417387 1.864929,3.752637 0.527897,8.355472 -3.15114,10.479565 -3.679037,2.124093 -8.333725,0.980579 -10.65114,-2.510815 z" opacity=".4"/><path id="path3889" fill="#a40" fill-opacity="1" fill-rule="evenodd" stroke="none" d="M 54.65114,43.582612 C 54.576472,43.432363 54.513249,43.281278 54.428203,43.133975 52.219065,39.307635 47.326339,37.996633 43.5,40.205771 c -3.826339,2.209138 -5.137341,7.101864 -2.928203,10.928204 0.08505,0.147303 0.184277,0.277598 0.277063,0.417387 C 38.983931,47.798725 40.320963,43.19589 44,41.071797 c 3.679037,-2.124093 8.333725,-0.980579 10.65114,2.510815 z" opacity=".4"/><g id="g4127" transform="translate(-30,0)"><g id="g3318" transform="translate(-4,-6)"><path id="path3374" fill="url(#linearGradient4134)" fill-opacity="1" fill-rule="nonzero" stroke="none" d="m 20.178571,85.0625 c 0,1.158812 -0.935406,2.098214 -2.089286,2.098214 -1.153881,0 -2.089286,-0.939402 -2.089286,-2.098214 0,-1.158812 0.935405,-2.098214 2.089286,-2.098214 1.15388,0 2.089286,0.939402 2.089286,2.098214 z" transform="matrix(0,1.6709402,1.6638297,0,-122.03844,53.282815)"/><path id="path3364" fill="url(#radialGradient4136)" fill-opacity="1" fill-rule="nonzero" stroke="#000" stroke-dasharray="none" stroke-dashoffset="0" stroke-linecap="square" stroke-linejoin="miter" stroke-miterlimit="4" stroke-opacity=".532" stroke-width=".84" d="m 20.178571,85.0625 c 0,1.158812 -0.935406,2.098214 -2.089286,2.098214 -1.153881,0 -2.089286,-0.939402 -2.089286,-2.098214 0,-1.158812 0.935405,-2.098214 2.089286,-2.098214 1.15388,0 2.089286,0.939402 2.089286,2.098214 z" transform="matrix(1.1923077,0,0,1.1872339,-2.0769275,-17.480158)"/></g><text font-stretch="normal" style="text-align:start;line-height:125%;-inkscape-font-specification:Liberation Sans" id="text4069" x="12" y="84" fill="#fff" fill-opacity="1" stroke="none" font-family="Liberation Sans" font-size="2.509" font-style="normal" font-variant="normal" font-weight="normal" text-anchor="start" writing-mode="lr-tb" xml:space="preserve"><tspan id="tspan4071" x="12" y="84">Power</tspan></text></g><path id="path4079" fill="url(#linearGradient4091)" fill-opacity="1" fill-rule="nonzero" stroke="none" d="m 20.178571,85.0625 a 2.0892856,2.0982144 0 1 1 -4.178572,0 2.0892856,2.0982144 0 1 1 4.178572,0 z" transform="matrix(0,2.8718382,-2.8596176,0,323.24631,27.050411)"/><path id="path4093" fill="#000" fill-opacity="1" fill-rule="nonzero" stroke="none" d="m 20.178571,85.0625 a 2.0892856,2.0982144 0 1 1 -4.178572,0 2.0892856,2.0982144 0 1 1 4.178572,0 z" opacity=".6" transform="matrix(0,-2.3931628,-2.3829786,0,282.70221,122.29051)"/><path id="path4081" fill="url(#linearGradient4089)" fill-opacity="1" fill-rule="nonzero" stroke="none" d="m 20.178571,85.0625 a 2.0892856,2.0982144 0 1 1 -4.178572,0 2.0892856,2.0982144 0 1 1 4.178572,0 z" transform="matrix(0,-2.1538465,-2.1446807,0,262.43199,117.96145)"/><path id="path4097" fill="url(#linearGradient4115)" fill-opacity="1" fill-rule="nonzero" stroke="none" d="m 20.178571,85.0625 a 2.0892856,2.0982144 0 1 1 -4.178572,0 2.0892856,2.0982144 0 1 1 4.178572,0 z" opacity=".8" transform="matrix(0,1.435853,-1.4297427,0,201.61757,53.026352)"/><g id="g4117" transform="translate(63,-16)"><path id="path4119" fill="url(#linearGradient4123)" fill-opacity="1" fill-rule="nonzero" stroke="none" d="m 20.178571,85.0625 c 0,1.158812 -0.935406,2.098214 -2.089286,2.098214 -1.153881,0 -2.089286,-0.939402 -2.089286,-2.098214 0,-1.158812 0.935405,-2.098214 2.089286,-2.098214 1.15388,0 2.089286,0.939402 2.089286,2.098214 z" transform="matrix(0,1.6709402,1.6638297,0,-122.03844,53.282815)"/><path id="path4121" fill="url(#radialGradient4125)" fill-opacity="1" fill-rule="nonzero" stroke="#000" stroke-dasharray="none" stroke-dashoffset="0" stroke-linecap="square" stroke-linejoin="miter" stroke-miterlimit="4" stroke-opacity=".532" stroke-width=".84" d="m 20.178571,85.0625 c 0,1.158812 -0.935406,2.098214 -2.089286,2.098214 -1.153881,0 -2.089286,-0.939402 -2.089286,-2.098214 0,-1.158812 0.935405,-2.098214 2.089286,-2.098214 1.15388,0 2.089286,0.939402 2.089286,2.098214 z" transform="matrix(1.1923077,0,0,1.1872339,-2.0769275,-17.480158)"/></g></g></svg>