<svg xmlns="http://www.w3.org/2000/svg" xmlns:svg="http://www.w3.org/2000/svg" xmlns:xlink="http://www.w3.org/1999/xlink" id="svg2408" width="96" height="96" display="inline" version="1.0"><defs id="defs2410"><linearGradient id="linearGradient3940"><stop id="stop3942" offset="0" stop-color="#5184cf" stop-opacity="1"/><stop id="stop3944" offset="1" stop-color="#123a76" stop-opacity="1"/></linearGradient><linearGradient id="linearGradient3928"><stop id="stop3930" offset="0" stop-color="#00ce99" stop-opacity="1"/><stop id="stop3932" offset="1" stop-color="#00805f" stop-opacity="0"/></linearGradient><linearGradient id="linearGradient3827"><stop id="stop3829" offset="0" stop-color="#fff" stop-opacity="1"/><stop id="stop3831" offset="1" stop-color="#fff" stop-opacity="0"/></linearGradient><linearGradient id="linearGradient3751"><stop id="stop3754" offset="0" stop-color="#80e5ff" stop-opacity="1"/><stop id="stop3869" offset=".5" stop-color="#80e5ff" stop-opacity=".403"/><stop id="stop3756" offset="1" stop-color="#80e5ff" stop-opacity="0"/></linearGradient><linearGradient id="linearGradient3739"><stop id="stop3742" offset="0" stop-color="#5fbcd3" stop-opacity="1"/><stop id="stop3745" offset="1" stop-color="#5fbcd3" stop-opacity="0"/></linearGradient><linearGradient id="linearGradient3729"><stop id="stop3731" offset="0" stop-color="#5184cf" stop-opacity="1"/><stop id="stop3733" offset="1" stop-color="#194fa0" stop-opacity="1"/></linearGradient><linearGradient id="linearGradient3718"><stop id="stop3720" offset="0" stop-color="#000" stop-opacity="1"/><stop id="stop3722" offset="1" stop-color="#000" stop-opacity="0"/></linearGradient><linearGradient id="ButtonShadow" x1="45.448" x2="45.448" y1="92.54" y2="7.017" gradientTransform="scale(1.0058652,0.994169)" gradientUnits="userSpaceOnUse"><stop id="stop3750" offset="0" stop-color="#000" stop-opacity="1"/><stop id="stop3752" offset="1" stop-color="#000" stop-opacity=".588"/></linearGradient><linearGradient id="linearGradient3737"><stop id="stop3739" offset="0" stop-color="#fff" stop-opacity="1"/><stop id="stop3741" offset="1" stop-color="#fff" stop-opacity="0"/></linearGradient><linearGradient id="linearGradient3700"><stop id="stop3702" offset="0" stop-color="#e6e6e6" stop-opacity="1"/><stop id="stop3704" offset="1" stop-color="#f5f5f5" stop-opacity="1"/></linearGradient><linearGradient id="linearGradient3706" x1="48" x2="48" y1="90" y2="5.988" gradientUnits="userSpaceOnUse" xlink:href="#linearGradient3700"/><filter id="filter3174" color-interpolation-filters="sRGB"><feGaussianBlur id="feGaussianBlur3176" stdDeviation="1.71"/></filter><linearGradient id="ButtonShadow-0" x1="45.448" x2="45.448" y1="92.54" y2="7.017" gradientTransform="matrix(1.0058652,0,0,0.994169,100,0)" gradientUnits="userSpaceOnUse"><stop id="stop3750-8" offset="0" stop-color="#000" stop-opacity="1"/><stop id="stop3752-5" offset="1" stop-color="#000" stop-opacity=".588"/></linearGradient><linearGradient id="linearGradient3780" x1="32.251" x2="32.251" y1="6.132" y2="90.239" gradientTransform="matrix(1.0238095,0,0,1.0119048,-1.1428571,-98.071429)" gradientUnits="userSpaceOnUse" xlink:href="#ButtonShadow-0"/><linearGradient id="linearGradient3772" x1="32.251" x2="32.251" y1="6.132" y2="90.239" gradientTransform="matrix(1.0238095,0,0,1.0119048,-1.1428571,-98.071429)" gradientUnits="userSpaceOnUse" xlink:href="#ButtonShadow-0"/><linearGradient id="linearGradient3725" x1="32.251" x2="32.251" y1="6.132" y2="90.239" gradientTransform="matrix(1.0238095,0,0,1.0119048,-1.1428571,-98.071429)" gradientUnits="userSpaceOnUse" xlink:href="#ButtonShadow-0"/><linearGradient id="linearGradient3721" x1="32.251" x2="32.251" y1="6.132" y2="90.239" gradientTransform="translate(0,-97)" gradientUnits="userSpaceOnUse" xlink:href="#ButtonShadow-0"/><linearGradient id="linearGradient3760" x1="32.251" x2="32.251" y1="6.132" y2="90.239" gradientTransform="matrix(1.0238095,0,0,1.0119048,-1.1428571,-98.071429)" gradientUnits="userSpaceOnUse" xlink:href="#ButtonShadow-0"/><linearGradient id="linearGradient3737-1"><stop id="stop3739-9" offset="0" stop-color="#fff" stop-opacity="1"/><stop id="stop3741-3" offset="1" stop-color="#fff" stop-opacity="0"/></linearGradient><radialGradient id="radialGradient2886" cx="48" cy="90.172" r="42" fx="48" fy="90.172" gradientTransform="matrix(1.1573129,0,0,0.99590774,-7.551021,0.1971319)" gradientUnits="userSpaceOnUse" xlink:href="#linearGradient3737-0"/><linearGradient id="linearGradient3737-0"><stop id="stop3739-6" offset="0" stop-color="#fff" stop-opacity="1"/><stop id="stop3741-0" offset="1" stop-color="#fff" stop-opacity="0"/></linearGradient><linearGradient id="linearGradient3923" x1="36.357" x2="36.357" y1="6" y2="63.893" gradientUnits="userSpaceOnUse" xlink:href="#linearGradient3737-1"/><linearGradient id="linearGradient3982" x1="48" x2="48" y1="56" y2="0" gradientUnits="userSpaceOnUse" xlink:href="#linearGradient3737"/><linearGradient id="linearGradient3724" x1="32" x2="32" y1="72" y2="-16" gradientUnits="userSpaceOnUse" xlink:href="#linearGradient3718"/><radialGradient id="radialGradient3735" cx="80" cy="78.857" r="36" fx="80" fy="78.857" gradientTransform="matrix(-7.7472024e-8,-1.3333334,1.7777778,-1.0329603e-7,-60.190477,178.66668)" gradientUnits="userSpaceOnUse" xlink:href="#linearGradient3729"/><radialGradient id="radialGradient3747" cx="47.977" cy="64.058" r="24.023" fx="47.977" fy="64.058" gradientUnits="userSpaceOnUse" xlink:href="#linearGradient3739"/><radialGradient id="radialGradient3758" cx="60.563" cy="49.721" r="19.437" fx="60.563" fy="49.721" gradientUnits="userSpaceOnUse" xlink:href="#linearGradient3751"/><linearGradient id="linearGradient3768" x1="20.91" x2="40" y1=".757" y2="72" gradientUnits="userSpaceOnUse" xlink:href="#linearGradient3737-1"/><linearGradient id="linearGradient3773" x1="20.91" x2="40" y1=".757" y2="72" gradientUnits="userSpaceOnUse" xlink:href="#linearGradient3737-1"/><linearGradient id="linearGradient3777" x1="23.304" x2="29.565" y1="7.13" y2="94.783" gradientUnits="userSpaceOnUse" xlink:href="#linearGradient3737-1"/><radialGradient id="radialGradient3833" cx="58.5" cy="37.5" r="2.5" fx="58.5" fy="37.5" gradientUnits="userSpaceOnUse" xlink:href="#linearGradient3827"/><radialGradient id="radialGradient3837" cx="58.5" cy="37.5" r="2.5" fx="58.5" fy="37.5" gradientUnits="userSpaceOnUse" xlink:href="#linearGradient3827"/><radialGradient id="radialGradient3841" cx="58.5" cy="37.5" r="2.5" fx="58.5" fy="37.5" gradientUnits="userSpaceOnUse" xlink:href="#linearGradient3827"/><radialGradient id="radialGradient3845" cx="58.5" cy="37.5" r="2.5" fx="58.5" fy="37.5" gradientUnits="userSpaceOnUse" xlink:href="#linearGradient3827"/><radialGradient id="radialGradient3849" cx="58.5" cy="37.5" r="2.5" fx="58.5" fy="37.5" gradientUnits="userSpaceOnUse" xlink:href="#linearGradient3827"/><radialGradient id="radialGradient3853" cx="58.5" cy="37.5" r="2.5" fx="58.5" fy="37.5" gradientUnits="userSpaceOnUse" xlink:href="#linearGradient3827"/><radialGradient id="radialGradient3857" cx="58.5" cy="37.5" r="2.5" fx="58.5" fy="37.5" gradientUnits="userSpaceOnUse" xlink:href="#linearGradient3827"/><radialGradient id="radialGradient3861" cx="58.5" cy="37.5" r="2.5" fx="58.5" fy="37.5" gradientUnits="userSpaceOnUse" xlink:href="#linearGradient3827"/><radialGradient id="radialGradient3867" cx="60.563" cy="49.721" r="19.437" fx="60.563" fy="49.721" gradientUnits="userSpaceOnUse" xlink:href="#linearGradient3751"/><radialGradient id="radialGradient3934" cx="56" cy="24" r="16" fx="56" fy="24" gradientUnits="userSpaceOnUse" xlink:href="#linearGradient3928"/><linearGradient id="linearGradient3938" x1="48" x2="48" y1="48" y2="72" gradientUnits="userSpaceOnUse" spreadMethod="reflect" xlink:href="#linearGradient3940"/><radialGradient id="radialGradient3948" cx="58.5" cy="37.5" r="2.5" fx="58.5" fy="37.5" gradientUnits="userSpaceOnUse" xlink:href="#linearGradient3827"/><clipPath id="clipPath2952" clipPathUnits="userSpaceOnUse"><rect id="rect2954" width="72" height="56" x="12" y="20" fill="red" fill-opacity="1" fill-rule="nonzero" stroke="none" stroke-width="1" color="#000" display="inline" enable-background="accumulate" opacity=".652" overflow="visible" rx="3" ry="3" visibility="visible" style="marker:none"/></clipPath><clipPath id="clipPath2956" clipPathUnits="userSpaceOnUse"><rect id="rect2958" width="72" height="56" x="12" y="20" fill="red" fill-opacity="1" fill-rule="nonzero" stroke="none" stroke-width="1" color="#000" display="inline" enable-background="accumulate" opacity=".652" overflow="visible" rx="3" ry="3" visibility="visible" style="marker:none"/></clipPath><linearGradient id="linearGradient3748" x1="64" x2="64" y1="80" y2="-40.067" gradientTransform="translate(-20,0)" gradientUnits="userSpaceOnUse" xlink:href="#linearGradient3718"/></defs><metadata id="metadata2413"/><g id="layer2" display="none"><rect id="rect3745" width="86" height="85" x="5" y="7" fill="url(#ButtonShadow)" fill-opacity="1" fill-rule="nonzero" stroke="none" filter="url(#filter3174)" opacity=".9" rx="6" ry="6"/></g><g id="layer6" display="inline"><path id="path3786" fill="url(#linearGradient3760)" fill-opacity="1" fill-rule="nonzero" stroke="none" d="m 12,-95.03125 c -5.5110903,0 -10.03125,4.52016 -10.03125,10.03125 l 0,71 c 0,5.5110902 4.5201598,10.03125 10.03125,10.03125 l 72,0 c 5.51109,0 10.03125,-4.5201597 10.03125,-10.03125 l 0,-71 c 0,-5.51109 -4.52016,-10.03125 -10.03125,-10.03125 l -72,0 z" display="inline" opacity=".08" transform="scale(1,-1)"/><path id="path3778" fill="url(#linearGradient3780)" fill-opacity="1" fill-rule="nonzero" stroke="none" d="m 12,-94.03125 c -4.971633,0 -9.03125,4.059617 -9.03125,9.03125 l 0,71 c 0,4.9716329 4.0596171,9.03125 9.03125,9.03125 l 72,0 c 4.971633,0 9.03125,-4.059617 9.03125,-9.03125 l 0,-71 c 0,-4.971633 -4.059617,-9.03125 -9.03125,-9.03125 l -72,0 z" display="inline" opacity=".1" transform="scale(1,-1)"/><path id="path3770" fill="url(#linearGradient3772)" fill-opacity="1" fill-rule="nonzero" stroke="none" d="m 12,-93 c -4.4091333,0 -8,3.590867 -8,8 l 0,71 c 0,4.4091333 3.5908667,8 8,8 l 72,0 c 4.409133,0 8,-3.5908667 8,-8 l 0,-71 c 0,-4.409133 -3.590867,-8 -8,-8 l -72,0 z" display="inline" opacity=".2" transform="scale(1,-1)"/><rect id="rect3723" width="86" height="85" x="5" y="-92" fill="url(#linearGradient3725)" fill-opacity="1" fill-rule="nonzero" stroke="none" display="inline" opacity=".3" rx="7" ry="7" transform="scale(1,-1)"/><rect id="rect3716" width="84" height="84" x="6" y="-91" fill="url(#linearGradient3721)" fill-opacity="1" fill-rule="nonzero" stroke="none" display="inline" opacity=".45" rx="6" ry="6" transform="scale(1,-1)"/></g><g id="layer1" display="inline"><rect id="rect2419" width="84" height="84" x="6" y="6" fill="url(#linearGradient3706)" fill-opacity="1" fill-rule="nonzero" stroke="none" rx="6" ry="6"/><path id="rect3728" fill="url(#linearGradient3923)" fill-opacity="1" fill-rule="nonzero" stroke="none" d="M 12,6 C 8.676,6 6,8.676 6,12 l 0,2 0,68 0,2 c 0,0.334721 0.04135,0.6507 0.09375,0.96875 0.0487,0.295596 0.09704,0.596915 0.1875,0.875 0.0099,0.03038 0.02089,0.0636 0.03125,0.09375 0.09886,0.287771 0.23488,0.547452 0.375,0.8125 0.144592,0.273507 0.315616,0.535615 0.5,0.78125 0.184384,0.245635 0.373776,0.473472 0.59375,0.6875 0.439947,0.428056 0.94291,0.814526 1.5,1.09375 0.278545,0.139612 0.573473,0.246947 0.875,0.34375 -0.256202,-0.100222 -0.486711,-0.236272 -0.71875,-0.375 -0.0074,-0.0044 -0.02387,0.0045 -0.03125,0 -0.03193,-0.0193 -0.06229,-0.04251 -0.09375,-0.0625 -0.120395,-0.0767 -0.231023,-0.163513 -0.34375,-0.25 -0.106173,-0.0808 -0.213281,-0.161112 -0.3125,-0.25 C 8.47832,88.557317 8.30879,88.373362 8.15625,88.1875 8.048671,88.057245 7.937856,87.922215 7.84375,87.78125 7.81866,87.74287 7.8053,87.69538 7.78125,87.65625 7.71649,87.553218 7.651022,87.451733 7.59375,87.34375 7.492742,87.149044 7.388075,86.928049 7.3125,86.71875 7.3045,86.69694 7.28891,86.6782 7.28125,86.65625 7.24942,86.5643 7.24545,86.469419 7.21875,86.375 7.188418,86.268382 7.148361,86.171969 7.125,86.0625 7.052121,85.720988 7,85.364295 7,85 L 7,83 7,15 7,13 C 7,10.218152 9.218152,8 12,8 l 2,0 68,0 2,0 c 2.781848,0 5,2.218152 5,5 l 0,2 0,68 0,2 c 0,0.364295 -0.05212,0.720988 -0.125,1.0625 -0.04415,0.206893 -0.08838,0.397658 -0.15625,0.59375 -0.0077,0.02195 -0.0233,0.04069 -0.03125,0.0625 -0.06274,0.173739 -0.138383,0.367449 -0.21875,0.53125 -0.04158,0.0828 -0.07904,0.169954 -0.125,0.25 -0.0546,0.09721 -0.126774,0.18835 -0.1875,0.28125 -0.09411,0.140965 -0.204921,0.275995 -0.3125,0.40625 -0.143174,0.17445 -0.303141,0.346998 -0.46875,0.5 -0.01117,0.0102 -0.01998,0.02115 -0.03125,0.03125 -0.138386,0.125556 -0.285091,0.234436 -0.4375,0.34375 -0.102571,0.07315 -0.204318,0.153364 -0.3125,0.21875 -0.0074,0.0045 -0.02384,-0.0044 -0.03125,0 -0.232039,0.138728 -0.462548,0.274778 -0.71875,0.375 0.301527,-0.0968 0.596455,-0.204138 0.875,-0.34375 0.55709,-0.279224 1.060053,-0.665694 1.5,-1.09375 0.219973,-0.214028 0.409366,-0.441865 0.59375,-0.6875 0.184384,-0.245635 0.355408,-0.507743 0.5,-0.78125 0.14012,-0.265048 0.276135,-0.524729 0.375,-0.8125 0.01041,-0.03078 0.02133,-0.06274 0.03125,-0.09375 0.09046,-0.278085 0.1388,-0.579404 0.1875,-0.875 C 89.95865,84.6507 90,84.334721 90,84 l 0,-2 0,-68 0,-2 C 90,8.676 87.324,6 84,6 L 12,6 z" display="inline" opacity=".5"/><path id="path3615" fill="url(#radialGradient2886)" fill-opacity="1" fill-rule="nonzero" stroke="none" d="M 12,90 C 8.676,90 6,87.324 6,84 L 6,82 6,14 6,12 c 0,-0.334721 0.04135,-0.6507 0.09375,-0.96875 0.0487,-0.295596 0.09704,-0.596915 0.1875,-0.875 C 6.29113,10.12587 6.302142,10.09265 6.3125,10.0625 6.411365,9.774729 6.5473802,9.515048 6.6875,9.25 6.8320918,8.976493 7.0031161,8.714385 7.1875,8.46875 7.3718839,8.223115 7.5612765,7.995278 7.78125,7.78125 8.221197,7.353194 8.72416,6.966724 9.28125,6.6875 9.559795,6.547888 9.8547231,6.440553 10.15625,6.34375 9.9000482,6.443972 9.6695391,6.580022 9.4375,6.71875 c -0.00741,0.0044 -0.023866,-0.0045 -0.03125,0 -0.031933,0.0193 -0.062293,0.04251 -0.09375,0.0625 -0.120395,0.0767 -0.2310226,0.163513 -0.34375,0.25 -0.1061728,0.0808 -0.2132809,0.161112 -0.3125,0.25 C 8.4783201,7.442683 8.3087904,7.626638 8.15625,7.8125 8.0486711,7.942755 7.9378561,8.077785 7.84375,8.21875 7.818661,8.25713 7.805304,8.30462 7.78125,8.34375 7.716487,8.446782 7.6510225,8.548267 7.59375,8.65625 7.4927417,8.850956 7.3880752,9.071951 7.3125,9.28125 7.30454,9.30306 7.288911,9.3218 7.28125,9.34375 7.2494249,9.4357 7.2454455,9.530581 7.21875,9.625 7.1884177,9.731618 7.1483606,9.828031 7.125,9.9375 7.0521214,10.279012 7,10.635705 7,11 l 0,2 0,68 0,2 c 0,2.781848 2.2181517,5 5,5 l 2,0 68,0 2,0 c 2.781848,0 5,-2.218152 5,-5 l 0,-2 0,-68 0,-2 C 89,10.635705 88.94788,10.279012 88.875,9.9375 88.83085,9.730607 88.78662,9.539842 88.71875,9.34375 88.71105,9.3218 88.69545,9.30306 88.6875,9.28125 88.62476,9.107511 88.549117,8.913801 88.46875,8.75 88.42717,8.6672 88.38971,8.580046 88.34375,8.5 88.28915,8.40279 88.216976,8.31165 88.15625,8.21875 88.06214,8.077785 87.951329,7.942755 87.84375,7.8125 87.700576,7.63805 87.540609,7.465502 87.375,7.3125 87.36383,7.3023 87.35502,7.29135 87.34375,7.28125 87.205364,7.155694 87.058659,7.046814 86.90625,6.9375 86.803679,6.86435 86.701932,6.784136 86.59375,6.71875 c -0.0074,-0.0045 -0.02384,0.0044 -0.03125,0 -0.232039,-0.138728 -0.462548,-0.274778 -0.71875,-0.375 0.301527,0.0968 0.596455,0.204138 0.875,0.34375 0.55709,0.279224 1.060053,0.665694 1.5,1.09375 0.219973,0.214028 0.409366,0.441865 0.59375,0.6875 0.184384,0.245635 0.355408,0.507743 0.5,0.78125 0.14012,0.265048 0.276135,0.524729 0.375,0.8125 0.01041,0.03078 0.02133,0.06274 0.03125,0.09375 0.09046,0.278085 0.1388,0.579404 0.1875,0.875 C 89.95865,11.3493 90,11.665279 90,12 l 0,2 0,68 0,2 c 0,3.324 -2.676,6 -6,6 l -72,0 z" display="inline" opacity=".4"/><rect id="rect3654" width="84" height="84" x="-94" y="6" fill="#f0f" fill-opacity="1" fill-rule="nonzero" stroke="none" rx="6" ry="6"/><rect id="rect3797" width="16" height="16" x="112" y="8" fill="#fff" stroke="#000" stroke-dasharray="none" stroke-dashoffset="8.6" stroke-linecap="round" stroke-linejoin="miter" stroke-miterlimit="4" stroke-opacity="1" stroke-width=".5" color="#000" display="inline" enable-background="accumulate" overflow="visible" visibility="visible" style="marker:none"/><text id="text3799" x="131.393" y="11.969" fill="#000" fill-opacity="1" stroke="none" display="inline" font-family="Liberation Sans" font-size="4" font-stretch="normal" font-style="normal" font-variant="normal" font-weight="normal" text-anchor="start" writing-mode="lr-tb" xml:space="preserve" style="text-align:start;line-height:125%;-inkscape-font-specification:Liberation Sans"><tspan id="tspan3801" x="131.393" y="11.969">Width: 2px</tspan><tspan id="tspan3803" x="131.393" y="16.969">Blur: 12</tspan><tspan id="tspan3807" x="131.393" y="21.969">Opacity: 60</tspan></text></g><g id="layer3"><rect id="rect3727" width="72" height="56" x="-88" y="20" fill="red" fill-opacity="1" fill-rule="nonzero" stroke="none" stroke-width="1" clip-path="url(#clipPath2956)" color="#000" display="inline" enable-background="accumulate" opacity=".652" overflow="visible" visibility="visible" style="marker:none"/><g id="g3871" clip-path="url(#clipPath2952)"><rect id="rect3966" width="72" height="56" x="12" y="20" fill="url(#linearGradient3938)" fill-opacity="1" fill-rule="nonzero" stroke="none" stroke-width="1" color="#000" display="inline" enable-background="accumulate" overflow="visible" visibility="visible" style="marker:none"/><path id="path3918" fill="url(#radialGradient3934)" fill-opacity="1" fill-rule="nonzero" stroke="none" stroke-width="1" d="m 72,24 a 16,16 0 1 1 -32,0 16,16 0 1 1 32,0 z" color="#000" display="inline" enable-background="accumulate" opacity=".5" overflow="visible" transform="matrix(2.75,0,0,2.75,-126,-40)" visibility="visible" style="marker:none"/><path id="path3865" fill="url(#radialGradient3867)" fill-opacity="1" fill-rule="nonzero" stroke="none" stroke-width="1" d="m 80,49.720657 a 19.437111,19.437111 0 1 1 -38.874222,0 19.437111,19.437111 0 1 1 38.874222,0 z" color="#000" display="inline" enable-background="accumulate" opacity=".697" overflow="visible" transform="matrix(0.92606356,0,0,0.92606356,20.477805,-0.04448889)" visibility="visible" style="marker:none"/><path id="path3737" fill="url(#radialGradient3747)" fill-opacity="1" fill-rule="nonzero" stroke="none" stroke-width="1" d="m 71.999998,64.057671 a 24.022646,24.022646 0 1 1 -48.045292,0 24.022646,24.022646 0 1 1 48.045292,0 z" color="#000" display="inline" enable-background="accumulate" overflow="visible" transform="translate(-23.999998,-16.057671)" visibility="visible" style="marker:none"/><path id="path3749" fill="url(#radialGradient3758)" fill-opacity="1" fill-rule="nonzero" stroke="none" stroke-width="1" d="m 80,49.720657 a 19.437111,19.437111 0 1 1 -38.874222,0 19.437111,19.437111 0 1 1 38.874222,0 z" color="#000" display="inline" enable-background="accumulate" opacity=".434" overflow="visible" transform="translate(-12.562889,-5.1577682)" visibility="visible" style="marker:none"/><path id="path3779" fill="#fff" fill-opacity="1" fill-rule="nonzero" stroke="none" stroke-width="1" d="m 61,37.5 a 2.5,2.5 0 1 1 -5,0 2.5,2.5 0 1 1 5,0 z" color="#000" display="inline" enable-background="accumulate" opacity=".4" overflow="visible" visibility="visible" style="marker:none"/><path id="path3781" fill="#fff" fill-opacity="1" fill-rule="nonzero" stroke="none" stroke-width="1" d="m 61,37.5 a 2.5,2.5 0 1 1 -5,0 2.5,2.5 0 1 1 5,0 z" color="#000" display="inline" enable-background="accumulate" opacity=".504" overflow="visible" transform="translate(-33.5,10)" visibility="visible" style="marker:none"/><path id="path3783" fill="#fff" fill-opacity="1" fill-rule="nonzero" stroke="none" stroke-width="1" d="m 61,37.5 a 2.5,2.5 0 1 1 -5,0 2.5,2.5 0 1 1 5,0 z" color="#000" display="inline" enable-background="accumulate" opacity=".3" overflow="visible" transform="translate(4,13.5)" visibility="visible" style="marker:none"/><path id="path3785" fill="#fff" fill-opacity="1" fill-rule="nonzero" stroke="none" stroke-width="1" d="m 61,37.5 a 2.5,2.5 0 1 1 -5,0 2.5,2.5 0 1 1 5,0 z" color="#000" display="inline" enable-background="accumulate" opacity=".504" overflow="visible" transform="translate(17,8.5)" visibility="visible" style="marker:none"/><path id="path3787" fill="#fff" fill-opacity="1" fill-rule="nonzero" stroke="none" stroke-width="1" d="m 61,37.5 a 2.5,2.5 0 1 1 -5,0 2.5,2.5 0 1 1 5,0 z" color="#000" display="inline" enable-background="accumulate" opacity=".504" overflow="visible" transform="translate(-17,7.5)" visibility="visible" style="marker:none"/><path id="path3789" fill="#fff" fill-opacity="1" fill-rule="nonzero" stroke="none" stroke-width="1" d="m 61,37.5 a 2.5,2.5 0 1 1 -5,0 2.5,2.5 0 1 1 5,0 z" color="#000" display="inline" enable-background="accumulate" opacity=".504" overflow="visible" transform="translate(-42,3.5)" visibility="visible" style="marker:none"/><path id="path3791" fill="#fff" fill-opacity="1" fill-rule="nonzero" stroke="none" stroke-width="1" d="m 61,37.5 a 2.5,2.5 0 1 1 -5,0 2.5,2.5 0 1 1 5,0 z" color="#000" display="inline" enable-background="accumulate" opacity=".3" overflow="visible" transform="translate(-42,3.5)" visibility="visible" style="marker:none"/><path id="path3793" fill="#fff" fill-opacity="1" fill-rule="nonzero" stroke="none" stroke-width="1" d="m 61,37.5 a 2.5,2.5 0 1 1 -5,0 2.5,2.5 0 1 1 5,0 z" color="#000" display="inline" enable-background="accumulate" opacity=".504" overflow="visible" transform="matrix(0.4,0,0,0.4,-6.4,35)" visibility="visible" style="marker:none"/><path id="path3795" fill="#fff" fill-opacity="1" fill-rule="nonzero" stroke="none" stroke-width="1" d="m 61,37.5 a 2.5,2.5 0 1 1 -5,0 2.5,2.5 0 1 1 5,0 z" color="#000" display="inline" enable-background="accumulate" opacity=".504" overflow="visible" transform="matrix(0.4,0,0,0.4,7.6,38)" visibility="visible" style="marker:none"/><path id="path3797" fill="#fff" fill-opacity="1" fill-rule="nonzero" stroke="none" stroke-width="1" d="m 61,37.5 a 2.5,2.5 0 1 1 -5,0 2.5,2.5 0 1 1 5,0 z" color="#000" display="inline" enable-background="accumulate" opacity=".504" overflow="visible" transform="matrix(0.4,0,0,0.4,9.6,34)" visibility="visible" style="marker:none"/><path id="path3799" fill="#fff" fill-opacity="1" fill-rule="nonzero" stroke="none" stroke-width="1" d="m 61,37.5 a 2.5,2.5 0 1 1 -5,0 2.5,2.5 0 1 1 5,0 z" color="#000" display="inline" enable-background="accumulate" opacity=".3" overflow="visible" transform="matrix(0.4,0,0,0.4,16.6,36)" visibility="visible" style="marker:none"/><path id="path3801" fill="#fff" fill-opacity="1" fill-rule="nonzero" stroke="none" stroke-width="1" d="m 61,37.5 a 2.5,2.5 0 1 1 -5,0 2.5,2.5 0 1 1 5,0 z" color="#000" display="inline" enable-background="accumulate" opacity=".504" overflow="visible" transform="matrix(0.4,0,0,0.4,28.6,28)" visibility="visible" style="marker:none"/><path id="path3803" fill="#fff" fill-opacity="1" fill-rule="nonzero" stroke="none" stroke-width="1" d="m 61,37.5 a 2.5,2.5 0 1 1 -5,0 2.5,2.5 0 1 1 5,0 z" color="#000" display="inline" enable-background="accumulate" opacity=".504" overflow="visible" transform="matrix(0.4,0,0,0.4,45.6,33)" visibility="visible" style="marker:none"/><path id="path3805" fill="#fff" fill-opacity="1" fill-rule="nonzero" stroke="none" stroke-width="1" d="m 61,37.5 a 2.5,2.5 0 1 1 -5,0 2.5,2.5 0 1 1 5,0 z" color="#000" display="inline" enable-background="accumulate" opacity=".504" overflow="visible" transform="matrix(0.4,0,0,0.4,47.6,29)" visibility="visible" style="marker:none"/><path id="path3807" fill="#fff" fill-opacity="1" fill-rule="nonzero" stroke="none" stroke-width="1" d="m 61,37.5 a 2.5,2.5 0 1 1 -5,0 2.5,2.5 0 1 1 5,0 z" color="#000" display="inline" enable-background="accumulate" opacity=".504" overflow="visible" transform="matrix(0.4,0,0,0.4,55.6,23)" visibility="visible" style="marker:none"/><path id="path3809" fill="#fff" fill-opacity="1" fill-rule="nonzero" stroke="none" stroke-width="1" d="m 61,37.5 a 2.5,2.5 0 1 1 -5,0 2.5,2.5 0 1 1 5,0 z" color="#000" display="inline" enable-background="accumulate" opacity=".504" overflow="visible" transform="matrix(0.4,0,0,0.4,38.6,30)" visibility="visible" style="marker:none"/><path id="path3811" fill="#fff" fill-opacity="1" fill-rule="nonzero" stroke="none" stroke-width="1" d="m 61,37.5 a 2.5,2.5 0 1 1 -5,0 2.5,2.5 0 1 1 5,0 z" color="#000" display="inline" enable-background="accumulate" opacity=".504" overflow="visible" transform="matrix(0.4,0,0,0.4,38.6,30)" visibility="visible" style="marker:none"/><path id="path3813" fill="#fff" fill-opacity="1" fill-rule="nonzero" stroke="none" stroke-width="1" d="m 61,37.5 a 2.5,2.5 0 1 1 -5,0 2.5,2.5 0 1 1 5,0 z" color="#000" display="inline" enable-background="accumulate" opacity=".504" overflow="visible" transform="matrix(0.6,0,0,0.6,-1.1,21)" visibility="visible" style="marker:none"/><path id="path3815" fill="#fff" fill-opacity="1" fill-rule="nonzero" stroke="none" stroke-width="1" d="m 61,37.5 a 2.5,2.5 0 1 1 -5,0 2.5,2.5 0 1 1 5,0 z" color="#000" display="inline" enable-background="accumulate" opacity=".504" overflow="visible" transform="matrix(0.6,0,0,0.6,-6.6,18.5)" visibility="visible" style="marker:none"/><path id="path3817" fill="#fff" fill-opacity="1" fill-rule="nonzero" stroke="none" stroke-width="1" d="m 61,37.5 a 2.5,2.5 0 1 1 -5,0 2.5,2.5 0 1 1 5,0 z" color="#000" display="inline" enable-background="accumulate" opacity=".504" overflow="visible" transform="matrix(0.6,0,0,0.6,15.9,31)" visibility="visible" style="marker:none"/><path id="path3819" fill="#fff" fill-opacity="1" fill-rule="nonzero" stroke="none" stroke-width="1" d="m 61,37.5 a 2.5,2.5 0 1 1 -5,0 2.5,2.5 0 1 1 5,0 z" color="#000" display="inline" enable-background="accumulate" opacity=".504" overflow="visible" transform="matrix(0.6,0,0,0.6,19.4,26.5)" visibility="visible" style="marker:none"/><path id="path3821" fill="#fff" fill-opacity="1" fill-rule="nonzero" stroke="none" stroke-width="1" d="m 61,37.5 a 2.5,2.5 0 1 1 -5,0 2.5,2.5 0 1 1 5,0 z" color="#000" display="inline" enable-background="accumulate" opacity=".504" overflow="visible" transform="matrix(0.6,0,0,0.6,19.4,26.5)" visibility="visible" style="marker:none"/><path id="path3823" fill="#fff" fill-opacity="1" fill-rule="nonzero" stroke="none" stroke-width="1" d="m 61,37.5 a 2.5,2.5 0 1 1 -5,0 2.5,2.5 0 1 1 5,0 z" color="#000" display="inline" enable-background="accumulate" opacity=".504" overflow="visible" transform="matrix(0.6,0,0,0.6,37.9,29)" visibility="visible" style="marker:none"/><path id="path3825" fill="url(#radialGradient3833)" fill-opacity="1" fill-rule="nonzero" stroke="none" stroke-width="1" d="m 61,37.5 a 2.5,2.5 0 1 1 -5,0 2.5,2.5 0 1 1 5,0 z" color="#000" display="inline" enable-background="accumulate" opacity=".3" overflow="visible" transform="matrix(1.6,0,0,1.6,-43.6,-16)" visibility="visible" style="marker:none"/><path id="path3835" fill="url(#radialGradient3837)" fill-opacity="1" fill-rule="nonzero" stroke="none" stroke-width="1" d="m 61,37.5 a 2.5,2.5 0 1 1 -5,0 2.5,2.5 0 1 1 5,0 z" color="#000" display="inline" enable-background="accumulate" opacity=".3" overflow="visible" transform="matrix(1.6,0,0,1.6,-23.6,-10)" visibility="visible" style="marker:none"/><path id="path3839" fill="url(#radialGradient3841)" fill-opacity="1" fill-rule="nonzero" stroke="none" stroke-width="1" d="m 61,37.5 a 2.5,2.5 0 1 1 -5,0 2.5,2.5 0 1 1 5,0 z" color="#000" display="inline" enable-background="accumulate" opacity=".3" overflow="visible" transform="matrix(1.6,0,0,1.6,-72.6,-15)" visibility="visible" style="marker:none"/><path id="path3843" fill="url(#radialGradient3845)" fill-opacity="1" fill-rule="nonzero" stroke="none" stroke-width="1" d="m 61,37.5 a 2.5,2.5 0 1 1 -5,0 2.5,2.5 0 1 1 5,0 z" color="#000" display="inline" enable-background="accumulate" opacity=".3" overflow="visible" transform="matrix(1.6,0,0,1.6,-59.6,-9)" visibility="visible" style="marker:none"/><path id="path3847" fill="url(#radialGradient3849)" fill-opacity="1" fill-rule="nonzero" stroke="none" stroke-width="1" d="m 61,37.5 a 2.5,2.5 0 1 1 -5,0 2.5,2.5 0 1 1 5,0 z" color="#000" display="inline" enable-background="accumulate" opacity=".3" overflow="visible" transform="translate(-27,2.5)" visibility="visible" style="marker:none"/><path id="path3851" fill="url(#radialGradient3853)" fill-opacity="1" fill-rule="nonzero" stroke="none" stroke-width="1" d="m 61,37.5 a 2.5,2.5 0 1 1 -5,0 2.5,2.5 0 1 1 5,0 z" color="#000" display="inline" enable-background="accumulate" opacity=".3" overflow="visible" transform="translate(9,4.5)" visibility="visible" style="marker:none"/><path id="path3855" fill="url(#radialGradient3857)" fill-opacity="1" fill-rule="nonzero" stroke="none" stroke-width="1" d="m 61,37.5 a 2.5,2.5 0 1 1 -5,0 2.5,2.5 0 1 1 5,0 z" color="#000" display="inline" enable-background="accumulate" opacity=".3" overflow="visible" transform="translate(21,6.5)" visibility="visible" style="marker:none"/><path id="path3859" fill="url(#radialGradient3861)" fill-opacity="1" fill-rule="nonzero" stroke="none" stroke-width="1" d="m 61,37.5 a 2.5,2.5 0 1 1 -5,0 2.5,2.5 0 1 1 5,0 z" color="#000" display="inline" enable-background="accumulate" opacity=".3" overflow="visible" transform="translate(-35,12.5)" visibility="visible" style="marker:none"/><path id="path3863" fill="#fff" fill-opacity="1" fill-rule="nonzero" stroke="none" stroke-width="1" d="m 61,37.5 a 2.5,2.5 0 1 1 -5,0 2.5,2.5 0 1 1 5,0 z" color="#000" display="inline" enable-background="accumulate" opacity=".504" overflow="visible" transform="matrix(0.4,0,0,0.4,39.6,24)" visibility="visible" style="marker:none"/></g></g><g id="layer5" display="none"><text id="text3989" x="43.749" y="71.478" fill="#fff" fill-opacity="1" stroke="none" display="inline" font-family="BabelSans" font-size="20.888" font-stretch="normal" font-style="normal" font-variant="normal" font-weight="bold" opacity=".7" text-anchor="start" writing-mode="lr-tb" xml:space="preserve" style="text-align:start;line-height:125%;-inkscape-font-specification:BabelSans Medium"><tspan id="tspan3991" x="43.749" y="71.478">PNG</tspan></text></g><g id="layer4" display="inline"><path id="rect3969" fill="url(#linearGradient3982)" fill-opacity="1" fill-rule="nonzero" stroke="none" d="M 12,6 C 8.676,6 6,8.676 6,12 L 6,65.375 C 21.659672,54.324822 48.932917,47 80,47 c 3.382367,0 6.716951,0.1124 10,0.28125 L 90,12 C 90,8.676 87.324,6 84,6 L 12,6 z" display="inline" opacity=".3"/><path id="rect2960" fill="url(#linearGradient3748)" fill-opacity="1" fill-rule="nonzero" stroke="none" stroke-width=".5" d="m 15,20 c -1.662,0 -3,1.338 -3,3 l 0,50 c 0,1.662 1.338,3 3,3 l 66,0 c 1.662,0 3,-1.338 3,-3 l 0,-50 c 0,-1.662 -1.338,-3 -3,-3 l -66,0 z m 0,0.96875 66,0 c 1.14652,0 2.03125,0.884731 2.03125,2.03125 l 0,50 c 0,1.146519 -0.88473,2.03125 -2.03125,2.03125 l -66,0 c -1.146519,0 -2.03125,-0.884731 -2.03125,-2.03125 l 0,-50 c 0,-1.146519 0.884731,-2.03125 2.03125,-2.03125 z" color="#000" display="inline" enable-background="accumulate" opacity=".3" overflow="visible" visibility="visible" style="marker:none"/><rect id="rect2962" width="72" height="56" x="-88" y="20" fill="red" fill-opacity="1" fill-rule="nonzero" stroke="none" stroke-width=".5" color="#000" display="inline" enable-background="accumulate" opacity=".6" overflow="visible" rx="3" ry="3" visibility="visible" style="marker:none"/><path id="rect3750" fill="#fff" fill-opacity="1" fill-rule="nonzero" stroke="none" stroke-width=".5" d="m 12,73 0,1 c 0,1.662 1.338,3 3,3 l 66,0 c 1.662,0 3,-1.338 3,-3 l 0,-1 c 0,1.662 -1.338,3 -3,3 l -66,0 c -1.662,0 -3,-1.338 -3,-3 z" color="#000" display="inline" enable-background="accumulate" opacity=".7" overflow="visible" visibility="visible" style="marker:none"/></g></svg>