<svg xmlns="http://www.w3.org/2000/svg" xmlns:svg="http://www.w3.org/2000/svg" xmlns:xlink="http://www.w3.org/1999/xlink" id="svg2408" width="96" height="96" display="inline" version="1.0"><defs id="defs2410"><linearGradient id="linearGradient4426"><stop id="stop4428" offset="0" stop-color="#71461e" stop-opacity="1"/><stop id="stop4430" offset="1" stop-color="#71461e" stop-opacity="0"/></linearGradient><linearGradient id="linearGradient4414"><stop id="stop4416" offset="0" stop-color="#dac3a2" stop-opacity="1"/><stop id="stop4418" offset="1" stop-color="#dac3a2" stop-opacity="0"/></linearGradient><linearGradient id="linearGradient4370"><stop id="stop4372" offset="0" stop-color="#8a5b30" stop-opacity="1"/><stop id="stop4374" offset="1" stop-color="#8a5b30" stop-opacity="0"/></linearGradient><linearGradient id="linearGradient4351"><stop id="stop4353" offset="0" stop-color="#fff" stop-opacity=".171"/><stop id="stop4359" offset=".5" stop-color="#fff" stop-opacity="0"/><stop id="stop4361" offset=".51" stop-color="#000" stop-opacity="0"/><stop id="stop4355" offset="1" stop-color="#000" stop-opacity="1"/></linearGradient><linearGradient id="linearGradient4309" x1="52.25" x2="52.25" y1="47.247" y2=".239" gradientUnits="userSpaceOnUse"><stop id="stop4311" offset="0" stop-color="#d8cab2" stop-opacity="1"/><stop id="stop4321" offset=".457" stop-color="#d2b98c" stop-opacity="1"/><stop id="stop4323" offset=".486" stop-color="#F9F7EF"/><stop id="stop4325" offset=".491" stop-color="#FFF"/><stop id="stop4327" offset=".492" stop-color="#FBF9F4"/><stop id="stop4329" offset=".495" stop-color="#EFE7D0"/><stop id="stop4331" offset=".498" stop-color="#E4D6B0"/><stop id="stop4333" offset=".501" stop-color="#DAC894"/><stop id="stop4335" offset=".505" stop-color="#c7a572" stop-opacity="1"/><stop id="stop4347" offset="1" stop-color="#d7c198" stop-opacity="1"/></linearGradient><linearGradient id="linearGradient4301"><stop id="stop4303" offset="0" stop-color="#84572d" stop-opacity="1"/><stop id="stop4305" offset=".423" stop-color="#d4b78f" stop-opacity="1"/><stop id="stop4307" offset="1" stop-color="#bf9c6b" stop-opacity="0"/></linearGradient><linearGradient id="linearGradient4295"><stop id="stop4297" offset="0" stop-color="#b88f56" stop-opacity="1"/><stop id="stop4299" offset="1" stop-color="#d9bd98" stop-opacity="1"/></linearGradient><linearGradient id="linearGradient4289"><stop id="stop4291" offset="0" stop-color="#996c3b" stop-opacity="1"/><stop id="stop4293" offset="1" stop-color="#c19e6d" stop-opacity="1"/></linearGradient><linearGradient id="linearGradient4283"><stop id="stop4285" offset="0" stop-color="#b88f56" stop-opacity="1"/><stop id="stop4287" offset="1" stop-color="#d0ae80" stop-opacity="1"/></linearGradient><linearGradient id="linearGradient5149"><stop id="stop5151" offset="0" stop-color="#89734e" stop-opacity="1"/><stop id="stop5155" offset=".423" stop-color="#d6bb8f" stop-opacity="1"/><stop id="stop5153" offset="1" stop-color="#c7ab7d" stop-opacity="0"/></linearGradient><linearGradient id="linearGradient5112"><stop id="stop5114" offset="0" stop-color="#decdb0" stop-opacity="1"/><stop id="stop5116" offset="1" stop-color="#decdb0" stop-opacity="0"/></linearGradient><linearGradient id="linearGradient5106"><stop id="stop5108" offset="0" stop-color="#917a53" stop-opacity="1"/><stop id="stop5110" offset="1" stop-color="#a68d63" stop-opacity="0"/></linearGradient><linearGradient id="linearGradient5092"><stop id="stop5094" offset="0" stop-color="#be9f6a" stop-opacity="1"/><stop id="stop5096" offset="1" stop-color="#e5d2b2" stop-opacity="1"/></linearGradient><linearGradient id="linearGradient5032"><stop id="stop5034" offset="0" stop-color="#d9c690" stop-opacity="1"/><stop id="stop5036" offset="1" stop-color="#cbb168" stop-opacity="1"/></linearGradient><linearGradient id="linearGradient5010"><stop id="stop5012" offset="0" stop-color="#000" stop-opacity="1"/><stop id="stop5014" offset="1" stop-color="#000" stop-opacity="0"/></linearGradient><linearGradient id="linearGradient3412" x1="52.25" x2="52.25" y1="47.247" y2=".239" gradientUnits="userSpaceOnUse"><stop id="stop3414" offset="0" stop-color="#DDCC9D"/><stop id="stop3416" offset=".184" stop-color="#DAC793"/><stop id="stop3418" offset=".415" stop-color="#D5BF84"/><stop id="stop3420" offset=".437" stop-color="#D6C087"/><stop id="stop3422" offset=".448" stop-color="#D9C58F"/><stop id="stop3424" offset=".457" stop-color="#DECD9E"/><stop id="stop3430" offset=".486" stop-color="#F9F7EF"/><stop id="stop3432" offset=".491" stop-color="#FFF"/><stop id="stop3434" offset=".492" stop-color="#FBF9F4"/><stop id="stop3436" offset=".495" stop-color="#EFE7D0"/><stop id="stop3438" offset=".498" stop-color="#E4D6B0"/><stop id="stop3440" offset=".501" stop-color="#DAC894"/><stop id="stop3442" offset=".505" stop-color="#D3BC7E"/><stop id="stop3444" offset=".509" stop-color="#CDB46D"/><stop id="stop3446" offset=".515" stop-color="#C9AD62"/><stop id="stop3448" offset=".523" stop-color="#C7AA5B"/><stop id="stop3450" offset=".544" stop-color="#C6A959"/><stop id="stop3452" offset=".716" stop-color="#CDB46D"/><stop id="stop3454" offset="1" stop-color="#D2BB7B"/></linearGradient><linearGradient id="linearGradient3210"><stop id="stop3212" offset="0" stop-color="#fff" stop-opacity=".39"/><stop id="stop3214" offset="1" stop-color="#000" stop-opacity=".268"/></linearGradient><linearGradient id="linearGradient3174"><stop id="stop3176" offset="0" stop-color="#c30000" stop-opacity="1"/><stop id="stop3178" offset="1" stop-color="#f12300" stop-opacity="1"/></linearGradient><linearGradient id="ButtonShadow" x1="45.448" x2="45.448" y1="92.54" y2="7.017" gradientTransform="scale(1.0058652,0.994169)" gradientUnits="userSpaceOnUse"><stop id="stop3750" offset="0" stop-color="#000" stop-opacity="1"/><stop id="stop3752" offset="1" stop-color="#000" stop-opacity=".588"/></linearGradient><linearGradient id="linearGradient3737"><stop id="stop3739" offset="0" stop-color="#fff" stop-opacity="1"/><stop id="stop3741" offset="1" stop-color="#fff" stop-opacity="0"/></linearGradient><linearGradient id="linearGradient3700"><stop id="stop3702" offset="0" stop-color="#a48a5f" stop-opacity="1"/><stop id="stop3704" offset="1" stop-color="#dbc298" stop-opacity="1"/></linearGradient><linearGradient id="linearGradient3706" x1="54.187" x2="54.187" y1="90" y2="39.853" gradientUnits="userSpaceOnUse" xlink:href="#linearGradient4289"/><linearGradient id="linearGradient3743" x1="36.357" x2="36.357" y1="6" y2="63.893" gradientUnits="userSpaceOnUse" xlink:href="#linearGradient3737"/><filter id="filter3174"><feGaussianBlur id="feGaussianBlur3176" stdDeviation="1.71"/></filter><linearGradient id="linearGradient3195" x1="49.143" x2="49.143" y1="84" y2="11.991" gradientTransform="translate(0,1)" gradientUnits="userSpaceOnUse" xlink:href="#ButtonShadow"/><linearGradient id="linearGradient4340" x1="6.571" x2="110.985" y1="36.527" y2="36.527" gradientTransform="translate(0,0.2525381)" gradientUnits="userSpaceOnUse" xlink:href="#linearGradient5106"/><radialGradient id="radialGradient4351" cx="48" cy="51.893" r="42" fx="48" fy="51.893" gradientTransform="matrix(1,0,0,0.6157241,0,-9.1126551e-2)" gradientUnits="userSpaceOnUse" spreadMethod="pad" xlink:href="#linearGradient3700"/><filter id="filter4362" width="1.623" height="1.853" x="-.312" y="-.426"><feGaussianBlur id="feGaussianBlur4364" stdDeviation="6.212"/></filter><linearGradient id="linearGradient5016" x1="53.486" x2="53.486" y1="28.133" y2=".223" gradientTransform="matrix(1.0200612,0,0,1.0200612,-5.2380141,6.7562055)" gradientUnits="userSpaceOnUse" xlink:href="#linearGradient5010"/><linearGradient id="linearGradient5038" x1="6.5" x2="48" y1="19.484" y2="19.484" gradientUnits="userSpaceOnUse" xlink:href="#linearGradient5032"/><radialGradient id="radialGradient5059" cx="48" cy="51.893" r="42" fx="48" fy="51.893" gradientTransform="matrix(1,0,0,0.6157241,0,-9.1126551e-2)" gradientUnits="userSpaceOnUse" spreadMethod="pad" xlink:href="#linearGradient3700"/><linearGradient id="linearGradient5070" x1="-33.054" x2="48" y1="19.484" y2="19.484" gradientTransform="matrix(1.0212766,0,0,1,-1.1489362,-2.5e-4)" gradientUnits="userSpaceOnUse" xlink:href="#linearGradient3412"/><linearGradient id="linearGradient5078" x1="48.125" x2="6.978" y1="21" y2="21" gradientUnits="userSpaceOnUse" xlink:href="#linearGradient5010"/><linearGradient id="linearGradient5088" x1="48.125" x2="6.978" y1="21" y2="21" gradientUnits="userSpaceOnUse" xlink:href="#linearGradient5010"/><linearGradient id="linearGradient5090" x1="-33.054" x2="48" y1="19.484" y2="19.484" gradientTransform="matrix(-1.0212766,0,0,1,97.273936,-2.5e-4)" gradientUnits="userSpaceOnUse" xlink:href="#linearGradient3412"/><linearGradient id="linearGradient5100" x1="47.079" x2="6.596" y1="32.783" y2="9.41" gradientUnits="userSpaceOnUse" xlink:href="#linearGradient5092"/><linearGradient id="linearGradient5136" x1="90" x2="23.512" y1="44.817" y2="83.204" gradientUnits="userSpaceOnUse" xlink:href="#linearGradient5106"/><linearGradient id="linearGradient5142" x1="48" x2="48" y1="90" y2="6" gradientUnits="userSpaceOnUse" xlink:href="#linearGradient3700"/><linearGradient id="linearGradient5162" x1="6" x2="11.478" y1="48" y2="48" gradientTransform="matrix(-1,0,0,1,95.96875,0)" gradientUnits="userSpaceOnUse" xlink:href="#linearGradient4301"/><linearGradient id="linearGradient2489" x1="48" x2="6.781" y1="42" y2="18.202" gradientUnits="userSpaceOnUse" xlink:href="#linearGradient4295"/><linearGradient id="linearGradient3264" x1="47.227" x2="6.33" y1="29.04" y2="18.082" gradientTransform="matrix(-1,0,0,1,96,0)" gradientUnits="userSpaceOnUse" xlink:href="#linearGradient4295"/><linearGradient id="linearGradient3277" x1="50.499" x2="50.499" y1="19.882" y2="47.295" gradientUnits="userSpaceOnUse" xlink:href="#linearGradient4309"/><linearGradient id="linearGradient3285" x1="23.143" x2="66.964" y1="42" y2="6" gradientUnits="userSpaceOnUse" xlink:href="#linearGradient3737"/><filter id="filter3315" width="1.357" height="1.09" x="-.179" y="-.045"><feGaussianBlur id="feGaussianBlur3317" stdDeviation=".902"/></filter><linearGradient id="linearGradient4376" x1="8" x2="8" y1="38.127" y2="71.877" gradientUnits="userSpaceOnUse" xlink:href="#linearGradient4370"/><linearGradient id="linearGradient4380" x1="6" x2="11.478" y1="48" y2="48" gradientUnits="userSpaceOnUse" xlink:href="#linearGradient4301"/><linearGradient id="linearGradient4394" x1="10" x2="10" y1="40.263" y2="89.666" gradientUnits="userSpaceOnUse" xlink:href="#linearGradient3737"/><linearGradient id="linearGradient4400" x1="8" x2="8" y1="38.127" y2="87.03" gradientTransform="matrix(-1,0,0,1,96,0)" gradientUnits="userSpaceOnUse" xlink:href="#linearGradient4370"/><linearGradient id="linearGradient4402" x1="10" x2="10" y1="40.263" y2="89.666" gradientTransform="matrix(-1,0,0,1,96,0)" gradientUnits="userSpaceOnUse" xlink:href="#linearGradient3737"/><linearGradient id="linearGradient4420" x1="8.965" x2="8.965" y1="44.04" y2="52.263" gradientUnits="userSpaceOnUse" xlink:href="#linearGradient4414"/><linearGradient id="linearGradient4424" x1="8.965" x2="8.965" y1="44.04" y2="52.263" gradientTransform="matrix(-1,0,0,1,96.086934,0)" gradientUnits="userSpaceOnUse" xlink:href="#linearGradient4414"/><radialGradient id="radialGradient4432" cx="48" cy="73.146" r="42" fx="48" fy="73.146" gradientTransform="matrix(0.867765,0,0,9.5238095e-2,6.3472804,36.190476)" gradientUnits="userSpaceOnUse" xlink:href="#linearGradient4426"/><linearGradient id="linearGradient3026" x1="32.251" x2="32.251" y1="6.132" y2="90.239" gradientTransform="matrix(1.0238095,0,0,1.0119048,-1.1428571,-98.071429)" gradientUnits="userSpaceOnUse" xlink:href="#ButtonShadow-0"/><linearGradient id="ButtonShadow-0" x1="45.448" x2="45.448" y1="92.54" y2="7.017" gradientTransform="matrix(1.0058652,0,0,0.994169,100,0)" gradientUnits="userSpaceOnUse"><stop id="stop3750-8" offset="0" stop-color="#000" stop-opacity="1"/><stop id="stop3752-5" offset="1" stop-color="#000" stop-opacity=".588"/></linearGradient><linearGradient id="linearGradient3780" x1="32.251" x2="32.251" y1="6.132" y2="90.239" gradientTransform="matrix(1.0238095,0,0,1.0119048,-1.1428571,-98.071429)" gradientUnits="userSpaceOnUse" xlink:href="#ButtonShadow-0"/><linearGradient id="linearGradient3728" x1="45.448" x2="45.448" y1="92.54" y2="7.017" gradientTransform="matrix(1.0058652,0,0,0.994169,100,0)" gradientUnits="userSpaceOnUse"><stop id="stop3730" offset="0" stop-color="#000" stop-opacity="1"/><stop id="stop3732" offset="1" stop-color="#000" stop-opacity=".588"/></linearGradient><linearGradient id="linearGradient3772" x1="32.251" x2="32.251" y1="6.132" y2="90.239" gradientTransform="matrix(1.0238095,0,0,1.0119048,-1.1428571,-98.071429)" gradientUnits="userSpaceOnUse" xlink:href="#ButtonShadow-0"/><linearGradient id="linearGradient3735" x1="45.448" x2="45.448" y1="92.54" y2="7.017" gradientTransform="matrix(1.0058652,0,0,0.994169,100,0)" gradientUnits="userSpaceOnUse"><stop id="stop3737" offset="0" stop-color="#000" stop-opacity="1"/><stop id="stop3739-8" offset="1" stop-color="#000" stop-opacity=".588"/></linearGradient><linearGradient id="linearGradient3725" x1="32.251" x2="32.251" y1="6.132" y2="90.239" gradientTransform="matrix(1.0238095,0,0,1.0119048,-1.1428571,-98.071429)" gradientUnits="userSpaceOnUse" xlink:href="#ButtonShadow-0"/><linearGradient id="linearGradient3742" x1="45.448" x2="45.448" y1="92.54" y2="7.017" gradientTransform="matrix(1.0058652,0,0,0.994169,100,0)" gradientUnits="userSpaceOnUse"><stop id="stop3744" offset="0" stop-color="#000" stop-opacity="1"/><stop id="stop3746" offset="1" stop-color="#000" stop-opacity=".588"/></linearGradient><linearGradient id="linearGradient3721" x1="32.251" x2="32.251" y1="6.132" y2="90.239" gradientTransform="translate(0,-97)" gradientUnits="userSpaceOnUse" xlink:href="#ButtonShadow-0"/><linearGradient id="linearGradient3749" x1="45.448" x2="45.448" y1="92.54" y2="7.017" gradientTransform="matrix(1.0058652,0,0,0.994169,100,0)" gradientUnits="userSpaceOnUse"><stop id="stop3751" offset="0" stop-color="#000" stop-opacity="1"/><stop id="stop3753" offset="1" stop-color="#000" stop-opacity=".588"/></linearGradient><linearGradient id="linearGradient3760" x1="32.251" x2="32.251" y1="6.132" y2="90.239" gradientTransform="matrix(1.0238095,0,0,1.0119048,-1.1428571,-98.071429)" gradientUnits="userSpaceOnUse" xlink:href="#ButtonShadow-0"/><linearGradient id="linearGradient3277-8" x1="50.499" x2="50.499" y1="19.882" y2="47.295" gradientTransform="matrix(1.0200612,0,0,1.0200612,-5.2981966,5.7562054)" gradientUnits="userSpaceOnUse" xlink:href="#linearGradient4309-3"/><linearGradient id="linearGradient4309-3" x1="52.25" x2="52.25" y1="47.247" y2=".239" gradientUnits="userSpaceOnUse"><stop id="stop4311-7" offset="0" stop-color="#d8cab2" stop-opacity="1"/><stop id="stop4321-4" offset=".457" stop-color="#d2b98c" stop-opacity="1"/><stop id="stop4323-9" offset=".486" stop-color="#F9F7EF"/><stop id="stop4325-6" offset=".491" stop-color="#FFF"/><stop id="stop4327-3" offset=".492" stop-color="#FBF9F4"/><stop id="stop4329-5" offset=".495" stop-color="#EFE7D0"/><stop id="stop4331-4" offset=".498" stop-color="#E4D6B0"/><stop id="stop4333-7" offset=".501" stop-color="#DAC894"/><stop id="stop4335-5" offset=".505" stop-color="#c7a572" stop-opacity="1"/><stop id="stop4347-7" offset="1" stop-color="#d7c198" stop-opacity="1"/></linearGradient><linearGradient id="linearGradient3942" x1="46.796" x2="46.796" y1="60.307" y2="6.018" gradientUnits="userSpaceOnUse" xlink:href="#linearGradient3928"/><linearGradient id="linearGradient3928"><stop id="stop3930" offset="0" stop-color="#3a240f" stop-opacity="1"/><stop id="stop3932" offset="1" stop-color="#3a240f" stop-opacity="0"/></linearGradient><linearGradient id="linearGradient3934" x1="48.401" x2="48.401" y1="61.991" y2="4.667" gradientUnits="userSpaceOnUse" xlink:href="#linearGradient3928"/></defs><metadata id="metadata2413"/><g id="layer2" display="none"><path id="rect3745" fill="url(#ButtonShadow)" fill-opacity="1" fill-rule="nonzero" stroke="none" d="M 11,7 48,5 85,7 c 3.324,0 6,2.676 6,6 l 0,73 c 0,3.324 -2.676,6 -6,6 L 11,92 C 7.676,92 5,89.324 5,86 L 5,13 C 5,9.676 7.676,7 11,7 z" filter="url(#filter3174)" opacity=".9"/></g><g id="layer5" display="inline"><path id="path3786" fill="url(#linearGradient3760)" fill-opacity="1" fill-rule="nonzero" stroke="none" d="m 12,-95.03125 c -5.5110903,0 -10.03125,4.52016 -10.03125,10.03125 l 0,71 c 0,5.5110902 4.5201598,10.03125 10.03125,10.03125 l 72,0 c 5.51109,0 10.03125,-4.5201597 10.03125,-10.03125 l 0,-71 c 0,-5.51109 -4.52016,-10.03125 -10.03125,-10.03125 l -72,0 z" display="inline" opacity=".08" transform="scale(1,-1)"/><path id="path3778" fill="url(#linearGradient3780)" fill-opacity="1" fill-rule="nonzero" stroke="none" d="m 12,-94.03125 c -4.971633,0 -9.03125,4.059617 -9.03125,9.03125 l 0,71 c 0,4.9716329 4.0596171,9.03125 9.03125,9.03125 l 72,0 c 4.971633,0 9.03125,-4.059617 9.03125,-9.03125 l 0,-71 c 0,-4.971633 -4.059617,-9.03125 -9.03125,-9.03125 l -72,0 z" display="inline" opacity=".1" transform="scale(1,-1)"/><path id="path3770" fill="url(#linearGradient3772)" fill-opacity="1" fill-rule="nonzero" stroke="none" d="m 12,-93 c -4.4091333,0 -8,3.590867 -8,8 l 0,71 c 0,4.4091333 3.5908667,8 8,8 l 72,0 c 4.409133,0 8,-3.5908667 8,-8 l 0,-71 c 0,-4.409133 -3.590867,-8 -8,-8 l -72,0 z" display="inline" opacity=".2" transform="scale(1,-1)"/><rect id="rect3723" width="86" height="85" x="5" y="-92" fill="url(#linearGradient3725)" fill-opacity="1" fill-rule="nonzero" stroke="none" display="inline" opacity=".3" rx="7" ry="7" transform="scale(1,-1)"/><rect id="rect3716" width="84" height="84" x="6" y="-91" fill="url(#linearGradient3721)" fill-opacity="1" fill-rule="nonzero" stroke="none" display="inline" opacity=".45" rx="6" ry="6" transform="scale(1,-1)"/></g><g id="layer1" display="inline"><path id="rect5138" fill="url(#linearGradient4376)" fill-opacity="1" fill-rule="nonzero" stroke="none" d="m 6,36 0,48 c 0,1.781762 0.7745675,3.371709 2,4.46875 L 8,36 6,36 z"/><rect id="rect2419" width="84" height="84" x="6" y="6" fill="url(#linearGradient3706)" fill-opacity="1" fill-rule="nonzero" stroke="none" rx="6" ry="6"/><path id="path3287" fill="url(#radialGradient4432)" fill-opacity="1" fill-rule="nonzero" stroke="none" d="m 6,36 0,2 c 0,3.324 2.676,6 6,6 l 72,0 c 3.324,0 6,-2.676 6,-6 l 0,-2 c 0,3.324 -2.676,6 -6,6 L 12,42 C 8.676,42 6,39.324 6,36 z"/><path id="path4396" fill="url(#linearGradient4400)" fill-opacity="1" fill-rule="nonzero" stroke="none" d="m 90,36 0,48 c 0,1.781762 -0.774567,3.371709 -2,4.46875 L 88,36 l 2,0 z"/><rect id="rect2483" width="84" height="24" x="6" y="18" fill="#3c2510" fill-opacity="1" fill-rule="nonzero" stroke="none" rx="6" ry="6"/><path id="path4398" fill="url(#linearGradient4402)" fill-opacity="1" fill-rule="nonzero" stroke="none" d="m 88,36 0,52.46875 c -0.576856,0.516417 -1.254924,0.923089 -2,1.1875 L 86,36 l 2,0 z" opacity=".3"/><path id="path4378" fill="url(#linearGradient4394)" fill-opacity="1" fill-rule="nonzero" stroke="none" d="m 8,36 0,52.46875 c 0.5768558,0.516417 1.254924,0.923089 2,1.1875 L 10,36 8,36 z" opacity=".3"/><path id="path5055" fill="url(#linearGradient5100)" fill-opacity="1" fill-rule="nonzero" stroke="none" d="M 12,6 C 8.7734181,6 6,8.2592995 6,13 L 6,15 6,35.65625 48,35.69067 48,6 14,6 12,6 z"/><rect id="rect4356" width="47.856" height="34.977" x="12.753" y="41.957" fill="#dac7a8" fill-opacity="1" fill-rule="nonzero" stroke="none" filter="url(#filter4362)" opacity=".3" rx="6" ry="6" transform="matrix(1,0,0,0.8555957,0,8.5841304)"/><path id="rect2481" fill="url(#linearGradient2489)" fill-opacity="1" fill-rule="nonzero" stroke="none" d="M 12,6 C 8.676,6 6,8.676 6,12 l 0,24 c 0,3.324 2.676,6 6,6 L 48,40 48,4 12,6 z"/><path id="path3262" fill="url(#linearGradient3264)" fill-opacity="1" fill-rule="nonzero" stroke="none" d="m 84,6 c 3.324,0 6,2.676 6,6 l 0,24 c 0,3.324 -2.676,6 -6,6 L 48,40 48,4 84,6 z"/><path id="rect3266" fill="url(#linearGradient3285)" fill-opacity="1" fill-rule="nonzero" stroke="none" d="M 12,6 C 8.676,6 6,8.676 6,12 l 0,24 c 0,3.324 2.676,6 6,6 l 36,-2 36,2 c 3.324,0 6,-2.676 6,-6 L 90,12 C 90,8.676 87.324,6 84,6 L 48,4 12,6 z m 0,2 36,-2 36,2 c 2.245802,0 4,1.7541975 4,4 l 0,24 c 0,2.245802 -1.754198,4 -4,4 L 48,38 12,40 C 9.7541975,40 8,38.245802 8,36 L 8,12 C 8,9.7541975 9.7541975,8 12,8 z" opacity=".3"/><path id="path4404" fill="url(#linearGradient4420)" fill-opacity="1" fill-rule="evenodd" stroke="none" d="m 6.1871843,37.284884 c 2.3991123,5.555839 1.894036,16.036171 1.894036,16.036171 L 9.9121217,53.068517 C 9.6595836,44.861028 10.354063,41.83057 14.89975,41.704301 7.7307581,40.509469 6.1871843,37.284884 6.1871843,37.284884 z"/><path id="path4422" fill="url(#linearGradient4424)" fill-opacity="1" fill-rule="evenodd" stroke="none" d="m 89.89975,37.284884 c -2.399112,5.555839 -1.894036,16.036171 -1.894036,16.036171 L 86.174813,53.068517 C 86.427351,44.861028 85.732871,41.83057 81.187184,41.704301 88.356176,40.509469 89.89975,37.284884 89.89975,37.284884 z"/><path id="path5008" fill="#3a240f" fill-opacity="1" d="M 54.120367,7 42.000001,7 42.060185,31.062224 42.194833,60 47.881674,59.50527 53.925535,58.979939 53.958175,53.428766 54.060182,31.062224 54.120362,7 z" display="inline" opacity=".5"/><path id="path3926" fill="url(#linearGradient3934)" fill-opacity="1" d="m 41.6875,5.125 c 0.0042,-7.112e-4 -0.191651,0.032337 -0.1875,0.03125 0.0042,-0.00109 -0.160287,0.063954 -0.15625,0.0625 0.004,-0.00145 -0.160141,0.064309 -0.15625,0.0625 0.0039,-0.00181 -0.128713,0.06465 -0.125,0.0625 0.0037,-0.00215 -0.159756,0.096223 -0.15625,0.09375 0.0035,-0.00247 -0.128271,0.1277772 -0.125,0.125 0.0033,-0.00278 -0.128009,0.096809 -0.125,0.09375 0.003,-0.00306 -0.127724,0.1283156 -0.125,0.125 0.0027,-0.00332 -0.09617,0.1597959 -0.09375,0.15625 0.0024,-0.00355 -0.09584,0.1287479 -0.09375,0.125 0.0021,-0.00375 -0.06424,0.1601697 -0.0625,0.15625 0.0017,-0.00392 -0.06389,0.1603101 -0.0625,0.15625 0.0014,-0.00406 -0.03227,0.160418 -0.03125,0.15625 0.001,-0.00417 -0.06314,0.1604925 -0.0625,0.15625 6.42e-4,-0.00424 -2.6e-4,0.1917829 0,0.1875 2.08e-4,-0.00343 7.69e-4,0.08233 0,0.125 l 0,0.03125 L 40.1875,31.0625 40.3125,60 a 1.0057838,1.0057838 0 0 0 0,0.03125 c -4.2e-5,-0.0025 1.68e-4,0.0962 0,0.09375 -1.68e-4,-0.0025 2.94e-4,0.09619 0,0.09375 -2.94e-4,-0.0024 0.03167,0.09617 0.03125,0.09375 -4.19e-4,-0.0024 5.42e-4,0.09615 0,0.09375 -5.42e-4,-0.0024 0.03191,0.09611 0.03125,0.09375 -6.64e-4,-0.0024 0.03204,0.09608 0.03125,0.09375 -7.85e-4,-0.0023 0.03215,0.06479 0.03125,0.0625 -9.03e-4,-0.0023 0.03227,0.09599 0.03125,0.09375 -0.001,-0.0022 0.06363,0.09593 0.0625,0.09375 -0.0011,-0.0022 0.03249,0.09587 0.03125,0.09375 -0.0012,-0.0021 0.06385,0.06455 0.0625,0.0625 -0.0014,-0.0021 0.0327,0.09573 0.03125,0.09375 -0.0015,-0.002 0.06405,0.0644 0.0625,0.0625 -0.0016,-0.0019 0.06415,0.09557 0.0625,0.09375 -0.0016,-0.0018 0.06424,0.06423 0.0625,0.0625 -0.0017,-0.0017 0.09558,0.06414 0.09375,0.0625 -0.0018,-0.0016 0.06441,0.06405 0.0625,0.0625 -0.0019,-0.0015 0.06448,0.06395 0.0625,0.0625 -0.002,-0.0014 0.09581,0.06384 0.09375,0.0625 -0.0021,-0.0013 0.06462,0.03249 0.0625,0.03125 -0.0021,-0.0012 0.09593,0.06363 0.09375,0.0625 -0.0022,-0.0011 0.09599,0.03226 0.09375,0.03125 -0.0022,-0.001 0.09604,0.03215 0.09375,0.03125 -0.0023,-8.97e-4 0.09608,0.03203 0.09375,0.03125 -0.0023,-7.79e-4 0.09612,0.03191 0.09375,0.03125 -0.0024,-6.58e-4 0.09615,0.03179 0.09375,0.03125 -0.0024,-5.36e-4 0.09617,4.12e-4 0.09375,0 -0.0024,-4.12e-4 0.09619,0.03154 0.09375,0.03125 -0.0024,-2.88e-4 0.0962,1.62e-4 0.09375,0 -0.0025,-1.62e-4 0.09621,3.6e-5 0.09375,0 -0.0025,-3.6e-5 0.0962,-9e-5 0.09375,0 -0.0025,9e-5 0.0962,-2.16e-4 0.09375,0 l 5.6875,-0.5 6.03125,-0.53125 c -8.93e-4,5.1e-5 0.02019,0.0012 0.03125,0 0.04424,-0.0047 0.128538,-5.37e-4 0.125,0 -0.0044,6.71e-4 0.19184,-0.06358 0.1875,-0.0625 -0.0043,0.0011 0.160471,-0.03273 0.15625,-0.03125 -0.0042,0.0015 0.160314,-0.06437 0.15625,-0.0625 -0.0041,0.0019 0.160122,-0.09599 0.15625,-0.09375 -0.0039,0.0022 0.159897,-0.09634 0.15625,-0.09375 -0.0036,0.0026 0.128389,-0.09667 0.125,-0.09375 -0.0034,0.0029 0.128103,-0.128222 0.125,-0.125 -0.0031,0.0032 0.127789,-0.128497 0.125,-0.125 -0.0028,0.0035 0.0962,-0.159992 0.09375,-0.15625 -0.0025,0.0037 0.09584,-0.160204 0.09375,-0.15625 -0.0021,0.004 0.09546,-0.160382 0.09375,-0.15625 -0.0017,0.0041 0.06382,-0.160524 0.0625,-0.15625 -0.0013,0.0043 0.03217,-0.160628 0.03125,-0.15625 -9.16e-4,0.0044 0.03175,-0.191944 0.03125,-0.1875 -5.04e-4,0.0044 8.7e-5,-0.160722 0,-0.15625 a 1.0057838,1.0057838 0 0 0 0,-0.03125 L 55.84375,53.4375 55.9375,31.0625 56,7 c -7.3e-5,0.00479 -4.06e-4,-0.1610265 0,-0.15625 4.06e-4,0.00478 -0.03213,-0.1922121 -0.03125,-0.1875 8.81e-4,0.00471 -0.0326,-0.1921004 -0.03125,-0.1875 0.0013,0.0046 -0.0643,-0.1919427 -0.0625,-0.1875 0.0018,0.00444 -0.09599,-0.1604906 -0.09375,-0.15625 0.0022,0.00424 -0.0964,-0.160246 -0.09375,-0.15625 0.0026,0.004 -0.09678,-0.1599614 -0.09375,-0.15625 0.003,0.00371 -0.12839,-0.1596397 -0.125,-0.15625 0.0034,0.00339 -0.159961,-0.1280341 -0.15625,-0.125 0.0037,0.00303 -0.160246,-0.096398 -0.15625,-0.09375 0.004,0.00265 -0.160491,-0.095986 -0.15625,-0.09375 0.0042,0.00224 -0.160693,-0.095551 -0.15625,-0.09375 0.0044,0.0018 -0.1921,-0.063848 -0.1875,-0.0625 0.0046,0.00135 -0.192212,-0.032132 -0.1875,-0.03125 0.0047,8.815e-4 -0.192277,-0.031656 -0.1875,-0.03125 0.0048,4.063e-4 -0.161043,7.3e-5 -0.15625,0 l -12.03125,0 c 0.0026,2.364e-4 -0.04386,0.00229 -0.09375,0 -0.03326,-0.00153 -0.06424,0 -0.0625,0 0.0043,0 -0.19183,3.94e-4 -0.1875,0 a 1.0057838,1.0057838 0 0 0 -0.0625,0 z" display="inline" opacity=".1"/><path id="path3922" fill="url(#linearGradient3942)" fill-opacity="1" d="M 42,6.125 A 0.8619805,0.8619805 0 0 0 41.125,7 L 41.1875,31.0625 41.3125,60 a 0.8619805,0.8619805 0 0 0 0.9375,0.84375 l 5.6875,-0.5 L 54,59.8125 a 0.8619805,0.8619805 0 0 0 0.8125,-0.84375 L 54.84375,53.4375 54.9375,31.0625 55,7 A 0.8619805,0.8619805 0 0 0 54.125,6.125 L 42,6.125 z" display="inline" opacity=".2"/><path id="polygon120" fill="url(#linearGradient3277-8)" fill-opacity="1" d="M 54.060184,4.3686547 48.000001,3.926713 41.939817,4.3686547 42.000001,30.062224 42.134649,59 l 5.686841,-0.494729 6.043862,-0.525332 0.03264,-5.551173 0.102006,-22.366542 0.06018,-25.6935693 z" display="inline"/><rect id="rect4363" width="1" height="35.714" x="47" y="4.125" fill="#8d6137" fill-opacity="1" fill-rule="nonzero" stroke="none" display="inline" opacity=".2"/><rect id="rect4365" width="1" height="35.714" x="48" y="4.125" fill="#fff" fill-opacity="1" fill-rule="nonzero" stroke="none" display="inline" opacity=".2"/></g><g id="layer3"><text id="text4274" x="69.415" y="49.915" fill="#825023" fill-opacity="1" stroke="none" display="inline" font-family="BabelSans" font-size="4" font-stretch="normal" font-style="normal" font-variant="normal" font-weight="bold" text-anchor="start" writing-mode="lr-tb" xml:space="preserve" style="text-align:start;line-height:120.00000477%;-inkscape-font-specification:BabelSans Bold"><tspan id="tspan4276" x="69.415" y="49.915">INSTALL</tspan></text><path id="path4278" fill="#825023" fill-opacity="1" fill-rule="nonzero" stroke="none" d="m 72,52 0,6 -4,0 8,10 8,-10 -4,0 0,-6 -8,0 z" display="inline"/></g></svg>