<svg xmlns="http://www.w3.org/2000/svg" xmlns:svg="http://www.w3.org/2000/svg" xmlns:xlink="http://www.w3.org/1999/xlink" id="svg2408" width="96" height="96" display="inline" version="1.0"><defs id="defs2410"><linearGradient id="linearGradient3637"><stop id="stop3639" offset="0" stop-color="#f0f0f0" stop-opacity="1"/><stop id="stop3641" offset="1" stop-color="#aaa" stop-opacity="1"/></linearGradient><linearGradient id="ButtonShadow" x1="45.448" x2="45.448" y1="92.54" y2="7.017" gradientTransform="scale(1.0058652,0.994169)" gradientUnits="userSpaceOnUse"><stop id="stop3750" offset="0" stop-color="#000" stop-opacity="1"/><stop id="stop3752" offset="1" stop-color="#000" stop-opacity=".588"/></linearGradient><linearGradient id="linearGradient3737"><stop id="stop3739" offset="0" stop-color="#fff" stop-opacity="1"/><stop id="stop3741" offset="1" stop-color="#fff" stop-opacity="0"/></linearGradient><linearGradient id="linearGradient3700"><stop id="stop3702" offset="0" stop-color="#2276c5" stop-opacity="1"/><stop id="stop3704" offset="1" stop-color="#68baf4" stop-opacity="1"/></linearGradient><linearGradient id="linearGradient3706" x1="48" x2="48" y1="90" y2="5.988" gradientUnits="userSpaceOnUse" xlink:href="#linearGradient3700"/><linearGradient id="linearGradient3743" x1="36.357" x2="36.357" y1="6" y2="63.893" gradientUnits="userSpaceOnUse" xlink:href="#linearGradient3737"/><filter id="filter3174" color-interpolation-filters="sRGB"><feGaussianBlur id="feGaussianBlur3176" stdDeviation="1.71"/></filter><linearGradient id="linearGradient3188" x1="36.357" x2="36.357" y1="6" y2="63.893" gradientUnits="userSpaceOnUse" xlink:href="#linearGradient3737"/><linearGradient id="linearGradient3613" x1="48" x2="48" y1="20.221" y2="138.661" gradientUnits="userSpaceOnUse" xlink:href="#linearGradient3737"/><radialGradient id="radialGradient3619" cx="48" cy="90.172" r="42" fx="48" fy="90.172" gradientTransform="matrix(1.1573129,0,0,0.99590774,-7.5510206,0.19713193)" gradientUnits="userSpaceOnUse" xlink:href="#linearGradient3737"/><clipPath id="clipPath3613" clipPathUnits="userSpaceOnUse"><rect id="rect3615" width="84" height="84" x="6" y="6" fill="#fff" fill-opacity="1" fill-rule="nonzero" stroke="none" rx="6" ry="6"/></clipPath><linearGradient id="linearGradient2843" x1="48" x2="48" y1="90" y2="5.988" gradientTransform="translate(0,100)" gradientUnits="userSpaceOnUse" xlink:href="#linearGradient3700"/><linearGradient id="linearGradient2848" x1="48" x2="48" y1="90" y2="5.988" gradientUnits="userSpaceOnUse" xlink:href="#linearGradient3700"/><clipPath id="clipPath3625" clipPathUnits="userSpaceOnUse"><path id="path3627" fill="#fff" fill-opacity="1" stroke="none" d="M 0,0 0,96 96,96 96,0 0,0 z m 12,6 72,0 c 3.324,0 6,2.676 6,6 l 0,72 c 0,3.324 -2.676,6 -6,6 L 12,90 C 8.676,90 6,87.324 6,84 L 6,12 C 6,8.676 8.676,6 12,6 z"/></clipPath><linearGradient id="linearGradient3643" x1="44.512" x2="44.512" y1="6" y2="90.015" gradientUnits="userSpaceOnUse" xlink:href="#linearGradient3637"/><clipPath id="clipPath3649" clipPathUnits="userSpaceOnUse"><rect id="rect3651" width="76" height="76" x="10" y="10" fill="#fff" fill-opacity="1" fill-rule="nonzero" stroke="none" rx="4" ry="4"/></clipPath><filter id="filter3657" color-interpolation-filters="sRGB"><feGaussianBlur id="feGaussianBlur3659" stdDeviation="1.14"/></filter><clipPath id="clipPath3697" clipPathUnits="userSpaceOnUse"><rect id="rect3699" width="76" height="76" x="10" y="10" fill="red" fill-opacity="1" fill-rule="nonzero" stroke="none" rx="4" ry="4"/></clipPath><linearGradient id="linearGradient3804" x1="20.759" x2="20.759" y1="1" y2="45.017" gradientTransform="matrix(1.2790652,0,0,1.2790652,17.302433,18.5815)" gradientUnits="userSpaceOnUse" xlink:href="#linearGradient3309"/><linearGradient id="linearGradient3309" x1="63.999" x2="63.999" y1="3.1" y2="122.899" gradientUnits="userSpaceOnUse"><stop id="stop3311" offset="0" stop-color="#f6f6f6" stop-opacity="1"/><stop id="stop3313" offset="1" stop-color="#d2d2d2" stop-opacity="1"/></linearGradient><linearGradient id="linearGradient3806" x1="37.201" x2="37.201" y1="1" y2="45" gradientTransform="matrix(1.2790652,0,0,1.2790652,17.302433,18.5815)" gradientUnits="userSpaceOnUse" xlink:href="#linearGradient3397"/><linearGradient id="linearGradient3397"><stop id="stop3399" offset="0" stop-color="#aaa" stop-opacity="1"/><stop id="stop3401" offset="1" stop-color="#8c8c8c" stop-opacity="1"/></linearGradient><linearGradient id="linearGradient2940" x1="20.759" x2="20.759" y1="1" y2="45.017" gradientTransform="matrix(1.2790652,0,0,1.2790652,17.302433,18.5815)" gradientUnits="userSpaceOnUse" xlink:href="#linearGradient3309"/><linearGradient id="linearGradient3665" x1="20.759" x2="20.759" y1="1" y2="45.017" gradientTransform="matrix(0.93022994,0,0,-0.93022994,23.674475,61.395341)" gradientUnits="userSpaceOnUse" xlink:href="#linearGradient4081"/><linearGradient id="linearGradient3669" x1="20.759" x2="20.759" y1="1" y2="45.017" gradientTransform="matrix(0.47268421,0.12665535,0.12665535,-0.47268421,44.47921,74.733655)" gradientUnits="userSpaceOnUse" xlink:href="#linearGradient4081"/><linearGradient id="linearGradient3180" x1="-13" x2="-13" y1="17.009" y2="-.7" gradientUnits="userSpaceOnUse" xlink:href="#linearGradient4081"/><linearGradient id="linearGradient4081"><stop id="stop4083" offset="0" stop-color="#aaa" stop-opacity="1"/><stop id="stop4085" offset="1" stop-color="#f0f0f0" stop-opacity="1"/></linearGradient><linearGradient id="linearGradient2851" x1="-13" x2="-13" y1="17.009" y2="-.7" gradientUnits="userSpaceOnUse" xlink:href="#linearGradient4081"/><linearGradient id="linearGradient3692" x1="20.759" x2="20.759" y1="1" y2="45.017" gradientTransform="matrix(0.93022994,0,0,-0.93022994,23.674475,61.395341)" gradientUnits="userSpaceOnUse" xlink:href="#linearGradient4081"/><linearGradient id="linearGradient3697" x1="20.759" x2="20.759" y1="1" y2="45.017" gradientTransform="matrix(0.93022994,0,0,-0.93022994,23.674475,61.395341)" gradientUnits="userSpaceOnUse" xlink:href="#linearGradient4081"/><linearGradient id="linearGradient3701" x1="20.759" x2="20.759" y1="1" y2="45.017" gradientTransform="matrix(0.93022994,0,0,-0.93022994,23.674475,61.395341)" gradientUnits="userSpaceOnUse" xlink:href="#linearGradient4081"/><linearGradient id="linearGradient3720" x1="20.759" x2="20.759" y1="1" y2="45.017" gradientTransform="matrix(0.93022994,0,0,-0.93022994,23.674475,61.395341)" gradientUnits="userSpaceOnUse" xlink:href="#linearGradient4081"/><linearGradient id="linearGradient3725" x1="20.759" x2="20.759" y1="1" y2="45.017" gradientTransform="matrix(0.93022994,0,0,-0.93022994,23.674475,62.395341)" gradientUnits="userSpaceOnUse" xlink:href="#linearGradient4081"/><linearGradient id="linearGradient3727" x1="20.759" x2="20.759" y1="1" y2="45.017" gradientTransform="matrix(0.93022994,0,0,-0.93022994,23.674475,61.395341)" gradientUnits="userSpaceOnUse" xlink:href="#linearGradient4081"/><linearGradient id="linearGradient3708" x1="29.827" x2="65.694" y1="51.954" y2="51.954" gradientTransform="matrix(0,1,-1,0,96,0)" gradientUnits="userSpaceOnUse" xlink:href="#StandardGradient"/><linearGradient id="StandardGradient" x1="11.347" x2="11.347" y1="6" y2="16.013" gradientTransform="translate(-3,-2.9995677)" gradientUnits="userSpaceOnUse"><stop id="stop3177" offset="0" stop-color="#000" stop-opacity=".863"/><stop id="stop3179" offset="1" stop-color="#000" stop-opacity=".471"/></linearGradient><linearGradient id="linearGradient3034" x1="29.827" x2="65.694" y1="51.954" y2="51.954" gradientTransform="matrix(0,-1,-1,0,96,16)" gradientUnits="userSpaceOnUse" xlink:href="#linearGradient4081"/><linearGradient id="linearGradient3831" x1="29.827" x2="65.694" y1="51.954" y2="51.954" gradientTransform="matrix(0,-1,-1,0,96,97)" gradientUnits="userSpaceOnUse" xlink:href="#linearGradient4081"/><linearGradient id="linearGradient3833" x1="29.827" x2="65.694" y1="51.954" y2="51.954" gradientTransform="matrix(0,-1,-1,0,96,96)" gradientUnits="userSpaceOnUse" xlink:href="#linearGradient4081"/><linearGradient id="linearGradient3682" x1="29.827" x2="65.694" y1="51.954" y2="51.954" gradientTransform="matrix(0,-1,-1,0,96,96)" gradientUnits="userSpaceOnUse" xlink:href="#linearGradient4081"/><linearGradient id="linearGradient3699" x1="29.827" x2="65.694" y1="51.954" y2="51.954" gradientTransform="matrix(0,-1,-1,0,96,96)" gradientUnits="userSpaceOnUse" xlink:href="#linearGradient4081"/><linearGradient id="linearGradient3705" x1="29.827" x2="65.694" y1="51.954" y2="51.954" gradientTransform="matrix(0,-1,-1,0,36,16)" gradientUnits="userSpaceOnUse" xlink:href="#linearGradient4081"/><linearGradient id="linearGradient3712" x1="29.827" x2="65.694" y1="51.954" y2="51.954" gradientTransform="matrix(0,-1,-1,0,96,97)" gradientUnits="userSpaceOnUse" xlink:href="#linearGradient4081"/><linearGradient id="linearGradient3714" x1="29.827" x2="65.694" y1="51.954" y2="51.954" gradientTransform="matrix(0,-1,-1,0,96,96)" gradientUnits="userSpaceOnUse" xlink:href="#linearGradient4081"/><linearGradient id="linearGradient3708-7" x1="29.827" x2="65.694" y1="51.954" y2="51.954" gradientTransform="matrix(0,1,-1,0,96,0)" gradientUnits="userSpaceOnUse" xlink:href="#StandardGradient-8"/><linearGradient id="StandardGradient-8" x1="11.347" x2="11.347" y1="6" y2="16.013" gradientTransform="translate(-3,-2.9995677)" gradientUnits="userSpaceOnUse"><stop id="stop3177-6" offset="0" stop-color="#000" stop-opacity=".863"/><stop id="stop3179-8" offset="1" stop-color="#000" stop-opacity=".471"/></linearGradient><linearGradient id="linearGradient2947" x1="29.827" x2="65.694" y1="51.954" y2="51.954" gradientTransform="matrix(0,1,-1,0,183,0)" gradientUnits="userSpaceOnUse" xlink:href="#StandardGradient-8"/><linearGradient id="linearGradient3728" x1="56" x2="56" y1="72" y2="24" gradientUnits="userSpaceOnUse" xlink:href="#linearGradient4081"/><linearGradient id="linearGradient3710" x1="24" x2="72" y1="48" y2="48" gradientTransform="matrix(0,-1,1,0,0,96)" gradientUnits="userSpaceOnUse" xlink:href="#linearGradient4081"/><linearGradient id="linearGradient3716" x1="24" x2="72" y1="48" y2="48" gradientTransform="matrix(0,-1,1,0,0,97)" gradientUnits="userSpaceOnUse" xlink:href="#linearGradient4081"/><linearGradient id="linearGradient3718" x1="24" x2="72" y1="48" y2="48" gradientTransform="matrix(0,-1,1,0,0,96)" gradientUnits="userSpaceOnUse" xlink:href="#linearGradient4081"/><linearGradient id="linearGradient3723" x1="24" x2="72" y1="48" y2="48" gradientTransform="matrix(0,-1,1,0,0,96)" gradientUnits="userSpaceOnUse" xlink:href="#linearGradient4081"/><linearGradient id="linearGradient3729" x1="24" x2="72" y1="48" y2="48" gradientTransform="matrix(0,-1,1,0,0,95)" gradientUnits="userSpaceOnUse" xlink:href="#linearGradient4081"/><linearGradient id="linearGradient3702" x1="27" x2="69" y1="48" y2="48" gradientTransform="matrix(0,-1,1,0,80,96)" gradientUnits="userSpaceOnUse" xlink:href="#linearGradient4081"/><linearGradient id="linearGradient3709" x1="27" x2="69" y1="48" y2="48" gradientTransform="matrix(0,-1,1,0,0,97)" gradientUnits="userSpaceOnUse" xlink:href="#linearGradient4081"/><linearGradient id="linearGradient3711" x1="27" x2="69" y1="48" y2="48" gradientTransform="matrix(0,-1,1,0,0,96)" gradientUnits="userSpaceOnUse" xlink:href="#linearGradient4081"/><linearGradient id="linearGradient3719" x1="27" x2="69" y1="48" y2="48" gradientTransform="matrix(0,-1,1,0,0,95)" gradientUnits="userSpaceOnUse" xlink:href="#linearGradient4081"/><linearGradient id="linearGradient3721" x1="27" x2="69" y1="48" y2="48" gradientTransform="matrix(0,-1,1,0,0,96)" gradientUnits="userSpaceOnUse" xlink:href="#linearGradient4081"/><linearGradient id="linearGradient2428" x1="11.999" x2="11.999" y1=".922" y2="17.478" gradientTransform="matrix(0.9247229,0,0,1.0872097,-3.0600562,0.9976422)" gradientUnits="userSpaceOnUse" xlink:href="#StandardGradient-7"/><linearGradient id="StandardGradient-7" x1="11.999" x2="11.999" y1=".922" y2="19.387" gradientTransform="scale(0.9219544,1.0846523)" gradientUnits="userSpaceOnUse"><stop id="stop3283" offset="0" stop-color="#000" stop-opacity=".863"/><stop id="stop2651" offset="1" stop-color="#000" stop-opacity=".471"/></linearGradient><linearGradient id="linearGradient2869" x1="18.449" x2="18.449" y1="17.478" y2=".922" gradientTransform="matrix(2.4659278,0,0,2.8992258,10.506518,21.327046)" gradientUnits="userSpaceOnUse" xlink:href="#linearGradient4081"/><linearGradient id="linearGradient3724" x1="18.449" x2="18.449" y1="17.478" y2=".922" gradientTransform="matrix(2.4659278,0,0,2.8992258,10.506518,22.327046)" gradientUnits="userSpaceOnUse" xlink:href="#linearGradient4081"/><linearGradient id="linearGradient3726" x1="18.449" x2="18.449" y1="17.478" y2=".922" gradientTransform="matrix(2.4659278,0,0,2.8992258,10.506518,21.327046)" gradientUnits="userSpaceOnUse" xlink:href="#linearGradient4081"/><linearGradient id="linearGradient3733" x1="18.449" x2="18.449" y1="17.478" y2=".922" gradientTransform="matrix(2.4659278,0,0,2.8992258,10.506518,20.327046)" gradientUnits="userSpaceOnUse" xlink:href="#linearGradient4081"/><linearGradient id="linearGradient3735" x1="18.449" x2="18.449" y1="17.478" y2=".922" gradientTransform="matrix(2.4659278,0,0,2.8992258,10.506518,21.327046)" gradientUnits="userSpaceOnUse" xlink:href="#linearGradient4081"/><linearGradient id="linearGradient2410" x1="11.999" x2="11.999" y1="1.842" y2="20.239" gradientTransform="matrix(0.9247229,0,0,1.0872097,-7.0600562,-1.0023578)" gradientUnits="userSpaceOnUse" xlink:href="#StandardGradient-78"/><linearGradient id="StandardGradient-78" x1="11.999" x2="11.999" y1=".922" y2="19.387" gradientTransform="scale(0.9219544,1.0846523)" gradientUnits="userSpaceOnUse"><stop id="stop3283-6" offset="0" stop-color="#000" stop-opacity=".863"/><stop id="stop2651-8" offset="1" stop-color="#000" stop-opacity=".471"/></linearGradient><linearGradient id="linearGradient2862" x1="19.53" x2="19.53" y1="20.237" y2="1.842" gradientTransform="matrix(2.219335,0,0,2.6093033,4.655865,19.194341)" gradientUnits="userSpaceOnUse" xlink:href="#linearGradient4081"/><linearGradient id="linearGradient3730" x1="19.53" x2="19.53" y1="20.237" y2="1.842" gradientTransform="matrix(2.219335,0,0,2.6093033,4.655865,20.194341)" gradientUnits="userSpaceOnUse" xlink:href="#linearGradient4081"/><linearGradient id="linearGradient3732" x1="19.53" x2="19.53" y1="20.237" y2="1.842" gradientTransform="matrix(2.219335,0,0,2.6093033,4.655865,19.194341)" gradientUnits="userSpaceOnUse" xlink:href="#linearGradient4081"/><linearGradient id="linearGradient3739" x1="19.53" x2="19.53" y1="20.237" y2="1.842" gradientTransform="matrix(2.219335,0,0,2.6093033,4.655865,18.194341)" gradientUnits="userSpaceOnUse" xlink:href="#linearGradient4081"/><linearGradient id="linearGradient3741" x1="19.53" x2="19.53" y1="20.237" y2="1.842" gradientTransform="matrix(2.219335,0,0,2.6093033,4.655865,19.194341)" gradientUnits="userSpaceOnUse" xlink:href="#linearGradient4081"/><linearGradient id="linearGradient3016" x1="32.251" x2="32.251" y1="6.132" y2="90.239" gradientTransform="matrix(1.0238095,0,0,-1.0119048,-1.1428571,98.071429)" gradientUnits="userSpaceOnUse" xlink:href="#ButtonShadow-0"/><linearGradient id="ButtonShadow-0" x1="45.448" x2="45.448" y1="92.54" y2="7.017" gradientTransform="matrix(1.0058652,0,0,0.994169,100,0)" gradientUnits="userSpaceOnUse"><stop id="stop3750-8" offset="0" stop-color="#000" stop-opacity="1"/><stop id="stop3752-5" offset="1" stop-color="#000" stop-opacity=".588"/></linearGradient><linearGradient id="linearGradient3780" x1="32.251" x2="32.251" y1="6.132" y2="90.239" gradientTransform="matrix(1.0238095,0,0,-1.0119048,-1.1428571,98.071429)" gradientUnits="userSpaceOnUse" xlink:href="#ButtonShadow-0"/><linearGradient id="linearGradient3184" x1="45.448" x2="45.448" y1="92.54" y2="7.017" gradientTransform="matrix(1.0058652,0,0,0.994169,100,0)" gradientUnits="userSpaceOnUse"><stop id="stop3186" offset="0" stop-color="#000" stop-opacity="1"/><stop id="stop3188" offset="1" stop-color="#000" stop-opacity=".588"/></linearGradient><linearGradient id="linearGradient3772" x1="32.251" x2="32.251" y1="6.132" y2="90.239" gradientTransform="matrix(1.0238095,0,0,-1.0119048,-1.1428571,98.071429)" gradientUnits="userSpaceOnUse" xlink:href="#ButtonShadow-0"/><linearGradient id="linearGradient3191" x1="45.448" x2="45.448" y1="92.54" y2="7.017" gradientTransform="matrix(1.0058652,0,0,0.994169,100,0)" gradientUnits="userSpaceOnUse"><stop id="stop3193" offset="0" stop-color="#000" stop-opacity="1"/><stop id="stop3195" offset="1" stop-color="#000" stop-opacity=".588"/></linearGradient><linearGradient id="linearGradient3725-9" x1="32.251" x2="32.251" y1="6.132" y2="90.239" gradientTransform="matrix(1.0238095,0,0,-1.0119048,-1.1428571,98.071429)" gradientUnits="userSpaceOnUse" xlink:href="#ButtonShadow-0"/><linearGradient id="linearGradient3198" x1="45.448" x2="45.448" y1="92.54" y2="7.017" gradientTransform="matrix(1.0058652,0,0,0.994169,100,0)" gradientUnits="userSpaceOnUse"><stop id="stop3200" offset="0" stop-color="#000" stop-opacity="1"/><stop id="stop3202" offset="1" stop-color="#000" stop-opacity=".588"/></linearGradient><linearGradient id="linearGradient3721-7" x1="32.251" x2="32.251" y1="6.132" y2="90.239" gradientTransform="matrix(1,0,0,-1,0,97)" gradientUnits="userSpaceOnUse" xlink:href="#ButtonShadow-0"/><linearGradient id="linearGradient3205" x1="45.448" x2="45.448" y1="92.54" y2="7.017" gradientTransform="matrix(1.0058652,0,0,0.994169,100,0)" gradientUnits="userSpaceOnUse"><stop id="stop3207" offset="0" stop-color="#000" stop-opacity="1"/><stop id="stop3209" offset="1" stop-color="#000" stop-opacity=".588"/></linearGradient><linearGradient id="linearGradient3216" x1="32.251" x2="32.251" y1="6.132" y2="90.239" gradientTransform="matrix(1.0238095,0,0,-1.0119048,-1.1428571,98.071429)" gradientUnits="userSpaceOnUse" xlink:href="#ButtonShadow-0"/><linearGradient id="linearGradient3188-4" x1="36.357" x2="36.357" y1="6" y2="63.893" gradientUnits="userSpaceOnUse" xlink:href="#linearGradient3737-5"/><linearGradient id="linearGradient3737-5"><stop id="stop3739-0" offset="0" stop-color="#fff" stop-opacity="1"/><stop id="stop3741-0" offset="1" stop-color="#fff" stop-opacity="0"/></linearGradient><radialGradient id="radialGradient3619-2" cx="48" cy="90.172" r="42" fx="48" fy="90.172" gradientTransform="matrix(1.1573129,0,0,0.99590774,-7.551021,0.1971319)" gradientUnits="userSpaceOnUse" xlink:href="#linearGradient3737-5"/><linearGradient id="linearGradient3968" x1="24" x2="72" y1="48" y2="48" gradientUnits="userSpaceOnUse" xlink:href="#linearGradient3637"/><linearGradient id="linearGradient4002" x1="38" x2="38" y1="24" y2="72" gradientUnits="userSpaceOnUse" xlink:href="#linearGradient3637"/></defs><metadata id="metadata2413"/><g id="layer2" display="none"><rect id="rect3745" width="86" height="85" x="5" y="7" fill="url(#ButtonShadow)" fill-opacity="1" fill-rule="nonzero" stroke="none" clip-path="url(#clipPath3625)" filter="url(#filter3174)" opacity=".9" rx="6" ry="6"/></g><g id="layer4" display="inline"><path id="path3786" fill="url(#linearGradient3216)" fill-opacity="1" fill-rule="nonzero" stroke="none" d="M 12,3.96875 C 6.4889098,3.96875 1.96875,8.4889098 1.96875,14 l 0,71 c 0,5.51109 4.5201597,10.03125 10.03125,10.03125 l 72,0 c 5.51109,0 10.03125,-4.52016 10.03125,-10.03125 l 0,-71 C 94.03125,8.4889097 89.51109,3.96875 84,3.96875 l -72,0 z M 12,6 84,6 c 3.324,0 6,2.676 6,6 l 0,72 c 0,3.324 -2.676,6 -6,6 L 12,90 C 8.676,90 6,87.324 6,84 L 6,12 C 6,8.676 8.676,6 12,6 z" display="inline" opacity=".08"/><path id="path3778" fill="url(#linearGradient3780)" fill-opacity="1" fill-rule="nonzero" stroke="none" d="M 12,4.96875 C 7.0283671,4.96875 2.96875,9.0283671 2.96875,14 l 0,71 c 0,4.971633 4.059617,9.03125 9.03125,9.03125 l 72,0 c 4.971633,0 9.03125,-4.059617 9.03125,-9.03125 l 0,-71 C 93.03125,9.028367 88.971633,4.96875 84,4.96875 l -72,0 z M 12,6 84,6 c 3.324,0 6,2.676 6,6 l 0,72 c 0,3.324 -2.676,6 -6,6 L 12,90 C 8.676,90 6,87.324 6,84 L 6,12 C 6,8.676 8.676,6 12,6 z" display="inline" opacity=".1"/><path id="path3770" fill="url(#linearGradient3772)" fill-opacity="1" fill-rule="nonzero" stroke="none" d="M 11.1875,6.03125 C 7.159982,6.4419011 4,9.8664375 4,14 l 0,71 c 0,4.409133 3.590867,8 8,8 l 72,0 c 4.409133,0 8,-3.590867 8,-8 L 92,14 C 92,9.8029382 88.741028,6.3539584 84.625,6.03125 87.657886,6.337417 90,8.88375 90,12 l 0,72 c 0,3.324 -2.676,6 -6,6 L 12,90 C 8.676,90 6,87.324 6,84 L 6,12 c 0,-3.11625 2.342114,-5.662583 5.375,-5.96875 -0.06227,0.00488 -0.12563,-0.00631 -0.1875,0 z" display="inline" opacity=".2"/><path id="rect3723" fill="url(#linearGradient3725-9)" fill-opacity="1" fill-rule="nonzero" stroke="none" d="M 6.4375,9.75 C 5.5380109,10.927446 5,12.397277 5,14 l 0,71 c 0,3.878 3.122,7 7,7 l 72,0 c 3.878,0 7,-3.122 7,-7 L 91,14 C 91,12.397277 90.461989,10.927446 89.5625,9.75 89.841816,10.444095 90,11.203625 90,12 l 0,72 c 0,3.324 -2.676,6 -6,6 L 12,90 C 8.676,90 6,87.324 6,84 L 6,12 C 6,11.203625 6.1581836,10.444095 6.4375,9.75 z" display="inline" opacity=".3"/><path id="rect3716" fill="url(#linearGradient3721-7)" fill-opacity="1" fill-rule="nonzero" stroke="none" d="m 6,84 0,1 c 0,3.324 2.676,6 6,6 l 72,0 c 3.324,0 6,-2.676 6,-6 l 0,-1 c 0,3.324 -2.676,6 -6,6 L 12,90 C 8.676,90 6,87.324 6,84 z" display="inline" opacity=".45"/></g><g id="layer1" display="none"><rect id="rect2419" width="84" height="84" x="6" y="6" fill="#000" fill-opacity="1" fill-rule="nonzero" stroke="none" opacity=".7" rx="6" ry="6"/><path id="rect3726" fill="#000" fill-opacity="1" fill-rule="nonzero" stroke="none" d="m 14,10 c -2.216,0 -4,1.784 -4,4 l 0,68 c 0,2.216 1.784,4 4,4 l 68,0 c 2.216,0 4,-1.784 4,-4 l 0,-68 c 0,-2.216 -1.784,-4 -4,-4 l -68,0 z m 0,3.0625 68,0 c 0.578769,0 0.9375,0.358731 0.9375,0.9375 l 0,68 c 0,0.578769 -0.358731,0.9375 -0.9375,0.9375 l -68,0 c -0.578769,0 -0.9375,-0.358731 -0.9375,-0.9375 l 0,-68 c 0,-0.578769 0.358731,-0.9375 0.9375,-0.9375 z" opacity=".08"/><path id="rect3629" fill="url(#linearGradient3643)" fill-opacity="1" fill-rule="nonzero" stroke="none" d="M 12,6 C 8.676,6 6,8.676 6,12 l 0,72 c 0,3.324 2.676,6 6,6 l 72,0 c 3.324,0 6,-2.676 6,-6 L 90,12 C 90,8.676 87.324,6 84,6 L 12,6 z m 2,4 68,0 c 2.216,0 4,1.784 4,4 l 0,68 c 0,2.216 -1.784,4 -4,4 l -68,0 c -2.216,0 -4,-1.784 -4,-4 l 0,-68 c 0,-2.216 1.784,-4 4,-4 z"/><path id="rect3728" fill="url(#linearGradient3188)" fill-opacity="1" fill-rule="nonzero" stroke="none" d="M 12,6 C 8.676,6 6,8.676 6,12 l 0,2 0,68 0,2 c 0,0.334721 0.04135,0.6507 0.09375,0.96875 0.0487,0.295596 0.09704,0.596915 0.1875,0.875 0.00988,0.03038 0.020892,0.0636 0.03125,0.09375 0.098865,0.287771 0.2348802,0.547452 0.375,0.8125 0.1445918,0.273507 0.3156161,0.535615 0.5,0.78125 0.1843839,0.245635 0.3737765,0.473472 0.59375,0.6875 0.439947,0.428056 0.94291,0.814526 1.5,1.09375 0.278545,0.139612 0.5734731,0.246947 0.875,0.34375 -0.2562018,-0.100222 -0.4867109,-0.236272 -0.71875,-0.375 -0.00741,-0.0044 -0.023866,0.0045 -0.03125,0 -0.031933,-0.0193 -0.062293,-0.04251 -0.09375,-0.0625 -0.120395,-0.0767 -0.2310226,-0.163513 -0.34375,-0.25 -0.1061728,-0.0808 -0.2132809,-0.161112 -0.3125,-0.25 C 8.4783201,88.557317 8.3087904,88.373362 8.15625,88.1875 8.0486711,88.057245 7.9378561,87.922215 7.84375,87.78125 7.818661,87.74287 7.805304,87.69538 7.78125,87.65625 7.716487,87.553218 7.6510225,87.451733 7.59375,87.34375 7.4927417,87.149044 7.3880752,86.928049 7.3125,86.71875 7.30454,86.69694 7.288911,86.6782 7.28125,86.65625 7.2494249,86.5643 7.2454455,86.469419 7.21875,86.375 7.1884177,86.268382 7.1483606,86.171969 7.125,86.0625 7.0521214,85.720988 7,85.364295 7,85 L 7,83 7,15 7,13 C 7,10.218152 9.2181517,8 12,8 l 2,0 68,0 2,0 c 2.781848,0 5,2.218152 5,5 l 0,2 0,68 0,2 c 0,0.364295 -0.05212,0.720988 -0.125,1.0625 -0.04415,0.206893 -0.08838,0.397658 -0.15625,0.59375 -0.0077,0.02195 -0.0233,0.04069 -0.03125,0.0625 -0.06274,0.173739 -0.138383,0.367449 -0.21875,0.53125 -0.04158,0.0828 -0.07904,0.169954 -0.125,0.25 -0.0546,0.09721 -0.126774,0.18835 -0.1875,0.28125 -0.09411,0.140965 -0.204921,0.275995 -0.3125,0.40625 -0.143174,0.17445 -0.303141,0.346998 -0.46875,0.5 -0.01117,0.0102 -0.01998,0.02115 -0.03125,0.03125 -0.138386,0.125556 -0.285091,0.234436 -0.4375,0.34375 -0.102571,0.07315 -0.204318,0.153364 -0.3125,0.21875 -0.0074,0.0045 -0.02384,-0.0044 -0.03125,0 -0.232039,0.138728 -0.462548,0.274778 -0.71875,0.375 0.301527,-0.0968 0.596455,-0.204138 0.875,-0.34375 0.55709,-0.279224 1.060053,-0.665694 1.5,-1.09375 0.219973,-0.214028 0.409366,-0.441865 0.59375,-0.6875 0.184384,-0.245635 0.355408,-0.507743 0.5,-0.78125 0.14012,-0.265048 0.276135,-0.524729 0.375,-0.8125 0.01041,-0.03078 0.02133,-0.06274 0.03125,-0.09375 0.09046,-0.278085 0.1388,-0.579404 0.1875,-0.875 C 89.95865,84.6507 90,84.334721 90,84 l 0,-2 0,-68 0,-2 C 90,8.676 87.324,6 84,6 L 12,6 z"/><path id="path3615" fill="url(#radialGradient3619)" fill-opacity="1" fill-rule="nonzero" stroke="none" d="M 12,90 C 8.676,90 6,87.324 6,84 L 6,82 6,14 6,12 c 0,-0.334721 0.04135,-0.6507 0.09375,-0.96875 0.0487,-0.295596 0.09704,-0.596915 0.1875,-0.875 C 6.29113,10.12587 6.302142,10.09265 6.3125,10.0625 6.411365,9.774729 6.5473802,9.515048 6.6875,9.25 6.8320918,8.976493 7.0031161,8.714385 7.1875,8.46875 7.3718839,8.223115 7.5612765,7.995278 7.78125,7.78125 8.221197,7.353194 8.72416,6.966724 9.28125,6.6875 9.559795,6.547888 9.8547231,6.440553 10.15625,6.34375 9.9000482,6.443972 9.6695391,6.580022 9.4375,6.71875 c -0.00741,0.0044 -0.023866,-0.0045 -0.03125,0 -0.031933,0.0193 -0.062293,0.04251 -0.09375,0.0625 -0.120395,0.0767 -0.2310226,0.163513 -0.34375,0.25 -0.1061728,0.0808 -0.2132809,0.161112 -0.3125,0.25 C 8.4783201,7.442683 8.3087904,7.626638 8.15625,7.8125 8.0486711,7.942755 7.9378561,8.077785 7.84375,8.21875 7.818661,8.25713 7.805304,8.30462 7.78125,8.34375 7.716487,8.446782 7.6510225,8.548267 7.59375,8.65625 7.4927417,8.850956 7.3880752,9.071951 7.3125,9.28125 7.30454,9.30306 7.288911,9.3218 7.28125,9.34375 7.2494249,9.4357 7.2454455,9.530581 7.21875,9.625 7.1884177,9.731618 7.1483606,9.828031 7.125,9.9375 7.0521214,10.279012 7,10.635705 7,11 l 0,2 0,68 0,2 c 0,2.781848 2.2181517,5 5,5 l 2,0 68,0 2,0 c 2.781848,0 5,-2.218152 5,-5 l 0,-2 0,-68 0,-2 C 89,10.635705 88.94788,10.279012 88.875,9.9375 88.83085,9.730607 88.78662,9.539842 88.71875,9.34375 88.71105,9.3218 88.69545,9.30306 88.6875,9.28125 88.62476,9.107511 88.549117,8.913801 88.46875,8.75 88.42717,8.6672 88.38971,8.580046 88.34375,8.5 88.28915,8.40279 88.216976,8.31165 88.15625,8.21875 88.06214,8.077785 87.951329,7.942755 87.84375,7.8125 87.700576,7.63805 87.540609,7.465502 87.375,7.3125 87.36383,7.3023 87.35502,7.29135 87.34375,7.28125 87.205364,7.155694 87.058659,7.046814 86.90625,6.9375 86.803679,6.86435 86.701932,6.784136 86.59375,6.71875 c -0.0074,-0.0045 -0.02384,0.0044 -0.03125,0 -0.232039,-0.138728 -0.462548,-0.274778 -0.71875,-0.375 0.301527,0.0968 0.596455,0.204138 0.875,0.34375 0.55709,0.279224 1.060053,0.665694 1.5,1.09375 0.219973,0.214028 0.409366,0.441865 0.59375,0.6875 0.184384,0.245635 0.355408,0.507743 0.5,0.78125 0.14012,0.265048 0.276135,0.524729 0.375,0.8125 0.01041,0.03078 0.02133,0.06274 0.03125,0.09375 0.09046,0.278085 0.1388,0.579404 0.1875,0.875 C 89.95865,11.3493 90,11.665279 90,12 l 0,2 0,68 0,2 c 0,3.324 -2.676,6 -6,6 l -72,0 z" opacity=".6"/><rect id="rect2841" width="84" height="84" x="6" y="106" fill="url(#linearGradient2843)" fill-opacity="1" fill-rule="nonzero" stroke="none" rx="6" ry="6"/><rect id="rect3634" width="76" height="76" x="10" y="110" fill="red" fill-opacity="1" fill-rule="nonzero" stroke="none" rx="4" ry="4"/><path font-size="medium" style="text-indent:0;text-align:start;line-height:normal;text-transform:none;block-progression:tb;marker:none;-inkscape-font-specification:Abandoned Bitplane" id="rect3647" fill="#000" fill-opacity="1" stroke="none" stroke-width="2" d="m 14,9 c -2.752703,0 -5,2.247297 -5,5 l 0,68 c 0,2.752703 2.247297,5 5,5 l 68,0 c 2.752703,0 5,-2.247297 5,-5 L 87,14 C 87,11.247297 84.752703,9 82,9 L 14,9 z m 0,2 68,0 c 1.679297,0 3,1.320703 3,3 l 0,68 c 0,1.679297 -1.320703,3 -3,3 l -68,0 c -1.679297,0 -3,-1.320703 -3,-3 l 0,-68 c 0,-1.679297 1.320703,-3 3,-3 z" clip-path="url(#clipPath3649)" color="#000" direction="ltr" display="inline" enable-background="accumulate" filter="url(#filter3657)" font-family="Abandoned Bitplane" font-stretch="normal" font-style="normal" font-variant="normal" font-weight="normal" letter-spacing="normal" overflow="visible" text-anchor="start" text-decoration="none" transform="translate(-110,0)" visibility="visible" word-spacing="normal" writing-mode="lr-tb"/><path id="path3709" fill="#000" fill-opacity="1" fill-rule="nonzero" stroke="none" d="m 14.089286,10 c -2.216,0 -4,1.784 -4,4 l 0,68 c 0,2.216 1.784,4 4,4 l 68,0 c 2.216,0 4,-1.784 4,-4 l 0,-68 c 0,-2.216 -1.784,-4 -4,-4 l -68,0 z m 0,2 68,0 c 1.140301,0 2,0.859699 2,2 l 0,68 c 0,1.140301 -0.859699,2 -2,2 l -68,0 c -1.140301,0 -2,-0.859699 -2,-2 l 0,-68 c 0,-1.140301 0.859699,-2 2,-2 z" opacity=".16"/><path id="path3707" fill="#000" fill-opacity="1" fill-rule="nonzero" stroke="none" d="m 14,10 c -2.216,0 -4,1.784 -4,4 l 0,68 c 0,2.216 1.784,4 4,4 l 68,0 c 2.216,0 4,-1.784 4,-4 l 0,-68 c 0,-2.216 -1.784,-4 -4,-4 l -68,0 z m 0,1 68,0 c 1.673848,0 3,1.326152 3,3 l 0,68 c 0,1.673848 -1.326152,3 -3,3 l -68,0 c -1.673848,0 -3,-1.326152 -3,-3 l 0,-68 c 0,-1.673848 1.326152,-3 3,-3 z" opacity=".36"/></g><g id="layer11" display="inline"><rect id="rect2419-6" width="84" height="84" x="6" y="6" fill="#000" fill-opacity="1" fill-rule="nonzero" stroke="none" display="inline" opacity=".6" rx="6" ry="6"/><path id="rect3728-9" fill="url(#linearGradient3188-4)" fill-opacity="1" fill-rule="nonzero" stroke="none" d="M 12,6 C 8.676,6 6,8.676 6,12 l 0,2 0,68 0,2 c 0,0.334721 0.04135,0.6507 0.09375,0.96875 0.0487,0.295596 0.09704,0.596915 0.1875,0.875 0.00988,0.03038 0.020892,0.0636 0.03125,0.09375 0.098865,0.287771 0.2348802,0.547452 0.375,0.8125 0.1445918,0.273507 0.3156161,0.535615 0.5,0.78125 0.1843839,0.245635 0.3737765,0.473472 0.59375,0.6875 0.439947,0.428056 0.94291,0.814526 1.5,1.09375 0.278545,0.139612 0.5734731,0.246947 0.875,0.34375 -0.2562018,-0.100222 -0.4867109,-0.236272 -0.71875,-0.375 -0.00741,-0.0044 -0.023866,0.0045 -0.03125,0 -0.031933,-0.0193 -0.062293,-0.04251 -0.09375,-0.0625 -0.120395,-0.0767 -0.2310226,-0.163513 -0.34375,-0.25 -0.1061728,-0.0808 -0.2132809,-0.161112 -0.3125,-0.25 C 8.4783201,88.557317 8.3087904,88.373362 8.15625,88.1875 8.0486711,88.057245 7.9378561,87.922215 7.84375,87.78125 7.818661,87.74287 7.805304,87.69538 7.78125,87.65625 7.716487,87.553218 7.6510225,87.451733 7.59375,87.34375 7.4927417,87.149044 7.3880752,86.928049 7.3125,86.71875 7.30454,86.69694 7.288911,86.6782 7.28125,86.65625 7.2494249,86.5643 7.2454455,86.469419 7.21875,86.375 7.1884177,86.268382 7.1483606,86.171969 7.125,86.0625 7.0521214,85.720988 7,85.364295 7,85 L 7,83 7,15 7,13 C 7,10.218152 9.2181517,8 12,8 l 2,0 68,0 2,0 c 2.781848,0 5,2.218152 5,5 l 0,2 0,68 0,2 c 0,0.364295 -0.05212,0.720988 -0.125,1.0625 -0.04415,0.206893 -0.08838,0.397658 -0.15625,0.59375 -0.0077,0.02195 -0.0233,0.04069 -0.03125,0.0625 -0.06274,0.173739 -0.138383,0.367449 -0.21875,0.53125 -0.04158,0.0828 -0.07904,0.169954 -0.125,0.25 -0.0546,0.09721 -0.126774,0.18835 -0.1875,0.28125 -0.09411,0.140965 -0.204921,0.275995 -0.3125,0.40625 -0.143174,0.17445 -0.303141,0.346998 -0.46875,0.5 -0.01117,0.0102 -0.01998,0.02115 -0.03125,0.03125 -0.138386,0.125556 -0.285091,0.234436 -0.4375,0.34375 -0.102571,0.07315 -0.204318,0.153364 -0.3125,0.21875 -0.0074,0.0045 -0.02384,-0.0044 -0.03125,0 -0.232039,0.138728 -0.462548,0.274778 -0.71875,0.375 0.301527,-0.0968 0.596455,-0.204138 0.875,-0.34375 0.55709,-0.279224 1.060053,-0.665694 1.5,-1.09375 0.219973,-0.214028 0.409366,-0.441865 0.59375,-0.6875 0.184384,-0.245635 0.355408,-0.507743 0.5,-0.78125 0.14012,-0.265048 0.276135,-0.524729 0.375,-0.8125 0.01041,-0.03078 0.02133,-0.06274 0.03125,-0.09375 0.09046,-0.278085 0.1388,-0.579404 0.1875,-0.875 C 89.95865,84.6507 90,84.334721 90,84 l 0,-2 0,-68 0,-2 C 90,8.676 87.324,6 84,6 L 12,6 z" display="inline" opacity=".01"/><path id="path3615-4" fill="url(#radialGradient3619-2)" fill-opacity="1" fill-rule="nonzero" stroke="none" d="M 12,90 C 8.676,90 6,87.324 6,84 L 6,82 6,14 6,12 c 0,-0.334721 0.04135,-0.6507 0.09375,-0.96875 0.0487,-0.295596 0.09704,-0.596915 0.1875,-0.875 C 6.29113,10.12587 6.302142,10.09265 6.3125,10.0625 6.411365,9.774729 6.5473802,9.515048 6.6875,9.25 6.8320918,8.976493 7.0031161,8.714385 7.1875,8.46875 7.3718839,8.223115 7.5612765,7.995278 7.78125,7.78125 8.221197,7.353194 8.72416,6.966724 9.28125,6.6875 9.559795,6.547888 9.8547231,6.440553 10.15625,6.34375 9.9000482,6.443972 9.6695391,6.580022 9.4375,6.71875 c -0.00741,0.0044 -0.023866,-0.0045 -0.03125,0 -0.031933,0.0193 -0.062293,0.04251 -0.09375,0.0625 -0.120395,0.0767 -0.2310226,0.163513 -0.34375,0.25 -0.1061728,0.0808 -0.2132809,0.161112 -0.3125,0.25 C 8.4783201,7.442683 8.3087904,7.626638 8.15625,7.8125 8.0486711,7.942755 7.9378561,8.077785 7.84375,8.21875 7.818661,8.25713 7.805304,8.30462 7.78125,8.34375 7.716487,8.446782 7.6510225,8.548267 7.59375,8.65625 7.4927417,8.850956 7.3880752,9.071951 7.3125,9.28125 7.30454,9.30306 7.288911,9.3218 7.28125,9.34375 7.2494249,9.4357 7.2454455,9.530581 7.21875,9.625 7.1884177,9.731618 7.1483606,9.828031 7.125,9.9375 7.0521214,10.279012 7,10.635705 7,11 l 0,2 0,68 0,2 c 0,2.781848 2.2181517,5 5,5 l 2,0 68,0 2,0 c 2.781848,0 5,-2.218152 5,-5 l 0,-2 0,-68 0,-2 C 89,10.635705 88.94788,10.279012 88.875,9.9375 88.83085,9.730607 88.78662,9.539842 88.71875,9.34375 88.71105,9.3218 88.69545,9.30306 88.6875,9.28125 88.62476,9.107511 88.549117,8.913801 88.46875,8.75 88.42717,8.6672 88.38971,8.580046 88.34375,8.5 88.28915,8.40279 88.216976,8.31165 88.15625,8.21875 88.06214,8.077785 87.951329,7.942755 87.84375,7.8125 87.700576,7.63805 87.540609,7.465502 87.375,7.3125 87.36383,7.3023 87.35502,7.29135 87.34375,7.28125 87.205364,7.155694 87.058659,7.046814 86.90625,6.9375 86.803679,6.86435 86.701932,6.784136 86.59375,6.71875 c -0.0074,-0.0045 -0.02384,0.0044 -0.03125,0 -0.232039,-0.138728 -0.462548,-0.274778 -0.71875,-0.375 0.301527,0.0968 0.596455,0.204138 0.875,0.34375 0.55709,0.279224 1.060053,0.665694 1.5,1.09375 0.219973,0.214028 0.409366,0.441865 0.59375,0.6875 0.184384,0.245635 0.355408,0.507743 0.5,0.78125 0.14012,0.265048 0.276135,0.524729 0.375,0.8125 0.01041,0.03078 0.02133,0.06274 0.03125,0.09375 0.09046,0.278085 0.1388,0.579404 0.1875,0.875 C 89.95865,11.3493 90,11.665279 90,12 l 0,2 0,68 0,2 c 0,3.324 -2.676,6 -6,6 l -72,0 z" display="inline" opacity=".15"/></g><g id="layer3" display="inline"><path id="path3752" fill="#000" fill-opacity="1" stroke="none" d="M 27.59375 23 C 24.521902 23 22 25.521902 22 28.59375 L 22 55.4375 C 22 58.506603 24.505515 61.0625 27.59375 61.0625 L 48.40625 61.0625 C 48.407888 61.103597 48.40625 61.156249 48.40625 61.15625 L 48.4375 61.28125 L 48.46875 61.4375 L 48.5 61.5625 L 48.53125 61.71875 L 48.59375 61.84375 L 48.65625 61.96875 L 48.71875 62.09375 L 48.8125 62.21875 L 48.90625 62.3125 L 59.65625 74.3125 L 59.71875 74.40625 L 59.8125 74.46875 L 59.875 74.53125 L 59.96875 74.59375 L 60.0625 74.65625 L 60.15625 74.71875 L 60.25 74.78125 L 60.34375 74.8125 L 60.4375 74.84375 L 60.53125 74.90625 L 60.625 74.9375 L 60.75 74.9375 L 60.84375 74.96875 L 60.9375 74.96875 L 61.0625 75 L 61.15625 75 L 61.25 75 L 61.375 74.96875 L 61.46875 74.96875 L 61.5625 74.9375 L 61.6875 74.9375 L 61.78125 74.90625 L 61.875 74.84375 L 61.96875 74.8125 L 62.0625 74.78125 L 62.15625 74.71875 L 62.25 74.65625 L 62.34375 74.59375 L 62.4375 74.53125 L 62.5 74.46875 L 62.59375 74.40625 L 62.65625 74.3125 L 73.5 62.3125 L 73.59375 62.21875 L 73.6875 62.09375 L 73.75 61.96875 L 73.8125 61.84375 L 73.875 61.71875 L 73.90625 61.5625 L 73.9375 61.4375 L 73.96875 61.28125 L 74 61.15625 L 74 61 L 74 60.875 L 73.96875 60.71875 L 73.9375 60.59375 L 73.90625 60.4375 L 73.875 60.3125 L 73.8125 60.1875 L 73.75 60.03125 L 73.6875 59.9375 L 73.59375 59.8125 L 73.5 59.6875 L 73.40625 59.59375 L 73.3125 59.5 L 73.1875 59.40625 L 73.09375 59.3125 L 72.96875 59.25 L 72.84375 59.1875 L 72.6875 59.125 L 72.5625 59.09375 L 72.4375 59.0625 L 72.28125 59.03125 L 72.15625 59 L 72 59 L 68 59 L 68 55.15625 L 68 54.96875 L 67.96875 54.78125 L 67.90625 54.5625 L 67.84375 54.40625 L 67.75 54.21875 C 67.749999 54.218747 67.676452 54.096244 67.65625 54.0625 C 67.653142 54.057309 67.65625 54.03125 67.65625 54.03125 C 67.676452 53.997506 67.749999 53.875003 67.75 53.875 L 67.84375 53.6875 L 67.90625 53.53125 L 67.96875 53.3125 L 68 53.125 L 68 52.9375 L 68 49.09375 L 68 48.90625 L 67.96875 48.71875 L 67.90625 48.5 L 67.84375 48.34375 L 67.75 48.15625 C 67.749999 48.156248 67.713319 48.043128 67.6875 48 C 67.717383 47.950084 67.749999 47.875002 67.75 47.875 L 67.84375 47.6875 L 67.90625 47.53125 L 67.96875 47.3125 L 68 47.125 L 68 46.9375 L 68 45.03125 L 68 44.84375 L 67.96875 44.65625 L 67.90625 44.4375 L 67.84375 44.28125 L 67.75 44.09375 L 67.65625 43.90625 L 67.53125 43.75 L 67.40625 43.625 L 67.28125 43.5 L 67.125 43.375 L 66.9375 43.28125 L 66.75 43.1875 L 66.59375 43.125 L 66.375 43.0625 L 66.1875 43.03125 L 66 43.03125 L 56.125 43.03125 L 56.09375 43.03125 L 56.03125 43.03125 L 55.96875 43.03125 L 55.875 43.03125 A 0.99834447 0.99834447 0 0 0 55.71875 43.0625 L 55.5625 43.09375 L 55.375 43.15625 L 55.21875 43.21875 L 55.0625 43.3125 L 54.9375 43.40625 L 54.78125 43.5 L 54.65625 43.625 L 54.53125 43.75 L 54.4375 43.90625 L 54.34375 44.03125 L 54.28125 44.1875 L 54.21875 44.375 L 54.15625 44.53125 L 54.125 44.6875 L 54.09375 44.875 C 54.09375 44.875002 54.094752 44.990753 54.09375 45.03125 C 54.09355 45.039349 54.09375 45.0625 54.09375 45.0625 L 54.09375 46.9375 L 54.09375 47.125 L 54.125 47.3125 L 54.1875 47.53125 L 54.25 47.6875 L 54.34375 47.875 C 54.343751 47.875002 54.376367 47.950084 54.40625 48 C 54.379661 48.043289 54.343751 48.093748 54.34375 48.09375 L 54.28125 48.25 L 54.21875 48.4375 L 54.15625 48.59375 L 54.125 48.75 L 54.09375 48.9375 C 54.09375 48.937502 54.094752 49.053253 54.09375 49.09375 C 54.09355 49.101849 54.09375 49.125 54.09375 49.125 L 54.09375 52.9375 L 54.09375 53.125 L 54.125 53.3125 L 54.1875 53.53125 L 54.25 53.6875 L 54.34375 53.875 C 54.343751 53.875003 54.417298 53.997506 54.4375 54.03125 C 54.440608 54.036441 54.4375 54.0625 54.4375 54.0625 C 54.416819 54.09617 54.343751 54.156248 54.34375 54.15625 L 54.28125 54.3125 L 54.21875 54.5 L 54.15625 54.65625 L 54.125 54.8125 L 54.09375 55 C 54.09375 55.000002 54.094752 55.115753 54.09375 55.15625 C 54.09355 55.164349 54.09375 55.1875 54.09375 55.1875 L 54.09375 59 L 52.71875 59 C 53.532323 58.020455 54.0625 56.794988 54.0625 55.4375 L 54.0625 28.59375 C 54.0625 25.521902 51.540598 23 48.46875 23 L 27.59375 23 z M 31.96875 32.96875 L 44.09375 32.96875 L 44.09375 51.09375 L 31.96875 51.09375 L 31.96875 32.96875 z M 27 64.96875 C 24.238794 64.96875 21.96875 67.238794 21.96875 70 C 21.96875 72.761206 24.238794 75.03125 27 75.03125 C 29.705645 75.03125 31.911245 72.841764 32 70.15625 C 32.088755 72.841764 34.294355 75.03125 37 75.03125 C 39.705645 75.03125 41.911245 72.841764 42 70.15625 C 42.088755 72.841764 44.294355 75.03125 47 75.03125 C 49.761206 75.03125 52.03125 72.761206 52.03125 70 C 52.03125 67.238794 49.761206 64.96875 47 64.96875 C 44.294355 64.96875 42.088755 67.158236 42 69.84375 C 41.911245 67.158236 39.705645 64.96875 37 64.96875 C 34.294355 64.96875 32.088755 67.158236 32 69.84375 C 31.911245 67.158236 29.705645 64.96875 27 64.96875 z" display="inline" opacity=".1"/><path id="path3748" fill="#000" fill-opacity="1" stroke="none" d="M 27.59375 24 C 25.065675 24 23 26.065675 23 28.59375 L 23 55.4375 C 23 57.965575 25.055247 60.0625 27.59375 60.0625 L 48.46875 60.0625 C 51.007253 60.0625 53.0625 57.965575 53.0625 55.4375 L 53.0625 28.59375 C 53.0625 26.065675 50.996825 24 48.46875 24 L 27.59375 24 z M 31.1875 31.96875 L 44.90625 31.96875 C 45.01652 31.96875 45.09375 32.045948 45.09375 32.1875 L 45.09375 51.875 C 45.09375 52.016552 45.01652 52.09375 44.90625 52.09375 L 31.1875 52.09375 C 31.07723 52.09375 30.96875 51.98527 30.96875 51.875 L 30.96875 32.1875 C 30.96875 32.07723 31.07723 31.96875 31.1875 31.96875 z M 55.90625 44.03125 A 0.99834447 0.99834447 0 0 0 55.09375 45.03125 L 55.09375 46.9375 A 0.99834447 0.99834447 0 0 0 56.09375 47.9375 L 66 47.9375 A 0.99834447 0.99834447 0 0 0 67 46.9375 L 67 45.03125 A 0.99834447 0.99834447 0 0 0 66 44.03125 L 56.09375 44.03125 A 0.99834447 0.99834447 0 0 0 56 44.03125 A 0.99834447 0.99834447 0 0 0 55.90625 44.03125 z M 55.90625 48.09375 A 0.99834447 0.99834447 0 0 0 55.09375 49.09375 L 55.09375 52.9375 A 0.99834447 0.99834447 0 0 0 56.09375 53.9375 L 66 53.9375 A 0.99834447 0.99834447 0 0 0 67 52.9375 L 67 49.09375 A 0.99834447 0.99834447 0 0 0 66 48.09375 L 56.09375 48.09375 A 0.99834447 0.99834447 0 0 0 56 48.09375 A 0.99834447 0.99834447 0 0 0 55.90625 48.09375 z M 55.90625 54.15625 A 0.99834447 0.99834447 0 0 0 55.09375 55.15625 L 55.09375 60 L 50.40625 60 A 0.99834447 0.99834447 0 0 0 49.65625 61.65625 L 60.40625 73.65625 A 0.99834447 0.99834447 0 0 0 61.90625 73.65625 L 72.75 61.65625 A 0.99834447 0.99834447 0 0 0 72 60 L 67 60 L 67 55.15625 A 0.99834447 0.99834447 0 0 0 66 54.15625 L 56.09375 54.15625 A 0.99834447 0.99834447 0 0 0 56 54.15625 A 0.99834447 0.99834447 0 0 0 55.90625 54.15625 z M 27 65.96875 C 24.784216 65.96875 22.96875 67.784216 22.96875 70 C 22.96875 72.215784 24.784216 74.03125 27 74.03125 C 29.215784 74.03125 31.03125 72.215784 31.03125 70 C 31.03125 67.784216 29.215784 65.96875 27 65.96875 z M 37 65.96875 C 34.784216 65.96875 32.96875 67.784216 32.96875 70 C 32.96875 72.215784 34.784216 74.03125 37 74.03125 C 39.215784 74.03125 41.03125 72.215784 41.03125 70 C 41.03125 67.784216 39.215784 65.96875 37 65.96875 z M 47 65.96875 C 44.784216 65.96875 42.96875 67.784216 42.96875 70 C 42.96875 72.215784 44.784216 74.03125 47 74.03125 C 49.215784 74.03125 51.03125 72.215784 51.03125 70 C 51.03125 67.784216 49.215784 65.96875 47 65.96875 z" display="inline" opacity=".15"/><path id="path3744" fill="#000" fill-opacity="1" stroke="none" d="M 27.59375 25 C 25.59935 25 24 26.59935 24 28.59375 L 24 55.4375 C 24 57.4319 25.59935 59.0625 27.59375 59.0625 L 48.46875 59.0625 C 50.46315 59.0625 52.0625 57.4319 52.0625 55.4375 L 52.0625 28.59375 C 52.0625 26.59935 50.46315 25 48.46875 25 L 27.59375 25 z M 31.1875 30.96875 L 44.90625 30.96875 C 45.57105 30.96875 46.09375 31.5227 46.09375 32.1875 L 46.09375 51.875 C 46.09375 52.5398 45.57105 53.09375 44.90625 53.09375 L 31.1875 53.09375 C 30.5227 53.09375 29.96875 52.5398 29.96875 51.875 L 29.96875 32.1875 C 29.96875 31.5227 30.5227 30.96875 31.1875 30.96875 z M 56.09375 45.03125 L 56.09375 46.9375 L 66 46.9375 L 66 45.03125 L 56.09375 45.03125 z M 56.09375 49.09375 L 56.09375 52.9375 L 66 52.9375 L 66 49.09375 L 56.09375 49.09375 z M 56.09375 55.15625 L 56.09375 61 L 50.40625 61 L 61.15625 73 L 72 61 L 66 61 L 66 55.15625 L 56.09375 55.15625 z M 27 67 C 25.343146 67 24 68.343146 24 70 C 24 71.656854 25.343146 73 27 73 C 28.656854 73 30 71.656854 30 70 C 30 68.343146 28.656854 67 27 67 z M 37 67 C 35.343146 67 34 68.343146 34 70 C 34 71.656854 35.343146 73 37 73 C 38.656854 73 40 71.656854 40 70 C 40 68.343146 38.656854 67 37 67 z M 47 67 C 45.343146 67 44 68.343146 44 70 C 44 71.656854 45.343146 73 47 73 C 48.656854 73 50 71.656854 50 70 C 50 68.343146 48.656854 67 47 67 z" display="inline" opacity=".3"/><path id="path3164" fill="url(#linearGradient4002)" fill-opacity="1" fill-rule="nonzero" stroke="none" stroke-width="2" d="M 27.59375,24 C 25.59935,24 24,25.59935 24,27.59375 l 0,26.84375 c 0,1.9944 1.59935,3.625 3.59375,3.625 l 20.875,0 c 1.9944,0 3.59375,-1.6306 3.59375,-3.625 l 0,-26.84375 C 52.0625,25.59935 50.46315,24 48.46875,24 l -20.875,0 z m 3.59375,5.96875 13.71875,0 c 0.6648,0 1.1875,0.55395 1.1875,1.21875 l 0,19.6875 c 0,0.6648 -0.5227,1.21875 -1.1875,1.21875 l -13.71875,0 c -0.6648,0 -1.21875,-0.55395 -1.21875,-1.21875 l 0,-19.6875 c 0,-0.6648 0.55395,-1.21875 1.21875,-1.21875 z m 24.90625,14.0625 0,1.90625 9.90625,0 0,-1.90625 -9.90625,0 z m 0,4.0625 0,3.84375 9.90625,0 0,-3.84375 -9.90625,0 z m 0,6.0625 0,5.84375 -5.6875,0 10.75,12 L 72,60 l -6,0 0,-5.84375 -9.90625,0 z M 27,66 c -1.656854,0 -3,1.343146 -3,3 0,1.656854 1.343146,3 3,3 1.656854,0 3,-1.343146 3,-3 0,-1.656854 -1.343146,-3 -3,-3 z m 10,0 c -1.656854,0 -3,1.343146 -3,3 0,1.656854 1.343146,3 3,3 1.656854,0 3,-1.343146 3,-3 0,-1.656854 -1.343146,-3 -3,-3 z m 10,0 c -1.656854,0 -3,1.343146 -3,3 0,1.656854 1.343146,3 3,3 1.656854,0 3,-1.343146 3,-3 0,-1.656854 -1.343146,-3 -3,-3 z" color="#000" display="inline" enable-background="accumulate" overflow="visible" visibility="visible" style="marker:none"/><path id="path3939" fill="#fff" fill-opacity="1" fill-rule="nonzero" stroke="none" stroke-width="2" d="M 27.59375,24 C 25.59935,24 24,25.59935 24,27.59375 l 0,1 C 24,26.59935 25.59935,25 27.59375,25 l 20.875,0 c 1.9944,0 3.59375,1.59935 3.59375,3.59375 l 0,-1 C 52.0625,25.59935 50.46315,24 48.46875,24 l -20.875,0 z m 28.5,20.03125 0,1 9.90625,0 0,-1 -9.90625,0 z m 0,4.0625 0,1 9.90625,0 0,-1 -9.90625,0 z m -26.125,2.78125 0,1 c 0,0.6648 0.55395,1.21875 1.21875,1.21875 l 13.71875,0 c 0.6648,0 1.1875,-0.55395 1.1875,-1.21875 l 0,-1 c 0,0.6648 -0.5227,1.21875 -1.1875,1.21875 l -13.71875,0 c -0.6648,0 -1.21875,-0.55395 -1.21875,-1.21875 z m 26.125,3.28125 0,1 9.90625,0 0,-1 -9.90625,0 z M 50.40625,60 l 0.90625,1 4.78125,0 0,-1 -5.6875,0 z M 66,60 66,61 71.09375,61 72,60 66,60 z m -39,6 c -1.656854,0 -3,1.343146 -3,3 0,0.174764 0.03382,0.333425 0.0625,0.5 C 24.305716,68.087354 25.51791,67 27,67 c 1.48209,0 2.694284,1.087354 2.9375,2.5 C 29.966179,69.333425 30,69.174764 30,69 30,67.343146 28.656854,66 27,66 z m 10,0 c -1.656854,0 -3,1.343146 -3,3 0,0.174764 0.03382,0.333425 0.0625,0.5 C 34.305716,68.087354 35.51791,67 37,67 c 1.48209,0 2.694284,1.087354 2.9375,2.5 C 39.966179,69.333425 40,69.174764 40,69 40,67.343146 38.656854,66 37,66 z m 10,0 c -1.656854,0 -3,1.343146 -3,3 0,0.174764 0.03382,0.333425 0.0625,0.5 C 44.305716,68.087354 45.51791,67 47,67 c 1.48209,0 2.694284,1.087354 2.9375,2.5 C 49.966179,69.333425 50,69.174764 50,69 50,67.343146 48.656854,66 47,66 z" color="#000" display="inline" enable-background="accumulate" opacity=".75" overflow="visible" visibility="visible" style="marker:none"/><path id="path3944" fill="#000" fill-opacity="1" fill-rule="nonzero" stroke="none" stroke-width="2" d="m 31.1875,28.96875 c -0.6648,0 -1.21875,0.55395 -1.21875,1.21875 l 0,1 c 0,-0.6648 0.55395,-1.21875 1.21875,-1.21875 l 13.71875,0 c 0.6648,0 1.1875,0.55395 1.1875,1.21875 l 0,-1 c 0,-0.6648 -0.5227,-1.21875 -1.1875,-1.21875 l -13.71875,0 z m 24.90625,15.96875 0,1 9.90625,0 0,-1 -9.90625,0 z m 0,6 0,1 9.90625,0 0,-1 -9.90625,0 z M 24,53.4375 l 0,1 c 0,1.9944 1.59935,3.625 3.59375,3.625 l 20.875,0 c 1.9944,0 3.59375,-1.6306 3.59375,-3.625 l 0,-1 c 0,1.9944 -1.59935,3.625 -3.59375,3.625 l -20.875,0 C 25.59935,57.0625 24,55.4319 24,53.4375 z M 50.40625,60 61.15625,72 72,60 71.09375,60 61.15625,71 51.3125,60 50.40625,60 z M 24.0625,68.5 C 24.033821,68.666575 24,68.825236 24,69 c 0,1.656854 1.343146,3 3,3 1.656854,0 3,-1.343146 3,-3 0,-0.174764 -0.03382,-0.333425 -0.0625,-0.5 C 29.694284,69.912646 28.48209,71 27,71 25.51791,71 24.305716,69.912646 24.0625,68.5 z m 10,0 C 34.033821,68.666575 34,68.825236 34,69 c 0,1.656854 1.343146,3 3,3 1.656854,0 3,-1.343146 3,-3 0,-0.174764 -0.03382,-0.333425 -0.0625,-0.5 C 39.694284,69.912646 38.48209,71 37,71 35.51791,71 34.305716,69.912646 34.0625,68.5 z m 10,0 C 44.033821,68.666575 44,68.825236 44,69 c 0,1.656854 1.343146,3 3,3 1.656854,0 3,-1.343146 3,-3 0,-0.174764 -0.03382,-0.333425 -0.0625,-0.5 C 49.694284,69.912646 48.48209,71 47,71 45.51791,71 44.305716,69.912646 44.0625,68.5 z" color="#000" display="inline" enable-background="accumulate" opacity=".15" overflow="visible" visibility="visible" style="marker:none"/></g></svg>