<svg xmlns="http://www.w3.org/2000/svg" xmlns:svg="http://www.w3.org/2000/svg" xmlns:xlink="http://www.w3.org/1999/xlink" id="svg2408" width="96" height="96" display="inline" version="1.0"><defs id="defs2410"><linearGradient id="linearGradient3637"><stop id="stop3639" offset="0" stop-color="#f0f0f0" stop-opacity="1"/><stop id="stop3641" offset="1" stop-color="#dcdcdc" stop-opacity="1"/></linearGradient><linearGradient id="ButtonShadow" x1="45.448" x2="45.448" y1="92.54" y2="7.017" gradientTransform="scale(1.0058652,0.994169)" gradientUnits="userSpaceOnUse"><stop id="stop3750" offset="0" stop-color="#000" stop-opacity="1"/><stop id="stop3752" offset="1" stop-color="#000" stop-opacity=".588"/></linearGradient><linearGradient id="linearGradient3737"><stop id="stop3739" offset="0" stop-color="#fff" stop-opacity="1"/><stop id="stop3741" offset="1" stop-color="#fff" stop-opacity="0"/></linearGradient><linearGradient id="linearGradient3700"><stop id="stop3702" offset="0" stop-color="#2276c5" stop-opacity="1"/><stop id="stop3704" offset="1" stop-color="#68baf4" stop-opacity="1"/></linearGradient><linearGradient id="linearGradient3706" x1="48" x2="48" y1="90" y2="5.988" gradientUnits="userSpaceOnUse" xlink:href="#linearGradient3700"/><linearGradient id="linearGradient3743" x1="36.357" x2="36.357" y1="6" y2="63.893" gradientUnits="userSpaceOnUse" xlink:href="#linearGradient3737"/><filter id="filter3174" color-interpolation-filters="sRGB"><feGaussianBlur id="feGaussianBlur3176" stdDeviation="1.71"/></filter><linearGradient id="linearGradient3188" x1="36.357" x2="36.357" y1="6" y2="63.893" gradientUnits="userSpaceOnUse" xlink:href="#linearGradient3737"/><linearGradient id="linearGradient3613" x1="48" x2="48" y1="20.221" y2="138.661" gradientUnits="userSpaceOnUse" xlink:href="#linearGradient3737"/><radialGradient id="radialGradient3619" cx="48" cy="90.172" r="42" fx="48" fy="90.172" gradientTransform="matrix(1.1573129,0,0,0.99590774,-7.5510206,0.19713193)" gradientUnits="userSpaceOnUse" xlink:href="#linearGradient3737"/><clipPath id="clipPath3613" clipPathUnits="userSpaceOnUse"><rect id="rect3615" width="84" height="84" x="6" y="6" fill="#fff" fill-opacity="1" fill-rule="nonzero" stroke="none" rx="6" ry="6"/></clipPath><linearGradient id="linearGradient2843" x1="48" x2="48" y1="90" y2="5.988" gradientTransform="translate(0,100)" gradientUnits="userSpaceOnUse" xlink:href="#linearGradient3700"/><linearGradient id="linearGradient2848" x1="48" x2="48" y1="90" y2="5.988" gradientUnits="userSpaceOnUse" xlink:href="#linearGradient3700"/><clipPath id="clipPath3625" clipPathUnits="userSpaceOnUse"><path id="path3627" fill="#fff" fill-opacity="1" stroke="none" d="M 0,0 0,96 96,96 96,0 0,0 z m 12,6 72,0 c 3.324,0 6,2.676 6,6 l 0,72 c 0,3.324 -2.676,6 -6,6 L 12,90 C 8.676,90 6,87.324 6,84 L 6,12 C 6,8.676 8.676,6 12,6 z"/></clipPath><linearGradient id="linearGradient3643" x1="44.512" x2="44.512" y1="6" y2="90.015" gradientUnits="userSpaceOnUse" xlink:href="#linearGradient3637"/><clipPath id="clipPath3649" clipPathUnits="userSpaceOnUse"><rect id="rect3651" width="76" height="76" x="10" y="10" fill="#fff" fill-opacity="1" fill-rule="nonzero" stroke="none" rx="4" ry="4"/></clipPath><filter id="filter3657" color-interpolation-filters="sRGB"><feGaussianBlur id="feGaussianBlur3659" stdDeviation="1.14"/></filter><clipPath id="clipPath3697" clipPathUnits="userSpaceOnUse"><rect id="rect3699" width="76" height="76" x="10" y="10" fill="red" fill-opacity="1" fill-rule="nonzero" stroke="none" rx="4" ry="4"/></clipPath><linearGradient id="linearGradient3804" x1="20.759" x2="20.759" y1="1" y2="45.017" gradientTransform="matrix(1.2790652,0,0,1.2790652,17.302433,18.5815)" gradientUnits="userSpaceOnUse" xlink:href="#linearGradient3309"/><linearGradient id="linearGradient3309" x1="63.999" x2="63.999" y1="3.1" y2="122.899" gradientUnits="userSpaceOnUse"><stop id="stop3311" offset="0" stop-color="#f6f6f6" stop-opacity="1"/><stop id="stop3313" offset="1" stop-color="#d2d2d2" stop-opacity="1"/></linearGradient><linearGradient id="linearGradient3806" x1="37.201" x2="37.201" y1="1" y2="45" gradientTransform="matrix(1.2790652,0,0,1.2790652,17.302433,18.5815)" gradientUnits="userSpaceOnUse" xlink:href="#linearGradient3397"/><linearGradient id="linearGradient3397"><stop id="stop3399" offset="0" stop-color="#aaa" stop-opacity="1"/><stop id="stop3401" offset="1" stop-color="#8c8c8c" stop-opacity="1"/></linearGradient><linearGradient id="linearGradient2940" x1="20.759" x2="20.759" y1="1" y2="45.017" gradientTransform="matrix(1.2790652,0,0,1.2790652,17.302433,18.5815)" gradientUnits="userSpaceOnUse" xlink:href="#linearGradient3309"/><linearGradient id="linearGradient3665" x1="20.759" x2="20.759" y1="1" y2="45.017" gradientTransform="matrix(0.93022994,0,0,-0.93022994,23.674475,61.395341)" gradientUnits="userSpaceOnUse" xlink:href="#linearGradient4081"/><linearGradient id="linearGradient3669" x1="20.759" x2="20.759" y1="1" y2="45.017" gradientTransform="matrix(0.47268421,0.12665535,0.12665535,-0.47268421,44.47921,74.733655)" gradientUnits="userSpaceOnUse" xlink:href="#linearGradient4081"/><linearGradient id="linearGradient3180" x1="-13" x2="-13" y1="17.009" y2="-.7" gradientUnits="userSpaceOnUse" xlink:href="#linearGradient4081"/><linearGradient id="linearGradient4081"><stop id="stop4083" offset="0" stop-color="#aaa" stop-opacity="1"/><stop id="stop4085" offset="1" stop-color="#f0f0f0" stop-opacity="1"/></linearGradient><linearGradient id="linearGradient2851" x1="-13" x2="-13" y1="17.009" y2="-.7" gradientUnits="userSpaceOnUse" xlink:href="#linearGradient4081"/><linearGradient id="linearGradient3692" x1="20.759" x2="20.759" y1="1" y2="45.017" gradientTransform="matrix(0.93022994,0,0,-0.93022994,23.674475,61.395341)" gradientUnits="userSpaceOnUse" xlink:href="#linearGradient4081"/><linearGradient id="linearGradient3697" x1="20.759" x2="20.759" y1="1" y2="45.017" gradientTransform="matrix(0.93022994,0,0,-0.93022994,23.674475,61.395341)" gradientUnits="userSpaceOnUse" xlink:href="#linearGradient4081"/><linearGradient id="linearGradient3701" x1="20.759" x2="20.759" y1="1" y2="45.017" gradientTransform="matrix(0.93022994,0,0,-0.93022994,23.674475,61.395341)" gradientUnits="userSpaceOnUse" xlink:href="#linearGradient4081"/><linearGradient id="linearGradient3720" x1="20.759" x2="20.759" y1="1" y2="45.017" gradientTransform="matrix(0.93022994,0,0,-0.93022994,23.674475,61.395341)" gradientUnits="userSpaceOnUse" xlink:href="#linearGradient4081"/><linearGradient id="linearGradient3725" x1="20.759" x2="20.759" y1="1" y2="45.017" gradientTransform="matrix(0.93022994,0,0,-0.93022994,23.674475,62.395341)" gradientUnits="userSpaceOnUse" xlink:href="#linearGradient4081"/><linearGradient id="linearGradient3727" x1="20.759" x2="20.759" y1="1" y2="45.017" gradientTransform="matrix(0.93022994,0,0,-0.93022994,23.674475,61.395341)" gradientUnits="userSpaceOnUse" xlink:href="#linearGradient4081"/><linearGradient id="linearGradient3708" x1="29.827" x2="65.694" y1="51.954" y2="51.954" gradientTransform="matrix(0,1,-1,0,96,0)" gradientUnits="userSpaceOnUse" xlink:href="#StandardGradient"/><linearGradient id="StandardGradient" x1="11.347" x2="11.347" y1="6" y2="16.013" gradientTransform="translate(-3,-2.9995677)" gradientUnits="userSpaceOnUse"><stop id="stop3177" offset="0" stop-color="#000" stop-opacity=".863"/><stop id="stop3179" offset="1" stop-color="#000" stop-opacity=".471"/></linearGradient><linearGradient id="linearGradient3034" x1="29.827" x2="65.694" y1="51.954" y2="51.954" gradientTransform="matrix(0,-1,-1,0,96,16)" gradientUnits="userSpaceOnUse" xlink:href="#linearGradient4081"/><linearGradient id="linearGradient3831" x1="29.827" x2="65.694" y1="51.954" y2="51.954" gradientTransform="matrix(0,-1,-1,0,96,97)" gradientUnits="userSpaceOnUse" xlink:href="#linearGradient4081"/><linearGradient id="linearGradient3833" x1="29.827" x2="65.694" y1="51.954" y2="51.954" gradientTransform="matrix(0,-1,-1,0,96,96)" gradientUnits="userSpaceOnUse" xlink:href="#linearGradient4081"/><linearGradient id="linearGradient3682" x1="29.827" x2="65.694" y1="51.954" y2="51.954" gradientTransform="matrix(0,-1,-1,0,96,96)" gradientUnits="userSpaceOnUse" xlink:href="#linearGradient4081"/><linearGradient id="linearGradient3699" x1="29.827" x2="65.694" y1="51.954" y2="51.954" gradientTransform="matrix(0,-1,-1,0,96,96)" gradientUnits="userSpaceOnUse" xlink:href="#linearGradient4081"/><linearGradient id="linearGradient3705" x1="29.827" x2="65.694" y1="51.954" y2="51.954" gradientTransform="matrix(0,-1,-1,0,36,16)" gradientUnits="userSpaceOnUse" xlink:href="#linearGradient4081"/><linearGradient id="linearGradient3712" x1="29.827" x2="65.694" y1="51.954" y2="51.954" gradientTransform="matrix(0,-1,-1,0,96,97)" gradientUnits="userSpaceOnUse" xlink:href="#linearGradient4081"/><linearGradient id="linearGradient3714" x1="29.827" x2="65.694" y1="51.954" y2="51.954" gradientTransform="matrix(0,-1,-1,0,96,96)" gradientUnits="userSpaceOnUse" xlink:href="#linearGradient4081"/><linearGradient id="linearGradient3708-7" x1="29.827" x2="65.694" y1="51.954" y2="51.954" gradientTransform="matrix(0,1,-1,0,96,0)" gradientUnits="userSpaceOnUse" xlink:href="#StandardGradient-8"/><linearGradient id="StandardGradient-8" x1="11.347" x2="11.347" y1="6" y2="16.013" gradientTransform="translate(-3,-2.9995677)" gradientUnits="userSpaceOnUse"><stop id="stop3177-6" offset="0" stop-color="#000" stop-opacity=".863"/><stop id="stop3179-8" offset="1" stop-color="#000" stop-opacity=".471"/></linearGradient><linearGradient id="linearGradient2947" x1="29.827" x2="65.694" y1="51.954" y2="51.954" gradientTransform="matrix(0,1,-1,0,183,0)" gradientUnits="userSpaceOnUse" xlink:href="#StandardGradient-8"/><linearGradient id="linearGradient3728" x1="56" x2="56" y1="72" y2="24" gradientUnits="userSpaceOnUse" xlink:href="#linearGradient4081"/><linearGradient id="linearGradient3710" x1="24" x2="72" y1="48" y2="48" gradientTransform="matrix(0,-1,1,0,0,96)" gradientUnits="userSpaceOnUse" xlink:href="#linearGradient4081"/><linearGradient id="linearGradient3716" x1="24" x2="72" y1="48" y2="48" gradientTransform="matrix(0,-1,1,0,0,97)" gradientUnits="userSpaceOnUse" xlink:href="#linearGradient4081"/><linearGradient id="linearGradient3718" x1="24" x2="72" y1="48" y2="48" gradientTransform="matrix(0,-1,1,0,0,96)" gradientUnits="userSpaceOnUse" xlink:href="#linearGradient4081"/><linearGradient id="linearGradient3723" x1="24" x2="72" y1="48" y2="48" gradientTransform="matrix(0,-1,1,0,0,96)" gradientUnits="userSpaceOnUse" xlink:href="#linearGradient4081"/><linearGradient id="linearGradient3729" x1="24" x2="72" y1="48" y2="48" gradientTransform="matrix(0,-1,1,0,0,95)" gradientUnits="userSpaceOnUse" xlink:href="#linearGradient4081"/><linearGradient id="linearGradient3702" x1="27" x2="69" y1="48" y2="48" gradientTransform="matrix(0,-1,1,0,80,96)" gradientUnits="userSpaceOnUse" xlink:href="#linearGradient4081"/><linearGradient id="linearGradient3709" x1="27" x2="69" y1="48" y2="48" gradientTransform="matrix(0,-1,1,0,0,97)" gradientUnits="userSpaceOnUse" xlink:href="#linearGradient4081"/><linearGradient id="linearGradient3711" x1="27" x2="69" y1="48" y2="48" gradientTransform="matrix(0,-1,1,0,0,96)" gradientUnits="userSpaceOnUse" xlink:href="#linearGradient4081"/><linearGradient id="linearGradient3719" x1="27" x2="69" y1="48" y2="48" gradientTransform="matrix(0,-1,1,0,0,95)" gradientUnits="userSpaceOnUse" xlink:href="#linearGradient4081"/><linearGradient id="linearGradient3721" x1="27" x2="69" y1="48" y2="48" gradientTransform="matrix(0,-1,1,0,0,96)" gradientUnits="userSpaceOnUse" xlink:href="#linearGradient4081"/><linearGradient id="linearGradient2428" x1="11.999" x2="11.999" y1=".922" y2="17.478" gradientTransform="matrix(0.9247229,0,0,1.0872097,-3.0600562,0.9976422)" gradientUnits="userSpaceOnUse" xlink:href="#StandardGradient-7"/><linearGradient id="StandardGradient-7" x1="11.999" x2="11.999" y1=".922" y2="19.387" gradientTransform="scale(0.9219544,1.0846523)" gradientUnits="userSpaceOnUse"><stop id="stop3283" offset="0" stop-color="#000" stop-opacity=".863"/><stop id="stop2651" offset="1" stop-color="#000" stop-opacity=".471"/></linearGradient><linearGradient id="linearGradient2869" x1="18.449" x2="18.449" y1="17.478" y2=".922" gradientTransform="matrix(2.4659278,0,0,2.8992258,10.506518,21.327046)" gradientUnits="userSpaceOnUse" xlink:href="#linearGradient4081"/><linearGradient id="linearGradient3724" x1="18.449" x2="18.449" y1="17.478" y2=".922" gradientTransform="matrix(2.4659278,0,0,2.8992258,10.506518,22.327046)" gradientUnits="userSpaceOnUse" xlink:href="#linearGradient4081"/><linearGradient id="linearGradient3726" x1="18.449" x2="18.449" y1="17.478" y2=".922" gradientTransform="matrix(2.4659278,0,0,2.8992258,10.506518,21.327046)" gradientUnits="userSpaceOnUse" xlink:href="#linearGradient4081"/><linearGradient id="linearGradient3733" x1="18.449" x2="18.449" y1="17.478" y2=".922" gradientTransform="matrix(2.4659278,0,0,2.8992258,10.506518,20.327046)" gradientUnits="userSpaceOnUse" xlink:href="#linearGradient4081"/><linearGradient id="linearGradient3735" x1="18.449" x2="18.449" y1="17.478" y2=".922" gradientTransform="matrix(2.4659278,0,0,2.8992258,10.506518,21.327046)" gradientUnits="userSpaceOnUse" xlink:href="#linearGradient4081"/><linearGradient id="linearGradient3016" x1="32.251" x2="32.251" y1="6.132" y2="90.239" gradientTransform="matrix(1.0238095,0,0,-1.0119048,-1.1428571,98.071429)" gradientUnits="userSpaceOnUse" xlink:href="#ButtonShadow-0"/><linearGradient id="ButtonShadow-0" x1="45.448" x2="45.448" y1="92.54" y2="7.017" gradientTransform="matrix(1.0058652,0,0,0.994169,100,0)" gradientUnits="userSpaceOnUse"><stop id="stop3750-8" offset="0" stop-color="#000" stop-opacity="1"/><stop id="stop3752-5" offset="1" stop-color="#000" stop-opacity=".588"/></linearGradient><linearGradient id="linearGradient3780" x1="32.251" x2="32.251" y1="6.132" y2="90.239" gradientTransform="matrix(1.0238095,0,0,-1.0119048,-1.1428571,98.071429)" gradientUnits="userSpaceOnUse" xlink:href="#ButtonShadow-0"/><linearGradient id="linearGradient3184" x1="45.448" x2="45.448" y1="92.54" y2="7.017" gradientTransform="matrix(1.0058652,0,0,0.994169,100,0)" gradientUnits="userSpaceOnUse"><stop id="stop3186" offset="0" stop-color="#000" stop-opacity="1"/><stop id="stop3188" offset="1" stop-color="#000" stop-opacity=".588"/></linearGradient><linearGradient id="linearGradient3772" x1="32.251" x2="32.251" y1="6.132" y2="90.239" gradientTransform="matrix(1.0238095,0,0,-1.0119048,-1.1428571,98.071429)" gradientUnits="userSpaceOnUse" xlink:href="#ButtonShadow-0"/><linearGradient id="linearGradient3191" x1="45.448" x2="45.448" y1="92.54" y2="7.017" gradientTransform="matrix(1.0058652,0,0,0.994169,100,0)" gradientUnits="userSpaceOnUse"><stop id="stop3193" offset="0" stop-color="#000" stop-opacity="1"/><stop id="stop3195" offset="1" stop-color="#000" stop-opacity=".588"/></linearGradient><linearGradient id="linearGradient3725-9" x1="32.251" x2="32.251" y1="6.132" y2="90.239" gradientTransform="matrix(1.0238095,0,0,-1.0119048,-1.1428571,98.071429)" gradientUnits="userSpaceOnUse" xlink:href="#ButtonShadow-0"/><linearGradient id="linearGradient3198" x1="45.448" x2="45.448" y1="92.54" y2="7.017" gradientTransform="matrix(1.0058652,0,0,0.994169,100,0)" gradientUnits="userSpaceOnUse"><stop id="stop3200" offset="0" stop-color="#000" stop-opacity="1"/><stop id="stop3202" offset="1" stop-color="#000" stop-opacity=".588"/></linearGradient><linearGradient id="linearGradient3721-6" x1="32.251" x2="32.251" y1="6.132" y2="90.239" gradientTransform="matrix(1,0,0,-1,0,97)" gradientUnits="userSpaceOnUse" xlink:href="#ButtonShadow-0"/><linearGradient id="linearGradient3205" x1="45.448" x2="45.448" y1="92.54" y2="7.017" gradientTransform="matrix(1.0058652,0,0,0.994169,100,0)" gradientUnits="userSpaceOnUse"><stop id="stop3207" offset="0" stop-color="#000" stop-opacity="1"/><stop id="stop3209" offset="1" stop-color="#000" stop-opacity=".588"/></linearGradient><linearGradient id="linearGradient3216" x1="32.251" x2="32.251" y1="6.132" y2="90.239" gradientTransform="matrix(1.0238095,0,0,-1.0119048,-1.1428571,98.071429)" gradientUnits="userSpaceOnUse" xlink:href="#ButtonShadow-0"/><linearGradient id="linearGradient3188-7" x1="36.357" x2="36.357" y1="6" y2="63.893" gradientUnits="userSpaceOnUse" xlink:href="#linearGradient3737-2"/><linearGradient id="linearGradient3737-2"><stop id="stop3739-3" offset="0" stop-color="#fff" stop-opacity="1"/><stop id="stop3741-3" offset="1" stop-color="#fff" stop-opacity="0"/></linearGradient><radialGradient id="radialGradient3619-3" cx="48" cy="90.172" r="42" fx="48" fy="90.172" gradientTransform="matrix(1.1573129,0,0,0.99590774,-7.551021,0.1971319)" gradientUnits="userSpaceOnUse" xlink:href="#linearGradient3737-2"/></defs><metadata id="metadata2413"/><g id="layer2" display="none"><rect id="rect3745" width="86" height="85" x="5" y="7" fill="url(#ButtonShadow)" fill-opacity="1" fill-rule="nonzero" stroke="none" clip-path="url(#clipPath3625)" filter="url(#filter3174)" opacity=".9" rx="6" ry="6"/></g><g id="layer6" display="inline"><path id="path3786" fill="url(#linearGradient3216)" fill-opacity="1" fill-rule="nonzero" stroke="none" d="M 12,3.96875 C 6.4889098,3.96875 1.96875,8.4889098 1.96875,14 l 0,71 c 0,5.51109 4.5201597,10.03125 10.03125,10.03125 l 72,0 c 5.51109,0 10.03125,-4.52016 10.03125,-10.03125 l 0,-71 C 94.03125,8.4889097 89.51109,3.96875 84,3.96875 l -72,0 z M 12,6 84,6 c 3.324,0 6,2.676 6,6 l 0,72 c 0,3.324 -2.676,6 -6,6 L 12,90 C 8.676,90 6,87.324 6,84 L 6,12 C 6,8.676 8.676,6 12,6 z" display="inline" opacity=".08"/><path id="path3778" fill="url(#linearGradient3780)" fill-opacity="1" fill-rule="nonzero" stroke="none" d="M 12,4.96875 C 7.0283671,4.96875 2.96875,9.0283671 2.96875,14 l 0,71 c 0,4.971633 4.059617,9.03125 9.03125,9.03125 l 72,0 c 4.971633,0 9.03125,-4.059617 9.03125,-9.03125 l 0,-71 C 93.03125,9.028367 88.971633,4.96875 84,4.96875 l -72,0 z M 12,6 84,6 c 3.324,0 6,2.676 6,6 l 0,72 c 0,3.324 -2.676,6 -6,6 L 12,90 C 8.676,90 6,87.324 6,84 L 6,12 C 6,8.676 8.676,6 12,6 z" display="inline" opacity=".1"/><path id="path3770" fill="url(#linearGradient3772)" fill-opacity="1" fill-rule="nonzero" stroke="none" d="M 11.1875,6.03125 C 7.159982,6.4419011 4,9.8664375 4,14 l 0,71 c 0,4.409133 3.590867,8 8,8 l 72,0 c 4.409133,0 8,-3.590867 8,-8 L 92,14 C 92,9.8029382 88.741028,6.3539584 84.625,6.03125 87.657886,6.337417 90,8.88375 90,12 l 0,72 c 0,3.324 -2.676,6 -6,6 L 12,90 C 8.676,90 6,87.324 6,84 L 6,12 c 0,-3.11625 2.342114,-5.662583 5.375,-5.96875 -0.06227,0.00488 -0.12563,-0.00631 -0.1875,0 z" display="inline" opacity=".2"/><path id="rect3723" fill="url(#linearGradient3725-9)" fill-opacity="1" fill-rule="nonzero" stroke="none" d="M 6.4375,9.75 C 5.5380109,10.927446 5,12.397277 5,14 l 0,71 c 0,3.878 3.122,7 7,7 l 72,0 c 3.878,0 7,-3.122 7,-7 L 91,14 C 91,12.397277 90.461989,10.927446 89.5625,9.75 89.841816,10.444095 90,11.203625 90,12 l 0,72 c 0,3.324 -2.676,6 -6,6 L 12,90 C 8.676,90 6,87.324 6,84 L 6,12 C 6,11.203625 6.1581836,10.444095 6.4375,9.75 z" display="inline" opacity=".3"/><path id="rect3716" fill="url(#linearGradient3721-6)" fill-opacity="1" fill-rule="nonzero" stroke="none" d="m 6,84 0,1 c 0,3.324 2.676,6 6,6 l 72,0 c 3.324,0 6,-2.676 6,-6 l 0,-1 c 0,3.324 -2.676,6 -6,6 L 12,90 C 8.676,90 6,87.324 6,84 z" display="inline" opacity=".45"/></g><g id="layer1" display="none"><rect id="rect2419" width="84" height="84" x="6" y="6" fill="#000" fill-opacity="1" fill-rule="nonzero" stroke="none" opacity=".7" rx="6" ry="6"/><path id="rect3726" fill="#000" fill-opacity="1" fill-rule="nonzero" stroke="none" d="m 14,10 c -2.216,0 -4,1.784 -4,4 l 0,68 c 0,2.216 1.784,4 4,4 l 68,0 c 2.216,0 4,-1.784 4,-4 l 0,-68 c 0,-2.216 -1.784,-4 -4,-4 l -68,0 z m 0,3.0625 68,0 c 0.578769,0 0.9375,0.358731 0.9375,0.9375 l 0,68 c 0,0.578769 -0.358731,0.9375 -0.9375,0.9375 l -68,0 c -0.578769,0 -0.9375,-0.358731 -0.9375,-0.9375 l 0,-68 c 0,-0.578769 0.358731,-0.9375 0.9375,-0.9375 z" opacity=".08"/><path id="rect3629" fill="url(#linearGradient3643)" fill-opacity="1" fill-rule="nonzero" stroke="none" d="M 12,6 C 8.676,6 6,8.676 6,12 l 0,72 c 0,3.324 2.676,6 6,6 l 72,0 c 3.324,0 6,-2.676 6,-6 L 90,12 C 90,8.676 87.324,6 84,6 L 12,6 z m 2,4 68,0 c 2.216,0 4,1.784 4,4 l 0,68 c 0,2.216 -1.784,4 -4,4 l -68,0 c -2.216,0 -4,-1.784 -4,-4 l 0,-68 c 0,-2.216 1.784,-4 4,-4 z"/><path id="rect3728" fill="url(#linearGradient3188)" fill-opacity="1" fill-rule="nonzero" stroke="none" d="M 12,6 C 8.676,6 6,8.676 6,12 l 0,2 0,68 0,2 c 0,0.334721 0.04135,0.6507 0.09375,0.96875 0.0487,0.295596 0.09704,0.596915 0.1875,0.875 0.00988,0.03038 0.020892,0.0636 0.03125,0.09375 0.098865,0.287771 0.2348802,0.547452 0.375,0.8125 0.1445918,0.273507 0.3156161,0.535615 0.5,0.78125 0.1843839,0.245635 0.3737765,0.473472 0.59375,0.6875 0.439947,0.428056 0.94291,0.814526 1.5,1.09375 0.278545,0.139612 0.5734731,0.246947 0.875,0.34375 -0.2562018,-0.100222 -0.4867109,-0.236272 -0.71875,-0.375 -0.00741,-0.0044 -0.023866,0.0045 -0.03125,0 -0.031933,-0.0193 -0.062293,-0.04251 -0.09375,-0.0625 -0.120395,-0.0767 -0.2310226,-0.163513 -0.34375,-0.25 -0.1061728,-0.0808 -0.2132809,-0.161112 -0.3125,-0.25 C 8.4783201,88.557317 8.3087904,88.373362 8.15625,88.1875 8.0486711,88.057245 7.9378561,87.922215 7.84375,87.78125 7.818661,87.74287 7.805304,87.69538 7.78125,87.65625 7.716487,87.553218 7.6510225,87.451733 7.59375,87.34375 7.4927417,87.149044 7.3880752,86.928049 7.3125,86.71875 7.30454,86.69694 7.288911,86.6782 7.28125,86.65625 7.2494249,86.5643 7.2454455,86.469419 7.21875,86.375 7.1884177,86.268382 7.1483606,86.171969 7.125,86.0625 7.0521214,85.720988 7,85.364295 7,85 L 7,83 7,15 7,13 C 7,10.218152 9.2181517,8 12,8 l 2,0 68,0 2,0 c 2.781848,0 5,2.218152 5,5 l 0,2 0,68 0,2 c 0,0.364295 -0.05212,0.720988 -0.125,1.0625 -0.04415,0.206893 -0.08838,0.397658 -0.15625,0.59375 -0.0077,0.02195 -0.0233,0.04069 -0.03125,0.0625 -0.06274,0.173739 -0.138383,0.367449 -0.21875,0.53125 -0.04158,0.0828 -0.07904,0.169954 -0.125,0.25 -0.0546,0.09721 -0.126774,0.18835 -0.1875,0.28125 -0.09411,0.140965 -0.204921,0.275995 -0.3125,0.40625 -0.143174,0.17445 -0.303141,0.346998 -0.46875,0.5 -0.01117,0.0102 -0.01998,0.02115 -0.03125,0.03125 -0.138386,0.125556 -0.285091,0.234436 -0.4375,0.34375 -0.102571,0.07315 -0.204318,0.153364 -0.3125,0.21875 -0.0074,0.0045 -0.02384,-0.0044 -0.03125,0 -0.232039,0.138728 -0.462548,0.274778 -0.71875,0.375 0.301527,-0.0968 0.596455,-0.204138 0.875,-0.34375 0.55709,-0.279224 1.060053,-0.665694 1.5,-1.09375 0.219973,-0.214028 0.409366,-0.441865 0.59375,-0.6875 0.184384,-0.245635 0.355408,-0.507743 0.5,-0.78125 0.14012,-0.265048 0.276135,-0.524729 0.375,-0.8125 0.01041,-0.03078 0.02133,-0.06274 0.03125,-0.09375 0.09046,-0.278085 0.1388,-0.579404 0.1875,-0.875 C 89.95865,84.6507 90,84.334721 90,84 l 0,-2 0,-68 0,-2 C 90,8.676 87.324,6 84,6 L 12,6 z"/><path id="path3615" fill="url(#radialGradient3619)" fill-opacity="1" fill-rule="nonzero" stroke="none" d="M 12,90 C 8.676,90 6,87.324 6,84 L 6,82 6,14 6,12 c 0,-0.334721 0.04135,-0.6507 0.09375,-0.96875 0.0487,-0.295596 0.09704,-0.596915 0.1875,-0.875 C 6.29113,10.12587 6.302142,10.09265 6.3125,10.0625 6.411365,9.774729 6.5473802,9.515048 6.6875,9.25 6.8320918,8.976493 7.0031161,8.714385 7.1875,8.46875 7.3718839,8.223115 7.5612765,7.995278 7.78125,7.78125 8.221197,7.353194 8.72416,6.966724 9.28125,6.6875 9.559795,6.547888 9.8547231,6.440553 10.15625,6.34375 9.9000482,6.443972 9.6695391,6.580022 9.4375,6.71875 c -0.00741,0.0044 -0.023866,-0.0045 -0.03125,0 -0.031933,0.0193 -0.062293,0.04251 -0.09375,0.0625 -0.120395,0.0767 -0.2310226,0.163513 -0.34375,0.25 -0.1061728,0.0808 -0.2132809,0.161112 -0.3125,0.25 C 8.4783201,7.442683 8.3087904,7.626638 8.15625,7.8125 8.0486711,7.942755 7.9378561,8.077785 7.84375,8.21875 7.818661,8.25713 7.805304,8.30462 7.78125,8.34375 7.716487,8.446782 7.6510225,8.548267 7.59375,8.65625 7.4927417,8.850956 7.3880752,9.071951 7.3125,9.28125 7.30454,9.30306 7.288911,9.3218 7.28125,9.34375 7.2494249,9.4357 7.2454455,9.530581 7.21875,9.625 7.1884177,9.731618 7.1483606,9.828031 7.125,9.9375 7.0521214,10.279012 7,10.635705 7,11 l 0,2 0,68 0,2 c 0,2.781848 2.2181517,5 5,5 l 2,0 68,0 2,0 c 2.781848,0 5,-2.218152 5,-5 l 0,-2 0,-68 0,-2 C 89,10.635705 88.94788,10.279012 88.875,9.9375 88.83085,9.730607 88.78662,9.539842 88.71875,9.34375 88.71105,9.3218 88.69545,9.30306 88.6875,9.28125 88.62476,9.107511 88.549117,8.913801 88.46875,8.75 88.42717,8.6672 88.38971,8.580046 88.34375,8.5 88.28915,8.40279 88.216976,8.31165 88.15625,8.21875 88.06214,8.077785 87.951329,7.942755 87.84375,7.8125 87.700576,7.63805 87.540609,7.465502 87.375,7.3125 87.36383,7.3023 87.35502,7.29135 87.34375,7.28125 87.205364,7.155694 87.058659,7.046814 86.90625,6.9375 86.803679,6.86435 86.701932,6.784136 86.59375,6.71875 c -0.0074,-0.0045 -0.02384,0.0044 -0.03125,0 -0.232039,-0.138728 -0.462548,-0.274778 -0.71875,-0.375 0.301527,0.0968 0.596455,0.204138 0.875,0.34375 0.55709,0.279224 1.060053,0.665694 1.5,1.09375 0.219973,0.214028 0.409366,0.441865 0.59375,0.6875 0.184384,0.245635 0.355408,0.507743 0.5,0.78125 0.14012,0.265048 0.276135,0.524729 0.375,0.8125 0.01041,0.03078 0.02133,0.06274 0.03125,0.09375 0.09046,0.278085 0.1388,0.579404 0.1875,0.875 C 89.95865,11.3493 90,11.665279 90,12 l 0,2 0,68 0,2 c 0,3.324 -2.676,6 -6,6 l -72,0 z" opacity=".6"/><rect id="rect2841" width="84" height="84" x="6" y="106" fill="url(#linearGradient2843)" fill-opacity="1" fill-rule="nonzero" stroke="none" rx="6" ry="6"/><rect id="rect3634" width="76" height="76" x="10" y="110" fill="red" fill-opacity="1" fill-rule="nonzero" stroke="none" rx="4" ry="4"/><path font-size="medium" style="text-indent:0;text-align:start;line-height:normal;text-transform:none;block-progression:tb;marker:none;-inkscape-font-specification:Abandoned Bitplane" id="rect3647" fill="#000" fill-opacity="1" stroke="none" stroke-width="2" d="m 14,9 c -2.752703,0 -5,2.247297 -5,5 l 0,68 c 0,2.752703 2.247297,5 5,5 l 68,0 c 2.752703,0 5,-2.247297 5,-5 L 87,14 C 87,11.247297 84.752703,9 82,9 L 14,9 z m 0,2 68,0 c 1.679297,0 3,1.320703 3,3 l 0,68 c 0,1.679297 -1.320703,3 -3,3 l -68,0 c -1.679297,0 -3,-1.320703 -3,-3 l 0,-68 c 0,-1.679297 1.320703,-3 3,-3 z" clip-path="url(#clipPath3649)" color="#000" direction="ltr" display="inline" enable-background="accumulate" filter="url(#filter3657)" font-family="Abandoned Bitplane" font-stretch="normal" font-style="normal" font-variant="normal" font-weight="normal" letter-spacing="normal" overflow="visible" text-anchor="start" text-decoration="none" transform="translate(-110,0)" visibility="visible" word-spacing="normal" writing-mode="lr-tb"/><path id="path3709" fill="#000" fill-opacity="1" fill-rule="nonzero" stroke="none" d="m 14.089286,10 c -2.216,0 -4,1.784 -4,4 l 0,68 c 0,2.216 1.784,4 4,4 l 68,0 c 2.216,0 4,-1.784 4,-4 l 0,-68 c 0,-2.216 -1.784,-4 -4,-4 l -68,0 z m 0,2 68,0 c 1.140301,0 2,0.859699 2,2 l 0,68 c 0,1.140301 -0.859699,2 -2,2 l -68,0 c -1.140301,0 -2,-0.859699 -2,-2 l 0,-68 c 0,-1.140301 0.859699,-2 2,-2 z" opacity=".16"/><path id="path3707" fill="#000" fill-opacity="1" fill-rule="nonzero" stroke="none" d="m 14,10 c -2.216,0 -4,1.784 -4,4 l 0,68 c 0,2.216 1.784,4 4,4 l 68,0 c 2.216,0 4,-1.784 4,-4 l 0,-68 c 0,-2.216 -1.784,-4 -4,-4 l -68,0 z m 0,1 68,0 c 1.673848,0 3,1.326152 3,3 l 0,68 c 0,1.673848 -1.326152,3 -3,3 l -68,0 c -1.673848,0 -3,-1.326152 -3,-3 l 0,-68 c 0,-1.673848 1.326152,-3 3,-3 z" opacity=".36"/></g><g id="layer9" display="inline"><rect id="rect2419-8" width="84" height="84" x="6" y="6" fill="#000" fill-opacity="1" fill-rule="nonzero" stroke="none" display="inline" opacity=".6" rx="6" ry="6"/><path id="rect3728-6" fill="url(#linearGradient3188-7)" fill-opacity="1" fill-rule="nonzero" stroke="none" d="M 12,6 C 8.676,6 6,8.676 6,12 l 0,2 0,68 0,2 c 0,0.334721 0.04135,0.6507 0.09375,0.96875 0.0487,0.295596 0.09704,0.596915 0.1875,0.875 0.00988,0.03038 0.020892,0.0636 0.03125,0.09375 0.098865,0.287771 0.2348802,0.547452 0.375,0.8125 0.1445918,0.273507 0.3156161,0.535615 0.5,0.78125 0.1843839,0.245635 0.3737765,0.473472 0.59375,0.6875 0.439947,0.428056 0.94291,0.814526 1.5,1.09375 0.278545,0.139612 0.5734731,0.246947 0.875,0.34375 -0.2562018,-0.100222 -0.4867109,-0.236272 -0.71875,-0.375 -0.00741,-0.0044 -0.023866,0.0045 -0.03125,0 -0.031933,-0.0193 -0.062293,-0.04251 -0.09375,-0.0625 -0.120395,-0.0767 -0.2310226,-0.163513 -0.34375,-0.25 -0.1061728,-0.0808 -0.2132809,-0.161112 -0.3125,-0.25 C 8.4783201,88.557317 8.3087904,88.373362 8.15625,88.1875 8.0486711,88.057245 7.9378561,87.922215 7.84375,87.78125 7.818661,87.74287 7.805304,87.69538 7.78125,87.65625 7.716487,87.553218 7.6510225,87.451733 7.59375,87.34375 7.4927417,87.149044 7.3880752,86.928049 7.3125,86.71875 7.30454,86.69694 7.288911,86.6782 7.28125,86.65625 7.2494249,86.5643 7.2454455,86.469419 7.21875,86.375 7.1884177,86.268382 7.1483606,86.171969 7.125,86.0625 7.0521214,85.720988 7,85.364295 7,85 L 7,83 7,15 7,13 C 7,10.218152 9.2181517,8 12,8 l 2,0 68,0 2,0 c 2.781848,0 5,2.218152 5,5 l 0,2 0,68 0,2 c 0,0.364295 -0.05212,0.720988 -0.125,1.0625 -0.04415,0.206893 -0.08838,0.397658 -0.15625,0.59375 -0.0077,0.02195 -0.0233,0.04069 -0.03125,0.0625 -0.06274,0.173739 -0.138383,0.367449 -0.21875,0.53125 -0.04158,0.0828 -0.07904,0.169954 -0.125,0.25 -0.0546,0.09721 -0.126774,0.18835 -0.1875,0.28125 -0.09411,0.140965 -0.204921,0.275995 -0.3125,0.40625 -0.143174,0.17445 -0.303141,0.346998 -0.46875,0.5 -0.01117,0.0102 -0.01998,0.02115 -0.03125,0.03125 -0.138386,0.125556 -0.285091,0.234436 -0.4375,0.34375 -0.102571,0.07315 -0.204318,0.153364 -0.3125,0.21875 -0.0074,0.0045 -0.02384,-0.0044 -0.03125,0 -0.232039,0.138728 -0.462548,0.274778 -0.71875,0.375 0.301527,-0.0968 0.596455,-0.204138 0.875,-0.34375 0.55709,-0.279224 1.060053,-0.665694 1.5,-1.09375 0.219973,-0.214028 0.409366,-0.441865 0.59375,-0.6875 0.184384,-0.245635 0.355408,-0.507743 0.5,-0.78125 0.14012,-0.265048 0.276135,-0.524729 0.375,-0.8125 0.01041,-0.03078 0.02133,-0.06274 0.03125,-0.09375 0.09046,-0.278085 0.1388,-0.579404 0.1875,-0.875 C 89.95865,84.6507 90,84.334721 90,84 l 0,-2 0,-68 0,-2 C 90,8.676 87.324,6 84,6 L 12,6 z" display="inline" opacity=".01"/><path id="path3615-5" fill="url(#radialGradient3619-3)" fill-opacity="1" fill-rule="nonzero" stroke="none" d="M 12,90 C 8.676,90 6,87.324 6,84 L 6,82 6,14 6,12 c 0,-0.334721 0.04135,-0.6507 0.09375,-0.96875 0.0487,-0.295596 0.09704,-0.596915 0.1875,-0.875 C 6.29113,10.12587 6.302142,10.09265 6.3125,10.0625 6.411365,9.774729 6.5473802,9.515048 6.6875,9.25 6.8320918,8.976493 7.0031161,8.714385 7.1875,8.46875 7.3718839,8.223115 7.5612765,7.995278 7.78125,7.78125 8.221197,7.353194 8.72416,6.966724 9.28125,6.6875 9.559795,6.547888 9.8547231,6.440553 10.15625,6.34375 9.9000482,6.443972 9.6695391,6.580022 9.4375,6.71875 c -0.00741,0.0044 -0.023866,-0.0045 -0.03125,0 -0.031933,0.0193 -0.062293,0.04251 -0.09375,0.0625 -0.120395,0.0767 -0.2310226,0.163513 -0.34375,0.25 -0.1061728,0.0808 -0.2132809,0.161112 -0.3125,0.25 C 8.4783201,7.442683 8.3087904,7.626638 8.15625,7.8125 8.0486711,7.942755 7.9378561,8.077785 7.84375,8.21875 7.818661,8.25713 7.805304,8.30462 7.78125,8.34375 7.716487,8.446782 7.6510225,8.548267 7.59375,8.65625 7.4927417,8.850956 7.3880752,9.071951 7.3125,9.28125 7.30454,9.30306 7.288911,9.3218 7.28125,9.34375 7.2494249,9.4357 7.2454455,9.530581 7.21875,9.625 7.1884177,9.731618 7.1483606,9.828031 7.125,9.9375 7.0521214,10.279012 7,10.635705 7,11 l 0,2 0,68 0,2 c 0,2.781848 2.2181517,5 5,5 l 2,0 68,0 2,0 c 2.781848,0 5,-2.218152 5,-5 l 0,-2 0,-68 0,-2 C 89,10.635705 88.94788,10.279012 88.875,9.9375 88.83085,9.730607 88.78662,9.539842 88.71875,9.34375 88.71105,9.3218 88.69545,9.30306 88.6875,9.28125 88.62476,9.107511 88.549117,8.913801 88.46875,8.75 88.42717,8.6672 88.38971,8.580046 88.34375,8.5 88.28915,8.40279 88.216976,8.31165 88.15625,8.21875 88.06214,8.077785 87.951329,7.942755 87.84375,7.8125 87.700576,7.63805 87.540609,7.465502 87.375,7.3125 87.36383,7.3023 87.35502,7.29135 87.34375,7.28125 87.205364,7.155694 87.058659,7.046814 86.90625,6.9375 86.803679,6.86435 86.701932,6.784136 86.59375,6.71875 c -0.0074,-0.0045 -0.02384,0.0044 -0.03125,0 -0.232039,-0.138728 -0.462548,-0.274778 -0.71875,-0.375 0.301527,0.0968 0.596455,0.204138 0.875,0.34375 0.55709,0.279224 1.060053,0.665694 1.5,1.09375 0.219973,0.214028 0.409366,0.441865 0.59375,0.6875 0.184384,0.245635 0.355408,0.507743 0.5,0.78125 0.14012,0.265048 0.276135,0.524729 0.375,0.8125 0.01041,0.03078 0.02133,0.06274 0.03125,0.09375 0.09046,0.278085 0.1388,0.579404 0.1875,0.875 C 89.95865,11.3493 90,11.665279 90,12 l 0,2 0,68 0,2 c 0,3.324 -2.676,6 -6,6 l -72,0 z" display="inline" opacity=".15"/></g><g id="layer3" display="inline"><path id="path3748" fill="#000" fill-opacity="1" stroke="none" d="m 33.34375,22.96875 c -3.307134,0 -6.03125,2.724116 -6.03125,6.03125 l 0,12.78125 c -2.972529,0.359261 -5.34375,2.811079 -5.34375,5.875 l 0,13.34375 c 0,3.063921 2.371221,5.515739 5.34375,5.875 l 0,2.125 c 0,3.307134 2.724116,6.03125 6.03125,6.03125 l 29.3125,0 c 3.307134,0 6.03125,-2.724116 6.03125,-6.03125 l 0,-2.125 C 71.660029,66.515739 74.03125,64.063921 74.03125,61 l 0,-13.34375 c 0,-3.063918 -2.37122,-5.515739 -5.34375,-5.875 L 68.6875,29 c 0,-3.307134 -2.724116,-6.03125 -6.03125,-6.03125 l -29.3125,0 z m 3.34375,9.40625 22.625,0 0,1.34375 c -0.03775,-0.0092 -0.190019,-0.06299 -0.1875,-0.0625 0.0029,5.64e-4 -0.190444,-2.75e-4 -0.1875,0 0.0029,2.75e-4 -0.190457,-0.03123 -0.1875,-0.03125 l -21.34375,0 c 8.31e-4,4e-5 -0.03943,-1.7e-5 -0.0625,0 -0.01154,9e-6 -0.01732,-3e-6 -0.03125,0 0.0017,8.1e-5 -0.0693,1.2e-5 -0.125,0 -0.04178,-9e-6 -0.095,6.1e-5 -0.09375,0 a 1.0529589,1.0529589 0 0 0 -0.125,0.03125 c 0.0026,-4.95e-4 -0.190024,0.03197 -0.1875,0.03125 0.0015,-4.22e-4 -0.04534,0.01514 -0.09375,0.03125 l 0,-1.34375 z m 22.625,7.90625 0,3.375 0,0.65625 -4.0625,0 c 0.01073,-0.03027 0.03155,-0.06349 0.03125,-0.0625 -8.48e-4,0.0028 0.06306,-0.221652 0.0625,-0.21875 -5.64e-4,0.0029 2.75e-4,-0.190444 0,-0.1875 -2.75e-4,0.0029 0.03123,-0.190457 0.03125,-0.1875 L 55.375,41 c -1.7e-5,0.003 -0.03153,-0.190444 -0.03125,-0.1875 2.75e-4,0.0029 -5.64e-4,-0.190402 0,-0.1875 5.64e-4,0.0029 -0.06335,-0.221583 -0.0625,-0.21875 1.27e-4,4.25e-4 0.0025,-0.02417 0,-0.03125 l 3.46875,0 c -0.003,-1.7e-5 0.190444,-0.03153 0.1875,-0.03125 -0.0029,2.75e-4 0.190402,-5.64e-4 0.1875,0 -0.0025,4.9e-4 0.149746,-0.0533 0.1875,-0.0625 z M 60,52.3125 c 0.371043,0 0.6875,0.316457 0.6875,0.6875 0,0.371043 -0.316457,0.6875 -0.6875,0.6875 -0.371043,0 -0.6875,-0.316457 -0.6875,-0.6875 -2e-6,-0.371065 0.316443,-0.6875 0.6875,-0.6875 z m 5.34375,0 c 0.371065,0 0.6875,0.316435 0.6875,0.6875 -2e-6,0.371026 -0.316467,0.6875 -0.6875,0.6875 -0.139034,0 -0.381849,-0.08967 -0.53125,-0.25 C 64.663099,53.277168 64.625,53.091101 64.625,53 c 0,-0.09112 0.03811,-0.277177 0.1875,-0.4375 0.149392,-0.160323 0.392197,-0.25 0.53125,-0.25 z M 36.6875,64.375 l 22.625,0 0,0.625 0,0.625 -22.625,0 0,-0.625 0,-0.625 z" display="inline" opacity=".1"/><path id="path3744" fill="#000" fill-opacity="1" stroke="none" d="M 33.34375,24.03125 C 30.610867,24.03125 28.375,26.267117 28.375,29 l 0,13.6875 -0.375,0 c -2.732883,0 -4.96875,2.235867 -4.96875,4.96875 l 0,13.34375 c 0,2.732883 2.235867,4.96875 4.96875,4.96875 l 0.375,0 0,3.03125 c 0,2.732883 2.235867,4.96875 4.96875,4.96875 l 29.3125,0 c 2.732883,0 4.96875,-2.235867 4.96875,-4.96875 l 0,-3.03125 0.375,0 c 2.732883,0 4.96875,-2.235867 4.96875,-4.96875 l 0,-13.34375 C 72.96875,44.923371 70.732884,42.6875 68,42.6875 l -0.375,0 0,-13.6875 c 0,-2.732883 -2.235867,-4.96875 -4.96875,-4.96875 l -29.3125,0 z M 36,31.3125 l 24,0 c 0.239891,0 0.375,0.131022 0.375,0.34375 l 0,12 0,1.71875 -24.75,0 0,-1.71875 0,-12 c 0,-0.212728 0.135109,-0.34375 0.375,-0.34375 z m 1.25,3.375 a 0.96316664,0.96316664 0 0 0 -0.875,0.96875 l 0,2.6875 a 0.96316664,0.96316664 0 0 0 0.96875,0.96875 l 21.40625,0 a 0.96316664,0.96316664 0 0 0 0.96875,-0.96875 l 0,-2.6875 A 0.96316664,0.96316664 0 0 0 58.75,34.6875 l -21.40625,0 a 0.96316664,0.96316664 0 0 0 -0.09375,0 z m 0,5.34375 A 0.96316664,0.96316664 0 0 0 36.375,41 l 0,2.65625 a 0.96316664,0.96316664 0 0 0 0.96875,0.96875 l 16,0 a 0.96316664,0.96316664 0 0 0 0.96875,-0.96875 l 0,-2.65625 a 0.96316664,0.96316664 0 0 0 -0.96875,-0.96875 l -16,0 a 0.96316664,0.96316664 0 0 0 -0.09375,0 z M 60,52.625 c 0.205832,0 0.375,0.169168 0.375,0.375 10e-7,0.205828 -0.169168,0.375 -0.375,0.375 -0.205832,0 -0.375,-0.169168 -0.375,-0.375 0,-0.205832 0.169168,-0.375 0.375,-0.375 z m 5.34375,0 c 0.205835,0 0.34375,0.141906 0.34375,0.375 10e-7,0.233086 -0.137918,0.375 -0.34375,0.375 -0.205828,0 -0.375,-0.16917 -0.375,-0.375 10e-7,-0.205835 0.169168,-0.375 0.375,-0.375 z M 35.625,63.3125 l 24.75,0 0,1.6875 0,1.34375 c 0,0.212728 -0.135109,0.34375 -0.375,0.34375 l -24,0 c -0.239891,0 -0.375,-0.131022 -0.375,-0.34375 l 0,-1.34375 0,-1.6875 z" display="inline" opacity=".15"/><path id="path3738" fill="#000" fill-opacity="1" stroke="none" d="m 33.333334,25 c -2.216,0 -4,1.784 -4,4 l 0,14.666666 -1.333334,0 c -2.216,0 -4,1.784 -4,4 L 24,61 c 0,2.216 1.784,4 4,4 l 1.333334,0 0,4 c 0,2.216 1.784,4 4,4 l 29.333332,0 c 2.216,0 4,-1.784 4,-4 l 0,-4 L 68,65 c 2.216,0 4,-1.784 4,-4 l 0,-13.333334 c 0,-2.215996 -1.784,-4 -4,-4 l -1.25,0 -0.08334,0 0,-14.666666 c 0,-2.216 -1.784,-4 -4,-4 L 33.333334,25 z M 36,30.333334 l 24,0 c 0.738666,0 1.333334,0.594666 1.333334,1.333332 l 0,12 0,2.666668 -26.666668,0 0,-2.666668 0,-12 c 0,-0.738666 0.594668,-1.333332 1.333334,-1.333332 z m 1.333334,5.333332 0,2.666668 21.416666,0 0,-2.666668 -21.416666,0 z m 0,5.333334 0,2.666666 16,0 0,-2.666666 -16,0 z M 60,51.666666 c 0.736,0 1.333334,0.597334 1.333334,1.333334 C 61.333336,53.736 60.736,54.333334 60,54.333334 59.264,54.333334 58.666666,53.736 58.666666,53 58.666666,52.264 59.264,51.666666 60,51.666666 z m 5.333334,0 c 0.736002,0 1.333332,0.597334 1.333332,1.333334 4e-6,0.736 -0.597332,1.333334 -1.333332,1.333334 C 64.597336,54.333334 64,53.736 64,53 c 2e-6,-0.736 0.597334,-1.333334 1.333334,-1.333334 z m -30.666668,10.666668 26.666668,0 0,2.666666 0,1.333334 c 0,0.738666 -0.594668,1.333332 -1.333334,1.333332 l -24,0 c -0.738666,0 -1.333334,-0.594666 -1.333334,-1.333332 l 0,-1.333334 0,-2.666666 z" display="inline" opacity=".3"/><path id="Symbol" fill="url(#linearGradient2869)" fill-opacity="1" stroke="none" d="m 33.333334,24 c -2.216,0 -4,1.784 -4,4 l 0,14.666666 -1.333334,0 c -2.216,0 -4,1.784 -4,4 L 24,60 c 0,2.216 1.784,4 4,4 l 1.333334,0 0,4 c 0,2.216 1.784,4 4,4 l 29.333332,0 c 2.216,0 4,-1.784 4,-4 l 0,-4 L 68,64 c 2.216,0 4,-1.784 4,-4 l 0,-13.333334 c 0,-2.215996 -1.784,-4 -4,-4 l -1.25,0 -0.08334,0 0,-14.666666 c 0,-2.216 -1.784,-4 -4,-4 L 33.333334,24 z M 36,29.333334 l 24,0 c 0.738666,0 1.333334,0.594666 1.333334,1.333332 l 0,12 0,2.666668 -26.666668,0 0,-2.666668 0,-12 c 0,-0.738666 0.594668,-1.333332 1.333334,-1.333332 z m 1.333334,5.333332 0,2.666668 21.416666,0 0,-2.666668 -21.416666,0 z m 0,5.333334 0,2.666666 16,0 0,-2.666666 -16,0 z M 60,50.666666 c 0.736,0 1.333334,0.597334 1.333334,1.333334 C 61.333336,52.736 60.736,53.333334 60,53.333334 59.264,53.333334 58.666666,52.736 58.666666,52 58.666666,51.264 59.264,50.666666 60,50.666666 z m 5.333334,0 c 0.736002,0 1.333332,0.597334 1.333332,1.333334 4e-6,0.736 -0.597332,1.333334 -1.333332,1.333334 C 64.597336,53.333334 64,52.736 64,52 c 2e-6,-0.736 0.597334,-1.333334 1.333334,-1.333334 z m -30.666668,10.666668 26.666668,0 0,2.666666 0,1.333334 c 0,0.738666 -0.594668,1.333332 -1.333334,1.333332 l -24,0 c -0.738666,0 -1.333334,-0.594666 -1.333334,-1.333332 l 0,-1.333334 0,-2.666666 z" display="inline"/><path id="path3719" fill="#fff" fill-opacity="1" stroke="none" d="M 33.34375 24 C 31.12775 24 29.34375 25.784 29.34375 28 L 29.34375 29 C 29.34375 26.784 31.12775 25 33.34375 25 L 62.65625 25 C 64.87225 25 66.65625 26.784 66.65625 29 L 66.65625 28 C 66.65625 25.784 64.87225 24 62.65625 24 L 33.34375 24 z M 37.34375 34.65625 L 37.34375 35.65625 L 58.75 35.65625 L 58.75 34.65625 L 37.34375 34.65625 z M 37.34375 40 L 37.34375 41 L 53.34375 41 L 53.34375 40 L 37.34375 40 z M 28 42.65625 C 25.784 42.65625 24 44.44025 24 46.65625 L 24 47.65625 C 24 45.44025 25.784 43.65625 28 43.65625 L 29.34375 43.65625 L 29.34375 42.65625 L 28 42.65625 z M 66.65625 42.65625 L 66.65625 43.65625 L 66.75 43.65625 L 68 43.65625 C 70.216 43.65625 72 45.440254 72 47.65625 L 72 46.65625 C 72 44.440254 70.216 42.65625 68 42.65625 L 66.75 42.65625 L 66.65625 42.65625 z M 34.65625 45.34375 L 34.65625 46.34375 L 61.34375 46.34375 L 61.34375 45.34375 L 34.65625 45.34375 z M 58.78125 52.5 C 58.720594 52.65238 58.65625 52.826082 58.65625 53 C 58.65625 53.736 59.264 54.34375 60 54.34375 C 60.736 54.34375 61.343752 53.736 61.34375 53 C 61.34375 52.826082 61.279406 52.65238 61.21875 52.5 C 61.022716 52.992475 60.562082 53.34375 60 53.34375 C 59.437918 53.34375 58.977284 52.992475 58.78125 52.5 z M 64.09375 52.53125 C 64.040542 52.675185 64 52.837647 64 53 C 64 53.736 64.607752 54.34375 65.34375 54.34375 C 66.07975 54.34375 66.656254 53.736 66.65625 53 C 66.65625 52.837647 66.615708 52.675185 66.5625 52.53125 C 66.360001 53.00975 65.89575 53.34375 65.34375 53.34375 C 64.791752 53.34375 64.296251 53.00975 64.09375 52.53125 z M 34.65625 65.34375 L 34.65625 66.34375 C 34.65625 67.082416 35.261334 67.65625 36 67.65625 L 60 67.65625 C 60.738666 67.65625 61.34375 67.082416 61.34375 66.34375 L 61.34375 65.34375 C 61.34375 66.082416 60.738666 66.65625 60 66.65625 L 36 66.65625 C 35.261334 66.65625 34.65625 66.082416 34.65625 65.34375 z" display="inline" opacity=".75"/><path id="path3729" fill="#000" fill-opacity="1" stroke="none" d="M 36 28.34375 C 35.261334 28.34375 34.65625 28.917584 34.65625 29.65625 L 34.65625 30.65625 C 34.65625 29.917584 35.261334 29.34375 36 29.34375 L 60 29.34375 C 60.738666 29.34375 61.34375 29.917584 61.34375 30.65625 L 61.34375 29.65625 C 61.34375 28.917584 60.738666 28.34375 60 28.34375 L 36 28.34375 z M 37.34375 36.34375 L 37.34375 37.34375 L 58.75 37.34375 L 58.75 36.34375 L 37.34375 36.34375 z M 37.34375 41.65625 L 37.34375 42.65625 L 53.34375 42.65625 L 53.34375 41.65625 L 37.34375 41.65625 z M 60 49.65625 C 59.264 49.65625 58.65625 50.264 58.65625 51 C 58.65625 51.173918 58.720594 51.34762 58.78125 51.5 C 58.977284 51.007525 59.437918 50.65625 60 50.65625 C 60.562082 50.65625 61.022716 51.007525 61.21875 51.5 C 61.279406 51.34762 61.34375 51.173918 61.34375 51 C 61.34375 50.264 60.736 49.65625 60 49.65625 z M 65.34375 49.65625 C 64.60775 49.65625 64.000002 50.264 64 51 C 64 51.162353 64.040541 51.324815 64.09375 51.46875 C 64.29625 50.99025 64.79175 50.65625 65.34375 50.65625 C 65.895752 50.65625 66.360001 50.99025 66.5625 51.46875 C 66.615708 51.324815 66.656251 51.162353 66.65625 51 C 66.65625 50.264 66.079752 49.65625 65.34375 49.65625 z M 24 59 L 24 60 C 24 62.216 25.784 64 28 64 L 29.34375 64 L 29.34375 63 L 28 63 C 25.784 63 24 61.216 24 59 z M 72 59 C 72 61.216 70.216 63 68 63 L 66.65625 63 L 66.65625 64 L 68 64 C 70.216 64 72 62.216 72 60 L 72 59 z M 34.65625 60.34375 L 34.65625 61.34375 L 61.34375 61.34375 L 61.34375 60.34375 L 34.65625 60.34375 z M 29.34375 67 L 29.34375 68 C 29.34375 70.216 31.12775 72 33.34375 72 L 62.65625 72 C 64.87225 72 66.65625 70.216 66.65625 68 L 66.65625 67 C 66.65625 69.216 64.87225 71 62.65625 71 L 33.34375 71 C 31.12775 71 29.34375 69.216 29.34375 67 z" display="inline" opacity=".15"/></g></svg>