<svg xmlns="http://www.w3.org/2000/svg" xmlns:svg="http://www.w3.org/2000/svg" xmlns:xlink="http://www.w3.org/1999/xlink" id="svg2408" width="96" height="96" display="inline" version="1.0"><defs id="defs2410"><linearGradient id="linearGradient3637"><stop id="stop3639" offset="0" stop-color="#f0f0f0" stop-opacity="1"/><stop id="stop3641" offset="1" stop-color="#dcdcdc" stop-opacity="1"/></linearGradient><linearGradient id="ButtonShadow" x1="45.448" x2="45.448" y1="92.54" y2="7.017" gradientTransform="scale(1.0058652,0.994169)" gradientUnits="userSpaceOnUse"><stop id="stop3750" offset="0" stop-color="#000" stop-opacity="1"/><stop id="stop3752" offset="1" stop-color="#000" stop-opacity=".588"/></linearGradient><linearGradient id="linearGradient3737"><stop id="stop3739" offset="0" stop-color="#fff" stop-opacity="1"/><stop id="stop3741" offset="1" stop-color="#fff" stop-opacity="0"/></linearGradient><linearGradient id="linearGradient3700"><stop id="stop3702" offset="0" stop-color="#2276c5" stop-opacity="1"/><stop id="stop3704" offset="1" stop-color="#68baf4" stop-opacity="1"/></linearGradient><linearGradient id="linearGradient3706" x1="48" x2="48" y1="90" y2="5.988" gradientUnits="userSpaceOnUse" xlink:href="#linearGradient3700"/><linearGradient id="linearGradient3743" x1="36.357" x2="36.357" y1="6" y2="63.893" gradientUnits="userSpaceOnUse" xlink:href="#linearGradient3737"/><filter id="filter3174" color-interpolation-filters="sRGB"><feGaussianBlur id="feGaussianBlur3176" stdDeviation="1.71"/></filter><linearGradient id="linearGradient3188" x1="36.357" x2="36.357" y1="6" y2="63.893" gradientUnits="userSpaceOnUse" xlink:href="#linearGradient3737"/><linearGradient id="linearGradient3613" x1="48" x2="48" y1="20.221" y2="138.661" gradientUnits="userSpaceOnUse" xlink:href="#linearGradient3737"/><radialGradient id="radialGradient3619" cx="48" cy="90.172" r="42" fx="48" fy="90.172" gradientTransform="matrix(1.1573129,0,0,0.99590774,-7.5510206,0.19713193)" gradientUnits="userSpaceOnUse" xlink:href="#linearGradient3737"/><clipPath id="clipPath3613" clipPathUnits="userSpaceOnUse"><rect id="rect3615" width="84" height="84" x="6" y="6" fill="#fff" fill-opacity="1" fill-rule="nonzero" stroke="none" rx="6" ry="6"/></clipPath><linearGradient id="linearGradient2843" x1="48" x2="48" y1="90" y2="5.988" gradientTransform="translate(0,100)" gradientUnits="userSpaceOnUse" xlink:href="#linearGradient3700"/><linearGradient id="linearGradient2848" x1="48" x2="48" y1="90" y2="5.988" gradientUnits="userSpaceOnUse" xlink:href="#linearGradient3700"/><clipPath id="clipPath3625" clipPathUnits="userSpaceOnUse"><path id="path3627" fill="#fff" fill-opacity="1" stroke="none" d="M 0,0 0,96 96,96 96,0 0,0 z m 12,6 72,0 c 3.324,0 6,2.676 6,6 l 0,72 c 0,3.324 -2.676,6 -6,6 L 12,90 C 8.676,90 6,87.324 6,84 L 6,12 C 6,8.676 8.676,6 12,6 z"/></clipPath><linearGradient id="linearGradient3643" x1="44.512" x2="44.512" y1="6" y2="90.015" gradientUnits="userSpaceOnUse" xlink:href="#linearGradient3637"/><clipPath id="clipPath3649" clipPathUnits="userSpaceOnUse"><rect id="rect3651" width="76" height="76" x="10" y="10" fill="#fff" fill-opacity="1" fill-rule="nonzero" stroke="none" rx="4" ry="4"/></clipPath><filter id="filter3657" color-interpolation-filters="sRGB"><feGaussianBlur id="feGaussianBlur3659" stdDeviation="1.14"/></filter><clipPath id="clipPath3697" clipPathUnits="userSpaceOnUse"><rect id="rect3699" width="76" height="76" x="10" y="10" fill="red" fill-opacity="1" fill-rule="nonzero" stroke="none" rx="4" ry="4"/></clipPath><linearGradient id="linearGradient3804" x1="20.759" x2="20.759" y1="1" y2="45.017" gradientTransform="matrix(1.2790652,0,0,1.2790652,17.302433,18.5815)" gradientUnits="userSpaceOnUse" xlink:href="#linearGradient3309"/><linearGradient id="linearGradient3309" x1="63.999" x2="63.999" y1="3.1" y2="122.899" gradientUnits="userSpaceOnUse"><stop id="stop3311" offset="0" stop-color="#f6f6f6" stop-opacity="1"/><stop id="stop3313" offset="1" stop-color="#d2d2d2" stop-opacity="1"/></linearGradient><linearGradient id="linearGradient3806" x1="37.201" x2="37.201" y1="1" y2="45" gradientTransform="matrix(1.2790652,0,0,1.2790652,17.302433,18.5815)" gradientUnits="userSpaceOnUse" xlink:href="#linearGradient3397"/><linearGradient id="linearGradient3397"><stop id="stop3399" offset="0" stop-color="#aaa" stop-opacity="1"/><stop id="stop3401" offset="1" stop-color="#8c8c8c" stop-opacity="1"/></linearGradient><linearGradient id="linearGradient2940" x1="20.759" x2="20.759" y1="1" y2="45.017" gradientTransform="matrix(1.2790652,0,0,1.2790652,17.302433,18.5815)" gradientUnits="userSpaceOnUse" xlink:href="#linearGradient3309"/><linearGradient id="linearGradient3665" x1="20.759" x2="20.759" y1="1" y2="45.017" gradientTransform="matrix(0.93022994,0,0,-0.93022994,23.674475,61.395341)" gradientUnits="userSpaceOnUse" xlink:href="#linearGradient4081"/><linearGradient id="linearGradient3669" x1="20.759" x2="20.759" y1="1" y2="45.017" gradientTransform="matrix(0.47268421,0.12665535,0.12665535,-0.47268421,44.47921,74.733655)" gradientUnits="userSpaceOnUse" xlink:href="#linearGradient4081"/><linearGradient id="linearGradient3180" x1="-13" x2="-13" y1="17.009" y2="-.7" gradientUnits="userSpaceOnUse" xlink:href="#linearGradient4081"/><linearGradient id="linearGradient4081"><stop id="stop4083" offset="0" stop-color="#aaa" stop-opacity="1"/><stop id="stop4085" offset="1" stop-color="#f0f0f0" stop-opacity="1"/></linearGradient><linearGradient id="linearGradient2851" x1="-13" x2="-13" y1="17.009" y2="-.7" gradientUnits="userSpaceOnUse" xlink:href="#linearGradient4081"/><linearGradient id="linearGradient3692" x1="20.759" x2="20.759" y1="1" y2="45.017" gradientTransform="matrix(0.93022994,0,0,-0.93022994,23.674475,61.395341)" gradientUnits="userSpaceOnUse" xlink:href="#linearGradient4081"/><linearGradient id="linearGradient3697" x1="20.759" x2="20.759" y1="1" y2="45.017" gradientTransform="matrix(0.93022994,0,0,-0.93022994,23.674475,61.395341)" gradientUnits="userSpaceOnUse" xlink:href="#linearGradient4081"/><linearGradient id="linearGradient3701" x1="20.759" x2="20.759" y1="1" y2="45.017" gradientTransform="matrix(0.93022994,0,0,-0.93022994,23.674475,61.395341)" gradientUnits="userSpaceOnUse" xlink:href="#linearGradient4081"/><linearGradient id="linearGradient3720" x1="20.759" x2="20.759" y1="1" y2="45.017" gradientTransform="matrix(0.93022994,0,0,-0.93022994,23.674475,61.395341)" gradientUnits="userSpaceOnUse" xlink:href="#linearGradient4081"/><linearGradient id="linearGradient3725" x1="20.759" x2="20.759" y1="1" y2="45.017" gradientTransform="matrix(0.93022994,0,0,-0.93022994,23.674475,62.395341)" gradientUnits="userSpaceOnUse" xlink:href="#linearGradient4081"/><linearGradient id="linearGradient3727" x1="20.759" x2="20.759" y1="1" y2="45.017" gradientTransform="matrix(0.93022994,0,0,-0.93022994,23.674475,61.395341)" gradientUnits="userSpaceOnUse" xlink:href="#linearGradient4081"/><linearGradient id="linearGradient3708" x1="29.827" x2="65.694" y1="51.954" y2="51.954" gradientTransform="matrix(0,1,-1,0,96,0)" gradientUnits="userSpaceOnUse" xlink:href="#StandardGradient"/><linearGradient id="StandardGradient" x1="11.347" x2="11.347" y1="6" y2="16.013" gradientTransform="translate(-3,-2.9995677)" gradientUnits="userSpaceOnUse"><stop id="stop3177" offset="0" stop-color="#000" stop-opacity=".863"/><stop id="stop3179" offset="1" stop-color="#000" stop-opacity=".471"/></linearGradient><linearGradient id="linearGradient3034" x1="29.827" x2="65.694" y1="51.954" y2="51.954" gradientTransform="matrix(0,-1,-1,0,96,16)" gradientUnits="userSpaceOnUse" xlink:href="#linearGradient4081"/><linearGradient id="linearGradient3831" x1="29.827" x2="65.694" y1="51.954" y2="51.954" gradientTransform="matrix(0,-1,-1,0,96,97)" gradientUnits="userSpaceOnUse" xlink:href="#linearGradient4081"/><linearGradient id="linearGradient3833" x1="29.827" x2="65.694" y1="51.954" y2="51.954" gradientTransform="matrix(0,-1,-1,0,96,96)" gradientUnits="userSpaceOnUse" xlink:href="#linearGradient4081"/><linearGradient id="linearGradient3682" x1="29.827" x2="65.694" y1="51.954" y2="51.954" gradientTransform="matrix(0,-1,-1,0,96,96)" gradientUnits="userSpaceOnUse" xlink:href="#linearGradient4081"/><linearGradient id="linearGradient3699" x1="29.827" x2="65.694" y1="51.954" y2="51.954" gradientTransform="matrix(0,-1,-1,0,96,96)" gradientUnits="userSpaceOnUse" xlink:href="#linearGradient4081"/><linearGradient id="linearGradient3705" x1="29.827" x2="65.694" y1="51.954" y2="51.954" gradientTransform="matrix(0,-1,-1,0,36,16)" gradientUnits="userSpaceOnUse" xlink:href="#linearGradient4081"/><linearGradient id="linearGradient3712" x1="29.827" x2="65.694" y1="51.954" y2="51.954" gradientTransform="matrix(0,-1,-1,0,96,97)" gradientUnits="userSpaceOnUse" xlink:href="#linearGradient4081"/><linearGradient id="linearGradient3714" x1="29.827" x2="65.694" y1="51.954" y2="51.954" gradientTransform="matrix(0,-1,-1,0,96,96)" gradientUnits="userSpaceOnUse" xlink:href="#linearGradient4081"/><linearGradient id="linearGradient3708-7" x1="29.827" x2="65.694" y1="51.954" y2="51.954" gradientTransform="matrix(0,1,-1,0,96,0)" gradientUnits="userSpaceOnUse" xlink:href="#StandardGradient-8"/><linearGradient id="StandardGradient-8" x1="11.347" x2="11.347" y1="6" y2="16.013" gradientTransform="translate(-3,-2.9995677)" gradientUnits="userSpaceOnUse"><stop id="stop3177-6" offset="0" stop-color="#000" stop-opacity=".863"/><stop id="stop3179-8" offset="1" stop-color="#000" stop-opacity=".471"/></linearGradient><linearGradient id="linearGradient2947" x1="29.827" x2="65.694" y1="51.954" y2="51.954" gradientTransform="matrix(0,1,-1,0,183,0)" gradientUnits="userSpaceOnUse" xlink:href="#StandardGradient-8"/><linearGradient id="linearGradient3728" x1="56" x2="56" y1="72" y2="24" gradientUnits="userSpaceOnUse" xlink:href="#linearGradient4081"/><linearGradient id="linearGradient3710" x1="24" x2="72" y1="48" y2="48" gradientTransform="matrix(0,-1,1,0,0,96)" gradientUnits="userSpaceOnUse" xlink:href="#linearGradient4081"/><linearGradient id="linearGradient3716" x1="24" x2="72" y1="48" y2="48" gradientTransform="matrix(0,-1,1,0,0,97)" gradientUnits="userSpaceOnUse" xlink:href="#linearGradient4081"/><linearGradient id="linearGradient3718" x1="24" x2="72" y1="48" y2="48" gradientTransform="matrix(0,-1,1,0,0,96)" gradientUnits="userSpaceOnUse" xlink:href="#linearGradient4081"/><linearGradient id="linearGradient3723" x1="24" x2="72" y1="48" y2="48" gradientTransform="matrix(0,-1,1,0,0,96)" gradientUnits="userSpaceOnUse" xlink:href="#linearGradient4081"/><linearGradient id="linearGradient3729" x1="24" x2="72" y1="48" y2="48" gradientTransform="matrix(0,-1,1,0,0,95)" gradientUnits="userSpaceOnUse" xlink:href="#linearGradient4081"/><linearGradient id="linearGradient3702" x1="27" x2="69" y1="48" y2="48" gradientTransform="matrix(0,-1,1,0,90,96)" gradientUnits="userSpaceOnUse" xlink:href="#linearGradient4081"/><linearGradient id="linearGradient3709" x1="27" x2="69" y1="48" y2="48" gradientTransform="matrix(0,-1,1,0,0,97)" gradientUnits="userSpaceOnUse" xlink:href="#linearGradient4081"/><linearGradient id="linearGradient3711" x1="27" x2="69" y1="48" y2="48" gradientTransform="matrix(0,-1,1,0,0,96)" gradientUnits="userSpaceOnUse" xlink:href="#linearGradient4081"/><linearGradient id="linearGradient3719" x1="27" x2="69" y1="48" y2="48" gradientTransform="matrix(0,-1,1,0,0,95)" gradientUnits="userSpaceOnUse" xlink:href="#linearGradient4081"/><linearGradient id="linearGradient3721" x1="27" x2="69" y1="48" y2="48" gradientTransform="matrix(0,-1,1,0,0,96)" gradientUnits="userSpaceOnUse" xlink:href="#linearGradient4081"/><linearGradient id="linearGradient3227" x1="11.999" x2="11.999" y1="2.766" y2="15.702" gradientTransform="matrix(0.9219544,0,0,1.0846523,-0.01723507,-0.03125)" gradientUnits="userSpaceOnUse" xlink:href="#StandardGradient-2"/><linearGradient id="StandardGradient-2" x1="11.999" x2="11.999" y1=".922" y2="19.387" gradientTransform="scale(0.9219544,1.0846523)" gradientUnits="userSpaceOnUse"><stop id="stop3283" offset="0" stop-color="#000" stop-opacity=".863"/><stop id="stop2651" offset="1" stop-color="#000" stop-opacity=".471"/></linearGradient><linearGradient id="linearGradient2876" x1="11.999" x2="11.999" y1="2.766" y2="15.702" gradientTransform="matrix(2.4585451,0,0,2.9114351,18.620707,18.547698)" gradientUnits="userSpaceOnUse" xlink:href="#StandardGradient-2"/><linearGradient id="linearGradient3117" x1="11.999" x2="11.999" y1="2.766" y2="15.702" gradientTransform="matrix(2.4585451,0,0,2.9114351,18.620707,18.547698)" gradientUnits="userSpaceOnUse" xlink:href="#StandardGradient-2"/><linearGradient id="linearGradient3921" x1="48" x2="48" y1="74" y2="23.99" gradientTransform="translate(81,0)" gradientUnits="userSpaceOnUse" xlink:href="#linearGradient4081"/><linearGradient id="linearGradient3927" x1="48" x2="48" y1="74" y2="23.99" gradientTransform="translate(0,1)" gradientUnits="userSpaceOnUse" xlink:href="#linearGradient4081"/><linearGradient id="linearGradient3929" x1="48" x2="48" y1="74" y2="23.99" gradientUnits="userSpaceOnUse" xlink:href="#linearGradient4081"/><linearGradient id="linearGradient3936" x1="48" x2="48" y1="74" y2="23.99" gradientTransform="translate(0,-1)" gradientUnits="userSpaceOnUse" xlink:href="#linearGradient4081"/><linearGradient id="linearGradient3938" x1="48" x2="48" y1="74" y2="23.99" gradientUnits="userSpaceOnUse" xlink:href="#linearGradient4081"/><linearGradient id="linearGradient3765" x1="48" x2="48" y1="76" y2="20" gradientUnits="userSpaceOnUse" xlink:href="#linearGradient4081"/><linearGradient id="linearGradient3771" x1="48" x2="48" y1="76" y2="20" gradientTransform="translate(0,1)" gradientUnits="userSpaceOnUse" xlink:href="#linearGradient4081"/><linearGradient id="linearGradient3773" x1="48" x2="48" y1="76" y2="20" gradientUnits="userSpaceOnUse" xlink:href="#linearGradient4081"/><linearGradient id="linearGradient3780" x1="48" x2="48" y1="76" y2="20" gradientTransform="translate(0,-1)" gradientUnits="userSpaceOnUse" xlink:href="#linearGradient4081"/><linearGradient id="linearGradient3782" x1="48" x2="48" y1="76" y2="20" gradientUnits="userSpaceOnUse" xlink:href="#linearGradient4081"/><linearGradient id="linearGradient3787" x1="48" x2="48" y1="76" y2="20" gradientTransform="translate(0,1)" gradientUnits="userSpaceOnUse" xlink:href="#linearGradient4081"/><linearGradient id="linearGradient3188-5" x1="36.357" x2="36.357" y1="6" y2="63.893" gradientUnits="userSpaceOnUse" xlink:href="#linearGradient3737-8"/><linearGradient id="linearGradient3737-8"><stop id="stop3739-2" offset="0" stop-color="#fff" stop-opacity="1"/><stop id="stop3741-2" offset="1" stop-color="#fff" stop-opacity="0"/></linearGradient><radialGradient id="radialGradient3619-7" cx="48" cy="90.172" r="42" fx="48" fy="90.172" gradientTransform="matrix(1.1573129,0,0,0.99590774,-7.551021,0.1971319)" gradientUnits="userSpaceOnUse" xlink:href="#linearGradient3737-8"/><linearGradient id="linearGradient3016" x1="32.251" x2="32.251" y1="6.132" y2="90.239" gradientTransform="matrix(1.0238095,0,0,-1.0119048,-1.1428571,98.071429)" gradientUnits="userSpaceOnUse" xlink:href="#ButtonShadow-0"/><linearGradient id="ButtonShadow-0" x1="45.448" x2="45.448" y1="92.54" y2="7.017" gradientTransform="matrix(1.0058652,0,0,0.994169,100,0)" gradientUnits="userSpaceOnUse"><stop id="stop3750-8" offset="0" stop-color="#000" stop-opacity="1"/><stop id="stop3752-5" offset="1" stop-color="#000" stop-opacity=".588"/></linearGradient><linearGradient id="linearGradient3780-9" x1="32.251" x2="32.251" y1="6.132" y2="90.239" gradientTransform="matrix(1.0238095,0,0,-1.0119048,-1.1428571,98.071429)" gradientUnits="userSpaceOnUse" xlink:href="#ButtonShadow-0"/><linearGradient id="linearGradient3257" x1="45.448" x2="45.448" y1="92.54" y2="7.017" gradientTransform="matrix(1.0058652,0,0,0.994169,100,0)" gradientUnits="userSpaceOnUse"><stop id="stop3259" offset="0" stop-color="#000" stop-opacity="1"/><stop id="stop3261" offset="1" stop-color="#000" stop-opacity=".588"/></linearGradient><linearGradient id="linearGradient3772" x1="32.251" x2="32.251" y1="6.132" y2="90.239" gradientTransform="matrix(1.0238095,0,0,-1.0119048,-1.1428571,98.071429)" gradientUnits="userSpaceOnUse" xlink:href="#ButtonShadow-0"/><linearGradient id="linearGradient3264" x1="45.448" x2="45.448" y1="92.54" y2="7.017" gradientTransform="matrix(1.0058652,0,0,0.994169,100,0)" gradientUnits="userSpaceOnUse"><stop id="stop3266" offset="0" stop-color="#000" stop-opacity="1"/><stop id="stop3268" offset="1" stop-color="#000" stop-opacity=".588"/></linearGradient><linearGradient id="linearGradient3725-6" x1="32.251" x2="32.251" y1="6.132" y2="90.239" gradientTransform="matrix(1.0238095,0,0,-1.0119048,-1.1428571,98.071429)" gradientUnits="userSpaceOnUse" xlink:href="#ButtonShadow-0"/><linearGradient id="linearGradient3271" x1="45.448" x2="45.448" y1="92.54" y2="7.017" gradientTransform="matrix(1.0058652,0,0,0.994169,100,0)" gradientUnits="userSpaceOnUse"><stop id="stop3273" offset="0" stop-color="#000" stop-opacity="1"/><stop id="stop3275" offset="1" stop-color="#000" stop-opacity=".588"/></linearGradient><linearGradient id="linearGradient3721-9" x1="32.251" x2="32.251" y1="6.132" y2="90.239" gradientTransform="matrix(1,0,0,-1,0,97)" gradientUnits="userSpaceOnUse" xlink:href="#ButtonShadow-0"/><linearGradient id="linearGradient3278" x1="45.448" x2="45.448" y1="92.54" y2="7.017" gradientTransform="matrix(1.0058652,0,0,0.994169,100,0)" gradientUnits="userSpaceOnUse"><stop id="stop3280" offset="0" stop-color="#000" stop-opacity="1"/><stop id="stop3282" offset="1" stop-color="#000" stop-opacity=".588"/></linearGradient><linearGradient id="linearGradient3289" x1="32.251" x2="32.251" y1="6.132" y2="90.239" gradientTransform="matrix(1.0238095,0,0,-1.0119048,-1.1428571,98.071429)" gradientUnits="userSpaceOnUse" xlink:href="#ButtonShadow-0"/></defs><metadata id="metadata2413"/><g id="layer2" display="none"><rect id="rect3745" width="86" height="85" x="5" y="7" fill="url(#ButtonShadow)" fill-opacity="1" fill-rule="nonzero" stroke="none" clip-path="url(#clipPath3625)" filter="url(#filter3174)" opacity=".9" rx="6" ry="6"/></g><g id="layer8" display="inline"><path id="path3786" fill="url(#linearGradient3289)" fill-opacity="1" fill-rule="nonzero" stroke="none" d="M 12,3.96875 C 6.4889098,3.96875 1.96875,8.4889098 1.96875,14 l 0,71 c 0,5.51109 4.5201597,10.03125 10.03125,10.03125 l 72,0 c 5.51109,0 10.03125,-4.52016 10.03125,-10.03125 l 0,-71 C 94.03125,8.4889097 89.51109,3.96875 84,3.96875 l -72,0 z M 12,6 84,6 c 3.324,0 6,2.676 6,6 l 0,72 c 0,3.324 -2.676,6 -6,6 L 12,90 C 8.676,90 6,87.324 6,84 L 6,12 C 6,8.676 8.676,6 12,6 z" display="inline" opacity=".08"/><path id="path3778" fill="url(#linearGradient3780-9)" fill-opacity="1" fill-rule="nonzero" stroke="none" d="M 12,4.96875 C 7.0283671,4.96875 2.96875,9.0283671 2.96875,14 l 0,71 c 0,4.971633 4.059617,9.03125 9.03125,9.03125 l 72,0 c 4.971633,0 9.03125,-4.059617 9.03125,-9.03125 l 0,-71 C 93.03125,9.028367 88.971633,4.96875 84,4.96875 l -72,0 z M 12,6 84,6 c 3.324,0 6,2.676 6,6 l 0,72 c 0,3.324 -2.676,6 -6,6 L 12,90 C 8.676,90 6,87.324 6,84 L 6,12 C 6,8.676 8.676,6 12,6 z" display="inline" opacity=".1"/><path id="path3770" fill="url(#linearGradient3772)" fill-opacity="1" fill-rule="nonzero" stroke="none" d="M 11.1875,6.03125 C 7.159982,6.4419011 4,9.8664375 4,14 l 0,71 c 0,4.409133 3.590867,8 8,8 l 72,0 c 4.409133,0 8,-3.590867 8,-8 L 92,14 C 92,9.8029382 88.741028,6.3539584 84.625,6.03125 87.657886,6.337417 90,8.88375 90,12 l 0,72 c 0,3.324 -2.676,6 -6,6 L 12,90 C 8.676,90 6,87.324 6,84 L 6,12 c 0,-3.11625 2.342114,-5.662583 5.375,-5.96875 -0.06227,0.00488 -0.12563,-0.00631 -0.1875,0 z" display="inline" opacity=".2"/><path id="rect3723" fill="url(#linearGradient3725-6)" fill-opacity="1" fill-rule="nonzero" stroke="none" d="M 6.4375,9.75 C 5.5380109,10.927446 5,12.397277 5,14 l 0,71 c 0,3.878 3.122,7 7,7 l 72,0 c 3.878,0 7,-3.122 7,-7 L 91,14 C 91,12.397277 90.461989,10.927446 89.5625,9.75 89.841816,10.444095 90,11.203625 90,12 l 0,72 c 0,3.324 -2.676,6 -6,6 L 12,90 C 8.676,90 6,87.324 6,84 L 6,12 C 6,11.203625 6.1581836,10.444095 6.4375,9.75 z" display="inline" opacity=".3"/><path id="rect3716" fill="url(#linearGradient3721-9)" fill-opacity="1" fill-rule="nonzero" stroke="none" d="m 6,84 0,1 c 0,3.324 2.676,6 6,6 l 72,0 c 3.324,0 6,-2.676 6,-6 l 0,-1 c 0,3.324 -2.676,6 -6,6 L 12,90 C 8.676,90 6,87.324 6,84 z" display="inline" opacity=".45"/></g><g id="layer1" display="none"><rect id="rect2419" width="84" height="84" x="6" y="6" fill="#000" fill-opacity="1" fill-rule="nonzero" stroke="none" opacity=".7" rx="6" ry="6"/><path id="rect3726" fill="#000" fill-opacity="1" fill-rule="nonzero" stroke="none" d="m 14,10 c -2.216,0 -4,1.784 -4,4 l 0,68 c 0,2.216 1.784,4 4,4 l 68,0 c 2.216,0 4,-1.784 4,-4 l 0,-68 c 0,-2.216 -1.784,-4 -4,-4 l -68,0 z m 0,3.0625 68,0 c 0.578769,0 0.9375,0.358731 0.9375,0.9375 l 0,68 c 0,0.578769 -0.358731,0.9375 -0.9375,0.9375 l -68,0 c -0.578769,0 -0.9375,-0.358731 -0.9375,-0.9375 l 0,-68 c 0,-0.578769 0.358731,-0.9375 0.9375,-0.9375 z" opacity=".08"/><path id="rect3629" fill="url(#linearGradient3643)" fill-opacity="1" fill-rule="nonzero" stroke="none" d="M 12,6 C 8.676,6 6,8.676 6,12 l 0,72 c 0,3.324 2.676,6 6,6 l 72,0 c 3.324,0 6,-2.676 6,-6 L 90,12 C 90,8.676 87.324,6 84,6 L 12,6 z m 2,4 68,0 c 2.216,0 4,1.784 4,4 l 0,68 c 0,2.216 -1.784,4 -4,4 l -68,0 c -2.216,0 -4,-1.784 -4,-4 l 0,-68 c 0,-2.216 1.784,-4 4,-4 z"/><path id="rect3728" fill="url(#linearGradient3188)" fill-opacity="1" fill-rule="nonzero" stroke="none" d="M 12,6 C 8.676,6 6,8.676 6,12 l 0,2 0,68 0,2 c 0,0.334721 0.04135,0.6507 0.09375,0.96875 0.0487,0.295596 0.09704,0.596915 0.1875,0.875 0.00988,0.03038 0.020892,0.0636 0.03125,0.09375 0.098865,0.287771 0.2348802,0.547452 0.375,0.8125 0.1445918,0.273507 0.3156161,0.535615 0.5,0.78125 0.1843839,0.245635 0.3737765,0.473472 0.59375,0.6875 0.439947,0.428056 0.94291,0.814526 1.5,1.09375 0.278545,0.139612 0.5734731,0.246947 0.875,0.34375 -0.2562018,-0.100222 -0.4867109,-0.236272 -0.71875,-0.375 -0.00741,-0.0044 -0.023866,0.0045 -0.03125,0 -0.031933,-0.0193 -0.062293,-0.04251 -0.09375,-0.0625 -0.120395,-0.0767 -0.2310226,-0.163513 -0.34375,-0.25 -0.1061728,-0.0808 -0.2132809,-0.161112 -0.3125,-0.25 C 8.4783201,88.557317 8.3087904,88.373362 8.15625,88.1875 8.0486711,88.057245 7.9378561,87.922215 7.84375,87.78125 7.818661,87.74287 7.805304,87.69538 7.78125,87.65625 7.716487,87.553218 7.6510225,87.451733 7.59375,87.34375 7.4927417,87.149044 7.3880752,86.928049 7.3125,86.71875 7.30454,86.69694 7.288911,86.6782 7.28125,86.65625 7.2494249,86.5643 7.2454455,86.469419 7.21875,86.375 7.1884177,86.268382 7.1483606,86.171969 7.125,86.0625 7.0521214,85.720988 7,85.364295 7,85 L 7,83 7,15 7,13 C 7,10.218152 9.2181517,8 12,8 l 2,0 68,0 2,0 c 2.781848,0 5,2.218152 5,5 l 0,2 0,68 0,2 c 0,0.364295 -0.05212,0.720988 -0.125,1.0625 -0.04415,0.206893 -0.08838,0.397658 -0.15625,0.59375 -0.0077,0.02195 -0.0233,0.04069 -0.03125,0.0625 -0.06274,0.173739 -0.138383,0.367449 -0.21875,0.53125 -0.04158,0.0828 -0.07904,0.169954 -0.125,0.25 -0.0546,0.09721 -0.126774,0.18835 -0.1875,0.28125 -0.09411,0.140965 -0.204921,0.275995 -0.3125,0.40625 -0.143174,0.17445 -0.303141,0.346998 -0.46875,0.5 -0.01117,0.0102 -0.01998,0.02115 -0.03125,0.03125 -0.138386,0.125556 -0.285091,0.234436 -0.4375,0.34375 -0.102571,0.07315 -0.204318,0.153364 -0.3125,0.21875 -0.0074,0.0045 -0.02384,-0.0044 -0.03125,0 -0.232039,0.138728 -0.462548,0.274778 -0.71875,0.375 0.301527,-0.0968 0.596455,-0.204138 0.875,-0.34375 0.55709,-0.279224 1.060053,-0.665694 1.5,-1.09375 0.219973,-0.214028 0.409366,-0.441865 0.59375,-0.6875 0.184384,-0.245635 0.355408,-0.507743 0.5,-0.78125 0.14012,-0.265048 0.276135,-0.524729 0.375,-0.8125 0.01041,-0.03078 0.02133,-0.06274 0.03125,-0.09375 0.09046,-0.278085 0.1388,-0.579404 0.1875,-0.875 C 89.95865,84.6507 90,84.334721 90,84 l 0,-2 0,-68 0,-2 C 90,8.676 87.324,6 84,6 L 12,6 z"/><path id="path3615" fill="url(#radialGradient3619)" fill-opacity="1" fill-rule="nonzero" stroke="none" d="M 12,90 C 8.676,90 6,87.324 6,84 L 6,82 6,14 6,12 c 0,-0.334721 0.04135,-0.6507 0.09375,-0.96875 0.0487,-0.295596 0.09704,-0.596915 0.1875,-0.875 C 6.29113,10.12587 6.302142,10.09265 6.3125,10.0625 6.411365,9.774729 6.5473802,9.515048 6.6875,9.25 6.8320918,8.976493 7.0031161,8.714385 7.1875,8.46875 7.3718839,8.223115 7.5612765,7.995278 7.78125,7.78125 8.221197,7.353194 8.72416,6.966724 9.28125,6.6875 9.559795,6.547888 9.8547231,6.440553 10.15625,6.34375 9.9000482,6.443972 9.6695391,6.580022 9.4375,6.71875 c -0.00741,0.0044 -0.023866,-0.0045 -0.03125,0 -0.031933,0.0193 -0.062293,0.04251 -0.09375,0.0625 -0.120395,0.0767 -0.2310226,0.163513 -0.34375,0.25 -0.1061728,0.0808 -0.2132809,0.161112 -0.3125,0.25 C 8.4783201,7.442683 8.3087904,7.626638 8.15625,7.8125 8.0486711,7.942755 7.9378561,8.077785 7.84375,8.21875 7.818661,8.25713 7.805304,8.30462 7.78125,8.34375 7.716487,8.446782 7.6510225,8.548267 7.59375,8.65625 7.4927417,8.850956 7.3880752,9.071951 7.3125,9.28125 7.30454,9.30306 7.288911,9.3218 7.28125,9.34375 7.2494249,9.4357 7.2454455,9.530581 7.21875,9.625 7.1884177,9.731618 7.1483606,9.828031 7.125,9.9375 7.0521214,10.279012 7,10.635705 7,11 l 0,2 0,68 0,2 c 0,2.781848 2.2181517,5 5,5 l 2,0 68,0 2,0 c 2.781848,0 5,-2.218152 5,-5 l 0,-2 0,-68 0,-2 C 89,10.635705 88.94788,10.279012 88.875,9.9375 88.83085,9.730607 88.78662,9.539842 88.71875,9.34375 88.71105,9.3218 88.69545,9.30306 88.6875,9.28125 88.62476,9.107511 88.549117,8.913801 88.46875,8.75 88.42717,8.6672 88.38971,8.580046 88.34375,8.5 88.28915,8.40279 88.216976,8.31165 88.15625,8.21875 88.06214,8.077785 87.951329,7.942755 87.84375,7.8125 87.700576,7.63805 87.540609,7.465502 87.375,7.3125 87.36383,7.3023 87.35502,7.29135 87.34375,7.28125 87.205364,7.155694 87.058659,7.046814 86.90625,6.9375 86.803679,6.86435 86.701932,6.784136 86.59375,6.71875 c -0.0074,-0.0045 -0.02384,0.0044 -0.03125,0 -0.232039,-0.138728 -0.462548,-0.274778 -0.71875,-0.375 0.301527,0.0968 0.596455,0.204138 0.875,0.34375 0.55709,0.279224 1.060053,0.665694 1.5,1.09375 0.219973,0.214028 0.409366,0.441865 0.59375,0.6875 0.184384,0.245635 0.355408,0.507743 0.5,0.78125 0.14012,0.265048 0.276135,0.524729 0.375,0.8125 0.01041,0.03078 0.02133,0.06274 0.03125,0.09375 0.09046,0.278085 0.1388,0.579404 0.1875,0.875 C 89.95865,11.3493 90,11.665279 90,12 l 0,2 0,68 0,2 c 0,3.324 -2.676,6 -6,6 l -72,0 z" opacity=".6"/><rect id="rect2841" width="84" height="84" x="6" y="106" fill="url(#linearGradient2843)" fill-opacity="1" fill-rule="nonzero" stroke="none" rx="6" ry="6"/><rect id="rect3634" width="76" height="76" x="10" y="110" fill="red" fill-opacity="1" fill-rule="nonzero" stroke="none" rx="4" ry="4"/><path font-size="medium" style="text-indent:0;text-align:start;line-height:normal;text-transform:none;block-progression:tb;marker:none;-inkscape-font-specification:Abandoned Bitplane" id="rect3647" fill="#000" fill-opacity="1" stroke="none" stroke-width="2" d="m 14,9 c -2.752703,0 -5,2.247297 -5,5 l 0,68 c 0,2.752703 2.247297,5 5,5 l 68,0 c 2.752703,0 5,-2.247297 5,-5 L 87,14 C 87,11.247297 84.752703,9 82,9 L 14,9 z m 0,2 68,0 c 1.679297,0 3,1.320703 3,3 l 0,68 c 0,1.679297 -1.320703,3 -3,3 l -68,0 c -1.679297,0 -3,-1.320703 -3,-3 l 0,-68 c 0,-1.679297 1.320703,-3 3,-3 z" clip-path="url(#clipPath3649)" color="#000" direction="ltr" display="inline" enable-background="accumulate" filter="url(#filter3657)" font-family="Abandoned Bitplane" font-stretch="normal" font-style="normal" font-variant="normal" font-weight="normal" letter-spacing="normal" overflow="visible" text-anchor="start" text-decoration="none" transform="translate(-110,0)" visibility="visible" word-spacing="normal" writing-mode="lr-tb"/><path id="path3709" fill="#000" fill-opacity="1" fill-rule="nonzero" stroke="none" d="m 14.089286,10 c -2.216,0 -4,1.784 -4,4 l 0,68 c 0,2.216 1.784,4 4,4 l 68,0 c 2.216,0 4,-1.784 4,-4 l 0,-68 c 0,-2.216 -1.784,-4 -4,-4 l -68,0 z m 0,2 68,0 c 1.140301,0 2,0.859699 2,2 l 0,68 c 0,1.140301 -0.859699,2 -2,2 l -68,0 c -1.140301,0 -2,-0.859699 -2,-2 l 0,-68 c 0,-1.140301 0.859699,-2 2,-2 z" opacity=".16"/><path id="path3707" fill="#000" fill-opacity="1" fill-rule="nonzero" stroke="none" d="m 14,10 c -2.216,0 -4,1.784 -4,4 l 0,68 c 0,2.216 1.784,4 4,4 l 68,0 c 2.216,0 4,-1.784 4,-4 l 0,-68 c 0,-2.216 -1.784,-4 -4,-4 l -68,0 z m 0,1 68,0 c 1.673848,0 3,1.326152 3,3 l 0,68 c 0,1.673848 -1.326152,3 -3,3 l -68,0 c -1.673848,0 -3,-1.326152 -3,-3 l 0,-68 c 0,-1.673848 1.326152,-3 3,-3 z" opacity=".36"/></g><g id="layer7" display="inline"><rect id="rect2419-1" width="84" height="84" x="6" y="6" fill="#000" fill-opacity="1" fill-rule="nonzero" stroke="none" display="inline" opacity=".6" rx="6" ry="6"/><path id="rect3728-7" fill="url(#linearGradient3188-5)" fill-opacity="1" fill-rule="nonzero" stroke="none" d="M 12,6 C 8.676,6 6,8.676 6,12 l 0,2 0,68 0,2 c 0,0.334721 0.04135,0.6507 0.09375,0.96875 0.0487,0.295596 0.09704,0.596915 0.1875,0.875 0.00988,0.03038 0.020892,0.0636 0.03125,0.09375 0.098865,0.287771 0.2348802,0.547452 0.375,0.8125 0.1445918,0.273507 0.3156161,0.535615 0.5,0.78125 0.1843839,0.245635 0.3737765,0.473472 0.59375,0.6875 0.439947,0.428056 0.94291,0.814526 1.5,1.09375 0.278545,0.139612 0.5734731,0.246947 0.875,0.34375 -0.2562018,-0.100222 -0.4867109,-0.236272 -0.71875,-0.375 -0.00741,-0.0044 -0.023866,0.0045 -0.03125,0 -0.031933,-0.0193 -0.062293,-0.04251 -0.09375,-0.0625 -0.120395,-0.0767 -0.2310226,-0.163513 -0.34375,-0.25 -0.1061728,-0.0808 -0.2132809,-0.161112 -0.3125,-0.25 C 8.4783201,88.557317 8.3087904,88.373362 8.15625,88.1875 8.0486711,88.057245 7.9378561,87.922215 7.84375,87.78125 7.818661,87.74287 7.805304,87.69538 7.78125,87.65625 7.716487,87.553218 7.6510225,87.451733 7.59375,87.34375 7.4927417,87.149044 7.3880752,86.928049 7.3125,86.71875 7.30454,86.69694 7.288911,86.6782 7.28125,86.65625 7.2494249,86.5643 7.2454455,86.469419 7.21875,86.375 7.1884177,86.268382 7.1483606,86.171969 7.125,86.0625 7.0521214,85.720988 7,85.364295 7,85 L 7,83 7,15 7,13 C 7,10.218152 9.2181517,8 12,8 l 2,0 68,0 2,0 c 2.781848,0 5,2.218152 5,5 l 0,2 0,68 0,2 c 0,0.364295 -0.05212,0.720988 -0.125,1.0625 -0.04415,0.206893 -0.08838,0.397658 -0.15625,0.59375 -0.0077,0.02195 -0.0233,0.04069 -0.03125,0.0625 -0.06274,0.173739 -0.138383,0.367449 -0.21875,0.53125 -0.04158,0.0828 -0.07904,0.169954 -0.125,0.25 -0.0546,0.09721 -0.126774,0.18835 -0.1875,0.28125 -0.09411,0.140965 -0.204921,0.275995 -0.3125,0.40625 -0.143174,0.17445 -0.303141,0.346998 -0.46875,0.5 -0.01117,0.0102 -0.01998,0.02115 -0.03125,0.03125 -0.138386,0.125556 -0.285091,0.234436 -0.4375,0.34375 -0.102571,0.07315 -0.204318,0.153364 -0.3125,0.21875 -0.0074,0.0045 -0.02384,-0.0044 -0.03125,0 -0.232039,0.138728 -0.462548,0.274778 -0.71875,0.375 0.301527,-0.0968 0.596455,-0.204138 0.875,-0.34375 0.55709,-0.279224 1.060053,-0.665694 1.5,-1.09375 0.219973,-0.214028 0.409366,-0.441865 0.59375,-0.6875 0.184384,-0.245635 0.355408,-0.507743 0.5,-0.78125 0.14012,-0.265048 0.276135,-0.524729 0.375,-0.8125 0.01041,-0.03078 0.02133,-0.06274 0.03125,-0.09375 0.09046,-0.278085 0.1388,-0.579404 0.1875,-0.875 C 89.95865,84.6507 90,84.334721 90,84 l 0,-2 0,-68 0,-2 C 90,8.676 87.324,6 84,6 L 12,6 z" display="inline" opacity=".01"/><path id="path3615-1" fill="url(#radialGradient3619-7)" fill-opacity="1" fill-rule="nonzero" stroke="none" d="M 12,90 C 8.676,90 6,87.324 6,84 L 6,82 6,14 6,12 c 0,-0.334721 0.04135,-0.6507 0.09375,-0.96875 0.0487,-0.295596 0.09704,-0.596915 0.1875,-0.875 C 6.29113,10.12587 6.302142,10.09265 6.3125,10.0625 6.411365,9.774729 6.5473802,9.515048 6.6875,9.25 6.8320918,8.976493 7.0031161,8.714385 7.1875,8.46875 7.3718839,8.223115 7.5612765,7.995278 7.78125,7.78125 8.221197,7.353194 8.72416,6.966724 9.28125,6.6875 9.559795,6.547888 9.8547231,6.440553 10.15625,6.34375 9.9000482,6.443972 9.6695391,6.580022 9.4375,6.71875 c -0.00741,0.0044 -0.023866,-0.0045 -0.03125,0 -0.031933,0.0193 -0.062293,0.04251 -0.09375,0.0625 -0.120395,0.0767 -0.2310226,0.163513 -0.34375,0.25 -0.1061728,0.0808 -0.2132809,0.161112 -0.3125,0.25 C 8.4783201,7.442683 8.3087904,7.626638 8.15625,7.8125 8.0486711,7.942755 7.9378561,8.077785 7.84375,8.21875 7.818661,8.25713 7.805304,8.30462 7.78125,8.34375 7.716487,8.446782 7.6510225,8.548267 7.59375,8.65625 7.4927417,8.850956 7.3880752,9.071951 7.3125,9.28125 7.30454,9.30306 7.288911,9.3218 7.28125,9.34375 7.2494249,9.4357 7.2454455,9.530581 7.21875,9.625 7.1884177,9.731618 7.1483606,9.828031 7.125,9.9375 7.0521214,10.279012 7,10.635705 7,11 l 0,2 0,68 0,2 c 0,2.781848 2.2181517,5 5,5 l 2,0 68,0 2,0 c 2.781848,0 5,-2.218152 5,-5 l 0,-2 0,-68 0,-2 C 89,10.635705 88.94788,10.279012 88.875,9.9375 88.83085,9.730607 88.78662,9.539842 88.71875,9.34375 88.71105,9.3218 88.69545,9.30306 88.6875,9.28125 88.62476,9.107511 88.549117,8.913801 88.46875,8.75 88.42717,8.6672 88.38971,8.580046 88.34375,8.5 88.28915,8.40279 88.216976,8.31165 88.15625,8.21875 88.06214,8.077785 87.951329,7.942755 87.84375,7.8125 87.700576,7.63805 87.540609,7.465502 87.375,7.3125 87.36383,7.3023 87.35502,7.29135 87.34375,7.28125 87.205364,7.155694 87.058659,7.046814 86.90625,6.9375 86.803679,6.86435 86.701932,6.784136 86.59375,6.71875 c -0.0074,-0.0045 -0.02384,0.0044 -0.03125,0 -0.232039,-0.138728 -0.462548,-0.274778 -0.71875,-0.375 0.301527,0.0968 0.596455,0.204138 0.875,0.34375 0.55709,0.279224 1.060053,0.665694 1.5,1.09375 0.219973,0.214028 0.409366,0.441865 0.59375,0.6875 0.184384,0.245635 0.355408,0.507743 0.5,0.78125 0.14012,0.265048 0.276135,0.524729 0.375,0.8125 0.01041,0.03078 0.02133,0.06274 0.03125,0.09375 0.09046,0.278085 0.1388,0.579404 0.1875,0.875 C 89.95865,11.3493 90,11.665279 90,12 l 0,2 0,68 0,2 c 0,3.324 -2.676,6 -6,6 l -72,0 z" display="inline" opacity=".15"/></g><g id="layer3" display="inline"><path id="path3797" fill="#000" fill-opacity="1" fill-rule="nonzero" stroke="none" stroke-width="1" d="m 41,19 c -1.367722,0 -2.339854,1.049789 -2.6875,2.3125 -0.90076,0.247995 -1.527558,0.831171 -1.875,1.6875 L 33,23 32,23 c -3.284037,0 -6,2.715963 -6,6 l 0,1 0,38 0,1 c 0,3.284037 2.715963,6 6,6 l 1,0 1.5625,0 c 0.822103,2.272968 2.866254,4 5.4375,4 l 28,0 c 3.284037,0 6,-2.715963 6,-6 l 0,-36 c 0,-2.571246 -1.727032,-4.615397 -4,-5.4375 L 70,30 70,29 c 0,-3.284037 -2.715963,-6 -6,-6 l -1,0 -3.4375,0 C 59.215058,22.143671 58.58826,21.560495 57.6875,21.3125 57.339854,20.049789 56.367722,19 55,19 l -14,0 z m 3,22 20,0 0,28 -20,0 0,-28 z" color="#000" display="inline" enable-background="accumulate" opacity=".1" overflow="visible" visibility="visible" style="marker:none"/><path id="path3793" fill="#000" fill-opacity="1" fill-rule="nonzero" stroke="none" stroke-width="1" d="m 41,20 c -1.082517,0 -2,0.917483 -2,2 -1.082517,0 -2,0.917483 -2,2 l -4,0 -1,0 c -2.744517,0 -5,2.255483 -5,5 l 0,1 0,38 0,1 c 0,2.744517 2.255483,5 5,5 l 1,0 2.21875,0 c 0.479051,2.25096 2.39151,4 4.78125,4 l 28,0 c 2.744517,0 5,-2.255483 5,-5 l 0,-36 c 0,-2.38974 -1.74904,-4.302199 -4,-4.78125 L 69,30 69,29 c 0,-2.744517 -2.255483,-5 -5,-5 l -1,0 -4,0 c 0,-1.082517 -0.917483,-2 -2,-2 0,-1.082517 -0.917483,-2 -2,-2 l -14,0 z m 4,4 6,0 0,2 -6,0 0,-2 z m -1,16 20,0 c 0.579483,0 1,0.420517 1,1 l 0,28 c 0,0.579483 -0.420517,1 -1,1 l -20,0 c -0.579483,0 -1,-0.420517 -1,-1 l 0,-28 c 0,-0.579483 0.420517,-1 1,-1 z" color="#000" display="inline" enable-background="accumulate" opacity=".15" overflow="visible" visibility="visible" style="marker:none"/><path id="path3785" fill="#000" fill-opacity="1" fill-rule="nonzero" stroke="none" stroke-width="1" d="m 41,21 c -0.554,0 -1,0.446 -1,1 l 0,1 -1,0 c -0.554,0 -1,0.446 -1,1 l 0,1 -5,0 -1,0 c -2.216,0 -4,1.784 -4,4 l 0,1 0,38 0,1 c 0,2.216 1.784,4 4,4 l 1,0 3,0 c 0,2.216 1.784,4 4,4 l 28,0 c 2.216,0 4,-1.784 4,-4 l 0,-36 c 0,-2.216 -1.784,-4 -4,-4 l 0,-3 0,-1 c 0,-2.216 -1.784,-4 -4,-4 l -1,0 -5,0 0,-1 c 0,-0.554 -0.446,-1 -1,-1 l -1,0 0,-1 c 0,-0.554 -0.446,-1 -1,-1 l -14,0 z m 4,2 6,0 c 0.554,0 1,0.446 1,1 l 0,2 c 0,0.554 -0.446,1 -1,1 l -6,0 c -0.554,0 -1,-0.446 -1,-1 l 0,-2 c 0,-0.554 0.446,-1 1,-1 z m -1,16 20,0 c 1.108,0 2,0.892 2,2 l 0,28 c 0,1.108 -0.892,2 -2,2 l -20,0 c -1.108,0 -2,-0.892 -2,-2 l 0,-28 c 0,-1.108 0.892,-2 2,-2 z" color="#000" display="inline" enable-background="accumulate" opacity=".3" overflow="visible" visibility="visible" style="marker:none"/><path id="rect2961" fill="url(#linearGradient3765)" fill-opacity="1" fill-rule="nonzero" stroke="none" stroke-width="1" d="m 41,20 c -0.554,0 -1,0.446 -1,1 l 0,1 -1,0 c -0.554,0 -1,0.446 -1,1 l 0,1 -5,0 -1,0 c -2.216,0 -4,1.784 -4,4 l 0,1 0,38 0,1 c 0,2.216 1.784,4 4,4 l 1,0 3,0 c 0,2.216 1.784,4 4,4 l 28,0 c 2.216,0 4,-1.784 4,-4 l 0,-36 c 0,-2.216 -1.784,-4 -4,-4 l 0,-3 0,-1 c 0,-2.216 -1.784,-4 -4,-4 l -1,0 -5,0 0,-1 c 0,-0.554 -0.446,-1 -1,-1 l -1,0 0,-1 c 0,-0.554 -0.446,-1 -1,-1 l -14,0 z m 4,2 6,0 c 0.554,0 1,0.446 1,1 l 0,2 c 0,0.554 -0.446,1 -1,1 l -6,0 c -0.554,0 -1,-0.446 -1,-1 l 0,-2 c 0,-0.554 0.446,-1 1,-1 z m -1,16 20,0 c 1.108,0 2,0.892 2,2 l 0,28 c 0,1.108 -0.892,2 -2,2 l -20,0 c -1.108,0 -2,-0.892 -2,-2 l 0,-28 c 0,-1.108 0.892,-2 2,-2 z" color="#000" display="inline" enable-background="accumulate" opacity="1" overflow="visible" visibility="visible" style="marker:none"/><path id="path3767" fill="#fff" fill-opacity="1" fill-rule="nonzero" stroke="none" stroke-width="1" d="M 41 20 C 40.446 20 40 20.446 40 21 L 40 22 C 40 21.446 40.446 21 41 21 L 55 21 C 55.554 21 56 21.446 56 22 L 56 21 C 56 20.446 55.554 20 55 20 L 41 20 z M 56 22 L 56 23 L 57 23 C 57.554 23 58 23.446 58 24 L 58 23 C 58 22.446 57.554 22 57 22 L 56 22 z M 58 24 L 58 25 L 63 25 L 64 25 C 66.216 25 68 26.784 68 29 L 68 28 C 68 25.784 66.216 24 64 24 L 63 24 L 58 24 z M 40 22 L 39 22 C 38.446 22 38 22.446 38 23 L 38 24 C 38 23.446 38.446 23 39 23 L 40 23 L 40 22 z M 38 24 L 33 24 L 32 24 C 29.784 24 28 25.784 28 28 L 28 29 C 28 26.784 29.784 25 32 25 L 33 25 L 38 25 L 38 24 z M 44 25 L 44 26 C 44 26.554 44.446 27 45 27 L 51 27 C 51.554 27 52 26.554 52 26 L 52 25 C 52 25.554 51.554 26 51 26 L 45 26 C 44.446 26 44 25.554 44 25 z M 68 32 L 68 33 C 70.216 33 72 34.784 72 37 L 72 36 C 72 33.784 70.216 32 68 32 z M 42 68 L 42 69 C 42 70.108 42.892 71 44 71 L 64 71 C 65.108 71 66 70.108 66 69 L 66 68 C 66 69.108 65.108 70 64 70 L 44 70 C 42.892 70 42 69.108 42 68 z" color="#000" display="inline" enable-background="accumulate" opacity=".75" overflow="visible" visibility="visible" style="marker:none"/><path id="path3776" fill="#000" fill-opacity="1" fill-rule="nonzero" stroke="none" stroke-width="1" d="M 45 21 C 44.446 21 44 21.446 44 22 L 44 23 C 44 22.446 44.446 22 45 22 L 51 22 C 51.554 22 52 22.446 52 23 L 52 22 C 52 21.446 51.554 21 51 21 L 45 21 z M 44 37 C 42.892 37 42 37.892 42 39 L 42 40 C 42 38.892 42.892 38 44 38 L 64 38 C 65.108 38 66 38.892 66 40 L 66 39 C 66 37.892 65.108 37 64 37 L 44 37 z M 28 67 L 28 68 C 28 70.216 29.784 72 32 72 L 33 72 L 36 72 C 36 74.216 37.784 76 40 76 L 68 76 C 70.216 76 72 74.216 72 72 L 72 71 C 72 73.216 70.216 75 68 75 L 40 75 C 37.784 75 36 73.216 36 71 L 33 71 L 32 71 C 29.784 71 28 69.216 28 67 z" color="#000" display="inline" enable-background="accumulate" opacity=".15" overflow="visible" visibility="visible" style="marker:none"/></g></svg>