<svg xmlns="http://www.w3.org/2000/svg" xmlns:svg="http://www.w3.org/2000/svg" xmlns:xlink="http://www.w3.org/1999/xlink" id="svg2408" width="96" height="96" version="1.0"><defs id="defs2410"><linearGradient id="linearGradient3637"><stop id="stop3639" offset="0" stop-color="#f0f0f0" stop-opacity="1"/><stop id="stop3641" offset="1" stop-color="#dcdcdc" stop-opacity="1"/></linearGradient><linearGradient id="ButtonShadow" x1="45.448" x2="45.448" y1="92.54" y2="7.017" gradientTransform="scale(1.0058652,0.994169)" gradientUnits="userSpaceOnUse"><stop id="stop3750" offset="0" stop-color="#000" stop-opacity="1"/><stop id="stop3752" offset="1" stop-color="#000" stop-opacity=".588"/></linearGradient><linearGradient id="linearGradient3737"><stop id="stop3739" offset="0" stop-color="#fff" stop-opacity="1"/><stop id="stop3741" offset="1" stop-color="#fff" stop-opacity="0"/></linearGradient><linearGradient id="linearGradient3700"><stop id="stop3702" offset="0" stop-color="#2276c5" stop-opacity="1"/><stop id="stop3704" offset="1" stop-color="#68baf4" stop-opacity="1"/></linearGradient><linearGradient id="linearGradient3706" x1="48" x2="48" y1="90" y2="5.988" gradientUnits="userSpaceOnUse" xlink:href="#linearGradient3700"/><linearGradient id="linearGradient3743" x1="36.357" x2="36.357" y1="6" y2="63.893" gradientUnits="userSpaceOnUse" xlink:href="#linearGradient3737"/><filter id="filter3174"><feGaussianBlur id="feGaussianBlur3176" stdDeviation="1.71"/></filter><linearGradient id="linearGradient3188" x1="36.357" x2="36.357" y1="6" y2="63.893" gradientUnits="userSpaceOnUse" xlink:href="#linearGradient3737"/><filter id="filter3794" width="1.384" height="1.384" x="-.192" y="-.192"><feGaussianBlur id="feGaussianBlur3796" stdDeviation="5.28"/></filter><linearGradient id="linearGradient3613" x1="48" x2="48" y1="20.221" y2="138.661" gradientUnits="userSpaceOnUse" xlink:href="#linearGradient3737"/><radialGradient id="radialGradient3619" cx="48" cy="90.172" r="42" fx="48" fy="90.172" gradientTransform="matrix(1.1573129,0,0,0.99590774,-7.5510206,0.19713193)" gradientUnits="userSpaceOnUse" xlink:href="#linearGradient3737"/><clipPath id="clipPath3613" clipPathUnits="userSpaceOnUse"><rect id="rect3615" width="84" height="84" x="6" y="6" fill="#fff" fill-opacity="1" fill-rule="nonzero" stroke="none" rx="6" ry="6"/></clipPath><linearGradient id="linearGradient2843" x1="48" x2="48" y1="90" y2="5.988" gradientTransform="translate(0,100)" gradientUnits="userSpaceOnUse" xlink:href="#linearGradient3700"/><linearGradient id="linearGradient2848" x1="48" x2="48" y1="90" y2="5.988" gradientUnits="userSpaceOnUse" xlink:href="#linearGradient3700"/><clipPath id="clipPath3625" clipPathUnits="userSpaceOnUse"><path id="path3627" fill="#fff" fill-opacity="1" stroke="none" d="M 0,0 0,96 96,96 96,0 0,0 z m 12,6 72,0 c 3.324,0 6,2.676 6,6 l 0,72 c 0,3.324 -2.676,6 -6,6 L 12,90 C 8.676,90 6,87.324 6,84 L 6,12 C 6,8.676 8.676,6 12,6 z"/></clipPath><linearGradient id="linearGradient3643" x1="44.512" x2="44.512" y1="6" y2="90.015" gradientUnits="userSpaceOnUse" xlink:href="#linearGradient3637"/><clipPath id="clipPath3649" clipPathUnits="userSpaceOnUse"><rect id="rect3651" width="76" height="76" x="10" y="10" fill="#fff" fill-opacity="1" fill-rule="nonzero" stroke="none" rx="4" ry="4"/></clipPath><clipPath id="clipPath3697" clipPathUnits="userSpaceOnUse"><rect id="rect3699" width="76" height="76" x="10" y="10" fill="red" fill-opacity="1" fill-rule="nonzero" stroke="none" rx="4" ry="4"/></clipPath><linearGradient id="linearGradient3527" x1="6.839" x2="6.839" y1="16.3" y2="6.053" gradientTransform="translate(1,0)" gradientUnits="userSpaceOnUse" xlink:href="#linearGradient4081"/><linearGradient id="linearGradient4081"><stop id="stop4083" offset="0" stop-color="#aaa" stop-opacity="1"/><stop id="stop4085" offset="1" stop-color="#f0f0f0" stop-opacity="1"/></linearGradient><linearGradient id="linearGradient3701" x1="49.89" x2="49.89" y1="66.589" y2="29.008" gradientUnits="userSpaceOnUse" xlink:href="#linearGradient4081"/><linearGradient id="linearGradient3709" x1="53.464" x2="53.464" y1="38.11" y2="18.192" gradientTransform="matrix(1,0,0,-1,0,50)" gradientUnits="userSpaceOnUse" xlink:href="#linearGradient4081"/><linearGradient id="linearGradient3717" x1="43.293" x2="43.293" y1="78.061" y2="57.407" gradientTransform="matrix(1,0,0,-1,0,142)" gradientUnits="userSpaceOnUse" xlink:href="#linearGradient4081"/><linearGradient id="linearGradient3725" x1="71.303" x2="71.303" y1="63.477" y2="30.958" gradientTransform="matrix(-1,0,0,1,142,0)" gradientUnits="userSpaceOnUse" xlink:href="#linearGradient4081"/><linearGradient id="linearGradient3733" x1="26.334" x2="26.334" y1="63.057" y2="29.857" gradientTransform="matrix(-1,0,0,1,50,0)" gradientUnits="userSpaceOnUse" xlink:href="#linearGradient4081"/><linearGradient id="linearGradient3016" x1="32.251" x2="32.251" y1="6.132" y2="90.239" gradientTransform="matrix(1.0238095,0,0,-1.0119048,-1.1428571,98.071429)" gradientUnits="userSpaceOnUse" xlink:href="#ButtonShadow-0"/><linearGradient id="ButtonShadow-0" x1="45.448" x2="45.448" y1="92.54" y2="7.017" gradientTransform="matrix(1.0058652,0,0,0.994169,100,0)" gradientUnits="userSpaceOnUse"><stop id="stop3750-8" offset="0" stop-color="#000" stop-opacity="1"/><stop id="stop3752-5" offset="1" stop-color="#000" stop-opacity=".588"/></linearGradient><linearGradient id="linearGradient3780" x1="32.251" x2="32.251" y1="6.132" y2="90.239" gradientTransform="matrix(1.0238095,0,0,-1.0119048,-1.1428571,98.071429)" gradientUnits="userSpaceOnUse" xlink:href="#ButtonShadow-0"/><linearGradient id="linearGradient3257" x1="45.448" x2="45.448" y1="92.54" y2="7.017" gradientTransform="matrix(1.0058652,0,0,0.994169,100,0)" gradientUnits="userSpaceOnUse"><stop id="stop3259" offset="0" stop-color="#000" stop-opacity="1"/><stop id="stop3261" offset="1" stop-color="#000" stop-opacity=".588"/></linearGradient><linearGradient id="linearGradient3772" x1="32.251" x2="32.251" y1="6.132" y2="90.239" gradientTransform="matrix(1.0238095,0,0,-1.0119048,-1.1428571,98.071429)" gradientUnits="userSpaceOnUse" xlink:href="#ButtonShadow-0"/><linearGradient id="linearGradient3264" x1="45.448" x2="45.448" y1="92.54" y2="7.017" gradientTransform="matrix(1.0058652,0,0,0.994169,100,0)" gradientUnits="userSpaceOnUse"><stop id="stop3266" offset="0" stop-color="#000" stop-opacity="1"/><stop id="stop3268" offset="1" stop-color="#000" stop-opacity=".588"/></linearGradient><linearGradient id="linearGradient3725-6" x1="32.251" x2="32.251" y1="6.132" y2="90.239" gradientTransform="matrix(1.0238095,0,0,-1.0119048,-1.1428571,98.071429)" gradientUnits="userSpaceOnUse" xlink:href="#ButtonShadow-0"/><linearGradient id="linearGradient3271" x1="45.448" x2="45.448" y1="92.54" y2="7.017" gradientTransform="matrix(1.0058652,0,0,0.994169,100,0)" gradientUnits="userSpaceOnUse"><stop id="stop3273" offset="0" stop-color="#000" stop-opacity="1"/><stop id="stop3275" offset="1" stop-color="#000" stop-opacity=".588"/></linearGradient><linearGradient id="linearGradient3721" x1="32.251" x2="32.251" y1="6.132" y2="90.239" gradientTransform="matrix(1,0,0,-1,0,97)" gradientUnits="userSpaceOnUse" xlink:href="#ButtonShadow-0"/><linearGradient id="linearGradient3278" x1="45.448" x2="45.448" y1="92.54" y2="7.017" gradientTransform="matrix(1.0058652,0,0,0.994169,100,0)" gradientUnits="userSpaceOnUse"><stop id="stop3280" offset="0" stop-color="#000" stop-opacity="1"/><stop id="stop3282" offset="1" stop-color="#000" stop-opacity=".588"/></linearGradient><linearGradient id="linearGradient3289" x1="32.251" x2="32.251" y1="6.132" y2="90.239" gradientTransform="matrix(1.0238095,0,0,-1.0119048,-1.1428571,98.071429)" gradientUnits="userSpaceOnUse" xlink:href="#ButtonShadow-0"/><linearGradient id="linearGradient3188-3" x1="36.357" x2="36.357" y1="6" y2="63.893" gradientUnits="userSpaceOnUse" xlink:href="#linearGradient3737-9"/><linearGradient id="linearGradient3737-9"><stop id="stop3739-1" offset="0" stop-color="#fff" stop-opacity="1"/><stop id="stop3741-1" offset="1" stop-color="#fff" stop-opacity="0"/></linearGradient><radialGradient id="radialGradient3619-1" cx="48" cy="90.172" r="42" fx="48" fy="90.172" gradientTransform="matrix(1.1573129,0,0,0.99590774,-7.551021,0.1971319)" gradientUnits="userSpaceOnUse" xlink:href="#linearGradient3737-9"/><linearGradient id="linearGradient3094" x1="53.464" x2="53.464" y1="38.11" y2="18.192" gradientUnits="userSpaceOnUse" xlink:href="#linearGradient4081"/><linearGradient id="linearGradient3201" x1="56" x2="56" y1="-26" y2="30" gradientTransform="matrix(1,0,0,-1,0,50)" gradientUnits="userSpaceOnUse" xlink:href="#linearGradient4081"/><linearGradient id="linearGradient3207" x1="56" x2="56" y1="-26" y2="30" gradientTransform="matrix(1,0,0,-1,0,51)" gradientUnits="userSpaceOnUse" xlink:href="#linearGradient4081"/><linearGradient id="linearGradient3209" x1="56" x2="56" y1="-26" y2="30" gradientTransform="matrix(1,0,0,-1,0,50)" gradientUnits="userSpaceOnUse" xlink:href="#linearGradient4081"/><linearGradient id="linearGradient3984" x1="56" x2="56" y1="-26" y2="30" gradientTransform="matrix(1,0,0,-1,0,49)" gradientUnits="userSpaceOnUse" xlink:href="#linearGradient4081"/><linearGradient id="linearGradient3986" x1="56" x2="56" y1="-26" y2="30" gradientTransform="matrix(1,0,0,-1,0,50)" gradientUnits="userSpaceOnUse" xlink:href="#linearGradient4081"/></defs><metadata id="metadata2413"/><g id="layer2" display="none"><rect id="rect3745" width="86" height="85" x="5" y="7" fill="url(#ButtonShadow)" fill-opacity="1" fill-rule="nonzero" stroke="none" clip-path="url(#clipPath3625)" filter="url(#filter3174)" opacity=".9" rx="6" ry="6"/></g><g id="layer4" display="inline"><path id="path3786" fill="url(#linearGradient3289)" fill-opacity="1" fill-rule="nonzero" stroke="none" d="M 12,3.96875 C 6.4889098,3.96875 1.96875,8.4889098 1.96875,14 l 0,71 c 0,5.51109 4.5201597,10.03125 10.03125,10.03125 l 72,0 c 5.51109,0 10.03125,-4.52016 10.03125,-10.03125 l 0,-71 C 94.03125,8.4889097 89.51109,3.96875 84,3.96875 l -72,0 z M 12,6 84,6 c 3.324,0 6,2.676 6,6 l 0,72 c 0,3.324 -2.676,6 -6,6 L 12,90 C 8.676,90 6,87.324 6,84 L 6,12 C 6,8.676 8.676,6 12,6 z" display="inline" opacity=".08"/><path id="path3778" fill="url(#linearGradient3780)" fill-opacity="1" fill-rule="nonzero" stroke="none" d="M 12,4.96875 C 7.0283671,4.96875 2.96875,9.0283671 2.96875,14 l 0,71 c 0,4.971633 4.059617,9.03125 9.03125,9.03125 l 72,0 c 4.971633,0 9.03125,-4.059617 9.03125,-9.03125 l 0,-71 C 93.03125,9.028367 88.971633,4.96875 84,4.96875 l -72,0 z M 12,6 84,6 c 3.324,0 6,2.676 6,6 l 0,72 c 0,3.324 -2.676,6 -6,6 L 12,90 C 8.676,90 6,87.324 6,84 L 6,12 C 6,8.676 8.676,6 12,6 z" display="inline" opacity=".1"/><path id="path3770" fill="url(#linearGradient3772)" fill-opacity="1" fill-rule="nonzero" stroke="none" d="M 11.1875,6.03125 C 7.159982,6.4419011 4,9.8664375 4,14 l 0,71 c 0,4.409133 3.590867,8 8,8 l 72,0 c 4.409133,0 8,-3.590867 8,-8 L 92,14 C 92,9.8029382 88.741028,6.3539584 84.625,6.03125 87.657886,6.337417 90,8.88375 90,12 l 0,72 c 0,3.324 -2.676,6 -6,6 L 12,90 C 8.676,90 6,87.324 6,84 L 6,12 c 0,-3.11625 2.342114,-5.662583 5.375,-5.96875 -0.06227,0.00488 -0.12563,-0.00631 -0.1875,0 z" display="inline" opacity=".2"/><path id="rect3723" fill="url(#linearGradient3725-6)" fill-opacity="1" fill-rule="nonzero" stroke="none" d="M 6.4375,9.75 C 5.5380109,10.927446 5,12.397277 5,14 l 0,71 c 0,3.878 3.122,7 7,7 l 72,0 c 3.878,0 7,-3.122 7,-7 L 91,14 C 91,12.397277 90.461989,10.927446 89.5625,9.75 89.841816,10.444095 90,11.203625 90,12 l 0,72 c 0,3.324 -2.676,6 -6,6 L 12,90 C 8.676,90 6,87.324 6,84 L 6,12 C 6,11.203625 6.1581836,10.444095 6.4375,9.75 z" display="inline" opacity=".3"/><path id="rect3716" fill="url(#linearGradient3721)" fill-opacity="1" fill-rule="nonzero" stroke="none" d="m 6,84 0,1 c 0,3.324 2.676,6 6,6 l 72,0 c 3.324,0 6,-2.676 6,-6 l 0,-1 c 0,3.324 -2.676,6 -6,6 L 12,90 C 8.676,90 6,87.324 6,84 z" display="inline" opacity=".45"/></g><g id="layer1" display="none"><rect id="rect2419" width="76" height="76" x="10" y="10" fill="#000" fill-opacity="1" fill-rule="nonzero" stroke="none" opacity=".7" rx="5.429" ry="5.429"/><path id="rect3726" fill="#000" fill-opacity="1" fill-rule="nonzero" stroke="none" d="m 14,10 c -2.216,0 -4,1.784 -4,4 l 0,68 c 0,2.216 1.784,4 4,4 l 68,0 c 2.216,0 4,-1.784 4,-4 l 0,-68 c 0,-2.216 -1.784,-4 -4,-4 l -68,0 z m 0,3.0625 68,0 c 0.578769,0 0.9375,0.358731 0.9375,0.9375 l 0,68 c 0,0.578769 -0.358731,0.9375 -0.9375,0.9375 l -68,0 c -0.578769,0 -0.9375,-0.358731 -0.9375,-0.9375 l 0,-68 c 0,-0.578769 0.358731,-0.9375 0.9375,-0.9375 z" opacity=".08"/><path id="rect3629" fill="url(#linearGradient3643)" fill-opacity="1" fill-rule="nonzero" stroke="none" d="M 12,6 C 8.676,6 6,8.676 6,12 l 0,72 c 0,3.324 2.676,6 6,6 l 72,0 c 3.324,0 6,-2.676 6,-6 L 90,12 C 90,8.676 87.324,6 84,6 L 12,6 z m 2,4 68,0 c 2.216,0 4,1.784 4,4 l 0,68 c 0,2.216 -1.784,4 -4,4 l -68,0 c -2.216,0 -4,-1.784 -4,-4 l 0,-68 c 0,-2.216 1.784,-4 4,-4 z"/><path id="rect3728" fill="url(#linearGradient3188)" fill-opacity="1" fill-rule="nonzero" stroke="none" d="M 12,6 C 8.676,6 6,8.676 6,12 l 0,2 0,68 0,2 c 0,0.334721 0.04135,0.6507 0.09375,0.96875 0.0487,0.295596 0.09704,0.596915 0.1875,0.875 0.00988,0.03038 0.020892,0.0636 0.03125,0.09375 0.098865,0.287771 0.2348802,0.547452 0.375,0.8125 0.1445918,0.273507 0.3156161,0.535615 0.5,0.78125 0.1843839,0.245635 0.3737765,0.473472 0.59375,0.6875 0.439947,0.428056 0.94291,0.814526 1.5,1.09375 0.278545,0.139612 0.5734731,0.246947 0.875,0.34375 -0.2562018,-0.100222 -0.4867109,-0.236272 -0.71875,-0.375 -0.00741,-0.0044 -0.023866,0.0045 -0.03125,0 -0.031933,-0.0193 -0.062293,-0.04251 -0.09375,-0.0625 -0.120395,-0.0767 -0.2310226,-0.163513 -0.34375,-0.25 -0.1061728,-0.0808 -0.2132809,-0.161112 -0.3125,-0.25 C 8.4783201,88.557317 8.3087904,88.373362 8.15625,88.1875 8.0486711,88.057245 7.9378561,87.922215 7.84375,87.78125 7.818661,87.74287 7.805304,87.69538 7.78125,87.65625 7.716487,87.553218 7.6510225,87.451733 7.59375,87.34375 7.4927417,87.149044 7.3880752,86.928049 7.3125,86.71875 7.30454,86.69694 7.288911,86.6782 7.28125,86.65625 7.2494249,86.5643 7.2454455,86.469419 7.21875,86.375 7.1884177,86.268382 7.1483606,86.171969 7.125,86.0625 7.0521214,85.720988 7,85.364295 7,85 L 7,83 7,15 7,13 C 7,10.218152 9.2181517,8 12,8 l 2,0 68,0 2,0 c 2.781848,0 5,2.218152 5,5 l 0,2 0,68 0,2 c 0,0.364295 -0.05212,0.720988 -0.125,1.0625 -0.04415,0.206893 -0.08838,0.397658 -0.15625,0.59375 -0.0077,0.02195 -0.0233,0.04069 -0.03125,0.0625 -0.06274,0.173739 -0.138383,0.367449 -0.21875,0.53125 -0.04158,0.0828 -0.07904,0.169954 -0.125,0.25 -0.0546,0.09721 -0.126774,0.18835 -0.1875,0.28125 -0.09411,0.140965 -0.204921,0.275995 -0.3125,0.40625 -0.143174,0.17445 -0.303141,0.346998 -0.46875,0.5 -0.01117,0.0102 -0.01998,0.02115 -0.03125,0.03125 -0.138386,0.125556 -0.285091,0.234436 -0.4375,0.34375 -0.102571,0.07315 -0.204318,0.153364 -0.3125,0.21875 -0.0074,0.0045 -0.02384,-0.0044 -0.03125,0 -0.232039,0.138728 -0.462548,0.274778 -0.71875,0.375 0.301527,-0.0968 0.596455,-0.204138 0.875,-0.34375 0.55709,-0.279224 1.060053,-0.665694 1.5,-1.09375 0.219973,-0.214028 0.409366,-0.441865 0.59375,-0.6875 0.184384,-0.245635 0.355408,-0.507743 0.5,-0.78125 0.14012,-0.265048 0.276135,-0.524729 0.375,-0.8125 0.01041,-0.03078 0.02133,-0.06274 0.03125,-0.09375 0.09046,-0.278085 0.1388,-0.579404 0.1875,-0.875 C 89.95865,84.6507 90,84.334721 90,84 l 0,-2 0,-68 0,-2 C 90,8.676 87.324,6 84,6 L 12,6 z"/><path id="path3615" fill="url(#radialGradient3619)" fill-opacity="1" fill-rule="nonzero" stroke="none" d="M 12,90 C 8.676,90 6,87.324 6,84 L 6,82 6,14 6,12 c 0,-0.334721 0.04135,-0.6507 0.09375,-0.96875 0.0487,-0.295596 0.09704,-0.596915 0.1875,-0.875 C 6.29113,10.12587 6.302142,10.09265 6.3125,10.0625 6.411365,9.774729 6.5473802,9.515048 6.6875,9.25 6.8320918,8.976493 7.0031161,8.714385 7.1875,8.46875 7.3718839,8.223115 7.5612765,7.995278 7.78125,7.78125 8.221197,7.353194 8.72416,6.966724 9.28125,6.6875 9.559795,6.547888 9.8547231,6.440553 10.15625,6.34375 9.9000482,6.443972 9.6695391,6.580022 9.4375,6.71875 c -0.00741,0.0044 -0.023866,-0.0045 -0.03125,0 -0.031933,0.0193 -0.062293,0.04251 -0.09375,0.0625 -0.120395,0.0767 -0.2310226,0.163513 -0.34375,0.25 -0.1061728,0.0808 -0.2132809,0.161112 -0.3125,0.25 C 8.4783201,7.442683 8.3087904,7.626638 8.15625,7.8125 8.0486711,7.942755 7.9378561,8.077785 7.84375,8.21875 7.818661,8.25713 7.805304,8.30462 7.78125,8.34375 7.716487,8.446782 7.6510225,8.548267 7.59375,8.65625 7.4927417,8.850956 7.3880752,9.071951 7.3125,9.28125 7.30454,9.30306 7.288911,9.3218 7.28125,9.34375 7.2494249,9.4357 7.2454455,9.530581 7.21875,9.625 7.1884177,9.731618 7.1483606,9.828031 7.125,9.9375 7.0521214,10.279012 7,10.635705 7,11 l 0,2 0,68 0,2 c 0,2.781848 2.2181517,5 5,5 l 2,0 68,0 2,0 c 2.781848,0 5,-2.218152 5,-5 l 0,-2 0,-68 0,-2 C 89,10.635705 88.94788,10.279012 88.875,9.9375 88.83085,9.730607 88.78662,9.539842 88.71875,9.34375 88.71105,9.3218 88.69545,9.30306 88.6875,9.28125 88.62476,9.107511 88.549117,8.913801 88.46875,8.75 88.42717,8.6672 88.38971,8.580046 88.34375,8.5 88.28915,8.40279 88.216976,8.31165 88.15625,8.21875 88.06214,8.077785 87.951329,7.942755 87.84375,7.8125 87.700576,7.63805 87.540609,7.465502 87.375,7.3125 87.36383,7.3023 87.35502,7.29135 87.34375,7.28125 87.205364,7.155694 87.058659,7.046814 86.90625,6.9375 86.803679,6.86435 86.701932,6.784136 86.59375,6.71875 c -0.0074,-0.0045 -0.02384,0.0044 -0.03125,0 -0.232039,-0.138728 -0.462548,-0.274778 -0.71875,-0.375 0.301527,0.0968 0.596455,0.204138 0.875,0.34375 0.55709,0.279224 1.060053,0.665694 1.5,1.09375 0.219973,0.214028 0.409366,0.441865 0.59375,0.6875 0.184384,0.245635 0.355408,0.507743 0.5,0.78125 0.14012,0.265048 0.276135,0.524729 0.375,0.8125 0.01041,0.03078 0.02133,0.06274 0.03125,0.09375 0.09046,0.278085 0.1388,0.579404 0.1875,0.875 C 89.95865,11.3493 90,11.665279 90,12 l 0,2 0,68 0,2 c 0,3.324 -2.676,6 -6,6 l -72,0 z" opacity=".6"/><path id="path3709" fill="#000" fill-opacity="1" fill-rule="nonzero" stroke="none" d="m 14.089286,10 c -2.216,0 -4,1.784 -4,4 l 0,68 c 0,2.216 1.784,4 4,4 l 68,0 c 2.216,0 4,-1.784 4,-4 l 0,-68 c 0,-2.216 -1.784,-4 -4,-4 l -68,0 z m 0,2 68,0 c 1.140301,0 2,0.859699 2,2 l 0,68 c 0,1.140301 -0.859699,2 -2,2 l -68,0 c -1.140301,0 -2,-0.859699 -2,-2 l 0,-68 c 0,-1.140301 0.859699,-2 2,-2 z" opacity=".16"/><path id="path3707" fill="#000" fill-opacity="1" fill-rule="nonzero" stroke="none" d="m 14,10 c -2.216,0 -4,1.784 -4,4 l 0,68 c 0,2.216 1.784,4 4,4 l 68,0 c 2.216,0 4,-1.784 4,-4 l 0,-68 c 0,-2.216 -1.784,-4 -4,-4 l -68,0 z m 0,1 68,0 c 1.673848,0 3,1.326152 3,3 l 0,68 c 0,1.673848 -1.326152,3 -3,3 l -68,0 c -1.673848,0 -3,-1.326152 -3,-3 l 0,-68 c 0,-1.673848 1.326152,-3 3,-3 z" opacity=".36"/></g><g id="layer9" display="inline"><rect id="rect2419-2" width="84" height="84" x="6" y="6" fill="#000" fill-opacity="1" fill-rule="nonzero" stroke="none" display="inline" opacity=".6" rx="6" ry="6"/><path id="rect3728-8" fill="url(#linearGradient3188-3)" fill-opacity="1" fill-rule="nonzero" stroke="none" d="M 12,6 C 8.676,6 6,8.676 6,12 l 0,2 0,68 0,2 c 0,0.334721 0.04135,0.6507 0.09375,0.96875 0.0487,0.295596 0.09704,0.596915 0.1875,0.875 0.00988,0.03038 0.020892,0.0636 0.03125,0.09375 0.098865,0.287771 0.2348802,0.547452 0.375,0.8125 0.1445918,0.273507 0.3156161,0.535615 0.5,0.78125 0.1843839,0.245635 0.3737765,0.473472 0.59375,0.6875 0.439947,0.428056 0.94291,0.814526 1.5,1.09375 0.278545,0.139612 0.5734731,0.246947 0.875,0.34375 -0.2562018,-0.100222 -0.4867109,-0.236272 -0.71875,-0.375 -0.00741,-0.0044 -0.023866,0.0045 -0.03125,0 -0.031933,-0.0193 -0.062293,-0.04251 -0.09375,-0.0625 -0.120395,-0.0767 -0.2310226,-0.163513 -0.34375,-0.25 -0.1061728,-0.0808 -0.2132809,-0.161112 -0.3125,-0.25 C 8.4783201,88.557317 8.3087904,88.373362 8.15625,88.1875 8.0486711,88.057245 7.9378561,87.922215 7.84375,87.78125 7.818661,87.74287 7.805304,87.69538 7.78125,87.65625 7.716487,87.553218 7.6510225,87.451733 7.59375,87.34375 7.4927417,87.149044 7.3880752,86.928049 7.3125,86.71875 7.30454,86.69694 7.288911,86.6782 7.28125,86.65625 7.2494249,86.5643 7.2454455,86.469419 7.21875,86.375 7.1884177,86.268382 7.1483606,86.171969 7.125,86.0625 7.0521214,85.720988 7,85.364295 7,85 L 7,83 7,15 7,13 C 7,10.218152 9.2181517,8 12,8 l 2,0 68,0 2,0 c 2.781848,0 5,2.218152 5,5 l 0,2 0,68 0,2 c 0,0.364295 -0.05212,0.720988 -0.125,1.0625 -0.04415,0.206893 -0.08838,0.397658 -0.15625,0.59375 -0.0077,0.02195 -0.0233,0.04069 -0.03125,0.0625 -0.06274,0.173739 -0.138383,0.367449 -0.21875,0.53125 -0.04158,0.0828 -0.07904,0.169954 -0.125,0.25 -0.0546,0.09721 -0.126774,0.18835 -0.1875,0.28125 -0.09411,0.140965 -0.204921,0.275995 -0.3125,0.40625 -0.143174,0.17445 -0.303141,0.346998 -0.46875,0.5 -0.01117,0.0102 -0.01998,0.02115 -0.03125,0.03125 -0.138386,0.125556 -0.285091,0.234436 -0.4375,0.34375 -0.102571,0.07315 -0.204318,0.153364 -0.3125,0.21875 -0.0074,0.0045 -0.02384,-0.0044 -0.03125,0 -0.232039,0.138728 -0.462548,0.274778 -0.71875,0.375 0.301527,-0.0968 0.596455,-0.204138 0.875,-0.34375 0.55709,-0.279224 1.060053,-0.665694 1.5,-1.09375 0.219973,-0.214028 0.409366,-0.441865 0.59375,-0.6875 0.184384,-0.245635 0.355408,-0.507743 0.5,-0.78125 0.14012,-0.265048 0.276135,-0.524729 0.375,-0.8125 0.01041,-0.03078 0.02133,-0.06274 0.03125,-0.09375 0.09046,-0.278085 0.1388,-0.579404 0.1875,-0.875 C 89.95865,84.6507 90,84.334721 90,84 l 0,-2 0,-68 0,-2 C 90,8.676 87.324,6 84,6 L 12,6 z" display="inline" opacity=".01"/><path id="path3615-2" fill="url(#radialGradient3619-1)" fill-opacity="1" fill-rule="nonzero" stroke="none" d="M 12,90 C 8.676,90 6,87.324 6,84 L 6,82 6,14 6,12 c 0,-0.334721 0.04135,-0.6507 0.09375,-0.96875 0.0487,-0.295596 0.09704,-0.596915 0.1875,-0.875 C 6.29113,10.12587 6.302142,10.09265 6.3125,10.0625 6.411365,9.774729 6.5473802,9.515048 6.6875,9.25 6.8320918,8.976493 7.0031161,8.714385 7.1875,8.46875 7.3718839,8.223115 7.5612765,7.995278 7.78125,7.78125 8.221197,7.353194 8.72416,6.966724 9.28125,6.6875 9.559795,6.547888 9.8547231,6.440553 10.15625,6.34375 9.9000482,6.443972 9.6695391,6.580022 9.4375,6.71875 c -0.00741,0.0044 -0.023866,-0.0045 -0.03125,0 -0.031933,0.0193 -0.062293,0.04251 -0.09375,0.0625 -0.120395,0.0767 -0.2310226,0.163513 -0.34375,0.25 -0.1061728,0.0808 -0.2132809,0.161112 -0.3125,0.25 C 8.4783201,7.442683 8.3087904,7.626638 8.15625,7.8125 8.0486711,7.942755 7.9378561,8.077785 7.84375,8.21875 7.818661,8.25713 7.805304,8.30462 7.78125,8.34375 7.716487,8.446782 7.6510225,8.548267 7.59375,8.65625 7.4927417,8.850956 7.3880752,9.071951 7.3125,9.28125 7.30454,9.30306 7.288911,9.3218 7.28125,9.34375 7.2494249,9.4357 7.2454455,9.530581 7.21875,9.625 7.1884177,9.731618 7.1483606,9.828031 7.125,9.9375 7.0521214,10.279012 7,10.635705 7,11 l 0,2 0,68 0,2 c 0,2.781848 2.2181517,5 5,5 l 2,0 68,0 2,0 c 2.781848,0 5,-2.218152 5,-5 l 0,-2 0,-68 0,-2 C 89,10.635705 88.94788,10.279012 88.875,9.9375 88.83085,9.730607 88.78662,9.539842 88.71875,9.34375 88.71105,9.3218 88.69545,9.30306 88.6875,9.28125 88.62476,9.107511 88.549117,8.913801 88.46875,8.75 88.42717,8.6672 88.38971,8.580046 88.34375,8.5 88.28915,8.40279 88.216976,8.31165 88.15625,8.21875 88.06214,8.077785 87.951329,7.942755 87.84375,7.8125 87.700576,7.63805 87.540609,7.465502 87.375,7.3125 87.36383,7.3023 87.35502,7.29135 87.34375,7.28125 87.205364,7.155694 87.058659,7.046814 86.90625,6.9375 86.803679,6.86435 86.701932,6.784136 86.59375,6.71875 c -0.0074,-0.0045 -0.02384,0.0044 -0.03125,0 -0.232039,-0.138728 -0.462548,-0.274778 -0.71875,-0.375 0.301527,0.0968 0.596455,0.204138 0.875,0.34375 0.55709,0.279224 1.060053,0.665694 1.5,1.09375 0.219973,0.214028 0.409366,0.441865 0.59375,0.6875 0.184384,0.245635 0.355408,0.507743 0.5,0.78125 0.14012,0.265048 0.276135,0.524729 0.375,0.8125 0.01041,0.03078 0.02133,0.06274 0.03125,0.09375 0.09046,0.278085 0.1388,0.579404 0.1875,0.875 C 89.95865,11.3493 90,11.665279 90,12 l 0,2 0,68 0,2 c 0,3.324 -2.676,6 -6,6 l -72,0 z" display="inline" opacity=".15"/></g><g id="layer5" display="none"><rect id="rect3171" width="66" height="66" x="15" y="15" fill="url(#linearGradient3613)" fill-opacity="1" fill-rule="nonzero" stroke="#fff" stroke-dasharray="none" stroke-dashoffset="0" stroke-linecap="round" stroke-linejoin="miter" stroke-miterlimit="4" stroke-opacity="1" stroke-width=".5" clip-path="url(#clipPath3613)" filter="url(#filter3794)" opacity=".1" rx="12" ry="12"/></g><g id="layer3" display="inline"><path id="path3999" fill="#000" fill-opacity="1" stroke="none" d="m 38.65625,19.03125 c -1.660785,0.239368 -2.159791,2.486914 -0.944333,3.562744 3.012086,3.954822 5.951808,8.014858 9.006833,11.906006 1.135661,1.028733 2.820939,0.233681 3.384444,-1.02124 2.887431,-3.896888 5.898122,-7.730268 8.709306,-11.66626 0.696882,-1.459309 -0.779692,-3.124103 -2.321096,-2.78125 -5.945035,1e-6 -11.890195,-2e-6 -17.835154,0 z m -0.25,16 c -2.809498,-0.0832 -4.791347,2.753587 -4.375,5.392191 0.02095,6.982981 -0.04182,13.972891 0.03125,20.951559 0.327534,1.723746 2.262153,1.683561 3.632818,1.59375 7.559027,-0.0209 15.124968,0.04175 22.679682,-0.03125 1.723746,-0.327534 1.683561,-2.262153 1.59375,-3.632818 -0.01512,-6.780836 0.03028,-13.563219 -0.02276,-20.343084 -0.19969,-2.726942 -3.014635,-4.309312 -5.538958,-3.930348 -6.000259,0 -12.000518,0 -18.000777,0 z m -18.71875,3 c -1.601156,0.239753 -1.81325,2.011674 -1.65625,3.325005 0.0423,5.722609 -0.0842,11.463982 0.0625,17.174995 0.392194,1.53961 2.488202,1.89041 3.500244,0.756833 C 25.548816,56.275997 29.608852,53.336275 33.5,50.28125 34.528733,49.145589 33.733681,47.460311 32.47876,46.896806 28.559256,44.003082 24.717595,40.954156 20.75,38.15625 c -0.34247,-0.125939 -0.69698,-0.140315 -1.0625,-0.125 z m 56.0625,0 c -1.708638,0.569992 -2.948084,2.066984 -4.460448,3.02411 -2.915281,2.231812 -5.938224,4.388306 -8.789552,6.66339 -1.028733,1.135661 -0.233681,2.820939 1.02124,3.384444 3.896888,2.887431 7.730268,5.898122 11.66626,8.709306 1.459309,0.696882 3.124103,-0.779692 2.78125,-2.321096 C 77.947489,51.52728 78.010996,45.549399 77.9375,39.59375 77.728355,38.606612 76.760352,37.916199 75.75,38.03125 z m -33.6875,6.9375 c 3.989583,0 7.979167,0 11.96875,0 0,3.34375 0,6.6875 0,10.03125 -3.989583,0 -7.979167,0 -11.96875,0 0,-3.34375 0,-6.6875 0,-10.03125 z m 5.71875,18.0625 c -1.630279,0.314512 -2.15014,2.166218 -3.208999,3.251464 -2.445823,3.309814 -5.015213,6.555834 -7.384751,9.904786 -0.696882,1.459309 0.779692,3.124103 2.321096,2.78125 6.005168,-0.04225 12.02908,0.08414 18.022654,-0.0625 1.53961,-0.392194 1.89041,-2.488202 0.756833,-3.500244 C 55.251337,71.43296 52.315477,67.334854 49.21875,63.4375 48.816972,63.10408 48.293833,62.982626 47.78125,63.03125 z" display="inline" opacity=".1"/><path id="path3995" fill="#000" fill-opacity="1" stroke="none" d="m 38.90625,20 a 1.0027937,1.0027937 0 0 0 -0.71875,1.59375 l 9,12 a 1.0027937,1.0027937 0 0 0 1.625,0 l 9,-12 A 1.0027937,1.0027937 0 0 0 57,20 l -18,0 a 1.0027937,1.0027937 0 0 0 -0.09375,0 z m -0.5,16 C 36.53536,36.000003 35,37.53536 35,39.40625 L 35,61 a 1.0027937,1.0027937 0 0 0 1,1 l 24,0 a 1.0027937,1.0027937 0 0 0 1,-1 L 61,39.40625 C 61,37.535359 59.464641,36 57.59375,36 l -19.1875,0 z m -18.5625,3 A 1.0027937,1.0027937 0 0 0 19,40 l 0,18 a 1.0027937,1.0027937 0 0 0 1.59375,0.8125 l 12,-9 a 1.0027937,1.0027937 0 0 0 0,-1.625 l -12,-9 A 1.0027937,1.0027937 0 0 0 19.84375,39 z M 75.875,39 a 1.0027937,1.0027937 0 0 0 -0.46875,0.1875 l -12,9 a 1.0027937,1.0027937 0 0 0 0,1.625 l 12,9 A 1.0027937,1.0027937 0 0 0 77,58 L 77,40 A 1.0027937,1.0027937 0 0 0 75.875,39 z M 41.09375,44 55,44 l 0,11.96875 -13.90625,0 0,-11.96875 z m 6.71875,20 a 1.0027937,1.0027937 0 0 0 -0.625,0.40625 l -9,12 A 1.0027937,1.0027937 0 0 0 39,78 l 18,0 a 1.0027937,1.0027937 0 0 0 0.8125,-1.59375 l -9,-12 A 1.0027937,1.0027937 0 0 0 47.8125,64 z" display="inline" opacity=".15"/><path id="path3989" fill="#000" fill-opacity="1" stroke="none" d="m 39,21 9,12 9,-12 -18,0 z M 38.40625,37 C 37.076648,37.000002 36,38.07665 36,39.40625 L 36,61 60,61 60,39.40625 C 60,38.07665 58.92335,37 57.59375,37 l -19.1875,0 z M 49,39 c 0.554,0 1,0.446 1,1 0,0.554 -0.446,1 -1,1 -0.554,0 -1,-0.446 -1,-1 0,-0.554 0.446,-1 1,-1 z m 4,0 c 0.554,0 1,0.446 1,1 0,0.554 -0.446,1 -1,1 -0.554,0 -1,-0.446 -1,-1 0,-0.554 0.446,-1 1,-1 z m 4,0 c 0.554,0 1,0.446 1,1 0,0.554 -0.446,1 -1,1 -0.554,0 -1,-0.446 -1,-1 0,-0.554 0.446,-1 1,-1 z m -37,1 0,18 12,-9 -12,-9 z m 56,0 -12,9 12,9 0,-18 z M 40.09375,43 56,43 l 0,13.96875 -15.90625,0 0,-13.96875 z M 48,65 39,77 57,77 48,65 z" display="inline" opacity=".3"/><path id="path2887" fill="url(#linearGradient3201)" fill-opacity="1" stroke="none" d="M 39 20 L 48 32 L 57 20 L 39 20 z M 38.40625 36 C 37.076648 36.000002 36 37.07665 36 38.40625 L 36 60 L 60 60 L 60 38.40625 C 60 37.07665 58.92335 36 57.59375 36 L 38.40625 36 z M 49 38 C 49.554 38 50 38.446 50 39 C 50 39.554 49.554 40 49 40 C 48.446 40 48 39.554 48 39 C 48 38.446 48.446 38 49 38 z M 53 38 C 53.554 38 54 38.446 54 39 C 54 39.554 53.554 40 53 40 C 52.446 40 52 39.554 52 39 C 52 38.446 52.446 38 53 38 z M 57 38 C 57.554 38 58 38.446 58 39 C 58 39.554 57.554 40 57 40 C 56.446 40 56 39.554 56 39 C 56 38.446 56.446 38 57 38 z M 20 39 L 20 57 L 32 48 L 20 39 z M 76 39 L 64 48 L 76 57 L 76 39 z M 40.09375 42 L 56 42 L 56 55.96875 L 40.09375 55.96875 L 40.09375 42 z M 48 64 L 39 76 L 57 76 L 48 64 z" display="inline"/><path id="path2893" fill="#000" fill-opacity="1" stroke="none" d="M -42 18 L -51 30 L -33 30 L -42 18 z M -51.59375 36 C -52.923352 36.000002 -54 37.07665 -54 38.40625 L -54 60 L -30 60 L -30 38.40625 C -30 37.07665 -31.07665 36 -32.40625 36 L -51.59375 36 z M -41 38 C -40.446 38 -40 38.446 -40 39 C -40 39.554 -40.446 40 -41 40 C -41.554 40 -42 39.554 -42 39 C -42 38.446 -41.554 38 -41 38 z M -37 38 C -36.446 38 -36 38.446 -36 39 C -36 39.554 -36.446 40 -37 40 C -37.554 40 -38 39.554 -38 39 C -38 38.446 -37.554 38 -37 38 z M -33 38 C -32.446 38 -32 38.446 -32 39 C -32 39.554 -32.446 40 -33 40 C -33.554 40 -34 39.554 -34 39 C -34 38.446 -33.554 38 -33 38 z M -60 39 L -72 48 L -60 57 L -60 39 z M -24 39 L -24 57 L -12 48 L -24 39 z M -49.90625 42 L -34 42 L -34 55.96875 L -49.90625 55.96875 L -49.90625 42 z M -51 66 L -42 78 L -33 66 L -51 66 z" display="inline"/><path id="path3203" fill="#fff" fill-opacity="1" stroke="none" d="M 39 20 L 39.75 21 L 56.25 21 L 57 20 L 39 20 z M 38.40625 36 C 37.076648 36.000002 36 37.07665 36 38.40625 L 36 39.40625 C 36 38.07665 37.076648 37.000002 38.40625 37 L 57.59375 37 C 58.92335 37 60 38.07665 60 39.40625 L 60 38.40625 C 60 37.07665 58.92335 36 57.59375 36 L 38.40625 36 z M 20 39 L 20 40 L 31.34375 48.5 L 32 48 L 20 39 z M 76 39 L 64 48 L 64.65625 48.5 L 76 40 L 76 39 z M 48.15625 39.5 C 48.066824 39.649865 48 39.812099 48 40 C 48 40.554 48.446 41 49 41 C 49.554 41 50 40.554 50 40 C 50 39.812099 49.933176 39.649865 49.84375 39.5 C 49.669517 39.791991 49.366099 40 49 40 C 48.633901 40 48.330483 39.791991 48.15625 39.5 z M 52.15625 39.5 C 52.066824 39.649865 52 39.812099 52 40 C 52 40.554 52.446 41 53 41 C 53.554 41 54 40.554 54 40 C 54 39.812099 53.933176 39.649865 53.84375 39.5 C 53.669517 39.791991 53.366099 40 53 40 C 52.633901 40 52.330483 39.791991 52.15625 39.5 z M 56.15625 39.5 C 56.066824 39.649865 56 39.812099 56 40 C 56 40.554 56.446 41 57 41 C 57.554 41 58 40.554 58 40 C 58 39.812099 57.933176 39.649865 57.84375 39.5 C 57.669517 39.791991 57.366099 40 57 40 C 56.633901 40 56.330483 39.791991 56.15625 39.5 z M 40.09375 55.96875 L 40.09375 56.96875 L 56 56.96875 L 56 55.96875 L 40.09375 55.96875 z M 48 64 L 39 76 L 39.75 76 L 48 65 L 56.25 76 L 57 76 L 48 64 z" display="inline" opacity=".75"/><path id="path3980" fill="#000" fill-opacity="1" stroke="none" d="M 39 20 L 48 32 L 57 20 L 56.25 20 L 48 31 L 39.75 20 L 39 20 z M 49 37 C 48.446 37 48 37.446 48 38 C 48 38.187901 48.066824 38.350135 48.15625 38.5 C 48.330483 38.208009 48.633901 38 49 38 C 49.366099 38 49.669517 38.208009 49.84375 38.5 C 49.933176 38.350135 50 38.187901 50 38 C 50 37.446 49.554 37 49 37 z M 53 37 C 52.446 37 52 37.446 52 38 C 52 38.187901 52.066824 38.350135 52.15625 38.5 C 52.330483 38.208009 52.633901 38 53 38 C 53.366099 38 53.669517 38.208009 53.84375 38.5 C 53.933176 38.350135 54 38.187901 54 38 C 54 37.446 53.554 37 53 37 z M 57 37 C 56.446 37 56 37.446 56 38 C 56 38.187901 56.066824 38.350135 56.15625 38.5 C 56.330483 38.208009 56.633901 38 57 38 C 57.366099 38 57.669517 38.208009 57.84375 38.5 C 57.933176 38.350135 58 38.187901 58 38 C 58 37.446 57.554 37 57 37 z M 40.09375 41 L 40.09375 42 L 56 42 L 56 41 L 40.09375 41 z M 31.34375 47.5 L 20 56 L 20 57 L 32 48 L 31.34375 47.5 z M 64.65625 47.5 L 64 48 L 76 57 L 76 56 L 64.65625 47.5 z M 36 59 L 36 60 L 60 60 L 60 59 L 36 59 z M 39.75 75 L 39 76 L 57 76 L 56.25 75 L 39.75 75 z" display="inline" opacity=".15"/></g></svg>