<svg xmlns="http://www.w3.org/2000/svg" xmlns:svg="http://www.w3.org/2000/svg" xmlns:xlink="http://www.w3.org/1999/xlink" id="svg2" width="22" height="22" display="inline" version="1.0"><defs id="defs4"><linearGradient id="linearGradient3295"><stop id="stop3297" offset="0" stop-color="#559829" stop-opacity="1"/><stop id="stop3299" offset="1" stop-color="#86c837" stop-opacity="1"/></linearGradient><linearGradient id="linearGradient3287"><stop id="stop3289" offset="0" stop-color="#cd0000" stop-opacity="1"/><stop id="stop3291" offset="1" stop-color="#e55300" stop-opacity="1"/></linearGradient><linearGradient id="linearGradient3279"><stop id="stop3281" offset="0" stop-color="#f08e00" stop-opacity="1"/><stop id="stop3283" offset="1" stop-color="#ffd200" stop-opacity="1"/></linearGradient><linearGradient id="linearGradient3271"><stop id="stop3273" offset="0" stop-color="#395d93" stop-opacity="1"/><stop id="stop3275" offset="1" stop-color="#6e92c7" stop-opacity="1"/></linearGradient><linearGradient id="linearGradient3327"><stop id="stop3330" offset="0" stop-color="#000" stop-opacity="1"/><stop id="stop3333" offset="1" stop-color="#000" stop-opacity="0"/></linearGradient><linearGradient id="linearGradient3335" x1="11.375" x2="11.375" y1="22" y2="-9.817" gradientUnits="userSpaceOnUse" xlink:href="#linearGradient3327"/><linearGradient id="linearGradient4081"><stop id="stop4083" offset="0" stop-color="#aaa" stop-opacity="1"/><stop id="stop4085" offset="1" stop-color="#f0f0f0" stop-opacity="1"/></linearGradient><linearGradient id="linearGradient4057"><stop id="stop4059" offset="0" stop-color="#816647" stop-opacity="1"/><stop id="stop4061" offset="1" stop-color="#a6845d" stop-opacity="1"/></linearGradient><linearGradient id="linearGradient3929"><stop id="stop3931" offset="0" stop-color="#000" stop-opacity="1"/><stop id="stop3933" offset="1" stop-color="#000" stop-opacity="0"/></linearGradient><linearGradient id="linearGradient4051" x1="9.495" x2="9.495" y1="15.517" y2="-4.179" gradientUnits="userSpaceOnUse" xlink:href="#linearGradient3929"/><linearGradient id="linearGradient4063" x1="9.171" x2="9.171" y1="21" y2=".972" gradientUnits="userSpaceOnUse" xlink:href="#linearGradient4057"/><linearGradient id="linearGradient4089" x1="6.102" x2="6.102" y1="154.582" y2="36.995" gradientUnits="userSpaceOnUse" xlink:href="#linearGradient4081"/><linearGradient id="linearGradient4103" x1="6.102" x2="6.102" y1="154.582" y2="36.995" gradientUnits="userSpaceOnUse" xlink:href="#linearGradient4081"/><linearGradient id="linearGradient4105" x1="6.102" x2="6.102" y1="154.582" y2="36.995" gradientUnits="userSpaceOnUse" xlink:href="#linearGradient4081"/><linearGradient id="linearGradient4107" x1="6.102" x2="6.102" y1="154.582" y2="36.995" gradientUnits="userSpaceOnUse" xlink:href="#linearGradient4081"/><linearGradient id="linearGradient4109" x1="6.102" x2="6.102" y1="154.582" y2="36.995" gradientUnits="userSpaceOnUse" xlink:href="#linearGradient4081"/><linearGradient id="linearGradient4111" x1="6.102" x2="6.102" y1="154.582" y2="36.995" gradientUnits="userSpaceOnUse" xlink:href="#linearGradient4081"/><linearGradient id="linearGradient4113" x1="6.102" x2="6.102" y1="154.582" y2="36.995" gradientUnits="userSpaceOnUse" xlink:href="#linearGradient4081"/><linearGradient id="linearGradient4115" x1="6.102" x2="6.102" y1="154.582" y2="36.995" gradientUnits="userSpaceOnUse" xlink:href="#linearGradient4081"/><linearGradient id="linearGradient4117" x1="6.102" x2="6.102" y1="154.582" y2="36.995" gradientUnits="userSpaceOnUse" xlink:href="#linearGradient4081"/><linearGradient id="linearGradient4119" x1="6.102" x2="6.102" y1="154.582" y2="36.995" gradientUnits="userSpaceOnUse" xlink:href="#linearGradient4081"/><linearGradient id="linearGradient4121" x1="6.102" x2="6.102" y1="154.582" y2="36.995" gradientUnits="userSpaceOnUse" xlink:href="#linearGradient4081"/><linearGradient id="linearGradient4123" x1="6.102" x2="6.102" y1="154.582" y2="36.995" gradientUnits="userSpaceOnUse" xlink:href="#linearGradient4081"/><linearGradient id="linearGradient4125" x1="6.102" x2="6.102" y1="154.582" y2="36.995" gradientUnits="userSpaceOnUse" xlink:href="#linearGradient4081"/><linearGradient id="linearGradient4127" x1="6.102" x2="6.102" y1="154.582" y2="36.995" gradientUnits="userSpaceOnUse" xlink:href="#linearGradient4081"/><linearGradient id="linearGradient4129" x1="6.102" x2="6.102" y1="154.582" y2="36.995" gradientUnits="userSpaceOnUse" xlink:href="#linearGradient4081"/><linearGradient id="linearGradient4132" x1="6.102" x2="6.102" y1="154.582" y2="36.995" gradientTransform="matrix(0.1317916,0,0,0.1317916,11.619896,-1.9882468)" gradientUnits="userSpaceOnUse" xlink:href="#linearGradient4081"/><linearGradient id="linearGradient4141" x1="6.102" x2="6.102" y1="154.582" y2="36.995" gradientTransform="matrix(0.1317916,0,0,0.1317916,11.619896,-1.9882468)" gradientUnits="userSpaceOnUse" xlink:href="#linearGradient4081"/><linearGradient id="linearGradient4148" x1="6.102" x2="6.102" y1="154.582" y2="36.995" gradientTransform="matrix(0.1317916,0,0,0.1317916,11.619896,-1.9882468)" gradientUnits="userSpaceOnUse" xlink:href="#linearGradient4081"/><linearGradient id="linearGradient4158" x1="6.102" x2="6.102" y1="154.582" y2="36.995" gradientTransform="matrix(0.1317916,0,0,0.1317916,11.619896,-1.9882468)" gradientUnits="userSpaceOnUse" xlink:href="#linearGradient4081"/><linearGradient id="linearGradient4180" x1="6.102" x2="6.102" y1="154.582" y2="36.995" gradientUnits="userSpaceOnUse" xlink:href="#linearGradient4081"/><linearGradient id="linearGradient4182" x1="6.102" x2="6.102" y1="154.582" y2="36.995" gradientTransform="matrix(0.1317916,0,0,0.1317916,11.619896,-1.9882468)" gradientUnits="userSpaceOnUse" xlink:href="#linearGradient4081"/><linearGradient id="linearGradient4184" x1="6.102" x2="6.102" y1="154.582" y2="36.995" gradientUnits="userSpaceOnUse" xlink:href="#linearGradient4081"/><linearGradient id="linearGradient4186" x1="6.102" x2="6.102" y1="154.582" y2="36.995" gradientTransform="matrix(0.1317916,0,0,0.1317916,11.619896,-1.9882468)" gradientUnits="userSpaceOnUse" xlink:href="#linearGradient4081"/><linearGradient id="linearGradient2480" x1="6.102" x2="6.102" y1="154.582" y2="36.995" gradientTransform="matrix(0.1256322,0,0,0.1256322,11.921746,-1.0005124)" gradientUnits="userSpaceOnUse" xlink:href="#linearGradient4081"/><linearGradient id="linearGradient2483" x1="6.102" x2="6.102" y1="154.582" y2="36.995" gradientTransform="matrix(0.1256322,0,0,0.1256322,11.921746,-1.0005124)" gradientUnits="userSpaceOnUse" xlink:href="#linearGradient4081"/><linearGradient id="linearGradient2489" x1="6.102" x2="6.102" y1="154.582" y2="36.995" gradientTransform="matrix(0.1256322,0,0,0.1256322,11.921746,-1.0005124)" gradientUnits="userSpaceOnUse" xlink:href="#linearGradient4081"/><linearGradient id="linearGradient2495" x1="6.102" x2="6.102" y1="154.582" y2="36.995" gradientTransform="matrix(0.1256322,0,0,0.1256322,11.921746,-1.0005124)" gradientUnits="userSpaceOnUse" xlink:href="#linearGradient4081"/><linearGradient id="linearGradient2498" x1="6.102" x2="6.102" y1="154.582" y2="36.995" gradientTransform="matrix(0.1256322,0,0,0.1256322,11.921746,-1.0005124)" gradientUnits="userSpaceOnUse" xlink:href="#linearGradient4081"/><linearGradient id="linearGradient2501" x1="6.102" x2="6.102" y1="154.582" y2="36.995" gradientTransform="matrix(0.1256322,0,0,0.1256322,11.921746,-1.0005124)" gradientUnits="userSpaceOnUse" xlink:href="#linearGradient4081"/><linearGradient id="linearGradient2504" x1="6.102" x2="6.102" y1="154.582" y2="36.995" gradientTransform="matrix(0.1256322,0,0,0.1256322,11.921746,-1.0005124)" gradientUnits="userSpaceOnUse" xlink:href="#linearGradient4081"/><linearGradient id="linearGradient2506" x1="6.102" x2="6.102" y1="154.582" y2="36.995" gradientUnits="userSpaceOnUse" xlink:href="#linearGradient4081"/><linearGradient id="linearGradient2508" x1="6.102" x2="6.102" y1="154.582" y2="36.995" gradientTransform="matrix(0.1317916,0,0,0.1317916,11.619896,-1.9882468)" gradientUnits="userSpaceOnUse" xlink:href="#linearGradient4081"/><linearGradient id="linearGradient2510" x1="6.102" x2="6.102" y1="154.582" y2="36.995" gradientTransform="matrix(0.1317916,0,0,0.1317916,11.619896,-1.9882468)" gradientUnits="userSpaceOnUse" xlink:href="#linearGradient4081"/><clipPath id="clipPath4974" clipPathUnits="userSpaceOnUse"><path id="path4976" fill="#fff" fill-opacity="1" stroke="none" stroke-dasharray="none" stroke-miterlimit="4" stroke-opacity="1" stroke-width=".5" d="M 16.625,2 C 15.93281,2.046173 15.13978,2.350316 14.5,2.875 C 13.716105,3.517873 13.079371,5.1522168 13.25,6.0625 C 13.337976,6.531842 13.692147,7.1029241 14.03125,7.28125 C 14.662734,7.613335 15.813682,7.0624791 16.875,5.9375 C 18.021489,4.722239 18.547995,3.383178 18.15625,2.625 C 17.915497,2.159052 17.31719,1.953827 16.625,2 z M 10.96875,2.71875 C 10.005789,2.719616 9.496306,3.3967078 9.5,4.6875 C 9.502528,5.57142 9.81322,6.3666318 10.21875,6.5625 C 10.520262,6.708131 10.527801,6.6945361 10.90625,6.5625 C 11.533114,6.343793 12.122053,4.8839409 12,3.90625 C 11.900109,3.106091 11.556193,2.7182209 10.96875,2.71875 z M 7.15625,4.03125 C 6.976067,4.0573035 6.795347,4.173262 6.625,4.34375 C 6.281636,4.687396 6.277056,4.8747068 6.28125,5.53125 C 6.286196,6.305553 6.475145,6.7277249 7,7.28125 C 7.392601,7.695296 7.675716,7.7200481 8.03125,7.34375 C 8.416388,6.936117 8.535971,6.296057 8.40625,5.59375 C 8.208416,4.5226825 7.696799,3.9530895 7.15625,4.03125 z M 4.46875,6.375 C 4.281799,6.4054104 4.1133,6.5115553 3.9375,6.6875 C 3.476154,7.14923 3.798831,8.4188978 4.53125,9.0625 C 5.405425,9.830669 6.111327,9.1273309 5.8125,7.78125 C 5.599846,6.8233425 5.029603,6.2837687 4.46875,6.375 z M 12.5,8.0625 C 11.88094,8.0518483 11.187196,8.1034691 10.46875,8.25 C 8.61799,8.627471 7.13709,9.3254488 6.1875,10.28125 C 5.640611,10.831715 5.327697,11.341306 5.0625,12.125 C 4.420581,14.021963 5.609396,16.720678 7.875,18.5625 C 8.719088,19.248703 9.234152,19.555813 10.09375,19.84375 C 10.539486,19.993058 10.892913,20.027742 11.71875,20 C 12.665466,19.968192 12.858002,19.925916 13.46875,19.625 C 14.363786,19.184011 15.378303,18.163965 15.8125,17.28125 C 16.077385,16.74275 16.119821,16.512622 16.09375,16.0625 C 16.049227,15.293922 15.751092,15.084744 14.78125,15.09375 C 13.39673,15.106604 12.815494,15.427682 12.53125,16.40625 C 12.31656,17.145368 12.079212,17.40625 11.59375,17.40625 C 10.824382,17.40625 10.03125,16.794459 10.03125,16.15625 C 10.03125,15.712256 10.746563,15.05048 12.53125,13.84375 C 15.045366,12.14381 15.909739,11.109639 15.78125,9.96875 C 15.64852,8.7901993 14.35718,8.0944552 12.5,8.0625 z"/></clipPath><clipPath id="clipPath4995" clipPathUnits="userSpaceOnUse"><path id="path4997" fill="#fff" fill-opacity="1" fill-rule="nonzero" stroke="none" stroke-dasharray="none" stroke-dashoffset="0" stroke-linecap="square" stroke-linejoin="miter" stroke-miterlimit="4" stroke-opacity="0" stroke-width="1" d="M 30,0 L 30,22 L 52,22 L 52,0 L 30,0 z M 46.625,2 C 47.31719,1.953827 47.915497,2.159052 48.15625,2.625 C 48.547995,3.383178 48.021489,4.722239 46.875,5.9375 C 45.813682,7.0624791 44.662734,7.613335 44.03125,7.28125 C 43.692147,7.1029241 43.337976,6.531842 43.25,6.0625 C 43.079371,5.1522168 43.716105,3.517873 44.5,2.875 C 45.13978,2.350316 45.93281,2.046173 46.625,2 z M 40.96875,2.71875 C 41.556193,2.7182209 41.900109,3.106091 42,3.90625 C 42.122053,4.8839409 41.533114,6.343793 40.90625,6.5625 C 40.527801,6.6945361 40.520262,6.708131 40.21875,6.5625 C 39.81322,6.3666318 39.502528,5.57142 39.5,4.6875 C 39.496306,3.3967078 40.005789,2.719616 40.96875,2.71875 z M 37.15625,4.03125 C 37.696799,3.9530895 38.208416,4.5226825 38.40625,5.59375 C 38.535971,6.296057 38.416388,6.936117 38.03125,7.34375 C 37.675716,7.7200481 37.392601,7.695296 37,7.28125 C 36.475145,6.7277249 36.286196,6.305553 36.28125,5.53125 C 36.277056,4.8747068 36.281636,4.687396 36.625,4.34375 C 36.795347,4.173262 36.976067,4.0573035 37.15625,4.03125 z M 34.46875,6.375 C 35.029603,6.2837687 35.599846,6.8233425 35.8125,7.78125 C 36.111327,9.1273309 35.405425,9.830669 34.53125,9.0625 C 33.798831,8.4188978 33.476154,7.14923 33.9375,6.6875 C 34.1133,6.5115553 34.281799,6.4054104 34.46875,6.375 z M 42.5,8.0625 C 44.35718,8.0944552 45.64852,8.7901993 45.78125,9.96875 C 45.909739,11.109639 45.045366,12.14381 42.53125,13.84375 C 40.746563,15.05048 40.03125,15.712256 40.03125,16.15625 C 40.03125,16.794459 40.824382,17.40625 41.59375,17.40625 C 42.079212,17.40625 42.31656,17.145368 42.53125,16.40625 C 42.815494,15.427682 43.39673,15.106604 44.78125,15.09375 C 45.751092,15.084744 46.049227,15.293922 46.09375,16.0625 C 46.119821,16.512622 46.077385,16.74275 45.8125,17.28125 C 45.378303,18.163965 44.363786,19.184011 43.46875,19.625 C 42.858002,19.925916 42.665466,19.968192 41.71875,20 C 40.892913,20.027742 40.539486,19.993058 40.09375,19.84375 C 39.234152,19.555813 38.719088,19.248703 37.875,18.5625 C 35.609396,16.720678 34.420581,14.021963 35.0625,12.125 C 35.327697,11.341306 35.640611,10.831715 36.1875,10.28125 C 37.13709,9.3254488 38.61799,8.627471 40.46875,8.25 C 41.187196,8.1034691 41.88094,8.0518483 42.5,8.0625 z" display="inline" opacity="1"/></clipPath><linearGradient id="linearGradient5065" x1="11.509" x2="11.509" y1="6.667" y2="2.688" gradientTransform="translate(-30,-30)" gradientUnits="userSpaceOnUse" xlink:href="#linearGradient4081"/><linearGradient id="linearGradient5068" x1="17.212" x2="17.212" y1="7.381" y2="1.988" gradientTransform="translate(-30,-30)" gradientUnits="userSpaceOnUse" xlink:href="#linearGradient4081"/><linearGradient id="linearGradient5071" x1="7.374" x2="7.374" y1="7.605" y2="4.035" gradientTransform="translate(-30,-30)" gradientUnits="userSpaceOnUse" xlink:href="#linearGradient4081"/><linearGradient id="linearGradient5074" x1="4.95" x2="4.95" y1="9.393" y2="6.364" gradientTransform="translate(-30,-30)" gradientUnits="userSpaceOnUse" xlink:href="#linearGradient4081"/><linearGradient id="linearGradient5077" x1="13" x2="13" y1="20" y2="7.996" gradientTransform="translate(-30,-30)" gradientUnits="userSpaceOnUse" xlink:href="#linearGradient4081"/><linearGradient id="linearGradient3345" x1="6.839" x2="6.839" y1="16.3" y2="6.053" gradientUnits="userSpaceOnUse" xlink:href="#linearGradient4081"/><linearGradient id="linearGradient3355" x1="12.316" x2="12.316" y1="18.468" y2="3.482" gradientUnits="userSpaceOnUse" xlink:href="#linearGradient4081"/><linearGradient id="linearGradient3357" x1="18.765" x2="18.765" y1="21" y2=".967" gradientUnits="userSpaceOnUse" xlink:href="#linearGradient4081"/><linearGradient id="linearGradient3522" x1="6.839" x2="6.839" y1="16.3" y2="6.053" gradientTransform="translate(1,0)" gradientUnits="userSpaceOnUse" xlink:href="#linearGradient4081"/><linearGradient id="linearGradient3527" x1="4" x2="4" y1="6" y2="16" gradientTransform="translate(1,0)" gradientUnits="userSpaceOnUse" xlink:href="#StandardGradient"/><linearGradient id="linearGradient3540" x1="15" x2="15" y1="5" y2="17" gradientTransform="translate(1,0)" gradientUnits="userSpaceOnUse" xlink:href="#StandardGradient"/><linearGradient id="linearGradient3542" x1="13" x2="13" y1="7" y2="15" gradientTransform="translate(1,0)" gradientUnits="userSpaceOnUse" xlink:href="#StandardGradient"/><linearGradient id="linearGradient3552" x1="16.5" x2="16.5" y1="19.543" y2="2.5" gradientTransform="translate(1,0)" gradientUnits="userSpaceOnUse" xlink:href="#linearGradient4081"/><linearGradient id="linearGradient3680" x1="14.525" x2="14.525" y1="17.419" y2="4.625" gradientTransform="translate(1,0)" gradientUnits="userSpaceOnUse" xlink:href="#linearGradient4081"/><linearGradient id="linearGradient3833" x1="54" x2="59" y1="3.5" y2="3.5" gradientTransform="translate(-53,53)" gradientUnits="userSpaceOnUse" xlink:href="#StandardGradient"/><linearGradient id="StandardGradient" x1="10.71" x2="10.71" y1="1.996" y2="18.974" gradientTransform="matrix(0.9984539,0,0,0.9984539,-0.0459776,0.05767558)" gradientUnits="userSpaceOnUse"><stop id="stop3277" offset="0" stop-color="#000" stop-opacity=".863"/><stop id="stop3279" offset="1" stop-color="#000" stop-opacity=".471"/></linearGradient><linearGradient id="linearGradient3722" x1="15" x2="15" y1="5" y2="17" gradientTransform="translate(1,0)" gradientUnits="userSpaceOnUse" xlink:href="#StandardGradient"/><linearGradient id="linearGradient3724" x1="4" x2="4" y1="6" y2="16" gradientTransform="translate(1,0)" gradientUnits="userSpaceOnUse" xlink:href="#StandardGradient"/><linearGradient id="linearGradient3726" x1="13" x2="13" y1="7" y2="15" gradientTransform="translate(1,0)" gradientUnits="userSpaceOnUse" xlink:href="#StandardGradient"/><linearGradient id="linearGradient3733" x1="15" x2="15" y1="5" y2="17" gradientTransform="translate(-29,0)" gradientUnits="userSpaceOnUse" xlink:href="#StandardGradient"/><linearGradient id="linearGradient3737" x1="15" x2="15" y1="5" y2="17" gradientTransform="translate(1,1)" gradientUnits="userSpaceOnUse" xlink:href="#StandardGradient"/><linearGradient id="linearGradient3741" x1="15" x2="15" y1="5" y2="17" gradientTransform="translate(1,0)" gradientUnits="userSpaceOnUse" xlink:href="#StandardGradient"/><clipPath id="clipPath3745" clipPathUnits="userSpaceOnUse"><path id="path3747" fill="#f0f" fill-opacity="1" stroke="none" d="m -30,0 0,22 22,0 0,-22 -22,0 z m 14.375,4.625 C -13.996,6.254 -13,8.516 -13,11 c 0,2.508353 -1.030271,4.773613 -2.6875,6.40625 l -1.40625,-1.4375 C -15.808718,14.699407 -15,12.947564 -15,11 -15,9.068 -15.7955,7.3295 -17.0625,6.0625 L -15.625,4.625 z M -22.75,6 c 0.163216,2.5e-5 0.339184,0.091855 0.46875,0.25 0.172755,0.21086 0.284478,0.539139 0.28125,0.875 l 0,1.75 0,4.25 0,1.75 c 0.0015,0.39196 -0.150873,0.77236 -0.375,0.96875 -0.224127,0.196388 -0.494886,0.197073 -0.71875,0 l -1.9375,-1.6875 -2,0 C -27.573937,14.15625 -28,13.693939 -28,13.125 l 0,-4.25 c 0,-0.568939 0.426063,-1 0.96875,-1 l 1.96875,0 1.96875,-1.71875 c 0.06189,-0.05821 0.14821,-0.09732 0.21875,-0.125 C -22.82095,6.01227 -22.8044,5.999992 -22.75,6 z m 5,0.75 c 1.086,1.086 1.75,2.594 1.75,4.25 0,1.671829 -0.676903,3.192883 -1.78125,4.28125 l -1.4375,-1.4375 C -18.475969,13.117385 -18,12.120179 -18,11 -18,9.896 -18.4635,8.9115 -19.1875,8.1875 L -17.75,6.75 z" display="inline"/></clipPath><linearGradient id="linearGradient4908" x1="15" x2="15" y1="5" y2="17" gradientTransform="translate(1,0)" gradientUnits="userSpaceOnUse" xlink:href="#StandardGradient"/><linearGradient id="linearGradient4913" x1="15" x2="15" y1="5" y2="17" gradientTransform="translate(1,0)" gradientUnits="userSpaceOnUse" xlink:href="#StandardGradient"/><linearGradient id="linearGradient4917" x1="15" x2="15" y1="5" y2="17" gradientTransform="translate(1,0)" gradientUnits="userSpaceOnUse" xlink:href="#StandardGradient"/></defs><metadata id="metadata7"/><g id="layer1" display="inline"><path id="path4915" fill="#fff" fill-opacity="1" fill-rule="nonzero" stroke="none" d="M 14.25 3.53125 A 1.0863028 1.0863028 0 0 0 13.59375 3.84375 L 12.15625 5.28125 A 1.0863028 1.0863028 0 0 0 11.90625 5.71875 A 1.0863028 1.0863028 0 0 0 11.46875 5.96875 L 10.03125 7.40625 A 1.0863028 1.0863028 0 0 0 10.03125 8.96875 C 10.571016 9.5085158 10.90625 10.200016 10.90625 11 C 10.90625 11.812493 10.58457 12.521408 10.03125 13.0625 A 1.0863028 1.0863028 0 0 0 10 14.625 L 11.4375 16.0625 A 1.0863028 1.0863028 0 0 0 11.875 16.3125 A 1.0863028 1.0863028 0 0 0 12.125 16.71875 L 13.53125 18.15625 A 1.0863028 1.0863028 0 0 0 15.0625 18.1875 C 16.917227 16.360296 18.09375 13.805779 18.09375 11 C 18.09375 8.2256486 16.984218 5.6717183 15.15625 3.84375 A 1.0863028 1.0863028 0 0 0 14.25 3.53125 z M 14.375 4.625 C 16.004 6.254 17 8.516 17 11 C 17 13.508353 15.969729 15.773613 14.3125 17.40625 L 12.90625 15.96875 C 14.191282 14.699407 15 12.947564 15 11 C 15 9.068 14.2045 7.3295 12.9375 6.0625 L 14.375 4.625 z M 7.25 4.90625 C 7.0321693 4.906218 6.7313056 5.0065657 6.75 5 A 1.0863028 1.0863028 0 0 0 6.71875 5.03125 C 6.612387 5.0729954 6.4168044 5.142577 6.1875 5.34375 C 6.1715148 5.3577741 6.1726874 5.3595391 6.15625 5.375 L 4.53125 6.78125 L 2.96875 6.78125 C 1.850881 6.7812502 0.90625 7.7637807 0.90625 8.875 L 0.90625 13.125 C 0.90625 14.236219 1.8091826 15.25 2.96875 15.25 L 4.5625 15.25 L 6.1875 16.65625 C 6.4629203 16.898709 6.8696243 17.062785 7.28125 17.0625 C 7.6928757 17.062215 8.0690963 16.896912 8.34375 16.65625 C 8.9072962 16.162446 9.0962557 15.550975 9.09375 14.875 L 9.09375 13.125 L 9.09375 8.875 L 9.09375 7.125 C 9.0993589 6.5414901 8.9400152 6.0232839 8.5625 5.5625 C 8.258026 5.1908691 7.8205183 4.906336 7.25 4.90625 z M 7.25 6 C 7.4132157 6.0000246 7.5891835 6.0918554 7.71875 6.25 C 7.8915051 6.4608598 8.0032284 6.7891391 8 7.125 L 8 8.875 L 8 13.125 L 8 14.875 C 8.0014529 15.26696 7.849127 15.64736 7.625 15.84375 C 7.4008733 16.040138 7.1301144 16.040823 6.90625 15.84375 L 4.96875 14.15625 L 2.96875 14.15625 C 2.4260626 14.15625 2 13.693939 2 13.125 L 2 8.875 C 2 8.306061 2.4260625 7.8750001 2.96875 7.875 L 4.9375 7.875 L 6.90625 6.15625 C 6.968141 6.0980356 7.0544641 6.0589339 7.125 6.03125 C 7.1790469 6.0122679 7.1955949 5.999992 7.25 6 z M 12.25 6.75 C 13.336 7.836 14 9.344 14 11 C 14 12.671829 13.323097 14.192883 12.21875 15.28125 L 10.78125 13.84375 C 11.524031 13.117385 12 12.120179 12 11 C 12 9.896 11.5365 8.9115 10.8125 8.1875 L 12.25 6.75 z" opacity=".15"/><path id="path3536" fill="#000" fill-opacity="1" fill-rule="nonzero" stroke="none" stroke-dasharray="none" stroke-dashoffset="0" stroke-linecap="square" stroke-linejoin="miter" stroke-miterlimit="4" stroke-opacity="0" stroke-width="1" d="M 16.4375,2.5 L 15.0625,3.9375 C 16.866638,5.741638 17.96875,8.2478021 17.96875,11 C 17.96875,13.784045 16.841065,16.316151 15,18.125 L 16.40625,19.53125 C 18.615108,17.354496 20.000001,14.343799 20,11 C 20,7.6721003 18.627903,4.674427 16.4375,2.5 z" opacity=".3"/><path id="path3534" fill="url(#linearGradient3540)" fill-opacity="1" fill-rule="nonzero" stroke="none" stroke-dasharray="none" stroke-dashoffset="0" stroke-linecap="square" stroke-linejoin="miter" stroke-miterlimit="4" stroke-opacity="0" stroke-width="1" d="M 14.375,4.625 L 12.9375,6.0625 C 14.2045,7.3295 15,9.068 15,11 C 15,12.947564 14.191282,14.699407 12.90625,15.96875 L 14.3125,17.40625 C 15.969729,15.773613 17,13.508353 17,11 C 17,8.516 16.004,6.254 14.375,4.625 z" opacity="1"/><path id="path3532" fill="url(#linearGradient3527)" fill-opacity="1" fill-rule="nonzero" stroke="none" stroke-dasharray="none" stroke-dashoffset="0" stroke-linecap="square" stroke-linejoin="miter" stroke-miterlimit="4" stroke-opacity="0" stroke-width="1" d="M 7.25,6 C 7.1955949,5.999992 7.1790469,6.0122679 7.125,6.03125 C 7.0544641,6.0589339 6.968141,6.0980356 6.90625,6.15625 L 4.9375,7.875 L 2.96875,7.875 C 2.4260625,7.8750001 2,8.306061 2,8.875 L 2,13.125 C 2,13.693939 2.4260626,14.15625 2.96875,14.15625 L 4.96875,14.15625 L 6.90625,15.84375 C 7.1301144,16.040823 7.4008733,16.040138 7.625,15.84375 C 7.849127,15.64736 8.0014529,15.26696 8,14.875 L 8,13.125 L 8,8.875 L 8,7.125 C 8.0032284,6.7891391 7.8915051,6.4608598 7.71875,6.25 C 7.5891835,6.0918554 7.4132157,6.0000246 7.25,6 z" opacity="1"/><path id="path3328" fill="url(#linearGradient3542)" fill-opacity="1" fill-rule="nonzero" stroke="none" stroke-dasharray="none" stroke-dashoffset="0" stroke-linecap="square" stroke-linejoin="miter" stroke-miterlimit="4" stroke-opacity="0" stroke-width="1" d="M 12.25,6.75 L 10.8125,8.1875 C 11.5365,8.9115 12,9.896 12,11 C 12,12.120179 11.524031,13.117385 10.78125,13.84375 L 12.21875,15.28125 C 13.323097,14.192883 14,12.671829 14,11 C 14,9.344 13.336,7.836 12.25,6.75 z" opacity="1"/><path id="path3544" fill="red" fill-opacity="1" fill-rule="nonzero" stroke="none" d="m -13.5625,32.5 -1.375,1.4375 c 1.804138,1.804138 2.90625,4.310302 2.90625,7.0625 0,2.784045 -1.127685,5.316151 -2.96875,7.125 l 1.40625,1.40625 C -11.384892,47.354496 -9.999999,44.343799 -10,41 c 0,-3.3279 -1.372097,-6.325573 -3.5625,-8.5 z m -2.0625,2.125 -1.4375,1.4375 C -15.7955,37.3295 -15,39.068 -15,41 c 0,1.947564 -0.808718,3.699407 -2.09375,4.96875 l 1.40625,1.4375 C -14.030271,45.773613 -13,43.508353 -13,41 c 0,-2.484 -0.996,-4.746 -2.625,-6.375 z M -22.75,36 c -0.0544,-8e-6 -0.07095,0.01227 -0.125,0.03125 -0.07054,0.02768 -0.156859,0.06679 -0.21875,0.125 l -1.96875,1.71875 -1.96875,0 c -0.542687,0 -0.96875,0.431061 -0.96875,1 l 0,4.25 c 0,0.568939 0.426063,1.03125 0.96875,1.03125 l 2,0 1.9375,1.6875 c 0.223864,0.197073 0.494623,0.196388 0.71875,0 0.224127,-0.19639 0.376453,-0.57679 0.375,-0.96875 l 0,-1.75 0,-4.25 0,-1.75 c 0.0032,-0.335861 -0.108495,-0.66414 -0.28125,-0.875 C -22.410816,36.091855 -22.586784,36.000025 -22.75,36 z m 5,0.75 -1.4375,1.4375 C -18.4635,38.9115 -18,39.896 -18,41 c 0,1.120179 -0.475969,2.117385 -1.21875,2.84375 l 1.4375,1.4375 C -16.676903,44.192883 -16,42.671829 -16,41 c 0,-1.656 -0.664,-3.164 -1.75,-4.25 z"/><path id="path3580" fill="#000" fill-opacity="1" fill-rule="nonzero" stroke="none" stroke-dasharray="none" stroke-dashoffset="0" stroke-linecap="square" stroke-linejoin="miter" stroke-miterlimit="4" stroke-opacity="0" stroke-width="1" d="M 14.375,4.625 L 12.9375,6.0625 C 13.106249,6.2312489 13.254994,6.40893 13.40625,6.59375 L 14.375,5.625 C 15.856481,7.1064807 16.807401,9.1243285 16.96875,11.34375 C 16.973053,11.229661 17,11.115151 17,11 C 17,8.516 16.004,6.254 14.375,4.625 zM 7.25,6 C 7.195595,5.999992 7.179047,6.0122679 7.125,6.03125 C 7.054464,6.0589339 6.968141,6.0980356 6.90625,6.15625 L 4.9375,7.875 L 2.96875,7.875 C 2.426063,7.8750001 2,8.306061 2,8.875 L 2,9.875 C 2,9.306061 2.426063,8.8750001 2.96875,8.875 L 4.9375,8.875 L 6.90625,7.15625 C 6.968141,7.0980356 7.054464,7.0589339 7.125,7.03125 C 7.179047,7.0122679 7.195595,6.999992 7.25,7 C 7.413216,7.0000246 7.589184,7.0918554 7.71875,7.25 C 7.891505,7.4608598 8.003228,7.7891391 8,8.125 L 8,7.125 C 8.003228,6.7891391 7.891505,6.4608598 7.71875,6.25 C 7.589184,6.0918554 7.413216,6.0000246 7.25,6 zM 12.25,6.75 L 10.8125,8.1875 C 10.977659,8.3526588 11.145613,8.5281528 11.28125,8.71875 L 12.25,7.75 C 13.20025,8.70025 13.826809,9.9621211 13.96875,11.375 C 13.976285,11.251226 14,11.125596 14,11 C 14,9.344 13.336,7.836 12.25,6.75 zM 11.9375,11.5 C 11.817665,12.412642 11.409632,13.229256 10.78125,13.84375 L 11.25,14.3125 C 11.720975,13.662393 12,12.864644 12,12 C 12,11.829968 11.958747,11.663848 11.9375,11.5 zM 14.96875,11.5 C 14.842536,13.244986 14.079448,14.809876 12.90625,15.96875 L 13.375,16.46875 C 14.390665,15.256449 15,13.704118 15,12 C 15,11.831861 14.980587,11.665024 14.96875,11.5 z" opacity=".5"/><path id="path3735" fill="#fff" fill-opacity="1" fill-rule="nonzero" stroke="none" d="M 13.40625 6.59375 L 12.9375 7.0625 C 14.094235 8.2192351 14.844578 9.7688098 14.96875 11.5 C 14.980781 11.333661 15 11.169493 15 11 C 15 9.3253188 14.390651 7.7965947 13.40625 6.59375 z M 11.28125 8.71875 L 10.8125 9.1875 C 11.424993 9.7999934 11.820791 10.600002 11.9375 11.5 C 11.959316 11.33385 12 11.172524 12 11 C 12 10.147844 11.740199 9.3636659 11.28125 8.71875 z M 16.96875 11.34375 C 16.87931 13.714874 15.89365 15.848563 14.3125 17.40625 L 13.375 16.46875 C 13.229905 16.641936 13.066879 16.810082 12.90625 16.96875 L 14.3125 18.40625 C 15.969729 16.773613 17 14.508353 17 12 C 17 11.775053 16.984816 11.56475 16.96875 11.34375 z M 13.96875 11.625 C 13.824088 13.051014 13.185054 14.328929 12.21875 15.28125 L 11.25 14.3125 C 11.110809 14.504631 10.950693 14.678052 10.78125 14.84375 L 12.21875 16.28125 C 13.323097 15.192883 14 13.671829 14 12 C 14 11.875594 13.976142 11.74762 13.96875 11.625 z M 2 13.125 L 2 14.125 C 2 14.693939 2.426063 15.15625 2.96875 15.15625 L 4.96875 15.15625 L 6.90625 16.84375 C 7.130114 17.040823 7.400873 17.040138 7.625 16.84375 C 7.849127 16.64736 8.001453 16.26696 8 15.875 L 8 14.875 C 8.001453 15.26696 7.849127 15.64736 7.625 15.84375 C 7.400873 16.040138 7.130114 16.040823 6.90625 15.84375 L 4.96875 14.15625 L 2.96875 14.15625 C 2.426063 14.15625 2 13.693939 2 13.125 z" opacity=".3"/></g></svg>