<svg xmlns="http://www.w3.org/2000/svg" xmlns:svg="http://www.w3.org/2000/svg" xmlns:xlink="http://www.w3.org/1999/xlink" id="svg2" width="22" height="22" display="inline" version="1.0"><defs id="defs4"><linearGradient id="linearGradient3738"><stop id="stop3740" offset="0" stop-color="#5dbcd3" stop-opacity="1"/><stop id="stop3742" offset="1" stop-color="#9ae8fb" stop-opacity="1"/></linearGradient><linearGradient id="linearGradient3327"><stop id="stop3330" offset="0" stop-color="#000" stop-opacity="1"/><stop id="stop3333" offset="1" stop-color="#000" stop-opacity="0"/></linearGradient><linearGradient id="linearGradient3335" x1="11.375" x2="11.375" y1="22" y2="-9.817" gradientUnits="userSpaceOnUse" xlink:href="#linearGradient3327"/><linearGradient id="linearGradient3181" x1="-3.061" x2="-3.061" y1="27.258" y2="7.254" gradientTransform="translate(11.119372,-6.258198)" gradientUnits="userSpaceOnUse" xlink:href="#linearGradient4059"/><linearGradient id="ButtonShadow" x1="9.355" x2="9.355" y1="21.743" y2=".494" gradientTransform="scale(0.9883037,1.0118347)" gradientUnits="userSpaceOnUse"><stop id="stop3277" offset="0" stop-color="#000" stop-opacity=".706"/><stop id="stop3279" offset="1" stop-color="#000" stop-opacity=".157"/></linearGradient><linearGradient id="linearGradient3232"><stop id="stop3234" offset="0" stop-color="#000" stop-opacity="1"/><stop id="stop3236" offset="1" stop-color="#000" stop-opacity="0"/></linearGradient><linearGradient id="linearGradient3221" x1="11" x2="11" y1="14.806" y2="-6" gradientUnits="userSpaceOnUse" xlink:href="#linearGradient3232"/><linearGradient id="ButtonColor" x1="10.32" x2="10.32" y1="21" y2=".999" gradientUnits="userSpaceOnUse"><stop id="stop3189" offset="0" stop-color="#29669f" stop-opacity="1"/><stop id="stop3191" offset="1" stop-color="#88b6e0" stop-opacity="1"/></linearGradient><linearGradient id="linearGradient38042" x1="9.355" x2="9.355" y1="21.743" y2=".494" gradientTransform="scale(0.9883037,1.0118347)" gradientUnits="userSpaceOnUse" xlink:href="#ButtonShadow"/><filter id="filter3194" width="1.36" height="1.36" x="-.18" y="-.18" color-interpolation-filters="sRGB"><feGaussianBlur id="feGaussianBlur3196" stdDeviation="1.2"/></filter><clipPath id="clipPath2849" clipPathUnits="userSpaceOnUse"><rect id="rect2851" width="20" height="20" x="1" y="1" fill="#fff" fill-opacity="1" fill-rule="evenodd" stroke="none" display="inline" rx="2" ry="2"/></clipPath><linearGradient id="linearGradient3617" x1="48" x2="48" y1="90" y2="5.988" gradientUnits="userSpaceOnUse" xlink:href="#linearGradient3614"/><linearGradient id="linearGradient3614"><stop id="stop3616" offset="0" stop-color="#8a916f" stop-opacity="1"/><stop id="stop3618" offset="1" stop-color="#c4c8b7" stop-opacity="1"/></linearGradient><linearGradient id="linearGradient3628" x1="15" x2="81" y1="48" y2="48" gradientTransform="matrix(0.96969697,0,0,0.96969697,-94.545455,1.4545455)" gradientUnits="userSpaceOnUse" xlink:href="#linearGradient3859"/><linearGradient id="linearGradient3859"><stop id="stop3861" offset="0" stop-color="#676c53" stop-opacity="1"/><stop id="stop3863" offset="1" stop-color="#c4c8b7" stop-opacity="1"/></linearGradient><linearGradient id="linearGradient3836" x1="41.469" x2="54.531" y1="48" y2="48" gradientTransform="matrix(0,0.15310995,-0.15310995,0,18.349279,3.6507226)" gradientUnits="userSpaceOnUse" xlink:href="#linearGradient3830"/><linearGradient id="linearGradient3830"><stop id="stop3832" offset="0" stop-color="#fff" stop-opacity="1"/><stop id="stop3834" offset="1" stop-color="#3a3a3a" stop-opacity="1"/></linearGradient><linearGradient id="linearGradient4170" x1="36" x2="60" y1="48" y2="48" gradientTransform="matrix(0.12984844,0,0,0.12984844,4.7672756,4.7672758)" gradientUnits="userSpaceOnUse" xlink:href="#linearGradient4164"/><linearGradient id="linearGradient4164"><stop id="stop4166" offset="0" stop-color="#fff" stop-opacity="1"/><stop id="stop4168" offset="1" stop-color="#fff" stop-opacity="0"/></linearGradient><linearGradient id="linearGradient4120"><stop id="stop4122" offset="0" stop-color="#fff" stop-opacity="1"/><stop id="stop4124" offset="1" stop-color="#8c8c8c" stop-opacity="1"/></linearGradient><linearGradient id="linearGradient3840"><stop id="stop3842" offset="0" stop-color="#000" stop-opacity="0"/><stop id="stop3844" offset=".828" stop-color="#000" stop-opacity="1"/><stop id="stop3846" offset="1" stop-color="#000" stop-opacity="0"/></linearGradient><linearGradient id="linearGradient4059"><stop id="stop4061" offset="0" stop-color="#969696" stop-opacity="1"/><stop id="stop4063" offset="1" stop-color="#cdcdcd" stop-opacity="1"/></linearGradient><linearGradient id="linearGradient3954"><stop id="stop3956" offset="0" stop-color="#1a1a1a" stop-opacity="1"/><stop id="stop3958" offset="1" stop-color="#3a3a3a" stop-opacity="1"/></linearGradient><clipPath id="clipPath4009" clipPathUnits="userSpaceOnUse"><path id="path4011" fill="red" fill-opacity="1" stroke="none" d="m 67.427683,45.744911 a 20.203051,20.203051 0 1 1 -40.406101,0 20.203051,20.203051 0 1 1 40.406101,0 z" transform="matrix(1.4145804,-0.81670835,0.81670835,1.4145804,-56.163288,21.858899)"/></clipPath><linearGradient id="linearGradient3981"><stop id="stop3983" offset="0" stop-color="#ccc" stop-opacity="1"/><stop id="stop3989" offset=".5" stop-color="#929292" stop-opacity="1"/><stop id="stop3985" offset="1" stop-color="#ccc" stop-opacity="1"/></linearGradient><linearGradient id="linearGradient3830-4"><stop id="stop3832-8" offset="0" stop-color="#fff" stop-opacity="1"/><stop id="stop3834-1" offset="1" stop-color="#3a3a3a" stop-opacity="1"/></linearGradient><linearGradient id="linearGradient4120-9"><stop id="stop4122-6" offset="0" stop-color="#fff" stop-opacity="1"/><stop id="stop4124-3" offset="1" stop-color="#989898" stop-opacity="1"/></linearGradient><linearGradient id="linearGradient3840-8"><stop id="stop3842-5" offset="0" stop-color="#000" stop-opacity="0"/><stop id="stop3844-6" offset=".828" stop-color="#000" stop-opacity="1"/><stop id="stop3846-1" offset="1" stop-color="#000" stop-opacity="0"/></linearGradient><linearGradient id="linearGradient4059-5"><stop id="stop4061-9" offset="0" stop-color="#ccc" stop-opacity="1"/><stop id="stop4063-8" offset="1" stop-color="#969696" stop-opacity="1"/></linearGradient><linearGradient id="linearGradient3954-8"><stop id="stop3956-1" offset="0" stop-color="#1a1a1a" stop-opacity="1"/><stop id="stop3958-0" offset="1" stop-color="#3a3a3a" stop-opacity="1"/></linearGradient><clipPath id="clipPath4009-3" clipPathUnits="userSpaceOnUse"><path id="path4011-0" fill="red" fill-opacity="1" stroke="none" d="m 67.427683,45.744911 a 20.203051,20.203051 0 1 1 -40.406101,0 20.203051,20.203051 0 1 1 40.406101,0 z" transform="matrix(1.4145804,-0.81670835,0.81670835,1.4145804,-56.163288,21.858899)"/></clipPath><linearGradient id="linearGradient3981-4"><stop id="stop3983-7" offset="0" stop-color="#ccc" stop-opacity="1"/><stop id="stop3989-6" offset=".5" stop-color="#929292" stop-opacity="1"/><stop id="stop3985-3" offset="1" stop-color="#ccc" stop-opacity="1"/></linearGradient><linearGradient id="linearGradient3744" x1="14" x2="14" y1="4" y2="8" gradientUnits="userSpaceOnUse" xlink:href="#linearGradient3738"/><linearGradient id="linearGradient3754" x1="13" x2="13" y1="11" y2="5" gradientUnits="userSpaceOnUse" xlink:href="#linearGradient4164"/><linearGradient id="linearGradient3827" x1="3.004" x2="7.023" y1="11.058" y2="11.058" gradientUnits="userSpaceOnUse" xlink:href="#linearGradient4120"/><linearGradient id="linearGradient3835" x1="4" x2="6" y1="14" y2="14" gradientUnits="userSpaceOnUse" xlink:href="#linearGradient4120-9"/><linearGradient id="linearGradient3841" x1="3.004" x2="7.023" y1="11.058" y2="11.058" gradientTransform="matrix(0,0.99516488,-1.0062222,0,16.127111,5.0109887)" gradientUnits="userSpaceOnUse" xlink:href="#linearGradient4120"/><linearGradient id="linearGradient3856" x1="4" x2="6" y1="14" y2="14" gradientTransform="translate(1,-1)" gradientUnits="userSpaceOnUse" xlink:href="#linearGradient4120-9"/><linearGradient id="linearGradient3868" x1="4" x2="6.398" y1="14" y2="14" gradientUnits="userSpaceOnUse" xlink:href="#linearGradient4120-9"/><linearGradient id="linearGradient3845" x1="11" x2="21" y1="19.5" y2="19.5" gradientUnits="userSpaceOnUse" spreadMethod="reflect" xlink:href="#linearGradient3831"/><linearGradient id="linearGradient3831"><stop id="stop3833" offset="0" stop-color="#fff" stop-opacity="1"/><stop id="stop3821" offset=".75" stop-color="#fff" stop-opacity=".498"/><stop id="stop3835" offset="1" stop-color="#fff" stop-opacity="0"/></linearGradient><linearGradient id="linearGradient3084" x1="10" x2="10" y1="1" y2="16" gradientUnits="userSpaceOnUse" xlink:href="#linearGradient3823"/><linearGradient id="linearGradient3823"><stop id="stop3825" offset="0" stop-color="#fff" stop-opacity="1"/><stop id="stop3829" offset="1" stop-color="#fff" stop-opacity="0"/></linearGradient><linearGradient id="linearGradient3124" x1="10" x2="10" y1="1" y2="16" gradientUnits="userSpaceOnUse" xlink:href="#linearGradient3823"/></defs><metadata id="metadata7"/><g id="layer1"><g id="g3337" display="inline"><rect id="rect3371" width="21" height="21.5" x=".5" y=".5" fill="url(#linearGradient3335)" fill-opacity="1" stroke="none" display="inline" opacity=".3" rx="2.5" ry="2.5"/><rect id="rect2553" width="20" height="20" x="1" y="2" fill="#000" fill-opacity="1" stroke="none" display="inline" opacity=".5" rx="2.381" ry="2.326"/></g><rect id="rect3173" width="20" height="20" x="1" y="1" fill="url(#linearGradient3181)" fill-opacity="1" fill-rule="evenodd" stroke="none" display="inline" rx="2" ry="2"/><path id="rect3050" fill="url(#linearGradient3124)" fill-opacity="1" fill-rule="evenodd" stroke="none" d="M 3,1 C 1.892,1 1,1.892 1,3 l 0,16 c 0,1.108 0.892,2 2,2 l 16,0 c 1.108,0 2,-0.892 2,-2 L 21,3 C 21,1.892 20.108,1 19,1 L 3,1 z m 0,1.03125 16,0 c 0.5497,0 0.96875,0.4190495 0.96875,0.96875 l 0,16 c 0,0.5497 -0.41905,0.96875 -0.96875,0.96875 l -16,0 C 2.4502995,19.96875 2.03125,19.5497 2.03125,19 l 0,-16 C 2.03125,2.4502995 2.4502995,2.03125 3,2.03125 z" display="inline" opacity=".5"/><path id="path3235" fill="url(#linearGradient3845)" fill-opacity="1" fill-rule="evenodd" stroke="none" d="M 3,21 C 1.892,21 1,20.108 1,19 l 0,-1 c 0,1.108 0.892,2 2,2 l 16,0 c 1.108,0 2,-0.892 2,-2 l 0,1 c 0,1.108 -0.892,2 -2,2 L 3,21 z" display="inline" opacity=".3"/></g><g id="layer2"><rect id="rect2410" width="16" height="16" x="3" y="3" fill="#fff" fill-opacity="1" fill-rule="nonzero" stroke="none" clip-path="url(#clipPath2849)" display="inline" filter="url(#filter3194)" opacity=".15" rx="2" ry="2"/></g><g id="layer3"><path id="rect3854" fill="#000" fill-opacity="1" stroke="none" d="m 5.3125,7.65625 c -1.486095,0 -2.6875,1.2136027 -2.6875,2.6875 0,1.365744 1.0408239,2.467086 2.375,2.625 L 5,19 c 0,0.554 0.43922,1 0.96875,1 l 0.0625,0 C 6.56078,20 7,19.554 7,19 L 7,12.375 C 7.6035735,11.885606 8,11.177269 8,10.34375 8,8.8698527 6.798595,7.65625 5.3125,7.65625 z" opacity=".2" transform="translate(0,-2)"/><rect id="rect3746" width="10" height="6" x="9" y="5" fill="url(#linearGradient3754)" fill-opacity="1" stroke="none" opacity=".4" rx="2" ry="2" transform="translate(0,-2)"/><rect id="rect3718" width="7.5" height="3.5" x="10.25" y="4.25" fill="url(#linearGradient3744)" fill-opacity="1" stroke="#3197b1" stroke-dasharray="none" stroke-miterlimit="4" stroke-opacity="1" stroke-width=".5" rx="1" ry="1"/><rect id="rect3720" width="2" height="2" x="10" y="10" fill="#4d4d4d" fill-opacity="1" stroke="none"/><rect id="rect3722" width="2" height="2" x="13" y="10" fill="#4d4d4d" fill-opacity="1" stroke="none"/><rect id="rect3724" width="2" height="2" x="16" y="10" fill="#4d4d4d" fill-opacity="1" stroke="none"/><rect id="rect3726" width="2" height="2" x="10" y="13" fill="#4d4d4d" fill-opacity="1" stroke="none"/><rect id="rect3728" width="2" height="2" x="13" y="13" fill="#4d4d4d" fill-opacity="1" stroke="none"/><rect id="rect3730" width="2" height="2" x="16" y="13" fill="#4d4d4d" fill-opacity="1" stroke="none"/><rect id="rect3732" width="2" height="2" x="10" y="16" fill="#4d4d4d" fill-opacity="1" stroke="none"/><rect id="rect3734" width="2" height="2" x="13" y="16" fill="#4d4d4d" fill-opacity="1" stroke="none"/><rect id="rect3736" width="2" height="2" x="16" y="16" fill="#4d4d4d" fill-opacity="1" stroke="none"/><rect id="rect3756" width="2" height="1" x="10" y="10" fill="#7c7c7c" fill-opacity="1" stroke="none"/><rect id="rect3762" width="2" height="1" x="13" y="10" fill="#7c7c7c" fill-opacity="1" stroke="none"/><rect id="rect3764" width="2" height="1" x="16" y="10" fill="#7c7c7c" fill-opacity="1" stroke="none"/><rect id="rect3766" width="2" height="1" x="10" y="13" fill="#7c7c7c" fill-opacity="1" stroke="none"/><rect id="rect3768" width="2" height="1" x="13" y="13" fill="#7c7c7c" fill-opacity="1" stroke="none"/><rect id="rect3770" width="2" height="1" x="16" y="13" fill="#7c7c7c" fill-opacity="1" stroke="none"/><rect id="rect3772" width="2" height="1" x="10" y="16" fill="#7c7c7c" fill-opacity="1" stroke="none"/><rect id="rect3774" width="2" height="1" x="13" y="16" fill="#7c7c7c" fill-opacity="1" stroke="none"/><rect id="rect3776" width="2" height="1" x="16" y="16" fill="#7c7c7c" fill-opacity="1" stroke="none"/><path id="path3714" fill="url(#linearGradient3827)" fill-opacity="1" stroke="none" d="m 7.0229681,11.058304 c 0,1.097739 -0.8997811,1.987632 -2.0097173,1.987632 -1.1099361,0 -2.0097172,-0.889893 -2.0097172,-1.987632 0,-1.0977393 0.8997811,-1.9876327 2.0097172,-1.9876327 1.1099362,0 2.0097173,0.8898934 2.0097173,1.9876327 z" transform="matrix(0,0.99516488,-1.0062222,0,16.127111,3.0109887)"/><rect id="rect3716" width="2" height="10" x="4" y="9" fill="url(#linearGradient3868)" fill-opacity="1" stroke="none" rx=".956" ry="1" transform="translate(0,-2)"/></g></svg>