<svg xmlns="http://www.w3.org/2000/svg" xmlns:svg="http://www.w3.org/2000/svg" xmlns:xlink="http://www.w3.org/1999/xlink" id="svg2" width="22" height="22" display="inline" version="1.0"><defs id="defs4"><linearGradient id="linearGradient3327"><stop id="stop3330" offset="0" stop-color="#000" stop-opacity="1"/><stop id="stop3333" offset="1" stop-color="#000" stop-opacity="0"/></linearGradient><linearGradient id="linearGradient3335" x1="11.375" x2="11.375" y1="22" y2="-9.817" gradientUnits="userSpaceOnUse" xlink:href="#linearGradient3327"/><linearGradient id="linearGradient3181" x1="-3.061" x2="-3.061" y1="27.258" y2="7.254" gradientTransform="translate(11.119372,-6.2581977)" gradientUnits="userSpaceOnUse" xlink:href="#linearGradient2881"/><linearGradient id="ButtonShadow" x1="9.355" x2="9.355" y1="21.743" y2=".494" gradientTransform="scale(0.9883037,1.0118347)" gradientUnits="userSpaceOnUse"><stop id="stop3277" offset="0" stop-color="#000" stop-opacity=".706"/><stop id="stop3279" offset="1" stop-color="#000" stop-opacity=".157"/></linearGradient><linearGradient id="linearGradient3232"><stop id="stop3234" offset="0" stop-color="#000" stop-opacity="1"/><stop id="stop3236" offset="1" stop-color="#000" stop-opacity="0"/></linearGradient><linearGradient id="linearGradient3221" x1="11" x2="11" y1="14.806" y2="-6" gradientUnits="userSpaceOnUse" xlink:href="#linearGradient3232"/><linearGradient id="ButtonColor" x1="10.32" x2="10.32" y1="21" y2=".999" gradientUnits="userSpaceOnUse"><stop id="stop3189" offset="0" stop-color="#29669f" stop-opacity="1"/><stop id="stop3191" offset="1" stop-color="#88b6e0" stop-opacity="1"/></linearGradient><linearGradient id="linearGradient38042" x1="9.355" x2="9.355" y1="21.743" y2=".494" gradientTransform="scale(0.9883037,1.0118347)" gradientUnits="userSpaceOnUse" xlink:href="#ButtonShadow"/><filter id="filter3194" width="1.36" height="1.36" x="-.18" y="-.18" color-interpolation-filters="sRGB"><feGaussianBlur id="feGaussianBlur3196" stdDeviation="1.2"/></filter><clipPath id="clipPath2849" clipPathUnits="userSpaceOnUse"><rect id="rect2851" width="20" height="20" x="1" y="1" fill="#fff" fill-opacity="1" fill-rule="evenodd" stroke="none" display="inline" rx="2" ry="2"/></clipPath><linearGradient id="linearGradient3617" x1="48" x2="48" y1="90" y2="5.988" gradientUnits="userSpaceOnUse" xlink:href="#linearGradient3614"/><linearGradient id="linearGradient3614"><stop id="stop3616" offset="0" stop-color="#064096" stop-opacity="1"/><stop id="stop3618" offset="1" stop-color="#4484e5" stop-opacity="1"/></linearGradient><linearGradient id="linearGradient3835" x1="48" x2="48" y1="90" y2="5.988" gradientTransform="translate(-79,-26)" gradientUnits="userSpaceOnUse" xlink:href="#linearGradient3614"/><linearGradient id="linearGradient3777" x1="15" x2="106.506" y1="47.277" y2="47.025" gradientUnits="userSpaceOnUse" xlink:href="#linearGradient3771"/><linearGradient id="linearGradient3771"><stop id="stop3773" offset="0" stop-color="#154a99" stop-opacity="1"/><stop id="stop3775" offset="1" stop-color="#154a99" stop-opacity="0"/></linearGradient><linearGradient id="linearGradient3856" x1="45.79" x2="45.79" y1="78.067" y2="17.246" gradientTransform="matrix(0.24242424,0,0,0.24242462,-0.636364,-0.121218)" gradientUnits="userSpaceOnUse" xlink:href="#linearGradient3731"/><linearGradient id="linearGradient3661" x1="-3.061" x2="-3.061" y1="27.258" y2="7.254" gradientTransform="translate(-18.880628,-4.2581977)" gradientUnits="userSpaceOnUse" xlink:href="#linearGradient3614"/><linearGradient id="linearGradient3665" x1="15" x2="106.506" y1="47.277" y2="47.025" gradientTransform="matrix(0.24242424,0,0,0.24242462,-30.636364,1.878782)" gradientUnits="userSpaceOnUse" xlink:href="#linearGradient3771"/><clipPath id="clipPath3676" clipPathUnits="userSpaceOnUse"><path id="path3678" fill="url(#linearGradient3680)" fill-opacity="1" fill-rule="evenodd" stroke="none" d="m -27,3 c -1.108,0 -2,0.892 -2,2 l 0,16 c 0,1.108 0.892,2 2,2 l 16,0 c 1.108,0 2,-0.892 2,-2 L -9,5 C -9,3.892 -9.892,3 -11,3 l -16,0 z m 8,3 c 4.418278,0 8,2.91629 8,6.53125 0,3.61496 -3.581722,6.5625 -8,6.5625 -0.657923,0 -1.294491,-0.06495 -1.90625,-0.1875 -0.82246,0.858473 -2.385922,2.003533 -4.71875,1.75 1.801148,-0.509136 2.19771,-2.016816 2.28125,-2.625 C -25.540778,16.864511 -27,14.833905 -27,12.53125 -27,8.91629 -23.418278,6 -19,6 z" display="inline"/></clipPath><linearGradient id="linearGradient3680" x1="-3.061" x2="-3.061" y1="27.258" y2="7.254" gradientTransform="translate(-18.880628,-4.2581977)" gradientUnits="userSpaceOnUse" xlink:href="#linearGradient3614"/><filter id="filter3682" width="1.46" height="1.502" x="-.23" y="-.251" color-interpolation-filters="sRGB"><feGaussianBlur id="feGaussianBlur3684" stdDeviation="1.534"/></filter><linearGradient id="linearGradient3703" x1="46.125" x2="46.125" y1="63.048" y2="24.84" gradientUnits="userSpaceOnUse" xlink:href="#linearGradient3697"/><linearGradient id="linearGradient3697"><stop id="stop3699" offset="0" stop-color="#dcdcdc" stop-opacity="1"/><stop id="stop3701" offset="1" stop-color="#f0f0f0" stop-opacity="1"/></linearGradient><linearGradient id="linearGradient3761" x1="46.125" x2="46.125" y1="63.048" y2="24.84" gradientUnits="userSpaceOnUse" xlink:href="#linearGradient3697"/><linearGradient id="linearGradient3875"><stop id="stop3877" offset="0" stop-color="#dcdcdc" stop-opacity="1"/><stop id="stop3879" offset="1" stop-color="#f0f0f0" stop-opacity="1"/></linearGradient><linearGradient id="linearGradient3883" x1="46.125" x2="46.125" y1="63.048" y2="24.84" gradientUnits="userSpaceOnUse" xlink:href="#linearGradient3697"/><linearGradient id="linearGradient3617-7" x1="48" x2="48" y1="90" y2="5.988" gradientUnits="userSpaceOnUse" xlink:href="#linearGradient3614-7"/><linearGradient id="linearGradient3614-7"><stop id="stop3616-6" offset="0" stop-color="#418f0d" stop-opacity="1"/><stop id="stop3618-7" offset="1" stop-color="#8bdb14" stop-opacity="1"/></linearGradient><linearGradient id="linearGradient4222" x1="48" x2="48" y1="90" y2="5.988" gradientTransform="translate(-78.265018,-32.360424)" gradientUnits="userSpaceOnUse" xlink:href="#linearGradient3614-7"/><linearGradient id="linearGradient4190" x1="71.672" x2="71.672" y1="62.025" y2="26.414" gradientTransform="translate(-25,-0.34739)" gradientUnits="userSpaceOnUse" xlink:href="#linearGradient3697-0"/><linearGradient id="linearGradient3697-0"><stop id="stop3699-5" offset="0" stop-color="#dcdcdc" stop-opacity="1"/><stop id="stop3701-6" offset="1" stop-color="#f0f0f0" stop-opacity="1"/></linearGradient><linearGradient id="linearGradient4241" x1="71.672" x2="71.672" y1="62.025" y2="26.414" gradientTransform="translate(-61.612113,-28.872125)" gradientUnits="userSpaceOnUse" xlink:href="#linearGradient3697-0"/><linearGradient id="linearGradient3700" x1="71.672" x2="71.672" y1="62.025" y2="26.414" gradientTransform="matrix(0.24908185,-0.02140634,0.02140634,0.24908185,-8.2754266,1.0033486)" gradientUnits="userSpaceOnUse" xlink:href="#linearGradient3697-0"/><linearGradient id="linearGradient3664" x1="48.082" x2="46.655" y1="75.562" y2="16.973" gradientTransform="translate(-94.526458,-39.885159)" gradientUnits="userSpaceOnUse" xlink:href="#linearGradient3731"/><linearGradient id="linearGradient3731"><stop id="stop3733" offset="0" stop-color="#dcdcdc" stop-opacity="1"/><stop id="stop3757" offset=".307" stop-color="#ebebeb" stop-opacity="1"/><stop id="stop3737" offset=".707" stop-color="#fff" stop-opacity="1"/><stop id="stop3759" offset=".845" stop-color="#fafafa" stop-opacity="1"/><stop id="stop3735" offset="1" stop-color="#f0f0f0" stop-opacity="1"/></linearGradient><linearGradient id="linearGradient3617-8" x1="48" x2="48" y1="90" y2="5.988" gradientUnits="userSpaceOnUse" xlink:href="#linearGradient3614-8"/><linearGradient id="linearGradient3614-8"><stop id="stop3616-4" offset="0" stop-color="#65a31b" stop-opacity="1"/><stop id="stop3618-3" offset="1" stop-color="#a0de42" stop-opacity="1"/></linearGradient><linearGradient id="linearGradient2936" x1="48" x2="48" y1="90" y2="5.988" gradientTransform="translate(-94.526458,-40.885159)" gradientUnits="userSpaceOnUse" xlink:href="#linearGradient3614-8"/><linearGradient id="linearGradient3712" x1="45.79" x2="45.79" y1="78.067" y2="17.246" gradientTransform="matrix(0.24242424,0,0,0.24242462,-0.636364,2.878782)" gradientUnits="userSpaceOnUse" xlink:href="#linearGradient3731"/><linearGradient id="linearGradient3714" x1="45.79" x2="45.79" y1="78.067" y2="17.246" gradientTransform="matrix(0.24242424,0,0,0.24242462,-0.636364,-0.121218)" gradientUnits="userSpaceOnUse" xlink:href="#linearGradient3731"/><linearGradient id="linearGradient3727" x1="45.79" x2="45.79" y1="78.067" y2="17.246" gradientTransform="matrix(0.24242424,0,0,0.24242462,-0.636364,-18.121218)" gradientUnits="userSpaceOnUse" xlink:href="#linearGradient3731"/><linearGradient id="linearGradient3735" x1="71.672" x2="71.672" y1="62.025" y2="26.414" gradientTransform="matrix(0.24908185,-0.02140634,0.02140634,0.24908185,-8.2754266,3.5131813)" gradientUnits="userSpaceOnUse" xlink:href="#linearGradient3697-0"/><linearGradient id="linearGradient3743" x1="45.79" x2="45.79" y1="78.067" y2="17.246" gradientTransform="matrix(0.24242424,0,0,0.24242462,-0.636364,2.878782)" gradientUnits="userSpaceOnUse" xlink:href="#linearGradient3731"/><linearGradient id="linearGradient3745" x1="45.79" x2="45.79" y1="78.067" y2="17.246" gradientTransform="matrix(0.24242424,0,0,0.24242462,-0.636364,1.878782)" gradientUnits="userSpaceOnUse" xlink:href="#linearGradient3731"/><linearGradient id="linearGradient3617-88" x1="48" x2="48" y1="90" y2="5.988" gradientUnits="userSpaceOnUse" xlink:href="#linearGradient2881"/><linearGradient id="linearGradient2881"><stop id="stop2883" offset="0" stop-color="#1e57ae" stop-opacity="1"/><stop id="stop2885" offset="1" stop-color="#7da8e9" stop-opacity="1"/></linearGradient><linearGradient id="linearGradient4935" x1="48" x2="48" y1="90" y2="5.988" gradientTransform="translate(-49.121025,-42.621466)" gradientUnits="userSpaceOnUse" xlink:href="#linearGradient2881"/><linearGradient id="linearGradient3717" x1="45.79" x2="45.79" y1="78.067" y2="17.246" gradientTransform="matrix(0.24242424,0,0,0.24242462,-0.636364,1.878782)" gradientUnits="userSpaceOnUse" xlink:href="#linearGradient3731"/><linearGradient id="linearGradient3736" x1="45.79" x2="45.79" y1="78.067" y2="17.246" gradientTransform="matrix(0.24242424,0,0,0.24242462,-0.636364,2.878782)" gradientUnits="userSpaceOnUse" xlink:href="#linearGradient3731"/><linearGradient id="linearGradient3738" x1="45.79" x2="45.79" y1="78.067" y2="17.246" gradientTransform="matrix(0.24242424,0,0,0.24242462,-0.636364,1.878782)" gradientUnits="userSpaceOnUse" xlink:href="#linearGradient3731"/><linearGradient id="linearGradient3747" x1="45.79" x2="45.79" y1="78.067" y2="17.246" gradientTransform="matrix(0.24242424,0,0,0.24242462,-0.636364,1.878782)" gradientUnits="userSpaceOnUse" xlink:href="#linearGradient3731"/><linearGradient id="linearGradient3845" x1="11" x2="21" y1="19.5" y2="19.5" gradientUnits="userSpaceOnUse" spreadMethod="reflect" xlink:href="#linearGradient3831"/><linearGradient id="linearGradient3831"><stop id="stop3833" offset="0" stop-color="#fff" stop-opacity="1"/><stop id="stop3821" offset=".75" stop-color="#fff" stop-opacity=".498"/><stop id="stop3835" offset="1" stop-color="#fff" stop-opacity="0"/></linearGradient><linearGradient id="linearGradient3084" x1="10" x2="10" y1="1" y2="16" gradientUnits="userSpaceOnUse" xlink:href="#linearGradient3823"/><linearGradient id="linearGradient3823"><stop id="stop3825" offset="0" stop-color="#fff" stop-opacity="1"/><stop id="stop3829" offset="1" stop-color="#fff" stop-opacity="0"/></linearGradient><linearGradient id="linearGradient3124" x1="10" x2="10" y1="1" y2="16" gradientUnits="userSpaceOnUse" xlink:href="#linearGradient3823"/></defs><metadata id="metadata7"/><g id="layer1"><g id="g3337" display="inline"><rect id="rect3371" width="21" height="21.5" x=".5" y=".5" fill="url(#linearGradient3335)" fill-opacity="1" stroke="none" display="inline" opacity=".3" rx="2.5" ry="2.5"/><rect id="rect2553" width="20" height="20" x="1" y="2" fill="#000" fill-opacity="1" stroke="none" display="inline" opacity=".5" rx="2.381" ry="2.326"/></g><rect id="rect3173" width="20" height="20" x="1" y="1" fill="url(#linearGradient3181)" fill-opacity="1" fill-rule="evenodd" stroke="none" display="inline" rx="2" ry="2"/><path id="rect3050" fill="url(#linearGradient3124)" fill-opacity="1" fill-rule="evenodd" stroke="none" d="M 3,1 C 1.892,1 1,1.892 1,3 l 0,16 c 0,1.108 0.892,2 2,2 l 16,0 c 1.108,0 2,-0.892 2,-2 L 21,3 C 21,1.892 20.108,1 19,1 L 3,1 z m 0,1.03125 16,0 c 0.5497,0 0.96875,0.4190495 0.96875,0.96875 l 0,16 c 0,0.5497 -0.41905,0.96875 -0.96875,0.96875 l -16,0 C 2.4502995,19.96875 2.03125,19.5497 2.03125,19 l 0,-16 C 2.03125,2.4502995 2.4502995,2.03125 3,2.03125 z" display="inline" opacity=".3"/><path id="path3235" fill="url(#linearGradient3845)" fill-opacity="1" fill-rule="evenodd" stroke="none" d="M 3,21 C 1.892,21 1,20.108 1,19 l 0,-1 c 0,1.108 0.892,2 2,2 l 16,0 c 1.108,0 2,-0.892 2,-2 l 0,1 c 0,1.108 -0.892,2 -2,2 L 3,21 z" display="inline" opacity=".2"/></g><g id="layer4" display="inline" transform="translate(0,-2)"><path id="path3698" fill="#000" fill-opacity="1" stroke="none" d="m 11,5.46875 c -4.8753126,0 -9.03125,3.2685255 -9.03125,7.5625 0,2.443331 1.4253191,4.518175 3.46875,5.875 -0.033118,0.124 -0.034823,0.267079 -0.125,0.40625 -0.2321251,0.358242 -0.5616964,0.689269 -1.21875,0.875 3.922e-4,-1.32e-4 -0.062886,1.48e-4 -0.0625,0 3.864e-4,-1.48e-4 -0.03163,0.03141 -0.03125,0.03125 3.801e-4,-1.63e-4 -0.031623,1.79e-4 -0.03125,0 3.731e-4,-1.79e-4 -0.031615,0.03144 -0.03125,0.03125 3.654e-4,-1.94e-4 -0.062857,0.03146 -0.0625,0.03125 3.572e-4,-2.09e-4 -0.031598,2.23e-4 -0.03125,0 3.483e-4,-2.23e-4 -0.031589,0.03149 -0.03125,0.03125 3.389e-4,-2.37e-4 -0.031579,0.0315 -0.03125,0.03125 3.289e-4,-2.51e-4 -0.031568,0.03151 -0.03125,0.03125 3.183e-4,-2.64e-4 -0.031557,0.03153 -0.03125,0.03125 3.072e-4,-2.77e-4 -0.031546,0.03154 -0.03125,0.03125 2.956e-4,-2.89e-4 -0.031534,0.03155 -0.03125,0.03125 2.835e-4,-3.01e-4 -0.031521,0.03156 -0.03125,0.03125 2.709e-4,-3.13e-4 -0.031508,0.03157 -0.03125,0.03125 2.579e-4,-3.24e-4 -0.031494,0.03158 -0.03125,0.03125 2.444e-4,-3.34e-4 -2.305e-4,0.03159 0,0.03125 2.305e-4,-3.44e-4 -0.031466,0.0316 -0.03125,0.03125 2.163e-4,-3.53e-4 -0.031452,0.03161 -0.03125,0.03125 2.017e-4,-3.61e-4 -1.867e-4,0.03162 0,0.03125 1.867e-4,-3.69e-4 -0.031421,0.06288 -0.03125,0.0625 1.714e-4,-3.77e-4 -0.031406,0.03163 -0.03125,0.03125 1.558e-4,-3.83e-4 -1.4e-4,0.03164 0,0.03125 1.4e-4,-3.89e-4 -1.24e-4,0.03165 0,0.03125 1.24e-4,-3.95e-4 -0.031358,0.0629 -0.03125,0.0625 1.077e-4,-3.99e-4 -9.12e-5,0.03165 0,0.03125 9.12e-5,-4.04e-4 -7.46e-5,0.03166 0,0.03125 7.46e-5,-4.07e-4 -0.031308,0.06291 -0.03125,0.0625 5.79e-5,-4.1e-4 -4.11e-5,0.03166 0,0.03125 4.11e-5,-4.12e-4 -2.42e-5,0.03166 0,0.03125 2.42e-5,-4.13e-4 -7.2e-6,0.06291 0,0.0625 7.2e-6,-4.14e-4 9.7e-6,0.03166 0,0.03125 -9.7e-6,-4.14e-4 2.66e-5,0.03166 0,0.03125 -2.66e-5,-4.13e-4 4.35e-5,0.06291 0,0.0625 -4.35e-5,-4.11e-4 6.03e-5,0.03166 0,0.03125 -6.03e-5,-4.09e-4 0.031327,0.03166 0.03125,0.03125 -7.71e-5,-4.06e-4 9.36e-5,0.0629 0,0.0625 -9.36e-5,-4.03e-4 1.101e-4,0.03165 0,0.03125 -1.101e-4,-3.99e-4 0.031376,0.03164 0.03125,0.03125 -1.263e-4,-3.94e-4 1.423e-4,0.06289 0,0.0625 -1.423e-4,-3.88e-4 0.031408,0.03163 0.03125,0.03125 -1.581e-4,-3.82e-4 1.737e-4,0.03163 0,0.03125 -1.737e-4,-3.76e-4 0.031439,0.03162 0.03125,0.03125 -1.889e-4,-3.68e-4 2.038e-4,0.06286 0,0.0625 -2.038e-4,-3.6e-4 0.031468,0.0316 0.03125,0.03125 -2.184e-4,-3.51e-4 0.031483,0.03159 0.03125,0.03125 -2.326e-4,-3.42e-4 0.031496,0.03158 0.03125,0.03125 -2.464e-4,-3.32e-4 2.598e-4,0.03157 0,0.03125 -2.598e-4,-3.22e-4 0.031523,0.03156 0.03125,0.03125 -2.728e-4,-3.11e-4 0.031535,0.03155 0.03125,0.03125 -2.853e-4,-3e-4 0.031547,0.03154 0.03125,0.03125 -2.973e-4,-2.88e-4 0.031559,0.03152 0.03125,0.03125 -3.089e-4,-2.75e-4 0.03157,0.03151 0.03125,0.03125 -3.199e-4,-2.62e-4 0.03158,0.0315 0.03125,0.03125 -3.304e-4,-2.49e-4 0.03159,2.35e-4 0.03125,0 -3.403e-4,-2.35e-4 0.0316,0.03147 0.03125,0.03125 -3.496e-4,-2.21e-4 0.062858,0.03146 0.0625,0.03125 -3.584e-4,-2.07e-4 0.031617,0.03144 0.03125,0.03125 -3.666e-4,-1.92e-4 0.031624,1.77e-4 0.03125,0 -3.741e-4,-1.77e-4 0.031631,0.03141 0.03125,0.03125 -3.81e-4,-1.61e-4 0.031637,1.45e-4 0.03125,0 -3.873e-4,-1.45e-4 0.062893,0.03138 0.0625,0.03125 -3.929e-4,-1.29e-4 0.031648,1.13e-4 0.03125,0 -3.979e-4,-1.13e-4 0.031652,9.7e-5 0.03125,0 -4.022e-4,-9.7e-5 0.062906,0.03133 0.0625,0.03125 a 0.53259465,0.53259465 0 0 0 0.03125,0 C 6.6350666,22.446711 8.3691656,21.427183 9.40625,20.5 9.9238636,20.57929 10.449025,20.625 11,20.625 c 4.87995,0 9.03125,-3.299989 9.03125,-7.59375 0,-4.2939745 -4.155938,-7.5625 -9.03125,-7.5625 z M 11.21875,9.5 c 0.132806,-0.011409 0.04149,-0.041622 0.09375,0 -0.09833,0.1085613 0.06131,0.023299 -0.03125,0.03125 -0.03178,0.00273 -0.05881,-0.028586 -0.0625,-0.03125 z" display="inline" opacity=".08"/><path id="path3729" fill="#000" fill-opacity="1" stroke="none" d="m 11,-13.5 c -4.418278,0 -8,2.930505 -8,6.545465 0,2.302655 1.454487,4.325694 3.651515,5.492433 C 6.567965,-0.853918 6.187512,0.634826 4.386364,1.143962 6.719191,1.397495 8.268449,0.260008 9.090909,-0.598465 9.702668,-0.475919 10.342077,-0.40907 11,-0.40907 c 4.418278,0 8,-2.930505 8,-6.545465 C 19,-10.569495 15.418278,-13.5 11,-13.5 z" display="inline" opacity=".3"/><path id="path3694" fill="#000" fill-opacity="1" stroke="none" d="m 11,6 c -4.6392602,0 -8.5,3.0845725 -8.5,7.03125 0,2.376623 1.440401,4.421309 3.5625,5.6875 -0.05574,0.259438 -0.095431,0.539995 -0.3125,0.875 -0.2794431,0.431268 -0.715005,0.871853 -1.5,1.09375 a 0.50224361,0.50224361 0 0 0 0.0625,0.96875 c 2.3546049,0.2559 4.0051124,-0.820225 4.9375,-1.71875 0.5688987,0.09942 1.145647,0.15625 1.75,0.15625 4.641628,0 8.5,-3.115823 8.5,-7.0625 C 19.5,9.0845725 15.63926,6 11,6 z m 0.1875,2.96875 c 0.219015,-0.018816 0.342397,0.024356 0.46875,0.125 0.147102,0.1151113 0.206064,0.1961581 0.21875,0.34375 0.0123,0.1431169 -0.03083,0.2676105 -0.15625,0.40625 -0.127815,0.1411082 -0.215038,0.202324 -0.40625,0.21875 -0.181227,0.01558 -0.30963,-0.03411 -0.46875,-0.15625 C 10.696661,9.7911611 10.637685,9.7101118 10.625,9.5625 10.612437,9.4163163 10.640225,9.3433965 10.78125,9.1875 10.91358,9.0412233 10.992138,8.9855455 11.1875,8.96875 z m -0.78125,3.125 c 0.384971,-0.03308 0.637054,0.03905 0.75,0.125 0.13675,0.10059 0.229422,0.22987 0.25,0.46875 0.001,0.01181 0.0033,0.158548 0,0.34375 3.32e-4,0.127096 -0.03129,0.256675 -0.0625,0.40625 l -0.3125,1.6875 c -0.03143,0.161157 -0.04581,0.346626 -0.0625,0.53125 -0.01394,0.154403 -0.05035,0.246409 -0.03125,0.46875 0.02545,0.296073 0.113591,0.614982 0.40625,0.8125 -0.0907,0.01927 -0.144561,0.05344 -0.25,0.0625 -0.35251,0.03029 -0.590835,-0.0479 -0.75,-0.15625 -0.165173,-0.123937 -0.230247,-0.207676 -0.25,-0.4375 -0.008,-0.09297 -0.0069,-0.212076 0,-0.34375 0.0074,-0.15298 0.01539,-0.283838 0.03125,-0.40625 0.0012,-0.0094 -0.0014,-0.02178 0,-0.03125 l 0.3125,-1.6875 c 0.03079,-0.178933 0.0472,-0.349454 0.0625,-0.5 0.01525,-0.124754 0.04932,-0.258489 0.03125,-0.46875 -0.02657,-0.309064 -0.131649,-0.616727 -0.375,-0.8125 0.08273,-0.01615 0.164903,-0.05518 0.25,-0.0625 z" display="inline" opacity=".15" transform="translate(-30,0)"/><path id="path3741" fill="#000" fill-opacity="1" stroke="none" d="m 11,6.5 c -4.418278,0 -8,2.9162898 -8,6.53125 0,2.302655 1.459222,4.333261 3.65625,5.5 -0.08355,0.608184 -0.480102,2.115864 -2.28125,2.625 2.332827,0.253533 3.89629,-0.891527 4.71875,-1.75 0.611759,0.122546 1.248327,0.1875 1.90625,0.1875 4.418278,0 8,-2.94754 8,-6.5625 C 19,9.4162898 15.418278,6.5 11,6.5 z m -0.21875,2 c 0.432284,8.9e-6 0.850501,0.05219 1.21875,0.15625 0.368241,0.1000754 0.669316,0.2413777 0.9375,0.4375 0.268173,0.1921362 0.472893,0.4385711 0.625,0.71875 0.152095,0.280194 0.249994,0.58127 0.25,0.9375 -6e-6,0.328225 -0.05219,0.646082 -0.15625,0.90625 -0.100072,0.260179 -0.26462,0.502611 -0.46875,0.71875 -0.204142,0.216149 -0.473049,0.409632 -0.78125,0.59375 -0.304207,0.180125 -0.654232,0.331892 -1.0625,0.5 l -0.25,1.125 -0.75,0 -0.25,-1.5 c 0.352232,-0.140089 0.650847,-0.31187 0.875,-0.5 0.224146,-0.192123 0.403161,-0.408851 0.53125,-0.625 0.132084,-0.220141 0.233214,-0.447334 0.28125,-0.6875 0.04803,-0.240153 0.06249,-0.474581 0.0625,-0.71875 -4e-6,-0.196124 -0.02648,-0.371136 -0.0625,-0.53125 C 11.74522,9.867148 11.705046,9.741085 11.625,9.625 11.54895,9.5049278 11.436579,9.4078007 11.3125,9.34375 11.192416,9.279716 11.043108,9.250008 10.875,9.25 c -0.184126,8.1e-6 -0.344671,0.040952 -0.46875,0.125 -0.124086,0.084064 -0.205201,0.1724144 -0.28125,0.3125 -0.07605,0.140101 -0.1514782,0.311882 -0.1875,0.5 -0.032023,0.188132 -0.031252,0.385618 -0.03125,0.59375 -0.2521701,7e-6 -0.4753603,-0.02647 -0.6875,-0.0625 C 9.0066092,10.68274 8.812353,10.63055 8.65625,10.5625 8.5041478,10.49046 8.3693081,10.420579 8.28125,10.3125 8.197193,10.204435 8.1562495,10.081603 8.15625,9.9375 8.1562495,9.7373743 8.20843,9.5471226 8.3125,9.375 8.4165687,9.1988908 8.6003576,9.0343438 8.8125,8.90625 9.0286428,8.7781732 9.2967796,8.6970567 9.625,8.625 9.9532165,8.5489581 10.328946,8.5000089 10.78125,8.5 z m -0.0625,7.03125 c 0.136087,2e-6 0.254917,0.03048 0.375,0.0625 0.124079,0.03202 0.251685,0.0802 0.34375,0.15625 0.09206,0.07605 0.135462,0.184416 0.1875,0.3125 0.05603,0.124084 0.09374,0.280626 0.09375,0.46875 -4e-6,0.184123 -0.03771,0.313418 -0.09375,0.4375 -0.05204,0.124083 -0.09544,0.23645 -0.1875,0.3125 -0.09206,0.07605 -0.219671,0.124229 -0.34375,0.15625 -0.120083,0.03602 -0.238913,0.0625 -0.375,0.0625 -0.140097,0 -0.28217,-0.02647 -0.40625,-0.0625 C 10.188415,17.40548 10.092059,17.357298 10,17.28125 9.911939,17.2052 9.8332826,17.092833 9.78125,16.96875 9.729213,16.844668 9.718748,16.715373 9.71875,16.53125 9.718748,16.343126 9.729213,16.186584 9.78125,16.0625 9.833283,15.934416 9.9119391,15.826052 10,15.75 c 0.09206,-0.07605 0.188415,-0.124227 0.3125,-0.15625 0.12408,-0.03202 0.266153,-0.0625 0.40625,-0.0625 z" display="inline" opacity=".3"/><path id="path3745" fill="#000" fill-opacity="1" stroke="none" d="m 11,6 c -4.6414658,0 -8.5,3.0812617 -8.5,7.03125 0,2.378624 1.4391585,4.420555 3.5625,5.6875 -0.055497,0.259172 -0.1265437,0.539783 -0.34375,0.875 -0.2788914,0.430416 -0.6849086,0.840929 -1.46875,1.0625 a 0.50725645,0.50725645 0 0 0 0.0625,1 c 2.3593367,0.256414 4.0050637,-0.818857 4.9375,-1.71875 0.5691825,0.09946 1.145358,0.15625 1.75,0.15625 4.643857,0 8.5,-3.112512 8.5,-7.0625 C 19.5,9.0812617 15.641466,6 11,6 z M 10,9.09375 C 9.8807353,9.2008951 9.7639579,9.2966611 9.6875,9.4375 c -0.091897,0.1692947 -0.200108,0.3956972 -0.25,0.65625 -0.00764,0.04488 0.00492,0.08159 0,0.125 -0.040497,-0.0058 -0.084464,0.0069 -0.125,0 -0.1714128,-0.0291 -0.3352962,-0.08326 -0.4375,-0.125 -0.018964,-0.009 -0.015133,0.0083 -0.03125,0 C 8.7389886,10.039947 8.6836258,9.995245 8.6875,10 8.6687956,9.9759533 8.6562498,9.9855282 8.65625,9.9375 8.6562497,9.8255405 8.6927122,9.7197489 8.75,9.625 8.7914053,9.5549324 8.9039264,9.4394984 9.0625,9.34375 9.2011752,9.2615771 9.4118896,9.1923674 9.71875,9.125 a 0.50725645,0.50725645 0 0 0 0.03125,0 C 9.8208017,9.1085965 9.9236702,9.1071067 10,9.09375 z m 1.8125,0.0625 c 0.01797,0.00472 0.0449,-0.00497 0.0625,0 0.31916,0.086737 0.534117,0.1858756 0.75,0.34375 a 0.50725645,0.50725645 0 0 0 0.03125,0 c 0.200605,0.1437263 0.348189,0.3404286 0.46875,0.5625 0.122954,0.226509 0.187496,0.424192 0.1875,0.6875 -5e-6,0.274471 -0.05213,0.536554 -0.125,0.71875 -0.07109,0.184836 -0.207442,0.385084 -0.375,0.5625 -0.15522,0.164349 -0.370844,0.3295 -0.65625,0.5 -0.207858,0.123075 -0.489562,0.250756 -0.78125,0.375 0.23335,-0.21202 0.418796,-0.445 0.5625,-0.6875 0.152529,-0.254217 0.280928,-0.529658 0.34375,-0.84375 0.05664,-0.283199 0.06249,-0.548319 0.0625,-0.8125 -5e-6,-0.230356 -0.02358,-0.445657 -0.0625,-0.625 -0.0018,-0.00841 0.0019,-0.022775 0,-0.03125 -0.03925,-0.1726175 -0.135174,-0.3553368 -0.25,-0.53125 -0.0056,-0.00864 0.0059,-0.022663 0,-0.03125 -0.05612,-0.084789 -0.148206,-0.1214374 -0.21875,-0.1875 z m -0.90625,4.03125 a 0.50725645,0.50725645 0 0 0 -0.0625,0.15625 l -0.125,0.5 -0.0625,-0.5 c 0.08959,-0.04673 0.16782,-0.104596 0.25,-0.15625 z m -0.1875,2.84375 c 0.06036,1e-6 0.132985,0.0313 0.25,0.0625 0.08635,0.02228 0.160509,0.06602 0.15625,0.0625 -0.02999,-0.02477 -0.02132,-0.03565 0.03125,0.09375 a 0.50725645,0.50725645 0 0 0 0,0.03125 c 0.02531,0.05606 0.06249,0.129642 0.0625,0.25 -2e-6,0.114882 -0.02573,0.137344 -0.0625,0.21875 a 0.50725645,0.50725645 0 0 0 0,0.03125 c -0.05538,0.132047 -0.06797,0.124087 -0.03125,0.09375 0.0043,-0.0035 -0.06989,0.04021 -0.15625,0.0625 a 0.50725645,0.50725645 0 0 0 -0.03125,0 C 10.840094,16.966718 10.789042,17 10.71875,17 c -0.07621,0 -0.161604,-0.03683 -0.25,-0.0625 a 0.50725645,0.50725645 0 0 0 -0.03125,0 c -0.04648,-0.01199 -0.07301,-0.01711 -0.09375,-0.03125 -0.0039,-0.0034 -0.02364,-0.02193 -0.03125,-0.03125 -0.01957,-0.02398 -0.04539,-0.05294 -0.0625,-0.09375 -0.01282,-0.03056 -0.03125,-0.0851 -0.03125,-0.25 -2e-6,-0.169311 0.02867,-0.275103 0.03125,-0.28125 0.0162,-0.03987 0.04271,-0.07051 0.0625,-0.09375 0.0077,-0.009 0.02544,-0.02623 0.03125,-0.03125 0.02074,-0.01414 0.04726,-0.01925 0.09375,-0.03125 0.108783,-0.02807 0.214719,-0.0625 0.28125,-0.0625 z" display="inline" opacity=".15"/><path id="path3668" fill="#fff" fill-opacity="1" stroke="none" d="m -19,6 c -4.418278,0 -8,2.930505 -8,6.545465 0,2.302655 1.454487,4.325694 3.651515,5.492433 -0.08354,0.608184 -0.464003,2.096928 -2.265151,2.606064 2.332828,0.253533 3.882085,-0.883954 4.704545,-1.742427 0.611759,0.122546 1.251168,0.189395 1.909091,0.189395 4.418278,0 8,-2.930505 8,-6.545465 C -11,8.930505 -14.581722,6 -19,6 z" clip-path="url(#clipPath3676)" display="inline" filter="url(#filter3682)" opacity=".2" transform="translate(30,0)"/><path id="path3620" fill="url(#linearGradient3747)" fill-opacity="1" stroke="none" d="m 11,6 c -4.418278,0 -8,2.91629 -8,6.53125 0,2.302655 1.459222,4.333261 3.65625,5.5 -0.08355,0.608184 -0.480102,2.115864 -2.28125,2.625 2.332827,0.253533 3.89629,-0.891527 4.71875,-1.75 0.611759,0.122546 1.248327,0.1875 1.90625,0.1875 4.418278,0 8,-2.94754 8,-6.5625 C 19,8.91629 15.418278,6 11,6 z m -0.21875,2 c 0.432284,8.9e-6 0.850501,0.05219 1.21875,0.15625 0.368241,0.1000754 0.669316,0.2413777 0.9375,0.4375 0.268173,0.1921362 0.472893,0.4385711 0.625,0.71875 0.152095,0.2801942 0.249994,0.5812697 0.25,0.9375 -6e-6,0.328225 -0.05219,0.646082 -0.15625,0.90625 -0.100072,0.260179 -0.26462,0.502611 -0.46875,0.71875 -0.204142,0.216149 -0.473049,0.409632 -0.78125,0.59375 -0.304207,0.180125 -0.654232,0.331892 -1.0625,0.5 l -0.25,1.125 -0.75,0 -0.25,-1.5 c 0.352232,-0.140089 0.650847,-0.31187 0.875,-0.5 0.224146,-0.192123 0.403161,-0.408851 0.53125,-0.625 0.132084,-0.220141 0.233214,-0.447334 0.28125,-0.6875 0.04803,-0.240153 0.06249,-0.474581 0.0625,-0.71875 -4e-6,-0.1961236 -0.02648,-0.3711361 -0.0625,-0.53125 C 11.74522,9.3671481 11.705046,9.241085 11.625,9.125 11.54895,9.0049278 11.436579,8.9078007 11.3125,8.84375 11.192416,8.779716 11.043108,8.750008 10.875,8.75 c -0.184126,8.1e-6 -0.344671,0.040952 -0.46875,0.125 -0.124086,0.084064 -0.205201,0.1724144 -0.28125,0.3125 -0.07605,0.140101 -0.1514782,0.311882 -0.1875,0.5 -0.032023,0.1881325 -0.031252,0.385618 -0.03125,0.59375 -0.2521701,7e-6 -0.4753603,-0.02647 -0.6875,-0.0625 C 9.0066092,10.18274 8.812353,10.13055 8.65625,10.0625 8.5041478,9.990459 8.3693081,9.920579 8.28125,9.8125 8.1971935,9.7044351 8.1562495,9.5816034 8.15625,9.4375 8.1562495,9.2373743 8.2084301,9.0471226 8.3125,8.875 8.4165687,8.6988908 8.6003576,8.5343438 8.8125,8.40625 9.0286428,8.2781732 9.2967796,8.1970567 9.625,8.125 9.9532165,8.0489581 10.328946,8.0000089 10.78125,8 z m -0.0625,7.03125 c 0.136087,2e-6 0.254917,0.03048 0.375,0.0625 0.124079,0.03202 0.251685,0.0802 0.34375,0.15625 0.09206,0.07605 0.135462,0.184416 0.1875,0.3125 0.05603,0.124084 0.09374,0.280626 0.09375,0.46875 -4e-6,0.184123 -0.03771,0.313418 -0.09375,0.4375 -0.05204,0.124083 -0.09544,0.23645 -0.1875,0.3125 -0.09206,0.07605 -0.219671,0.124229 -0.34375,0.15625 C 10.973667,16.973524 10.854837,17 10.71875,17 10.578653,17 10.43658,16.97353 10.3125,16.9375 10.188415,16.90548 10.092059,16.857298 10,16.78125 9.911939,16.7052 9.8332826,16.592833 9.78125,16.46875 9.729213,16.344668 9.718748,16.215373 9.71875,16.03125 9.718748,15.843126 9.729213,15.686584 9.78125,15.5625 9.833283,15.434416 9.9119391,15.326052 10,15.25 c 0.09206,-0.07605 0.188415,-0.124227 0.3125,-0.15625 0.12408,-0.03202 0.266153,-0.0625 0.40625,-0.0625 z" display="inline"/><path id="path3725" fill="url(#linearGradient3727)" fill-opacity="1" stroke="none" d="m 11,-14 c -4.418278,0 -8,2.930505 -8,6.545465 0,2.302655 1.454487,4.325694 3.651515,5.492433 C 6.567965,-1.353918 6.187512,0.134826 4.386364,0.643962 6.719191,0.897495 8.268449,-0.239992 9.090909,-1.098465 9.702668,-0.975919 10.342077,-0.90907 11,-0.90907 c 4.418278,0 8,-2.930505 8,-6.545465 C 19,-11.069495 15.418278,-14 11,-14 z" display="inline"/><text font-stretch="normal" style="text-align:start;line-height:100%;-inkscape-font-specification:Droid Serif Bold" id="text3719" x="-12.288" y="16.904" fill="#000" fill-opacity="1" stroke="none" font-family="Droid Serif" font-size="12.296" font-style="normal" font-variant="normal" font-weight="bold" text-anchor="start" writing-mode="lr-tb" xml:space="preserve"><tspan id="tspan3721" x="-12.288" y="16.904">?</tspan></text><path id="path3731" fill="#fff" fill-opacity="1" stroke="none" d="M 11,6 C 6.581722,6 3,8.91629 3,12.53125 3,12.64866 3.023758,12.759083 3.03125,12.875 3.4409299,9.5759716 6.8578644,7 11,7 15.142136,7 18.55907,9.5759716 18.96875,12.875 18.976362,12.757927 19,12.64984 19,12.53125 19,8.91629 15.418278,6 11,6 z m -0.21875,3 c -0.203593,4e-6 -0.387286,0.013407 -0.5625,0.03125 -0.03486,0.042823 -0.06304,0.099677 -0.09375,0.15625 -0.07605,0.140101 -0.1514782,0.311882 -0.1875,0.5 -0.032023,0.1881325 -0.031252,0.385618 -0.03125,0.59375 -0.2521701,7e-6 -0.4753603,-0.02647 -0.6875,-0.0625 C 9.0066092,10.18274 8.812353,10.13055 8.65625,10.0625 8.5301165,10.002759 8.4293071,9.9235355 8.34375,9.84375 8.3361554,9.8553295 8.3194072,9.8633113 8.3125,9.875 c -0.10407,0.172123 -0.1562505,0.362374 -0.15625,0.5625 -5e-7,0.144103 0.040943,0.266935 0.125,0.375 0.088058,0.108079 0.2228978,0.17796 0.375,0.25 0.156103,0.06805 0.3503592,0.12024 0.5625,0.15625 0.2121397,0.03603 0.4353299,0.06251 0.6875,0.0625 -2e-6,-0.208132 -7.73e-4,-0.405617 0.03125,-0.59375 0.036022,-0.188118 0.11145,-0.359899 0.1875,-0.5 0.07605,-0.140086 0.157164,-0.228436 0.28125,-0.3125 0.124079,-0.084048 0.284624,-0.1249919 0.46875,-0.125 0.168108,8e-6 0.317416,0.029716 0.4375,0.09375 0.124079,0.064051 0.23645,0.161178 0.3125,0.28125 0.08005,0.116085 0.12022,0.242148 0.15625,0.40625 0.0063,0.02787 -0.0056,0.06494 0,0.09375 0.027,-0.186965 0.06249,-0.371013 0.0625,-0.5625 -4e-6,-0.1961236 -0.02648,-0.3711361 -0.0625,-0.53125 C 11.74522,9.3671481 11.705046,9.241085 11.625,9.125 11.612016,9.1044999 11.608729,9.081612 11.59375,9.0625 11.33224,9.0176057 11.065044,9.0000058 10.78125,9 z M 13.75,10.8125 c -0.02482,0.116704 -0.05301,0.241892 -0.09375,0.34375 -0.100072,0.260179 -0.26462,0.502611 -0.46875,0.71875 -0.204142,0.216149 -0.473049,0.409632 -0.78125,0.59375 -0.304207,0.180125 -0.654232,0.331892 -1.0625,0.5 l -0.25,1.125 -0.75,0 -0.09375,-0.5625 c -0.05166,0.02304 -0.101972,0.04091 -0.15625,0.0625 l 0.25,1.5 c 0.117153,-0.02925 0.245431,-0.0625 0.375,-0.0625 0.136087,2e-6 0.254917,0.03048 0.375,0.0625 l 0.25,-1.125 c 0.408268,-0.168108 0.758293,-0.319875 1.0625,-0.5 0.308201,-0.184118 0.577108,-0.377601 0.78125,-0.59375 0.20413,-0.216139 0.368678,-0.458571 0.46875,-0.71875 0.10406,-0.260168 0.156244,-0.578025 0.15625,-0.90625 -3e-6,-0.156193 -0.02854,-0.299624 -0.0625,-0.4375 z M 9.8125,16.5 c -0.011075,0.02184 -0.021821,0.03929 -0.03125,0.0625 -0.052037,0.124084 -0.062502,0.280626 -0.0625,0.46875 -2e-6,0.184123 0.010463,0.313418 0.0625,0.4375 0.052033,0.124083 0.130689,0.23645 0.21875,0.3125 0.09206,0.07605 0.188415,0.12423 0.3125,0.15625 0.12408,0.03603 0.266153,0.0625 0.40625,0.0625 0.136087,0 0.254917,-0.02648 0.375,-0.0625 0.124079,-0.03202 0.25169,-0.0802 0.34375,-0.15625 0.09206,-0.07605 0.13546,-0.188417 0.1875,-0.3125 0.05604,-0.124082 0.09375,-0.253377 0.09375,-0.4375 -10e-6,-0.188124 -0.03772,-0.344666 -0.09375,-0.46875 -0.0087,-0.02135 -0.02279,-0.04231 -0.03125,-0.0625 -0.0458,0.109344 -0.0734,0.212805 -0.15625,0.28125 -0.09206,0.07605 -0.219671,0.124229 -0.34375,0.15625 C 10.973667,16.973524 10.854837,17 10.71875,17 10.578653,17 10.43658,16.97353 10.3125,16.9375 10.188415,16.90548 10.092059,16.857298 10,16.78125 9.9219862,16.713877 9.8637795,16.607274 9.8125,16.5 z M 6.40625,18.875 C 6.1293774,19.538045 5.5713246,20.318081 4.375,20.65625 4.9582068,20.71963 5.4812706,20.71011 5.96875,20.625 6.4471791,20.034821 6.6075125,19.386024 6.65625,19.03125 6.5674,18.98407 6.4926393,18.924971 6.40625,18.875 z" display="inline"/></g><g id="layer2" display="none"><rect id="rect2410" width="16" height="16" x="3" y="3" fill="#fff" fill-opacity="1" fill-rule="nonzero" stroke="none" clip-path="url(#clipPath2849)" display="inline" filter="url(#filter3194)" opacity=".15" rx="2" ry="2"/></g></svg>