<svg xmlns="http://www.w3.org/2000/svg" xmlns:svg="http://www.w3.org/2000/svg" xmlns:xlink="http://www.w3.org/1999/xlink" id="svg2" width="22" height="22" display="inline" version="1.0"><defs id="defs4"><linearGradient id="linearGradient3327"><stop id="stop3330" offset="0" stop-color="#000" stop-opacity="1"/><stop id="stop3333" offset="1" stop-color="#000" stop-opacity="0"/></linearGradient><linearGradient id="linearGradient3335" x1="11.375" x2="11.375" y1="22" y2="-9.817" gradientUnits="userSpaceOnUse" xlink:href="#linearGradient3327"/><linearGradient id="linearGradient3181" x1="-3.061" x2="-3.061" y1="27.258" y2="7.254" gradientTransform="translate(11.119372,-6.2581977)" gradientUnits="userSpaceOnUse" xlink:href="#linearGradient2881"/><linearGradient id="ButtonShadow" x1="9.355" x2="9.355" y1="21.743" y2=".494" gradientTransform="scale(0.9883037,1.0118347)" gradientUnits="userSpaceOnUse"><stop id="stop3277" offset="0" stop-color="#000" stop-opacity=".706"/><stop id="stop3279" offset="1" stop-color="#000" stop-opacity=".157"/></linearGradient><linearGradient id="linearGradient3232"><stop id="stop3234" offset="0" stop-color="#000" stop-opacity="1"/><stop id="stop3236" offset="1" stop-color="#000" stop-opacity="0"/></linearGradient><linearGradient id="linearGradient3221" x1="11" x2="11" y1="14.806" y2="-6" gradientUnits="userSpaceOnUse" xlink:href="#linearGradient3232"/><linearGradient id="ButtonColor" x1="10.32" x2="10.32" y1="21" y2=".999" gradientUnits="userSpaceOnUse"><stop id="stop3189" offset="0" stop-color="#29669f" stop-opacity="1"/><stop id="stop3191" offset="1" stop-color="#88b6e0" stop-opacity="1"/></linearGradient><linearGradient id="linearGradient38042" x1="9.355" x2="9.355" y1="21.743" y2=".494" gradientTransform="scale(0.9883037,1.0118347)" gradientUnits="userSpaceOnUse" xlink:href="#ButtonShadow"/><filter id="filter3194" width="1.36" height="1.36" x="-.18" y="-.18" color-interpolation-filters="sRGB"><feGaussianBlur id="feGaussianBlur3196" stdDeviation="1.2"/></filter><clipPath id="clipPath2849" clipPathUnits="userSpaceOnUse"><rect id="rect2851" width="20" height="20" x="1" y="1" fill="#fff" fill-opacity="1" fill-rule="evenodd" stroke="none" display="inline" rx="2" ry="2"/></clipPath><linearGradient id="linearGradient3617" x1="48" x2="48" y1="90" y2="5.988" gradientUnits="userSpaceOnUse" xlink:href="#linearGradient3614"/><linearGradient id="linearGradient3614"><stop id="stop3616" offset="0" stop-color="#064096" stop-opacity="1"/><stop id="stop3618" offset="1" stop-color="#4484e5" stop-opacity="1"/></linearGradient><linearGradient id="linearGradient3835" x1="48" x2="48" y1="90" y2="5.988" gradientTransform="translate(-79,-26)" gradientUnits="userSpaceOnUse" xlink:href="#linearGradient3614"/><linearGradient id="linearGradient3777" x1="15" x2="106.506" y1="47.277" y2="47.025" gradientUnits="userSpaceOnUse" xlink:href="#linearGradient3771"/><linearGradient id="linearGradient3771"><stop id="stop3773" offset="0" stop-color="#154a99" stop-opacity="1"/><stop id="stop3775" offset="1" stop-color="#154a99" stop-opacity="0"/></linearGradient><linearGradient id="linearGradient3856" x1="45.79" x2="45.79" y1="78.067" y2="17.246" gradientTransform="matrix(0.24242424,0,0,0.24242462,-0.636364,-0.121218)" gradientUnits="userSpaceOnUse" xlink:href="#linearGradient3731"/><linearGradient id="linearGradient3661" x1="-3.061" x2="-3.061" y1="27.258" y2="7.254" gradientTransform="translate(-18.880628,-4.2581977)" gradientUnits="userSpaceOnUse" xlink:href="#linearGradient3614"/><linearGradient id="linearGradient3665" x1="15" x2="106.506" y1="47.277" y2="47.025" gradientTransform="matrix(0.24242424,0,0,0.24242462,-30.636364,1.878782)" gradientUnits="userSpaceOnUse" xlink:href="#linearGradient3771"/><clipPath id="clipPath3676" clipPathUnits="userSpaceOnUse"><path id="path3678" fill="url(#linearGradient3680)" fill-opacity="1" fill-rule="evenodd" stroke="none" d="m -27,3 c -1.108,0 -2,0.892 -2,2 l 0,16 c 0,1.108 0.892,2 2,2 l 16,0 c 1.108,0 2,-0.892 2,-2 L -9,5 C -9,3.892 -9.892,3 -11,3 l -16,0 z m 8,3 c 4.418278,0 8,2.91629 8,6.53125 0,3.61496 -3.581722,6.5625 -8,6.5625 -0.657923,0 -1.294491,-0.06495 -1.90625,-0.1875 -0.82246,0.858473 -2.385922,2.003533 -4.71875,1.75 1.801148,-0.509136 2.19771,-2.016816 2.28125,-2.625 C -25.540778,16.864511 -27,14.833905 -27,12.53125 -27,8.91629 -23.418278,6 -19,6 z" display="inline"/></clipPath><linearGradient id="linearGradient3680" x1="-3.061" x2="-3.061" y1="27.258" y2="7.254" gradientTransform="translate(-18.880628,-4.2581977)" gradientUnits="userSpaceOnUse" xlink:href="#linearGradient3614"/><filter id="filter3682" width="1.46" height="1.502" x="-.23" y="-.251" color-interpolation-filters="sRGB"><feGaussianBlur id="feGaussianBlur3684" stdDeviation="1.534"/></filter><linearGradient id="linearGradient3703" x1="46.125" x2="46.125" y1="63.048" y2="24.84" gradientUnits="userSpaceOnUse" xlink:href="#linearGradient3697"/><linearGradient id="linearGradient3697"><stop id="stop3699" offset="0" stop-color="#dcdcdc" stop-opacity="1"/><stop id="stop3701" offset="1" stop-color="#f0f0f0" stop-opacity="1"/></linearGradient><linearGradient id="linearGradient3761" x1="46.125" x2="46.125" y1="63.048" y2="24.84" gradientUnits="userSpaceOnUse" xlink:href="#linearGradient3697"/><linearGradient id="linearGradient3875"><stop id="stop3877" offset="0" stop-color="#dcdcdc" stop-opacity="1"/><stop id="stop3879" offset="1" stop-color="#f0f0f0" stop-opacity="1"/></linearGradient><linearGradient id="linearGradient3883" x1="46.125" x2="46.125" y1="63.048" y2="24.84" gradientUnits="userSpaceOnUse" xlink:href="#linearGradient3697"/><linearGradient id="linearGradient3617-7" x1="48" x2="48" y1="90" y2="5.988" gradientUnits="userSpaceOnUse" xlink:href="#linearGradient3614-7"/><linearGradient id="linearGradient3614-7"><stop id="stop3616-6" offset="0" stop-color="#418f0d" stop-opacity="1"/><stop id="stop3618-7" offset="1" stop-color="#8bdb14" stop-opacity="1"/></linearGradient><linearGradient id="linearGradient4222" x1="48" x2="48" y1="90" y2="5.988" gradientTransform="translate(-78.265018,-32.360424)" gradientUnits="userSpaceOnUse" xlink:href="#linearGradient3614-7"/><linearGradient id="linearGradient4190" x1="71.672" x2="71.672" y1="62.025" y2="26.414" gradientTransform="translate(-25,-0.34739)" gradientUnits="userSpaceOnUse" xlink:href="#linearGradient3697-0"/><linearGradient id="linearGradient3697-0"><stop id="stop3699-5" offset="0" stop-color="#dcdcdc" stop-opacity="1"/><stop id="stop3701-6" offset="1" stop-color="#f0f0f0" stop-opacity="1"/></linearGradient><linearGradient id="linearGradient4241" x1="71.672" x2="71.672" y1="62.025" y2="26.414" gradientTransform="translate(-61.612113,-28.872125)" gradientUnits="userSpaceOnUse" xlink:href="#linearGradient3697-0"/><linearGradient id="linearGradient3700" x1="71.672" x2="71.672" y1="62.025" y2="26.414" gradientTransform="matrix(0.24908185,-0.02140634,0.02140634,0.24908185,-8.2754266,1.0033486)" gradientUnits="userSpaceOnUse" xlink:href="#linearGradient3697-0"/><linearGradient id="linearGradient3664" x1="48.082" x2="46.655" y1="75.562" y2="16.973" gradientTransform="translate(-94.526458,-39.885159)" gradientUnits="userSpaceOnUse" xlink:href="#linearGradient3731"/><linearGradient id="linearGradient3731"><stop id="stop3733" offset="0" stop-color="#dcdcdc" stop-opacity="1"/><stop id="stop3757" offset=".307" stop-color="#ebebeb" stop-opacity="1"/><stop id="stop3737" offset=".707" stop-color="#fff" stop-opacity="1"/><stop id="stop3759" offset=".845" stop-color="#fafafa" stop-opacity="1"/><stop id="stop3735" offset="1" stop-color="#f0f0f0" stop-opacity="1"/></linearGradient><linearGradient id="linearGradient3617-8" x1="48" x2="48" y1="90" y2="5.988" gradientUnits="userSpaceOnUse" xlink:href="#linearGradient3614-8"/><linearGradient id="linearGradient3614-8"><stop id="stop3616-4" offset="0" stop-color="#65a31b" stop-opacity="1"/><stop id="stop3618-3" offset="1" stop-color="#a0de42" stop-opacity="1"/></linearGradient><linearGradient id="linearGradient2936" x1="48" x2="48" y1="90" y2="5.988" gradientTransform="translate(-94.526458,-40.885159)" gradientUnits="userSpaceOnUse" xlink:href="#linearGradient3614-8"/><linearGradient id="linearGradient3712" x1="45.79" x2="45.79" y1="78.067" y2="17.246" gradientTransform="matrix(0.24242424,0,0,0.24242462,-0.636364,2.878782)" gradientUnits="userSpaceOnUse" xlink:href="#linearGradient3731"/><linearGradient id="linearGradient3714" x1="45.79" x2="45.79" y1="78.067" y2="17.246" gradientTransform="matrix(0.24242424,0,0,0.24242462,-0.636364,-0.121218)" gradientUnits="userSpaceOnUse" xlink:href="#linearGradient3731"/><linearGradient id="linearGradient3727" x1="45.79" x2="45.79" y1="78.067" y2="17.246" gradientTransform="matrix(0.24242424,0,0,0.24242462,-0.636364,-18.121218)" gradientUnits="userSpaceOnUse" xlink:href="#linearGradient3731"/><linearGradient id="linearGradient3735" x1="71.672" x2="71.672" y1="62.025" y2="26.414" gradientTransform="matrix(0.24908185,-0.02140634,0.02140634,0.24908185,-8.2754266,3.5131813)" gradientUnits="userSpaceOnUse" xlink:href="#linearGradient3697-0"/><linearGradient id="linearGradient3743" x1="45.79" x2="45.79" y1="78.067" y2="17.246" gradientTransform="matrix(0.24242424,0,0,0.24242462,-0.636364,2.878782)" gradientUnits="userSpaceOnUse" xlink:href="#linearGradient3731"/><linearGradient id="linearGradient3745" x1="45.79" x2="45.79" y1="78.067" y2="17.246" gradientTransform="matrix(0.24242424,0,0,0.24242462,-0.636364,1.878782)" gradientUnits="userSpaceOnUse" xlink:href="#linearGradient3731"/><linearGradient id="linearGradient3617-9" x1="48" x2="48" y1="90" y2="5.988" gradientUnits="userSpaceOnUse" xlink:href="#linearGradient2881"/><linearGradient id="linearGradient2881"><stop id="stop2883" offset="0" stop-color="#a90c0c" stop-opacity="1"/><stop id="stop2885" offset="1" stop-color="#f05530" stop-opacity="1"/></linearGradient><linearGradient id="linearGradient4852" x1="48" x2="48" y1="90" y2="5.988" gradientTransform="translate(-84.788427,-46.981006)" gradientUnits="userSpaceOnUse" xlink:href="#linearGradient2881"/><linearGradient id="linearGradient3717" x1="45.79" x2="45.79" y1="78.067" y2="17.246" gradientTransform="matrix(0.24242424,0,0,0.24242462,-0.636364,1.878782)" gradientUnits="userSpaceOnUse" xlink:href="#linearGradient3731"/><linearGradient id="linearGradient3730" x1="45.79" x2="45.79" y1="78.067" y2="17.246" gradientTransform="matrix(0.24242424,0,0,0.24242462,-0.636364,1.878782)" gradientUnits="userSpaceOnUse" xlink:href="#linearGradient3731"/><linearGradient id="linearGradient3755" x1="45.79" x2="45.79" y1="78.067" y2="17.246" gradientTransform="matrix(0.24242424,0,0,0.24242462,-0.636364,2.878782)" gradientUnits="userSpaceOnUse" xlink:href="#linearGradient3731"/><linearGradient id="linearGradient3757" x1="45.79" x2="45.79" y1="78.067" y2="17.246" gradientTransform="matrix(0.24242424,0,0,0.24242462,-0.636364,-0.121218)" gradientUnits="userSpaceOnUse" xlink:href="#linearGradient3731"/><linearGradient id="linearGradient3845" x1="11" x2="21" y1="19.5" y2="19.5" gradientUnits="userSpaceOnUse" spreadMethod="reflect" xlink:href="#linearGradient3831"/><linearGradient id="linearGradient3831"><stop id="stop3833" offset="0" stop-color="#fff" stop-opacity="1"/><stop id="stop3821" offset=".75" stop-color="#fff" stop-opacity=".498"/><stop id="stop3835" offset="1" stop-color="#fff" stop-opacity="0"/></linearGradient><linearGradient id="linearGradient3084" x1="10" x2="10" y1="1" y2="16" gradientUnits="userSpaceOnUse" xlink:href="#linearGradient3823"/><linearGradient id="linearGradient3823"><stop id="stop3825" offset="0" stop-color="#fff" stop-opacity="1"/><stop id="stop3829" offset="1" stop-color="#fff" stop-opacity="0"/></linearGradient><linearGradient id="linearGradient3124" x1="10" x2="10" y1="1" y2="16" gradientUnits="userSpaceOnUse" xlink:href="#linearGradient3823"/></defs><metadata id="metadata7"/><g id="layer1"><g id="g3337" display="inline"><rect id="rect3371" width="21" height="21.5" x=".5" y=".5" fill="url(#linearGradient3335)" fill-opacity="1" stroke="none" display="inline" opacity=".3" rx="2.5" ry="2.5"/><rect id="rect2553" width="20" height="20" x="1" y="2" fill="#000" fill-opacity="1" stroke="none" display="inline" opacity=".5" rx="2.381" ry="2.326"/></g><rect id="rect3173" width="20" height="20" x="1" y="1" fill="url(#linearGradient3181)" fill-opacity="1" fill-rule="evenodd" stroke="none" display="inline" rx="2" ry="2"/><path id="rect3050" fill="url(#linearGradient3124)" fill-opacity="1" fill-rule="evenodd" stroke="none" d="M 3,1 C 1.892,1 1,1.892 1,3 l 0,16 c 0,1.108 0.892,2 2,2 l 16,0 c 1.108,0 2,-0.892 2,-2 L 21,3 C 21,1.892 20.108,1 19,1 L 3,1 z m 0,1.03125 16,0 c 0.5497,0 0.96875,0.4190495 0.96875,0.96875 l 0,16 c 0,0.5497 -0.41905,0.96875 -0.96875,0.96875 l -16,0 C 2.4502995,19.96875 2.03125,19.5497 2.03125,19 l 0,-16 C 2.03125,2.4502995 2.4502995,2.03125 3,2.03125 z" display="inline" opacity=".3"/><path id="path3235" fill="url(#linearGradient3845)" fill-opacity="1" fill-rule="evenodd" stroke="none" d="M 3,21 C 1.892,21 1,20.108 1,19 l 0,-1 c 0,1.108 0.892,2 2,2 l 16,0 c 1.108,0 2,-0.892 2,-2 l 0,1 c 0,1.108 -0.892,2 -2,2 L 3,21 z" display="inline" opacity=".15"/></g><g id="layer4" display="inline" transform="translate(0,-2)"><path id="path3698" fill="#000" fill-opacity="1" stroke="none" d="m 11,5.46875 c -4.8753126,0 -9.03125,3.2685255 -9.03125,7.5625 0,2.443331 1.4253191,4.518175 3.46875,5.875 -0.033118,0.124 -0.034823,0.267079 -0.125,0.40625 -0.2321251,0.358242 -0.5616964,0.689269 -1.21875,0.875 3.922e-4,-1.32e-4 -0.062886,1.48e-4 -0.0625,0 3.864e-4,-1.48e-4 -0.03163,0.03141 -0.03125,0.03125 3.801e-4,-1.63e-4 -0.031623,1.79e-4 -0.03125,0 3.731e-4,-1.79e-4 -0.031615,0.03144 -0.03125,0.03125 3.654e-4,-1.94e-4 -0.062857,0.03146 -0.0625,0.03125 3.572e-4,-2.09e-4 -0.031598,2.23e-4 -0.03125,0 3.483e-4,-2.23e-4 -0.031589,0.03149 -0.03125,0.03125 3.389e-4,-2.37e-4 -0.031579,0.0315 -0.03125,0.03125 3.289e-4,-2.51e-4 -0.031568,0.03151 -0.03125,0.03125 3.183e-4,-2.64e-4 -0.031557,0.03153 -0.03125,0.03125 3.072e-4,-2.77e-4 -0.031546,0.03154 -0.03125,0.03125 2.956e-4,-2.89e-4 -0.031534,0.03155 -0.03125,0.03125 2.835e-4,-3.01e-4 -0.031521,0.03156 -0.03125,0.03125 2.709e-4,-3.13e-4 -0.031508,0.03157 -0.03125,0.03125 2.579e-4,-3.24e-4 -0.031494,0.03158 -0.03125,0.03125 2.444e-4,-3.34e-4 -2.305e-4,0.03159 0,0.03125 2.305e-4,-3.44e-4 -0.031466,0.0316 -0.03125,0.03125 2.163e-4,-3.53e-4 -0.031452,0.03161 -0.03125,0.03125 2.017e-4,-3.61e-4 -1.867e-4,0.03162 0,0.03125 1.867e-4,-3.69e-4 -0.031421,0.06288 -0.03125,0.0625 1.714e-4,-3.77e-4 -0.031406,0.03163 -0.03125,0.03125 1.558e-4,-3.83e-4 -1.4e-4,0.03164 0,0.03125 1.4e-4,-3.89e-4 -1.24e-4,0.03165 0,0.03125 1.24e-4,-3.95e-4 -0.031358,0.0629 -0.03125,0.0625 1.077e-4,-3.99e-4 -9.12e-5,0.03165 0,0.03125 9.12e-5,-4.04e-4 -7.46e-5,0.03166 0,0.03125 7.46e-5,-4.07e-4 -0.031308,0.06291 -0.03125,0.0625 5.79e-5,-4.1e-4 -4.11e-5,0.03166 0,0.03125 4.11e-5,-4.12e-4 -2.42e-5,0.03166 0,0.03125 2.42e-5,-4.13e-4 -7.2e-6,0.06291 0,0.0625 7.2e-6,-4.14e-4 9.7e-6,0.03166 0,0.03125 -9.7e-6,-4.14e-4 2.66e-5,0.03166 0,0.03125 -2.66e-5,-4.13e-4 4.35e-5,0.06291 0,0.0625 -4.35e-5,-4.11e-4 6.03e-5,0.03166 0,0.03125 -6.03e-5,-4.09e-4 0.031327,0.03166 0.03125,0.03125 -7.71e-5,-4.06e-4 9.36e-5,0.0629 0,0.0625 -9.36e-5,-4.03e-4 1.101e-4,0.03165 0,0.03125 -1.101e-4,-3.99e-4 0.031376,0.03164 0.03125,0.03125 -1.263e-4,-3.94e-4 1.423e-4,0.06289 0,0.0625 -1.423e-4,-3.88e-4 0.031408,0.03163 0.03125,0.03125 -1.581e-4,-3.82e-4 1.737e-4,0.03163 0,0.03125 -1.737e-4,-3.76e-4 0.031439,0.03162 0.03125,0.03125 -1.889e-4,-3.68e-4 2.038e-4,0.06286 0,0.0625 -2.038e-4,-3.6e-4 0.031468,0.0316 0.03125,0.03125 -2.184e-4,-3.51e-4 0.031483,0.03159 0.03125,0.03125 -2.326e-4,-3.42e-4 0.031496,0.03158 0.03125,0.03125 -2.464e-4,-3.32e-4 2.598e-4,0.03157 0,0.03125 -2.598e-4,-3.22e-4 0.031523,0.03156 0.03125,0.03125 -2.728e-4,-3.11e-4 0.031535,0.03155 0.03125,0.03125 -2.853e-4,-3e-4 0.031547,0.03154 0.03125,0.03125 -2.973e-4,-2.88e-4 0.031559,0.03152 0.03125,0.03125 -3.089e-4,-2.75e-4 0.03157,0.03151 0.03125,0.03125 -3.199e-4,-2.62e-4 0.03158,0.0315 0.03125,0.03125 -3.304e-4,-2.49e-4 0.03159,2.35e-4 0.03125,0 -3.403e-4,-2.35e-4 0.0316,0.03147 0.03125,0.03125 -3.496e-4,-2.21e-4 0.062858,0.03146 0.0625,0.03125 -3.584e-4,-2.07e-4 0.031617,0.03144 0.03125,0.03125 -3.666e-4,-1.92e-4 0.031624,1.77e-4 0.03125,0 -3.741e-4,-1.77e-4 0.031631,0.03141 0.03125,0.03125 -3.81e-4,-1.61e-4 0.031637,1.45e-4 0.03125,0 -3.873e-4,-1.45e-4 0.062893,0.03138 0.0625,0.03125 -3.929e-4,-1.29e-4 0.031648,1.13e-4 0.03125,0 -3.979e-4,-1.13e-4 0.031652,9.7e-5 0.03125,0 -4.022e-4,-9.7e-5 0.062906,0.03133 0.0625,0.03125 a 0.53259465,0.53259465 0 0 0 0.03125,0 C 6.6350666,22.446711 8.3691656,21.427183 9.40625,20.5 9.9238636,20.57929 10.449025,20.625 11,20.625 c 4.87995,0 9.03125,-3.299989 9.03125,-7.59375 0,-4.2939745 -4.155938,-7.5625 -9.03125,-7.5625 z M 11.21875,9.5 c 0.132806,-0.011409 0.04149,-0.041622 0.09375,0 -0.09833,0.1085613 0.06131,0.023299 -0.03125,0.03125 -0.03178,0.00273 -0.05881,-0.028586 -0.0625,-0.03125 z" display="inline" opacity=".08"/><path id="path3729" fill="#000" fill-opacity="1" stroke="none" d="m 11,-13.5 c -4.418278,0 -8,2.930505 -8,6.545465 0,2.302655 1.454487,4.325694 3.651515,5.492433 C 6.567965,-0.853918 6.187512,0.634826 4.386364,1.143962 6.719191,1.397495 8.268449,0.260008 9.090909,-0.598465 9.702668,-0.475919 10.342077,-0.40907 11,-0.40907 c 4.418278,0 8,-2.930505 8,-6.545465 C 19,-10.569495 15.418278,-13.5 11,-13.5 z" display="inline" opacity=".3"/><path id="path3668" fill="#fff" fill-opacity="1" stroke="none" d="m -19,6 c -4.418278,0 -8,2.930505 -8,6.545465 0,2.302655 1.454487,4.325694 3.651515,5.492433 -0.08354,0.608184 -0.464003,2.096928 -2.265151,2.606064 2.332828,0.253533 3.882085,-0.883954 4.704545,-1.742427 0.611759,0.122546 1.251168,0.189395 1.909091,0.189395 4.418278,0 8,-2.930505 8,-6.545465 C -11,8.930505 -14.581722,6 -19,6 z" clip-path="url(#clipPath3676)" display="inline" filter="url(#filter3682)" opacity=".2" transform="translate(30,0)"/><path id="path3728" fill="#000" fill-opacity="1" stroke="none" d="m 11,5.96875 c -4.6480302,0 -8.53125,3.1026581 -8.53125,7.0625 0,2.376171 1.4478791,4.448244 3.5625,5.71875 -0.05713,0.255047 -0.103948,0.52189 -0.3125,0.84375 -0.2772492,0.427882 -0.7195919,0.8419 -1.5,1.0625 A 0.52217579,0.52217579 0 0 0 4.3125,21.6875 c 2.3836099,0.259052 4.0386142,-0.843833 4.96875,-1.75 0.5607268,0.09624 1.123834,0.1875 1.71875,0.1875 4.650492,0 8.53125,-3.133908 8.53125,-7.09375 0,-3.9598419 -3.88322,-7.0625 -8.53125,-7.0625 z M 9,9.75 l 1.625,1.625 a 0.52217579,0.52217579 0 0 0 0.75,0 L 13,9.75 14.25,11 12.625,12.625 a 0.52217579,0.52217579 0 0 0 0,0.75 L 14.25,15 13,16.25 11.375,14.625 a 0.52217579,0.52217579 0 0 0 -0.75,0 L 9,16.25 7.75,15 9.375,13.375 a 0.52217579,0.52217579 0 0 0 0,-0.75 L 7.75,11 9,9.75 z" display="inline" opacity=".15"/><path id="path3721" fill="#000" fill-opacity="1" stroke="none" d="m 11,6.5 c -4.418278,0 -8,2.91629 -8,6.53125 0,2.302655 1.459222,4.333261 3.65625,5.5 -0.08355,0.608184 -0.480102,2.115864 -2.28125,2.625 2.332827,0.253533 3.89629,-0.891527 4.71875,-1.75 0.611759,0.122546 1.248327,0.1875 1.90625,0.1875 4.418278,0 8,-2.94754 8,-6.5625 C 19,9.41629 15.418278,6.5 11,6.5 z M 9,9 l 2,2 2,-2 2,2 -2,2 2,2 -2,2 L 11,15 9,17 7,15 9,13 7,11 9,9 z" display="inline" opacity=".3"/><path id="path3620" fill="url(#linearGradient3730)" fill-opacity="1" stroke="none" d="m 11,6 c -4.418278,0 -8,2.91629 -8,6.53125 0,2.302655 1.459222,4.333261 3.65625,5.5 -0.08355,0.608184 -0.480102,2.115864 -2.28125,2.625 2.332827,0.253533 3.89629,-0.891527 4.71875,-1.75 0.611759,0.122546 1.248327,0.1875 1.90625,0.1875 4.418278,0 8,-2.94754 8,-6.5625 C 19,8.91629 15.418278,6 11,6 z m -2,2.5 2,2 2,-2 2,2 -2,2 2,2 -2,2 -2,-2 -2,2 -2,-2 2,-2 -2,-2 2,-2 z" display="inline"/><path id="path3725" fill="url(#linearGradient3727)" fill-opacity="1" stroke="none" d="m 11,-14 c -4.418278,0 -8,2.930505 -8,6.545465 0,2.302655 1.454487,4.325694 3.651515,5.492433 C 6.567965,-1.353918 6.187512,0.134826 4.386364,0.643962 6.719191,0.897495 8.268449,-0.239992 9.090909,-1.098465 9.702668,-0.975919 10.342077,-0.90907 11,-0.90907 c 4.418278,0 8,-2.930505 8,-6.545465 C 19,-11.069495 15.418278,-14 11,-14 z" display="inline"/><path id="path3751" fill="#fff" fill-opacity="1" stroke="none" d="M 11 4 C 6.581722 4 3 6.91629 3 10.53125 C 3 10.64866 3.023758 10.759083 3.03125 10.875 C 3.4409299 7.5759716 6.8578644 5 11 5 C 15.142136 5 18.55907 7.5759716 18.96875 10.875 C 18.976362 10.757927 19 10.64984 19 10.53125 C 19 6.91629 15.418278 4 11 4 z M 7.5 9 L 7 9.5 L 8.5 11 L 9 10.5 L 7.5 9 z M 14.5 9 L 13 10.5 L 13.5 11 L 15 9.5 L 14.5 9 z M 11 12.5 L 9 14.5 L 7.5 13 L 7 13.5 L 9 15.5 L 11 13.5 L 13 15.5 L 15 13.5 L 14.5 13 L 13 14.5 L 11 12.5 z M 6.40625 16.875 C 6.1293774 17.538045 5.5713246 18.318081 4.375 18.65625 C 4.9582068 18.719633 5.4812706 18.71011 5.96875 18.625 C 6.4471791 18.034821 6.6075125 17.386024 6.65625 17.03125 C 6.5673996 16.984066 6.4926393 16.924971 6.40625 16.875 z" display="inline" transform="translate(0,2)"/></g><g id="layer2" display="none"><rect id="rect2410" width="16" height="16" x="3" y="3" fill="#fff" fill-opacity="1" fill-rule="nonzero" stroke="none" clip-path="url(#clipPath2849)" display="inline" filter="url(#filter3194)" opacity=".15" rx="2" ry="2"/></g></svg>