<svg xmlns="http://www.w3.org/2000/svg" xmlns:svg="http://www.w3.org/2000/svg" xmlns:xlink="http://www.w3.org/1999/xlink" id="svg2" width="24" height="24" display="inline" version="1.0"><defs id="defs4"><linearGradient id="linearGradient3327"><stop id="stop3330" offset="0" stop-color="#000" stop-opacity="1"/><stop id="stop3333" offset="1" stop-color="#000" stop-opacity="0"/></linearGradient><linearGradient id="linearGradient3335" x1="11.375" x2="11.375" y1="22" y2="-9.817" gradientUnits="userSpaceOnUse" xlink:href="#linearGradient3327"/><linearGradient id="linearGradient3181" x1="-3.061" x2="-3.061" y1="27.258" y2="7.254" gradientTransform="translate(12.119372,-7.2581977)" gradientUnits="userSpaceOnUse" xlink:href="#ButtonColor"/><linearGradient id="ButtonShadow" x1="9.355" x2="9.355" y1="21.743" y2=".494" gradientTransform="scale(0.9883037,1.0118347)" gradientUnits="userSpaceOnUse"><stop id="stop3277" offset="0" stop-color="#000" stop-opacity=".706"/><stop id="stop3279" offset="1" stop-color="#000" stop-opacity=".157"/></linearGradient><linearGradient id="linearGradient3232"><stop id="stop3234" offset="0" stop-color="#000" stop-opacity="1"/><stop id="stop3236" offset="1" stop-color="#000" stop-opacity="0"/></linearGradient><linearGradient id="linearGradient3221" x1="11" x2="11" y1="14.806" y2="-6" gradientUnits="userSpaceOnUse" xlink:href="#linearGradient3232"/><linearGradient id="ButtonColor" x1="10.32" x2="10.32" y1="21" y2=".999" gradientUnits="userSpaceOnUse"><stop id="stop3189" offset="0" stop-color="#e6e6e6" stop-opacity="1"/><stop id="stop3191" offset="1" stop-color="#f5f5f5" stop-opacity="1"/></linearGradient><linearGradient id="linearGradient38042" x1="9.355" x2="9.355" y1="21.743" y2=".494" gradientTransform="scale(0.9883037,1.0118347)" gradientUnits="userSpaceOnUse" xlink:href="#ButtonShadow"/><filter id="filter3194" width="1.36" height="1.36" x="-.18" y="-.18" color-interpolation-filters="sRGB"><feGaussianBlur id="feGaussianBlur3196" stdDeviation="1.2"/></filter><clipPath id="clipPath2849" clipPathUnits="userSpaceOnUse"><rect id="rect2851" width="20" height="20" x="1" y="1" fill="#fff" fill-opacity="1" fill-rule="evenodd" stroke="none" display="inline" rx="2" ry="2"/></clipPath><linearGradient id="linearGradient3798-5"><stop id="stop3800-4" offset="0" stop-color="#0a85ff" stop-opacity="1"/><stop id="stop3802-4" offset="1" stop-color="#006ad3" stop-opacity="0"/></linearGradient><linearGradient id="linearGradient3816-9"><stop id="stop3818-3" offset="0" stop-color="#51acff" stop-opacity="1"/><stop id="stop3824-4" offset=".5" stop-color="#6abaee" stop-opacity=".675"/><stop id="stop3820-0" offset="1" stop-color="#318fe4" stop-opacity="0"/></linearGradient><linearGradient id="linearGradient3860-5"><stop id="stop3862-7" offset="0" stop-color="#002767" stop-opacity="1"/><stop id="stop3868-1" offset=".5" stop-color="#003180" stop-opacity=".364"/><stop id="stop3864-9" offset="1" stop-color="#002767" stop-opacity="0"/></linearGradient><linearGradient id="linearGradient3828-5"><stop id="stop3830-1" offset="0" stop-color="#a2d7fb" stop-opacity="1"/><stop id="stop3832-9" offset="1" stop-color="#a2d7fb" stop-opacity="0"/></linearGradient><linearGradient id="linearGradient3043"><stop id="stop3045" offset="0" stop-color="#51acff" stop-opacity="1"/><stop id="stop3047" offset=".5" stop-color="#6abaee" stop-opacity=".675"/><stop id="stop3049" offset="1" stop-color="#318fe4" stop-opacity="0"/></linearGradient><linearGradient id="linearGradient3879-6"><stop id="stop3881-4" offset="0" stop-color="#002767" stop-opacity="1"/><stop id="stop3883-1" offset=".5" stop-color="#003180" stop-opacity=".364"/><stop id="stop3885-9" offset="1" stop-color="#002767" stop-opacity="0"/></linearGradient><linearGradient id="linearGradient3958-5"><stop id="stop3960-3" offset="0" stop-color="#01a3f1" stop-opacity="1"/><stop id="stop3962-6" offset="1" stop-color="#01a3f1" stop-opacity="0"/></linearGradient><linearGradient id="linearGradient3934-3"><stop id="stop3936-2" offset="0" stop-color="#003d9e" stop-opacity="1"/><stop id="stop3938-5" offset="1" stop-color="#003d9e" stop-opacity="0"/></linearGradient><linearGradient id="linearGradient3894-4"><stop id="stop3896-6" offset="0" stop-color="#93ddf7" stop-opacity="1"/><stop id="stop3898-5" offset="1" stop-color="#93ddf7" stop-opacity="0"/></linearGradient><linearGradient id="linearGradient4136-8" x1="31" x2="36" y1="61" y2="70" gradientTransform="translate(34,-2.0000001)" gradientUnits="userSpaceOnUse" xlink:href="#linearGradient3894-4"/><linearGradient id="linearGradient3787" x1="31" x2="36" y1="61" y2="70" gradientTransform="matrix(0.18689639,0,0,0.18689639,7.4128058,1.7954511)" gradientUnits="userSpaceOnUse" xlink:href="#linearGradient3894-4"/><linearGradient id="linearGradient3790" x1="40" x2="42" y1="69" y2="64" gradientTransform="matrix(0.18689639,0,0,0.18689639,7.4128058,1.234762)" gradientUnits="userSpaceOnUse" xlink:href="#linearGradient3934-3"/><linearGradient id="linearGradient3793" x1="40" x2="41.884" y1="70" y2="62.968" gradientTransform="matrix(0.18689639,0,0,0.18689639,7.4128058,1.234762)" gradientUnits="userSpaceOnUse" xlink:href="#linearGradient3934-3"/><linearGradient id="linearGradient3797" x1="31" x2="36" y1="61" y2="70" gradientTransform="matrix(0.1859195,0,0,0.19178082,1.4308548,2.4246575)" gradientUnits="userSpaceOnUse" xlink:href="#linearGradient3894-4"/><linearGradient id="linearGradient3800" x1="40" x2="42" y1="69" y2="64" gradientTransform="matrix(0.1859195,0,0,0.19178082,1.4308547,1.849315)" gradientUnits="userSpaceOnUse" xlink:href="#linearGradient3934-3"/><linearGradient id="linearGradient3803" x1="40" x2="41.884" y1="70" y2="62.968" gradientTransform="matrix(0.1859195,0,0,0.19178082,1.4308547,1.849315)" gradientUnits="userSpaceOnUse" xlink:href="#linearGradient3934-3"/><radialGradient id="radialGradient3807" cx="46" cy="50.609" r="1.5" fx="46" fy="50.609" gradientTransform="matrix(0.51141553,-1.3341272e-8,1.5342468e-7,5.8812805,-13.413021,-281.41157)" gradientUnits="userSpaceOnUse" xlink:href="#linearGradient3879-6"/><radialGradient id="radialGradient3810" cx="40.285" cy="39.106" r="19" fx="40.285" fy="39.106" gradientTransform="matrix(0.64686831,-0.10197913,0.0359521,0.22804935,-12.957397,5.0026447)" gradientUnits="userSpaceOnUse" xlink:href="#linearGradient3816-9"/><radialGradient id="radialGradient3819" cx="41.753" cy="36.957" r="19" fx="41.753" fy="36.957" gradientTransform="matrix(0.64497796,-0.11332151,0.05771893,0.32851163,-19.765268,2.3633964)" gradientUnits="userSpaceOnUse" xlink:href="#linearGradient3816-9"/><radialGradient id="radialGradient3823" cx="39.769" cy="69.844" r="11" fx="39.769" fy="69.844" gradientTransform="matrix(1.1597853,-0.1400901,0.07244171,0.58349276,-11.414104,33.34065)" gradientUnits="userSpaceOnUse" xlink:href="#linearGradient3958-5"/><radialGradient id="radialGradient3825" cx="39.769" cy="69.844" r="11" fx="39.769" fy="69.844" gradientTransform="matrix(1.1597853,-0.1400901,0.07244171,0.58349276,-11.414104,33.34065)" gradientUnits="userSpaceOnUse" xlink:href="#linearGradient3958-5"/><linearGradient id="linearGradient3827" x1="52" x2="51.631" y1="10" y2="8.084" gradientTransform="matrix(0.19178082,0,0,0.19178082,1.2901831,2.4246575)" gradientUnits="userSpaceOnUse" xlink:href="#linearGradient3828-5"/><linearGradient id="linearGradient3078" x1="10" x2="10" y1="1" y2="16" gradientTransform="translate(1,-1)" gradientUnits="userSpaceOnUse" xlink:href="#linearGradient3823"/><linearGradient id="linearGradient3823"><stop id="stop3825" offset="0" stop-color="#fff" stop-opacity="1"/><stop id="stop3829" offset="1" stop-color="#fff" stop-opacity="0"/></linearGradient><linearGradient id="linearGradient3845" x1="11" x2="21" y1="19.5" y2="19.5" gradientTransform="translate(1,-1)" gradientUnits="userSpaceOnUse" spreadMethod="reflect" xlink:href="#linearGradient3831"/><linearGradient id="linearGradient3831"><stop id="stop3833" offset="0" stop-color="#fff" stop-opacity="1"/><stop id="stop3821" offset=".75" stop-color="#fff" stop-opacity=".498"/><stop id="stop3835" offset="1" stop-color="#fff" stop-opacity="0"/></linearGradient><linearGradient id="linearGradient3859" x1="10" x2="10" y1="1" y2="16" gradientTransform="translate(1,-1)" gradientUnits="userSpaceOnUse" xlink:href="#linearGradient3823"/></defs><metadata id="metadata7"/><g id="layer1" transform="translate(0,2)"><g id="g3337" display="inline" transform="translate(1,-1)"><rect id="rect3371" width="21" height="21.5" x=".5" y=".5" fill="url(#linearGradient3335)" fill-opacity="1" stroke="none" display="inline" opacity=".3" rx="2.5" ry="2.5"/><rect id="rect2553" width="20" height="20" x="1" y="2" fill="#000" fill-opacity="1" stroke="none" display="inline" opacity=".5" rx="2.381" ry="2.326"/></g><rect id="rect3173" width="20" height="20" x="2" y="0" fill="url(#linearGradient3181)" fill-opacity="1" fill-rule="evenodd" stroke="none" display="inline" rx="2" ry="2"/><path id="rect3050" fill="url(#linearGradient3859)" fill-opacity="1" fill-rule="evenodd" stroke="none" d="M 4,0 C 2.892,0 2,0.892 2,2 l 0,16 c 0,1.108 0.892,2 2,2 l 16,0 c 1.108,0 2,-0.892 2,-2 L 22,2 C 22,0.892 21.108,0 20,0 L 4,0 z m 0,1.03125 16,0 c 0.5497,0 0.96875,0.4190495 0.96875,0.96875 l 0,16 c 0,0.5497 -0.41905,0.96875 -0.96875,0.96875 l -16,0 C 3.4502995,18.96875 3.03125,18.5497 3.03125,18 l 0,-16 C 3.03125,1.4502995 3.4502995,1.03125 4,1.03125 z" display="inline" opacity=".6"/><path id="path3235" fill="url(#linearGradient3845)" fill-opacity="1" fill-rule="evenodd" stroke="none" d="M 4,20 C 2.892,20 2,19.108 2,18 l 0,-1 c 0,1.108 0.892,2 2,2 l 16,0 c 1.108,0 2,-0.892 2,-2 l 0,1 c 0,1.108 -0.892,2 -2,2 L 4,20 z" display="inline" opacity=".35"/></g><g id="layer2" display="inline" transform="translate(0,2)"><rect id="rect2410" width="16" height="16" x="3" y="3" fill="#fff" fill-opacity="1" fill-rule="nonzero" stroke="none" clip-path="url(#clipPath2849)" display="inline" filter="url(#filter3194)" opacity=".15" rx="2" ry="2" transform="translate(1,-1)"/></g><g id="layer3" transform="translate(0,2)"><path id="path3896" fill="#003a96" fill-opacity="1" stroke="none" d="m -14.125,2.5 c -0.551816,0.1638958 -1.156165,0.2285169 -1.72824,0.3541285 -1.809702,0.336412 -3.616472,0.7039244 -5.42801,1.0208715 -0.235483,0.055002 -0.447846,0.2295474 -0.59375,0.4375 -0.241967,0.4064227 -0.131606,0.9587845 -0.15625,1.4552257 0,2.5045081 0,5.0090163 0,7.5135243 -1.207053,-0.0066 -2.377153,0.783929 -2.875,1.875 -0.320566,0.773335 -0.272009,1.731243 0.303886,2.383971 0.274207,0.388592 0.706525,0.572889 1.085586,0.751648 1.256733,0.428985 2.851652,0.220932 3.725165,-0.873006 0.381171,-0.440771 0.711593,-0.970954 0.760363,-1.575113 0.0583,0.347826 0.5562,0.789376 0.9375,1.125 0.148145,0.240385 0.25004,-0.08867 0.497156,-0.184656 0.108787,0.004 -0.385659,0.504335 -0.02841,0.434656 0.589757,0.158821 1.376115,0.415964 2.060113,0.262166 1.044582,-0.13811 1.863976,-0.935129 2.346137,-1.793416 0.242993,-0.350337 0.218112,-0.81354 0.25,-1.223191 0,-3.675603 0,-7.3512061 0,-11.026809 C -13.018229,3.1029523 -13.18854,2.7947281 -13.5,2.625 -13.692054,2.5200046 -13.905971,2.4900481 -14.125,2.5 z M -16,8.15625 c 0,1.40625 0,2.8125 0,4.21875 -0.541884,-0.08456 -1.043472,0.136617 -1.502564,0.379997 -0.351378,0.203261 -0.750868,0.427832 -0.872436,0.838753 -0.27059,0.149413 -0.603074,1.057219 -0.625,0.910731 0,-1.928577 0,-3.857154 0,-5.785731 1,-0.1875 2,-0.375 3,-0.5625 z m -1.875,8.96875 c 0.03251,0.103643 0.05766,-0.04293 0,0 z" display="inline" opacity=".05"/><path id="path3892" fill="#003a96" fill-opacity="1" stroke="none" d="M 15.9375,3 8.875,4.34375 a 0.51520302,0.51520302 0 0 0 -0.40625,0.5 l 0,8.9375 C 8.394732,13.78026 8.3219314,13.747823 8.25,13.75 c -0.00832,-1.9e-5 -0.01491,-1.59e-4 -0.03125,0 -0.3013673,0.003 -0.6320395,0.01386 -0.96875,0.125 -0.3307693,0.10918 -0.6297019,0.289492 -0.875,0.46875 -0.3780747,0.273399 -0.667262,0.594654 -0.84375,1 a 0.51520302,0.51520302 0 0 0 0,0.03125 c -0.057976,0.136771 -0.099021,0.262677 -0.125,0.40625 -0.066391,0.321819 -0.030409,0.634243 0.0625,0.90625 0.00504,0.01458 0.025837,0.01689 0.03125,0.03125 0.1576887,0.41834 0.4725987,0.758038 0.84375,0.96875 1.112e-4,6.3e-5 0.023484,-0.0035 0.03125,0 0.028971,0.01579 0.063133,0.04729 0.09375,0.0625 0.017234,0.0045 0.019161,-0.002 0.03125,0 0.00776,0.0038 0.023374,-0.0037 0.03125,0 0.070882,0.03333 0.1377179,0.09771 0.21875,0.125 0.019964,0.0068 0.013303,-0.0044 0.03125,0 0.063147,0.0202 0.2019395,0.06208 0.375,0.09375 0.013635,0.0025 0.016869,-0.0022 0.03125,0 0.1590875,0.02546 0.3174486,0.03082 0.46875,0.03125 0.1377946,-0.0014 0.2884374,-0.0081 0.4375,-0.03125 0.00832,-0.0011 0.02274,0.0011 0.03125,0 0.157203,-0.01986 0.3442871,-0.02392 0.5625,-0.09375 0.6784682,-0.217103 1.1475318,-0.673284 1.4375,-1.125 0.06359,-0.09363 0.141558,-0.223371 0.21875,-0.40625 0.03545,-0.09479 0.09676,-0.241647 0.125,-0.40625 0.002,-0.01164 -0.0017,-0.0192 0,-0.03125 0.0048,-0.05354 0.01101,-0.145959 0,-0.0625 -0.0044,0.04298 0.03695,-0.03596 0.03125,-0.25 l 0,-7.28125 4,-0.75 0,5.25 c -0.372648,-0.02424 -0.760863,-0.03277 -1.15625,0.09375 -0.215285,0.06889 -0.364057,0.166772 -0.46875,0.21875 -0.0398,0.01853 -0.05363,0.02685 -0.0625,0.03125 a 0.51520302,0.51520302 0 0 0 -0.03125,0 c -0.0715,0.03796 -0.190834,0.107206 -0.3125,0.1875 -0.01441,0.0095 -0.01625,0.02063 -0.03125,0.03125 6.85e-4,-0.0046 0.0233,-0.02949 -0.0625,0.03125 -0.150873,0.113517 -0.212132,0.208944 -0.25,0.25 l 0,0.03125 c -0.564542,0.536053 -0.921834,1.318275 -0.65625,2.0625 0.07409,0.207627 0.182777,0.292288 0.21875,0.34375 0.105088,0.151002 0.147728,0.175689 0.0625,0.0625 0.107218,0.142238 0.28297,0.270361 0.46875,0.40625 0.0027,0.0035 0.07056,0.0674 0.09375,0.09375 l 0,0.03125 c 0.0076,0.0061 0.02163,-0.0067 0.03125,0 0.0096,0.0046 0.01635,0.02416 0.03125,0.03125 0.0057,0.0026 0.02078,-0.0048 0.03125,0 0.01254,0.006 0.03109,0.03119 0.03125,0.03125 0.0078,0.0036 0.03138,4.2e-5 0.03125,0 0.01824,0.005 0.01848,-0.0022 0.03125,0 0.0086,0.0043 0.02255,-0.0042 0.03125,0 0.03437,0.0037 0.07245,0.03233 0.09375,0.03125 0.616285,0.270478 1.348044,0.363619 2.09375,0.125 0.678468,-0.217102 1.147532,-0.673284 1.4375,-1.125 0.07303,-0.104244 0.144799,-0.205153 0.21875,-0.375 0.01905,-0.02941 0.01415,-0.02019 0.03125,-0.0625 A 0.51520302,0.51520302 0 0 0 16.4375,15.3125 C 16.476536,15.199419 16.481953,15.108671 16.5,15 c 0.03574,-0.190674 0.01169,-0.231767 0,-0.125 -0.0044,0.04286 0.03695,-0.03604 0.03125,-0.25 l 0,-11.125 A 0.51520302,0.51520302 0 0 0 15.9375,3 z" display="inline" opacity=".1" transform="translate(-30,0)"/><path id="path3864" fill="#003a96" fill-opacity="1" stroke="none" d="m -13.96875,3.5 -7.0625,1.34375 0,9.46875 c -0.222396,-0.06004 -0.466464,-0.07014 -0.71875,-0.0625 -0.01001,-2.3e-5 -0.0212,-9.8e-5 -0.03125,0 -0.262819,0.0026 -0.539356,0.03484 -0.8125,0.125 -0.273144,0.09016 -0.508531,0.221377 -0.71875,0.375 -0.315383,0.228064 -0.555861,0.510161 -0.6875,0.8125 -0.04362,0.102907 -0.0746,0.206657 -0.09375,0.3125 -0.04545,0.220293 -0.01418,0.441361 0.0625,0.65625 0.106986,0.309249 0.329247,0.550844 0.625,0.71875 0.0077,0.0044 0.02344,-0.0043 0.03125,0 0.09133,0.04977 0.17811,0.09026 0.28125,0.125 0.0099,0.0034 0.02123,-0.0033 0.03125,0 0.104286,0.03336 0.199165,0.07642 0.3125,0.09375 0.135366,0.02355 0.261335,0.03084 0.40625,0.03125 0.131298,-0.0013 0.239402,-0.0086 0.375,-0.03125 0.168895,-0.02185 0.329088,-0.03906 0.5,-0.09375 0.551509,-0.176477 0.913662,-0.528343 1.15625,-0.90625 0.06592,-0.09706 0.144079,-0.209629 0.1875,-0.3125 0.03998,-0.106892 0.07779,-0.202524 0.09375,-0.3125 0.0038,-0.02117 -0.0028,-0.04128 0,-0.0625 0.0066,-0.06389 0.03295,-0.123639 0.03125,-0.1875 l 0,-7.6875 5,-0.96875 0,6.4375 c -0.444793,-0.120085 -0.978494,-0.135629 -1.5,0.03125 -0.140878,0.04508 -0.280603,0.125119 -0.40625,0.1875 -0.01997,0.0093 -0.04293,0.02154 -0.0625,0.03125 -0.100835,0.05354 -0.192163,0.09314 -0.28125,0.15625 -0.01943,0.01294 -0.04363,0.01789 -0.0625,0.03125 -0.08627,0.06491 -0.14554,0.146226 -0.21875,0.21875 -0.469402,0.436824 -0.685675,1.010948 -0.5,1.53125 0.03585,0.100458 0.09596,0.16375 0.15625,0.25 0.0084,0.01207 0.02238,0.01947 0.03125,0.03125 0.118016,0.156563 0.25317,0.304799 0.4375,0.40625 0.0075,0.0046 0.0236,-0.0045 0.03125,0 0.01211,0.0064 0.01891,0.0251 0.03125,0.03125 0.507744,0.279505 1.201863,0.350397 1.90625,0.125 0.551509,-0.176477 0.913662,-0.528343 1.15625,-0.90625 0.06626,-0.09458 0.143851,-0.212249 0.1875,-0.3125 0.0058,-0.01337 0.02582,-0.01781 0.03125,-0.03125 0.02908,-0.08424 0.0482,-0.163891 0.0625,-0.25 0.0058,-0.03094 -0.0034,-0.06271 0,-0.09375 0.0066,-0.06389 0.03295,-0.123638 0.03125,-0.1875 l 0,-11.125 z" display="inline" opacity=".2"/><path id="path3011" fill="#0046b5" fill-opacity="1" stroke="none" d="m 16.040343,2.9999999 -7.0789272,1.3424658 0,9.4811643 c -0.4447927,-0.120085 -0.9707891,-0.112938 -1.4922945,0.05394 -1.1270201,0.360636 -1.7985706,1.320883 -1.5042806,2.145548 0.2942899,0.824665 1.4440411,1.199677 2.5710614,0.839041 0.9626959,-0.308053 1.4820669,-1.054985 1.4627483,-1.779965 l 0.006,0 0,-7.6712332 4.992473,-0.9589041 0,6.4126713 c -0.444793,-0.120085 -0.970789,-0.112939 -1.492295,0.05394 -1.12702,0.360636 -1.798571,1.320883 -1.504281,2.145548 0.29429,0.824665 1.444042,1.199677 2.571062,0.839041 0.962695,-0.308053 1.482067,-1.054985 1.462747,-1.779966 l 0.006,0 0,-11.1232871 -1.3e-5,-4e-6 z" display="inline"/><path id="path3814" fill="url(#radialGradient3819)" fill-opacity="1" stroke="none" d="m 15.925716,3.5350767 -6.772519,1.1909506 0,9.1575337 c 0.138582,0.05222 0.268997,0.113199 0.383561,0.191781 l 0,-6.4726024 c 0,-0.7671233 0.08001,-1.0549146 0.767124,-1.3424657 2.084113,-0.8721826 4.66293,-0.2320465 5.621834,-2.7251972 z" display="inline"/><path id="path3826" fill="url(#linearGradient3827)" fill-opacity="1" stroke="none" d="M 8.9614158,4.3424657 9.153197,4.7260273 15.834807,3.5047736 16.026588,3.121212 8.9614158,4.3424657 z" display="inline"/><path id="path3841" fill="url(#radialGradient3810)" fill-opacity="1" stroke="none" d="m 15.55414,6.344178 -0.395547,0.065925 0,6.514554 c 0.138582,0.05222 0.268996,0.113198 0.383561,0.191781 l 0,-6.4726021 c 0,-0.1111353 0.007,-0.2071862 0.01199,-0.2996575 z" display="inline"/><path id="path3906" fill="url(#radialGradient3825)" fill-opacity="1" fill-rule="nonzero" stroke="none" stroke-width="1.5" d="m 51,65 c 0,4.418278 -4.924868,8 -11,8 -6.075132,0 -11,-3.581722 -11,-8 0,-4.418278 4.924868,-8 11,-8 6.075132,0 11,3.581722 11,8 z" color="#000" display="inline" enable-background="accumulate" overflow="visible" transform="matrix(0.17984393,-0.0593626,0.06457169,0.18664846,-3.4528806,5.6122166)" visibility="visible" style="marker:none"/><path id="path3927" fill="url(#linearGradient3803)" fill-opacity="1" fill-rule="nonzero" stroke="none" stroke-width="1.5" d="m 8.2343464,13.739726 c -0.2628187,0.0026 -0.5402538,0.04768 -0.8133979,0.137842 -1.0925754,0.360636 -1.7436016,1.320883 -1.4583058,2.145548 0.2852956,0.824665 1.3999074,1.199677 2.492483,0.839041 C 9.547701,16.501522 10.198728,15.541274 9.9134319,14.716609 9.6994596,14.098111 9.022802,13.732037 8.2343464,13.739726 z m 0.01743,0.353596 c 0.2278603,-0.0021 0.4364849,0.03353 0.6216684,0.09589 0.3703671,0.12473 0.6158296,0.349692 0.7146279,0.635274 0.098798,0.285582 0.048501,0.610334 -0.1684892,0.928938 -0.216994,0.318605 -0.5989669,0.614121 -1.0806573,0.773117 -0.4816905,0.158995 -0.9659297,0.148702 -1.3362963,0.02397 -0.3703663,-0.124727 -0.6158295,-0.34969 -0.7146276,-0.635271 -0.098798,-0.285582 -0.048504,-0.610335 0.1684895,-0.928939 0.216994,-0.318604 0.5989666,-0.614121 1.0806569,-0.773116 0.2408452,-0.0795 0.4867677,-0.11776 0.7146281,-0.119863 z" color="#000" display="inline" enable-background="accumulate" opacity=".2" overflow="visible" visibility="visible" style="marker:none"/><path id="path3920" fill="url(#linearGradient3800)" fill-opacity="1" fill-rule="nonzero" stroke="none" stroke-width="1.5" d="m 8.2343464,13.739726 c -0.2628187,0.0026 -0.5402538,0.04768 -0.8133979,0.137842 -1.0925754,0.360636 -1.7436016,1.320883 -1.4583058,2.145548 0.2852956,0.824665 1.3999074,1.199677 2.492483,0.839041 C 9.547701,16.501522 10.198728,15.541274 9.9134319,14.716609 9.6994596,14.098111 9.022802,13.732037 8.2343464,13.739726 z m 0.00581,0.197774 c 0.2432102,-0.0021 0.4762192,0.03333 0.6797681,0.101883 0.4070978,0.1371 0.7005533,0.394178 0.8192076,0.737158 0.1186552,0.34298 0.040978,0.722572 -0.1975394,1.072774 C 9.303078,16.199517 8.9021584,16.507719 8.3912159,16.67637 7.8802734,16.845021 7.3632478,16.837442 6.9561499,16.70034 6.5490519,16.563243 6.2555971,16.306164 6.1369422,15.963185 6.0182872,15.620205 6.0959672,15.240613 6.3344816,14.890411 6.5729961,14.540209 6.973916,14.232007 7.4848584,14.063356 7.7403296,13.97903 7.9969461,13.939608 8.2401563,13.9375 z" color="#000" display="inline" enable-background="accumulate" opacity=".5" overflow="visible" visibility="visible" style="marker:none"/><path id="path3891" fill="url(#linearGradient3797)" fill-opacity="1" fill-rule="nonzero" stroke="none" stroke-width="1.5" d="m 8.8676346,14.315068 c 0.2269833,0.475019 -0.2685032,0.991769 -1.005304,1.366392 -0.7368008,0.374623 -1.4359041,0.465256 -1.6628875,-0.0098 -0.2269833,-0.475019 0.1863053,-1.163789 0.9231061,-1.538412 0.7368006,-0.374622 1.518102,-0.293236 1.7450854,0.181783 z" color="#000" display="inline" enable-background="accumulate" overflow="visible" visibility="visible" style="marker:none"/><path id="path3966" fill="url(#radialGradient3823)" fill-opacity="1" fill-rule="nonzero" stroke="none" stroke-width="1.5" d="m 51,65 c 0,4.418278 -4.924868,8 -11,8 -6.075132,0 -11,-3.581722 -11,-8 0,-4.418278 4.924868,-8 11,-8 6.075132,0 11,3.581722 11,8 z" color="#000" display="inline" enable-background="accumulate" overflow="visible" transform="matrix(0.18078889,-0.0578507,0.06491097,0.18189474,2.5034098,4.9018269)" visibility="visible" style="marker:none"/><path id="path3968" fill="url(#linearGradient3793)" fill-opacity="1" fill-rule="nonzero" stroke="none" stroke-width="1.5" d="m 14.252045,12.822338 c -0.2642,0.0025 -0.543093,0.04647 -0.817672,0.134331 -1.098316,0.351452 -1.752763,1.287242 -1.465969,2.090904 0.286795,0.803662 1.407264,1.169123 2.50558,0.817671 1.098316,-0.35145 1.752764,-1.287241 1.465969,-2.090903 -0.215096,-0.602745 -0.895309,-0.959497 -1.687908,-0.952003 z m 0.01752,0.34459 c 0.229057,-0.002 0.438778,0.03267 0.624934,0.09345 0.372313,0.121553 0.619065,0.340786 0.718383,0.619095 0.09932,0.278308 0.04876,0.594789 -0.169375,0.905279 -0.218134,0.31049 -0.602114,0.59848 -1.086335,0.753426 -0.484221,0.154946 -0.971005,0.144915 -1.343318,0.02336 -0.372313,-0.121553 -0.619065,-0.340786 -0.718382,-0.619095 -0.09932,-0.278308 -0.04876,-0.594789 0.169374,-0.905279 0.218134,-0.310489 0.602114,-0.59848 1.086335,-0.753425 0.242111,-0.07747 0.489326,-0.114761 0.718384,-0.11681 z" color="#000" display="inline" enable-background="accumulate" opacity=".2" overflow="visible" visibility="visible" style="marker:none"/><path id="path3970" fill="url(#linearGradient3790)" fill-opacity="1" fill-rule="nonzero" stroke="none" stroke-width="1.5" d="m 14.252045,12.822338 c -0.2642,0.0025 -0.543093,0.04647 -0.817672,0.134331 -1.098316,0.351452 -1.752763,1.287242 -1.465969,2.090904 0.286795,0.803662 1.407264,1.169123 2.50558,0.817671 1.098316,-0.35145 1.752764,-1.287241 1.465969,-2.090903 -0.215096,-0.602745 -0.895309,-0.959497 -1.687908,-0.952003 z m 0.0058,0.192737 c 0.244488,-0.002 0.478722,0.03248 0.68334,0.09929 0.409237,0.133608 0.704234,0.384139 0.823512,0.718384 0.119279,0.334243 0.04119,0.704169 -0.198577,1.045451 -0.239768,0.341283 -0.642794,0.641635 -1.156422,0.805991 -0.513626,0.164356 -1.033369,0.156969 -1.442606,0.02336 -0.409237,-0.133607 -0.704233,-0.384139 -0.823512,-0.718383 -0.119279,-0.334244 -0.04119,-0.704169 0.198577,-1.045451 0.239768,-0.341283 0.642794,-0.641636 1.156422,-0.805991 0.256813,-0.08218 0.514778,-0.120597 0.759266,-0.122651 z" color="#000" display="inline" enable-background="accumulate" opacity=".5" overflow="visible" visibility="visible" style="marker:none"/><path d="m 14.888661,13.383027 c 0.228176,0.46292 -0.269914,0.96651 -1.010587,1.331591 -0.740672,0.365082 -1.443449,0.453407 -1.671625,-0.0095 -0.228176,-0.462921 0.187285,-1.134149 0.927957,-1.49923 0.740672,-0.365081 1.526078,-0.285768 1.754255,0.177152 z" style="marker:none" id="path3972" fill="url(#linearGradient3787)" fill-opacity="1" fill-rule="nonzero" stroke="none" stroke-width="1.5" color="#000" display="inline" enable-background="accumulate" overflow="visible" visibility="visible"/></g></svg>