<svg xmlns="http://www.w3.org/2000/svg" xmlns:svg="http://www.w3.org/2000/svg" xmlns:xlink="http://www.w3.org/1999/xlink" id="svg2" width="24" height="24" display="inline" version="1.0"><defs id="defs4"><linearGradient id="linearGradient3327"><stop id="stop3330" offset="0" stop-color="#000" stop-opacity="1"/><stop id="stop3333" offset="1" stop-color="#000" stop-opacity="0"/></linearGradient><linearGradient id="linearGradient3335" x1="11.375" x2="11.375" y1="22" y2="-9.817" gradientUnits="userSpaceOnUse" xlink:href="#linearGradient3327"/><linearGradient id="linearGradient3181" x1="-3.061" x2="-3.061" y1="27.258" y2="7.254" gradientTransform="translate(12.119372,-7.2581977)" gradientUnits="userSpaceOnUse" xlink:href="#ButtonColor"/><linearGradient id="ButtonShadow" x1="9.355" x2="9.355" y1="21.743" y2=".494" gradientTransform="scale(0.9883037,1.0118347)" gradientUnits="userSpaceOnUse"><stop id="stop3277" offset="0" stop-color="#000" stop-opacity=".706"/><stop id="stop3279" offset="1" stop-color="#000" stop-opacity=".157"/></linearGradient><linearGradient id="linearGradient3232"><stop id="stop3234" offset="0" stop-color="#000" stop-opacity="1"/><stop id="stop3236" offset="1" stop-color="#000" stop-opacity="0"/></linearGradient><linearGradient id="linearGradient3221" x1="11" x2="11" y1="14.806" y2="-6" gradientUnits="userSpaceOnUse" xlink:href="#linearGradient3232"/><linearGradient id="ButtonColor" x1="10.32" x2="10.32" y1="21" y2=".999" gradientUnits="userSpaceOnUse"><stop id="stop3189" offset="0" stop-color="#e6e6e6" stop-opacity="1"/><stop id="stop3191" offset="1" stop-color="#f5f5f5" stop-opacity="1"/></linearGradient><linearGradient id="linearGradient38042" x1="9.355" x2="9.355" y1="21.743" y2=".494" gradientTransform="scale(0.9883037,1.0118347)" gradientUnits="userSpaceOnUse" xlink:href="#ButtonShadow"/><filter id="filter3194" width="1.36" height="1.36" x="-.18" y="-.18" color-interpolation-filters="sRGB"><feGaussianBlur id="feGaussianBlur3196" stdDeviation="1.2"/></filter><clipPath id="clipPath2849" clipPathUnits="userSpaceOnUse"><rect id="rect2851" width="20" height="20" x="1" y="1" fill="#fff" fill-opacity="1" fill-rule="evenodd" stroke="none" display="inline" rx="2" ry="2"/></clipPath><linearGradient id="linearGradient3689-3" x1="48" x2="48" y1="72" y2="24" gradientUnits="userSpaceOnUse" xlink:href="#linearGradient3710-7"/><linearGradient id="linearGradient3710-7"><stop id="stop3712-2" offset="0" stop-color="#2b4777" stop-opacity="1"/><stop id="stop3714-0" offset="1" stop-color="#5672a0" stop-opacity="1"/></linearGradient><linearGradient id="linearGradient3152" x1="48" x2="48" y1="72" y2="24" gradientUnits="userSpaceOnUse" xlink:href="#linearGradient3710-7"/><linearGradient id="linearGradient3154"><stop id="stop3156" offset="0" stop-color="#2b4777" stop-opacity="1"/><stop id="stop3158" offset="1" stop-color="#5672a0" stop-opacity="1"/></linearGradient><linearGradient id="linearGradient3162" x1="48" x2="48" y1="72" y2="24" gradientTransform="matrix(0.29166667,0,0,0.29166667,-2.0773129,-4)" gradientUnits="userSpaceOnUse" xlink:href="#linearGradient3710-7"/><linearGradient id="linearGradient3692-5" x1="16" x2="80" y1="71" y2="71" gradientTransform="matrix(0.875,0,0,0.5,18,-12)" gradientUnits="userSpaceOnUse" xlink:href="#linearGradient3676-1"/><linearGradient id="linearGradient3676-1"><stop id="stop3678-4" offset="0" stop-color="#333" stop-opacity="0"/><stop id="stop3688-5" offset=".25" stop-color="#000" stop-opacity="1"/><stop id="stop3684-4" offset=".5" stop-color="#000" stop-opacity="1"/><stop id="stop3686-9" offset=".75" stop-color="#000" stop-opacity="1"/><stop id="stop3680-3" offset="1" stop-color="#333" stop-opacity="0"/></linearGradient><linearGradient id="linearGradient3184" x1="16" x2="80" y1="71" y2="71" gradientTransform="matrix(0.1875,0,0,0.5,6,-32)" gradientUnits="userSpaceOnUse" xlink:href="#linearGradient3676-1"/><linearGradient id="linearGradient3696" x1="16" x2="80" y1="71" y2="71" gradientTransform="matrix(0.3125,0,0,0.5,-3,-19)" gradientUnits="userSpaceOnUse" xlink:href="#linearGradient3676-1"/><linearGradient id="linearGradient3700" x1="16" x2="80" y1="71" y2="71" gradientTransform="matrix(0.3125,0,0,0.5,-5,-54)" gradientUnits="userSpaceOnUse" xlink:href="#linearGradient3676-1"/><linearGradient id="linearGradient3704" x1="16" x2="80" y1="71" y2="71" gradientTransform="matrix(0.203125,0,0,0.5,3.75,-41)" gradientUnits="userSpaceOnUse" xlink:href="#linearGradient3676-1"/><linearGradient id="linearGradient3078" x1="10" x2="10" y1="1" y2="16" gradientTransform="translate(1,-1)" gradientUnits="userSpaceOnUse" xlink:href="#linearGradient3823"/><linearGradient id="linearGradient3823"><stop id="stop3825" offset="0" stop-color="#fff" stop-opacity="1"/><stop id="stop3829" offset="1" stop-color="#fff" stop-opacity="0"/></linearGradient><linearGradient id="linearGradient3845" x1="11" x2="21" y1="19.5" y2="19.5" gradientTransform="translate(1,-1)" gradientUnits="userSpaceOnUse" spreadMethod="reflect" xlink:href="#linearGradient3831"/><linearGradient id="linearGradient3831"><stop id="stop3833" offset="0" stop-color="#fff" stop-opacity="1"/><stop id="stop3821" offset=".75" stop-color="#fff" stop-opacity=".498"/><stop id="stop3835" offset="1" stop-color="#fff" stop-opacity="0"/></linearGradient><linearGradient id="linearGradient3859" x1="10" x2="10" y1="1" y2="16" gradientTransform="translate(1,-1)" gradientUnits="userSpaceOnUse" xlink:href="#linearGradient3823"/></defs><metadata id="metadata7"/><g id="layer1" transform="translate(0,2)"><g id="g3337" display="inline" transform="translate(1,-1)"><rect id="rect3371" width="21" height="21.5" x=".5" y=".5" fill="url(#linearGradient3335)" fill-opacity="1" stroke="none" display="inline" opacity=".3" rx="2.5" ry="2.5"/><rect id="rect2553" width="20" height="20" x="1" y="2" fill="#000" fill-opacity="1" stroke="none" display="inline" opacity=".5" rx="2.381" ry="2.326"/></g><rect id="rect3173" width="20" height="20" x="2" y="0" fill="url(#linearGradient3181)" fill-opacity="1" fill-rule="evenodd" stroke="none" display="inline" rx="2" ry="2"/><path id="rect3050" fill="url(#linearGradient3859)" fill-opacity="1" fill-rule="evenodd" stroke="none" d="M 4,0 C 2.892,0 2,0.892 2,2 l 0,16 c 0,1.108 0.892,2 2,2 l 16,0 c 1.108,0 2,-0.892 2,-2 L 22,2 C 22,0.892 21.108,0 20,0 L 4,0 z m 0,1.03125 16,0 c 0.5497,0 0.96875,0.4190495 0.96875,0.96875 l 0,16 c 0,0.5497 -0.41905,0.96875 -0.96875,0.96875 l -16,0 C 3.4502995,18.96875 3.03125,18.5497 3.03125,18 l 0,-16 C 3.03125,1.4502995 3.4502995,1.03125 4,1.03125 z" display="inline" opacity=".6"/><path id="path3235" fill="url(#linearGradient3845)" fill-opacity="1" fill-rule="evenodd" stroke="none" d="M 4,20 C 2.892,20 2,19.108 2,18 l 0,-1 c 0,1.108 0.892,2 2,2 l 16,0 c 1.108,0 2,-0.892 2,-2 l 0,1 c 0,1.108 -0.892,2 -2,2 L 4,20 z" display="inline" opacity=".35"/></g><g id="layer2" display="inline" transform="translate(0,2)"><rect id="rect2410" width="16" height="16" x="3" y="3" fill="#fff" fill-opacity="1" fill-rule="nonzero" stroke="none" clip-path="url(#clipPath2849)" display="inline" filter="url(#filter3194)" opacity=".15" rx="2" ry="2" transform="translate(1,-1)"/></g><g id="layer3" transform="translate(0,2)"><rect stroke-width="2" style="marker:none" id="rect3690" width="12" height="1" x="9" y="3" fill="url(#linearGradient3184)" fill-opacity="1" stroke="none" color="#000" display="inline" enable-background="accumulate" opacity=".12" overflow="visible" visibility="visible"/><rect id="rect3694" width="20" height="1" x="2" y="16" fill="url(#linearGradient3696)" fill-opacity="1" stroke="none" stroke-width="2" color="#000" display="inline" enable-background="accumulate" opacity=".12" overflow="visible" visibility="visible" style="marker:none"/><rect id="rect3698" width="20" height="1" x="0" y="-19" fill="url(#linearGradient3700)" fill-opacity="1" stroke="none" stroke-width="2" color="#000" display="inline" enable-background="accumulate" opacity=".12" overflow="visible" transform="matrix(0,1,-1,0,0,0)" visibility="visible" style="marker:none"/><rect id="rect3702" width="13" height="1" x="7" y="-6" fill="url(#linearGradient3704)" fill-opacity="1" stroke="none" stroke-width="2" color="#000" display="inline" enable-background="accumulate" opacity=".12" overflow="visible" transform="matrix(0,1,-1,0,0,0)" visibility="visible" style="marker:none"/><text id="text2907" x="6.217" y="17" fill="url(#linearGradient3162)" fill-opacity="1" stroke="none" display="inline" font-family="DejaVu Serif" font-size="19.204" font-stretch="normal" font-style="italic" font-variant="normal" font-weight="normal" text-anchor="start" writing-mode="lr-tb" xml:space="preserve" style="text-align:start;line-height:125%;-inkscape-font-specification:Abandoned Bitplane Italic"><tspan id="tspan2909" x="6.217" y="17" fill="url(#linearGradient3162)" fill-opacity="1">A</tspan></text></g></svg>