<svg xmlns="http://www.w3.org/2000/svg" xmlns:svg="http://www.w3.org/2000/svg" xmlns:xlink="http://www.w3.org/1999/xlink" id="svg2" width="24" height="24" display="inline" version="1.0"><defs id="defs4"><linearGradient id="linearGradient3327"><stop id="stop3330" offset="0" stop-color="#000" stop-opacity="1"/><stop id="stop3333" offset="1" stop-color="#000" stop-opacity="0"/></linearGradient><linearGradient id="linearGradient3335" x1="11.375" x2="11.375" y1="22" y2="-9.817" gradientUnits="userSpaceOnUse" xlink:href="#linearGradient3327"/><linearGradient id="linearGradient3181" x1="-3.061" x2="-3.061" y1="27.258" y2="7.254" gradientTransform="translate(12.119372,-7.2581977)" gradientUnits="userSpaceOnUse" xlink:href="#ButtonColor"/><linearGradient id="ButtonShadow" x1="9.355" x2="9.355" y1="21.743" y2=".494" gradientTransform="scale(0.9883037,1.0118347)" gradientUnits="userSpaceOnUse"><stop id="stop3277" offset="0" stop-color="#000" stop-opacity=".706"/><stop id="stop3279" offset="1" stop-color="#000" stop-opacity=".157"/></linearGradient><linearGradient id="linearGradient3232"><stop id="stop3234" offset="0" stop-color="#000" stop-opacity="1"/><stop id="stop3236" offset="1" stop-color="#000" stop-opacity="0"/></linearGradient><linearGradient id="linearGradient3221" x1="11" x2="11" y1="14.806" y2="-6" gradientUnits="userSpaceOnUse" xlink:href="#linearGradient3232"/><linearGradient id="ButtonColor" x1="10.32" x2="10.32" y1="21" y2=".999" gradientUnits="userSpaceOnUse"><stop id="stop3189" offset="0" stop-color="#e6e6e6" stop-opacity="1"/><stop id="stop3191" offset="1" stop-color="#f5f5f5" stop-opacity="1"/></linearGradient><linearGradient id="linearGradient38042" x1="9.355" x2="9.355" y1="21.743" y2=".494" gradientTransform="scale(0.9883037,1.0118347)" gradientUnits="userSpaceOnUse" xlink:href="#ButtonShadow"/><filter id="filter3194" width="1.36" height="1.36" x="-.18" y="-.18" color-interpolation-filters="sRGB"><feGaussianBlur id="feGaussianBlur3196" stdDeviation="1.2"/></filter><clipPath id="clipPath2849" clipPathUnits="userSpaceOnUse"><rect id="rect2851" width="20" height="20" x="1" y="1" fill="#fff" fill-opacity="1" fill-rule="evenodd" stroke="none" display="inline" rx="2" ry="2"/></clipPath><clipPath id="clipPath2952" clipPathUnits="userSpaceOnUse"><rect id="rect2954" width="72" height="56" x="12" y="20" fill="red" fill-opacity="1" fill-rule="nonzero" stroke="none" stroke-width="1" color="#000" display="inline" enable-background="accumulate" opacity=".652" overflow="visible" rx="3" ry="3" visibility="visible" style="marker:none"/></clipPath><linearGradient id="linearGradient3938" x1="48" x2="48" y1="48" y2="72" gradientUnits="userSpaceOnUse" spreadMethod="reflect" xlink:href="#linearGradient3940"/><linearGradient id="linearGradient3940"><stop id="stop3942" offset="0" stop-color="#5184cf" stop-opacity="1"/><stop id="stop3944" offset="1" stop-color="#123a76" stop-opacity="1"/></linearGradient><radialGradient id="radialGradient3934" cx="56" cy="24" r="16" fx="56" fy="24" gradientUnits="userSpaceOnUse" xlink:href="#linearGradient3928"/><linearGradient id="linearGradient3928"><stop id="stop3930" offset="0" stop-color="#00ce99" stop-opacity="1"/><stop id="stop3932" offset="1" stop-color="#00805f" stop-opacity="0"/></linearGradient><radialGradient id="radialGradient3867" cx="60.563" cy="49.721" r="19.437" fx="60.563" fy="49.721" gradientUnits="userSpaceOnUse" xlink:href="#linearGradient3751"/><linearGradient id="linearGradient3751"><stop id="stop3754" offset="0" stop-color="#80e5ff" stop-opacity="1"/><stop id="stop3869" offset=".5" stop-color="#80e5ff" stop-opacity=".403"/><stop id="stop3756" offset="1" stop-color="#80e5ff" stop-opacity="0"/></linearGradient><radialGradient id="radialGradient3747" cx="47.977" cy="64.058" r="24.023" fx="47.977" fy="64.058" gradientUnits="userSpaceOnUse" xlink:href="#linearGradient3739"/><linearGradient id="linearGradient3739"><stop id="stop3742" offset="0" stop-color="#5fbcd3" stop-opacity="1"/><stop id="stop3745" offset="1" stop-color="#5fbcd3" stop-opacity="0"/></linearGradient><radialGradient id="radialGradient3758" cx="60.563" cy="49.721" r="19.437" fx="60.563" fy="49.721" gradientUnits="userSpaceOnUse" xlink:href="#linearGradient3751"/><linearGradient id="linearGradient3787"><stop id="stop3789" offset="0" stop-color="#80e5ff" stop-opacity="1"/><stop id="stop3791" offset=".5" stop-color="#80e5ff" stop-opacity=".403"/><stop id="stop3793" offset="1" stop-color="#80e5ff" stop-opacity="0"/></linearGradient><radialGradient id="radialGradient3833" cx="58.5" cy="37.5" r="2.5" fx="58.5" fy="37.5" gradientUnits="userSpaceOnUse" xlink:href="#linearGradient3827"/><linearGradient id="linearGradient3827"><stop id="stop3829" offset="0" stop-color="#fff" stop-opacity="1"/><stop id="stop3831" offset="1" stop-color="#fff" stop-opacity="0"/></linearGradient><radialGradient id="radialGradient3837" cx="58.5" cy="37.5" r="2.5" fx="58.5" fy="37.5" gradientUnits="userSpaceOnUse" xlink:href="#linearGradient3827"/><radialGradient id="radialGradient3841" cx="58.5" cy="37.5" r="2.5" fx="58.5" fy="37.5" gradientUnits="userSpaceOnUse" xlink:href="#linearGradient3827"/><radialGradient id="radialGradient3845" cx="58.5" cy="37.5" r="2.5" fx="58.5" fy="37.5" gradientUnits="userSpaceOnUse" xlink:href="#linearGradient3827"/><radialGradient id="radialGradient3849" cx="58.5" cy="37.5" r="2.5" fx="58.5" fy="37.5" gradientUnits="userSpaceOnUse" xlink:href="#linearGradient3827"/><radialGradient id="radialGradient3853" cx="58.5" cy="37.5" r="2.5" fx="58.5" fy="37.5" gradientUnits="userSpaceOnUse" xlink:href="#linearGradient3827"/><radialGradient id="radialGradient3857" cx="58.5" cy="37.5" r="2.5" fx="58.5" fy="37.5" gradientUnits="userSpaceOnUse" xlink:href="#linearGradient3827"/><radialGradient id="radialGradient3861" cx="58.5" cy="37.5" r="2.5" fx="58.5" fy="37.5" gradientUnits="userSpaceOnUse" xlink:href="#linearGradient3827"/><linearGradient id="linearGradient3078" x1="10" x2="10" y1="1" y2="16" gradientTransform="translate(1,-1)" gradientUnits="userSpaceOnUse" xlink:href="#linearGradient3823"/><linearGradient id="linearGradient3823"><stop id="stop3825" offset="0" stop-color="#fff" stop-opacity="1"/><stop id="stop3829-0" offset="1" stop-color="#fff" stop-opacity="0"/></linearGradient><linearGradient id="linearGradient3845" x1="11" x2="21" y1="19.5" y2="19.5" gradientTransform="translate(1,-1)" gradientUnits="userSpaceOnUse" spreadMethod="reflect" xlink:href="#linearGradient3831"/><linearGradient id="linearGradient3831"><stop id="stop3833" offset="0" stop-color="#fff" stop-opacity="1"/><stop id="stop3821" offset=".75" stop-color="#fff" stop-opacity=".498"/><stop id="stop3835" offset="1" stop-color="#fff" stop-opacity="0"/></linearGradient><linearGradient id="linearGradient3859" x1="10" x2="10" y1="1" y2="16" gradientTransform="translate(1,-1)" gradientUnits="userSpaceOnUse" xlink:href="#linearGradient3823"/></defs><metadata id="metadata7"/><g id="layer1" transform="translate(0,2)"><g id="g3337" display="inline" transform="translate(1,-1)"><rect id="rect3371" width="21" height="21.5" x=".5" y=".5" fill="url(#linearGradient3335)" fill-opacity="1" stroke="none" display="inline" opacity=".3" rx="2.5" ry="2.5"/><rect id="rect2553" width="20" height="20" x="1" y="2" fill="#000" fill-opacity="1" stroke="none" display="inline" opacity=".5" rx="2.381" ry="2.326"/></g><rect id="rect3173" width="20" height="20" x="2" y="0" fill="url(#linearGradient3181)" fill-opacity="1" fill-rule="evenodd" stroke="none" display="inline" rx="2" ry="2"/><path id="rect3050" fill="url(#linearGradient3859)" fill-opacity="1" fill-rule="evenodd" stroke="none" d="M 4,0 C 2.892,0 2,0.892 2,2 l 0,16 c 0,1.108 0.892,2 2,2 l 16,0 c 1.108,0 2,-0.892 2,-2 L 22,2 C 22,0.892 21.108,0 20,0 L 4,0 z m 0,1.03125 16,0 c 0.5497,0 0.96875,0.4190495 0.96875,0.96875 l 0,16 c 0,0.5497 -0.41905,0.96875 -0.96875,0.96875 l -16,0 C 3.4502995,18.96875 3.03125,18.5497 3.03125,18 l 0,-16 C 3.03125,1.4502995 3.4502995,1.03125 4,1.03125 z" display="inline" opacity=".6"/><path id="path3235" fill="url(#linearGradient3845)" fill-opacity="1" fill-rule="evenodd" stroke="none" d="M 4,20 C 2.892,20 2,19.108 2,18 l 0,-1 c 0,1.108 0.892,2 2,2 l 16,0 c 1.108,0 2,-0.892 2,-2 l 0,1 c 0,1.108 -0.892,2 -2,2 L 4,20 z" display="inline" opacity=".35"/></g><g id="layer2" display="inline" transform="translate(0,2)"><rect id="rect2410" width="16" height="16" x="3" y="3" fill="#fff" fill-opacity="1" fill-rule="nonzero" stroke="none" clip-path="url(#clipPath2849)" display="inline" filter="url(#filter3194)" opacity=".15" rx="2" ry="2" transform="translate(1,-1)"/></g><g id="layer3" transform="translate(0,2)"><g id="g3871" clip-path="url(#clipPath2952)" display="inline" transform="matrix(0.25,0,0,0.25,-3e-8,-2.000003)"><rect id="rect3966" width="72" height="56" x="12" y="20" fill="url(#linearGradient3938)" fill-opacity="1" fill-rule="nonzero" stroke="none" stroke-width="1" color="#000" display="inline" enable-background="accumulate" overflow="visible" visibility="visible" style="marker:none"/><path id="path3918" fill="url(#radialGradient3934)" fill-opacity="1" fill-rule="nonzero" stroke="none" stroke-width="1" d="m 72,24 a 16,16 0 1 1 -32,0 16,16 0 1 1 32,0 z" color="#000" display="inline" enable-background="accumulate" opacity=".5" overflow="visible" transform="matrix(2.75,0,0,2.75,-126,-40)" visibility="visible" style="marker:none"/><path id="path3865" fill="url(#radialGradient3867)" fill-opacity="1" fill-rule="nonzero" stroke="none" stroke-width="1" d="m 80,49.720657 a 19.437111,19.437111 0 1 1 -38.874222,0 19.437111,19.437111 0 1 1 38.874222,0 z" color="#000" display="inline" enable-background="accumulate" opacity=".697" overflow="visible" transform="matrix(0.92606356,0,0,0.92606356,20.477805,-0.04448889)" visibility="visible" style="marker:none"/><path id="path3737" fill="url(#radialGradient3747)" fill-opacity="1" fill-rule="nonzero" stroke="none" stroke-width="1" d="m 71.999998,64.057671 a 24.022646,24.022646 0 1 1 -48.045292,0 24.022646,24.022646 0 1 1 48.045292,0 z" color="#000" display="inline" enable-background="accumulate" overflow="visible" transform="translate(-23.999998,-16.057671)" visibility="visible" style="marker:none"/><path id="path3749" fill="url(#radialGradient3758)" fill-opacity="1" fill-rule="nonzero" stroke="none" stroke-width="1" d="m 80,49.720657 a 19.437111,19.437111 0 1 1 -38.874222,0 19.437111,19.437111 0 1 1 38.874222,0 z" color="#000" display="inline" enable-background="accumulate" opacity=".434" overflow="visible" transform="translate(-12.562889,-5.1577682)" visibility="visible" style="marker:none"/><path id="path3779" fill="#fff" fill-opacity="1" fill-rule="nonzero" stroke="none" stroke-width="1" d="m 61,37.5 a 2.5,2.5 0 1 1 -5,0 2.5,2.5 0 1 1 5,0 z" color="#000" display="inline" enable-background="accumulate" opacity=".4" overflow="visible" visibility="visible" style="marker:none"/><path id="path3781" fill="#fff" fill-opacity="1" fill-rule="nonzero" stroke="none" stroke-width="1" d="m 61,37.5 a 2.5,2.5 0 1 1 -5,0 2.5,2.5 0 1 1 5,0 z" color="#000" display="inline" enable-background="accumulate" opacity=".504" overflow="visible" transform="translate(-33.5,10)" visibility="visible" style="marker:none"/><path id="path3783" fill="#fff" fill-opacity="1" fill-rule="nonzero" stroke="none" stroke-width="1" d="m 61,37.5 a 2.5,2.5 0 1 1 -5,0 2.5,2.5 0 1 1 5,0 z" color="#000" display="inline" enable-background="accumulate" opacity=".3" overflow="visible" transform="translate(4,13.5)" visibility="visible" style="marker:none"/><path id="path3785" fill="#fff" fill-opacity="1" fill-rule="nonzero" stroke="none" stroke-width="1" d="m 61,37.5 a 2.5,2.5 0 1 1 -5,0 2.5,2.5 0 1 1 5,0 z" color="#000" display="inline" enable-background="accumulate" opacity=".504" overflow="visible" transform="translate(17,8.5)" visibility="visible" style="marker:none"/><path id="path3787" fill="#fff" fill-opacity="1" fill-rule="nonzero" stroke="none" stroke-width="1" d="m 61,37.5 a 2.5,2.5 0 1 1 -5,0 2.5,2.5 0 1 1 5,0 z" color="#000" display="inline" enable-background="accumulate" opacity=".504" overflow="visible" transform="translate(-17,7.5)" visibility="visible" style="marker:none"/><path id="path3789" fill="#fff" fill-opacity="1" fill-rule="nonzero" stroke="none" stroke-width="1" d="m 61,37.5 a 2.5,2.5 0 1 1 -5,0 2.5,2.5 0 1 1 5,0 z" color="#000" display="inline" enable-background="accumulate" opacity=".504" overflow="visible" transform="translate(-42,3.5)" visibility="visible" style="marker:none"/><path id="path3791" fill="#fff" fill-opacity="1" fill-rule="nonzero" stroke="none" stroke-width="1" d="m 61,37.5 a 2.5,2.5 0 1 1 -5,0 2.5,2.5 0 1 1 5,0 z" color="#000" display="inline" enable-background="accumulate" opacity=".3" overflow="visible" transform="translate(-42,3.5)" visibility="visible" style="marker:none"/><path id="path3793" fill="#fff" fill-opacity="1" fill-rule="nonzero" stroke="none" stroke-width="1" d="m 61,37.5 a 2.5,2.5 0 1 1 -5,0 2.5,2.5 0 1 1 5,0 z" color="#000" display="inline" enable-background="accumulate" opacity=".504" overflow="visible" transform="matrix(0.4,0,0,0.4,-6.4,35)" visibility="visible" style="marker:none"/><path id="path3795" fill="#fff" fill-opacity="1" fill-rule="nonzero" stroke="none" stroke-width="1" d="m 61,37.5 a 2.5,2.5 0 1 1 -5,0 2.5,2.5 0 1 1 5,0 z" color="#000" display="inline" enable-background="accumulate" opacity=".504" overflow="visible" transform="matrix(0.4,0,0,0.4,7.6,38)" visibility="visible" style="marker:none"/><path id="path3797" fill="#fff" fill-opacity="1" fill-rule="nonzero" stroke="none" stroke-width="1" d="m 61,37.5 a 2.5,2.5 0 1 1 -5,0 2.5,2.5 0 1 1 5,0 z" color="#000" display="inline" enable-background="accumulate" opacity=".504" overflow="visible" transform="matrix(0.4,0,0,0.4,9.6,34)" visibility="visible" style="marker:none"/><path id="path3799" fill="#fff" fill-opacity="1" fill-rule="nonzero" stroke="none" stroke-width="1" d="m 61,37.5 a 2.5,2.5 0 1 1 -5,0 2.5,2.5 0 1 1 5,0 z" color="#000" display="inline" enable-background="accumulate" opacity=".3" overflow="visible" transform="matrix(0.4,0,0,0.4,16.6,36)" visibility="visible" style="marker:none"/><path id="path3801" fill="#fff" fill-opacity="1" fill-rule="nonzero" stroke="none" stroke-width="1" d="m 61,37.5 a 2.5,2.5 0 1 1 -5,0 2.5,2.5 0 1 1 5,0 z" color="#000" display="inline" enable-background="accumulate" opacity=".504" overflow="visible" transform="matrix(0.4,0,0,0.4,28.6,28)" visibility="visible" style="marker:none"/><path id="path3803" fill="#fff" fill-opacity="1" fill-rule="nonzero" stroke="none" stroke-width="1" d="m 61,37.5 a 2.5,2.5 0 1 1 -5,0 2.5,2.5 0 1 1 5,0 z" color="#000" display="inline" enable-background="accumulate" opacity=".504" overflow="visible" transform="matrix(0.4,0,0,0.4,45.6,33)" visibility="visible" style="marker:none"/><path id="path3805" fill="#fff" fill-opacity="1" fill-rule="nonzero" stroke="none" stroke-width="1" d="m 61,37.5 a 2.5,2.5 0 1 1 -5,0 2.5,2.5 0 1 1 5,0 z" color="#000" display="inline" enable-background="accumulate" opacity=".504" overflow="visible" transform="matrix(0.4,0,0,0.4,47.6,29)" visibility="visible" style="marker:none"/><path id="path3807" fill="#fff" fill-opacity="1" fill-rule="nonzero" stroke="none" stroke-width="1" d="m 61,37.5 a 2.5,2.5 0 1 1 -5,0 2.5,2.5 0 1 1 5,0 z" color="#000" display="inline" enable-background="accumulate" opacity=".504" overflow="visible" transform="matrix(0.4,0,0,0.4,55.6,23)" visibility="visible" style="marker:none"/><path id="path3809" fill="#fff" fill-opacity="1" fill-rule="nonzero" stroke="none" stroke-width="1" d="m 61,37.5 a 2.5,2.5 0 1 1 -5,0 2.5,2.5 0 1 1 5,0 z" color="#000" display="inline" enable-background="accumulate" opacity=".504" overflow="visible" transform="matrix(0.4,0,0,0.4,38.6,30)" visibility="visible" style="marker:none"/><path id="path3811" fill="#fff" fill-opacity="1" fill-rule="nonzero" stroke="none" stroke-width="1" d="m 61,37.5 a 2.5,2.5 0 1 1 -5,0 2.5,2.5 0 1 1 5,0 z" color="#000" display="inline" enable-background="accumulate" opacity=".504" overflow="visible" transform="matrix(0.4,0,0,0.4,38.6,30)" visibility="visible" style="marker:none"/><path id="path3813" fill="#fff" fill-opacity="1" fill-rule="nonzero" stroke="none" stroke-width="1" d="m 61,37.5 a 2.5,2.5 0 1 1 -5,0 2.5,2.5 0 1 1 5,0 z" color="#000" display="inline" enable-background="accumulate" opacity=".504" overflow="visible" transform="matrix(0.6,0,0,0.6,-1.1,21)" visibility="visible" style="marker:none"/><path id="path3815" fill="#fff" fill-opacity="1" fill-rule="nonzero" stroke="none" stroke-width="1" d="m 61,37.5 a 2.5,2.5 0 1 1 -5,0 2.5,2.5 0 1 1 5,0 z" color="#000" display="inline" enable-background="accumulate" opacity=".504" overflow="visible" transform="matrix(0.6,0,0,0.6,-6.6,18.5)" visibility="visible" style="marker:none"/><path id="path3817" fill="#fff" fill-opacity="1" fill-rule="nonzero" stroke="none" stroke-width="1" d="m 61,37.5 a 2.5,2.5 0 1 1 -5,0 2.5,2.5 0 1 1 5,0 z" color="#000" display="inline" enable-background="accumulate" opacity=".504" overflow="visible" transform="matrix(0.6,0,0,0.6,15.9,31)" visibility="visible" style="marker:none"/><path id="path3819" fill="#fff" fill-opacity="1" fill-rule="nonzero" stroke="none" stroke-width="1" d="m 61,37.5 a 2.5,2.5 0 1 1 -5,0 2.5,2.5 0 1 1 5,0 z" color="#000" display="inline" enable-background="accumulate" opacity=".504" overflow="visible" transform="matrix(0.6,0,0,0.6,19.4,26.5)" visibility="visible" style="marker:none"/><path id="path3821" fill="#fff" fill-opacity="1" fill-rule="nonzero" stroke="none" stroke-width="1" d="m 61,37.5 a 2.5,2.5 0 1 1 -5,0 2.5,2.5 0 1 1 5,0 z" color="#000" display="inline" enable-background="accumulate" opacity=".504" overflow="visible" transform="matrix(0.6,0,0,0.6,19.4,26.5)" visibility="visible" style="marker:none"/><path id="path3823" fill="#fff" fill-opacity="1" fill-rule="nonzero" stroke="none" stroke-width="1" d="m 61,37.5 a 2.5,2.5 0 1 1 -5,0 2.5,2.5 0 1 1 5,0 z" color="#000" display="inline" enable-background="accumulate" opacity=".504" overflow="visible" transform="matrix(0.6,0,0,0.6,37.9,29)" visibility="visible" style="marker:none"/><path id="path3825" fill="url(#radialGradient3833)" fill-opacity="1" fill-rule="nonzero" stroke="none" stroke-width="1" d="m 61,37.5 a 2.5,2.5 0 1 1 -5,0 2.5,2.5 0 1 1 5,0 z" color="#000" display="inline" enable-background="accumulate" opacity=".3" overflow="visible" transform="matrix(1.6,0,0,1.6,-43.6,-16)" visibility="visible" style="marker:none"/><path id="path3835" fill="url(#radialGradient3837)" fill-opacity="1" fill-rule="nonzero" stroke="none" stroke-width="1" d="m 61,37.5 a 2.5,2.5 0 1 1 -5,0 2.5,2.5 0 1 1 5,0 z" color="#000" display="inline" enable-background="accumulate" opacity=".3" overflow="visible" transform="matrix(1.6,0,0,1.6,-23.6,-10)" visibility="visible" style="marker:none"/><path id="path3839" fill="url(#radialGradient3841)" fill-opacity="1" fill-rule="nonzero" stroke="none" stroke-width="1" d="m 61,37.5 a 2.5,2.5 0 1 1 -5,0 2.5,2.5 0 1 1 5,0 z" color="#000" display="inline" enable-background="accumulate" opacity=".3" overflow="visible" transform="matrix(1.6,0,0,1.6,-72.6,-15)" visibility="visible" style="marker:none"/><path id="path3843" fill="url(#radialGradient3845)" fill-opacity="1" fill-rule="nonzero" stroke="none" stroke-width="1" d="m 61,37.5 a 2.5,2.5 0 1 1 -5,0 2.5,2.5 0 1 1 5,0 z" color="#000" display="inline" enable-background="accumulate" opacity=".3" overflow="visible" transform="matrix(1.6,0,0,1.6,-59.6,-9)" visibility="visible" style="marker:none"/><path id="path3847" fill="url(#radialGradient3849)" fill-opacity="1" fill-rule="nonzero" stroke="none" stroke-width="1" d="m 61,37.5 a 2.5,2.5 0 1 1 -5,0 2.5,2.5 0 1 1 5,0 z" color="#000" display="inline" enable-background="accumulate" opacity=".3" overflow="visible" transform="translate(-27,2.5)" visibility="visible" style="marker:none"/><path id="path3851" fill="url(#radialGradient3853)" fill-opacity="1" fill-rule="nonzero" stroke="none" stroke-width="1" d="m 61,37.5 a 2.5,2.5 0 1 1 -5,0 2.5,2.5 0 1 1 5,0 z" color="#000" display="inline" enable-background="accumulate" opacity=".3" overflow="visible" transform="translate(9,4.5)" visibility="visible" style="marker:none"/><path id="path3855" fill="url(#radialGradient3857)" fill-opacity="1" fill-rule="nonzero" stroke="none" stroke-width="1" d="m 61,37.5 a 2.5,2.5 0 1 1 -5,0 2.5,2.5 0 1 1 5,0 z" color="#000" display="inline" enable-background="accumulate" opacity=".3" overflow="visible" transform="translate(21,6.5)" visibility="visible" style="marker:none"/><path id="path3859" fill="url(#radialGradient3861)" fill-opacity="1" fill-rule="nonzero" stroke="none" stroke-width="1" d="m 61,37.5 a 2.5,2.5 0 1 1 -5,0 2.5,2.5 0 1 1 5,0 z" color="#000" display="inline" enable-background="accumulate" opacity=".3" overflow="visible" transform="translate(-35,12.5)" visibility="visible" style="marker:none"/><path id="path3863" fill="#fff" fill-opacity="1" fill-rule="nonzero" stroke="none" stroke-width="1" d="m 61,37.5 a 2.5,2.5 0 1 1 -5,0 2.5,2.5 0 1 1 5,0 z" color="#000" display="inline" enable-background="accumulate" opacity=".504" overflow="visible" transform="matrix(0.4,0,0,0.4,39.6,24)" visibility="visible" style="marker:none"/></g><rect id="rect3063" width="18" height="14" x="-27" y="3" fill="red" fill-opacity="1" fill-rule="nonzero" stroke="none" stroke-width=".5" color="#000" display="inline" enable-background="accumulate" font-size="2" opacity=".6" overflow="visible" rx=".75" ry=".75" visibility="visible" style="marker:none"/><path id="rect3065" fill="#fff" fill-opacity="1" fill-rule="nonzero" stroke="none" stroke-width=".5" d="m 3,18.25 0,1 C 3,19.6655 3.3345,20 3.75,20 l 16.5,0 C 20.6655,20 21,19.6655 21,19.25 l 0,-1 C 21,18.6655 20.6655,19 20.25,19 L 3.75,19 C 3.3345,19 3,18.6655 3,18.25 z" color="#000" display="inline" enable-background="accumulate" font-size="2" opacity=".6" overflow="visible" transform="translate(0,-2)" visibility="visible" style="marker:none"/><path id="rect3070" fill="#000" fill-opacity="1" fill-rule="nonzero" stroke="none" stroke-width=".5" d="M 3.75,5 C 3.3345,5 3,5.3345 3,5.75 l 0,12.5 C 3,18.6655 3.3345,19 3.75,19 l 16.5,0 C 20.6655,19 21,18.6655 21,18.25 L 21,5.75 C 21,5.3345 20.6655,5 20.25,5 L 3.75,5 z m 0.3125,1.0625 15.875,0 0,11.875 -15.875,0 0,-11.875 z" color="#000" display="inline" enable-background="accumulate" font-size="2" opacity=".2" overflow="visible" transform="translate(0,-2)" visibility="visible" style="marker:none"/><path id="rect3849" fill="#fff" fill-opacity="1" fill-rule="evenodd" stroke="none" d="M 4,2 C 2.892,2 2,2.892 2,4 L 2,14.6875 C 5.9802592,11.855798 12.551976,10 20,10 c 0.67508,0 1.340419,0.03274 2,0.0625 L 22,4 C 22,2.892 21.108,2 20,2 L 4,2 z" display="inline" opacity=".365" transform="translate(0,-2)"/></g></svg>