<svg xmlns="http://www.w3.org/2000/svg" xmlns:svg="http://www.w3.org/2000/svg" xmlns:xlink="http://www.w3.org/1999/xlink" id="svg2" width="24" height="24" display="inline" version="1.0"><defs id="defs4"><linearGradient id="linearGradient3327"><stop id="stop3330" offset="0" stop-color="#000" stop-opacity="1"/><stop id="stop3333" offset="1" stop-color="#000" stop-opacity="0"/></linearGradient><linearGradient id="linearGradient3335" x1="11.375" x2="11.375" y1="22" y2="-9.817" gradientUnits="userSpaceOnUse" xlink:href="#linearGradient3327"/><linearGradient id="linearGradient3181" x1="-3.061" x2="-3.061" y1="27.258" y2="7.254" gradientTransform="translate(12.119372,-7.2581977)" gradientUnits="userSpaceOnUse" xlink:href="#ButtonColor"/><linearGradient id="ButtonShadow" x1="9.355" x2="9.355" y1="21.743" y2=".494" gradientTransform="scale(0.9883037,1.0118347)" gradientUnits="userSpaceOnUse"><stop id="stop3277" offset="0" stop-color="#000" stop-opacity=".706"/><stop id="stop3279" offset="1" stop-color="#000" stop-opacity=".157"/></linearGradient><linearGradient id="linearGradient3232"><stop id="stop3234" offset="0" stop-color="#000" stop-opacity="1"/><stop id="stop3236" offset="1" stop-color="#000" stop-opacity="0"/></linearGradient><linearGradient id="linearGradient3221" x1="11" x2="11" y1="14.806" y2="-6" gradientUnits="userSpaceOnUse" xlink:href="#linearGradient3232"/><linearGradient id="ButtonColor" x1="10.32" x2="10.32" y1="21" y2=".999" gradientUnits="userSpaceOnUse"><stop id="stop3189" offset="0" stop-color="#e6e6e6" stop-opacity="1"/><stop id="stop3191" offset="1" stop-color="#f5f5f5" stop-opacity="1"/></linearGradient><linearGradient id="linearGradient38042" x1="9.355" x2="9.355" y1="21.743" y2=".494" gradientTransform="scale(0.9883037,1.0118347)" gradientUnits="userSpaceOnUse" xlink:href="#ButtonShadow"/><filter id="filter3194" width="1.36" height="1.36" x="-.18" y="-.18" color-interpolation-filters="sRGB"><feGaussianBlur id="feGaussianBlur3196" stdDeviation="1.2"/></filter><clipPath id="clipPath2849" clipPathUnits="userSpaceOnUse"><rect id="rect2851" width="20" height="20" x="1" y="1" fill="#fff" fill-opacity="1" fill-rule="evenodd" stroke="none" display="inline" rx="2" ry="2"/></clipPath><linearGradient id="linearGradient3729"><stop id="stop3731" offset="0" stop-color="#2f55cf" stop-opacity="1"/><stop id="stop3733" offset="1" stop-color="#6480dc" stop-opacity="1"/></linearGradient><linearGradient id="linearGradient4359" x1="53.895" x2="53.895" y1="46.001" y2="12.193" gradientTransform="translate(-6.3695831,18.92757)" gradientUnits="userSpaceOnUse" xlink:href="#linearGradient3729"/><linearGradient id="linearGradient3224"><stop id="stop3226" offset="0" stop-color="#2f55cf" stop-opacity="1"/><stop id="stop3228" offset="1" stop-color="#6480dc" stop-opacity="1"/></linearGradient><linearGradient id="linearGradient4627" x1="50.899" x2="50.899" y1="63.671" y2="32.308" gradientTransform="matrix(0.84520723,0,0,0.84520723,13.503076,6.6321256)" gradientUnits="userSpaceOnUse" xlink:href="#linearGradient4604"/><linearGradient id="linearGradient4604"><stop id="stop4606" offset="0" stop-color="#ed6a12" stop-opacity="1"/><stop id="stop4608" offset="1" stop-color="#f48d0b" stop-opacity="1"/></linearGradient><linearGradient id="linearGradient3375"><stop id="stop3377" offset="0" stop-color="#ed6a12" stop-opacity="1"/><stop id="stop3379" offset="1" stop-color="#f48d0b" stop-opacity="1"/></linearGradient><linearGradient id="linearGradient2919" x1="50.899" x2="50.899" y1="63.671" y2="32.308" gradientTransform="matrix(0.24859036,0,0,0.24859036,1.4420812,-3.049375)" gradientUnits="userSpaceOnUse" xlink:href="#linearGradient4604"/><linearGradient id="linearGradient2925" x1="50.899" x2="50.899" y1="63.671" y2="32.308" gradientTransform="matrix(0.24859036,0,0,0.24859036,1.4843602,-3.049375)" gradientUnits="userSpaceOnUse" xlink:href="#linearGradient4604"/><linearGradient id="linearGradient5812" x1="16" x2="16" y1="60" y2="35.917" gradientTransform="translate(14,0)" gradientUnits="userSpaceOnUse" xlink:href="#linearGradient3724-3"/><linearGradient id="linearGradient3724-3"><stop id="stop3726-5" offset="0" stop-color="#f59" stop-opacity="1"/><stop id="stop3728-3" offset="1" stop-color="#ff75ac" stop-opacity="1"/></linearGradient><linearGradient id="linearGradient4346" x1="16" x2="16" y1="60" y2="35.917" gradientTransform="matrix(0.30769231,0,0,0.30769231,1.538462,-4.7461547)" gradientUnits="userSpaceOnUse" xlink:href="#linearGradient3724-3"/><linearGradient id="linearGradient3078" x1="10" x2="10" y1="1" y2="16" gradientTransform="translate(1,-1)" gradientUnits="userSpaceOnUse" xlink:href="#linearGradient3823"/><linearGradient id="linearGradient3823"><stop id="stop3825" offset="0" stop-color="#fff" stop-opacity="1"/><stop id="stop3829" offset="1" stop-color="#fff" stop-opacity="0"/></linearGradient><linearGradient id="linearGradient3845" x1="11" x2="21" y1="19.5" y2="19.5" gradientTransform="translate(1,-1)" gradientUnits="userSpaceOnUse" spreadMethod="reflect" xlink:href="#linearGradient3831"/><linearGradient id="linearGradient3831"><stop id="stop3833" offset="0" stop-color="#fff" stop-opacity="1"/><stop id="stop3821" offset=".75" stop-color="#fff" stop-opacity=".498"/><stop id="stop3835" offset="1" stop-color="#fff" stop-opacity="0"/></linearGradient><linearGradient id="linearGradient3859" x1="10" x2="10" y1="1" y2="16" gradientTransform="translate(1,-1)" gradientUnits="userSpaceOnUse" xlink:href="#linearGradient3823"/></defs><metadata id="metadata7"/><g id="layer1" transform="translate(0,2)"><g id="g3337" display="inline" transform="translate(1,-1)"><rect id="rect3371" width="21" height="21.5" x=".5" y=".5" fill="url(#linearGradient3335)" fill-opacity="1" stroke="none" display="inline" opacity=".3" rx="2.5" ry="2.5"/><rect id="rect2553" width="20" height="20" x="1" y="2" fill="#000" fill-opacity="1" stroke="none" display="inline" opacity=".5" rx="2.381" ry="2.326"/></g><rect id="rect3173" width="20" height="20" x="2" y="0" fill="url(#linearGradient3181)" fill-opacity="1" fill-rule="evenodd" stroke="none" display="inline" rx="2" ry="2"/><path id="rect3050" fill="url(#linearGradient3859)" fill-opacity="1" fill-rule="evenodd" stroke="none" d="M 4,0 C 2.892,0 2,0.892 2,2 l 0,16 c 0,1.108 0.892,2 2,2 l 16,0 c 1.108,0 2,-0.892 2,-2 L 22,2 C 22,0.892 21.108,0 20,0 L 4,0 z m 0,1.03125 16,0 c 0.5497,0 0.96875,0.4190495 0.96875,0.96875 l 0,16 c 0,0.5497 -0.41905,0.96875 -0.96875,0.96875 l -16,0 C 3.4502995,18.96875 3.03125,18.5497 3.03125,18 l 0,-16 C 3.03125,1.4502995 3.4502995,1.03125 4,1.03125 z" display="inline" opacity=".6"/><path id="path3235" fill="url(#linearGradient3845)" fill-opacity="1" fill-rule="evenodd" stroke="none" d="M 4,20 C 2.892,20 2,19.108 2,18 l 0,-1 c 0,1.108 0.892,2 2,2 l 16,0 c 1.108,0 2,-0.892 2,-2 l 0,1 c 0,1.108 -0.892,2 -2,2 L 4,20 z" display="inline" opacity=".35"/></g><g id="layer2" display="inline" transform="translate(0,2)"><rect id="rect2410" width="16" height="16" x="3" y="3" fill="#fff" fill-opacity="1" fill-rule="nonzero" stroke="none" clip-path="url(#clipPath2849)" display="inline" filter="url(#filter3194)" opacity=".15" rx="2" ry="2" transform="translate(1,-1)"/></g><g id="layer4"><rect id="rect2897" width="4" height="1" x="4" y="4" fill="#000" fill-opacity="1" fill-rule="nonzero" stroke="none" stroke-width=".5" color="#000" display="inline" enable-background="accumulate" opacity=".15" overflow="visible" visibility="visible" style="marker:none"/><rect id="rect2899" width="3" height="1" x="9" y="2" fill="#000" fill-opacity="1" fill-rule="nonzero" stroke="none" stroke-width=".5" color="#000" display="inline" enable-background="accumulate" opacity=".15" overflow="visible" transform="translate(0,2)" visibility="visible" style="marker:none"/><rect id="rect2901" width="4" height="1" x="4" y="4" fill="#000" fill-opacity="1" fill-rule="nonzero" stroke="none" stroke-width=".5" color="#000" display="inline" enable-background="accumulate" opacity=".15" overflow="visible" transform="translate(0,2)" visibility="visible" style="marker:none"/><rect id="rect2903" width="2" height="1" x="9" y="4" fill="#000" fill-opacity="1" fill-rule="nonzero" stroke="none" stroke-width=".5" color="#000" display="inline" enable-background="accumulate" opacity=".15" overflow="visible" transform="translate(0,2)" visibility="visible" style="marker:none"/><rect id="rect2910" width="16" height="1" x="4" y="9" fill="#000" fill-opacity="1" fill-rule="nonzero" stroke="none" stroke-width=".5" color="#000" display="inline" enable-background="accumulate" opacity=".15" overflow="visible" visibility="visible" style="marker:none"/><rect id="rect2912" width="10" height="1" x="6" y="11" fill="#000" fill-opacity="1" fill-rule="nonzero" stroke="none" stroke-width=".5" color="#000" display="inline" enable-background="accumulate" opacity=".15" overflow="visible" visibility="visible" style="marker:none"/><rect id="rect2914" width="7" height="1" x="6" y="13" fill="#000" fill-opacity="1" fill-rule="nonzero" stroke="none" stroke-width=".5" color="#000" display="inline" enable-background="accumulate" opacity=".15" overflow="visible" visibility="visible" style="marker:none"/><rect id="rect2916" width="12" height="1" x="6" y="15" fill="#000" fill-opacity="1" fill-rule="nonzero" stroke="none" stroke-width=".5" color="#000" display="inline" enable-background="accumulate" opacity=".15" overflow="visible" visibility="visible" style="marker:none"/><rect id="rect2918" width="4" height="1" x="6" y="17" fill="#000" fill-opacity="1" fill-rule="nonzero" stroke="none" stroke-width=".5" color="#000" display="inline" enable-background="accumulate" opacity=".15" overflow="visible" visibility="visible" style="marker:none"/><rect id="rect2920" width="3" height="1" x="4" y="19" fill="#000" fill-opacity="1" fill-rule="nonzero" stroke="none" stroke-width=".5" color="#000" display="inline" enable-background="accumulate" opacity=".15" overflow="visible" visibility="visible" style="marker:none"/></g><g id="layer3" transform="translate(0,2)"><path id="path3722" fill="url(#linearGradient4346)" fill-opacity="1" stroke="none" d="M 8.3076923,5.7153837 4,10.023076 l 4.3076923,4.307692 0,-1.846154 -2.4615385,-2.461538 2.4615385,-2.4615385 0,-1.8461538 z m 4.4615387,0 -3.0769233,8.6153843 1.5384613,0 3.076923,-8.6153843 -1.538461,0 z m 2.923077,0 0,1.8461538 2.461538,2.4615385 -2.461538,2.461538 0,1.846154 L 20,10.023076 15.692308,5.7153837 z" display="inline"/></g></svg>