<svg xmlns="http://www.w3.org/2000/svg" xmlns:svg="http://www.w3.org/2000/svg" xmlns:xlink="http://www.w3.org/1999/xlink" id="svg2" width="24" height="24" display="inline" version="1.0"><defs id="defs4"><linearGradient id="linearGradient3327"><stop id="stop3330" offset="0" stop-color="#000" stop-opacity="1"/><stop id="stop3333" offset="1" stop-color="#000" stop-opacity="0"/></linearGradient><linearGradient id="linearGradient3335" x1="11.375" x2="11.375" y1="22" y2="-9.817" gradientUnits="userSpaceOnUse" xlink:href="#linearGradient3327"/><linearGradient id="linearGradient3181" x1="-3.061" x2="-3.061" y1="27.258" y2="7.254" gradientTransform="translate(12.119372,-7.2581977)" gradientUnits="userSpaceOnUse" xlink:href="#ButtonColor"/><linearGradient id="ButtonShadow" x1="9.355" x2="9.355" y1="21.743" y2=".494" gradientTransform="scale(0.9883037,1.0118347)" gradientUnits="userSpaceOnUse"><stop id="stop3277" offset="0" stop-color="#000" stop-opacity=".706"/><stop id="stop3279" offset="1" stop-color="#000" stop-opacity=".157"/></linearGradient><linearGradient id="linearGradient3232"><stop id="stop3234" offset="0" stop-color="#000" stop-opacity="1"/><stop id="stop3236" offset="1" stop-color="#000" stop-opacity="0"/></linearGradient><linearGradient id="linearGradient3221" x1="11" x2="11" y1="14.806" y2="-6" gradientUnits="userSpaceOnUse" xlink:href="#linearGradient3232"/><linearGradient id="ButtonColor" x1="10.32" x2="10.32" y1="21" y2=".999" gradientUnits="userSpaceOnUse"><stop id="stop3189" offset="0" stop-color="#e6e6e6" stop-opacity="1"/><stop id="stop3191" offset="1" stop-color="#f5f5f5" stop-opacity="1"/></linearGradient><linearGradient id="linearGradient38042" x1="9.355" x2="9.355" y1="21.743" y2=".494" gradientTransform="scale(0.9883037,1.0118347)" gradientUnits="userSpaceOnUse" xlink:href="#ButtonShadow"/><filter id="filter3194" width="1.36" height="1.36" x="-.18" y="-.18" color-interpolation-filters="sRGB"><feGaussianBlur id="feGaussianBlur3196" stdDeviation="1.2"/></filter><clipPath id="clipPath2849" clipPathUnits="userSpaceOnUse"><rect id="rect2851" width="20" height="20" x="1" y="1" fill="#fff" fill-opacity="1" fill-rule="evenodd" stroke="none" display="inline" rx="2" ry="2"/></clipPath><linearGradient id="linearGradient4855" x1="47.997" x2="90" y1="16.5" y2="16.5" gradientTransform="translate(0,23)" gradientUnits="userSpaceOnUse" spreadMethod="reflect" xlink:href="#linearGradient3681"/><linearGradient id="linearGradient3681"><stop id="stop3683" offset="0" stop-color="#214478" stop-opacity="1"/><stop id="stop3689" offset=".764" stop-color="#214478" stop-opacity="1"/><stop id="stop3685" offset="1" stop-color="#214478" stop-opacity="0"/></linearGradient><linearGradient id="linearGradient3445" x1="47.997" x2="90" y1="16.5" y2="16.5" gradientTransform="matrix(0.23809524,0,0,1,0.571429,-8)" gradientUnits="userSpaceOnUse" spreadMethod="reflect" xlink:href="#linearGradient3681"/><linearGradient id="linearGradient2909" x1="47.997" x2="90" y1="16.5" y2="16.5" gradientTransform="matrix(0.23809524,0,0,1,0.571429,-7)" gradientUnits="userSpaceOnUse" spreadMethod="reflect" xlink:href="#linearGradient3681"/><linearGradient id="linearGradient2913" x1="47.997" x2="90" y1="16.5" y2="16.5" gradientTransform="matrix(0.23809524,0,0,1,0.571429,-4)" gradientUnits="userSpaceOnUse" spreadMethod="reflect" xlink:href="#linearGradient3681"/><linearGradient id="linearGradient2917" x1="47.997" x2="90" y1="16.5" y2="16.5" gradientTransform="matrix(0.23809524,0,0,1,0.571429,-1)" gradientUnits="userSpaceOnUse" spreadMethod="reflect" xlink:href="#linearGradient3681"/><linearGradient id="linearGradient3078" x1="10" x2="10" y1="1" y2="16" gradientTransform="translate(1,-1)" gradientUnits="userSpaceOnUse" xlink:href="#linearGradient3823"/><linearGradient id="linearGradient3823"><stop id="stop3825" offset="0" stop-color="#fff" stop-opacity="1"/><stop id="stop3829" offset="1" stop-color="#fff" stop-opacity="0"/></linearGradient><linearGradient id="linearGradient3845" x1="11" x2="21" y1="19.5" y2="19.5" gradientTransform="translate(1,1)" gradientUnits="userSpaceOnUse" spreadMethod="reflect" xlink:href="#linearGradient3831"/><linearGradient id="linearGradient3831"><stop id="stop3833" offset="0" stop-color="#fff" stop-opacity="1"/><stop id="stop3821" offset=".75" stop-color="#fff" stop-opacity=".498"/><stop id="stop3835" offset="1" stop-color="#fff" stop-opacity="0"/></linearGradient><linearGradient id="linearGradient3859" x1="10" x2="10" y1="1" y2="16" gradientTransform="translate(1,1)" gradientUnits="userSpaceOnUse" xlink:href="#linearGradient3823"/></defs><metadata id="metadata7"/><g id="layer1" transform="translate(0,2)"><g id="g3337" display="inline" transform="translate(1,-1)"><rect id="rect3371" width="21" height="21.5" x=".5" y=".5" fill="url(#linearGradient3335)" fill-opacity="1" stroke="none" display="inline" opacity=".3" rx="2.5" ry="2.5"/><rect id="rect2553" width="20" height="20" x="1" y="2" fill="#000" fill-opacity="1" stroke="none" display="inline" opacity=".5" rx="2.381" ry="2.326"/></g><rect id="rect3173" width="20" height="20" x="2" y="0" fill="url(#linearGradient3181)" fill-opacity="1" fill-rule="evenodd" stroke="none" display="inline" rx="2" ry="2"/></g><g id="layer2" display="inline" transform="translate(0,2)"><rect id="rect2410" width="16" height="16" x="3" y="3" fill="#fff" fill-opacity="1" fill-rule="nonzero" stroke="none" clip-path="url(#clipPath2849)" display="inline" filter="url(#filter3194)" opacity=".15" rx="2" ry="2" transform="translate(1,-1)"/></g><g id="layer3" transform="translate(0,2)"><rect id="rect4860" width="1" height="20" x="4" y="0" fill="#faa" fill-opacity="1" fill-rule="nonzero" stroke="none" stroke-width="2" color="#000" display="inline" enable-background="accumulate" opacity=".5" overflow="visible" visibility="visible" style="marker:none"/><rect id="rect2884" width="1" height="20" x="19" y="0" fill="#faa" fill-opacity="1" fill-rule="nonzero" stroke="none" stroke-width="2" color="#000" display="inline" enable-background="accumulate" opacity=".5" overflow="visible" visibility="visible" style="marker:none"/><rect id="rect2907" width="20" height="1" x="2" y="9" fill="url(#linearGradient2909)" fill-opacity="1" fill-rule="nonzero" stroke="none" stroke-width="2" color="#000" display="inline" enable-background="accumulate" opacity=".2" overflow="visible" visibility="visible" style="marker:none"/><rect id="rect2911" width="20" height="1" x="2" y="12" fill="url(#linearGradient2913)" fill-opacity="1" fill-rule="nonzero" stroke="none" stroke-width="2" color="#000" display="inline" enable-background="accumulate" opacity=".2" overflow="visible" visibility="visible" style="marker:none"/><rect id="rect2915" width="20" height="1" x="2" y="15" fill="url(#linearGradient2917)" fill-opacity="1" fill-rule="nonzero" stroke="none" stroke-width="2" color="#000" display="inline" enable-background="accumulate" opacity=".2" overflow="visible" visibility="visible" style="marker:none"/><path id="path3696" fill="#465f86" fill-opacity="1" stroke="none" d="m 7.5577377,6.8140367 0,0.1859633 -1.5473549,0 0,-0.1859633 0.5333287,-0.094736 1.6034947,-4.4631189 0.6666609,0 1.6666529,4.4631189 0.596486,0.094736 0,0.1859633 -1.9894571,0 0,-0.1859633 0.6315734,-0.094736 -0.4666626,-1.3578829 -1.8526153,0 -0.4736801,1.3578829 0.6315734,0.094736 m 0.7543794,-4.0525962 -0.8070105,2.2841906 1.6385822,0 -0.8315717,-2.2841906" font-family="Liberation Serif" font-size="7.186" font-stretch="normal" font-style="normal" font-variant="normal" font-weight="normal" text-anchor="start" writing-mode="lr-tb" style="text-align:start;line-height:125%;-inkscape-font-specification:Liberation Serif"/><path id="path3698" fill="#465f86" fill-opacity="1" stroke="none" d="m 13.624547,5.2596643 c -2e-6,-0.2385924 -0.02222,-0.4385904 -0.06667,-0.5999947 -0.0421,-0.1637388 -0.104091,-0.2959012 -0.185959,-0.3964878 -0.07953,-0.1005811 -0.176609,-0.1719254 -0.291226,-0.2140332 -0.112281,-0.044441 -0.237426,-0.066663 -0.375435,-0.066666 -0.05614,3e-6 -0.11696,0.00234 -0.182454,0.00702 -0.06316,0.00468 -0.126317,0.012868 -0.189472,0.024561 -0.06316,0.00936 -0.123977,0.021055 -0.182455,0.035087 C 12.092396,4.0631885 12.042104,4.0795625 12,4.0982725 l 0,2.6140122 c 0.09824,0.018714 0.210523,0.032749 0.336839,0.042105 0.126313,0.00936 0.249119,0.014035 0.368418,0.014035 0.322802,2e-7 0.556718,-0.1263144 0.701748,-0.3789441 0.145026,-0.2526285 0.21754,-0.629233 0.217542,-1.1298147 m -2.206998,-3.0034825 -0.480698,-0.08421 0,-0.1578933 1.063149,0 0,1.178937 c -10e-7,0.044448 -0.0012,0.095909 -0.0035,0.1543846 -10e-7,0.056144 -0.0012,0.115792 -0.0035,0.1789458 -1e-6,0.060822 -0.0023,0.1228093 -0.007,0.1859633 -0.0023,0.060821 -0.0047,0.1193004 -0.007,0.1754371 0.105261,-0.081867 0.232745,-0.1473639 0.382452,-0.1964895 0.152044,-0.051458 0.319294,-0.077189 0.50175,-0.077192 0.449117,3.4e-6 0.792973,0.1368441 1.03157,0.4105227 0.240931,0.2713454 0.361397,0.6830373 0.361401,1.2350769 -4e-6,0.2783616 -0.03041,0.5298212 -0.09123,0.7543794 -0.06082,0.222221 -0.154387,0.4116929 -0.280699,0.5684161 -0.126317,0.156724 -0.28655,0.2771907 -0.480697,0.3614003 -0.191814,0.08421 -0.419882,0.1263147 -0.684205,0.1263147 -0.112281,0 -0.2269,-0.00702 -0.343857,-0.021052 C 12.260815,7.0374265 12.147366,7.0210524 12.035088,7 11.922807,6.9789476 11.814036,6.9543864 11.708775,6.9263164 11.603512,6.8959074 11.506437,6.8631592 11.417549,6.8280717 l 0,-4.5718899" font-family="Liberation Serif" font-size="7.186" font-stretch="normal" font-style="normal" font-variant="normal" font-weight="normal" text-anchor="start" writing-mode="lr-tb" style="text-align:start;line-height:125%;-inkscape-font-specification:Liberation Serif"/><path id="path3700" fill="#465f86" fill-opacity="1" stroke="none" d="M 17.78235,6.8000017 C 17.72153,6.8444457 17.649015,6.8842117 17.564808,6.919299 17.480598,6.952047 17.390538,6.978948 17.294635,7 c -0.09591,0.023392 -0.196491,0.040935 -0.301751,0.052631 -0.102926,0.011696 -0.203509,0.017544 -0.301752,0.017544 -0.285379,0 -0.529821,-0.038596 -0.733327,-0.1157884 C 15.756636,6.874855 15.591726,6.7602363 15.463072,6.6105297 15.334418,6.460824 15.239682,6.2783696 15.178864,6.0631661 c -0.06082,-0.2175408 -0.09123,-0.4631525 -0.09123,-0.7368357 0,-0.2994106 0.0386,-0.556718 0.115789,-0.7719231 0.07953,-0.2175393 0.189471,-0.3953153 0.329821,-0.5333286 0.140349,-0.1403466 0.306429,-0.2432695 0.498242,-0.3087693 0.194148,-0.065493 0.405842,-0.098241 0.635082,-0.098245 0.18947,3.4e-6 0.373094,0.011699 0.550872,0.035087 0.177774,0.021056 0.339176,0.045617 0.484206,0.073684 l 0,0.9192902 -0.19298,0 -0.150876,-0.5824511 c -0.08655,-0.049119 -0.191814,-0.088885 -0.315787,-0.1192972 -0.121638,-0.030406 -0.249123,-0.04561 -0.382453,-0.045614 -0.152047,3.1e-6 -0.286549,0.028073 -0.403505,0.08421 -0.11462,0.053804 -0.212865,0.1391829 -0.294734,0.2561381 -0.07953,0.1169607 -0.140351,0.2654972 -0.182455,0.4456101 -0.03977,0.1801175 -0.05965,0.3953201 -0.05965,0.6456084 -10e-7,0.210526 0.01754,0.4011674 0.05263,0.5719248 0.03509,0.1684206 0.09707,0.3122788 0.185963,0.4315752 0.08889,0.1192978 0.208184,0.2116945 0.357892,0.2771906 0.152043,0.065497 0.343854,0.098245 0.575433,0.098245 0.07953,3e-7 0.16023,-0.00234 0.242103,-0.00702 0.08421,-0.00702 0.164909,-0.015204 0.242103,-0.024561 0.07953,-0.011696 0.153213,-0.024561 0.221051,-0.038596 0.07017,-0.014035 0.13216,-0.029239 0.185963,-0.045614 l 0,0.2105244" font-family="Liberation Serif" font-size="7.186" font-stretch="normal" font-style="normal" font-variant="normal" font-weight="normal" text-anchor="start" writing-mode="lr-tb" style="text-align:start;line-height:125%;-inkscape-font-specification:Liberation Serif"/><rect id="rect3683" width="12" height="1" x="6" y="9" fill="#4873b8" fill-opacity="1" fill-rule="nonzero" stroke="none" stroke-width="2" color="#000" display="inline" enable-background="accumulate" opacity=".3" overflow="visible" visibility="visible" style="marker:none"/><rect id="rect3691" width="1" height="1" x="17" y="9" fill="#4873b8" fill-opacity="1" fill-rule="nonzero" stroke="none" stroke-width="2" color="#000" display="inline" enable-background="accumulate" opacity=".3" overflow="visible" visibility="visible" style="marker:none"/><rect id="rect3693" width="1" height="1" x="14" y="9" fill="#4873b8" fill-opacity="1" fill-rule="nonzero" stroke="none" stroke-width="2" color="#000" display="inline" enable-background="accumulate" opacity=".3" overflow="visible" visibility="visible" style="marker:none"/><rect id="rect3695" width="3" height="1" x="10" y="9" fill="#4873b8" fill-opacity="1" fill-rule="nonzero" stroke="none" stroke-width="2" color="#000" display="inline" enable-background="accumulate" opacity=".3" overflow="visible" visibility="visible" style="marker:none"/><rect id="rect3697" width="3" height="1" x="6" y="9" fill="#4873b8" fill-opacity="1" fill-rule="nonzero" stroke="none" stroke-width="2" color="#000" display="inline" enable-background="accumulate" opacity=".3" overflow="visible" visibility="visible" style="marker:none"/><rect id="rect3721" width="1" height="1" x="6" y="9" fill="#4873b8" fill-opacity="1" fill-rule="nonzero" stroke="none" stroke-width="2" color="#000" display="inline" enable-background="accumulate" opacity=".3" overflow="visible" visibility="visible" style="marker:none"/><rect id="rect3724" width="12" height="1" x="6" y="12" fill="#4873b8" fill-opacity="1" fill-rule="nonzero" stroke="none" stroke-width="2" color="#000" display="inline" enable-background="accumulate" opacity=".3" overflow="visible" visibility="visible" style="marker:none"/><rect id="rect3726" width="1" height="1" x="16" y="12" fill="#4873b8" fill-opacity="1" fill-rule="nonzero" stroke="none" stroke-width="2" color="#000" display="inline" enable-background="accumulate" opacity=".3" overflow="visible" visibility="visible" style="marker:none"/><rect id="rect3728" width="1" height="1" x="14" y="12" fill="#4873b8" fill-opacity="1" fill-rule="nonzero" stroke="none" stroke-width="2" color="#000" display="inline" enable-background="accumulate" opacity=".3" overflow="visible" visibility="visible" style="marker:none"/><rect id="rect3730" width="3" height="1" x="12" y="12" fill="#4873b8" fill-opacity="1" fill-rule="nonzero" stroke="none" stroke-width="2" color="#000" display="inline" enable-background="accumulate" opacity=".3" overflow="visible" visibility="visible" style="marker:none"/><rect id="rect3732" width="3" height="1" x="6" y="12" fill="#4873b8" fill-opacity="1" fill-rule="nonzero" stroke="none" stroke-width="2" color="#000" display="inline" enable-background="accumulate" opacity=".3" overflow="visible" visibility="visible" style="marker:none"/><rect id="rect3734" width="1" height="1" x="7" y="12" fill="#4873b8" fill-opacity="1" fill-rule="nonzero" stroke="none" stroke-width="2" color="#000" display="inline" enable-background="accumulate" opacity=".3" overflow="visible" visibility="visible" style="marker:none"/><rect id="rect3736" width="8.97" height="1" x="6" y="15" fill="#4873b8" fill-opacity="1" fill-rule="nonzero" stroke="none" stroke-width="2" color="#000" display="inline" enable-background="accumulate" opacity=".3" overflow="visible" visibility="visible" style="marker:none"/><rect id="rect3740" width="1" height="1" x="14" y="15" fill="#4873b8" fill-opacity="1" fill-rule="nonzero" stroke="none" stroke-width="2" color="#000" display="inline" enable-background="accumulate" opacity=".3" overflow="visible" visibility="visible" style="marker:none"/><rect id="rect3742" width="1.839" height="1" x="10.151" y="14.95" fill="#4873b8" fill-opacity="1" fill-rule="nonzero" stroke="none" stroke-width="2" color="#000" display="inline" enable-background="accumulate" opacity=".3" overflow="visible" visibility="visible" style="marker:none"/><rect id="rect3744" width="3" height="1" x="6" y="15" fill="#4873b8" fill-opacity="1" fill-rule="nonzero" stroke="none" stroke-width="2" color="#000" display="inline" enable-background="accumulate" opacity=".3" overflow="visible" visibility="visible" style="marker:none"/><rect id="rect3746" width="1" height="1" x="10" y="15" fill="#4873b8" fill-opacity="1" fill-rule="nonzero" stroke="none" stroke-width="2" color="#000" display="inline" enable-background="accumulate" opacity=".3" overflow="visible" visibility="visible" style="marker:none"/></g><g id="layer4"><path id="rect3050" fill="url(#linearGradient3859)" fill-opacity="1" fill-rule="evenodd" stroke="none" d="M 4,2 C 2.892,2 2,2.892 2,4 l 0,16 c 0,1.108 0.892,2 2,2 l 16,0 c 1.108,0 2,-0.892 2,-2 L 22,4 C 22,2.892 21.108,2 20,2 L 4,2 z m 0,1.03125 16,0 c 0.5497,0 0.96875,0.4190495 0.96875,0.96875 l 0,16 c 0,0.5497 -0.41905,0.96875 -0.96875,0.96875 l -16,0 C 3.4502995,20.96875 3.03125,20.5497 3.03125,20 l 0,-16 C 3.03125,3.4502995 3.4502995,3.03125 4,3.03125 z" display="inline" opacity=".6"/><path id="path3235" fill="url(#linearGradient3845)" fill-opacity="1" fill-rule="evenodd" stroke="none" d="M 4,22 C 2.892,22 2,21.108 2,20 l 0,-1 c 0,1.108 0.892,2 2,2 l 16,0 c 1.108,0 2,-0.892 2,-2 l 0,1 c 0,1.108 -0.892,2 -2,2 L 4,22 z" display="inline" opacity=".35"/></g></svg>