<svg xmlns="http://www.w3.org/2000/svg" xmlns:svg="http://www.w3.org/2000/svg" xmlns:xlink="http://www.w3.org/1999/xlink" id="svg2" width="24" height="24" display="inline" version="1.0"><defs id="defs4"><linearGradient id="linearGradient3327"><stop id="stop3330" offset="0" stop-color="#000" stop-opacity="1"/><stop id="stop3333" offset="1" stop-color="#000" stop-opacity="0"/></linearGradient><linearGradient id="linearGradient3335" x1="11.375" x2="11.375" y1="22" y2="-9.817" gradientUnits="userSpaceOnUse" xlink:href="#linearGradient3327"/><linearGradient id="linearGradient3181" x1="-3.061" x2="-3.061" y1="27.258" y2="7.254" gradientTransform="translate(12.119372,-7.2581977)" gradientUnits="userSpaceOnUse" xlink:href="#ButtonColor"/><linearGradient id="ButtonShadow" x1="9.355" x2="9.355" y1="21.743" y2=".494" gradientTransform="scale(0.9883037,1.0118347)" gradientUnits="userSpaceOnUse"><stop id="stop3277" offset="0" stop-color="#000" stop-opacity=".706"/><stop id="stop3279" offset="1" stop-color="#000" stop-opacity=".157"/></linearGradient><linearGradient id="linearGradient3232"><stop id="stop3234" offset="0" stop-color="#000" stop-opacity="1"/><stop id="stop3236" offset="1" stop-color="#000" stop-opacity="0"/></linearGradient><linearGradient id="linearGradient3221" x1="11" x2="11" y1="14.806" y2="-6" gradientUnits="userSpaceOnUse" xlink:href="#linearGradient3232"/><linearGradient id="ButtonColor" x1="10.32" x2="10.32" y1="21" y2=".999" gradientUnits="userSpaceOnUse"><stop id="stop3189" offset="0" stop-color="#e6e6e6" stop-opacity="1"/><stop id="stop3191" offset="1" stop-color="#f5f5f5" stop-opacity="1"/></linearGradient><linearGradient id="linearGradient38042" x1="9.355" x2="9.355" y1="21.743" y2=".494" gradientTransform="scale(0.9883037,1.0118347)" gradientUnits="userSpaceOnUse" xlink:href="#ButtonShadow"/><filter id="filter3194" width="1.36" height="1.36" x="-.18" y="-.18" color-interpolation-filters="sRGB"><feGaussianBlur id="feGaussianBlur3196" stdDeviation="1.2"/></filter><clipPath id="clipPath2849" clipPathUnits="userSpaceOnUse"><rect id="rect2851" width="20" height="20" x="1" y="1" fill="#fff" fill-opacity="1" fill-rule="evenodd" stroke="none" display="inline" rx="2" ry="2"/></clipPath><linearGradient id="linearGradient3078" x1="10" x2="10" y1="1" y2="16" gradientTransform="translate(1,-1)" gradientUnits="userSpaceOnUse" xlink:href="#linearGradient3823"/><linearGradient id="linearGradient3823"><stop id="stop3825" offset="0" stop-color="#fff" stop-opacity="1"/><stop id="stop3829" offset="1" stop-color="#fff" stop-opacity="0"/></linearGradient><linearGradient id="linearGradient3845" x1="11" x2="21" y1="19.5" y2="19.5" gradientTransform="translate(1,-1)" gradientUnits="userSpaceOnUse" spreadMethod="reflect" xlink:href="#linearGradient3831"/><linearGradient id="linearGradient3831"><stop id="stop3833" offset="0" stop-color="#fff" stop-opacity="1"/><stop id="stop3821" offset=".75" stop-color="#fff" stop-opacity=".498"/><stop id="stop3835" offset="1" stop-color="#fff" stop-opacity="0"/></linearGradient><linearGradient id="linearGradient3859" x1="10" x2="10" y1="1" y2="16" gradientTransform="translate(1,-1)" gradientUnits="userSpaceOnUse" xlink:href="#linearGradient3823"/></defs><metadata id="metadata7"/><g id="layer1" transform="translate(0,2)"><g id="g3337" display="inline" transform="translate(1,-1)"><rect id="rect3371" width="21" height="21.5" x=".5" y=".5" fill="url(#linearGradient3335)" fill-opacity="1" stroke="none" display="inline" opacity=".3" rx="2.5" ry="2.5"/><rect id="rect2553" width="20" height="20" x="1" y="2" fill="#000" fill-opacity="1" stroke="none" display="inline" opacity=".5" rx="2.381" ry="2.326"/></g><rect id="rect3173" width="20" height="20" x="2" y="0" fill="url(#linearGradient3181)" fill-opacity="1" fill-rule="evenodd" stroke="none" display="inline" rx="2" ry="2"/><path id="rect3050" fill="url(#linearGradient3859)" fill-opacity="1" fill-rule="evenodd" stroke="none" d="M 4,0 C 2.892,0 2,0.892 2,2 l 0,16 c 0,1.108 0.892,2 2,2 l 16,0 c 1.108,0 2,-0.892 2,-2 L 22,2 C 22,0.892 21.108,0 20,0 L 4,0 z m 0,1.03125 16,0 c 0.5497,0 0.96875,0.4190495 0.96875,0.96875 l 0,16 c 0,0.5497 -0.41905,0.96875 -0.96875,0.96875 l -16,0 C 3.4502995,18.96875 3.03125,18.5497 3.03125,18 l 0,-16 C 3.03125,1.4502995 3.4502995,1.03125 4,1.03125 z" display="inline" opacity=".6"/><path id="path3235" fill="url(#linearGradient3845)" fill-opacity="1" fill-rule="evenodd" stroke="none" d="M 4,20 C 2.892,20 2,19.108 2,18 l 0,-1 c 0,1.108 0.892,2 2,2 l 16,0 c 1.108,0 2,-0.892 2,-2 l 0,1 c 0,1.108 -0.892,2 -2,2 L 4,20 z" display="inline" opacity=".35"/></g><g id="layer2" display="inline" transform="translate(0,2)"><rect id="rect2410" width="16" height="16" x="3" y="3" fill="#fff" fill-opacity="1" fill-rule="nonzero" stroke="none" clip-path="url(#clipPath2849)" display="inline" filter="url(#filter3194)" opacity=".15" rx="2" ry="2" transform="translate(1,-1)"/></g><g id="layer3" transform="translate(0,2)"><path id="path3666" fill="#4d4d4d" fill-opacity="1" stroke="none" d="M 8.1208669,7 7.570574,5.5917969 l -2.194336,0 L 4.8225271,7 4.1457693,7 l 1.965332,-4.815918 0.7416992,0 L 8.787371,7 8.1208669,7 M 6.7570974,3.4931641 C 6.7206365,3.4020218 6.6853175,3.3097368 6.6511404,3.2163086 6.6192368,3.122888 6.5907538,3.0385782 6.5656911,2.9633789 6.5406236,2.8859091 6.5189765,2.822107 6.5007497,2.7719727 c -0.015953,-0.052405 -0.025067,-0.084306 -0.027344,-0.095703 -0.00456,0.011398 -0.014813,0.043299 -0.030762,0.095703 -0.015953,0.052413 -0.0376,0.1173543 -0.064941,0.1948242 -0.025067,0.077478 -0.05469,0.162927 -0.088867,0.2563476 C 6.2569325,3.3165727 6.2238922,3.4088578 6.1897146,3.5 l -0.6152344,1.5825195 1.8012695,0 -0.6186523,-1.5893554" font-family="Liberation Sans" font-size="7" font-stretch="normal" font-style="normal" font-variant="normal" font-weight="normal" text-anchor="start" writing-mode="lr-tb" style="text-align:start;line-height:125%;-inkscape-font-specification:Abandoned Bitplane"/><path id="path3668" fill="#4d4d4d" fill-opacity="1" stroke="none" d="m 13.975586,5.6430664 c -4e-6,0.2438162 -0.04786,0.4523121 -0.143555,0.6254883 -0.09571,0.170899 -0.22445,0.3110356 -0.38623,0.4204101 C 13.284013,6.7960614 13.096025,6.8746746 12.881836,6.9248047 12.66764,6.9749349 12.442055,7 12.205078,7 L 10.25,7 l 0,-4.815918 1.75,0 c 0.266599,4.8e-6 0.504717,0.022791 0.714355,0.068359 0.209633,0.043299 0.387367,0.1127976 0.533204,0.2084961 0.145829,0.095708 0.256343,0.217615 0.331543,0.3657227 0.07747,0.1458373 0.116206,0.3212929 0.116211,0.5263671 -5e-6,0.1344437 -0.01937,0.2609084 -0.05811,0.3793946 -0.03646,0.1184927 -0.09343,0.2267283 -0.170898,0.324707 -0.0752,0.095706 -0.170902,0.1788765 -0.28711,0.2495117 -0.113935,0.068362 -0.247236,0.1196315 -0.399902,0.1538086 0.193681,0.022789 0.36458,0.067222 0.512695,0.1333008 0.150387,0.066083 0.275712,0.1503929 0.375977,0.2529297 0.100256,0.1025411 0.176591,0.2221699 0.229004,0.3588867 0.0524,0.1344418 0.07861,0.280275 0.07861,0.4375 M 13.039063,3.4316406 C 13.039059,3.1718788 12.950192,2.9861694 12.772461,2.8745117 12.594724,2.7628623 12.337237,2.7070355 12,2.7070313 l -1.097168,0 0,1.524414 1.097168,0 c 0.191404,2.8e-6 0.353187,-0.018226 0.485352,-0.054687 0.132158,-0.038734 0.239254,-0.092282 0.321289,-0.1606445 0.08203,-0.070635 0.141272,-0.1549448 0.177734,-0.2529297 0.03646,-0.097978 0.05468,-0.2084927 0.05469,-0.331543 M 13.31592,5.5917974 C 13.315916,5.4391297 13.28743,5.309247 13.23047,5.2021489 13.175778,5.095054 13.096025,5.0073262 12.991211,4.9389648 12.88639,4.8706076 12.759925,4.8204774 12.611816,4.7885742 12.46598,4.7566754 12.301918,4.7407249 12.119629,4.7407227 l -1.216797,0 0,1.7363281 1.268066,0 c 0.166339,5e-7 0.319008,-0.013671 0.458008,-0.041016 0.141273,-0.027343 0.262041,-0.075195 0.362305,-0.1435547 0.102536,-0.068359 0.182288,-0.1595044 0.239258,-0.2734375 0.05696,-0.1139312 0.08544,-0.2563465 0.08545,-0.4272461" font-family="Liberation Sans" font-size="7" font-stretch="normal" font-style="normal" font-variant="normal" font-weight="normal" text-anchor="start" writing-mode="lr-tb" style="text-align:start;line-height:125%;-inkscape-font-specification:Abandoned Bitplane"/><path id="path3670" fill="#4d4d4d" fill-opacity="1" stroke="none" d="m 17.559591,2.6455078 c -0.27344,4.4e-6 -0.516116,0.045577 -0.728028,0.1367188 -0.209637,0.09115 -0.386232,0.2210326 -0.529785,0.3896484 -0.141277,0.1686235 -0.248373,0.3714227 -0.321289,0.6083984 -0.07292,0.2369822 -0.109376,0.5001655 -0.109375,0.7895508 -1e-6,0.2893902 0.03874,0.5548522 0.116211,0.7963867 0.07975,0.2392592 0.192544,0.4454765 0.338379,0.6186524 0.14811,0.1731779 0.328123,0.3076179 0.540039,0.4033203 0.214191,0.095704 0.454587,0.1435551 0.721191,0.1435547 0.186847,4e-7 0.356605,-0.023925 0.509278,-0.071777 0.154944,-0.05013 0.293942,-0.1196282 0.416992,-0.2084961 0.125322,-0.088866 0.236975,-0.1936839 0.334961,-0.3144531 0.09798,-0.1230457 0.184566,-0.258625 0.259766,-0.4067383 l 0.533203,0.2666016 c -0.08659,0.180014 -0.19369,0.3474943 -0.321289,0.5024414 -0.127609,0.1549485 -0.277999,0.2893884 -0.451172,0.4033203 -0.170903,0.1139325 -0.365727,0.2039389 -0.584473,0.2700195 -0.216474,0.063802 -0.45915,0.095703 -0.728027,0.095703 -0.389651,-1e-7 -0.731448,-0.061524 -1.025391,-0.1845703 C 16.239114,6.7584638 15.99416,6.5852869 15.795919,6.3642578 15.599955,6.1409514 15.452982,5.8766287 15.355001,5.5712891 15.257019,5.2659523 15.208028,4.932131 15.208028,4.5698242 c 0,-0.3759737 0.05127,-0.7154916 0.153809,-1.0185547 0.104817,-0.3030561 0.256347,-0.5605428 0.45459,-0.7724609 0.200519,-0.2141883 0.446613,-0.3782506 0.738281,-0.4921875 0.291665,-0.1162061 0.624347,-0.1743115 0.998047,-0.1743164 0.512692,4.9e-6 0.941077,0.1002652 1.285156,0.3007812 0.344071,0.2005253 0.597001,0.4978882 0.758789,0.8920899 L 18.978048,3.5102539 C 18.932471,3.3963252 18.870947,3.2880896 18.793477,3.1855469 18.716,3.0807331 18.619157,2.988448 18.50295,2.9086914 18.386736,2.828943 18.250017,2.765141 18.092794,2.7172852 17.937843,2.6694379 17.760109,2.6455122 17.559591,2.6455078" font-family="Liberation Sans" font-size="7" font-stretch="normal" font-style="normal" font-variant="normal" font-weight="normal" text-anchor="start" writing-mode="lr-tb" style="text-align:start;line-height:125%;-inkscape-font-specification:Abandoned Bitplane"/><rect id="rect3677" width="16" height="1" x="4" y="9" fill="#4d4d4d" fill-opacity="1" fill-rule="nonzero" stroke="none" stroke-width="2" color="#000" display="inline" enable-background="accumulate" opacity=".2" overflow="visible" visibility="visible" style="marker:none"/><rect id="rect3679" width="16" height="1" x="4" y="11" fill="#4d4d4d" fill-opacity="1" fill-rule="nonzero" stroke="none" stroke-width="2" color="#000" display="inline" enable-background="accumulate" opacity=".2" overflow="visible" visibility="visible" style="marker:none"/><rect id="rect3681" width="16" height="1" x="4" y="13" fill="#4d4d4d" fill-opacity="1" fill-rule="nonzero" stroke="none" stroke-width="2" color="#000" display="inline" enable-background="accumulate" opacity=".2" overflow="visible" visibility="visible" style="marker:none"/><rect id="rect3683" width="12" height="1" x="4" y="15" fill="#4d4d4d" fill-opacity="1" fill-rule="nonzero" stroke="none" stroke-width="2" color="#000" display="inline" enable-background="accumulate" opacity=".2" overflow="visible" visibility="visible" style="marker:none"/><rect id="rect3685" width="4" height="1" x="4" y="9" fill="#4d4d4d" fill-opacity="1" fill-rule="nonzero" stroke="none" stroke-width="2" color="#000" display="inline" enable-background="accumulate" opacity=".2" overflow="visible" visibility="visible" style="marker:none"/><rect id="rect3687" width="6" height="1" x="10" y="9" fill="#4d4d4d" fill-opacity="1" fill-rule="nonzero" stroke="none" stroke-width="2" color="#000" display="inline" enable-background="accumulate" opacity=".2" overflow="visible" visibility="visible" style="marker:none"/><rect id="rect3689" width="1" height="1" x="18" y="9" fill="#4d4d4d" fill-opacity="1" fill-rule="nonzero" stroke="none" stroke-width="2" color="#000" display="inline" enable-background="accumulate" opacity=".2" overflow="visible" visibility="visible" style="marker:none"/><rect id="rect3691" width="1" height="1" x="15" y="15" fill="#4d4d4d" fill-opacity="1" fill-rule="nonzero" stroke="none" stroke-width="2" color="#000" display="inline" enable-background="accumulate" opacity=".2" overflow="visible" visibility="visible" style="marker:none"/><rect id="rect3693" width="1" height="1" x="12" y="15" fill="#4d4d4d" fill-opacity="1" fill-rule="nonzero" stroke="none" stroke-width="2" color="#000" display="inline" enable-background="accumulate" opacity=".2" overflow="visible" visibility="visible" style="marker:none"/><rect id="rect3695" width="3" height="1" x="8" y="15" fill="#4d4d4d" fill-opacity="1" fill-rule="nonzero" stroke="none" stroke-width="2" color="#000" display="inline" enable-background="accumulate" opacity=".2" overflow="visible" visibility="visible" style="marker:none"/><rect id="rect3697" width="3" height="1" x="4" y="15" fill="#4d4d4d" fill-opacity="1" fill-rule="nonzero" stroke="none" stroke-width="2" color="#000" display="inline" enable-background="accumulate" opacity=".2" overflow="visible" visibility="visible" style="marker:none"/><rect id="rect3699" width="4" height="1" x="6" y="11" fill="#4d4d4d" fill-opacity="1" fill-rule="nonzero" stroke="none" stroke-width="2" color="#000" display="inline" enable-background="accumulate" opacity=".2" overflow="visible" visibility="visible" style="marker:none"/><rect id="rect3701" width="2" height="1" x="11" y="11" fill="#4d4d4d" fill-opacity="1" fill-rule="nonzero" stroke="none" stroke-width="2" color="#000" display="inline" enable-background="accumulate" opacity=".2" overflow="visible" visibility="visible" style="marker:none"/><rect id="rect3703" width="2" height="1" x="14" y="11" fill="#4d4d4d" fill-opacity="1" fill-rule="nonzero" stroke="none" stroke-width="2" color="#000" display="inline" enable-background="accumulate" opacity=".2" overflow="visible" visibility="visible" style="marker:none"/><rect id="rect3705" width="2" height="1" x="18" y="11" fill="#4d4d4d" fill-opacity="1" fill-rule="nonzero" stroke="none" stroke-width="2" color="#000" display="inline" enable-background="accumulate" opacity=".2" overflow="visible" visibility="visible" style="marker:none"/><rect id="rect3707" width="6" height="1" x="4" y="13" fill="#4d4d4d" fill-opacity="1" fill-rule="nonzero" stroke="none" stroke-width="2" color="#000" display="inline" enable-background="accumulate" opacity=".2" overflow="visible" visibility="visible" style="marker:none"/><rect id="rect3709" width="4" height="1" x="8" y="13" fill="#4d4d4d" fill-opacity="1" fill-rule="nonzero" stroke="none" stroke-width="2" color="#000" display="inline" enable-background="accumulate" opacity=".2" overflow="visible" visibility="visible" style="marker:none"/><rect id="rect3711" width="3" height="1" x="14" y="13" fill="#4d4d4d" fill-opacity="1" fill-rule="nonzero" stroke="none" stroke-width="2" color="#000" display="inline" enable-background="accumulate" opacity=".2" overflow="visible" visibility="visible" style="marker:none"/><rect id="rect3713" width="3" height="1" x="16" y="13" fill="#4d4d4d" fill-opacity="1" fill-rule="nonzero" stroke="none" stroke-width="2" color="#000" display="inline" enable-background="accumulate" opacity=".2" overflow="visible" visibility="visible" style="marker:none"/><rect id="rect3715" width="1" height="1" x="13" y="9" fill="#4d4d4d" fill-opacity="1" fill-rule="nonzero" stroke="none" stroke-width="2" color="#000" display="inline" enable-background="accumulate" opacity=".2" overflow="visible" visibility="visible" style="marker:none"/><rect id="rect3717" width="2" height="1" x="4" y="9" fill="#4d4d4d" fill-opacity="1" fill-rule="nonzero" stroke="none" stroke-width="2" color="#000" display="inline" enable-background="accumulate" opacity=".2" overflow="visible" visibility="visible" style="marker:none"/><rect id="rect3719" width="1" height="1" x="4" y="11" fill="#4d4d4d" fill-opacity="1" fill-rule="nonzero" stroke="none" stroke-width="2" color="#000" display="inline" enable-background="accumulate" opacity=".2" overflow="visible" visibility="visible" style="marker:none"/><rect id="rect3721" width="1" height="1" x="4" y="15" fill="#4d4d4d" fill-opacity="1" fill-rule="nonzero" stroke="none" stroke-width="2" color="#000" display="inline" enable-background="accumulate" opacity=".2" overflow="visible" visibility="visible" style="marker:none"/></g></svg>