<svg xmlns="http://www.w3.org/2000/svg" xmlns:svg="http://www.w3.org/2000/svg" xmlns:xlink="http://www.w3.org/1999/xlink" id="svg2" width="24" height="24" display="inline" version="1.0"><defs id="defs4"><linearGradient id="linearGradient3735"><stop id="stop3737" offset="0" stop-color="#fff" stop-opacity="1"/><stop id="stop3739" offset="1" stop-color="#fff" stop-opacity="0"/></linearGradient><linearGradient id="linearGradient3327"><stop id="stop3330" offset="0" stop-color="#000" stop-opacity="1"/><stop id="stop3333" offset="1" stop-color="#000" stop-opacity="0"/></linearGradient><linearGradient id="linearGradient3335" x1="11.375" x2="11.375" y1="22" y2="-9.817" gradientUnits="userSpaceOnUse" xlink:href="#linearGradient3327"/><linearGradient id="linearGradient3222"><stop id="stop3224" offset="0" stop-color="#000" stop-opacity="1"/><stop id="stop3226" offset="1" stop-color="#000" stop-opacity="0"/></linearGradient><linearGradient id="linearGradient3422"><stop id="stop3424" offset="0" stop-color="#2f230c" stop-opacity="1"/><stop id="stop3426" offset="1" stop-color="#825121" stop-opacity="0"/></linearGradient><linearGradient id="linearGradient3347"><stop id="stop3349" offset="0" stop-color="#fcfaf7" stop-opacity="1"/><stop id="stop3351" offset="1" stop-color="#b3925c" stop-opacity="1"/></linearGradient><linearGradient id="ButtonShadow" x1="51.734" x2="51.734" y1="125.541" y2="7.923" gradientTransform="matrix(1.0212132,0,0,1.012703,-0.06779365,-2.1355961)" gradientUnits="userSpaceOnUse" spreadMethod="pad" xlink:href="#linearGradient3347"><stop id="stop3931" offset="0" stop-color="#000" stop-opacity=".706"/><stop id="stop3933" offset="1" stop-color="#000" stop-opacity=".157"/></linearGradient><linearGradient id="ButtonColor" x1="58.65" x2="58.65" y1="122" y2="5.425" gradientTransform="translate(20.488606,-18.489718)" gradientUnits="userSpaceOnUse"><stop id="stop3189" offset="0" stop-color="#000" stop-opacity="1"/><stop id="stop3191" offset="1" stop-color="#515151" stop-opacity="1"/></linearGradient><clipPath id="clipPath3409" clipPathUnits="userSpaceOnUse"><path id="path3411" fill="#fff" fill-opacity="1" stroke="none" d="m 15,74 c -4.986,0 -9,4.014 -9,9 l 0,98 c 0,4.986 4.014,9 9,9 l 98,0 c 4.986,0 9,-4.014 9,-9 l 0,-98 c 0,-4.986 -4.014,-9 -9,-9 l -98,0 z m -5,5 8,0 0,6 -8,0 0,-6 z m 100,0 8,0 0,6 -8,0 0,-6 z m -100,10 8,0 0,6 -8,0 0,-6 z m 100,0 8,0 0,6 -8,0 0,-6 z m -100,10 8,0 0,6 -8,0 0,-6 z m 100,0 8,0 0,6 -8,0 0,-6 z m -100,10 8,0 0,6 -8,0 0,-6 z m 100,0 8,0 0,6 -8,0 0,-6 z m -100,10 8,0 0,6 -8,0 0,-6 z m 100,0 8,0 0,6 -8,0 0,-6 z m -100,10 8,0 0,6 -8,0 0,-6 z m 100,0 8,0 0,6 -8,0 0,-6 z m -100,10 8,0 0,6 -8,0 0,-6 z m 100,0 8,0 0,6 -8,0 0,-6 z m -100,10 8,0 0,6 -8,0 0,-6 z m 100,0 8,0 0,6 -8,0 0,-6 z m -100,10 8,0 0,6 -8,0 0,-6 z m 100,0 8,0 0,6 -8,0 0,-6 z m -100,10 8,0 0,6 -8,0 0,-6 z m 100,0 8,0 0,6 -8,0 0,-6 z m -100,10 8,0 0,6 -8,0 0,-6 z m 100,0 8,0 0,6 -8,0 0,-6 z" display="inline"/></clipPath><clipPath id="clipPath3413" clipPathUnits="userSpaceOnUse"><path id="path3415" fill="#fff" fill-opacity="1" stroke="none" d="m 15,-62 c -4.986,0 -9,4.014 -9,9 l 0,98 c 0,4.986 4.014,9 9,9 l 98,0 c 4.986,0 9,-4.014 9,-9 l 0,-98 c 0,-4.986 -4.014,-9 -9,-9 l -98,0 z m -5,5 8,0 0,6 -8,0 0,-6 z m 100,0 8,0 0,6 -8,0 0,-6 z m -100,10 8,0 0,6 -8,0 0,-6 z m 100,0 8,0 0,6 -8,0 0,-6 z m -100,10 8,0 0,6 -8,0 0,-6 z m 100,0 8,0 0,6 -8,0 0,-6 z m -100,10 8,0 0,6 -8,0 0,-6 z m 100,0 8,0 0,6 -8,0 0,-6 z m -100,10 8,0 0,6 -8,0 0,-6 z m 100,0 8,0 0,6 -8,0 0,-6 z m -100,10 8,0 0,6 -8,0 0,-6 z m 100,0 8,0 0,6 -8,0 0,-6 z M 10,3 l 8,0 0,6 -8,0 0,-6 z m 100,0 8,0 0,6 -8,0 0,-6 z m -100,10 8,0 0,6 -8,0 0,-6 z m 100,0 8,0 0,6 -8,0 0,-6 z m -100,10 8,0 0,6 -8,0 0,-6 z m 100,0 8,0 0,6 -8,0 0,-6 z m -100,10 8,0 0,6 -8,0 0,-6 z m 100,0 8,0 0,6 -8,0 0,-6 z m -100,10 8,0 0,6 -8,0 0,-6 z m 100,0 8,0 0,6 -8,0 0,-6 z" display="inline"/></clipPath><linearGradient id="linearGradient3346" x1="-9.489" x2="-9.489" y1="39.49" y2="19.49" gradientTransform="translate(20.488605,-18.489719)" gradientUnits="userSpaceOnUse" xlink:href="#ButtonColor"/><radialGradient id="radialGradient3400" cx="64" cy="64" r="42" fx="64" fy="64" gradientTransform="matrix(0.1742353,0,0,0.1597041,-0.1510563,2.4456062)" gradientUnits="userSpaceOnUse" xlink:href="#linearGradient3347"/><radialGradient id="radialGradient3418" cx="64" cy="64" r="42" fx="64" fy="64" gradientTransform="matrix(0.1742353,0,0,0.1597041,-0.1510563,2.4456062)" gradientUnits="userSpaceOnUse" xlink:href="#linearGradient3347"/><radialGradient id="radialGradient3436" cx="64" cy="64" r="42" fx="64" fy="64" gradientTransform="matrix(0.1742353,0,0,0.1597041,-0.1510563,2.4456062)" gradientUnits="userSpaceOnUse" xlink:href="#linearGradient3347"/><clipPath id="clipPath3445" clipPathUnits="userSpaceOnUse"><path id="path3447" fill="#fff" fill-opacity="1" stroke="none" d="M 3.5,15 C 2.1150001,15 1,16.115 1,17.5 l 0,15 c -1e-8,1.385 1.115,2.5 2.5,2.5 l 15,0 c 1.385,0 2.5,-1.115 2.5,-2.5 l 0,-15 C 21,16.115 19.885,15 18.5,15 l -15,0 z m -1.5,1 1,0 0,1 -1,0 0,-1 z m 17,0 1,0 0,1 -1,0 0,-1 z m -17,2 1,0 0,1 -1,0 0,-1 z m 17,0 1,0 0,1 -1,0 0,-1 z m -17,2 1,0 0,1 -1,0 0,-1 z m 17,0 1,0 0,1 -1,0 0,-1 z m -17,2 1,0 0,1 -1,0 0,-1 z m 17,0 1,0 0,1 -1,0 0,-1 z m -17,2 1,0 0,1 -1,0 0,-1 z m 17,0 1,0 0,1 -1,0 0,-1 z m -17,2 1,0 0,1 -1,0 0,-1 z m 17,0 1,0 0,1 -1,0 0,-1 z m -17,2 1,0 0,1 -1,0 0,-1 z m 17,0 1,0 0,1 -1,0 0,-1 z m -17,2 1,0 0,1 -1,0 0,-1 z m 17,0 1,0 0,1 -1,0 0,-1 z m -17,2 1,0 0,1 -1,0 0,-1 z m 17,0 1,0 0,1 -1,0 0,-1 z" display="inline"/></clipPath><clipPath id="clipPath3449" clipPathUnits="userSpaceOnUse"><path id="path3451" fill="#fff" fill-opacity="1" stroke="none" d="M 3.5,-9 C 2.1150001,-9 1,-7.885 1,-6.5 l 0,15 c -1e-8,1.385 1.115,2.5 2.5,2.5 l 15,0 C 19.885,11 21,9.885 21,8.5 l 0,-15 C 21,-7.8850001 19.885,-9 18.5,-9 l -15,0 z m -1.5,1 1,0 0,1 -1,0 0,-1 z m 17,0 1,0 0,1 -1,0 0,-1 z m -17,2 1,0 0,1 -1,0 0,-1 z m 17,0 1,0 0,1 -1,0 0,-1 z m -17,2 1,0 0,1 -1,0 0,-1 z m 17,0 1,0 0,1 -1,0 0,-1 z m -17,2 1,0 0,1 -1,0 0,-1 z m 17,0 1,0 0,1 -1,0 0,-1 z M 2,0 3,0 3,1 2,1 2,0 z m 17,0 1,0 0,1 -1,0 0,-1 z M 2,2 3,2 3,3 2,3 2,2 z m 17,0 1,0 0,1 -1,0 0,-1 z M 2,4 3,4 3,5 2,5 2,4 z m 17,0 1,0 0,1 -1,0 0,-1 z M 2,6 3,6 3,7 2,7 2,6 z m 17,0 1,0 0,1 -1,0 0,-1 z M 2,8 3,8 3,9 2,9 2,8 z m 17,0 1,0 0,1 -1,0 0,-1 z" display="inline"/></clipPath><linearGradient id="linearGradient3461" x1="8.859" x2="8.859" y1="21" y2="10.934" gradientTransform="translate(1,-1)" gradientUnits="userSpaceOnUse" xlink:href="#linearGradient3921"/><radialGradient id="radialGradient3472" cx="64" cy="64" r="42" fx="64" fy="64" gradientTransform="matrix(0.2163118,7.3809524e-8,-6.1670823e-8,0.1807372,-2.8439498,-0.90052)" gradientUnits="userSpaceOnUse" xlink:href="#linearGradient3347"/><radialGradient id="radialGradient3483" cx="64" cy="64" r="42" fx="64" fy="64" gradientTransform="matrix(0.2163118,7.3809524e-8,-6.1670823e-8,0.1807372,-2.8439498,-0.90052)" gradientUnits="userSpaceOnUse" xlink:href="#linearGradient3347"/><radialGradient id="radialGradient3499" cx="64" cy="64" r="42" fx="64" fy="64" gradientTransform="matrix(0.2163118,7.3809524e-8,-6.1670823e-8,0.1807372,-2.8439498,-0.90052)" gradientUnits="userSpaceOnUse" xlink:href="#linearGradient3347"/><radialGradient id="radialGradient3515" cx="64" cy="64" r="42" fx="64" fy="64" gradientTransform="matrix(0.2163118,7.3809524e-8,-6.1670823e-8,0.1807372,-2.8439498,-0.90052)" gradientUnits="userSpaceOnUse" xlink:href="#linearGradient3347"/><clipPath id="clipPath3524" clipPathUnits="userSpaceOnUse"><path id="path3526" fill="#fff" fill-opacity="1" stroke="none" d="m 3.5,14.037986 c -1.3849999,0 -2.5,1.115 -2.5,2.5 l 0,15 c -1e-8,1.385 1.115,2.5 2.5,2.5 l 15,0 c 1.385,0 2.5,-1.115 2.5,-2.5 l 0,-15 c 0,-1.385 -1.115,-2.5 -2.5,-2.5 l -15,0 z m -1.5,1 1,0 0,1 -1,0 0,-1 z m 17,0 1,0 0,1 -1,0 0,-1 z m -17,2 1,0 0,1 -1,0 0,-1 z m 17,0 1,0 0,1 -1,0 0,-1 z m -17,2 1,0 0,1 -1,0 0,-1 z m 17,0 1,0 0,1 -1,0 0,-1 z m -17,2 1,0 0,1 -1,0 0,-1 z m 17,0 1,0 0,1 -1,0 0,-1 z m -17,2 1,0 0,1 -1,0 0,-1 z m 17,0 1,0 0,1 -1,0 0,-1 z m -17,2 1,0 0,1 -1,0 0,-1 z m 17,0 1,0 0,1 -1,0 0,-1 z m -17,2 1,0 0,1 -1,0 0,-1 z m 17,0 1,0 0,1 -1,0 0,-1 z m -17,2 1,0 0,1 -1,0 0,-1 z m 17,0 1,0 0,1 -1,0 0,-1 z m -17,2 1,0 0,1 -1,0 0,-1 z m 17,0 1,0 0,1 -1,0 0,-1 z" display="inline"/></clipPath><clipPath id="clipPath3528" clipPathUnits="userSpaceOnUse"><path id="path3530" fill="#fff" fill-opacity="1" stroke="none" d="m 3.5,-11.962014 c -1.3849999,0 -2.5,1.115 -2.5,2.5 l 0,15 c -1e-8,1.385 1.115,2.5 2.5,2.5 l 15,0 c 1.385,0 2.5,-1.115 2.5,-2.5 l 0,-15 c 0,-1.385 -1.115,-2.5 -2.5,-2.5 l -15,0 z m -1.5,1 1,0 0,1 -1,0 0,-1 z m 17,0 1,0 0,1 -1,0 0,-1 z m -17,2 1,0 0,1 -1,0 0,-1 z m 17,0 1,0 0,1 -1,0 0,-1 z m -17,2 1,0 0,1 -1,0 0,-1 z m 17,0 1,0 0,1 -1,0 0,-1 z m -17,2 1,0 0,1 -1,0 0,-1 z m 17,0 1,0 0,1 -1,0 0,-1 z m -17,2 1,0 0,1 -1,0 0,-1 z m 17,0 1,0 0,1 -1,0 0,-1 z m -17,2 1,0 0,1 -1,0 0,-1 z m 17,0 1,0 0,1 -1,0 0,-1 z m -17,2 1,0 0,1 -1,0 0,-1 z m 17,0 1,0 0,1 -1,0 0,-1 z m -17,2 1,0 0,1 -1,0 0,-1 z m 17,0 1,0 0,1 -1,0 0,-1 z m -17,2 1,0 0,1 -1,0 0,-1 z m 17,0 1,0 0,1 -1,0 0,-1 z" display="inline"/></clipPath><linearGradient id="linearGradient3228" x1="4" x2="11.004" y1="11.042" y2="11.042" gradientUnits="userSpaceOnUse" spreadMethod="reflect" xlink:href="#linearGradient3222"/><linearGradient id="linearGradient3236" x1="11" x2="11" y1="5.046" y2="11.042" gradientUnits="userSpaceOnUse" spreadMethod="reflect" xlink:href="#linearGradient3222"/><linearGradient id="linearGradient3227" x1="6.809" x2="6.809" y1="25.634" y2="5.542" gradientTransform="translate(1.7495831,-4.6341014)" gradientUnits="userSpaceOnUse" xlink:href="#ButtonColor"/><linearGradient id="linearGradient3261" x1="6.809" x2="6.809" y1="25.634" y2="5.542" gradientTransform="translate(2.749583,-5.6341014)" gradientUnits="userSpaceOnUse" xlink:href="#ButtonColor"/><linearGradient id="linearGradient3270" x1="8.981" x2="8.981" y1="22" y2=".429" gradientUnits="userSpaceOnUse" xlink:href="#ButtonShadow"/><radialGradient id="radialGradient3804" cx="48" cy="48" r="28" fx="48" fy="48" gradientTransform="matrix(1.1428571,0,0,0.85714286,-6.8571431,3.8571432)" gradientUnits="userSpaceOnUse" xlink:href="#linearGradient3806"/><linearGradient id="linearGradient3806"><stop id="stop3808" offset="0" stop-color="#f7e0c0" stop-opacity="1"/><stop id="stop3810" offset="1" stop-color="#b67e35" stop-opacity="1"/></linearGradient><radialGradient id="radialGradient4030" cx="48" cy="48" r="28" fx="48" fy="48" gradientTransform="matrix(1.1428571,0,0,0.85714286,-2.857143,-34.142857)" gradientUnits="userSpaceOnUse" xlink:href="#linearGradient3806"/><linearGradient id="linearGradient3684" x1="4" x2="11.004" y1="11.042" y2="11.042" gradientTransform="matrix(1,0,0,1.8099677,1,-9.9437509)" gradientUnits="userSpaceOnUse" spreadMethod="reflect" xlink:href="#linearGradient3921"/><linearGradient id="linearGradient3687" x1="11" x2="11" y1="5.046" y2="11.042" gradientTransform="matrix(1.5785484,0,0,1,-5.3640332,-1)" gradientUnits="userSpaceOnUse" spreadMethod="reflect" xlink:href="#linearGradient3921"/><radialGradient id="radialGradient3692" cx="64" cy="64" r="42" fx="64" fy="64" gradientTransform="matrix(0.2163118,7.3809524e-8,-6.1670823e-8,0.1807372,-1.8439498,-1.90052)" gradientUnits="userSpaceOnUse" xlink:href="#linearGradient3720"/><radialGradient id="radialGradient3696" cx="64" cy="64" r="42" fx="64" fy="64" gradientTransform="matrix(0.2163118,7.3809524e-8,-6.1670823e-8,0.1807372,-2.8439498,-13.938506)" gradientUnits="userSpaceOnUse" xlink:href="#linearGradient3347"/><radialGradient id="radialGradient3701" cx="64" cy="64" r="42" fx="64" fy="64" gradientTransform="matrix(0.2163118,7.3809524e-8,-6.1670823e-8,0.1807372,-1.8439498,-14.938506)" gradientUnits="userSpaceOnUse" xlink:href="#linearGradient3720"/><radialGradient id="radialGradient3705" cx="64" cy="64" r="42" fx="64" fy="64" gradientTransform="matrix(0.2163118,7.3809524e-8,-6.1670823e-8,0.1807372,-2.8439498,12.061494)" gradientUnits="userSpaceOnUse" xlink:href="#linearGradient3347"/><radialGradient id="radialGradient3710" cx="64" cy="64" r="42" fx="64" fy="64" gradientTransform="matrix(0.2163118,7.3809524e-8,-6.1670823e-8,0.1807372,-1.8439498,11.061494)" gradientUnits="userSpaceOnUse" xlink:href="#linearGradient3720"/><linearGradient id="linearGradient3968" x1="48.495" x2="48.495" y1="90.435" y2="52.388" gradientUnits="userSpaceOnUse" xlink:href="#linearGradient3921"/><linearGradient id="linearGradient3921"><stop id="stop3923" offset="0" stop-color="#6b3715" stop-opacity="1"/><stop id="stop3925" offset="1" stop-color="#6b3715" stop-opacity="0"/></linearGradient><linearGradient id="linearGradient4049" x1="48.495" x2="48.495" y1="90.435" y2="52.388" gradientTransform="translate(-79,-92)" gradientUnits="userSpaceOnUse" xlink:href="#linearGradient3921"/><linearGradient id="linearGradient3696" x1="6.809" x2="6.809" y1="25.634" y2="5.542" gradientTransform="translate(-17.250417,-3.6341014)" gradientUnits="userSpaceOnUse" xlink:href="#ButtonColor"/><linearGradient id="linearGradient3700" x1="6.809" x2="6.809" y1="25.634" y2="5.542" gradientTransform="translate(-17.250417,-6.6341014)" gradientUnits="userSpaceOnUse" xlink:href="#ButtonColor"/><radialGradient id="radialGradient3804-1" cx="48" cy="48" r="28" fx="48" fy="48" gradientTransform="matrix(1.1428571,0,0,0.85714286,-6.8571431,3.8571432)" gradientUnits="userSpaceOnUse" xlink:href="#linearGradient3720"/><linearGradient id="linearGradient3720"><stop id="stop3722" offset="0" stop-color="#efad51" stop-opacity="1"/><stop id="stop3724" offset="1" stop-color="#d56616" stop-opacity="1"/></linearGradient><radialGradient id="radialGradient2926" cx="48" cy="48" r="28" fx="48" fy="48" gradientTransform="matrix(1.1428571,0,0,0.85714286,-61.799444,-47.763254)" gradientUnits="userSpaceOnUse" xlink:href="#linearGradient3720"/><linearGradient id="linearGradient3730" x1="6.809" x2="6.809" y1="25.634" y2="5.542" gradientTransform="translate(-27.250417,-3.6341014)" gradientUnits="userSpaceOnUse" xlink:href="#ButtonColor"/><linearGradient id="linearGradient3741" x1="-28" x2="-8" y1="8.422" y2="8.422" gradientUnits="userSpaceOnUse" xlink:href="#linearGradient3735"/><linearGradient id="linearGradient3745" x1="-15" x2="-15" y1="12" y2="-2" gradientTransform="translate(30,-2)" gradientUnits="userSpaceOnUse" xlink:href="#linearGradient3735"/><linearGradient id="linearGradient3078" x1="10" x2="10" y1="1" y2="16" gradientTransform="translate(1,-1)" gradientUnits="userSpaceOnUse" xlink:href="#linearGradient3823"/><linearGradient id="linearGradient3823"><stop id="stop3825" offset="0" stop-color="#fff" stop-opacity="1"/><stop id="stop3829" offset="1" stop-color="#fff" stop-opacity="0"/></linearGradient><linearGradient id="linearGradient3845" x1="11" x2="21" y1="19.5" y2="19.5" gradientTransform="translate(1,-1)" gradientUnits="userSpaceOnUse" spreadMethod="reflect" xlink:href="#linearGradient3831"/><linearGradient id="linearGradient3831"><stop id="stop3833" offset="0" stop-color="#fff" stop-opacity="1"/><stop id="stop3821" offset=".75" stop-color="#fff" stop-opacity=".498"/><stop id="stop3835" offset="1" stop-color="#fff" stop-opacity="0"/></linearGradient><linearGradient id="linearGradient3859" x1="10" x2="10" y1="1" y2="16" gradientTransform="translate(1,-1)" gradientUnits="userSpaceOnUse" xlink:href="#linearGradient3823"/></defs><metadata id="metadata7"/><g id="layer1" display="inline" transform="translate(0,2)"><g id="g3337" display="inline" transform="translate(1,-1)"><rect id="rect3371" width="21" height="21.5" x=".5" y=".5" fill="url(#linearGradient3335)" fill-opacity="1" stroke="none" display="inline" opacity=".3" rx="2.5" ry="2.5"/><rect id="rect2553" width="20" height="20" x="1" y="2" fill="#000" fill-opacity="1" stroke="none" display="inline" opacity=".5" rx="2.381" ry="2.326"/></g><path id="rect2449" fill="url(#linearGradient3261)" fill-opacity="1" fill-rule="evenodd" stroke="none" d="M 4,0 C 2.892,0 2,0.892 2,2 l 0,16 c 0,1.108 0.892,2 2,2 l 16,0 c 1.108,0 2,-0.892 2,-2 L 22,2 C 22,0.892 21.108,0 20,0 L 4,0 z M 3,1 4,1 4,2 3,2 3,1 z m 17,0 1,0 0,1 -1,0 0,-1 z M 3,3 4,3 4,4 3,4 3,3 z m 17,0 1,0 0,1 -1,0 0,-1 z M 3,5 4,5 4,6 3,6 3,5 z m 17,0 1,0 0,1 -1,0 0,-1 z M 3,7 4,7 4,8 3,8 3,7 z m 17,0 1,0 0,1 -1,0 0,-1 z M 3,9 4,9 4,10 3,10 3,9 z m 17,0 1,0 0,1 -1,0 0,-1 z m -17,2 1,0 0,1 -1,0 0,-1 z m 17,0 1,0 0,1 -1,0 0,-1 z m -17,2 1,0 0,1 -1,0 0,-1 z m 17,0 1,0 0,1 -1,0 0,-1 z m -17,2 1,0 0,1 -1,0 0,-1 z m 17,0 1,0 0,1 -1,0 0,-1 z m -17,2 1,0 0,1 -1,0 0,-1 z m 17,0 1,0 0,1 -1,0 0,-1 z"/><path id="rect3313" fill="#fff" fill-opacity="1" fill-rule="evenodd" stroke="none" d="m 3,17 1,0 0,1 -1,0 0,-1 z m 0,-2 1,0 0,1 -1,0 0,-1 z m 0,-2 1,0 0,1 -1,0 0,-1 z m 0,-2 1,0 0,1 -1,0 0,-1 z M 3,9 4,9 4,10 3,10 3,9 z M 3,7 4,7 4,8 3,8 3,7 z M 3,5 4,5 4,6 3,6 3,5 z M 3,3 4,3 4,4 3,4 3,3 z M 3,1 4,1 4,2 3,2 3,1 z m 17,16 1,0 0,1 -1,0 0,-1 z m 0,-2 1,0 0,1 -1,0 0,-1 z m 0,-2 1,0 0,1 -1,0 0,-1 z m 0,-2 1,0 0,1 -1,0 0,-1 z m 0,-2 1,0 0,1 -1,0 0,-1 z m 0,-2 1,0 0,1 -1,0 0,-1 z m 0,-2 1,0 0,1 -1,0 0,-1 z m 0,-2 1,0 0,1 -1,0 0,-1 z m 0,-2 1,0 0,1 -1,0 0,-1 z" opacity=".5"/></g><g id="layer3" display="inline" transform="translate(0,2)"><path id="path3343" fill="url(#radialGradient3692)" fill-opacity="1" fill-rule="evenodd" stroke="none" d="M 5.3333334,4.0462291 C 5.1486667,4.0462291 5,4.1948958 5,4.3795625 L 5,15.704653 c 0,0.184667 0.1486667,0.333333 0.3333334,0.333333 l 13.3333356,0 c 0.184667,0 0.333334,-0.148666 0.333334,-0.333333 l 0,-11.3250905 c 0,-0.1846667 -0.148667,-0.3333334 -0.333334,-0.3333334 l -13.3333356,0 z"/><path id="path3487" fill="url(#radialGradient3701)" fill-opacity="1" fill-rule="evenodd" stroke="none" d="M 5,0 5,2.65625 C 5,2.840917 5.1590833,3 5.34375,3 l 13.3125,0 C 18.840917,3 19,2.840917 19,2.65625 L 19,0 5,0 z"/><path id="path3503" fill="url(#radialGradient3710)" fill-opacity="1" fill-rule="evenodd" stroke="none" d="M 5.34375,17 C 5.1590833,17 5,17.159084 5,17.34375 L 5,20 19,20 19,17.34375 C 19,17.159083 18.840917,17 18.65625,17 l -13.3125,0 z"/><path id="path3726" fill="#fff" stroke="none" d="m 10,7 0,6 5,-3 -5,-3 z"/></g><g id="layer5" display="inline" transform="translate(0,2)"><path id="path3728" fill="url(#linearGradient3745)" fill-opacity="1" fill-rule="evenodd" stroke="none" d="M 4,0 C 2.892,0 2,0.892 2,2 L 2,12.84375 C 2.345624,12.551064 2.71071,12.271104 3.09375,12 L 3,12 3,11 4,11 4,11.40625 C 7.400168,9.30216 11.963683,8 17,8 c 1.729338,0 3.407768,0.152703 5,0.4375 L 22,2 C 22,0.892 21.108,0 20,0 L 4,0 z M 3,1 4,1 4,2 3,2 3,1 z m 17,0 1,0 0,1 -1,0 0,-1 z M 3,3 4,3 4,4 3,4 3,3 z m 17,0 1,0 0,1 -1,0 0,-1 z M 3,5 4,5 4,6 3,6 3,5 z m 17,0 1,0 0,1 -1,0 0,-1 z M 3,7 4,7 4,8 3,8 3,7 z m 17,0 1,0 0,1 -1,0 0,-1 z M 3,9 4,9 4,10 3,10 3,9 z" display="inline" opacity=".2"/><path id="rect3050" fill="url(#linearGradient3859)" fill-opacity="1" fill-rule="evenodd" stroke="none" d="M 4,0 C 2.892,0 2,0.892 2,2 l 0,16 c 0,1.108 0.892,2 2,2 l 16,0 c 1.108,0 2,-0.892 2,-2 L 22,2 C 22,0.892 21.108,0 20,0 L 4,0 z m 0,1.03125 16,0 c 0.5497,0 0.96875,0.4190495 0.96875,0.96875 l 0,16 c 0,0.5497 -0.41905,0.96875 -0.96875,0.96875 l -16,0 C 3.4502995,18.96875 3.03125,18.5497 3.03125,18 l 0,-16 C 3.03125,1.4502995 3.4502995,1.03125 4,1.03125 z" display="inline" opacity=".25"/><path id="path3235" fill="url(#linearGradient3845)" fill-opacity="1" fill-rule="evenodd" stroke="none" d="M 4,20 C 2.892,20 2,19.108 2,18 l 0,-1 c 0,1.108 0.892,2 2,2 l 16,0 c 1.108,0 2,-0.892 2,-2 l 0,1 c 0,1.108 -0.892,2 -2,2 L 4,20 z" display="inline" opacity=".15"/></g></svg>