<svg xmlns="http://www.w3.org/2000/svg" xmlns:svg="http://www.w3.org/2000/svg" xmlns:xlink="http://www.w3.org/1999/xlink" id="svg2408" width="96" height="96" version="1.0"><defs id="defs2410"><linearGradient id="linearGradient4314"><stop id="stop4316" offset="0" stop-color="#fff" stop-opacity="1"/><stop id="stop4322" offset=".3" stop-color="#fff" stop-opacity=".498"/><stop id="stop4318" offset="1" stop-color="#fff" stop-opacity="0"/></linearGradient><linearGradient id="ButtonShadow" x1="45.448" x2="45.448" y1="92.54" y2="7.017" gradientTransform="scale(1.0058652,0.994169)" gradientUnits="userSpaceOnUse"><stop id="stop3750" offset="0" stop-color="#000" stop-opacity="1"/><stop id="stop3752" offset="1" stop-color="#000" stop-opacity=".588"/></linearGradient><linearGradient id="linearGradient3737"><stop id="stop3739" offset="0" stop-color="#fff" stop-opacity="1"/><stop id="stop3741" offset="1" stop-color="#fff" stop-opacity="0"/></linearGradient><linearGradient id="linearGradient3700"><stop id="stop3702" offset="0" stop-color="#2276c5" stop-opacity="1"/><stop id="stop3704" offset="1" stop-color="#68baf4" stop-opacity="1"/></linearGradient><linearGradient id="linearGradient3706" x1="48" x2="48" y1="90" y2="5.988" gradientUnits="userSpaceOnUse" xlink:href="#linearGradient3700"/><linearGradient id="linearGradient3743" x1="36.357" x2="36.357" y1="6" y2="63.893" gradientUnits="userSpaceOnUse" xlink:href="#linearGradient3737"/><filter id="filter3174"><feGaussianBlur id="feGaussianBlur3176" stdDeviation="1.71"/></filter><linearGradient id="linearGradient3188" x1="36.357" x2="36.357" y1="6" y2="63.893" gradientUnits="userSpaceOnUse" xlink:href="#linearGradient3737"/><filter id="filter3794" width="1.384" height="1.384" x="-.192" y="-.192"><feGaussianBlur id="feGaussianBlur3796" stdDeviation="5.28"/></filter><linearGradient id="linearGradient3613" x1="48" x2="48" y1="20.221" y2="138.661" gradientUnits="userSpaceOnUse" xlink:href="#linearGradient3737"/><radialGradient id="radialGradient3619" cx="48" cy="90.172" r="42" fx="48" fy="90.172" gradientTransform="matrix(1.1573129,0,0,0.99590774,-7.5510206,0.19713193)" gradientUnits="userSpaceOnUse" xlink:href="#linearGradient3737"/><clipPath id="clipPath3613" clipPathUnits="userSpaceOnUse"><rect id="rect3615" width="84" height="84" x="6" y="6" fill="#fff" fill-opacity="1" fill-rule="nonzero" stroke="none" rx="6" ry="6"/></clipPath><linearGradient id="linearGradient3617" x1="48" x2="48" y1="90" y2="5.988" gradientUnits="userSpaceOnUse" xlink:href="#linearGradient3187"/><linearGradient id="linearGradient5006" x1="69" x2="69" y1="122" y2="5.978" gradientTransform="matrix(1.0172414,0,0,1.0172414,-1.1034483,-1.1034472)" gradientUnits="userSpaceOnUse" xlink:href="#linearGradient3187"/><linearGradient id="linearGradient3187"><stop id="stop3189" offset="0" stop-color="#282828" stop-opacity="1"/><stop id="stop3191" offset="1" stop-color="#5a5a5a" stop-opacity="1"/></linearGradient><radialGradient id="radialGradient3392" cx="53.419" cy="66.598" r="47.725" fx="53.419" fy="66.598" gradientTransform="matrix(1.4750366,0,0,1.2415078,-33.861902,-20.612997)" gradientUnits="userSpaceOnUse" xlink:href="#linearGradient3386"/><linearGradient id="linearGradient3386"><stop id="stop3388" offset="0" stop-color="#eeeeec" stop-opacity="1"/><stop id="stop3390" offset="1" stop-color="#eeeeec" stop-opacity="0"/></linearGradient><radialGradient id="radialGradient3904" cx="53.419" cy="66.598" r="47.725" fx="53.419" fy="66.598" gradientTransform="matrix(1.0164118,0,0,1.2415079,-19.337623,-31.113008)" gradientUnits="userSpaceOnUse" xlink:href="#linearGradient3386"/><radialGradient id="radialGradient3929" cx="53.419" cy="66.598" r="47.725" fx="53.419" fy="66.598" gradientTransform="matrix(1.0220726,0,0,1.2415079,-19.896446,-47.863009)" gradientUnits="userSpaceOnUse" xlink:href="#linearGradient3386"/><radialGradient id="radialGradient3933" cx="53.419" cy="66.598" r="47.725" fx="53.419" fy="66.598" gradientTransform="matrix(1.4750367,0,0,0.847859,-55.736923,-9.8942437)" gradientUnits="userSpaceOnUse" xlink:href="#linearGradient3386"/><radialGradient id="radialGradient3937" cx="53.419" cy="66.598" r="47.725" fx="53.419" fy="66.598" gradientTransform="matrix(1.4750367,0,0,0.847859,-77.736923,-9.8942437)" gradientUnits="userSpaceOnUse" xlink:href="#linearGradient3386"/><radialGradient id="radialGradient4114" cx="53.419" cy="66.598" r="47.725" fx="53.419" fy="66.598" gradientTransform="matrix(1.0199392,0,0,0.85846172,-19.873341,-11.926904)" gradientUnits="userSpaceOnUse" xlink:href="#linearGradient3386"/><radialGradient id="radialGradient4116" cx="53.419" cy="66.598" r="47.725" fx="53.419" fy="66.598" gradientTransform="matrix(1.0199392,0,0,0.85846172,-19.685841,-9.268213)" gradientUnits="userSpaceOnUse" xlink:href="#linearGradient3386"/><radialGradient id="radialGradient3313" cx="11.313" cy="14.938" r="1.438" fx="11.313" fy="14.938" gradientUnits="userSpaceOnUse" xlink:href="#linearGradient3299"/><linearGradient id="linearGradient3299"><stop id="stop3301" offset="0" stop-color="#dfdfdf" stop-opacity="1"/><stop id="stop3303" offset="1" stop-color="#434343" stop-opacity="1"/></linearGradient><radialGradient id="radialGradient3309" cx="11.313" cy="14.938" r="1.438" fx="11.313" fy="14.938" gradientUnits="userSpaceOnUse" xlink:href="#linearGradient3299"/><linearGradient id="linearGradient4136"><stop id="stop4138" offset="0" stop-color="#dfdfdf" stop-opacity="1"/><stop id="stop4140" offset="1" stop-color="#434343" stop-opacity="1"/></linearGradient><radialGradient id="radialGradient3305" cx="11.313" cy="14.938" r="1.438" fx="11.313" fy="14.938" gradientUnits="userSpaceOnUse" xlink:href="#linearGradient3299"/><linearGradient id="linearGradient4143"><stop id="stop4145" offset="0" stop-color="#dfdfdf" stop-opacity="1"/><stop id="stop4147" offset="1" stop-color="#434343" stop-opacity="1"/></linearGradient><linearGradient id="linearGradient3265" x1="11" x2="16" y1="10.442" y2="24" gradientTransform="translate(-126.5,-2.321429)" gradientUnits="userSpaceOnUse" xlink:href="#linearGradient3273"/><linearGradient id="linearGradient3273"><stop id="stop3275" offset="0" stop-color="#5d5d5d" stop-opacity="1"/><stop id="stop3277" offset="1" stop-color="#171717" stop-opacity="1"/></linearGradient><linearGradient id="linearGradient3267" x1="13.125" x2="19.25" y1="9.942" y2="24.5" gradientTransform="translate(-126.5,-2.321429)" gradientUnits="userSpaceOnUse" xlink:href="#linearGradient3289"/><linearGradient id="linearGradient3289"><stop id="stop3291" offset="0" stop-color="#919191" stop-opacity="1"/><stop id="stop3293" offset="1" stop-color="#232323" stop-opacity="1"/></linearGradient><linearGradient id="linearGradient3270" x1="43.477" x2="43.477" y1="26" y2="34.001" gradientTransform="matrix(1.0172414,0,0,1,-1.1034481,-1)" gradientUnits="userSpaceOnUse" xlink:href="#linearGradient3260"/><linearGradient id="linearGradient3260" gradientUnits="userSpaceOnUse"><stop id="stop3262" offset="0" stop-color="#000" stop-opacity="1"/><stop id="stop3266" offset=".2" stop-color="#000" stop-opacity=".355"/><stop id="stop3268" offset=".553" stop-color="#000" stop-opacity="0"/><stop id="stop3264" offset="1" stop-color="#000" stop-opacity="0"/></linearGradient><linearGradient id="linearGradient4262" x1="43.477" x2="43.477" y1="26" y2="34.001" gradientTransform="matrix(0.72413795,0,0,0.75,1.6551725,4.5)" gradientUnits="userSpaceOnUse" xlink:href="#linearGradient3260"/><linearGradient id="linearGradient4310" x1="48" x2="48" y1="16" y2="11.925" gradientTransform="matrix(1,0,0,1.25,0,-4.5982122)" gradientUnits="userSpaceOnUse" xlink:href="#linearGradient3260"/><linearGradient id="linearGradient4320" x1="50.464" x2="50.464" y1="16.036" y2="20.33" gradientTransform="translate(0,-0.67856979)" gradientUnits="userSpaceOnUse" xlink:href="#linearGradient4314"/><linearGradient id="linearGradient4326" x1="48" x2="48" y1="16" y2="11.925" gradientTransform="matrix(1,0,0,1.25,0,4.4017878)" gradientUnits="userSpaceOnUse" xlink:href="#linearGradient3260"/><linearGradient id="linearGradient4341" x1="11" x2="16" y1="10.442" y2="24" gradientTransform="translate(3.5,-2.321429)" gradientUnits="userSpaceOnUse" xlink:href="#linearGradient3273"/><linearGradient id="linearGradient4343" x1="13.125" x2="19.25" y1="9.942" y2="24.5" gradientTransform="translate(3.5,-2.321429)" gradientUnits="userSpaceOnUse" xlink:href="#linearGradient3289"/><radialGradient id="radialGradient4345" cx="11.313" cy="14.938" r="1.438" fx="11.313" fy="14.938" gradientUnits="userSpaceOnUse" xlink:href="#linearGradient3299"/><radialGradient id="radialGradient4347" cx="11.313" cy="14.938" r="1.438" fx="11.313" fy="14.938" gradientUnits="userSpaceOnUse" xlink:href="#linearGradient3299"/><radialGradient id="radialGradient4349" cx="11.313" cy="14.938" r="1.438" fx="11.313" fy="14.938" gradientUnits="userSpaceOnUse" xlink:href="#linearGradient3299"/><linearGradient id="linearGradient4357" x1="11" x2="16" y1="10.442" y2="24" gradientTransform="translate(3.5,-2.321429)" gradientUnits="userSpaceOnUse" xlink:href="#linearGradient3273"/><linearGradient id="linearGradient4359" x1="13.125" x2="19.25" y1="9.942" y2="24.5" gradientTransform="translate(3.5,-2.321429)" gradientUnits="userSpaceOnUse" xlink:href="#linearGradient3289"/><radialGradient id="radialGradient4361" cx="11.313" cy="14.938" r="1.438" fx="11.313" fy="14.938" gradientUnits="userSpaceOnUse" xlink:href="#linearGradient3299"/><radialGradient id="radialGradient4363" cx="11.313" cy="14.938" r="1.438" fx="11.313" fy="14.938" gradientUnits="userSpaceOnUse" xlink:href="#linearGradient3299"/><radialGradient id="radialGradient4365" cx="11.313" cy="14.938" r="1.438" fx="11.313" fy="14.938" gradientUnits="userSpaceOnUse" xlink:href="#linearGradient3299"/><linearGradient id="linearGradient4371" x1="11" x2="16" y1="10.442" y2="24" gradientTransform="matrix(0.81330712,0,0,0.81132563,3.9935431,2.0281849)" gradientUnits="userSpaceOnUse" xlink:href="#linearGradient3273"/><linearGradient id="linearGradient4373" x1="13.125" x2="19.25" y1="9.942" y2="24.5" gradientTransform="matrix(0.81330712,0,0,0.81132563,3.9935431,2.0281849)" gradientUnits="userSpaceOnUse" xlink:href="#linearGradient3289"/><radialGradient id="radialGradient4375" cx="11.313" cy="14.938" r="1.438" fx="11.313" fy="14.938" gradientUnits="userSpaceOnUse" xlink:href="#linearGradient3299"/><radialGradient id="radialGradient4377" cx="11.313" cy="14.938" r="1.438" fx="11.313" fy="14.938" gradientUnits="userSpaceOnUse" xlink:href="#linearGradient3299"/><radialGradient id="radialGradient4379" cx="11.313" cy="14.938" r="1.438" fx="11.313" fy="14.938" gradientUnits="userSpaceOnUse" xlink:href="#linearGradient3299"/><linearGradient id="linearGradient3324" x1="70.782" x2="75.404" y1="83.017" y2="22.03" gradientUnits="userSpaceOnUse" xlink:href="#linearGradient3277"/><linearGradient id="linearGradient3277"><stop id="stop3279" offset="0" stop-color="#3d9119" stop-opacity="1"/><stop id="stop3281" offset="1" stop-color="#76e62b" stop-opacity="1"/></linearGradient><radialGradient id="radialGradient3326" cx="40.847" cy="75.264" r="14.672" fx="40.847" fy="75.264" gradientTransform="matrix(0.9847961,0.02597927,-0.01823822,0.6913564,1.9937062,24.820256)" gradientUnits="userSpaceOnUse" xlink:href="#linearGradient3266"/><linearGradient id="linearGradient3266"><stop id="stop3269" offset="0" stop-color="#87ff2b" stop-opacity="1"/><stop id="stop3271" offset="1" stop-color="#87ff2b" stop-opacity="0"/></linearGradient><radialGradient id="radialGradient3328" cx="40.847" cy="75.264" r="14.672" fx="40.847" fy="75.264" gradientTransform="matrix(0.9847961,0.02597927,-0.01823822,0.6913564,1.9937062,24.820256)" gradientUnits="userSpaceOnUse" xlink:href="#linearGradient3266"/><linearGradient id="linearGradient4405"><stop id="stop4407" offset="0" stop-color="#87ff2b" stop-opacity="1"/><stop id="stop4409" offset="1" stop-color="#87ff2b" stop-opacity="0"/></linearGradient><radialGradient id="radialGradient3330" cx="54.75" cy="25.073" r="13" fx="54.75" fy="25.073" gradientTransform="matrix(1.4680389,0.2676847,-0.311258,1.7070036,-17.071015,-35.633719)" gradientUnits="userSpaceOnUse" xlink:href="#linearGradient3266"/><linearGradient id="linearGradient4412"><stop id="stop4414" offset="0" stop-color="#87ff2b" stop-opacity="1"/><stop id="stop4416" offset="1" stop-color="#87ff2b" stop-opacity="0"/></linearGradient><radialGradient id="radialGradient3332" cx="56.496" cy="31.702" r="13" fx="56.496" fy="31.702" gradientTransform="matrix(0.8395958,0,-2.1464811e-8,1.0605848,48.651576,18.720251)" gradientUnits="userSpaceOnUse" xlink:href="#linearGradient3266"/><linearGradient id="linearGradient4419"><stop id="stop4421" offset="0" stop-color="#87ff2b" stop-opacity="1"/><stop id="stop4423" offset="1" stop-color="#87ff2b" stop-opacity="0"/></linearGradient><radialGradient id="radialGradient4432" cx="56.496" cy="31.702" r="13" fx="56.496" fy="31.702" gradientTransform="matrix(0.8395958,0,-2.1464811e-8,1.0605848,48.651576,18.720251)" gradientUnits="userSpaceOnUse" xlink:href="#linearGradient3266"/><radialGradient id="radialGradient4502" cx="56.496" cy="31.702" r="13" fx="56.496" fy="31.702" gradientTransform="matrix(0.88267832,0,-2.2566243e-8,1.115007,-69.080446,51.097006)" gradientUnits="userSpaceOnUse" xlink:href="#linearGradient3266"/><radialGradient id="radialGradient4505" cx="54.75" cy="25.073" r="13" fx="54.75" fy="25.073" gradientTransform="matrix(1.543369,0.28142051,-0.32722971,1.7945958,-138.17549,-6.0460513)" gradientUnits="userSpaceOnUse" xlink:href="#linearGradient3266"/><linearGradient id="linearGradient4510" x1="70.782" x2="75.404" y1="83.017" y2="22.03" gradientTransform="matrix(1.0513134,0,0,1.0513134,-120.2285,31.416155)" gradientUnits="userSpaceOnUse" xlink:href="#linearGradient3277"/><linearGradient id="linearGradient4520" x1="70.782" x2="75.404" y1="83.017" y2="22.03" gradientTransform="matrix(1.0513134,0,0,1.0513134,-120.2285,31.416155)" gradientUnits="userSpaceOnUse" xlink:href="#linearGradient3277"/><radialGradient id="radialGradient4522" cx="40.847" cy="75.264" r="14.672" fx="40.847" fy="75.264" gradientTransform="matrix(0.9847961,0.02597927,-0.01823822,0.6913564,1.9937062,24.820256)" gradientUnits="userSpaceOnUse" xlink:href="#linearGradient3266"/><radialGradient id="radialGradient4524" cx="40.847" cy="75.264" r="14.672" fx="40.847" fy="75.264" gradientTransform="matrix(0.9847961,0.02597927,-0.01823822,0.6913564,1.9937062,24.820256)" gradientUnits="userSpaceOnUse" xlink:href="#linearGradient3266"/><radialGradient id="radialGradient4526" cx="54.75" cy="25.073" r="13" fx="54.75" fy="25.073" gradientTransform="matrix(1.543369,0.28142051,-0.32722971,1.7945958,-138.17549,-6.0460513)" gradientUnits="userSpaceOnUse" xlink:href="#linearGradient3266"/><radialGradient id="radialGradient4528" cx="56.496" cy="31.702" r="13" fx="56.496" fy="31.702" gradientTransform="matrix(0.88267832,0,-2.2566243e-8,1.115007,-69.080446,51.097006)" gradientUnits="userSpaceOnUse" xlink:href="#linearGradient3266"/><linearGradient id="linearGradient4542" x1="70.782" x2="75.404" y1="83.017" y2="22.03" gradientTransform="matrix(1.0513134,0,0,1.0513134,-120.2285,31.416155)" gradientUnits="userSpaceOnUse" xlink:href="#linearGradient3277"/><radialGradient id="radialGradient4544" cx="40.847" cy="75.264" r="14.672" fx="40.847" fy="75.264" gradientTransform="matrix(0.9847961,0.02597927,-0.01823822,0.6913564,1.9937062,24.820256)" gradientUnits="userSpaceOnUse" xlink:href="#linearGradient3266"/><radialGradient id="radialGradient4546" cx="40.847" cy="75.264" r="14.672" fx="40.847" fy="75.264" gradientTransform="matrix(0.9847961,0.02597927,-0.01823822,0.6913564,1.9937062,24.820256)" gradientUnits="userSpaceOnUse" xlink:href="#linearGradient3266"/><radialGradient id="radialGradient4548" cx="54.75" cy="25.073" r="13" fx="54.75" fy="25.073" gradientTransform="matrix(1.543369,0.28142051,-0.32722971,1.7945958,-138.17549,-6.0460513)" gradientUnits="userSpaceOnUse" xlink:href="#linearGradient3266"/><radialGradient id="radialGradient4550" cx="56.496" cy="31.702" r="13" fx="56.496" fy="31.702" gradientTransform="matrix(0.88267832,0,-2.2566243e-8,1.115007,-69.080446,51.097006)" gradientUnits="userSpaceOnUse" xlink:href="#linearGradient3266"/><radialGradient id="radialGradient4553" cx="56.496" cy="31.702" r="13" fx="56.496" fy="31.702" gradientTransform="matrix(0.5644343,0,-1.4430129e-8,0.71299836,-42.653079,32.371524)" gradientUnits="userSpaceOnUse" xlink:href="#linearGradient3266"/><radialGradient id="radialGradient4556" cx="54.75" cy="25.073" r="13" fx="54.75" fy="25.073" gradientTransform="matrix(0.98691718,0.17995615,-0.20924913,1.1475658,-86.836347,-4.1689699)" gradientUnits="userSpaceOnUse" xlink:href="#linearGradient3266"/><linearGradient id="linearGradient4561" x1="70.782" x2="75.404" y1="83.017" y2="22.03" gradientTransform="matrix(0.67226908,0,0,0.67226908,-75.36003,19.786478)" gradientUnits="userSpaceOnUse" xlink:href="#linearGradient3277"/><linearGradient id="linearGradient4569" x1="70.782" x2="75.404" y1="83.017" y2="22.03" gradientTransform="matrix(0.67226908,0,0,0.67226908,-75.36003,19.786478)" gradientUnits="userSpaceOnUse" xlink:href="#linearGradient3277"/><clipPath id="clipPath3754" clipPathUnits="userSpaceOnUse"><rect id="rect3756" width="96" height="96" x="-100" y="0" fill="#fff" fill-opacity="1" stroke="none"/></clipPath><linearGradient id="linearGradient3026" x1="32.251" x2="32.251" y1="6.132" y2="90.239" gradientTransform="matrix(1.0238095,0,0,1.0119048,-1.1428571,-98.071429)" gradientUnits="userSpaceOnUse" xlink:href="#ButtonShadow-0"/><linearGradient id="ButtonShadow-0" x1="45.448" x2="45.448" y1="92.54" y2="7.017" gradientTransform="matrix(1.0058652,0,0,0.994169,100,0)" gradientUnits="userSpaceOnUse"><stop id="stop3750-8" offset="0" stop-color="#000" stop-opacity="1"/><stop id="stop3752-5" offset="1" stop-color="#000" stop-opacity=".588"/></linearGradient><linearGradient id="linearGradient3780" x1="32.251" x2="32.251" y1="6.132" y2="90.239" gradientTransform="matrix(1.0238095,0,0,1.0119048,-1.1428571,-98.071429)" gradientUnits="userSpaceOnUse" xlink:href="#ButtonShadow-0"/><linearGradient id="linearGradient3779" x1="45.448" x2="45.448" y1="92.54" y2="7.017" gradientTransform="matrix(1.0058652,0,0,0.994169,100,0)" gradientUnits="userSpaceOnUse"><stop id="stop3781" offset="0" stop-color="#000" stop-opacity="1"/><stop id="stop3783" offset="1" stop-color="#000" stop-opacity=".588"/></linearGradient><linearGradient id="linearGradient3772" x1="32.251" x2="32.251" y1="6.132" y2="90.239" gradientTransform="matrix(1.0238095,0,0,1.0119048,-1.1428571,-98.071429)" gradientUnits="userSpaceOnUse" xlink:href="#ButtonShadow-0"/><linearGradient id="linearGradient3786" x1="45.448" x2="45.448" y1="92.54" y2="7.017" gradientTransform="matrix(1.0058652,0,0,0.994169,100,0)" gradientUnits="userSpaceOnUse"><stop id="stop3788" offset="0" stop-color="#000" stop-opacity="1"/><stop id="stop3790" offset="1" stop-color="#000" stop-opacity=".588"/></linearGradient><linearGradient id="linearGradient3725" x1="32.251" x2="32.251" y1="6.132" y2="90.239" gradientTransform="matrix(1.0238095,0,0,1.0119048,-1.1428571,-98.071429)" gradientUnits="userSpaceOnUse" xlink:href="#ButtonShadow-0"/><linearGradient id="linearGradient3793" x1="45.448" x2="45.448" y1="92.54" y2="7.017" gradientTransform="matrix(1.0058652,0,0,0.994169,100,0)" gradientUnits="userSpaceOnUse"><stop id="stop3795" offset="0" stop-color="#000" stop-opacity="1"/><stop id="stop3797" offset="1" stop-color="#000" stop-opacity=".588"/></linearGradient><linearGradient id="linearGradient3721" x1="32.251" x2="32.251" y1="6.132" y2="90.239" gradientTransform="translate(0,-97)" gradientUnits="userSpaceOnUse" xlink:href="#ButtonShadow-0"/><linearGradient id="linearGradient3800" x1="45.448" x2="45.448" y1="92.54" y2="7.017" gradientTransform="matrix(1.0058652,0,0,0.994169,100,0)" gradientUnits="userSpaceOnUse"><stop id="stop3802" offset="0" stop-color="#000" stop-opacity="1"/><stop id="stop3804" offset="1" stop-color="#000" stop-opacity=".588"/></linearGradient><linearGradient id="linearGradient3811" x1="32.251" x2="32.251" y1="6.132" y2="90.239" gradientTransform="matrix(1.0238095,0,0,1.0119048,-1.1428571,-98.071429)" gradientUnits="userSpaceOnUse" xlink:href="#ButtonShadow-0"/></defs><metadata id="metadata2413"/><g id="layer2" display="none"><rect id="rect3745" width="86" height="85" x="5" y="7" fill="url(#ButtonShadow)" fill-opacity="1" fill-rule="nonzero" stroke="none" filter="url(#filter3174)" opacity=".9" rx="6" ry="6"/></g><g id="layer7" display="inline"><path id="path3786" fill="url(#linearGradient3811)" fill-opacity="1" fill-rule="nonzero" stroke="none" d="m 12,-95.03125 c -5.5110903,0 -10.03125,4.52016 -10.03125,10.03125 l 0,71 c 0,5.5110902 4.5201598,10.03125 10.03125,10.03125 l 72,0 c 5.51109,0 10.03125,-4.5201597 10.03125,-10.03125 l 0,-71 c 0,-5.51109 -4.52016,-10.03125 -10.03125,-10.03125 l -72,0 z" display="inline" opacity=".08" transform="scale(1,-1)"/><path id="path3778" fill="url(#linearGradient3780)" fill-opacity="1" fill-rule="nonzero" stroke="none" d="m 12,-94.03125 c -4.971633,0 -9.03125,4.059617 -9.03125,9.03125 l 0,71 c 0,4.9716329 4.0596171,9.03125 9.03125,9.03125 l 72,0 c 4.971633,0 9.03125,-4.059617 9.03125,-9.03125 l 0,-71 c 0,-4.971633 -4.059617,-9.03125 -9.03125,-9.03125 l -72,0 z" display="inline" opacity=".1" transform="scale(1,-1)"/><path id="path3770" fill="url(#linearGradient3772)" fill-opacity="1" fill-rule="nonzero" stroke="none" d="m 12,-93 c -4.4091333,0 -8,3.590867 -8,8 l 0,71 c 0,4.4091333 3.5908667,8 8,8 l 72,0 c 4.409133,0 8,-3.5908667 8,-8 l 0,-71 c 0,-4.409133 -3.590867,-8 -8,-8 l -72,0 z" display="inline" opacity=".2" transform="scale(1,-1)"/><rect id="rect3723" width="86" height="85" x="5" y="-92" fill="url(#linearGradient3725)" fill-opacity="1" fill-rule="nonzero" stroke="none" display="inline" opacity=".3" rx="7" ry="7" transform="scale(1,-1)"/><rect id="rect3716" width="84" height="84" x="6" y="-91" fill="url(#linearGradient3721)" fill-opacity="1" fill-rule="nonzero" stroke="none" display="inline" opacity=".45" rx="6" ry="6" transform="scale(1,-1)"/></g><g id="layer1"><rect id="rect2419" width="84" height="84" x="6" y="6" fill="url(#linearGradient3617)" fill-opacity="1" fill-rule="nonzero" stroke="none" rx="6" ry="6"/><path id="path3890" fill="url(#radialGradient4116)" fill-opacity="1" stroke="none" d="m 36.5625,32.0625 c -0.319303,3e-6 -0.56595,0.04413 -0.75,0.125 -0.182658,0.07948 -0.31423,0.171675 -0.40625,0.3125 -0.09063,0.139436 -0.15625,0.311193 -0.15625,0.46875 0,0.239827 0.102775,0.407731 0.28125,0.5625 0.177079,0.154772 0.459488,0.28158 0.875,0.375 0.253766,0.05577 0.43028,0.12476 0.5,0.1875 C 36.97597,34.1565 37,34.23302 37,34.3125 c -2e-6,0.08366 -0.01985,0.15461 -0.09375,0.21875 -0.07251,0.06275 -0.177251,0.09375 -0.3125,0.09375 -0.181264,10e-7 -0.3399,-0.0634 -0.4375,-0.1875 -0.05996,-0.07669 -0.10548,-0.197344 -0.125,-0.34375 l -0.875,0.0625 c 0.02649,0.309543 0.111716,0.580466 0.3125,0.78125 0.200783,0.200784 0.572269,0.28125 1.09375,0.28125 0.296991,0 0.554791,-0.03995 0.75,-0.125 0.195204,-0.08645 0.32874,-0.209074 0.4375,-0.375 0.108757,-0.165925 0.187497,-0.334648 0.1875,-0.53125 -3e-6,-0.167318 -0.04274,-0.333498 -0.125,-0.46875 -0.08087,-0.135248 -0.226384,-0.25312 -0.40625,-0.34375 -0.178477,-0.09202 -0.460885,-0.16076 -0.875,-0.25 C 36.363929,33.09015 36.26337,33.04044 36.21875,33 36.17274,32.96097 36.125,32.9238 36.125,32.875 c 0,-0.06693 0.03798,-0.14148 0.09375,-0.1875 0.05577,-0.0474 0.139846,-0.0625 0.25,-0.0625 0.133854,0 0.2372,0.03101 0.3125,0.09375 0.07669,0.06275 0.13254,0.174464 0.15625,0.3125 l 0.875,-0.0625 C 37.77346,32.650845 37.675108,32.426263 37.46875,32.28125 37.263781,32.134852 36.954306,32.062503 36.5625,32.0625 z m 14.96875,0 c -0.497778,3e-6 -0.877385,0.127386 -1.15625,0.40625 -0.278867,0.278869 -0.4375,0.686937 -0.4375,1.1875 0,0.358345 0.07792,0.63657 0.21875,0.875 0.140827,0.238431 0.336618,0.421098 0.5625,0.53125 0.227275,0.110148 0.497954,0.15625 0.84375,0.15625 0.340215,0 0.616471,-0.06062 0.84375,-0.1875 0.228667,-0.128278 0.411335,-0.302579 0.53125,-0.53125 0.121301,-0.230064 0.187496,-0.516655 0.1875,-0.875 -4e-6,-0.493591 -0.130175,-0.882958 -0.40625,-1.15625 -0.27608,-0.27468 -0.677177,-0.406247 -1.1875,-0.40625 z m 3.375,0 c -0.319304,3e-6 -0.597199,0.04413 -0.78125,0.125 -0.182658,0.07948 -0.31422,0.171675 -0.40625,0.3125 -0.09063,0.139436 -0.125,0.311193 -0.125,0.46875 0,0.239827 0.07153,0.407731 0.25,0.5625 0.17708,0.154772 0.490738,0.28158 0.90625,0.375 0.253767,0.05577 0.39903,0.12476 0.46875,0.1875 0.06972,0.06275 0.124998,0.13927 0.125,0.21875 -2e-6,0.08366 -0.0511,0.15461 -0.125,0.21875 C 55.14624,34.594 55.041498,34.625 54.90625,34.625 54.724985,34.625001 54.5976,34.5616 54.5,34.4375 54.44004,34.36081 54.39452,34.240156 54.375,34.09375 l -0.90625,0.0625 c 0.02649,0.309543 0.142966,0.580466 0.34375,0.78125 0.200783,0.200784 0.572269,0.28125 1.09375,0.28125 0.296991,0 0.523541,-0.03995 0.71875,-0.125 0.195204,-0.08645 0.359989,-0.209074 0.46875,-0.375 0.108756,-0.165925 0.156247,-0.334648 0.15625,-0.53125 -3e-6,-0.167318 -0.04274,-0.333498 -0.125,-0.46875 C 56.04413,33.583502 55.929866,33.46563 55.75,33.375 55.571523,33.28298 55.257865,33.21424 54.84375,33.125 54.676429,33.09015 54.57587,33.04044 54.53125,33 c -0.04602,-0.03903 -0.0625,-0.0762 -0.0625,-0.125 0,-0.06693 0.03798,-0.14148 0.09375,-0.1875 0.05577,-0.0474 0.139847,-0.0625 0.25,-0.0625 0.133855,0 0.2372,0.03101 0.3125,0.09375 0.07669,0.06275 0.10129,0.174464 0.125,0.3125 l 0.90625,-0.0625 c -0.03905,-0.317905 -0.168642,-0.542487 -0.375,-0.6875 -0.204969,-0.146398 -0.483195,-0.218747 -0.875,-0.21875 z M 15,32.125 l 0,3.0625 0.9375,0 0,-1.25 1.1875,0 0,-0.625 -1.1875,0 0,-0.53125 1.40625,0 0,-0.65625 -2.34375,0 z m 3.3125,0 -1.15625,3.0625 0.96875,0 0.125,-0.53125 1.09375,0 0.15625,0.53125 0.96875,0 -1.125,-3.0625 -1.03125,0 z m 2.46875,0 0,3.0625 2.59375,0 0,-0.71875 -1.65625,0 0,-0.59375 1.5,0 0,-0.625 -1.5,0 0,-0.5 1.59375,0 0,-0.625 -2.53125,0 z m 3.09375,0 0,3.0625 0.90625,0 0,-1.6875 1.15625,1.6875 0.875,0 0,-3.0625 -0.875,0 0,1.6875 -1.15625,-1.6875 -0.90625,0 z m 3.5,0 0,0.625 1.53125,0 -1.6875,1.78125 0,0.65625 2.90625,0 0,-0.65625 -1.78125,0 1.71875,-1.8125 0,-0.59375 -2.6875,0 z m 4.03125,0 -1.15625,3.0625 0.96875,0 0.125,-0.53125 1.09375,0 0.15625,0.53125 0.96875,0 -1.125,-3.0625 -1.03125,0 z m 6.78125,0 0,0.75 0.96875,0 0,2.3125 0.9375,0 0,-2.3125 0.96875,0 0,-0.75 -2.875,0 z m 3.3125,0 0,1.8125 c 0,0.150589 0.03519,0.336044 0.09375,0.53125 0.03625,0.121307 0.0899,0.229415 0.1875,0.34375 0.099,0.114335 0.225231,0.18726 0.34375,0.25 0.118517,0.06135 0.261813,0.10409 0.4375,0.125 0.177079,0.02091 0.350804,0.03125 0.5,0.03125 0.257949,0 0.472195,-0.02543 0.65625,-0.09375 0.132459,-0.0488 0.255084,-0.130087 0.375,-0.25 0.121304,-0.121306 0.19422,-0.277152 0.25,-0.4375 0.05716,-0.161742 0.09375,-0.318736 0.09375,-0.5 l 0,-1.8125 -0.9375,0 0,1.84375 c -2e-6,0.170109 -0.06283,0.31283 -0.15625,0.40625 -0.09203,0.09203 -0.211865,0.125 -0.375,0.125 -0.164533,0 -0.28158,-0.03158 -0.375,-0.125 -0.09203,-0.09481 -0.156251,-0.23893 -0.15625,-0.40625 l 0,-1.84375 -0.9375,0 z m 3.59375,0 0,3.0625 1.40625,0 c 0.168713,0 0.354742,-0.03798 0.5625,-0.09375 0.15198,-0.04044 0.273786,-0.128693 0.40625,-0.25 0.132459,-0.1227 0.2386,-0.25763 0.3125,-0.4375 0.07529,-0.181262 0.124997,-0.45358 0.125,-0.78125 0,-0.209148 -0.01231,-0.406908 -0.0625,-0.59375 -0.0502,-0.186838 -0.138456,-0.35917 -0.25,-0.5 -0.111549,-0.140825 -0.266,-0.2372 -0.4375,-0.3125 C 46.986139,32.143459 46.77747,32.125003 46.5,32.125 l -1.40625,0 z m 3.34375,0 0,3.0625 0.9375,0 0,-3.0625 -0.9375,0 z m 3.09375,0.65625 c 0.199387,3e-6 0.353018,0.05365 0.46875,0.1875 0.117126,0.132464 0.187498,0.336376 0.1875,0.625 -2e-6,0.343007 -0.07596,0.58629 -0.1875,0.71875 -0.111549,0.132463 -0.26518,0.21875 -0.46875,0.21875 -0.197997,0 -0.353022,-0.0835 -0.46875,-0.21875 -0.114333,-0.135249 -0.156251,-0.346707 -0.15625,-0.65625 -10e-7,-0.312328 0.04052,-0.552247 0.15625,-0.6875 0.115728,-0.135245 0.277725,-0.187497 0.46875,-0.1875 z m -5.5,0.03125 0.25,0 c 0.245401,3e-6 0.394028,0.03634 0.5,0.15625 0.105963,0.119915 0.187498,0.362622 0.1875,0.6875 0,0.245404 -0.04634,0.421099 -0.09375,0.53125 -0.04741,0.108759 -0.10384,0.17413 -0.1875,0.21875 -0.08366,0.04323 -0.239507,0.0625 -0.4375,0.0625 l -0.21875,0 0,-1.65625 z M 18.8125,32.90625 19.15625,34 l -0.6875,0 0.34375,-1.09375 z m 13.09375,0 L 32.25,34 l -0.6875,0 0.34375,-1.09375 z m -8.875,4.96875 c -0.364643,2e-6 -0.649275,0.05669 -0.84375,0.21875 -0.194472,0.162065 -0.3125,0.417587 -0.3125,0.71875 0,0.240394 0.07964,0.420698 0.21875,0.5625 0.140453,0.141807 0.353732,0.24767 0.65625,0.3125 l 0.3125,0.0625 c 0.183669,0.04051 0.31423,0.07369 0.375,0.125 0.06213,0.05132 0.09375,0.12421 0.09375,0.21875 -2e-6,0.105341 -0.06576,0.19328 -0.15625,0.25 -0.09049,0.05671 -0.204836,0.09375 -0.375,0.09375 -0.167465,0 -0.350282,-0.04243 -0.53125,-0.09375 -0.179621,-0.05267 -0.369375,-0.116109 -0.5625,-0.21875 l 0,0.65625 C 22.099375,40.85283 22.306875,40.90104 22.5,40.9375 22.693123,40.97397 22.870724,41 23.0625,41 c 0.406505,0 0.70907,-0.08794 0.90625,-0.25 0.19852,-0.163412 0.312497,-0.41642 0.3125,-0.75 -3e-6,-0.253896 -0.07695,-0.424746 -0.21875,-0.5625 -0.141807,-0.137752 -0.382472,-0.24497 -0.71875,-0.3125 L 23,39.0625 c -0.158012,-0.03241 -0.25173,-0.08043 -0.3125,-0.125 -0.05942,-0.04592 -0.09375,-0.10647 -0.09375,-0.1875 0,-0.10804 0.03586,-0.19869 0.125,-0.25 0.08913,-0.05131 0.219877,-0.0625 0.40625,-0.0625 0.140453,0 0.310736,-0.0065 0.46875,0.03125 0.158008,0.03782 0.302633,0.11322 0.46875,0.1875 l 0,-0.65625 c -0.187725,-0.04997 -0.355685,-0.06943 -0.53125,-0.09375 -0.17557,-0.02566 -0.333888,-0.03125 -0.5,-0.03125 z m 2.78125,0 c -0.364642,3e-6 -0.649275,0.05669 -0.84375,0.21875 -0.194472,0.162065 -0.281251,0.417587 -0.28125,0.71875 -1e-6,0.240395 0.07965,0.420697 0.21875,0.5625 0.140453,0.141806 0.353733,0.24767 0.65625,0.3125 L 25.875,39.75 c 0.18367,0.04051 0.28298,0.07368 0.34375,0.125 0.06212,0.05132 0.09375,0.12421 0.09375,0.21875 -1e-6,0.105342 -0.03451,0.19329 -0.125,0.25 -0.09049,0.05671 -0.204836,0.09375 -0.375,0.09375 -0.167467,0 -0.350282,-0.04243 -0.53125,-0.09375 -0.17962,-0.05267 -0.369374,-0.11611 -0.5625,-0.21875 l 0,0.65625 c 0.193126,0.07158 0.369375,0.11979 0.5625,0.15625 C 25.474373,40.97397 25.683224,41 25.875,41 c 0.406505,0 0.709071,-0.08794 0.90625,-0.25 0.19852,-0.163412 0.281248,-0.416421 0.28125,-0.75 -2e-6,-0.253897 -0.0457,-0.424746 -0.1875,-0.5625 -0.141807,-0.137752 -0.382472,-0.24497 -0.71875,-0.3125 L 25.8125,39.0625 C 25.654489,39.03009 25.56077,38.98207 25.5,38.9375 25.44058,38.89158 25.40625,38.83103 25.40625,38.75 c -2e-6,-0.10804 0.03586,-0.19869 0.125,-0.25 0.08913,-0.05131 0.219876,-0.0625 0.40625,-0.0625 0.140453,0 0.310737,-0.0066 0.46875,0.03125 0.158009,0.03782 0.302634,0.11322 0.46875,0.1875 L 26.875,38 C 26.687275,37.950031 26.519315,37.93057 26.34375,37.90625 26.168181,37.88059 25.978613,37.875003 25.8125,37.875 z m 6.28125,0 c -0.349448,0.05242 -0.618889,0.196585 -0.84375,0.40625 -0.299816,0.279562 -0.4375,0.668714 -0.4375,1.15625 0,0.482137 0.143086,0.873992 0.4375,1.15625 C 31.544413,40.874658 31.933755,41 32.4375,41 c 0.222834,0 0.446916,-0.01524 0.65625,-0.0625 0.209328,-0.04727 0.399272,-0.12421 0.59375,-0.21875 l 0,-1.46875 -1.21875,0 0,0.53125 0.46875,0 0,0.59375 c -0.05537,0.0216 -0.11727,0.02045 -0.1875,0.03125 -0.06888,0.0095 -0.13772,0.03125 -0.21875,0.03125 -0.298467,10e-7 -0.525439,-0.07578 -0.6875,-0.25 -0.162064,-0.174215 -0.250001,-0.429925 -0.25,-0.75 -1e-6,-0.322772 0.08254,-0.577132 0.25,-0.75 0.168814,-0.174216 0.408129,-0.249998 0.71875,-0.25 0.167463,0 0.333884,0.01524 0.5,0.0625 0.167462,0.04727 0.362433,0.12286 0.53125,0.21875 l 0,-0.625 C 33.430335,38.01947 33.247518,37.94406 33.0625,37.90625 32.878826,37.86844 32.669977,37.875 32.46875,37.875 c -0.130326,10e-7 -0.258517,-0.01747 -0.375,0 z M 15,37.90625 l 0,3.03125 0.75,0 0,-2.21875 0.6875,1.65625 0.5,0 0.6875,-1.65625 0,2.21875 0.75,0 0,-3.03125 -1,0 -0.6875,1.625 -0.6875,-1.625 -1,0 z m 4.125,0 0,3.03125 2.15625,0 0,-0.59375 -1.375,0 0,-0.6875 1.25,0 0,-0.59375 -1.25,0 0,-0.5625 1.34375,0 0,-0.59375 -2.125,0 z m 15.25,0 0,3.03125 2.15625,0 0,-0.59375 -1.375,0 0,-0.6875 1.25,0 0,-0.59375 -1.25,0 0,-0.5625 1.3125,0 0,-0.59375 -2.09375,0 z m -5.84375,0.03125 -1.125,3.03125 0.78125,0 0.1875,-0.5625 1.21875,0 0.1875,0.5625 0.78125,0 -1.125,-3.03125 -0.90625,0 z M 29,38.625 l 0.40625,1.21875 -0.84375,0 L 29,38.625 z" display="inline" font-family="DejaVu Sans" font-size="6" font-stretch="normal" font-style="normal" font-variant="normal" font-weight="bold" opacity=".8" text-anchor="start" writing-mode="lr-tb" style="text-align:start;line-height:125%;-inkscape-font-specification:DejaVu Sans Bold"/><path id="path3842" fill="url(#radialGradient3904)" fill-opacity="1" stroke="none" d="m 40,39 41,0 0,1 -41,0 0,-1 z" display="inline" font-family="DejaVu Sans" font-size="6" font-stretch="normal" font-style="normal" font-variant="normal" font-weight="bold" opacity=".8" text-anchor="start" writing-mode="lr-tb" style="text-align:start;line-height:125%;-inkscape-font-specification:DejaVu Sans Bold"/><path id="path3840" fill="url(#radialGradient3929)" fill-opacity="1" stroke="none" d="m 15,69 66,0 0,1 -66,0 0,-1 z" display="inline" font-family="DejaVu Sans" font-size="6" font-stretch="normal" font-style="normal" font-variant="normal" font-weight="bold" opacity=".8" text-anchor="start" writing-mode="lr-tb" style="text-align:start;line-height:125%;-inkscape-font-specification:DejaVu Sans Bold"/><path id="text3348" fill="url(#radialGradient3933)" fill-opacity="1" stroke="none" d="m 59,70 0,14 -1,0 0,-14 1,0 z" display="inline" font-family="DejaVu Sans" font-size="6" font-stretch="normal" font-style="normal" font-variant="normal" font-weight="bold" opacity=".8" text-anchor="start" writing-mode="lr-tb" style="text-align:start;line-height:125%;-inkscape-font-specification:DejaVu Sans Bold"/><path id="path3870" fill="url(#radialGradient4114)" fill-opacity="1" stroke="none" d="m 41.78125,62.875 c -0.364641,3e-6 -0.649276,0.05669 -0.84375,0.21875 -0.194473,0.162065 -0.28125,0.417586 -0.28125,0.71875 0,0.240395 0.07964,0.420696 0.21875,0.5625 0.140454,0.141805 0.353733,0.24767 0.65625,0.3125 l 0.3125,0.0625 c 0.183669,0.04051 0.28298,0.07368 0.34375,0.125 0.06212,0.05132 0.09375,0.12421 0.09375,0.21875 -2e-6,0.105341 -0.03452,0.19328 -0.125,0.25 -0.09049,0.05671 -0.204835,0.09375 -0.375,0.09375 -0.167466,0 -0.350281,-0.04243 -0.53125,-0.09375 -0.17962,-0.05267 -0.369376,-0.11611 -0.5625,-0.21875 l 0,0.65625 c 0.193124,0.07157 0.369376,0.11979 0.5625,0.15625 0.193125,0.03647 0.401974,0.0625 0.59375,0.0625 0.406504,0 0.709071,-0.08794 0.90625,-0.25 0.19852,-0.163413 0.281247,-0.41642 0.28125,-0.75 -3e-6,-0.253896 -0.0457,-0.424745 -0.1875,-0.5625 C 42.701942,64.299749 42.461277,64.19253 42.125,64.125 L 41.78125,64.0625 C 41.623237,64.03009 41.52952,63.98207 41.46875,63.9375 41.40933,63.891583 41.375,63.83103 41.375,63.75 c 0,-0.10804 0.03586,-0.19868 0.125,-0.25 0.08913,-0.05131 0.219875,-0.0625 0.40625,-0.0625 0.140451,0 0.310736,-0.0066 0.46875,0.03125 0.158008,0.03782 0.302634,0.11322 0.46875,0.1875 l 0,-0.65625 C 42.656025,62.950032 42.488067,62.93057 42.3125,62.90625 42.136931,62.88059 41.947363,62.875003 41.78125,62.875 z m 3.0625,0 C 44.505191,62.92793 44.220809,63.069558 44,63.28125 c -0.294414,0.28091 -0.4375,0.672764 -0.4375,1.15625 0,0.482137 0.143086,0.873991 0.4375,1.15625 C 44.294412,65.874658 44.683754,66 45.1875,66 c 0.168813,0 0.344688,-0.02468 0.5,-0.0625 0.155308,-0.03781 0.294342,-0.08197 0.4375,-0.15625 l 0,-0.625 c -0.144508,0.09859 -0.265799,0.17283 -0.40625,0.21875 -0.140457,0.04592 -0.313442,0.0625 -0.46875,0.0625 -0.278209,10e-7 -0.49689,-0.102981 -0.65625,-0.28125 -0.159363,-0.178269 -0.218751,-0.406778 -0.21875,-0.71875 -10e-7,-0.313321 0.05939,-0.57173 0.21875,-0.75 0.15936,-0.178264 0.378041,-0.249998 0.65625,-0.25 0.155308,0 0.328293,0.01659 0.46875,0.0625 0.140451,0.04592 0.261742,0.12016 0.40625,0.21875 l 0,-0.625 c -0.143158,-0.07428 -0.282192,-0.14969 -0.4375,-0.1875 -0.155312,-0.0378 -0.331187,-0.03125 -0.5,-0.03125 -0.125937,10e-7 -0.230897,-0.01764 -0.34375,0 z m -18.875,0.03125 0,0.59375 1,0 0,2.4375 0.78125,0 0,-2.4375 1,0 0,-0.59375 -2.78125,0 z m 3.1875,0 0,3.03125 2.15625,0 0,-0.59375 -1.375,0 0,-0.6875 1.25,0 0,-0.59375 -1.25,0 0,-0.5625 1.3125,0 0,-0.59375 -2.09375,0 z m 17.625,0 0,3.03125 2.15625,0 0,-0.59375 -1.375,0 0,-0.6875 1.25,0 0,-0.59375 -1.25,0 0,-0.5625 1.3125,0 0,-0.59375 -2.09375,0 z m 2.84375,0 0,3.03125 0.71875,0 0,-2.0625 1.125,2.0625 0.84375,0 0,-3.03125 -0.71875,0 0,2.09375 -1.09375,-2.09375 -0.875,0 z m 3.46875,0 0,3.03125 2.15625,0 0,-0.59375 -1.375,0 0,-0.6875 1.25,0 0,-0.59375 -1.25,0 0,-0.5625 1.3125,0 0,-0.59375 -2.09375,0 z m 11.65625,0 0,0.59375 1,0 0,2.4375 0.78125,0 0,-2.4375 1,0 0,-0.59375 -2.78125,0 z m 6.09375,0 0,3.03125 0.78125,0 0,-1.1875 1.1875,1.1875 0.96875,0 -1.59375,-1.59375 1.4375,-1.4375 -0.90625,0 -1.09375,1.125 0,-1.125 -0.78125,0 z m 3.1875,0 0,3.03125 2.15625,0 0,-0.59375 -1.375,0 0,-0.6875 1.25,0 0,-0.59375 -1.25,0 0,-0.5625 1.34375,0 0,-0.59375 -2.125,0 z M 20,62.9375 l 0,3.03125 0.8125,0 c 0.453773,0 0.80436,-0.06017 1.03125,-0.125 0.226885,-0.06618 0.431684,-0.15584 0.59375,-0.3125 0.141802,-0.136402 0.24362,-0.290479 0.3125,-0.46875 0.06887,-0.179617 0.09375,-0.39676 0.09375,-0.625 -2e-6,-0.225535 -0.02487,-0.415479 -0.09375,-0.59375 C 22.68112,63.665484 22.579302,63.511405 22.4375,63.375 22.276784,63.218343 22.069286,63.09608 21.84375,63.03125 21.619563,62.96508 21.271675,62.9375 20.8125,62.9375 l -0.8125,0 z m 4.1875,0 -1.09375,3.03125 0.78125,0 0.1875,-0.5625 1.21875,0 0.1875,0.5625 0.78125,0 -1.125,-3.03125 -0.9375,0 z m 44.1875,0 -1.125,3.03125 0.78125,0 0.21875,-0.5625 1.21875,0 0.1875,0.5625 0.78125,0 -1.125,-3.03125 -0.9375,0 z m -47.59375,0.59375 0.28125,0 c 0.320071,2e-6 0.551284,0.06209 0.71875,0.21875 0.167457,0.156663 0.249997,0.387686 0.25,0.6875 -3e-6,0.301167 -0.08119,0.52949 -0.25,0.6875 -0.167467,0.158017 -0.400029,0.25 -0.71875,0.25 l -0.28125,0 0,-1.84375 z m 3.875,0.09375 0.4375,1.21875 -0.84375,0 0.40625,-1.21875 z m 44.1875,0 0.40625,1.21875 -0.8125,0 0.40625,-1.21875 z" display="inline" font-family="DejaVu Sans" font-size="6" font-stretch="normal" font-style="normal" font-variant="normal" font-weight="bold" opacity=".8" text-anchor="start" writing-mode="lr-tb" style="text-align:start;line-height:125%;-inkscape-font-specification:DejaVu Sans Bold"/><path font-stretch="normal" style="text-align:start;line-height:125%;-inkscape-font-specification:DejaVu Sans Bold" id="path3935" fill="url(#radialGradient3937)" fill-opacity="1" stroke="none" d="m 37,70 0,14 -1,0 0,-14 1,0 z" display="inline" font-family="DejaVu Sans" font-size="6" font-style="normal" font-variant="normal" font-weight="bold" opacity=".8" text-anchor="start" writing-mode="lr-tb"/></g><g id="layer5"><path id="path3615" fill="url(#radialGradient3619)" fill-opacity="1" fill-rule="nonzero" stroke="none" d="M 12,90 C 8.676,90 6,87.324 6,84 L 6,82 6,14 6,12 c 0,-0.334721 0.04135,-0.6507 0.09375,-0.96875 0.0487,-0.295596 0.09704,-0.596915 0.1875,-0.875 C 6.29113,10.12587 6.302142,10.09265 6.3125,10.0625 6.411365,9.774729 6.5473802,9.515048 6.6875,9.25 6.8320918,8.976493 7.0031161,8.714385 7.1875,8.46875 7.3718839,8.223115 7.5612765,7.995278 7.78125,7.78125 8.221197,7.353194 8.72416,6.966724 9.28125,6.6875 9.559795,6.547888 9.8547231,6.440553 10.15625,6.34375 9.9000482,6.443972 9.6695391,6.580022 9.4375,6.71875 c -0.00741,0.0044 -0.023866,-0.0045 -0.03125,0 -0.031933,0.0193 -0.062293,0.04251 -0.09375,0.0625 -0.120395,0.0767 -0.2310226,0.163513 -0.34375,0.25 -0.1061728,0.0808 -0.2132809,0.161112 -0.3125,0.25 C 8.4783201,7.442683 8.3087904,7.626638 8.15625,7.8125 8.0486711,7.942755 7.9378561,8.077785 7.84375,8.21875 7.818661,8.25713 7.805304,8.30462 7.78125,8.34375 7.716487,8.446782 7.6510225,8.548267 7.59375,8.65625 7.4927417,8.850956 7.3880752,9.071951 7.3125,9.28125 7.30454,9.30306 7.288911,9.3218 7.28125,9.34375 7.2494249,9.4357 7.2454455,9.530581 7.21875,9.625 7.1884177,9.731618 7.1483606,9.828031 7.125,9.9375 7.0521214,10.279012 7,10.635705 7,11 l 0,2 0,68 0,2 c 0,2.781848 2.2181517,5 5,5 l 2,0 68,0 2,0 c 2.781848,0 5,-2.218152 5,-5 l 0,-2 0,-68 0,-2 C 89,10.635705 88.94788,10.279012 88.875,9.9375 88.83085,9.730607 88.78662,9.539842 88.71875,9.34375 88.71105,9.3218 88.69545,9.30306 88.6875,9.28125 88.62476,9.107511 88.549117,8.913801 88.46875,8.75 88.42717,8.6672 88.38971,8.580046 88.34375,8.5 88.28915,8.40279 88.216976,8.31165 88.15625,8.21875 88.06214,8.077785 87.951329,7.942755 87.84375,7.8125 87.700576,7.63805 87.540609,7.465502 87.375,7.3125 87.36383,7.3023 87.35502,7.29135 87.34375,7.28125 87.205364,7.155694 87.058659,7.046814 86.90625,6.9375 86.803679,6.86435 86.701932,6.784136 86.59375,6.71875 c -0.0074,-0.0045 -0.02384,0.0044 -0.03125,0 -0.232039,-0.138728 -0.462548,-0.274778 -0.71875,-0.375 0.301527,0.0968 0.596455,0.204138 0.875,0.34375 0.55709,0.279224 1.060053,0.665694 1.5,1.09375 0.219973,0.214028 0.409366,0.441865 0.59375,0.6875 0.184384,0.245635 0.355408,0.507743 0.5,0.78125 0.14012,0.265048 0.276135,0.524729 0.375,0.8125 0.01041,0.03078 0.02133,0.06274 0.03125,0.09375 0.09046,0.278085 0.1388,0.579404 0.1875,0.875 C 89.95865,11.3493 90,11.665279 90,12 l 0,2 0,68 0,2 c 0,3.324 -2.676,6 -6,6 l -72,0 z" opacity=".2"/><rect id="rect3171" width="66" height="66" x="15" y="15" fill="url(#linearGradient3613)" fill-opacity="1" fill-rule="nonzero" stroke="#fff" stroke-dasharray="none" stroke-dashoffset="0" stroke-linecap="round" stroke-linejoin="miter" stroke-miterlimit="4" stroke-opacity="1" stroke-width=".5" clip-path="url(#clipPath3613)" filter="url(#filter3794)" opacity=".1" rx="12" ry="12"/></g><g id="layer3"><path id="rect4237" fill="#000" fill-opacity="1" fill-rule="nonzero" stroke="none" d="M 12,6 C 8.676,6 6,8.676 6,12 l 0,12 84,0 0,-12 C 90,8.676 87.324,6 84,6 L 12,6 z"/><rect id="rect3250" width="84" height="6" x="6" y="24" fill="url(#linearGradient4262)" fill-opacity="1" fill-rule="evenodd" stroke="none" opacity=".8"/><rect id="rect4289" width="84" height="5" x="6" y="15" fill="url(#linearGradient4320)" fill-opacity="1" fill-rule="evenodd" stroke="none" opacity=".3"/><g id="g4299" transform="translate(1,0)"><path id="path4293" fill="#f0f0f0" fill-opacity="1" fill-rule="evenodd" stroke="none" d="M 28.333333,6 23,15 28.333333,24 39,24 33.666667,15 39,6 28.333333,6 z"/><path id="path4295" fill="#f0f0f0" fill-opacity="1" fill-rule="evenodd" stroke="none" d="M 50.333333,6 45,15 50.333333,24 61,24 55.666667,15 61,6 50.333333,6 z"/><path id="path4297" fill="#f0f0f0" fill-opacity="1" fill-rule="evenodd" stroke="none" d="M 72.333333,6 67,15 72.333333,24 83,24 77.666667,15 83,6 72.333333,6 z"/></g><rect id="rect4291" width="84" height="5" x="6" y="10" fill="url(#linearGradient4310)" fill-opacity="1" fill-rule="evenodd" stroke="none" opacity=".7"/><rect id="rect4324" width="84" height="5" x="6" y="19" fill="url(#linearGradient4326)" fill-opacity="1" fill-rule="evenodd" stroke="none" opacity=".7"/><path id="path4333" fill="url(#linearGradient4371)" fill-opacity="1" fill-rule="evenodd" stroke="url(#linearGradient4373)" stroke-dasharray="none" stroke-dashoffset="0" stroke-linecap="butt" stroke-linejoin="round" stroke-miterlimit="4" stroke-opacity="1" stroke-width="1" d="m 12.005391,10.5 c 1.109513,0 1.770155,0.983693 6.03003,4.302704 4.304387,3.353689 5.477493,3.726472 5.477493,5.074645 0,1.348423 -1.088205,1.622651 -2.439921,1.622651 l -8.133072,0 C 11.588205,21.5 10.5,20.414446 10.5,19.066023 l 0,-6.490605 C 10.5,11.226995 10.967611,10.5 12.005391,10.5 z"/><path id="path4335" fill="url(#radialGradient4379)" fill-opacity="1" fill-rule="evenodd" stroke="none" d="m 12.75,14.9375 a 1.4375,1.4375 0 1 1 -2.875,0 1.4375,1.4375 0 1 1 2.875,0 z" transform="matrix(0.81330712,0,0,0.81132563,3.5868895,1.0746776)"/><path id="path4337" fill="url(#radialGradient4377)" fill-opacity="1" fill-rule="evenodd" stroke="none" d="m 12.75,14.9375 a 1.4375,1.4375 0 1 1 -2.875,0 1.4375,1.4375 0 1 1 2.875,0 z" transform="matrix(0.81330712,0,0,0.81132563,3.5868895,7.09897)"/><path id="path4339" fill="url(#radialGradient4375)" fill-opacity="1" fill-rule="evenodd" stroke="none" d="m 12.75,14.9375 a 1.4375,1.4375 0 1 1 -2.875,0 1.4375,1.4375 0 1 1 2.875,0 z" transform="matrix(0.81330712,0,0,0.81132563,11.618297,7.09897)"/></g><g id="layer4"><path id="rect3728" fill="url(#linearGradient3188)" fill-opacity="1" fill-rule="nonzero" stroke="none" d="M 12,6 C 8.676,6 6,8.676 6,12 l 0,2 0,68 0,2 c 0,0.334721 0.04135,0.6507 0.09375,0.96875 0.0487,0.295596 0.09704,0.596915 0.1875,0.875 0.00988,0.03038 0.020892,0.0636 0.03125,0.09375 0.098865,0.287771 0.2348802,0.547452 0.375,0.8125 0.1445918,0.273507 0.3156161,0.535615 0.5,0.78125 0.1843839,0.245635 0.3737765,0.473472 0.59375,0.6875 0.439947,0.428056 0.94291,0.814526 1.5,1.09375 0.278545,0.139612 0.5734731,0.246947 0.875,0.34375 -0.2562018,-0.100222 -0.4867109,-0.236272 -0.71875,-0.375 -0.00741,-0.0044 -0.023866,0.0045 -0.03125,0 -0.031933,-0.0193 -0.062293,-0.04251 -0.09375,-0.0625 -0.120395,-0.0767 -0.2310226,-0.163513 -0.34375,-0.25 -0.1061728,-0.0808 -0.2132809,-0.161112 -0.3125,-0.25 C 8.4783201,88.557317 8.3087904,88.373362 8.15625,88.1875 8.0486711,88.057245 7.9378561,87.922215 7.84375,87.78125 7.818661,87.74287 7.805304,87.69538 7.78125,87.65625 7.716487,87.553218 7.6510225,87.451733 7.59375,87.34375 7.4927417,87.149044 7.3880752,86.928049 7.3125,86.71875 7.30454,86.69694 7.288911,86.6782 7.28125,86.65625 7.2494249,86.5643 7.2454455,86.469419 7.21875,86.375 7.1884177,86.268382 7.1483606,86.171969 7.125,86.0625 7.0521214,85.720988 7,85.364295 7,85 L 7,83 7,15 7,13 C 7,10.218152 9.2181517,8 12,8 l 2,0 68,0 2,0 c 2.781848,0 5,2.218152 5,5 l 0,2 0,68 0,2 c 0,0.364295 -0.05212,0.720988 -0.125,1.0625 -0.04415,0.206893 -0.08838,0.397658 -0.15625,0.59375 -0.0077,0.02195 -0.0233,0.04069 -0.03125,0.0625 -0.06274,0.173739 -0.138383,0.367449 -0.21875,0.53125 -0.04158,0.0828 -0.07904,0.169954 -0.125,0.25 -0.0546,0.09721 -0.126774,0.18835 -0.1875,0.28125 -0.09411,0.140965 -0.204921,0.275995 -0.3125,0.40625 -0.143174,0.17445 -0.303141,0.346998 -0.46875,0.5 -0.01117,0.0102 -0.01998,0.02115 -0.03125,0.03125 -0.138386,0.125556 -0.285091,0.234436 -0.4375,0.34375 -0.102571,0.07315 -0.204318,0.153364 -0.3125,0.21875 -0.0074,0.0045 -0.02384,-0.0044 -0.03125,0 -0.232039,0.138728 -0.462548,0.274778 -0.71875,0.375 0.301527,-0.0968 0.596455,-0.204138 0.875,-0.34375 0.55709,-0.279224 1.060053,-0.665694 1.5,-1.09375 0.219973,-0.214028 0.409366,-0.441865 0.59375,-0.6875 0.184384,-0.245635 0.355408,-0.507743 0.5,-0.78125 0.14012,-0.265048 0.276135,-0.524729 0.375,-0.8125 0.01041,-0.03078 0.02133,-0.06274 0.03125,-0.09375 0.09046,-0.278085 0.1388,-0.579404 0.1875,-0.875 C 89.95865,84.6507 90,84.334721 90,84 l 0,-2 0,-68 0,-2 C 90,8.676 87.324,6 84,6 L 12,6 z" opacity=".3"/></g><g id="layer6"><path id="path4715" fill="#000" fill-opacity="1" stroke="none" d="m 38.90625,28.90625 c -1.233162,0.08965 -2.128617,0.995255 -2.5,1.90625 -0.349578,0.857507 -0.338301,1.743827 -0.25,2.53125 l -0.0625,0 0,30.375 c -6.903989,-0.613719 -14.349628,2.614273 -17.5,9.03125 -0.004,0.0081 0.0039,0.02317 0,0.03125 -2.374385,4.734334 0.0051,10.649224 4.75,12.75 0.01365,0.006 0.01756,0.02527 0.03125,0.03125 l 0,-0.03125 c 6.934948,3.188484 15.663066,1.316683 20.96875,-4.03125 0.01027,-0.01035 0.02101,-0.02087 0.03125,-0.03125 0.0121,-0.01076 0.01927,-0.02045 0.03125,-0.03125 1.82719,-1.647533 2.312519,-3.825908 3.3125,-5.09375 a 1.0816859,1.0816859 0 0 0 0.1875,-0.375 c 0.573246,-2.100056 0.170271,-4.125316 0.28125,-5.75 a 1.0816859,1.0816859 0 0 0 0,-0.0625 l 0,-17.625 L 63,54.375 63,71.78125 c -6.925948,-0.672557 -14.365195,2.625025 -17.53125,9.03125 -0.004,0.0081 0.004,0.02319 0,0.03125 -2.391709,4.748599 0.03896,10.676515 4.78125,12.78125 0.01365,0.0061 0.01757,0.02526 0.03125,0.03125 l 0,-0.03125 c 6.664168,3.082534 14.897138,1.366406 20.25,-3.40625 0.01724,-0.01537 0.04532,-0.01582 0.0625,-0.03125 L 70.5625,90.15625 c 2.047798,-1.620134 2.829642,-3.911238 3.875,-5.4375 a 1.0816859,1.0816859 0 0 0 0.03125,-0.0625 c 0.58677,-0.958525 0.644213,-1.993514 0.625,-2.875 -0.01921,-0.881486 -0.128694,-1.657367 -0.0625,-2.25 a 1.0816859,1.0816859 0 0 0 0.03125,-0.125 C 75.041658,64.938792 75.104222,50.473207 75.03125,36 A 1.0816859,1.0816859 0 0 0 75,35.8125 c -0.122919,-0.687972 -0.44933,-1.282268 -0.90625,-1.6875 -0.45692,-0.405232 -1.004409,-0.619041 -1.5,-0.75 C 71.602568,33.113081 70.631974,33.106596 70.0625,33 A 1.0816859,1.0816859 0 0 0 70,33 C 59.720359,31.666482 49.428801,30.198994 39.125,28.9375 a 1.0816859,1.0816859 0 0 0 -0.21875,-0.03125 z" opacity=".05"/><path id="path4707" fill="#000" fill-opacity="1" stroke="none" d="m 39,30 c -1.679787,0.122119 -1.992615,1.999325 -1.8125,3.351325 0,10.476642 0,20.953283 0,31.429925 -6.786915,-1.105158 -14.531074,2.135608 -17.618677,8.453808 -2.102946,4.155868 0.05148,9.491309 4.254712,11.327563 6.495586,3.001168 14.830233,1.203009 19.803628,-3.860271 1.558389,-1.366866 2.026111,-3.465865 3.247837,-5.01485 0.481365,-1.763456 0.09386,-3.688078 0.21875,-5.516406 0,-6.286198 0,-12.572396 0,-18.858594 5.666667,0.708333 11.333333,1.416667 17,2.125 0,6.479167 0,12.958333 0,19.4375 -6.804567,-1.17607 -14.542242,2.130465 -17.647154,8.441694 -2.116527,4.164714 0.07649,9.496688 4.277777,11.336657 6.231706,2.896891 14.118676,1.257688 19.157429,-3.269063 1.761149,-1.365076 2.467707,-3.565152 3.649448,-5.290538 0.843538,-1.377972 0.265329,-3.13438 0.4375,-4.675815 C 73.947902,64.946323 74.010438,50.466454 73.9375,36 73.592336,34.06813 71.327672,34.323438 69.865501,34.049745 59.576816,32.715054 49.289586,31.259754 39,30 z" opacity=".1"/><path id="path4703" fill="#000" fill-opacity="1" stroke="none" d="M -60.96875,32.1875 A 0.81343732,0.81343732 0 0 0 -61.625,33 l 0,0.84375 0,33.25 c -2.388698,-0.536097 -5.029263,-0.636373 -7.84375,0.125 -3.374991,0.912998 -6.234478,2.634696 -8.15625,4.8125 -1.925419,2.181938 -2.930215,4.944319 -2.21875,7.625 0.709547,2.67346 2.93918,4.547726 5.6875,5.46875 2.741661,0.918793 6.089315,0.9767 9.46875,0.0625 5.135724,-1.389304 8.953239,-4.70348 10.0625,-8.625 a 0.81343732,0.81343732 0 0 0 0.53125,-0.75 l 0,-0.75 0,-24.0625 19.375,2.40625 0,21.78125 c -2.391944,-0.542642 -5.053265,-0.669584 -7.875,0.09375 -3.379698,0.914272 -6.237209,2.669042 -8.15625,4.84375 -1.922689,2.178842 -2.929758,4.914788 -2.21875,7.59375 0.710813,2.678226 2.966683,4.57772 5.71875,5.5 2.745408,0.920049 6.064047,0.943832 9.4375,0.03125 5.138238,-1.389984 8.984874,-4.69693 10.09375,-8.625 a 0.81343732,0.81343732 0 0 0 0.5,-0.75 l 0,-0.75 0,-45.125 0,-0.65625 a 0.81343732,0.81343732 0 0 0 -0.6875,-0.8125 L -28.5625,36.4375 a 0.81343732,0.81343732 0 0 0 -0.03125,0 L -59.875,32.28125 -60.71875,32.1875 a 0.81343732,0.81343732 0 0 0 -0.25,0 z m 6.875,11.90625 2.8125,0.40625 -2.8125,-0.34375 0,-0.0625 z" opacity=".15" transform="translate(100,-1)"/><path id="path4532" fill="#000" fill-opacity="1" stroke="none" d="m -60.8125,33 0,0.84375 0,34.1875 C -63.291413,67.299394 -66.18859,67.17183 -69.25,68 c -3.237022,0.875675 -5.952991,2.52608 -7.75,4.5625 -1.797009,2.03642 -2.688605,4.515942 -2.0625,6.875 0.625809,2.357948 2.593729,4.047491 5.15625,4.90625 2.562521,0.858759 5.762981,0.938174 9,0.0625 5.178992,-1.401009 8.948765,-4.81552 9.71875,-8.59375 l 0.28125,0 0,-0.75 0,-25 21,2.625 0,23.4375 c -2.47975,-0.733086 -5.405582,-0.891146 -8.46875,-0.0625 -3.237021,0.875675 -5.95299,2.557331 -7.75,4.59375 -1.79701,2.036419 -2.688605,4.484689 -2.0625,6.84375 0.62581,2.357948 2.624979,4.078741 5.1875,4.9375 2.562521,0.858759 5.731731,0.906924 8.96875,0.03125 5.183055,-1.402108 8.984336,-4.811961 9.75,-8.59375 l 0.25,0 0,-0.75 0,-45.125 0,-0.65625 L -28.6875,37.25 -59.96875,33.09375 -60.8125,33 z m 5.90625,10.15625 21,2.96875 0,1.34375 -21,-2.59375 0,-1.71875 z" clip-path="url(#clipPath3754)" opacity=".31" transform="translate(100,-1)"/><g id="g4513" transform="matrix(0.6394564,0,0,0.6394564,81.520854,-0.3027837)"><path id="path3261" fill="url(#linearGradient4520)" fill-opacity="1" stroke="#34870e" stroke-dasharray="none" stroke-miterlimit="4" stroke-opacity="1" stroke-width="2.346" d="m -65.015175,50.278074 0,54.903746 c -3.855793,-1.50998 -8.894464,-1.76801 -14.09417,-0.36139 -9.717741,2.62883 -16.233352,10.00877 -14.521267,16.45962 1.712085,6.45086 10.979991,9.56093 20.697733,6.9321 8.256133,-2.23343 14.170779,-7.8963 14.718388,-13.50281 l 0.06571,0 0,-40.377001 35.186145,4.369521 0,39.09572 c -3.855791,-1.50998 -8.894464,-1.76801 -14.09417,-0.36139 -9.717739,2.62883 -16.233352,10.00876 -14.521267,16.45962 1.712087,6.45086 10.979991,9.56093 20.697733,6.9321 8.256135,-2.23343 14.170779,-7.8963 14.718388,-13.50281 l 0.06571,0 0,-70.542025 -48.918927,-6.505001 z m 6.866391,13.212595 35.186145,4.960885 0,4.435229 -35.186145,-4.369522 0,-5.026592 z"/><path id="path2494" fill="url(#radialGradient4522)" fill-opacity="1" stroke="none" d="m 56.391766,82.480003 a 14.672466,9.280777 0 1 1 -29.344933,0 14.672466,9.280777 0 1 1 29.344933,0 z" transform="matrix(1.0233043,-0.24105639,0.24105639,1.0233043,-138.19892,40.809487)"/><path id="path3278" fill="url(#radialGradient4524)" fill-opacity="1" stroke="none" d="m 56.391766,82.480003 a 14.672466,9.280777 0 1 1 -29.344933,0 14.672466,9.280777 0 1 1 29.344933,0 z" transform="matrix(1.0233043,-0.24105639,0.24105639,1.0233043,-96.754882,53.447131)"/><path id="path3282" fill="none" stroke="url(#radialGradient4526)" stroke-dasharray="none" stroke-linecap="butt" stroke-linejoin="miter" stroke-miterlimit="4" stroke-opacity="1" stroke-width="3.128" d="m -61.35495,88.196416 0,-33.510614 24.18021,3.942425"/><path id="path3292" fill="none" stroke="url(#radialGradient4528)" stroke-dasharray="none" stroke-linecap="butt" stroke-linejoin="miter" stroke-miterlimit="4" stroke-opacity="1" stroke-width="4.932" d="m -19.212614,107.89627 0,-42.617148"/></g></g></svg>