<svg xmlns="http://www.w3.org/2000/svg" xmlns:svg="http://www.w3.org/2000/svg" xmlns:xlink="http://www.w3.org/1999/xlink" id="svg2408" width="96" height="96" display="inline" version="1.0"><defs id="defs2410"><linearGradient id="linearGradient3710"><stop id="stop3712" offset="0" stop-color="#2b4777" stop-opacity="1"/><stop id="stop3714" offset="1" stop-color="#5672a0" stop-opacity="1"/></linearGradient><linearGradient id="linearGradient3704"><stop id="stop3706" offset="0" stop-color="#3f3f3f" stop-opacity="1"/><stop id="stop3708" offset="1" stop-color="#6d6d6d" stop-opacity="1"/></linearGradient><linearGradient id="linearGradient3676"><stop id="stop3678" offset="0" stop-color="#333" stop-opacity="0"/><stop id="stop3688" offset=".25" stop-color="#000" stop-opacity="1"/><stop id="stop3684" offset=".5" stop-color="#000" stop-opacity="1"/><stop id="stop3686" offset=".75" stop-color="#000" stop-opacity="1"/><stop id="stop3680" offset="1" stop-color="#333" stop-opacity="0"/></linearGradient><linearGradient id="linearGradient3683"><stop id="stop3685" offset="0" stop-color="#626d80" stop-opacity="1"/><stop id="stop3687" offset="1" stop-color="#919bab" stop-opacity="1"/></linearGradient><linearGradient id="linearGradient3210"><stop id="stop3212" offset="0" stop-color="#fff" stop-opacity=".39"/><stop id="stop3214" offset="1" stop-color="#000" stop-opacity=".268"/></linearGradient><linearGradient id="linearGradient3174"><stop id="stop3176" offset="0" stop-color="#c30000" stop-opacity="1"/><stop id="stop3178" offset="1" stop-color="#f12300" stop-opacity="1"/></linearGradient><linearGradient id="ButtonShadow" x1="45.448" x2="45.448" y1="92.54" y2="7.017" gradientTransform="scale(1.0058652,0.994169)" gradientUnits="userSpaceOnUse"><stop id="stop3750" offset="0" stop-color="#000" stop-opacity="1"/><stop id="stop3752" offset="1" stop-color="#000" stop-opacity=".588"/></linearGradient><linearGradient id="linearGradient3737"><stop id="stop3739" offset="0" stop-color="#fff" stop-opacity="1"/><stop id="stop3741" offset="1" stop-color="#fff" stop-opacity="0"/></linearGradient><linearGradient id="linearGradient3700"><stop id="stop3702" offset="0" stop-color="#ebebeb" stop-opacity="1"/><stop id="stop3704" offset="1" stop-color="#fafafa" stop-opacity="1"/></linearGradient><linearGradient id="linearGradient3706" x1="48" x2="48" y1="90" y2="5.988" gradientUnits="userSpaceOnUse" xlink:href="#linearGradient3700"/><linearGradient id="linearGradient3743" x1="36.357" x2="36.357" y1="6" y2="63.893" gradientUnits="userSpaceOnUse" xlink:href="#linearGradient3737"/><filter id="filter3174" color-interpolation-filters="sRGB"><feGaussianBlur id="feGaussianBlur3176" stdDeviation="1.71"/></filter><linearGradient id="linearGradient3188" x1="36.357" x2="36.357" y1="6" y2="63.893" gradientUnits="userSpaceOnUse" xlink:href="#linearGradient3737"/><linearGradient id="linearGradient3180" x1="48" x2="48" y1="84" y2="12" gradientUnits="userSpaceOnUse" xlink:href="#linearGradient3174"/><linearGradient id="linearGradient3195" x1="49.143" x2="49.143" y1="84" y2="11.991" gradientTransform="translate(0,1)" gradientUnits="userSpaceOnUse" xlink:href="#ButtonShadow"/><linearGradient id="linearGradient3216" x1="12" x2="84" y1="48" y2="48" gradientTransform="matrix(0,1,-1,0,96,0)" gradientUnits="userSpaceOnUse" xlink:href="#linearGradient3210"/><linearGradient id="linearGradient3026" x1="32.251" x2="32.251" y1="6.132" y2="90.239" gradientTransform="matrix(1.0238095,0,0,1.0119048,-1.1428571,-98.071429)" gradientUnits="userSpaceOnUse" xlink:href="#ButtonShadow-0"/><linearGradient id="ButtonShadow-0" x1="45.448" x2="45.448" y1="92.54" y2="7.017" gradientTransform="matrix(1.0058652,0,0,0.994169,100,0)" gradientUnits="userSpaceOnUse"><stop id="stop3750-8" offset="0" stop-color="#000" stop-opacity="1"/><stop id="stop3752-5" offset="1" stop-color="#000" stop-opacity=".588"/></linearGradient><linearGradient id="linearGradient3780" x1="32.251" x2="32.251" y1="6.132" y2="90.239" gradientTransform="matrix(1.0238095,0,0,1.0119048,-1.1428571,-98.071429)" gradientUnits="userSpaceOnUse" xlink:href="#ButtonShadow-0"/><linearGradient id="linearGradient3728" x1="45.448" x2="45.448" y1="92.54" y2="7.017" gradientTransform="matrix(1.0058652,0,0,0.994169,100,0)" gradientUnits="userSpaceOnUse"><stop id="stop3730" offset="0" stop-color="#000" stop-opacity="1"/><stop id="stop3732" offset="1" stop-color="#000" stop-opacity=".588"/></linearGradient><linearGradient id="linearGradient3772" x1="32.251" x2="32.251" y1="6.132" y2="90.239" gradientTransform="matrix(1.0238095,0,0,1.0119048,-1.1428571,-98.071429)" gradientUnits="userSpaceOnUse" xlink:href="#ButtonShadow-0"/><linearGradient id="linearGradient3735" x1="45.448" x2="45.448" y1="92.54" y2="7.017" gradientTransform="matrix(1.0058652,0,0,0.994169,100,0)" gradientUnits="userSpaceOnUse"><stop id="stop3737" offset="0" stop-color="#000" stop-opacity="1"/><stop id="stop3739-1" offset="1" stop-color="#000" stop-opacity=".588"/></linearGradient><linearGradient id="linearGradient3725" x1="32.251" x2="32.251" y1="6.132" y2="90.239" gradientTransform="matrix(1.0238095,0,0,1.0119048,-1.1428571,-98.071429)" gradientUnits="userSpaceOnUse" xlink:href="#ButtonShadow-0"/><linearGradient id="linearGradient3742" x1="45.448" x2="45.448" y1="92.54" y2="7.017" gradientTransform="matrix(1.0058652,0,0,0.994169,100,0)" gradientUnits="userSpaceOnUse"><stop id="stop3744" offset="0" stop-color="#000" stop-opacity="1"/><stop id="stop3746" offset="1" stop-color="#000" stop-opacity=".588"/></linearGradient><linearGradient id="linearGradient3721" x1="32.251" x2="32.251" y1="6.132" y2="90.239" gradientTransform="translate(0,-97)" gradientUnits="userSpaceOnUse" xlink:href="#ButtonShadow-0"/><linearGradient id="linearGradient3749" x1="45.448" x2="45.448" y1="92.54" y2="7.017" gradientTransform="matrix(1.0058652,0,0,0.994169,100,0)" gradientUnits="userSpaceOnUse"><stop id="stop3751" offset="0" stop-color="#000" stop-opacity="1"/><stop id="stop3753" offset="1" stop-color="#000" stop-opacity=".588"/></linearGradient><linearGradient id="linearGradient3760" x1="32.251" x2="32.251" y1="6.132" y2="90.239" gradientTransform="matrix(1.0238095,0,0,1.0119048,-1.1428571,-98.071429)" gradientUnits="userSpaceOnUse" xlink:href="#ButtonShadow-0"/><linearGradient id="linearGradient3188-7" x1="36.357" x2="36.357" y1="6" y2="63.893" gradientUnits="userSpaceOnUse" xlink:href="#linearGradient3737-1"/><linearGradient id="linearGradient3737-1"><stop id="stop3739-9" offset="0" stop-color="#fff" stop-opacity="1"/><stop id="stop3741-3" offset="1" stop-color="#fff" stop-opacity="0"/></linearGradient><radialGradient id="radialGradient2886" cx="48" cy="90.172" r="42" fx="48" fy="90.172" gradientTransform="matrix(1.1573129,0,0,0.99590774,-7.551021,0.1971319)" gradientUnits="userSpaceOnUse" xlink:href="#linearGradient3737-0"/><linearGradient id="linearGradient3737-0"><stop id="stop3739-6" offset="0" stop-color="#fff" stop-opacity="1"/><stop id="stop3741-0" offset="1" stop-color="#fff" stop-opacity="0"/></linearGradient><linearGradient id="linearGradient3923" x1="36.357" x2="36.357" y1="6" y2="63.893" gradientUnits="userSpaceOnUse" xlink:href="#linearGradient3737-1"/><linearGradient id="linearGradient3689" x1="48" x2="48" y1="72" y2="24" gradientUnits="userSpaceOnUse" xlink:href="#linearGradient3710"/><linearGradient id="linearGradient3699" x1="48" x2="48" y1="72" y2="24" gradientTransform="translate(0,1)" gradientUnits="userSpaceOnUse" xlink:href="#linearGradient3683"/><linearGradient id="linearGradient3701" x1="48" x2="48" y1="72" y2="24" gradientUnits="userSpaceOnUse" xlink:href="#linearGradient3683"/><linearGradient id="linearGradient3708" x1="48" x2="48" y1="72" y2="24" gradientTransform="translate(0,1)" gradientUnits="userSpaceOnUse" xlink:href="#linearGradient3683"/><linearGradient id="linearGradient3714" x1="48" x2="48" y1="72" y2="24" gradientUnits="userSpaceOnUse" xlink:href="#linearGradient3683"/><linearGradient id="linearGradient3722" x1="48" x2="48" y1="72" y2="24" gradientTransform="translate(-100,0)" gradientUnits="userSpaceOnUse" xlink:href="#linearGradient3683"/><clipPath id="clipPath3729" clipPathUnits="userSpaceOnUse"><path id="path3731" fill="#f0f" fill-opacity="1" fill-rule="nonzero" stroke="none" d="m -88,6 c -3.324,0 -6,2.676 -6,6 l 0,72 c 0,3.324 2.676,6 6,6 l 72,0 c 3.324,0 6,-2.676 6,-6 l 0,-72 c 0,-3.324 -2.676,-6 -6,-6 l -72,0 z m 42.03125,18 5.40625,0 8.46875,44.59375 4.71875,0 L -28.03125,72 -45.5,72 l 0.65625,-3.40625 5.34375,0 -1.96875,-10.53125 -20.1875,0 -6.09375,10.53125 5.28125,0 -0.625,3.40625 -13.53125,0 0.65625,-3.40625 4.21875,0 L -45.96875,24 z m -0.46875,7.78125 -13.21875,22.8125 17.59375,0 -4.375,-22.8125 z"/></clipPath><filter id="filter3733" width="1.285" height="1.292" x="-.142" y="-.146"><feGaussianBlur id="feGaussianBlur3735" stdDeviation="3.037"/></filter><linearGradient id="linearGradient3682" x1="16" x2="80" y1="71" y2="71" gradientTransform="matrix(1.125,0,0,0.5,-10,36)" gradientUnits="userSpaceOnUse" xlink:href="#linearGradient3676"/><linearGradient id="linearGradient3692" x1="16" x2="80" y1="71" y2="71" gradientTransform="matrix(0.875,0,0,0.5,18,-12)" gradientUnits="userSpaceOnUse" xlink:href="#linearGradient3676"/><linearGradient id="linearGradient3696" x1="16" x2="80" y1="71" y2="71" gradientTransform="matrix(0.5,0,0,0.5,40,-59)" gradientUnits="userSpaceOnUse" xlink:href="#linearGradient3676"/><linearGradient id="linearGradient3702" x1="16" x2="80" y1="71" y2="71" gradientTransform="matrix(1.25,0,0,0.5,-12,-108)" gradientUnits="userSpaceOnUse" xlink:href="#linearGradient3676"/><linearGradient id="linearGradient3689-3" x1="48" x2="48" y1="72" y2="24" gradientUnits="userSpaceOnUse" xlink:href="#linearGradient3710-7"/><linearGradient id="linearGradient3710-7"><stop id="stop3712-2" offset="0" stop-color="#2b4777" stop-opacity="1"/><stop id="stop3714-0" offset="1" stop-color="#5672a0" stop-opacity="1"/></linearGradient><linearGradient id="linearGradient2940" x1="48" x2="48" y1="72" y2="24" gradientUnits="userSpaceOnUse" xlink:href="#linearGradient3710-7"/><linearGradient id="linearGradient2942"><stop id="stop2944" offset="0" stop-color="#2b4777" stop-opacity="1"/><stop id="stop2946" offset="1" stop-color="#5672a0" stop-opacity="1"/></linearGradient><linearGradient id="linearGradient3702-4" x1="16" x2="80" y1="71" y2="71" gradientTransform="matrix(1.25,0,0,0.5,-12,-108)" gradientUnits="userSpaceOnUse" xlink:href="#linearGradient3676-1"/><linearGradient id="linearGradient3676-1"><stop id="stop3678-4" offset="0" stop-color="#333" stop-opacity="0"/><stop id="stop3688-5" offset=".25" stop-color="#000" stop-opacity="1"/><stop id="stop3684-4" offset=".5" stop-color="#000" stop-opacity="1"/><stop id="stop3686-9" offset=".75" stop-color="#000" stop-opacity="1"/><stop id="stop3680-3" offset="1" stop-color="#333" stop-opacity="0"/></linearGradient><linearGradient id="linearGradient3696-6" x1="16" x2="80" y1="71" y2="71" gradientTransform="matrix(0.5,0,0,0.5,40,-59)" gradientUnits="userSpaceOnUse" xlink:href="#linearGradient3676-1"/><linearGradient id="linearGradient2956"><stop id="stop2958" offset="0" stop-color="#333" stop-opacity="0"/><stop id="stop2960" offset=".25" stop-color="#000" stop-opacity="1"/><stop id="stop2962" offset=".5" stop-color="#000" stop-opacity="1"/><stop id="stop2964" offset=".75" stop-color="#000" stop-opacity="1"/><stop id="stop2966" offset="1" stop-color="#333" stop-opacity="0"/></linearGradient><linearGradient id="linearGradient3692-5" x1="16" x2="80" y1="71" y2="71" gradientTransform="matrix(0.875,0,0,0.5,18,-12)" gradientUnits="userSpaceOnUse" xlink:href="#linearGradient3676-1"/><linearGradient id="linearGradient2969"><stop id="stop2971" offset="0" stop-color="#333" stop-opacity="0"/><stop id="stop2973" offset=".25" stop-color="#000" stop-opacity="1"/><stop id="stop2975" offset=".5" stop-color="#000" stop-opacity="1"/><stop id="stop2977" offset=".75" stop-color="#000" stop-opacity="1"/><stop id="stop2979" offset="1" stop-color="#333" stop-opacity="0"/></linearGradient><linearGradient id="linearGradient3682-7" x1="16" x2="80" y1="71" y2="71" gradientTransform="matrix(1.125,0,0,0.5,-10,36)" gradientUnits="userSpaceOnUse" xlink:href="#linearGradient3676-1"/><linearGradient id="linearGradient2982"><stop id="stop2984" offset="0" stop-color="#333" stop-opacity="0"/><stop id="stop2986" offset=".25" stop-color="#000" stop-opacity="1"/><stop id="stop2988" offset=".5" stop-color="#000" stop-opacity="1"/><stop id="stop2990" offset=".75" stop-color="#000" stop-opacity="1"/><stop id="stop2992" offset="1" stop-color="#333" stop-opacity="0"/></linearGradient><clipPath id="clipPath3729-0" clipPathUnits="userSpaceOnUse"><path id="path3731-0" fill="#f0f" fill-opacity="1" fill-rule="nonzero" stroke="none" d="m -88,6 c -3.324,0 -6,2.676 -6,6 l 0,72 c 0,3.324 2.676,6 6,6 l 72,0 c 3.324,0 6,-2.676 6,-6 l 0,-72 c 0,-3.324 -2.676,-6 -6,-6 l -72,0 z m 42.03125,18 5.40625,0 8.46875,44.59375 4.71875,0 L -28.03125,72 -45.5,72 l 0.65625,-3.40625 5.34375,0 -1.96875,-10.53125 -20.1875,0 -6.09375,10.53125 5.28125,0 -0.625,3.40625 -13.53125,0 0.65625,-3.40625 4.21875,0 L -45.96875,24 z m -0.46875,7.78125 -13.21875,22.8125 17.59375,0 -4.375,-22.8125 z"/></clipPath><filter id="filter3733-3" width="1.285" height="1.292" x="-.142" y="-.146" color-interpolation-filters="sRGB"><feGaussianBlur id="feGaussianBlur3735-8" stdDeviation="3.037"/></filter><linearGradient id="linearGradient2890" x1="48" x2="48" y1="20.221" y2="138.661" gradientUnits="userSpaceOnUse" xlink:href="#linearGradient3737-9"/><linearGradient id="linearGradient3737-9"><stop id="stop3739-2" offset="0" stop-color="#fff" stop-opacity="1"/><stop id="stop3741-1" offset="1" stop-color="#fff" stop-opacity="0"/></linearGradient><clipPath id="clipPath3613" clipPathUnits="userSpaceOnUse"><rect id="rect3615" width="84" height="84" x="6" y="6" fill="#fff" fill-opacity="1" fill-rule="nonzero" stroke="none" rx="6" ry="6"/></clipPath><filter id="filter3794" width="1.384" height="1.384" x="-.192" y="-.192" color-interpolation-filters="sRGB"><feGaussianBlur id="feGaussianBlur3796" stdDeviation="5.28"/></filter><linearGradient id="linearGradient4140" x1="48" x2="48" y1="20.221" y2="138.661" gradientUnits="userSpaceOnUse" xlink:href="#linearGradient3737-9"/></defs><metadata id="metadata2413"/><g id="layer2" display="none"><rect id="rect3745" width="86" height="85" x="5" y="7" fill="url(#ButtonShadow)" fill-opacity="1" fill-rule="nonzero" stroke="none" filter="url(#filter3174)" opacity=".9" rx="6" ry="6"/></g><g id="layer6" display="inline"><path id="path3786" fill="url(#linearGradient3760)" fill-opacity="1" fill-rule="nonzero" stroke="none" d="m 12,-95.03125 c -5.5110903,0 -10.03125,4.52016 -10.03125,10.03125 l 0,71 c 0,5.5110902 4.5201598,10.03125 10.03125,10.03125 l 72,0 c 5.51109,0 10.03125,-4.5201597 10.03125,-10.03125 l 0,-71 c 0,-5.51109 -4.52016,-10.03125 -10.03125,-10.03125 l -72,0 z" display="inline" opacity=".08" transform="scale(1,-1)"/><path id="path3778" fill="url(#linearGradient3780)" fill-opacity="1" fill-rule="nonzero" stroke="none" d="m 12,-94.03125 c -4.971633,0 -9.03125,4.059617 -9.03125,9.03125 l 0,71 c 0,4.9716329 4.0596171,9.03125 9.03125,9.03125 l 72,0 c 4.971633,0 9.03125,-4.059617 9.03125,-9.03125 l 0,-71 c 0,-4.971633 -4.059617,-9.03125 -9.03125,-9.03125 l -72,0 z" display="inline" opacity=".1" transform="scale(1,-1)"/><path id="path3770" fill="url(#linearGradient3772)" fill-opacity="1" fill-rule="nonzero" stroke="none" d="m 12,-93 c -4.4091333,0 -8,3.590867 -8,8 l 0,71 c 0,4.4091333 3.5908667,8 8,8 l 72,0 c 4.409133,0 8,-3.5908667 8,-8 l 0,-71 c 0,-4.409133 -3.590867,-8 -8,-8 l -72,0 z" display="inline" opacity=".2" transform="scale(1,-1)"/><rect id="rect3723" width="86" height="85" x="5" y="-92" fill="url(#linearGradient3725)" fill-opacity="1" fill-rule="nonzero" stroke="none" display="inline" opacity=".3" rx="7" ry="7" transform="scale(1,-1)"/><rect id="rect3716" width="84" height="84" x="6" y="-91" fill="url(#linearGradient3721)" fill-opacity="1" fill-rule="nonzero" stroke="none" display="inline" opacity=".45" rx="6" ry="6" transform="scale(1,-1)"/></g><g id="layer1" display="inline"><rect id="rect2419" width="84" height="84" x="6" y="6" fill="url(#linearGradient3706)" fill-opacity="1" fill-rule="nonzero" stroke="none" rx="6" ry="6"/><path id="rect3728" fill="url(#linearGradient3923)" fill-opacity="1" fill-rule="nonzero" stroke="none" d="M 12,6 C 8.676,6 6,8.676 6,12 l 0,2 0,68 0,2 c 0,0.334721 0.04135,0.6507 0.09375,0.96875 0.0487,0.295596 0.09704,0.596915 0.1875,0.875 0.0099,0.03038 0.02089,0.0636 0.03125,0.09375 0.09886,0.287771 0.23488,0.547452 0.375,0.8125 0.144592,0.273507 0.315616,0.535615 0.5,0.78125 0.184384,0.245635 0.373776,0.473472 0.59375,0.6875 0.439947,0.428056 0.94291,0.814526 1.5,1.09375 0.278545,0.139612 0.573473,0.246947 0.875,0.34375 -0.256202,-0.100222 -0.486711,-0.236272 -0.71875,-0.375 -0.0074,-0.0044 -0.02387,0.0045 -0.03125,0 -0.03193,-0.0193 -0.06229,-0.04251 -0.09375,-0.0625 -0.120395,-0.0767 -0.231023,-0.163513 -0.34375,-0.25 -0.106173,-0.0808 -0.213281,-0.161112 -0.3125,-0.25 C 8.47832,88.557317 8.30879,88.373362 8.15625,88.1875 8.048671,88.057245 7.937856,87.922215 7.84375,87.78125 7.81866,87.74287 7.8053,87.69538 7.78125,87.65625 7.71649,87.553218 7.651022,87.451733 7.59375,87.34375 7.492742,87.149044 7.388075,86.928049 7.3125,86.71875 7.3045,86.69694 7.28891,86.6782 7.28125,86.65625 7.24942,86.5643 7.24545,86.469419 7.21875,86.375 7.188418,86.268382 7.148361,86.171969 7.125,86.0625 7.052121,85.720988 7,85.364295 7,85 L 7,83 7,15 7,13 C 7,10.218152 9.218152,8 12,8 l 2,0 68,0 2,0 c 2.781848,0 5,2.218152 5,5 l 0,2 0,68 0,2 c 0,0.364295 -0.05212,0.720988 -0.125,1.0625 -0.04415,0.206893 -0.08838,0.397658 -0.15625,0.59375 -0.0077,0.02195 -0.0233,0.04069 -0.03125,0.0625 -0.06274,0.173739 -0.138383,0.367449 -0.21875,0.53125 -0.04158,0.0828 -0.07904,0.169954 -0.125,0.25 -0.0546,0.09721 -0.126774,0.18835 -0.1875,0.28125 -0.09411,0.140965 -0.204921,0.275995 -0.3125,0.40625 -0.143174,0.17445 -0.303141,0.346998 -0.46875,0.5 -0.01117,0.0102 -0.01998,0.02115 -0.03125,0.03125 -0.138386,0.125556 -0.285091,0.234436 -0.4375,0.34375 -0.102571,0.07315 -0.204318,0.153364 -0.3125,0.21875 -0.0074,0.0045 -0.02384,-0.0044 -0.03125,0 -0.232039,0.138728 -0.462548,0.274778 -0.71875,0.375 0.301527,-0.0968 0.596455,-0.204138 0.875,-0.34375 0.55709,-0.279224 1.060053,-0.665694 1.5,-1.09375 0.219973,-0.214028 0.409366,-0.441865 0.59375,-0.6875 0.184384,-0.245635 0.355408,-0.507743 0.5,-0.78125 0.14012,-0.265048 0.276135,-0.524729 0.375,-0.8125 0.01041,-0.03078 0.02133,-0.06274 0.03125,-0.09375 0.09046,-0.278085 0.1388,-0.579404 0.1875,-0.875 C 89.95865,84.6507 90,84.334721 90,84 l 0,-2 0,-68 0,-2 C 90,8.676 87.324,6 84,6 L 12,6 z" display="inline" opacity=".5"/><path id="path3615" fill="url(#radialGradient2886)" fill-opacity="1" fill-rule="nonzero" stroke="none" d="M 12,90 C 8.676,90 6,87.324 6,84 L 6,82 6,14 6,12 c 0,-0.334721 0.04135,-0.6507 0.09375,-0.96875 0.0487,-0.295596 0.09704,-0.596915 0.1875,-0.875 C 6.29113,10.12587 6.302142,10.09265 6.3125,10.0625 6.411365,9.774729 6.5473802,9.515048 6.6875,9.25 6.8320918,8.976493 7.0031161,8.714385 7.1875,8.46875 7.3718839,8.223115 7.5612765,7.995278 7.78125,7.78125 8.221197,7.353194 8.72416,6.966724 9.28125,6.6875 9.559795,6.547888 9.8547231,6.440553 10.15625,6.34375 9.9000482,6.443972 9.6695391,6.580022 9.4375,6.71875 c -0.00741,0.0044 -0.023866,-0.0045 -0.03125,0 -0.031933,0.0193 -0.062293,0.04251 -0.09375,0.0625 -0.120395,0.0767 -0.2310226,0.163513 -0.34375,0.25 -0.1061728,0.0808 -0.2132809,0.161112 -0.3125,0.25 C 8.4783201,7.442683 8.3087904,7.626638 8.15625,7.8125 8.0486711,7.942755 7.9378561,8.077785 7.84375,8.21875 7.818661,8.25713 7.805304,8.30462 7.78125,8.34375 7.716487,8.446782 7.6510225,8.548267 7.59375,8.65625 7.4927417,8.850956 7.3880752,9.071951 7.3125,9.28125 7.30454,9.30306 7.288911,9.3218 7.28125,9.34375 7.2494249,9.4357 7.2454455,9.530581 7.21875,9.625 7.1884177,9.731618 7.1483606,9.828031 7.125,9.9375 7.0521214,10.279012 7,10.635705 7,11 l 0,2 0,68 0,2 c 0,2.781848 2.2181517,5 5,5 l 2,0 68,0 2,0 c 2.781848,0 5,-2.218152 5,-5 l 0,-2 0,-68 0,-2 C 89,10.635705 88.94788,10.279012 88.875,9.9375 88.83085,9.730607 88.78662,9.539842 88.71875,9.34375 88.71105,9.3218 88.69545,9.30306 88.6875,9.28125 88.62476,9.107511 88.549117,8.913801 88.46875,8.75 88.42717,8.6672 88.38971,8.580046 88.34375,8.5 88.28915,8.40279 88.216976,8.31165 88.15625,8.21875 88.06214,8.077785 87.951329,7.942755 87.84375,7.8125 87.700576,7.63805 87.540609,7.465502 87.375,7.3125 87.36383,7.3023 87.35502,7.29135 87.34375,7.28125 87.205364,7.155694 87.058659,7.046814 86.90625,6.9375 86.803679,6.86435 86.701932,6.784136 86.59375,6.71875 c -0.0074,-0.0045 -0.02384,0.0044 -0.03125,0 -0.232039,-0.138728 -0.462548,-0.274778 -0.71875,-0.375 0.301527,0.0968 0.596455,0.204138 0.875,0.34375 0.55709,0.279224 1.060053,0.665694 1.5,1.09375 0.219973,0.214028 0.409366,0.441865 0.59375,0.6875 0.184384,0.245635 0.355408,0.507743 0.5,0.78125 0.14012,0.265048 0.276135,0.524729 0.375,0.8125 0.01041,0.03078 0.02133,0.06274 0.03125,0.09375 0.09046,0.278085 0.1388,0.579404 0.1875,0.875 C 89.95865,11.3493 90,11.665279 90,12 l 0,2 0,68 0,2 c 0,3.324 -2.676,6 -6,6 l -72,0 z" display="inline" opacity=".4"/><rect id="rect3797" width="16" height="16" x="112" y="8" fill="#fff" stroke="#000" stroke-dasharray="none" stroke-dashoffset="8.6" stroke-linecap="round" stroke-linejoin="miter" stroke-miterlimit="4" stroke-opacity="1" stroke-width=".5" color="#000" display="inline" enable-background="accumulate" overflow="visible" visibility="visible" style="marker:none"/><text id="text3799" x="131.393" y="11.969" fill="#000" fill-opacity="1" stroke="none" display="inline" font-family="Liberation Sans" font-size="4" font-stretch="normal" font-style="normal" font-variant="normal" font-weight="normal" text-anchor="start" writing-mode="lr-tb" xml:space="preserve" style="text-align:start;line-height:125%;-inkscape-font-specification:Liberation Sans"><tspan id="tspan3801" x="131.393" y="11.969">Width: 2px</tspan><tspan id="tspan3803" x="131.393" y="16.969">Blur: 12</tspan><tspan id="tspan3807" x="131.393" y="21.969">Opacity: 60</tspan></text></g><g id="layer3"><rect id="rect3171" width="66" height="66" x="15" y="15" fill="url(#linearGradient4140)" fill-opacity="1" fill-rule="nonzero" stroke="#fff" stroke-dasharray="none" stroke-dashoffset="0" stroke-linecap="round" stroke-linejoin="miter" stroke-miterlimit="4" stroke-opacity="1" stroke-width=".5" clip-path="url(#clipPath3613)" display="inline" filter="url(#filter3794)" opacity=".5" rx="12" ry="12"/></g><g id="layer4"><text font-family="DejaVu Serif" style="text-align:start;line-height:125%;-inkscape-font-specification:Abandoned Bitplane Italic" id="text3717" x="-71.563" y="72" fill="none" stroke="#fff" stroke-dasharray="none" stroke-miterlimit="4" stroke-width="2" clip-path="url(#clipPath3729-0)" display="inline" filter="url(#filter3733-3)" font-size="65.843" font-stretch="normal" font-style="italic" font-variant="normal" font-weight="normal" opacity=".6" text-anchor="start" transform="translate(100,0)" writing-mode="lr-tb" xml:space="preserve"><tspan id="tspan3719" x="-71.563" y="72" fill="none" stroke="#fff" stroke-dasharray="none" stroke-miterlimit="4" stroke-width="2">A</tspan></text><rect id="rect2902" width="72" height="1" x="8" y="71" fill="url(#linearGradient3682-7)" fill-opacity="1" stroke="none" stroke-width="2" color="#000" display="inline" enable-background="accumulate" opacity=".2" overflow="visible" visibility="visible" style="marker:none"/><rect stroke-width="2" style="marker:none" id="rect3690" width="56" height="1" x="32" y="23" fill="url(#linearGradient3692-5)" fill-opacity="1" stroke="none" color="#000" display="inline" enable-background="accumulate" opacity=".12" overflow="visible" visibility="visible"/><rect id="rect3694" width="32" height="1" x="48" y="-24" fill="url(#linearGradient3696-6)" fill-opacity="1" stroke="none" stroke-width="2" color="#000" display="inline" enable-background="accumulate" opacity=".15" overflow="visible" transform="matrix(0,1,-1,0,0,0)" visibility="visible" style="marker:none"/><rect id="rect3698" width="80" height="1" x="8" y="-73" fill="url(#linearGradient3702-4)" fill-opacity="1" stroke="none" stroke-width="2" color="#000" display="inline" enable-background="accumulate" opacity=".15" overflow="visible" transform="matrix(0,1,-1,0,0,0)" visibility="visible" style="marker:none"/><text id="text2907" x="28.437" y="72" fill="url(#linearGradient3689-3)" fill-opacity="1" stroke="none" display="inline" font-family="DejaVu Serif" font-size="65.843" font-stretch="normal" font-style="italic" font-variant="normal" font-weight="normal" text-anchor="start" writing-mode="lr-tb" xml:space="preserve" style="text-align:start;line-height:125%;-inkscape-font-specification:Abandoned Bitplane Italic"><tspan id="tspan2909" x="28.437" y="72" fill="url(#linearGradient3689-3)" fill-opacity="1">A</tspan></text></g></svg>