<svg xmlns="http://www.w3.org/2000/svg" xmlns:svg="http://www.w3.org/2000/svg" xmlns:xlink="http://www.w3.org/1999/xlink" id="svg2" width="16" height="16" display="inline" version="1.0"><defs id="defs4"><linearGradient id="linearGradient3327"><stop id="stop3330" offset="0" stop-color="#000" stop-opacity="1"/><stop id="stop3333" offset="1" stop-color="#000" stop-opacity="0"/></linearGradient><linearGradient id="ButtonColor" x1="10.32" x2="10.32" y1="21" y2=".999" gradientUnits="userSpaceOnUse"><stop id="stop3189" offset="0" stop-color="#29669f" stop-opacity="1"/><stop id="stop3191" offset="1" stop-color="#88b6e0" stop-opacity="1"/></linearGradient><linearGradient id="linearGradient3204" x1="1" x2="15" y1="9" y2="9" gradientTransform="translate(-17,-2)" gradientUnits="userSpaceOnUse" xlink:href="#ButtonColor"/><linearGradient id="linearGradient3629" x1="0" x2="29.017" y1="8" y2="8" gradientTransform="matrix(0,-1,1,0,0,16)" gradientUnits="userSpaceOnUse" xlink:href="#linearGradient3327"/><linearGradient id="linearGradient3765" x1="383.289" x2="383.289" y1="0" y2="218.48" gradientTransform="matrix(0.09341072,0,0,0.04108075,-26.756456,8.0246654)" gradientUnits="userSpaceOnUse" xlink:href="#SVGID_1_-4"/><linearGradient id="SVGID_1_-4" x1="383.289" x2="383.289" y1="0" y2="218.48" gradientUnits="userSpaceOnUse"><stop id="stop3143-2" offset=".006" stop-color="#ED2828"/><stop id="stop3145-1" offset=".5" stop-color="#EF3B39"/><stop id="stop3147-3" offset=".994" stop-color="#C02126"/></linearGradient><linearGradient id="linearGradient3749-5" x1="175.308" x2="175.308" y1="73.254" y2="180.675" gradientUnits="userSpaceOnUse"><stop id="stop3751-8" offset="0" stop-color="#000" stop-opacity="1"/><stop id="stop3753-7" offset=".994" stop-color="#000" stop-opacity=".473"/></linearGradient><linearGradient id="linearGradient3754" x1="175.308" x2="175.308" y1="73.254" y2="180.675" gradientTransform="matrix(0.04164302,0,0,0.03408859,1.9444673,0.78644322)" gradientUnits="userSpaceOnUse" xlink:href="#linearGradient3749-5"/><linearGradient id="linearGradient3756" x1="175.308" x2="175.308" y1="73.254" y2="180.675" gradientTransform="matrix(0.04998763,0,0,0.03408859,2.4795353,0.78644322)" gradientUnits="userSpaceOnUse" xlink:href="#linearGradient3749-5"/><linearGradient id="linearGradient3809" x1="175.308" x2="175.308" y1="73.254" y2="180.675" gradientTransform="matrix(0.04859283,0,0,0.03408859,3.115962,0.78644322)" gradientUnits="userSpaceOnUse" xlink:href="#linearGradient3749-5"/><linearGradient id="linearGradient4163" x1="6" x2="90" y1="48" y2="48" gradientTransform="translate(-96,0)" gradientUnits="userSpaceOnUse" xlink:href="#linearGradient3696"/><linearGradient id="linearGradient3696"><stop id="stop3698" offset="0" stop-color="#2458a6" stop-opacity="1"/><stop id="stop3700" offset="1" stop-color="#598ad4" stop-opacity="1"/></linearGradient><linearGradient id="linearGradient3738" x1="6" x2="90" y1="48" y2="48" gradientTransform="translate(-52.867199,-57.252856)" gradientUnits="userSpaceOnUse" xlink:href="#linearGradient3696"/><linearGradient id="linearGradient4113" x1="22.111" x2="40" y1="62.984" y2="32" gradientTransform="matrix(0.19388162,0,0,0.19388162,-1.4007219,-1.9461429)" gradientUnits="userSpaceOnUse" xlink:href="#linearGradient4099"/><linearGradient id="linearGradient4099"><stop id="stop4101" offset="0" stop-color="#9ede27" stop-opacity="1"/><stop id="stop4103" offset="1" stop-color="#c8f16b" stop-opacity="1"/></linearGradient><linearGradient id="linearGradient4105" x1="38" x2="70" y1="74" y2="49" gradientTransform="matrix(0.19388162,0,0,0.19388162,-1.5256152,-1.9461429)" gradientUnits="userSpaceOnUse" xlink:href="#linearGradient4099"/><linearGradient id="linearGradient3712"><stop id="stop3714" offset="0" stop-color="#9ede27" stop-opacity="1"/><stop id="stop3716" offset="1" stop-color="#c8f16b" stop-opacity="1"/></linearGradient><linearGradient id="linearGradient3746" x1="56.037" x2="56.037" y1="49.333" y2="13.593" gradientTransform="matrix(0.26518093,0,0,0.26518093,-0.34872536,-3.7081516)" gradientUnits="userSpaceOnUse" xlink:href="#linearGradient3799-3"/><linearGradient id="linearGradient3799-3"><stop id="stop3801-3" offset="0" stop-color="#1a1a1a" stop-opacity="1"/><stop id="stop3803-2" offset="1" stop-color="#000" stop-opacity="1"/></linearGradient><linearGradient id="linearGradient3726" x1="56.037" x2="56.037" y1="49.333" y2="13.593" gradientTransform="matrix(0.19388162,0,0,0.19388162,-1.3401963,-1.8843368)" gradientUnits="userSpaceOnUse" xlink:href="#linearGradient3799-3"/><radialGradient id="radialGradient3758" cx="49.581" cy="67.041" r="10" fx="49.581" fy="67.041" gradientTransform="matrix(1.0456205,0.08243661,-0.05194947,0.90987799,0.84943041,1.3399685)" gradientUnits="userSpaceOnUse" xlink:href="#linearGradient3784-2"/><linearGradient id="linearGradient3784-2"><stop id="stop3786-4" offset="0" stop-color="#a0a0a0" stop-opacity="1"/><stop id="stop3790-2" offset="1" stop-color="#1a1a1a" stop-opacity="1"/></linearGradient><radialGradient id="radialGradient3745" cx="49.581" cy="67.041" r="10" fx="49.581" fy="67.041" gradientTransform="matrix(1.0456205,0.08243661,-0.05194947,0.90987799,0.84943041,1.3399685)" gradientUnits="userSpaceOnUse" xlink:href="#linearGradient3784-2"/><radialGradient id="radialGradient3698" cx="10.117" cy="6.534" r="2.649" fx="10.117" fy="6.534" gradientTransform="matrix(0.60548597,-0.18291744,0.13322228,0.44098703,0.81853832,7.6996387)" gradientUnits="userSpaceOnUse" xlink:href="#linearGradient3784-2"/><linearGradient id="linearGradient3845" x1="11" x2="21" y1="19.5" y2="19.5" gradientTransform="translate(-30,-6)" gradientUnits="userSpaceOnUse" spreadMethod="reflect" xlink:href="#linearGradient3831"/><linearGradient id="linearGradient3831"><stop id="stop3833" offset="0" stop-color="#fff" stop-opacity="1"/><stop id="stop3821" offset=".75" stop-color="#fff" stop-opacity=".498"/><stop id="stop3835" offset="1" stop-color="#fff" stop-opacity="0"/></linearGradient><linearGradient id="linearGradient3888" x1="10" x2="10" y1="1" y2="16" gradientTransform="translate(-30,-6)" gradientUnits="userSpaceOnUse" xlink:href="#linearGradient3823"/><linearGradient id="linearGradient3823"><stop id="stop3825" offset="0" stop-color="#fff" stop-opacity="1"/><stop id="stop3829" offset="1" stop-color="#fff" stop-opacity="0"/></linearGradient><linearGradient id="linearGradient3733" x1="13" x2="9" y1="18" y2="2" gradientTransform="translate(-1,-4)" gradientUnits="userSpaceOnUse" xlink:href="#linearGradient3737"/><linearGradient id="linearGradient3737"><stop id="stop3739" offset="0" stop-color="#fff" stop-opacity="1"/><stop id="stop3741" offset="1" stop-color="#fff" stop-opacity="0"/></linearGradient><linearGradient id="linearGradient3720" x1="3" x2="19" y1="10" y2="10" gradientTransform="translate(-5,-20)" gradientUnits="userSpaceOnUse" xlink:href="#linearGradient3622"/><linearGradient id="linearGradient3622"><stop id="stop3624" offset="0" stop-color="#d6d6d6" stop-opacity="1"/><stop id="stop3626" offset="1" stop-color="#eaeaea" stop-opacity="1"/></linearGradient><clipPath id="clipPath2936" clipPathUnits="userSpaceOnUse"><rect id="rect2938" width="39.954" height="39.954" x="32.046" y="-13.977" fill="#f0f" fill-opacity="1" fill-rule="evenodd" stroke="none" display="inline" rx="3.995" ry="3.995"/></clipPath><linearGradient id="linearGradient2924" x1="10.2" x2="43.8" y1="52.2" y2="85.8" gradientTransform="matrix(-0.47563997,0,0,-0.47563997,74.853839,28.830718)" gradientUnits="userSpaceOnUse" xlink:href="#linearGradient3672"/><linearGradient id="linearGradient3672"><stop id="stop3674" offset="0" stop-color="#fff" stop-opacity="0"/><stop id="stop3676" offset=".3" stop-color="#fff" stop-opacity="0"/><stop id="stop3678" offset=".5" stop-color="#fff" stop-opacity=".484"/><stop id="stop3680" offset=".753" stop-color="#fff" stop-opacity="0"/><stop id="stop3682" offset="1" stop-color="#fff" stop-opacity="0"/></linearGradient><linearGradient id="linearGradient2926" x1="10.2" x2="43.8" y1="52.2" y2="85.8" gradientTransform="matrix(0.47563997,0,0,-0.47563997,29.192403,28.830718)" gradientUnits="userSpaceOnUse" xlink:href="#linearGradient3672"/><linearGradient id="linearGradient3129"><stop id="stop3131" offset="0" stop-color="#fff" stop-opacity="0"/><stop id="stop3133" offset=".3" stop-color="#fff" stop-opacity="0"/><stop id="stop3135" offset=".5" stop-color="#fff" stop-opacity=".484"/><stop id="stop3137" offset=".753" stop-color="#fff" stop-opacity="0"/><stop id="stop3139" offset="1" stop-color="#fff" stop-opacity="0"/></linearGradient><linearGradient id="linearGradient2928" x1="10.2" x2="43.8" y1="52.2" y2="85.8" gradientTransform="matrix(0.47563997,0,0,0.47563997,29.192403,-16.830718)" gradientUnits="userSpaceOnUse" xlink:href="#linearGradient3650"/><linearGradient id="linearGradient3650"><stop id="stop3652" offset="0" stop-color="#000" stop-opacity="0"/><stop id="stop3660" offset=".3" stop-color="#000" stop-opacity="0"/><stop id="stop3658" offset=".5" stop-color="#000" stop-opacity=".157"/><stop id="stop3662" offset=".7" stop-color="#000" stop-opacity="0"/><stop id="stop3654" offset="1" stop-color="#000" stop-opacity="0"/></linearGradient><linearGradient id="linearGradient2930" x1="10.2" x2="43.8" y1="52.2" y2="85.8" gradientTransform="matrix(-0.47563997,0,0,0.47563997,74.853839,-16.830718)" gradientUnits="userSpaceOnUse" xlink:href="#linearGradient3650"/><linearGradient id="linearGradient3149"><stop id="stop3151" offset="0" stop-color="#000" stop-opacity="0"/><stop id="stop3153" offset=".3" stop-color="#000" stop-opacity="0"/><stop id="stop3155" offset=".5" stop-color="#000" stop-opacity=".157"/><stop id="stop3157" offset=".7" stop-color="#000" stop-opacity="0"/><stop id="stop3159" offset="1" stop-color="#000" stop-opacity="0"/></linearGradient><linearGradient id="linearGradient3181" x1="1.881" x2="-3.061" y1="27.258" y2="7.254" gradientTransform="translate(11.119372,-6.2581977)" gradientUnits="userSpaceOnUse" xlink:href="#linearGradient3614"/><linearGradient id="linearGradient3614"><stop id="stop3616" offset="0" stop-color="#b3b3b3" stop-opacity="1"/><stop id="stop3618" offset="1" stop-color="#d2d2d2" stop-opacity="1"/></linearGradient><linearGradient id="linearGradient3177" x1="1.881" x2="-3.061" y1="27.258" y2="7.254" gradientTransform="translate(-14.880628,-11.258198)" gradientUnits="userSpaceOnUse" xlink:href="#linearGradient3614"/><linearGradient id="linearGradient3191" x1="6" x2="43.8" y1="52.2" y2="77.4" gradientTransform="matrix(-0.21164021,0,0,0.21164021,-7.7301594,-3.0476187)" gradientUnits="userSpaceOnUse" xlink:href="#linearGradient3650"/><linearGradient id="linearGradient3194" x1="6" x2="43.8" y1="52.2" y2="77.4" gradientTransform="matrix(0.2116402,0,0,0.2116402,-26.269841,-3.0476185)" gradientUnits="userSpaceOnUse" xlink:href="#linearGradient3650"/><linearGradient id="linearGradient3197" x1="10.2" x2="43.8" y1="52.2" y2="85.8" gradientTransform="matrix(0.2116402,0,0,-0.2116402,-26.269841,19.047619)" gradientUnits="userSpaceOnUse" xlink:href="#linearGradient3672"/><linearGradient id="linearGradient3200" x1="10.2" x2="43.8" y1="52.2" y2="85.8" gradientTransform="matrix(-0.2116402,0,0,-0.2116402,-7.7301594,19.047619)" gradientUnits="userSpaceOnUse" xlink:href="#linearGradient3672"/><clipPath id="clipPath3213" clipPathUnits="userSpaceOnUse"><rect id="rect3215" width="16" height="16" x="-25" y="0" fill="url(#linearGradient3217)" fill-opacity="1" fill-rule="evenodd" stroke="none" display="inline" rx="2" ry="2"/></clipPath><linearGradient id="linearGradient3217" x1="1.881" x2="-3.061" y1="27.258" y2="7.254" gradientTransform="translate(-14.880628,-11.258198)" gradientUnits="userSpaceOnUse" xlink:href="#linearGradient3614"/><linearGradient id="linearGradient3219" x1="6" x2="43.8" y1="52.2" y2="77.4" gradientTransform="matrix(0.2116402,0,0,0.2116402,-1.269841,-3.0476185)" gradientUnits="userSpaceOnUse" xlink:href="#linearGradient3650"/><linearGradient id="linearGradient3221" x1="10.2" x2="43.8" y1="52.2" y2="85.8" gradientTransform="matrix(0.2116402,0,0,-0.2116402,-1.269841,19.047619)" gradientUnits="userSpaceOnUse" xlink:href="#linearGradient3672"/><linearGradient id="linearGradient3223" x1="10.2" x2="43.8" y1="52.2" y2="85.8" gradientTransform="matrix(-0.2116402,0,0,-0.2116402,17.269841,19.047619)" gradientUnits="userSpaceOnUse" xlink:href="#linearGradient3672"/><linearGradient id="linearGradient3225" x1="1.881" x2="-3.061" y1="27.258" y2="7.254" gradientTransform="translate(10.119372,-11.258198)" gradientUnits="userSpaceOnUse" xlink:href="#linearGradient3614"/></defs><metadata id="metadata7"/><g id="layer1"><rect id="rect3173" width="16" height="16" x="0" y="0" fill="url(#linearGradient3225)" fill-opacity="1" fill-rule="evenodd" stroke="none" display="inline" rx="2" ry="2"/><path id="path2902" fill="url(#linearGradient3223)" fill-opacity="1" fill-rule="nonzero" stroke="none" d="m 8,0 0,8 8,0 0,-6 C 16,0.892 15.108,0 14,0 L 8,0 z"/><path id="path2904" fill="url(#linearGradient3221)" fill-opacity="1" fill-rule="nonzero" stroke="none" d="M 2,0 C 0.892,0 0,0.892 0,2 L 0,8 8,8 8,0 2,0 z"/><path id="path2906" fill="url(#linearGradient3219)" fill-opacity="1" fill-rule="nonzero" stroke="none" d="m 0,8 0,6 c 0,1.108 0.892,2 2,2 L 8,16 8,8 0,8 z"/><path id="path2908" fill="url(#linearGradient3191)" fill-opacity="1" fill-rule="nonzero" stroke="none" d="m -9,8 0,6.730159 C -9,15.433651 -9.5663493,16 -10.269842,16 L -17,16 -17,8 z" clip-path="url(#clipPath3213)" transform="translate(25,0)"/><rect id="rect2940" width="12" height="12" x="2" y="-14" fill="url(#linearGradient3720)" fill-opacity="1" fill-rule="evenodd" stroke="none" display="inline" rx="2" ry="2" transform="matrix(0,1,-1,0,0,0)"/><path id="rect3722" fill="url(#linearGradient3733)" fill-opacity="1" fill-rule="evenodd" stroke="none" d="M 4,2 C 2.892,2 2,2.892 2,4 l 0,8 c 0,1.108 0.892,2 2,2 l 8,0 c 1.108,0 2,-0.892 2,-2 L 14,4 C 14,2.892 13.108,2 12,2 z m 0,1 8,0 c 0.554,0 1,0.446 1,1 l 0,8 c 0,0.554 -0.446,1 -1,1 L 4,13 C 3.446,13 3,12.554 3,12 L 3,4 C 3,3.446 3.446,3 4,3 z" display="inline"/><g font-style="normal" style="text-align:start;line-height:125%;-inkscape-font-specification:DejaVu Sans" id="g3735" fill="#000" fill-opacity="1" stroke="none" display="inline" font-family="DejaVu Sans" font-size="51.599" font-stretch="normal" font-variant="normal" font-weight="normal" opacity=".9" text-anchor="start" transform="matrix(0.19047619,0,0,0.19047619,-0.710343,-0.9523811)" writing-mode="lr-tb"><path id="path3737" d="m 50.670666,53.084585 c -3.745665,1.4e-5 -6.340744,0.428328 -7.785243,1.284943 -1.44452,0.856641 -2.166775,2.317947 -2.166767,4.383923 -8e-6,1.646078 0.537484,2.956215 1.612478,3.930414 1.091771,0.957412 2.569874,1.436116 4.434313,1.436113 2.56987,3e-6 4.627456,-0.907015 6.172765,-2.721056 1.562066,-1.830826 2.343109,-4.257938 2.343132,-7.281344 l 0,-1.032993 -4.610678,0 m 9.246551,-1.914817 0,16.09958 -4.635873,0 0,-4.283143 c -1.05821,1.71326 -2.376745,2.981405 -3.955609,3.804439 -1.578901,0.806238 -3.510513,1.209357 -5.794841,1.209358 -2.889032,-10e-7 -5.19017,-0.806239 -6.90342,-2.418716 -1.696465,-1.629271 -2.544694,-3.804434 -2.544691,-6.525495 -3e-6,-3.174554 1.058184,-5.568073 3.174565,-7.180564 2.133165,-1.612461 5.307727,-2.418699 9.523696,-2.418717 l 6.5003,0 0,-0.453509 c -2.3e-5,-2.133153 -0.705481,-3.779222 -2.116377,-4.938212 -1.39414,-1.175741 -3.359345,-1.763623 -5.895621,-1.763648 -1.61249,2.5e-5 -3.182975,0.193186 -4.711458,0.579484 -1.528502,0.386347 -2.998207,0.965831 -4.409118,1.738453 l 0,-4.283144 c 1.696454,-0.655041 3.342523,-1.142143 4.938212,-1.461308 1.59567,-0.335904 3.149357,-0.50387 4.661068,-0.503899 4.081565,2.9e-5 7.130153,1.058216 9.145771,3.174565 2.015571,2.116401 3.023369,5.324556 3.023396,9.624476 m -15.620876,-25.169767 7.104979,9.422916 -3.854829,0 -8.213558,-9.422916 4.963408,0"/></g><path id="rect2835" fill="url(#linearGradient3629)" fill-opacity="1" fill-rule="nonzero" stroke="none" d="m 0,14 c 0,1.108 0.892,2 2,2 l 12,0 c 1.108,0 2,-0.892 2,-2 L 16,2 C 16,0.892 15.108,0 14,0 L 2,0 C 0.892,0 0,0.892 0,2 l 0,12 z m 0.96875,0 0,-12 C 0.96875,1.416801 1.4168007,0.96875 2,0.96875 l 12,0 c 0.583199,0 1.03125,0.448051 1.03125,1.03125 l 0,12 c 0,0.583199 -0.448051,1.03125 -1.03125,1.03125 l -12,0 C 1.4168007,15.03125 0.96875,14.583199 0.96875,14 z" opacity=".4"/><path id="path2843" fill="#fff" fill-opacity="1" fill-rule="nonzero" stroke="none" d="M 2 0.96875 C 1.4168007 0.96875 0.96875 1.4168007 0.96875 2 L 0.96875 3 C 0.96875 2.4168007 1.4168007 1.96875 2 1.96875 L 14 1.96875 C 14.583199 1.96875 15.03125 2.4168007 15.03125 3 L 15.03125 2 C 15.03125 1.4168007 14.583199 0.96875 14 0.96875 L 2 0.96875 z" opacity=".35"/></g></svg>