<svg xmlns="http://www.w3.org/2000/svg" xmlns:svg="http://www.w3.org/2000/svg" xmlns:xlink="http://www.w3.org/1999/xlink" id="svg2" width="16" height="16" display="inline" version="1.0"><defs id="defs4"><linearGradient id="linearGradient3327"><stop id="stop3330" offset="0" stop-color="#000" stop-opacity="1"/><stop id="stop3333" offset="1" stop-color="#000" stop-opacity="0"/></linearGradient><linearGradient id="ButtonColor" x1="10.32" x2="10.32" y1="21" y2=".999" gradientUnits="userSpaceOnUse"><stop id="stop3189" offset="0" stop-color="#29669f" stop-opacity="1"/><stop id="stop3191" offset="1" stop-color="#88b6e0" stop-opacity="1"/></linearGradient><linearGradient id="linearGradient3192" x1="9.057" x2="9.057" y1="10.203" y2="-12.199" gradientTransform="translate(0,5.8006549)" gradientUnits="userSpaceOnUse" xlink:href="#linearGradient3327"/><linearGradient id="linearGradient3204" x1="1" x2="15" y1="9" y2="9" gradientTransform="translate(-17,-2)" gradientUnits="userSpaceOnUse" xlink:href="#ButtonColor-9"/><linearGradient id="linearGradient3173" x1="1" x2="15" y1="9" y2="9" gradientTransform="translate(-16,-1)" gradientUnits="userSpaceOnUse" xlink:href="#ButtonColor"/><linearGradient id="linearGradient3177" x1="1" x2="15" y1="9" y2="9" gradientTransform="translate(-16,-1)" gradientUnits="userSpaceOnUse" xlink:href="#ButtonColor"/><linearGradient id="linearGradient3179" x1="1" x2="15" y1="9" y2="9" gradientTransform="matrix(0,-1,1,0,-1,16)" gradientUnits="userSpaceOnUse" xlink:href="#ButtonColor"/><linearGradient id="linearGradient3612" x1="8" x2="8" y1="15" y2="-1" gradientUnits="userSpaceOnUse" xlink:href="#linearGradient3327"/><linearGradient id="linearGradient3181" x1="-3.061" x2="-3.061" y1="27.258" y2="7.254" gradientTransform="translate(11.119372,-6.2581977)" gradientUnits="userSpaceOnUse" xlink:href="#ButtonColor-1"/><linearGradient id="ButtonColor-1" x1="10.32" x2="10.32" y1="21" y2=".999" gradientUnits="userSpaceOnUse"><stop id="stop3189-4" offset="0" stop-color="#dcdcdc" stop-opacity="1"/><stop id="stop3191-9" offset="1" stop-color="#f0f0f0" stop-opacity="1"/></linearGradient><linearGradient id="linearGradient3617" x1="1" x2="15" y1="9" y2="9" gradientTransform="translate(-17,-22)" gradientUnits="userSpaceOnUse" xlink:href="#ButtonColor-1"/><linearGradient id="linearGradient3634" x1="7.553" x2="7.553" y1="15.951" y2="-7.356" gradientUnits="userSpaceOnUse" xlink:href="#linearGradient3327"/><linearGradient id="linearGradient3638" x1="1" x2="15" y1="9" y2="9" gradientTransform="matrix(0,-1,1,0,-42,17)" gradientUnits="userSpaceOnUse" xlink:href="#ButtonColor-1"/><linearGradient id="linearGradient3643" x1="1" x2="15" y1="9" y2="9" gradientTransform="matrix(0,-1,1,0,-22,17)" gradientUnits="userSpaceOnUse" xlink:href="#ButtonColor-1"/><linearGradient id="linearGradient3649" x1="1" x2="15" y1="9" y2="9" gradientTransform="matrix(0,-1,1,0,-22,18)" gradientUnits="userSpaceOnUse" xlink:href="#ButtonColor-1"/><linearGradient id="linearGradient3651" x1="1" x2="15" y1="9" y2="9" gradientTransform="matrix(0,-1,1,0,-22,17)" gradientUnits="userSpaceOnUse" xlink:href="#ButtonColor-1"/><linearGradient id="linearGradient3656" x1="1" x2="15" y1="9" y2="9" gradientTransform="matrix(0,-1,1,0,-2,17)" gradientUnits="userSpaceOnUse" xlink:href="#ButtonColor-1"/><linearGradient id="linearGradient3667" x1="1" x2="15" y1="9" y2="9" gradientTransform="matrix(0,-1,1,0,-2,17)" gradientUnits="userSpaceOnUse" xlink:href="#ButtonColor-1"/><linearGradient id="linearGradient6917" x1="21" x2=".936" y1="10.708" y2="10.708" gradientTransform="matrix(0,1,-1,0,22,0)" gradientUnits="userSpaceOnUse" xlink:href="#ButtonColor-9"/><linearGradient id="ButtonColor-9" x1="10.32" x2="10.32" y1="21" y2=".999" gradientUnits="userSpaceOnUse"><stop id="stop3189-9" offset="0" stop-color="#dcdcdc" stop-opacity="1"/><stop id="stop3191-5" offset="1" stop-color="#f6f6f6" stop-opacity="1"/></linearGradient><linearGradient id="linearGradient2924" x1="21" x2=".936" y1="10.708" y2="10.708" gradientTransform="matrix(0,1,-1,0,-11,-1)" gradientUnits="userSpaceOnUse" xlink:href="#ButtonColor-9"/><linearGradient id="linearGradient4885" x1="143.059" x2="143.456" y1="12.081" y2="108.192" gradientTransform="matrix(-0.07987645,-0.15836953,0.10157663,-0.05177185,17.634079,37.325504)" gradientUnits="userSpaceOnUse" xlink:href="#linearGradient3232"/><linearGradient id="linearGradient3232"><stop id="stop3234" offset="0" stop-color="#000" stop-opacity="1"/><stop id="stop3236" offset="1" stop-color="#000" stop-opacity="0"/></linearGradient><linearGradient id="linearGradient4889" x1="143.047" x2="143.043" y1="12.101" y2="118.291" gradientTransform="matrix(-0.208543,-0.1147677,0.07320139,-0.1343551,37.4622,36.996814)" gradientUnits="userSpaceOnUse" xlink:href="#linearGradient3232"/><linearGradient id="linearGradient6450" x1="136.414" x2="149.53" y1="115.494" y2="115.494" gradientTransform="matrix(0.2380374,0,0,0.1530025,-39.570418,0.1101614)" gradientUnits="userSpaceOnUse" xlink:href="#linearGradient3485"/><linearGradient id="linearGradient3485"><stop id="stop3487" offset="0" stop-color="#e2433d" stop-opacity="1"/><stop id="stop3489" offset="1" stop-color="#f08682" stop-opacity="1"/></linearGradient><linearGradient id="linearGradient6447" x1="136" x2="150" y1="60" y2="60" gradientTransform="matrix(-0.2283359,2.619013e-4,-4.3938035e-4,0.1364169,38.178616,1.87361)" gradientUnits="userSpaceOnUse" xlink:href="#linearGradient3278"/><linearGradient id="linearGradient3278"><stop id="stop3280" offset="0" stop-color="#944500" stop-opacity="1"/><stop id="stop3290" offset=".3" stop-color="#e2700a" stop-opacity="1"/><stop id="stop3286" offset=".35" stop-color="#ff9e14" stop-opacity="1"/><stop id="stop3288" offset=".65" stop-color="#f38f00" stop-opacity="1"/><stop id="stop3292" offset=".7" stop-color="#ffba14" stop-opacity="1"/><stop id="stop3282" offset="1" stop-color="#ffe094" stop-opacity="1"/></linearGradient><linearGradient id="linearGradient6441" x1="136.988" x2="148.995" y1="17.043" y2="17.043" gradientTransform="matrix(-0.2513097,2.8432668e-4,-4.8358822e-4,0.1480977,41.460964,1.5710995)" gradientUnits="userSpaceOnUse" xlink:href="#linearGradient3308"/><linearGradient id="linearGradient3308"><stop id="stop3310" offset="0" stop-color="#ba6920" stop-opacity="1"/><stop id="stop3312" offset="1" stop-color="#fff" stop-opacity="1"/></linearGradient><linearGradient id="linearGradient6454" x1="136" x2="150" y1="106" y2="106" gradientTransform="matrix(0.2277251,0,0,0.1578953,-38.092109,-1.2314571)" gradientUnits="userSpaceOnUse" xlink:href="#linearGradient3401"/><linearGradient id="linearGradient3401"><stop id="stop3403" offset="0" stop-color="#292929" stop-opacity="1"/><stop id="stop3447" offset=".2" stop-color="#595959" stop-opacity="1"/><stop id="stop3410" offset=".7" stop-color="#efefef" stop-opacity="1"/><stop id="stop3405" offset="1" stop-color="#7f7f7f" stop-opacity="1"/></linearGradient><linearGradient id="linearGradient6444" x1="141.25" x2="144.813" y1="4.922" y2="4.922" gradientTransform="matrix(-0.4847146,6.6435722e-4,-9.3272275e-4,0.3460448,74.817389,1.07144)" gradientUnits="userSpaceOnUse" xlink:href="#linearGradient3394"/><linearGradient id="linearGradient3394"><stop id="stop3396" offset="0" stop-color="#000" stop-opacity="1"/><stop id="stop3402" offset=".5" stop-color="#7d7d7d" stop-opacity="1"/><stop id="stop3398" offset="1" stop-color="#000" stop-opacity="1"/></linearGradient><linearGradient id="linearGradient2984" x1="143.047" x2="143.043" y1="12.101" y2="118.291" gradientTransform="matrix(-0.15539528,-0.08551886,0.05454582,-0.10011435,29.003052,27.488629)" gradientUnits="userSpaceOnUse" xlink:href="#linearGradient3232"/></defs><metadata id="metadata7"/><g id="layer1"><rect id="rect3196" width="16" height="16" x="-16" y="0" fill="url(#linearGradient3204)" fill-opacity="1" fill-rule="nonzero" stroke="none" rx="2" ry="2" transform="matrix(0,-1,1,0,0,0)"/><rect id="rect3615" width="16" height="16" x="-16" y="-20" fill="url(#linearGradient3617)" fill-opacity="1" fill-rule="nonzero" stroke="none" rx="2" ry="2" transform="matrix(0,-1,1,0,0,0)"/><path id="path3626" fill="url(#linearGradient3634)" fill-opacity="1" fill-rule="nonzero" stroke="none" d="M 2,0 C 0.892,0 0,0.892 0,2 l 0,12 c 0,1.108 0.892,2 2,2 l 12,0 c 1.108,0 2,-0.892 2,-2 L 16,2 C 16,0.892 15.108,0 14,0 L 2,0 z m 0.03125,1 11.9375,0 C 14.552613,1 15,1.4473874 15,2.03125 l 0,11.9375 C 15,14.552612 14.552613,15 13.96875,15 L 2.03125,15 C 1.447388,15 1,14.552612 1,13.96875 L 1,2.03125 C 1,1.4473874 1.447388,1 2.03125,1 z" opacity=".4"/><path id="path3645" fill="#fff" fill-opacity="1" fill-rule="nonzero" stroke="none" d="M 2.03125,1 C 1.447388,1 1,1.4473874 1,2.03125 l 0,1 C 1,2.4473874 1.447388,2 2.03125,2 l 11.9375,0 C 14.552613,2 15,2.4473874 15,3.03125 l 0,-1 C 15,1.4473874 14.552613,1 13.96875,1 L 2.03125,1 z" opacity=".2"/><rect id="rect3791" width="1.007" height="1.005" x="1.993" y=".995" fill="#1a1a1a" fill-opacity="1" fill-rule="nonzero" stroke="none" stroke-width=".5" color="#000" display="inline" enable-background="accumulate" opacity=".4" overflow="visible" visibility="visible" style="marker:none"/><rect id="rect3793" width="1.007" height="1.005" x="3.993" y=".995" fill="#1a1a1a" fill-opacity="1" fill-rule="nonzero" stroke="none" stroke-width=".5" color="#000" display="inline" enable-background="accumulate" opacity=".4" overflow="visible" visibility="visible" style="marker:none"/><rect id="rect3795" width="1.007" height="1.005" x="5.993" y=".995" fill="#1a1a1a" fill-opacity="1" fill-rule="nonzero" stroke="none" stroke-width=".5" color="#000" display="inline" enable-background="accumulate" opacity=".4" overflow="visible" visibility="visible" style="marker:none"/><rect id="rect3797" width="1.007" height="1.005" x="7.993" y=".995" fill="#1a1a1a" fill-opacity="1" fill-rule="nonzero" stroke="none" stroke-width=".5" color="#000" display="inline" enable-background="accumulate" opacity=".4" overflow="visible" visibility="visible" style="marker:none"/><rect id="rect3799" width="1.007" height="1.005" x="9.993" y=".995" fill="#1a1a1a" fill-opacity="1" fill-rule="nonzero" stroke="none" stroke-width=".5" color="#000" display="inline" enable-background="accumulate" opacity=".4" overflow="visible" visibility="visible" style="marker:none"/><rect id="rect3801" width="1.007" height="1.005" x="11.993" y=".995" fill="#1a1a1a" fill-opacity="1" fill-rule="nonzero" stroke="none" stroke-width=".5" color="#000" display="inline" enable-background="accumulate" opacity=".4" overflow="visible" visibility="visible" style="marker:none"/><rect id="rect3803" width="1.007" height="1.005" x="13.993" y=".995" fill="#1a1a1a" fill-opacity="1" fill-rule="nonzero" stroke="none" stroke-width=".5" color="#000" display="inline" enable-background="accumulate" opacity=".4" overflow="visible" visibility="visible" style="marker:none"/></g><g id="layer3"><rect id="rect3910" width="10" height="1" x="3" y="4" fill="#31407b" fill-opacity="1" fill-rule="nonzero" stroke="none" stroke-width=".5" color="#000" display="inline" enable-background="accumulate" opacity=".4" overflow="visible" visibility="visible" style="marker:none"/><rect id="rect3914" width="10" height="1" x="3" y="6" fill="#31407b" fill-opacity="1" fill-rule="nonzero" stroke="none" stroke-width=".5" color="#000" display="inline" enable-background="accumulate" opacity=".4" overflow="visible" visibility="visible" style="marker:none"/><rect id="rect3916" width="10" height="1" x="3" y="8" fill="#31407b" fill-opacity="1" fill-rule="nonzero" stroke="none" stroke-width=".5" color="#000" display="inline" enable-background="accumulate" opacity=".4" overflow="visible" visibility="visible" style="marker:none"/><rect id="rect3918" width="10" height="1" x="3" y="10" fill="#31407b" fill-opacity="1" fill-rule="nonzero" stroke="none" stroke-width=".5" color="#000" display="inline" enable-background="accumulate" opacity=".4" overflow="visible" visibility="visible" style="marker:none"/><rect id="rect3920" width="5" height="1" x="3" y="12" fill="#31407b" fill-opacity="1" fill-rule="nonzero" stroke="none" stroke-width=".5" color="#000" display="inline" enable-background="accumulate" opacity=".4" overflow="visible" visibility="visible" style="marker:none"/></g><g id="layer2"><path id="path4887" fill="url(#linearGradient2984)" fill-opacity="1" stroke="none" d="m 12.518674,2.5824255 c -0.04311,0.023009 -0.08707,0.056632 -0.109729,0.098229 l -0.53465,0.9925424 -0.03062,-0.012123 -0.695743,1.2652348 -0.09411,0.1929598 -0.288695,0.505519 -2.8435869,5.2140345 c -0.00645,3.32e-4 -0.014798,0.0086 -0.021371,0.0092 -9.463e-4,0.01092 0.01,0.01112 0.00925,0.02137 l -0.02712,0.113228 c -2.899e-4,0.01704 0.00637,0.07336 0.00637,0.07336 l -0.2029706,1.407211 -0.062865,0.382421 -0.1914709,1.199253 0.021371,-0.0092 1.1735178,-1.040653 0.9968034,-0.862691 c 0,0 0.152669,-0.133941 0.240827,-0.205704 l 2.8343402,-5.235406 0.33431,-0.5760037 0.04849,-0.122475 0.695742,-1.265235 -0.03062,-0.012122 0.556021,-1.0017909 c 0.09066,-0.1664088 -0.05553,-0.4071519 -0.3138,-0.5492846 L 13.047816,2.6325451 C 12.854115,2.5259453 12.648027,2.5133997 12.518674,2.5824257 z" display="inline" opacity=".3"/><path id="rect4829" fill="url(#linearGradient4885)" fill-opacity="1" stroke="none" d="m 18.108861,7.4620095 c -0.04858,-0.00536 -0.103833,-0.00246 -0.146038,0.019031 l -1.001987,0.5167307 -0.01842,-0.027303 -1.288994,0.6506709 -0.186683,0.1060143 -0.52385,0.253918 -5.292498,2.6947356 c -0.0055,-0.0034 -0.01707,-0.0012 -0.02286,-0.0045 -0.0069,0.0085 0.0019,0.01483 -0.0045,0.02286 l -0.08636,0.07809 c -0.0099,0.01389 -0.0362,0.06412 -0.0362,0.06412 l -0.9626789,1.046272 -0.2679737,0.279978 -0.8356738,0.881204 0.022857,0.0045 1.5562533,-0.195392 1.3098931,-0.148433 c 0,0 0.201646,-0.02423 0.314932,-0.03361 l 5.296945,-2.717594 0.601317,-0.286292 0.109218,-0.07364 1.288993,-0.6506714 -0.01841,-0.027302 1.024846,-0.5122837 c 0.16882,-0.086044 0.184253,-0.3672772 0.0515,-0.6304878 l -0.4754,-0.9702442 C 18.417523,7.6049728 18.254588,7.4781613 18.108861,7.4620095 z" display="inline" opacity=".5"/><g id="g4147" display="inline" transform="matrix(0.82867309,0.22204223,0.22204223,-0.82867309,2.5424897,14.711405)"><rect id="rect3483" width="2.884" height="2.448" x="-6.98" y="16.557" fill="url(#linearGradient6450)" fill-opacity="1" stroke="none" rx=".714" ry=".459" transform="matrix(-0.9999992,0.00123406,-0.00299363,0.9999955,0,0)"/><path id="rect2480" fill="url(#linearGradient6447)" fill-opacity="1" stroke="none" d="M 7,6 5.5263594,1.979272 4.0316321,6.003405 4,15.077 6.9683651,15.073595 7,6 z"/><path id="path3274" fill="url(#linearGradient6441)" fill-opacity="1" fill-rule="evenodd" stroke="none" d="m 5.7948954,2.809455 1.0505829,2.8122029 c 0,0 0.1167607,0.2447402 0.1741514,0.386087 C 7.0673752,6.1028105 6.5265708,6.2469295 6.2619053,5.7704152 5.9542961,6.4392455 4.8589666,6.2811533 4.7569793,5.7737539 4.6700829,6.0258361 4.3147661,6.2111336 4.0051706,6 4.0646145,5.8653504 4.1155811,5.7744793 4.1155811,5.7744793 L 5.2218731,2.8324265 5.7948954,2.809455 z"/><rect id="rect6452" width="2.96" height="3" x="-7.008" y="14.005" fill="url(#linearGradient6454)" fill-opacity="1" stroke="none" transform="matrix(-0.9999991,0.00133119,-0.00277519,0.9999961,0,0)"/><path id="path3272" fill="url(#linearGradient6444)" fill-opacity="1" fill-rule="evenodd" stroke="none" d="M 6.2582247,3.9585529 4.8012017,3.968289 5.507314,1.9631765"/></g></g></svg>