<svg xmlns="http://www.w3.org/2000/svg" xmlns:svg="http://www.w3.org/2000/svg" xmlns:xlink="http://www.w3.org/1999/xlink" id="svg2" width="16" height="16" display="inline" version="1.0"><defs id="defs4"><linearGradient id="ButtonColor" x1="10.32" x2="10.32" y1="21" y2=".999" gradientUnits="userSpaceOnUse"><stop id="stop3189" offset="0" stop-color="#29669f" stop-opacity="1"/><stop id="stop3191" offset="1" stop-color="#88b6e0" stop-opacity="1"/></linearGradient><linearGradient id="linearGradient3173" x1="1" x2="15" y1="9" y2="9" gradientTransform="translate(-16,-1)" gradientUnits="userSpaceOnUse" xlink:href="#ButtonColor"/><linearGradient id="linearGradient3177" x1="1" x2="15" y1="9" y2="9" gradientTransform="translate(-16,-1)" gradientUnits="userSpaceOnUse" xlink:href="#ButtonColor"/><linearGradient id="linearGradient3179" x1="1" x2="15" y1="9" y2="9" gradientTransform="matrix(0,-1,1,0,-1,16)" gradientUnits="userSpaceOnUse" xlink:href="#ButtonColor"/><linearGradient id="linearGradient3181" x1="-3.061" x2="-3.061" y1="27.258" y2="7.254" gradientTransform="translate(11.119372,-6.2581977)" gradientUnits="userSpaceOnUse" xlink:href="#linearGradient3614"/><linearGradient id="linearGradient3614"><stop id="stop3616" offset="0" stop-color="#064096" stop-opacity="1"/><stop id="stop3618" offset="1" stop-color="#4484e5" stop-opacity="1"/></linearGradient><linearGradient id="linearGradient3773" x1="-3.061" x2="-3.061" y1="27.258" y2="7.254" gradientTransform="translate(-13.880628,-8.2581977)" gradientUnits="userSpaceOnUse" xlink:href="#linearGradient3614"/><linearGradient id="linearGradient3856" x1="15" x2="106.506" y1="47.277" y2="47.025" gradientTransform="matrix(0.24242424,0,0,0.24242462,-0.636364,1.878782)" gradientUnits="userSpaceOnUse" xlink:href="#linearGradient3771"/><linearGradient id="linearGradient3771"><stop id="stop3773" offset="0" stop-color="#154a99" stop-opacity="1"/><stop id="stop3775" offset="1" stop-color="#154a99" stop-opacity="0"/></linearGradient><linearGradient id="linearGradient3792" x1="15" x2="106.506" y1="47.277" y2="47.025" gradientTransform="matrix(0.15151515,0,0,0.15151539,0.7272725,0.3607798)" gradientUnits="userSpaceOnUse" xlink:href="#linearGradient3771"/><linearGradient id="linearGradient3703" x1="46.125" x2="46.125" y1="63.048" y2="24.84" gradientUnits="userSpaceOnUse" xlink:href="#linearGradient3697"/><linearGradient id="linearGradient3697"><stop id="stop3699" offset="0" stop-color="#dcdcdc" stop-opacity="1"/><stop id="stop3701" offset="1" stop-color="#f0f0f0" stop-opacity="1"/></linearGradient><linearGradient id="linearGradient3883" x1="46.125" x2="46.125" y1="63.048" y2="24.84" gradientUnits="userSpaceOnUse" xlink:href="#linearGradient3697"/><linearGradient id="linearGradient3811"><stop id="stop3813" offset="0" stop-color="#dcdcdc" stop-opacity="1"/><stop id="stop3815" offset="1" stop-color="#f0f0f0" stop-opacity="1"/></linearGradient><linearGradient id="linearGradient3819" x1="46.125" x2="46.125" y1="63.048" y2="24.84" gradientUnits="userSpaceOnUse" xlink:href="#linearGradient3697"/><linearGradient id="linearGradient3686" x1="46.125" x2="46.125" y1="63.048" y2="24.84" gradientTransform="matrix(0.15685603,0,0,0.15703518,0.8592734,0.04817939)" gradientUnits="userSpaceOnUse" xlink:href="#linearGradient3697"/><linearGradient id="linearGradient3703-1" x1="46.125" x2="46.125" y1="63.048" y2="24.84" gradientUnits="userSpaceOnUse" xlink:href="#linearGradient3697-6"/><linearGradient id="linearGradient3697-6"><stop id="stop3699-4" offset="0" stop-color="#dcdcdc" stop-opacity="1"/><stop id="stop3701-1" offset="1" stop-color="#f0f0f0" stop-opacity="1"/></linearGradient><linearGradient id="linearGradient3883-4" x1="46.125" x2="46.125" y1="63.048" y2="24.84" gradientUnits="userSpaceOnUse" xlink:href="#linearGradient3697-6"/><linearGradient id="linearGradient3838"><stop id="stop3840" offset="0" stop-color="#dcdcdc" stop-opacity="1"/><stop id="stop3842" offset="1" stop-color="#f0f0f0" stop-opacity="1"/></linearGradient><linearGradient id="linearGradient3846" x1="46.125" x2="46.125" y1="63.048" y2="24.84" gradientUnits="userSpaceOnUse" xlink:href="#linearGradient3697-6"/><linearGradient id="linearGradient3700" x1="71.672" x2="71.672" y1="62.025" y2="26.414" gradientTransform="matrix(0.21364779,-0.01655517,0.0183611,0.19263422,-8.3413374,0.49210078)" gradientUnits="userSpaceOnUse" xlink:href="#linearGradient3697-0"/><linearGradient id="linearGradient3697-0"><stop id="stop3699-5" offset="0" stop-color="#dcdcdc" stop-opacity="1"/><stop id="stop3701-6" offset="1" stop-color="#f0f0f0" stop-opacity="1"/></linearGradient><linearGradient id="linearGradient3181-8" x1="-3.061" x2="-3.061" y1="27.258" y2="7.254" gradientTransform="translate(11.119372,-6.2581977)" gradientUnits="userSpaceOnUse" xlink:href="#linearGradient3614-7"/><linearGradient id="linearGradient3614-7"><stop id="stop3616-6" offset="0" stop-color="#418f0d" stop-opacity="1"/><stop id="stop3618-7" offset="1" stop-color="#8bdb14" stop-opacity="1"/></linearGradient><linearGradient id="linearGradient3735" x1="-3.061" x2="-3.061" y1="27.258" y2="7.254" gradientTransform="translate(-15.914197,-7.9719786)" gradientUnits="userSpaceOnUse" xlink:href="#linearGradient3614-7"/><linearGradient id="StandardGradient" x1="7.198" x2="7.198" y1="3" y2="13.008" gradientUnits="userSpaceOnUse"><stop id="stop3283" offset="0" stop-color="#000" stop-opacity=".863"/><stop id="stop3285" offset="1" stop-color="#000" stop-opacity=".471"/></linearGradient><linearGradient id="linearGradient2938" x1="7.198" x2="7.198" y1="3" y2="13.008" gradientTransform="translate(-20,0)" gradientUnits="userSpaceOnUse" xlink:href="#StandardGradient"/><linearGradient id="linearGradient3744" x1="6.505" x2="6.505" y1="3.009" y2="14.973" gradientUnits="userSpaceOnUse" xlink:href="#StandardGradient"/><linearGradient id="linearGradient3703-1-7" x1="46.125" x2="46.125" y1="63.048" y2="24.84" gradientUnits="userSpaceOnUse" xlink:href="#linearGradient3697-6-2"/><linearGradient id="linearGradient3697-6-2"><stop id="stop3699-4-2" offset="0" stop-color="#dcdcdc" stop-opacity="1"/><stop id="stop3701-1-6" offset="1" stop-color="#f0f0f0" stop-opacity="1"/></linearGradient><linearGradient id="linearGradient3846-1" x1="46.125" x2="46.125" y1="63.048" y2="24.84" gradientUnits="userSpaceOnUse" xlink:href="#linearGradient3697-6-2"/><linearGradient id="linearGradient2966"><stop id="stop2968" offset="0" stop-color="#dcdcdc" stop-opacity="1"/><stop id="stop2970" offset="1" stop-color="#f0f0f0" stop-opacity="1"/></linearGradient><linearGradient id="linearGradient2974" x1="46.125" x2="46.125" y1="63.048" y2="24.84" gradientUnits="userSpaceOnUse" xlink:href="#linearGradient3697-6-2"/><linearGradient id="linearGradient2888" x1="46.125" x2="46.125" y1="63.048" y2="24.84" gradientTransform="matrix(0.18299871,0,0,0.18320771,-0.35051574,0.24768743)" gradientUnits="userSpaceOnUse" xlink:href="#linearGradient3697-6-2"/><linearGradient id="linearGradient2894" x1="46.125" x2="46.125" y1="63.048" y2="24.84" gradientTransform="matrix(0.19894674,0,0,0.19917396,-0.99081358,-0.60184635)" gradientUnits="userSpaceOnUse" xlink:href="#linearGradient3697-6-2"/><linearGradient id="linearGradient2896" x1="46.125" x2="46.125" y1="63.048" y2="24.84" gradientTransform="matrix(0.18299871,0,0,0.19966459,-0.35051574,-0.94191898)" gradientUnits="userSpaceOnUse" xlink:href="#linearGradient3697-6-2"/><linearGradient id="linearGradient3683" x1="6.809" x2="6.809" y1="1.988" y2="14.889" gradientUnits="userSpaceOnUse" xlink:href="#StandardGradient"/><linearGradient id="linearGradient3687" x1="6.809" x2="6.809" y1="1.988" y2="14.889" gradientUnits="userSpaceOnUse" xlink:href="#StandardGradient"/><linearGradient id="linearGradient3693" x1="6.809" x2="6.809" y1="1.988" y2="14.889" gradientTransform="translate(0,1)" gradientUnits="userSpaceOnUse" xlink:href="#StandardGradient"/><linearGradient id="linearGradient3695" x1="6.809" x2="6.809" y1="1.988" y2="14.889" gradientUnits="userSpaceOnUse" xlink:href="#StandardGradient"/><linearGradient id="linearGradient3698" x1="6.809" x2="6.809" y1="1.988" y2="14.889" gradientTransform="translate(-20,0)" gradientUnits="userSpaceOnUse" xlink:href="#StandardGradient"/><clipPath id="clipPath3705" clipPathUnits="userSpaceOnUse"><path id="path3707" fill="#f0f" fill-opacity="1" stroke="none" d="m -20,0 0,16 16,0 0,-16 -16,0 z m 8,2 c 0.700325,-3.35e-5 1.413277,0.083695 2.09375,0.25 2.118761,0.5044175 4.165188,1.9677239 4.75,4.15625 0.50202,1.7916361 -0.330273,3.71509 -1.75,4.84375 -1.707258,1.389681 -4.018392,1.976893 -6.1875,1.65625 -1.004704,1.114984 -2.371897,2.02644 -3.90625,2.125 0.803753,-0.715615 1.525709,-1.781949 1.25,-2.90625 -0.944166,-0.473886 -1.800185,-1.15954 -2.40625,-2.03125 C -19.207392,8.658391 -19.284657,6.6213181 -18.3125,5.125 -16.985388,3.0168548 -14.418502,1.99304 -12,2 z" display="inline"/></clipPath><filter id="filter3709"><feGaussianBlur id="feGaussianBlur3711" stdDeviation=".405"/></filter><linearGradient id="linearGradient3183" x1="6.809" x2="6.809" y1="1.988" y2="14.889" gradientUnits="userSpaceOnUse" xlink:href="#StandardGradient"/><linearGradient id="linearGradient3187" x1="6.809" x2="6.809" y1="1.988" y2="14.889" gradientUnits="userSpaceOnUse" xlink:href="#StandardGradient"/></defs><metadata id="metadata7"/><g id="layer1"><path id="path3185" fill="#fff" fill-opacity="1" stroke="none" d="M 8 1 C 5.3010668 0.99223174 2.3996932 2.1221014 0.84375 4.59375 L 0.875 4.59375 C -0.32748677 6.4445863 -0.22092844 8.8824835 1.0625 10.65625 C 1.066485 10.661935 1.0584986 10.68183 1.0625 10.6875 C 1.6309659 11.493042 2.4401321 12.030796 3.25 12.53125 C 3.3000425 13.10092 2.9496115 13.741826 2.34375 14.28125 A 0.98666288 0.98666288 0 0 0 3.0625 16.03125 C 4.7865131 15.920507 6.1851697 14.952842 7.28125 13.84375 C 9.5516709 14.043182 11.890394 13.452762 13.6875 12 L 13.71875 12 C 15.399133 10.652661 16.389012 8.3787532 15.78125 6.15625 C 15.778692 6.1466757 15.783852 6.1345483 15.78125 6.125 C 15.067081 3.5045698 12.701512 1.8500068 10.3125 1.28125 C 9.5518311 1.0953449 8.7789903 0.99996274 8 1 z M 8 2 C 8.7003252 1.9999665 9.413277 2.0836945 10.09375 2.25 C 12.212511 2.7544175 14.258938 4.2177239 14.84375 6.40625 C 15.34577 8.1978861 14.513477 10.12134 13.09375 11.25 C 11.386492 12.639681 9.0753583 13.226893 6.90625 12.90625 C 5.9015462 14.021234 4.5343525 14.93269 3 15.03125 C 3.8037526 14.315635 4.5257087 13.249301 4.25 12.125 C 3.305834 11.651114 2.4498154 10.96546 1.84375 10.09375 C 0.79260768 8.658391 0.71534341 6.6213181 1.6875 5.125 C 3.0146119 3.0168548 5.5814984 1.9930389 8 2 z" opacity=".15"/><path id="path2898" fill="url(#linearGradient3687)" fill-opacity="1" stroke="none" d="M 8,2 C 5.5814984,1.9930389 3.0173879,3.0073774 1.690276,5.1155226 0.71811941,6.6118407 0.79139748,8.667262 1.8425398,10.102621 2.4486052,10.974331 3.305834,11.651114 4.25,12.125 4.5257087,13.249301 3.8037526,14.315635 3,15.03125 c 1.5343525,-0.09856 2.9015462,-1.010016 3.90625,-2.125 2.1691083,0.320643 4.494269,-0.265426 6.201527,-1.655107 1.419727,-1.12866 2.252028,-3.0679487 1.750008,-4.8595848 C 14.272973,4.2030321 12.200347,2.7516866 10.081586,2.2472691 9.401113,2.0809636 8.7003252,1.9999665 8,2 z"/><path font-stretch="normal" style="text-align:start;line-height:125%;-inkscape-font-specification:American Participants" id="path2892" fill="url(#linearGradient2896)" fill-opacity="1" stroke="none" d="M 10.229191,6.0112215 C 10.229187,6.4904211 10.0945,6.9025284 9.8251301,7.2475447 9.7431428,7.3625551 9.4971927,7.5957633 9.0872793,7.9471693 8.8179023,8.1835752 8.6832154,8.4040047 8.6832181,8.6084584 l 0,0.3354366 -1.6250285,0 0,-0.5462823 C 7.0581885,8.0334275 7.1870194,7.6947967 7.4446829,7.3817192 7.450537,7.3689447 7.6877033,7.1325418 8.1561819,6.6725106 8.4138415,6.4233338 8.5426724,6.1933206 8.5426751,5.9824698 8.5426724,5.8419111 8.4928969,5.7269044 8.3933482,5.6374493 8.2937945,5.541616 8.1766753,5.4936964 8.0419907,5.4936909 7.8663099,5.4936964 7.734551,5.5639784 7.6467134,5.7045366 7.5588724,5.8451057 7.5178807,6.0144214 7.5237383,6.2124833 l -1.5723249,0 0,-0.1533422 c 0,-0.632532 0.2137421,-1.1372834 0.6412275,-1.5142563 C 6.984989,4.193482 7.476889,4.0177774 8.0683425,4.0177702 c 0.5855931,7.2e-6 1.083349,0.1693226 1.4932694,0.5079466 0.4450491,0.3705838 0.6675751,0.8657515 0.6675791,1.4855047" font-family="American Participants" font-size="48" font-style="normal" font-variant="normal" font-weight="normal" text-anchor="start" writing-mode="tb-rl"/><path font-stretch="normal" style="text-align:start;line-height:125%;-inkscape-font-specification:American Participants" id="path3695-9" fill="url(#linearGradient2894)" fill-opacity="1" stroke="none" d="m 8.9447886,10.980538 c -3.2e-6,0.286812 -0.092314,0.519446 -0.2769339,0.697906 -0.1782591,0.184832 -0.4106284,0.27725 -0.6971094,0.27725 -0.2864854,0 -0.5220379,-0.09242 -0.7066588,-0.27725 -0.1782577,-0.17846 -0.2673857,-0.411094 -0.2673845,-0.697906 -1.2e-6,-0.286809 0.089127,-0.522631 0.2673845,-0.707466 0.1846209,-0.184832 0.4201734,-0.2772483 0.7066588,-0.2772497 0.286481,1.4e-6 0.5188503,0.092419 0.6971094,0.2772497 0.1846196,0.184835 0.2769307,0.420657 0.2769339,0.707466" font-family="American Participants" font-size="48" font-style="normal" font-variant="normal" font-weight="normal" text-anchor="start" writing-mode="tb-rl"/><path id="path3689" fill="#000" fill-opacity="1" stroke="none" d="M 8 2 C 5.5814984 1.9930389 3.0146119 3.0168548 1.6875 5.125 C 1.1377946 5.9710922 0.92465159 6.9783149 1.03125 7.96875 C 1.1053435 7.3125655 1.3229413 6.6861193 1.6875 6.125 C 3.0146119 4.0168548 5.5814984 2.9930389 8 3 C 8.7003252 2.9999665 9.413277 3.0836945 10.09375 3.25 C 12.212511 3.7544175 14.258938 5.2177239 14.84375 7.40625 C 14.894518 7.5874321 14.944501 7.754289 14.96875 7.9375 C 15.025844 7.4236426 14.987244 6.9183593 14.84375 6.40625 C 14.258938 4.2177239 12.212511 2.7544175 10.09375 2.25 C 9.413277 2.0836945 8.7003252 1.9999665 8 2 z M 4.25 13.125 C 4.0764649 13.860504 3.5570954 14.535244 3 15.03125 C 3.3187408 15.010776 3.6349375 14.960172 3.9375 14.875 C 4.2403932 14.338187 4.4024808 13.746795 4.25 13.125 z" opacity=".5"/><path id="path3761" fill="#fff" fill-opacity="1" stroke="none" d="M 14.96875 7.9375 C 14.826099 9.2213945 14.107672 10.443949 13.09375 11.25 C 11.386492 12.639681 9.0753583 13.226893 6.90625 12.90625 C 6.1102597 13.789611 5.0914107 14.550173 3.9375 14.875 C 3.6927158 15.308828 3.3592369 15.711406 3 16.03125 C 4.5343525 15.93269 5.9015462 15.021234 6.90625 13.90625 C 9.0753583 14.226893 11.386492 13.639681 13.09375 12.25 C 14.369905 11.235478 15.184289 9.5659883 14.96875 7.9375 z M 1.03125 7.96875 C 0.90776082 9.0623908 1.1867861 10.196651 1.84375 11.09375 C 2.4498154 11.96546 3.305834 12.651114 4.25 13.125 C 4.3268337 12.799351 4.33461 12.470028 4.25 12.125 C 3.305834 11.651114 2.4498154 10.96546 1.84375 10.09375 C 1.3869755 9.4700139 1.1131714 8.729904 1.03125 7.96875 z" opacity=".3"/></g></svg>