<svg xmlns="http://www.w3.org/2000/svg" xmlns:svg="http://www.w3.org/2000/svg" xmlns:xlink="http://www.w3.org/1999/xlink" id="svg2" width="16" height="16" display="inline" version="1.0"><defs id="defs4"><linearGradient id="linearGradient3327"><stop id="stop3330" offset="0" stop-color="#000" stop-opacity="1"/><stop id="stop3333" offset="1" stop-color="#000" stop-opacity="0"/></linearGradient><linearGradient id="ButtonColor" x1="10.32" x2="10.32" y1="21" y2=".999" gradientUnits="userSpaceOnUse"><stop id="stop3189" offset="0" stop-color="#29669f" stop-opacity="1"/><stop id="stop3191" offset="1" stop-color="#88b6e0" stop-opacity="1"/></linearGradient><linearGradient id="linearGradient3204" x1="1" x2="15" y1="9" y2="9" gradientTransform="translate(-17,-2)" gradientUnits="userSpaceOnUse" xlink:href="#linearGradient3641"/><linearGradient id="linearGradient3629" x1="0" x2="29.017" y1="8" y2="8" gradientTransform="matrix(0,-1,1,0,0,16)" gradientUnits="userSpaceOnUse" xlink:href="#linearGradient3327"/><linearGradient id="linearGradient3765" x1="383.289" x2="383.289" y1="0" y2="218.48" gradientTransform="matrix(0.09341072,0,0,0.04108075,-26.756456,8.0246654)" gradientUnits="userSpaceOnUse" xlink:href="#SVGID_1_-4"/><linearGradient id="SVGID_1_-4" x1="383.289" x2="383.289" y1="0" y2="218.48" gradientUnits="userSpaceOnUse"><stop id="stop3143-2" offset=".006" stop-color="#ED2828"/><stop id="stop3145-1" offset=".5" stop-color="#EF3B39"/><stop id="stop3147-3" offset=".994" stop-color="#C02126"/></linearGradient><linearGradient id="linearGradient3749-5" x1="175.308" x2="175.308" y1="73.254" y2="180.675" gradientUnits="userSpaceOnUse"><stop id="stop3751-8" offset="0" stop-color="#000" stop-opacity="1"/><stop id="stop3753-7" offset=".994" stop-color="#000" stop-opacity=".473"/></linearGradient><linearGradient id="linearGradient3754" x1="175.308" x2="175.308" y1="73.254" y2="180.675" gradientTransform="matrix(0.04164302,0,0,0.03408859,1.9444673,0.78644322)" gradientUnits="userSpaceOnUse" xlink:href="#linearGradient3749-5"/><linearGradient id="linearGradient3756" x1="175.308" x2="175.308" y1="73.254" y2="180.675" gradientTransform="matrix(0.04998763,0,0,0.03408859,2.4795353,0.78644322)" gradientUnits="userSpaceOnUse" xlink:href="#linearGradient3749-5"/><linearGradient id="linearGradient3809" x1="175.308" x2="175.308" y1="73.254" y2="180.675" gradientTransform="matrix(0.04859283,0,0,0.03408859,3.115962,0.78644322)" gradientUnits="userSpaceOnUse" xlink:href="#linearGradient3749-5"/><linearGradient id="linearGradient4163" x1="6" x2="90" y1="48" y2="48" gradientTransform="translate(-96,0)" gradientUnits="userSpaceOnUse" xlink:href="#linearGradient3696"/><linearGradient id="linearGradient3696"><stop id="stop3698" offset="0" stop-color="#2458a6" stop-opacity="1"/><stop id="stop3700" offset="1" stop-color="#598ad4" stop-opacity="1"/></linearGradient><linearGradient id="linearGradient3738" x1="6" x2="90" y1="48" y2="48" gradientTransform="translate(-52.867199,-57.252856)" gradientUnits="userSpaceOnUse" xlink:href="#linearGradient3696"/><linearGradient id="linearGradient4113" x1="22.111" x2="40" y1="62.984" y2="32" gradientTransform="matrix(0.19388162,0,0,0.19388162,-1.4007219,-1.9461429)" gradientUnits="userSpaceOnUse" xlink:href="#linearGradient4099"/><linearGradient id="linearGradient4099"><stop id="stop4101" offset="0" stop-color="#9ede27" stop-opacity="1"/><stop id="stop4103" offset="1" stop-color="#c8f16b" stop-opacity="1"/></linearGradient><linearGradient id="linearGradient4105" x1="38" x2="70" y1="74" y2="49" gradientTransform="matrix(0.19388162,0,0,0.19388162,-1.5256152,-1.9461429)" gradientUnits="userSpaceOnUse" xlink:href="#linearGradient4099"/><linearGradient id="linearGradient3712"><stop id="stop3714" offset="0" stop-color="#9ede27" stop-opacity="1"/><stop id="stop3716" offset="1" stop-color="#c8f16b" stop-opacity="1"/></linearGradient><linearGradient id="linearGradient3746" x1="56.037" x2="56.037" y1="49.333" y2="13.593" gradientTransform="matrix(0.26518093,0,0,0.26518093,-0.34872536,-3.7081516)" gradientUnits="userSpaceOnUse" xlink:href="#linearGradient3799-3"/><linearGradient id="linearGradient3799-3"><stop id="stop3801-3" offset="0" stop-color="#1a1a1a" stop-opacity="1"/><stop id="stop3803-2" offset="1" stop-color="#000" stop-opacity="1"/></linearGradient><linearGradient id="linearGradient3726" x1="56.037" x2="56.037" y1="49.333" y2="13.593" gradientTransform="matrix(0.19388162,0,0,0.19388162,-1.3401963,-1.8843368)" gradientUnits="userSpaceOnUse" xlink:href="#linearGradient3799-3"/><radialGradient id="radialGradient3758" cx="49.581" cy="67.041" r="10" fx="49.581" fy="67.041" gradientTransform="matrix(1.0456205,0.08243661,-0.05194947,0.90987799,0.84943041,1.3399685)" gradientUnits="userSpaceOnUse" xlink:href="#linearGradient3784-2"/><linearGradient id="linearGradient3784-2"><stop id="stop3786-4" offset="0" stop-color="#a0a0a0" stop-opacity="1"/><stop id="stop3790-2" offset="1" stop-color="#1a1a1a" stop-opacity="1"/></linearGradient><radialGradient id="radialGradient3745" cx="49.581" cy="67.041" r="10" fx="49.581" fy="67.041" gradientTransform="matrix(1.0456205,0.08243661,-0.05194947,0.90987799,0.84943041,1.3399685)" gradientUnits="userSpaceOnUse" xlink:href="#linearGradient3784-2"/><radialGradient id="radialGradient3698" cx="10.117" cy="6.534" r="2.649" fx="10.117" fy="6.534" gradientTransform="matrix(0.60548597,-0.18291744,0.13322228,0.44098703,0.81853832,7.6996387)" gradientUnits="userSpaceOnUse" xlink:href="#linearGradient3784-2"/><linearGradient id="linearGradient3181" x1="-3.061" x2="-3.061" y1="27.258" y2="7.254" gradientTransform="translate(12.119372,-7.2581977)" gradientUnits="userSpaceOnUse" xlink:href="#linearGradient3641"/><linearGradient id="linearGradient3641"><stop id="stop3643" offset="0" stop-color="#b4b4b4" stop-opacity="1"/><stop id="stop3645" offset="1" stop-color="#dcdcdc" stop-opacity="1"/></linearGradient><linearGradient id="linearGradient4279" x1="5" x2="9" y1="5" y2="5" gradientTransform="translate(-12,2)" gradientUnits="userSpaceOnUse" xlink:href="#linearGradient4213"/><linearGradient id="linearGradient4213"><stop id="stop4215" offset="0" stop-color="#989898" stop-opacity="1"/><stop id="stop4217" offset="1" stop-color="#e3e3e3" stop-opacity="1"/></linearGradient><linearGradient id="linearGradient4315"><stop id="stop4317" offset="0" stop-color="#fff" stop-opacity="1"/><stop id="stop4319" offset="1" stop-color="#fff" stop-opacity="0"/></linearGradient><linearGradient id="linearGradient4279-2" x1="5" x2="9" y1="5" y2="5" gradientTransform="translate(-12,2)" gradientUnits="userSpaceOnUse" xlink:href="#linearGradient4213-8"/><linearGradient id="linearGradient4213-8"><stop id="stop4215-6" offset="0" stop-color="#b0b0b0" stop-opacity="1"/><stop id="stop4217-2" offset="1" stop-color="#f5f5f5" stop-opacity="1"/></linearGradient><linearGradient id="linearGradient4252" x1="5" x2="9" y1="5" y2="5" gradientTransform="matrix(0.75,0,0,0.75,-9.75,0.75)" gradientUnits="userSpaceOnUse" xlink:href="#linearGradient4213-8"/><linearGradient id="linearGradient4254" x1="6" x2="9" y1="5" y2="5" gradientTransform="matrix(0.78653787,0,0,0.78653787,-10.005765,-8.4326893)" gradientUnits="userSpaceOnUse" xlink:href="#linearGradient4315"/><linearGradient id="linearGradient4264" x1="5" x2="9" y1="5" y2="5" gradientTransform="matrix(0.75,0,0,0.75,-9.75,0.75)" gradientUnits="userSpaceOnUse" xlink:href="#linearGradient4213-8"/><linearGradient id="linearGradient4266" x1="6" x2="9" y1="5" y2="5" gradientTransform="matrix(0.8223551,0,0,0.8223551,-10.256486,-8.6117755)" gradientUnits="userSpaceOnUse" xlink:href="#linearGradient4315"/><linearGradient id="linearGradient4276" x1="5" x2="9" y1="5" y2="5" gradientTransform="matrix(0.75,0,0,0.75,-9.75,0.75)" gradientUnits="userSpaceOnUse" xlink:href="#linearGradient4213-8"/><linearGradient id="linearGradient4278" x1="6" x2="9" y1="5" y2="5" gradientTransform="matrix(0.89398956,0,0,0.89398956,-10.757927,-8.9699478)" gradientUnits="userSpaceOnUse" xlink:href="#linearGradient4315"/><linearGradient id="linearGradient4304" x1="5" x2="9" y1="5" y2="5" gradientTransform="matrix(0.75,0,0,0.75,-9.75,0.75)" gradientUnits="userSpaceOnUse" xlink:href="#linearGradient4213-8"/><linearGradient id="linearGradient4306" x1="6" x2="9" y1="5" y2="5" gradientTransform="matrix(0.85817233,0,0,0.85817233,-10.507206,-8.7908617)" gradientUnits="userSpaceOnUse" xlink:href="#linearGradient4315"/><linearGradient id="linearGradient4308" x1="5" x2="9" y1="5" y2="5" gradientTransform="matrix(0.75,0,0,0.75,-9.75,0.75)" gradientUnits="userSpaceOnUse" xlink:href="#linearGradient4213-8"/><linearGradient id="linearGradient4310" x1="6" x2="9" y1="5" y2="5" gradientTransform="matrix(0.89398956,0,0,0.89398956,-10.757927,-8.9699478)" gradientUnits="userSpaceOnUse" xlink:href="#linearGradient4315"/><linearGradient id="linearGradient4340" x1="5" x2="9" y1="5" y2="5" gradientTransform="matrix(0.75,0,0,0.75,-9.75,0.75)" gradientUnits="userSpaceOnUse" xlink:href="#linearGradient4213-8"/><linearGradient id="linearGradient4342" x1="6" x2="9" y1="5" y2="5" gradientTransform="matrix(0.96562403,0,0,0.60745171,-11.259368,-7.2149034)" gradientUnits="userSpaceOnUse" xlink:href="#linearGradient4315"/><linearGradient id="linearGradient4348" x1="5" x2="9" y1="5" y2="5" gradientTransform="matrix(0.75,0,0,0.75,-9.75,0.75)" gradientUnits="userSpaceOnUse" xlink:href="#linearGradient4213-8"/><linearGradient id="linearGradient4350" x1="6" x2="9" y1="5" y2="5" gradientTransform="matrix(0.8223551,0,0,0.8223551,-10.256486,-8.6117755)" gradientUnits="userSpaceOnUse" xlink:href="#linearGradient4315"/></defs><metadata id="metadata7"/><g id="layer1"><rect id="rect3196" width="16" height="16" x="-16" y="0" fill="url(#linearGradient3204)" fill-opacity="1" fill-rule="nonzero" stroke="none" rx="2" ry="2" transform="matrix(0,-1,1,0,0,0)"/><path id="rect4352" fill="#000" fill-opacity="1" fill-rule="nonzero" stroke="none" stroke-width=".606" d="m 2.3581723,1.3552898 c -0.554,0 -1,0.446 -1,1 l 0,3.6447102 c 0,0.554 0.446,1 1,1 L 3,7 3,9 C 2.446,9 2,9.446 2,10 l 0,3 c 0,0.554 0.446,1 1,1 l 10,0 c 0.554,0 1,-0.446 1,-1 l 0,-3 C 14,9.446 13.554,9 13,9 l -1,0 0,-2 1,0 c 0.554,0 1,-0.446 1,-1 l 0,-3.6447102 c 0,-0.554 -0.446,-1 -1,-1 z" color="#000" display="inline" enable-background="accumulate" opacity=".3" overflow="visible" visibility="visible" style="marker:none"/><path id="rect2835" fill="url(#linearGradient3629)" fill-opacity="1" fill-rule="nonzero" stroke="none" d="m 0,14 c 0,1.108 0.892,2 2,2 l 12,0 c 1.108,0 2,-0.892 2,-2 L 16,2 C 16,0.892 15.108,0 14,0 L 2,0 C 0.892,0 0,0.892 0,2 l 0,12 z m 0.96875,0 0,-12 C 0.96875,1.416801 1.4168007,0.96875 2,0.96875 l 12,0 c 0.583199,0 1.03125,0.448051 1.03125,1.03125 l 0,12 c 0,0.583199 -0.448051,1.03125 -1.03125,1.03125 l -12,0 C 1.4168007,15.03125 0.96875,14.583199 0.96875,14 z" opacity=".4"/><path id="path2843" fill="#fff" fill-opacity="1" fill-rule="nonzero" stroke="none" d="M 2 0.96875 C 1.4168007 0.96875 0.96875 1.4168007 0.96875 2 L 0.96875 3 C 0.96875 2.4168007 1.4168007 1.96875 2 1.96875 L 14 1.96875 C 14.583199 1.96875 15.03125 2.4168007 15.03125 3 L 15.03125 2 C 15.03125 1.4168007 14.583199 0.96875 14 0.96875 L 2 0.96875 z" opacity=".35"/><g id="g4247" transform="translate(-1,-1)"><rect id="rect4243" width="3" height="3" x="-7" y="3" fill="#000" fill-opacity="1" fill-rule="nonzero" stroke="none" stroke-width="1" color="#000" display="inline" enable-background="accumulate" opacity=".5" overflow="visible" rx=".375" ry=".375" transform="matrix(0,-1,1,0,0,0)" visibility="visible" style="marker:none"/><rect id="rect3416" width="3" height="3" x="-6" y="3" fill="url(#linearGradient4252)" fill-opacity="1" fill-rule="nonzero" stroke="none" stroke-width="1" color="#000" display="inline" enable-background="accumulate" overflow="visible" rx=".375" ry=".375" transform="matrix(0,-1,1,0,0,0)" visibility="visible" style="marker:none"/><rect id="rect4221" width="1.573" height="1.573" x="-5.287" y="-5.287" fill="url(#linearGradient4254)" fill-opacity="1" fill-rule="nonzero" stroke="none" stroke-width="1" color="#000" display="inline" enable-background="accumulate" overflow="visible" rx=".197" ry=".197" transform="matrix(0,-1,-1,0,0,0)" visibility="visible" style="marker:none"/></g><g id="g4256" transform="translate(3,-1)"><rect id="rect4258" width="3" height="3" x="-7" y="3" fill="#000" fill-opacity="1" fill-rule="nonzero" stroke="none" stroke-width="1" color="#000" display="inline" enable-background="accumulate" opacity=".5" overflow="visible" rx=".375" ry=".375" transform="matrix(0,-1,1,0,0,0)" visibility="visible" style="marker:none"/><rect id="rect4260" width="3" height="3" x="-6" y="3" fill="url(#linearGradient4264)" fill-opacity="1" fill-rule="nonzero" stroke="none" stroke-width="1" color="#000" display="inline" enable-background="accumulate" overflow="visible" rx=".375" ry=".375" transform="matrix(0,-1,1,0,0,0)" visibility="visible" style="marker:none"/><rect id="rect4262" width="1.645" height="1.645" x="-5.322" y="-5.322" fill="url(#linearGradient4266)" fill-opacity="1" fill-rule="nonzero" stroke="none" stroke-width="1" color="#000" display="inline" enable-background="accumulate" overflow="visible" rx=".206" ry=".206" transform="matrix(0,-1,-1,0,0,0)" visibility="visible" style="marker:none"/></g><g id="g4268" transform="translate(7,-1)"><rect id="rect4270" width="3" height="3" x="-7" y="3" fill="#000" fill-opacity="1" fill-rule="nonzero" stroke="none" stroke-width="1" color="#000" display="inline" enable-background="accumulate" opacity=".5" overflow="visible" rx=".375" ry=".375" transform="matrix(0,-1,1,0,0,0)" visibility="visible" style="marker:none"/><rect id="rect4272" width="3" height="3" x="-6" y="3" fill="url(#linearGradient4276)" fill-opacity="1" fill-rule="nonzero" stroke="none" stroke-width="1" color="#000" display="inline" enable-background="accumulate" overflow="visible" rx=".375" ry=".375" transform="matrix(0,-1,1,0,0,0)" visibility="visible" style="marker:none"/><rect id="rect4274" width="1.788" height="1.788" x="-5.394" y="-5.394" fill="url(#linearGradient4278)" fill-opacity="1" fill-rule="nonzero" stroke="none" stroke-width="1" color="#000" display="inline" enable-background="accumulate" overflow="visible" rx=".223" ry=".223" transform="matrix(0,-1,-1,0,0,0)" visibility="visible" style="marker:none"/></g><g id="g4280" transform="translate(1,3)"><rect id="rect4282" width="3" height="3" x="-7" y="3" fill="#000" fill-opacity="1" fill-rule="nonzero" stroke="none" stroke-width="1" color="#000" display="inline" enable-background="accumulate" opacity=".5" overflow="visible" rx=".375" ry=".375" transform="matrix(0,-1,1,0,0,0)" visibility="visible" style="marker:none"/><rect id="rect4284" width="3" height="3" x="-6" y="3" fill="url(#linearGradient4304)" fill-opacity="1" fill-rule="nonzero" stroke="none" stroke-width="1" color="#000" display="inline" enable-background="accumulate" overflow="visible" rx=".375" ry=".375" transform="matrix(0,-1,1,0,0,0)" visibility="visible" style="marker:none"/><rect id="rect4286" width="1.716" height="1.716" x="-5.358" y="-5.358" fill="url(#linearGradient4306)" fill-opacity="1" fill-rule="nonzero" stroke="none" stroke-width="1" color="#000" display="inline" enable-background="accumulate" overflow="visible" rx=".215" ry=".215" transform="matrix(0,-1,-1,0,0,0)" visibility="visible" style="marker:none"/></g><g id="g4288" transform="translate(5,3)"><rect id="rect4290" width="3" height="3" x="-7" y="3" fill="#000" fill-opacity="1" fill-rule="nonzero" stroke="none" stroke-width="1" color="#000" display="inline" enable-background="accumulate" opacity=".5" overflow="visible" rx=".375" ry=".375" transform="matrix(0,-1,1,0,0,0)" visibility="visible" style="marker:none"/><rect id="rect4292" width="3" height="3" x="-6" y="3" fill="url(#linearGradient4308)" fill-opacity="1" fill-rule="nonzero" stroke="none" stroke-width="1" color="#000" display="inline" enable-background="accumulate" overflow="visible" rx=".375" ry=".375" transform="matrix(0,-1,1,0,0,0)" visibility="visible" style="marker:none"/><rect id="rect4294" width="1.788" height="1.788" x="-5.394" y="-5.394" fill="url(#linearGradient4310)" fill-opacity="1" fill-rule="nonzero" stroke="none" stroke-width="1" color="#000" display="inline" enable-background="accumulate" overflow="visible" rx=".223" ry=".223" transform="matrix(0,-1,-1,0,0,0)" visibility="visible" style="marker:none"/></g><g id="g4316" transform="translate(0,7)"><rect id="rect4318" width="3" height="6" x="-7" y="3" fill="#000" fill-opacity="1" fill-rule="nonzero" stroke="none" stroke-width="1" color="#000" display="inline" enable-background="accumulate" opacity=".5" overflow="visible" rx=".375" ry=".375" transform="matrix(0,-1,1,0,0,0)" visibility="visible" style="marker:none"/><rect id="rect4320" width="3" height="6" x="-6" y="3" fill="url(#linearGradient4340)" fill-opacity="1" fill-rule="nonzero" stroke="none" stroke-width="1" color="#000" display="inline" enable-background="accumulate" overflow="visible" rx=".375" ry=".375" transform="matrix(0,-1,1,0,0,0)" visibility="visible" style="marker:none"/><rect id="rect4322" width="1.931" height="4.86" x="-5.466" y="-8.43" fill="url(#linearGradient4342)" fill-opacity="1" fill-rule="nonzero" stroke="none" stroke-width="1" color="#000" display="inline" enable-background="accumulate" overflow="visible" rx=".241" ry=".152" transform="matrix(0,-1,-1,0,0,0)" visibility="visible" style="marker:none"/></g><g id="g4332" transform="translate(7,7)"><rect id="rect4334" width="3" height="3" x="-7" y="3" fill="#000" fill-opacity="1" fill-rule="nonzero" stroke="none" stroke-width="1" color="#000" display="inline" enable-background="accumulate" opacity=".5" overflow="visible" rx=".375" ry=".375" transform="matrix(0,-1,1,0,0,0)" visibility="visible" style="marker:none"/><rect id="rect4336" width="3" height="3" x="-6" y="3" fill="url(#linearGradient4348)" fill-opacity="1" fill-rule="nonzero" stroke="none" stroke-width="1" color="#000" display="inline" enable-background="accumulate" overflow="visible" rx=".375" ry=".375" transform="matrix(0,-1,1,0,0,0)" visibility="visible" style="marker:none"/><rect id="rect4338" width="1.645" height="1.645" x="-5.322" y="-5.322" fill="url(#linearGradient4350)" fill-opacity="1" fill-rule="nonzero" stroke="none" stroke-width="1" color="#000" display="inline" enable-background="accumulate" overflow="visible" rx=".206" ry=".206" transform="matrix(0,-1,-1,0,0,0)" visibility="visible" style="marker:none"/></g><path id="path4359" fill="#fff" fill-opacity="1" fill-rule="nonzero" stroke="none" stroke-width=".606" d="M 1.34375 6 L 1.34375 7 C 1.34375 7.554 1.78975 8 2.34375 8 L 3 8 L 3 7 L 2.34375 7 C 1.78975 7 1.34375 6.554 1.34375 6 z M 14 6 C 14 6.554 13.554 7 13 7 L 12 7 L 12 8 L 13 8 C 13.554 8 14 7.554 14 7 L 14 6 z M 2 13 L 2 14 C 2 14.554 2.446 15 3 15 L 13 15 C 13.554 15 14 14.554 14 14 L 14 13 C 14 13.554 13.554 14 13 14 L 3 14 C 2.446 14 2 13.554 2 13 z" color="#000" display="inline" enable-background="accumulate" opacity=".35" overflow="visible" visibility="visible" style="marker:none"/></g></svg>