<svg xmlns="http://www.w3.org/2000/svg" xmlns:svg="http://www.w3.org/2000/svg" xmlns:xlink="http://www.w3.org/1999/xlink" id="svg2" width="16" height="16" display="inline" version="1.0"><defs id="defs4"><linearGradient id="linearGradient3395"><stop id="stop3397" offset="0" stop-color="#000" stop-opacity="1"/><stop id="stop3399" offset="1" stop-color="#2d2d2d" stop-opacity="1"/></linearGradient><linearGradient id="linearGradient5945"><stop id="stop5947" offset="0" stop-color="#333" stop-opacity="1"/><stop id="stop5949" offset="1" stop-color="#656565" stop-opacity="1"/></linearGradient><linearGradient id="linearGradient3265"><stop id="stop3267" offset="0" stop-color="#9595f2" stop-opacity="1"/><stop id="stop3269" offset="1" stop-color="#684be0" stop-opacity="1"/></linearGradient><radialGradient id="radialGradient7013" cx="77.203" cy="-.562" r="21" fx="77.203" fy="-.562" gradientTransform="matrix(-0.264214,0,0,-9.6547722e-2,27.361907,8.9809792)" gradientUnits="userSpaceOnUse" xlink:href="#linearGradient3265"/><linearGradient id="linearGradient5870"><stop id="stop5872" offset="0" stop-color="#0a0a0a" stop-opacity="1"/><stop id="stop5874" offset="1" stop-color="#3c3c3c" stop-opacity="1"/></linearGradient><linearGradient id="linearGradient4827"><stop id="stop4829" offset="0" stop-color="#fff" stop-opacity="1"/><stop id="stop4831" offset="1" stop-color="#fff" stop-opacity="0"/></linearGradient><linearGradient id="linearGradient3175"><stop id="stop3177" offset="0" stop-color="#7096d0" stop-opacity="1"/><stop id="stop3179" offset="1" stop-color="#3663a6" stop-opacity="1"/></linearGradient><linearGradient id="linearGradient3700"><stop id="stop3702" offset="0" stop-color="#dcdcdc" stop-opacity="1"/><stop id="stop3704" offset="1" stop-color="#fff" stop-opacity="1"/></linearGradient><linearGradient id="ButtonColor" x1="10.32" x2="10.32" y1="21" y2=".999" gradientUnits="userSpaceOnUse"><stop id="stop3189" offset="0" stop-color="#29669f" stop-opacity="1"/><stop id="stop3191" offset="1" stop-color="#88b6e0" stop-opacity="1"/></linearGradient><linearGradient id="linearGradient3173" x1="1" x2="15" y1="9" y2="9" gradientTransform="translate(-16,-1)" gradientUnits="userSpaceOnUse" xlink:href="#ButtonColor"/><linearGradient id="linearGradient3177" x1="1" x2="15" y1="9" y2="9" gradientTransform="translate(-16,-1)" gradientUnits="userSpaceOnUse" xlink:href="#ButtonColor"/><linearGradient id="linearGradient3179" x1="1" x2="15" y1="9" y2="9" gradientTransform="matrix(0,-1,1,0,-1,16)" gradientUnits="userSpaceOnUse" xlink:href="#ButtonColor"/><linearGradient id="linearGradient5918" x1=".958" x2="9" y1="7.114" y2="7.114" gradientTransform="translate(-17,-2)" gradientUnits="userSpaceOnUse" xlink:href="#linearGradient5870"/><linearGradient id="linearGradient6036" x1="5.514" x2="5.514" y1="3.038" y2="5.456" gradientTransform="matrix(0.9728592,0,0,1.0129858,0.1357039,-7.791455e-2)" gradientUnits="userSpaceOnUse" xlink:href="#linearGradient4827"/><radialGradient id="radialGradient6045" cx="48" cy="-15.894" r="35.938" fx="48" fy="-15.894" gradientTransform="matrix(-5.0683284e-3,1.2204755,-1.3843695,-5.7456085e-3,26.241279,-46.842142)" gradientUnits="userSpaceOnUse" xlink:href="#linearGradient3175"/><linearGradient id="linearGradient6051" x1=".958" x2="8.04" y1="7.114" y2="7.114" gradientTransform="translate(-9,-1)" gradientUnits="userSpaceOnUse" xlink:href="#linearGradient3700"/><linearGradient id="linearGradient6054" x1="5.514" x2="5.514" y1="3.038" y2="5.456" gradientTransform="matrix(0.9728592,0,0,1.0129858,7.1357039,6.9220854)" gradientUnits="userSpaceOnUse" xlink:href="#linearGradient4827"/><radialGradient id="radialGradient6063" cx="48" cy="-15.894" r="35.938" fx="48" fy="-15.894" gradientTransform="matrix(-5.0683284e-3,1.2204755,-1.3843695,-5.7456085e-3,26.241279,-46.842142)" gradientUnits="userSpaceOnUse" xlink:href="#linearGradient3175"/><linearGradient id="linearGradient6069" x1=".958" x2="8.04" y1="7.114" y2="7.114" gradientTransform="translate(-16,6)" gradientUnits="userSpaceOnUse" xlink:href="#linearGradient3700"/><linearGradient id="linearGradient6148" x1=".958" x2="8.04" y1="7.114" y2="7.114" gradientTransform="translate(-9,-1)" gradientUnits="userSpaceOnUse" xlink:href="#linearGradient3700"/><radialGradient id="radialGradient6150" cx="48" cy="-15.894" r="35.938" fx="48" fy="-15.894" gradientTransform="matrix(-5.0683284e-3,1.2204755,-1.3843695,-5.7456085e-3,26.241279,-46.842142)" gradientUnits="userSpaceOnUse" xlink:href="#linearGradient3175"/><linearGradient id="linearGradient6152" x1="5.514" x2="5.514" y1="3.038" y2="5.456" gradientTransform="matrix(0.9728592,0,0,1.0129858,0.1357039,-7.791455e-2)" gradientUnits="userSpaceOnUse" xlink:href="#linearGradient4827"/><linearGradient id="linearGradient6155" x1="5.514" x2="5.514" y1="3.038" y2="5.456" gradientTransform="matrix(0.9728592,0,0,1.0129858,0.1357039,-7.791455e-2)" gradientUnits="userSpaceOnUse" xlink:href="#linearGradient4827"/><linearGradient id="linearGradient6161" x1=".958" x2="8.04" y1="7.114" y2="7.114" gradientTransform="translate(-9,-1)" gradientUnits="userSpaceOnUse" xlink:href="#linearGradient3700"/><linearGradient id="linearGradient6245" x1=".958" x2="8.04" y1="7.114" y2="7.114" gradientTransform="translate(-9,-1)" gradientUnits="userSpaceOnUse" xlink:href="#linearGradient3700"/><radialGradient id="radialGradient6247" cx="48" cy="-15.894" r="35.938" fx="48" fy="-15.894" gradientTransform="matrix(-5.0683284e-3,1.2204755,-1.3843695,-5.7456085e-3,26.241279,-46.842142)" gradientUnits="userSpaceOnUse" xlink:href="#linearGradient3175"/><linearGradient id="linearGradient6249" x1="5.514" x2="5.514" y1="3.038" y2="5.456" gradientTransform="matrix(0.9728592,0,0,1.0129858,0.1357039,-7.791455e-2)" gradientUnits="userSpaceOnUse" xlink:href="#linearGradient4827"/><linearGradient id="linearGradient6251" x1=".958" x2="8.04" y1="7.114" y2="7.114" gradientTransform="translate(-9,-1)" gradientUnits="userSpaceOnUse" xlink:href="#linearGradient3700"/><radialGradient id="radialGradient6253" cx="48" cy="-15.894" r="35.938" fx="48" fy="-15.894" gradientTransform="matrix(-5.0683284e-3,1.2204755,-1.3843695,-5.7456085e-3,26.241279,-46.842142)" gradientUnits="userSpaceOnUse" xlink:href="#linearGradient3175"/><linearGradient id="linearGradient6255" x1="5.514" x2="5.514" y1="3.038" y2="5.456" gradientTransform="matrix(0.9728592,0,0,1.0129858,0.1357039,-7.791455e-2)" gradientUnits="userSpaceOnUse" xlink:href="#linearGradient4827"/><linearGradient id="linearGradient6333" x1=".958" x2="8.04" y1="7.114" y2="7.114" gradientTransform="translate(-9,-1)" gradientUnits="userSpaceOnUse" xlink:href="#linearGradient3700"/><radialGradient id="radialGradient6335" cx="48" cy="-15.894" r="35.938" fx="48" fy="-15.894" gradientTransform="matrix(-5.0683284e-3,1.2204755,-1.3843695,-5.7456085e-3,26.241279,-46.842142)" gradientUnits="userSpaceOnUse" xlink:href="#linearGradient3175"/><linearGradient id="linearGradient6337" x1="5.514" x2="5.514" y1="3.038" y2="5.456" gradientTransform="matrix(0.9728592,0,0,1.0129858,0.1357039,-7.791455e-2)" gradientUnits="userSpaceOnUse" xlink:href="#linearGradient4827"/><linearGradient id="linearGradient6339" x1=".958" x2="8.04" y1="7.114" y2="7.114" gradientTransform="translate(-9,-1)" gradientUnits="userSpaceOnUse" xlink:href="#linearGradient3700"/><radialGradient id="radialGradient6341" cx="48" cy="-15.894" r="35.938" fx="48" fy="-15.894" gradientTransform="matrix(-5.0683284e-3,1.2204755,-1.3843695,-5.7456085e-3,26.241279,-46.842142)" gradientUnits="userSpaceOnUse" xlink:href="#linearGradient3175"/><linearGradient id="linearGradient6343" x1="5.514" x2="5.514" y1="3.038" y2="5.456" gradientTransform="matrix(0.9728592,0,0,1.0129858,0.1357039,-7.791455e-2)" gradientUnits="userSpaceOnUse" xlink:href="#linearGradient4827"/><linearGradient id="linearGradient6347" x1="5.514" x2="5.514" y1="3.038" y2="5.456" gradientTransform="matrix(0.9728592,0,0,1.0129858,0.1357039,-7.791455e-2)" gradientUnits="userSpaceOnUse" xlink:href="#linearGradient4827"/><linearGradient id="linearGradient6354" x1=".958" x2="8.04" y1="7.114" y2="7.114" gradientTransform="translate(-9,-1)" gradientUnits="userSpaceOnUse" xlink:href="#linearGradient3700"/><linearGradient id="linearGradient6357" x1="5.514" x2="5.514" y1="3.038" y2="5.456" gradientTransform="matrix(0.9728592,0,0,1.0129858,0.1357039,-7.791455e-2)" gradientUnits="userSpaceOnUse" xlink:href="#linearGradient4827"/><linearGradient id="linearGradient6363" x1=".958" x2="8.04" y1="7.114" y2="7.114" gradientTransform="translate(-9,-1)" gradientUnits="userSpaceOnUse" xlink:href="#linearGradient3700"/><linearGradient id="linearGradient6407" x1=".958" x2="8.04" y1="7.114" y2="7.114" gradientTransform="translate(-9,-1)" gradientUnits="userSpaceOnUse" xlink:href="#linearGradient3700"/><linearGradient id="linearGradient6411" x1="5.514" x2="5.514" y1="3.038" y2="5.456" gradientTransform="matrix(0.9728592,0,0,1.0129858,0.1357039,-7.791455e-2)" gradientUnits="userSpaceOnUse" xlink:href="#linearGradient4827"/><linearGradient id="linearGradient6413" x1=".958" x2="8.04" y1="7.114" y2="7.114" gradientTransform="translate(-9,-1)" gradientUnits="userSpaceOnUse" xlink:href="#linearGradient3700"/><linearGradient id="linearGradient6417" x1="5.514" x2="5.514" y1="3.038" y2="5.456" gradientTransform="matrix(0.9728592,0,0,1.0129858,0.1357039,-7.791455e-2)" gradientUnits="userSpaceOnUse" xlink:href="#linearGradient4827"/><linearGradient id="linearGradient3314" x1="5.514" x2="5.514" y1="3.038" y2="5.456" gradientTransform="matrix(0.9728592,0,0,1.0129858,0.1357039,-1.0779145)" gradientUnits="userSpaceOnUse" xlink:href="#linearGradient4827"/><linearGradient id="linearGradient3321" x1=".958" x2="8.04" y1="7.114" y2="7.114" gradientTransform="matrix(0,-1,1,0,-1,9)" gradientUnits="userSpaceOnUse" xlink:href="#linearGradient3700"/><linearGradient id="linearGradient3324" x1="5.514" x2="5.514" y1="3.038" y2="5.456" gradientTransform="matrix(0.9728592,0,0,1.0129858,-0.8642961,-1.0779145)" gradientUnits="userSpaceOnUse" xlink:href="#linearGradient4827"/><radialGradient id="radialGradient3364" cx="48" cy="-15.894" r="35.938" fx="48" fy="-15.894" gradientTransform="matrix(-5.0683284e-3,1.2204755,-1.3843695,-5.7456085e-3,26.241279,-46.842142)" gradientUnits="userSpaceOnUse" xlink:href="#linearGradient3175"/><linearGradient id="linearGradient3366" x1="5.514" x2="5.514" y1="3.038" y2="5.456" gradientTransform="matrix(0.9728592,0,0,1.0129858,-0.8642961,-1.0779145)" gradientUnits="userSpaceOnUse" xlink:href="#linearGradient4827"/><linearGradient id="linearGradient3368" x1=".958" x2="8.04" y1="7.114" y2="7.114" gradientTransform="matrix(0,-1,1,0,-1,9)" gradientUnits="userSpaceOnUse" xlink:href="#linearGradient3700"/><radialGradient id="radialGradient3370" cx="48" cy="-15.894" r="35.938" fx="48" fy="-15.894" gradientTransform="matrix(-5.0683284e-3,1.2204755,-1.3843695,-5.7456085e-3,26.241279,-46.842142)" gradientUnits="userSpaceOnUse" xlink:href="#linearGradient3175"/><linearGradient id="linearGradient3372" x1="5.514" x2="5.514" y1="3.038" y2="5.456" gradientTransform="matrix(0.9728592,0,0,1.0129858,0.1357039,-1.0779145)" gradientUnits="userSpaceOnUse" xlink:href="#linearGradient4827"/><linearGradient id="linearGradient3388" x1=".958" x2="9" y1="7.114" y2="7.114" gradientTransform="matrix(0,-1,1,0,-12,17)" gradientUnits="userSpaceOnUse" xlink:href="#linearGradient5870"/><linearGradient id="linearGradient3393" x1=".958" x2="9" y1="7.114" y2="7.114" gradientTransform="matrix(0,-1,1,0,-2,17)" gradientUnits="userSpaceOnUse" xlink:href="#linearGradient3395"/><linearGradient id="linearGradient3403" x1="5.514" x2="5.514" y1="3.038" y2="5.456" gradientTransform="matrix(0.9728592,0,0,1.0129858,0.1357039,-1.0779145)" gradientUnits="userSpaceOnUse" xlink:href="#linearGradient4827"/><linearGradient id="linearGradient3408" x1=".958" x2="8.04" y1="7.114" y2="7.114" gradientTransform="matrix(0,-1,1,0,-1,9)" gradientUnits="userSpaceOnUse" xlink:href="#linearGradient3700"/><linearGradient id="linearGradient3411" x1="5.514" x2="5.514" y1="3.038" y2="5.456" gradientTransform="matrix(0.9728592,0,0,1.0129858,-0.8642961,-1.0779145)" gradientUnits="userSpaceOnUse" xlink:href="#linearGradient4827"/><linearGradient id="linearGradient3419" x1="5.514" x2="5.514" y1="3.038" y2="5.456" gradientTransform="matrix(0.9728592,0,0,1.0129858,8.1357039,6.9220855)" gradientUnits="userSpaceOnUse" xlink:href="#linearGradient4827"/><linearGradient id="linearGradient3424" x1=".958" x2="8.04" y1="7.114" y2="7.114" gradientTransform="matrix(0,-1,1,0,7,17)" gradientUnits="userSpaceOnUse" xlink:href="#linearGradient3700"/><linearGradient id="linearGradient3427" x1="5.514" x2="5.514" y1="3.038" y2="5.456" gradientTransform="matrix(0.9728592,0,0,1.0129858,7.1357039,6.9220855)" gradientUnits="userSpaceOnUse" xlink:href="#linearGradient4827"/></defs><metadata id="metadata7"/><g id="layer1"><rect id="rect5886" width="8" height="8" x="-16" y="0" fill="url(#linearGradient5918)" fill-opacity="1" fill-rule="nonzero" stroke="none" stroke-dasharray="none" stroke-dashoffset="0" stroke-linecap="round" stroke-linejoin="round" stroke-miterlimit="4" stroke-opacity="1" stroke-width=".5" rx="2" ry="2" transform="matrix(0,-1,1,0,0,0)"/><rect id="rect3255" width="5" height="1.968" x="2" y="9" fill="url(#radialGradient7013)" fill-opacity="1" fill-rule="nonzero" stroke="none" stroke-dasharray="none" stroke-dashoffset="0" stroke-linecap="square" stroke-linejoin="miter" stroke-miterlimit="4" stroke-opacity="1" stroke-width="1" display="inline" opacity="1"/><rect id="rect6113" width="1" height="2.842" x="4" y="11.658" fill="#333" fill-opacity="1" fill-rule="nonzero" stroke="none" stroke-dasharray="none" stroke-dashoffset="0" stroke-linecap="square" stroke-linejoin="miter" stroke-miterlimit="4" stroke-opacity="1" stroke-width="1" opacity="1"/><rect id="rect6115" width="1" height="2.842" x="6" y="11.658" fill="#333" fill-opacity="1" fill-rule="nonzero" stroke="none" stroke-dasharray="none" stroke-dashoffset="0" stroke-linecap="square" stroke-linejoin="miter" stroke-miterlimit="4" stroke-opacity="1" stroke-width="1" opacity="1"/><rect id="rect5957" width="5" height="1" x="2" y="11" fill="#000" fill-opacity="1" fill-rule="nonzero" stroke="none" stroke-dasharray="none" stroke-dashoffset="0" stroke-linecap="square" stroke-linejoin="miter" stroke-miterlimit="4" stroke-opacity="1" stroke-width="1" opacity="1"/><rect id="rect6119" width="1" height="1" x="4" y="11" fill="#aad400" fill-opacity="1" fill-rule="nonzero" stroke="none" stroke-dasharray="none" stroke-dashoffset="0" stroke-linecap="square" stroke-linejoin="miter" stroke-miterlimit="4" stroke-opacity="1" stroke-width="1" opacity="1"/><rect id="rect6121" width="1" height="1" x="6" y="11" fill="#aad400" fill-opacity="1" fill-rule="nonzero" stroke="none" stroke-dasharray="none" stroke-dashoffset="0" stroke-linecap="square" stroke-linejoin="miter" stroke-miterlimit="4" stroke-opacity="1" stroke-width="1" opacity="1"/><rect id="rect2547" width="8" height="8" x="0" y="0" fill="#000" fill-opacity="1" fill-rule="nonzero" stroke="none" stroke-dasharray="none" stroke-dashoffset="0" stroke-linecap="square" stroke-linejoin="miter" stroke-miterlimit="4" stroke-opacity="1" stroke-width=".6" rx="2" ry="2"/><path id="path3215" fill="url(#radialGradient6335)" fill-opacity="1" fill-rule="nonzero" stroke="none" stroke-dasharray="none" stroke-dashoffset="0" stroke-linecap="square" stroke-linejoin="round" stroke-miterlimit="4" stroke-opacity=".697" stroke-width="1" d="M 12.0625,12.0625 L 12.0625,65.9375 L 83.9375,65.9375 L 83.9375,12.0625 L 12.0625,12.0625 z" display="inline" transform="matrix(-6.9565217e-2,0,0,-7.424594e-2,6.8391299,5.8955916)"/><rect id="rect4789" width="5" height="1" x="2" y="6" fill="#000" fill-opacity="1" fill-rule="nonzero" stroke="none" stroke-dasharray="none" stroke-dashoffset="0" stroke-linecap="square" stroke-linejoin="miter" stroke-miterlimit="4" stroke-opacity="1" stroke-width="1"/><path id="rect4798" fill="#154cb3" fill-opacity="1" fill-rule="nonzero" stroke="none" stroke-dasharray="none" stroke-dashoffset="0" stroke-linecap="square" stroke-linejoin="miter" stroke-miterlimit="4" stroke-opacity="1" stroke-width="1" d="M 1,1 L 1,5 L 2,5 L 2,2 L 5,2 L 5,5 L 6,5 L 6,1 L 5.5,1 L 5,1 L 2,1 L 1.5,1 L 1,1 z"/><rect id="rect4825" width="1" height="3" x="4" y="2" fill="url(#linearGradient3411)" fill-opacity="1" fill-rule="nonzero" stroke="none" stroke-dasharray="none" stroke-dashoffset="0" stroke-linecap="square" stroke-linejoin="miter" stroke-miterlimit="4" stroke-opacity="1" stroke-width="1" opacity=".7"/><path id="rect6163" fill="url(#linearGradient3408)" fill-opacity="1" fill-rule="nonzero" stroke="none" stroke-dasharray="none" stroke-dashoffset="0" stroke-linecap="round" stroke-linejoin="round" stroke-miterlimit="4" stroke-opacity="1" stroke-width=".5" d="M 0,6 C 0,7.108 0.892,8 2,8 L 6,8 C 7.108,8 8,7.108 8,6 L 6,6 L 6,7 L 2,7 L 2,6 L 0,6 z"/><path id="path6165" fill="url(#radialGradient6341)" fill-opacity="1" fill-rule="nonzero" stroke="none" stroke-dasharray="none" stroke-dashoffset="0" stroke-linecap="square" stroke-linejoin="round" stroke-miterlimit="4" stroke-opacity=".697" stroke-width="1" d="M 12.0625,12.0625 L 12.0625,65.9375 L 83.9375,65.9375 L 83.9375,12.0625 L 12.0625,12.0625 z" display="inline" transform="matrix(-8.3478261e-2,0,0,-7.424594e-2,8.006956,5.8955916)"/><path id="path6169" fill="#315a97" fill-opacity="1" fill-rule="nonzero" stroke="none" stroke-dasharray="none" stroke-dashoffset="0" stroke-linecap="square" stroke-linejoin="miter" stroke-miterlimit="4" stroke-opacity="1" stroke-width="1" d="M 1,1 L 1,5 L 2,5 L 2,2 L 6,2 L 6,5 L 7,5 L 7,1 L 1,1 z"/><rect id="rect6171" width="1" height="3" x="5" y="2" fill="url(#linearGradient3403)" fill-opacity="1" fill-rule="nonzero" stroke="none" stroke-dasharray="none" stroke-dashoffset="0" stroke-linecap="square" stroke-linejoin="miter" stroke-miterlimit="4" stroke-opacity="1" stroke-width="1" opacity=".7"/><path id="path3320" fill="#000" fill-opacity="1" fill-rule="nonzero" stroke="none" stroke-dasharray="none" stroke-dashoffset="0" stroke-linecap="round" stroke-linejoin="round" stroke-miterlimit="4" stroke-opacity="1" stroke-width=".5" d="M 0,6 C 0,7.108 0.892,8 2,8 L 6,8 C 7.108,8 8,7.108 8,6 L 7.71875,6 C 7.3734731,6.5969091 6.7419013,7 6,7 L 2,7 C 1.2580987,7 0.62652695,6.5969091 0.28125,6 L 0,6 z" opacity=".2"/><rect id="rect3344" width="8" height="8" x="8" y="8" fill="#000" fill-opacity="1" fill-rule="nonzero" stroke="none" stroke-dasharray="none" stroke-dashoffset="0" stroke-linecap="square" stroke-linejoin="miter" stroke-miterlimit="4" stroke-opacity="1" stroke-width=".6" rx="2" ry="2"/><path id="path3346" fill="url(#radialGradient3364)" fill-opacity="1" fill-rule="nonzero" stroke="none" stroke-dasharray="none" stroke-dashoffset="0" stroke-linecap="square" stroke-linejoin="round" stroke-miterlimit="4" stroke-opacity=".697" stroke-width="1" d="M 12.0625,12.0625 L 12.0625,65.9375 L 83.9375,65.9375 L 83.9375,12.0625 L 12.0625,12.0625 z" display="inline" transform="matrix(-6.9565217e-2,0,0,-7.424594e-2,14.83913,13.895592)"/><rect id="rect3348" width="5" height="1" x="10" y="14" fill="#000" fill-opacity="1" fill-rule="nonzero" stroke="none" stroke-dasharray="none" stroke-dashoffset="0" stroke-linecap="square" stroke-linejoin="miter" stroke-miterlimit="4" stroke-opacity="1" stroke-width="1"/><path id="path3350" fill="#154cb3" fill-opacity="1" fill-rule="nonzero" stroke="none" stroke-dasharray="none" stroke-dashoffset="0" stroke-linecap="square" stroke-linejoin="miter" stroke-miterlimit="4" stroke-opacity="1" stroke-width="1" d="M 9,9 L 9,13 L 10,13 L 10,10 L 13,10 L 13,13 L 14,13 L 14,9 L 13.5,9 L 13,9 L 10,9 L 9.5,9 L 9,9 z"/><rect id="rect3352" width="1" height="3" x="12" y="10" fill="url(#linearGradient3427)" fill-opacity="1" fill-rule="nonzero" stroke="none" stroke-dasharray="none" stroke-dashoffset="0" stroke-linecap="square" stroke-linejoin="miter" stroke-miterlimit="4" stroke-opacity="1" stroke-width="1" opacity=".7"/><path id="path3354" fill="url(#linearGradient3424)" fill-opacity="1" fill-rule="nonzero" stroke="none" stroke-dasharray="none" stroke-dashoffset="0" stroke-linecap="round" stroke-linejoin="round" stroke-miterlimit="4" stroke-opacity="1" stroke-width=".5" d="M 8,14 C 8,15.108 8.892,16 10,16 L 14,16 C 15.108,16 16,15.108 16,14 L 14,14 L 14,15 L 10,15 L 10,14 L 8,14 z"/><path id="path3356" fill="url(#radialGradient3370)" fill-opacity="1" fill-rule="nonzero" stroke="none" stroke-dasharray="none" stroke-dashoffset="0" stroke-linecap="square" stroke-linejoin="round" stroke-miterlimit="4" stroke-opacity=".697" stroke-width="1" d="M 12.0625,12.0625 L 12.0625,65.9375 L 83.9375,65.9375 L 83.9375,12.0625 L 12.0625,12.0625 z" display="inline" transform="matrix(-8.3478261e-2,0,0,-7.424594e-2,16.006956,13.895592)"/><path id="path3358" fill="#315a97" fill-opacity="1" fill-rule="nonzero" stroke="none" stroke-dasharray="none" stroke-dashoffset="0" stroke-linecap="square" stroke-linejoin="miter" stroke-miterlimit="4" stroke-opacity="1" stroke-width="1" d="M 9,9 L 9,13 L 10,13 L 10,10 L 14,10 L 14,13 L 15,13 L 15,9 L 9,9 z"/><rect id="rect3360" width="1" height="3" x="13" y="10" fill="url(#linearGradient3419)" fill-opacity="1" fill-rule="nonzero" stroke="none" stroke-dasharray="none" stroke-dashoffset="0" stroke-linecap="square" stroke-linejoin="miter" stroke-miterlimit="4" stroke-opacity="1" stroke-width="1" opacity=".7"/><path id="path3362" fill="#000" fill-opacity="1" fill-rule="nonzero" stroke="none" stroke-dasharray="none" stroke-dashoffset="0" stroke-linecap="round" stroke-linejoin="round" stroke-miterlimit="4" stroke-opacity="1" stroke-width=".5" d="M 8,14 C 8,15.108 8.892,16 10,16 L 14,16 C 15.108,16 16,15.108 16,14 L 15.71875,14 C 15.373473,14.596909 14.741901,15 14,15 L 10,15 C 9.2580987,15 8.626527,14.596909 8.28125,14 L 8,14 z" opacity=".2"/><rect id="rect3374" width="1" height="2.842" x="2" y="11.658" fill="#333" fill-opacity="1" fill-rule="nonzero" stroke="none" stroke-dasharray="none" stroke-dashoffset="0" stroke-linecap="square" stroke-linejoin="miter" stroke-miterlimit="4" stroke-opacity="1" stroke-width="1" opacity="1"/><rect id="rect3376" width="1" height="1" x="2" y="11" fill="#aad400" fill-opacity="1" fill-rule="nonzero" stroke="none" stroke-dasharray="none" stroke-dashoffset="0" stroke-linecap="square" stroke-linejoin="miter" stroke-miterlimit="4" stroke-opacity="1" stroke-width="1" opacity="1"/><rect id="rect3390" width="1" height="6" x="1" y="9" fill="#000" fill-opacity="1" fill-rule="nonzero" stroke="none" stroke-dasharray="none" stroke-dashoffset="0" stroke-linecap="square" stroke-linejoin="miter" stroke-miterlimit="4" stroke-opacity="1" stroke-width="1" opacity="1"/><path id="rect3383" fill="url(#linearGradient3393)" fill-opacity="1" fill-rule="nonzero" stroke="none" stroke-dasharray="none" stroke-dashoffset="0" stroke-linecap="round" stroke-linejoin="round" stroke-miterlimit="4" stroke-opacity="1" stroke-width=".5" d="M 2,8 C 0.892,8 0,8.892 0,10 L 0,14 C 0,15.108 0.892,16 2,16 L 6,16 C 7.108,16 8,15.108 8,14 L 8,10 C 8,8.892 7.108,8 6,8 L 2,8 z M 2,8.96875 L 6,8.96875 C 6.5947812,8.96875 7.03125,9.4052188 7.03125,10 L 7.03125,14 C 7.03125,14.594781 6.5947812,15.03125 6,15.03125 L 2,15.03125 C 1.4052188,15.03125 0.96875,14.594781 0.96875,14 L 0.96875,10 C 0.96875,9.4052188 1.4052188,8.96875 2,8.96875 z"/></g></svg>