<svg xmlns="http://www.w3.org/2000/svg" xmlns:svg="http://www.w3.org/2000/svg" xmlns:xlink="http://www.w3.org/1999/xlink" id="svg2" width="16" height="16" display="inline" version="1.0"><defs id="defs4"><linearGradient id="linearGradient3327"><stop id="stop3330" offset="0" stop-color="#000" stop-opacity="1"/><stop id="stop3333" offset="1" stop-color="#000" stop-opacity="0"/></linearGradient><linearGradient id="ButtonColor" x1="10.32" x2="10.32" y1="21" y2=".999" gradientUnits="userSpaceOnUse"><stop id="stop3189" offset="0" stop-color="#29669f" stop-opacity="1"/><stop id="stop3191" offset="1" stop-color="#88b6e0" stop-opacity="1"/></linearGradient><linearGradient id="linearGradient3204" x1="1" x2="15" y1="9" y2="9" gradientTransform="translate(-17,-1.9618509)" gradientUnits="userSpaceOnUse" xlink:href="#ButtonColor-6"/><linearGradient id="linearGradient3629" x1="0" x2="29.017" y1="8" y2="8" gradientTransform="matrix(0,-1,1,0,0,16)" gradientUnits="userSpaceOnUse" xlink:href="#linearGradient3327"/><linearGradient id="linearGradient3765" x1="383.289" x2="383.289" y1="0" y2="218.48" gradientTransform="matrix(0.09341072,0,0,0.04108075,-26.756456,8.0246654)" gradientUnits="userSpaceOnUse" xlink:href="#SVGID_1_-4"/><linearGradient id="SVGID_1_-4" x1="383.289" x2="383.289" y1="0" y2="218.48" gradientUnits="userSpaceOnUse"><stop id="stop3143-2" offset=".006" stop-color="#ED2828"/><stop id="stop3145-1" offset=".5" stop-color="#EF3B39"/><stop id="stop3147-3" offset=".994" stop-color="#C02126"/></linearGradient><linearGradient id="linearGradient3749-5" x1="175.308" x2="175.308" y1="73.254" y2="180.675" gradientUnits="userSpaceOnUse"><stop id="stop3751-8" offset="0" stop-color="#000" stop-opacity="1"/><stop id="stop3753-7" offset=".994" stop-color="#000" stop-opacity=".473"/></linearGradient><linearGradient id="linearGradient3754" x1="175.308" x2="175.308" y1="73.254" y2="180.675" gradientTransform="matrix(0.04164302,0,0,0.03408859,1.9444673,0.78644322)" gradientUnits="userSpaceOnUse" xlink:href="#linearGradient3749-5"/><linearGradient id="linearGradient3756" x1="175.308" x2="175.308" y1="73.254" y2="180.675" gradientTransform="matrix(0.04998763,0,0,0.03408859,2.4795353,0.78644322)" gradientUnits="userSpaceOnUse" xlink:href="#linearGradient3749-5"/><linearGradient id="linearGradient3809" x1="175.308" x2="175.308" y1="73.254" y2="180.675" gradientTransform="matrix(0.04859283,0,0,0.03408859,3.115962,0.78644322)" gradientUnits="userSpaceOnUse" xlink:href="#linearGradient3749-5"/><linearGradient id="linearGradient4163" x1="6" x2="90" y1="48" y2="48" gradientTransform="translate(-96,0)" gradientUnits="userSpaceOnUse" xlink:href="#linearGradient3696"/><linearGradient id="linearGradient3696"><stop id="stop3698" offset="0" stop-color="#2458a6" stop-opacity="1"/><stop id="stop3700" offset="1" stop-color="#598ad4" stop-opacity="1"/></linearGradient><linearGradient id="linearGradient3738" x1="6" x2="90" y1="48" y2="48" gradientTransform="translate(-52.867199,-57.252856)" gradientUnits="userSpaceOnUse" xlink:href="#linearGradient3696"/><linearGradient id="linearGradient4113" x1="22.111" x2="40" y1="62.984" y2="32" gradientTransform="matrix(0.19388162,0,0,0.19388162,-1.4007219,-1.9461429)" gradientUnits="userSpaceOnUse" xlink:href="#linearGradient4099"/><linearGradient id="linearGradient4099"><stop id="stop4101" offset="0" stop-color="#9ede27" stop-opacity="1"/><stop id="stop4103" offset="1" stop-color="#c8f16b" stop-opacity="1"/></linearGradient><linearGradient id="linearGradient4105" x1="38" x2="70" y1="74" y2="49" gradientTransform="matrix(0.19388162,0,0,0.19388162,-1.5256152,-1.9461429)" gradientUnits="userSpaceOnUse" xlink:href="#linearGradient4099"/><linearGradient id="linearGradient3712"><stop id="stop3714" offset="0" stop-color="#9ede27" stop-opacity="1"/><stop id="stop3716" offset="1" stop-color="#c8f16b" stop-opacity="1"/></linearGradient><linearGradient id="linearGradient3746" x1="56.037" x2="56.037" y1="49.333" y2="13.593" gradientTransform="matrix(0.26518093,0,0,0.26518093,-0.34872536,-3.7081516)" gradientUnits="userSpaceOnUse" xlink:href="#linearGradient3799-3"/><linearGradient id="linearGradient3799-3"><stop id="stop3801-3" offset="0" stop-color="#1a1a1a" stop-opacity="1"/><stop id="stop3803-2" offset="1" stop-color="#000" stop-opacity="1"/></linearGradient><linearGradient id="linearGradient3726" x1="56.037" x2="56.037" y1="49.333" y2="13.593" gradientTransform="matrix(0.19388162,0,0,0.19388162,-1.3401963,-1.8843368)" gradientUnits="userSpaceOnUse" xlink:href="#linearGradient3799-3"/><radialGradient id="radialGradient3758" cx="49.581" cy="67.041" r="10" fx="49.581" fy="67.041" gradientTransform="matrix(1.0456205,0.08243661,-0.05194947,0.90987799,0.84943041,1.3399685)" gradientUnits="userSpaceOnUse" xlink:href="#linearGradient3784-2"/><linearGradient id="linearGradient3784-2"><stop id="stop3786-4" offset="0" stop-color="#a0a0a0" stop-opacity="1"/><stop id="stop3790-2" offset="1" stop-color="#1a1a1a" stop-opacity="1"/></linearGradient><radialGradient id="radialGradient3745" cx="49.581" cy="67.041" r="10" fx="49.581" fy="67.041" gradientTransform="matrix(1.0456205,0.08243661,-0.05194947,0.90987799,0.84943041,1.3399685)" gradientUnits="userSpaceOnUse" xlink:href="#linearGradient3784-2"/><radialGradient id="radialGradient3698" cx="10.117" cy="6.534" r="2.649" fx="10.117" fy="6.534" gradientTransform="matrix(0.60548597,-0.18291744,0.13322228,0.44098703,0.81853832,7.6996387)" gradientUnits="userSpaceOnUse" xlink:href="#linearGradient3784-2"/><linearGradient id="linearGradient3181" x1="-3.061" x2="-3.061" y1="27.258" y2="7.254" gradientTransform="translate(11.119372,-6.2581977)" gradientUnits="userSpaceOnUse" xlink:href="#ButtonColor-6"/><linearGradient id="ButtonColor-6" x1="10.32" x2="10.32" y1="21" y2=".999" gradientUnits="userSpaceOnUse"><stop id="stop3189-9" offset="0" stop-color="#1d5282" stop-opacity="1"/><stop id="stop3191-8" offset="1" stop-color="#568fc2" stop-opacity="1"/></linearGradient><linearGradient id="linearGradient3050" x1="-3.061" x2="-3.061" y1="27.258" y2="7.254" gradientTransform="translate(21.119372,-12.258198)" gradientUnits="userSpaceOnUse" xlink:href="#ButtonColor-6"/></defs><metadata id="metadata7"/><g id="layer1"><rect id="rect3196" width="16" height="16" x="-16" y=".038" fill="url(#linearGradient3204)" fill-opacity="1" fill-rule="nonzero" stroke="none" rx="2" ry="2" transform="matrix(0,-1,1,0,0,0)"/><path id="rect2835" fill="url(#linearGradient3629)" fill-opacity="1" fill-rule="nonzero" stroke="none" d="m 0,14 c 0,1.108 0.892,2 2,2 l 12,0 c 1.108,0 2,-0.892 2,-2 L 16,2 C 16,0.892 15.108,0 14,0 L 2,0 C 0.892,0 0,0.892 0,2 l 0,12 z m 0.96875,0 0,-12 C 0.96875,1.416801 1.4168007,0.96875 2,0.96875 l 12,0 c 0.583199,0 1.03125,0.448051 1.03125,1.03125 l 0,12 c 0,0.583199 -0.448051,1.03125 -1.03125,1.03125 l -12,0 C 1.4168007,15.03125 0.96875,14.583199 0.96875,14 z" opacity=".4"/><path id="path2843" fill="#fff" fill-opacity="1" fill-rule="nonzero" stroke="none" d="M 2 0.96875 C 1.4168007 0.96875 0.96875 1.4168007 0.96875 2 L 0.96875 3 C 0.96875 2.4168007 1.4168007 1.96875 2 1.96875 L 14 1.96875 C 14.583199 1.96875 15.03125 2.4168007 15.03125 3 L 15.03125 2 C 15.03125 1.4168007 14.583199 0.96875 14 0.96875 L 2 0.96875 z" opacity=".2"/><path id="path2991" fill="#fff" fill-opacity="1" stroke="none" d="m 7.96875,2 c -1.100686,0 -2,0.9367 -2,2.0625 0,1.0185165 0.733222,1.848106 1.6875,2 -1.784978,0.00283 -3.430262,0 -5.34375,0 C 2.166576,6.0365 2.032813,6.249 2.03125,6.375 2.02985,6.501 2.10679,6.59765 2.21875,6.65625 L 5.40625,7.5 C 5.40625,7.5 5.951493,8.414 6,8.9375 6.139151,10.4394 5.6875,13.5 5.6875,13.5 5.582981,13.6561 5.62448,13.86455 5.78125,13.96875 5.938031,14.07285 6.145469,14.031 6.25,13.875 l 1.71875,-3.375 1.75,3.375 c 0.09291,0.1621 0.306162,0.2175 0.46875,0.125 0.162586,-0.092 0.217908,-0.30675 0.125,-0.46875 0,0 -0.396777,-3.03635 -0.3125,-4.53125 0.03002,-0.5325 0.46875,-1.53125 0.46875,-1.53125 l 3.375,-0.8125 C 13.969756,6.56825 14.054576,6.3934 14,6.25 13.94541,6.1065 13.777904,6.01385 13.625,6.03125 c -1.637993,0 -3.511685,-0.00277 -5.25,0 C 9.283359,5.8409689 9.96875,5.0476625 9.96875,4.0625 9.96875,2.9367 9.069436,2 7.96875,2 z" display="inline"/></g></svg>