<svg xmlns="http://www.w3.org/2000/svg" xmlns:svg="http://www.w3.org/2000/svg" xmlns:xlink="http://www.w3.org/1999/xlink" id="svg2" width="16" height="16" display="inline" version="1.0"><defs id="defs4"><linearGradient id="linearGradient3327"><stop id="stop3330" offset="0" stop-color="#000" stop-opacity="1"/><stop id="stop3333" offset="1" stop-color="#000" stop-opacity="0"/></linearGradient><linearGradient id="ButtonColor" x1="10.32" x2="10.32" y1="21" y2=".999" gradientUnits="userSpaceOnUse"><stop id="stop3189" offset="0" stop-color="#29669f" stop-opacity="1"/><stop id="stop3191" offset="1" stop-color="#88b6e0" stop-opacity="1"/></linearGradient><linearGradient id="linearGradient3204" x1="1" x2="15" y1="9" y2="9" gradientTransform="translate(-17,-2)" gradientUnits="userSpaceOnUse" xlink:href="#linearGradient4138"/><linearGradient id="linearGradient3629" x1="0" x2="29.017" y1="8" y2="8" gradientTransform="matrix(0,-1,1,0,0,16)" gradientUnits="userSpaceOnUse" xlink:href="#linearGradient3327"/><linearGradient id="linearGradient3765" x1="383.289" x2="383.289" y1="0" y2="218.48" gradientTransform="matrix(0.09341072,0,0,0.04108075,-26.756456,8.0246654)" gradientUnits="userSpaceOnUse" xlink:href="#SVGID_1_-4"/><linearGradient id="SVGID_1_-4" x1="383.289" x2="383.289" y1="0" y2="218.48" gradientUnits="userSpaceOnUse"><stop id="stop3143-2" offset=".006" stop-color="#ED2828"/><stop id="stop3145-1" offset=".5" stop-color="#EF3B39"/><stop id="stop3147-3" offset=".994" stop-color="#C02126"/></linearGradient><linearGradient id="linearGradient3749-5" x1="175.308" x2="175.308" y1="73.254" y2="180.675" gradientUnits="userSpaceOnUse"><stop id="stop3751-8" offset="0" stop-color="#000" stop-opacity="1"/><stop id="stop3753-7" offset=".994" stop-color="#000" stop-opacity=".473"/></linearGradient><linearGradient id="linearGradient3754" x1="175.308" x2="175.308" y1="73.254" y2="180.675" gradientTransform="matrix(0.04164302,0,0,0.03408859,1.9444673,0.78644322)" gradientUnits="userSpaceOnUse" xlink:href="#linearGradient3749-5"/><linearGradient id="linearGradient3756" x1="175.308" x2="175.308" y1="73.254" y2="180.675" gradientTransform="matrix(0.04998763,0,0,0.03408859,2.4795353,0.78644322)" gradientUnits="userSpaceOnUse" xlink:href="#linearGradient3749-5"/><linearGradient id="linearGradient3809" x1="175.308" x2="175.308" y1="73.254" y2="180.675" gradientTransform="matrix(0.04859283,0,0,0.03408859,3.115962,0.78644322)" gradientUnits="userSpaceOnUse" xlink:href="#linearGradient3749-5"/><linearGradient id="linearGradient4163" x1="6" x2="90" y1="48" y2="48" gradientTransform="translate(-96,0)" gradientUnits="userSpaceOnUse" xlink:href="#linearGradient3696"/><linearGradient id="linearGradient3696"><stop id="stop3698" offset="0" stop-color="#2458a6" stop-opacity="1"/><stop id="stop3700" offset="1" stop-color="#598ad4" stop-opacity="1"/></linearGradient><linearGradient id="linearGradient3738" x1="6" x2="90" y1="48" y2="48" gradientTransform="translate(-52.867199,-57.252856)" gradientUnits="userSpaceOnUse" xlink:href="#linearGradient3696"/><linearGradient id="linearGradient4113" x1="22.111" x2="40" y1="62.984" y2="32" gradientTransform="matrix(0.19388162,0,0,0.19388162,-1.4007219,-1.9461429)" gradientUnits="userSpaceOnUse" xlink:href="#linearGradient4099"/><linearGradient id="linearGradient4099"><stop id="stop4101" offset="0" stop-color="#9ede27" stop-opacity="1"/><stop id="stop4103" offset="1" stop-color="#c8f16b" stop-opacity="1"/></linearGradient><linearGradient id="linearGradient4105" x1="38" x2="70" y1="74" y2="49" gradientTransform="matrix(0.19388162,0,0,0.19388162,-1.5256152,-1.9461429)" gradientUnits="userSpaceOnUse" xlink:href="#linearGradient4099"/><linearGradient id="linearGradient3712"><stop id="stop3714" offset="0" stop-color="#9ede27" stop-opacity="1"/><stop id="stop3716" offset="1" stop-color="#c8f16b" stop-opacity="1"/></linearGradient><linearGradient id="linearGradient3746" x1="56.037" x2="56.037" y1="49.333" y2="13.593" gradientTransform="matrix(0.26518093,0,0,0.26518093,-0.34872536,-3.7081516)" gradientUnits="userSpaceOnUse" xlink:href="#linearGradient3799-3"/><linearGradient id="linearGradient3799-3"><stop id="stop3801-3" offset="0" stop-color="#1a1a1a" stop-opacity="1"/><stop id="stop3803-2" offset="1" stop-color="#000" stop-opacity="1"/></linearGradient><linearGradient id="linearGradient3726" x1="56.037" x2="56.037" y1="49.333" y2="13.593" gradientTransform="matrix(0.19388162,0,0,0.19388162,-1.3401963,-1.8843368)" gradientUnits="userSpaceOnUse" xlink:href="#linearGradient3799-3"/><radialGradient id="radialGradient3758" cx="49.581" cy="67.041" r="10" fx="49.581" fy="67.041" gradientTransform="matrix(1.0456205,0.08243661,-0.05194947,0.90987799,0.84943041,1.3399685)" gradientUnits="userSpaceOnUse" xlink:href="#linearGradient3784-2"/><linearGradient id="linearGradient3784-2"><stop id="stop3786-4" offset="0" stop-color="#a0a0a0" stop-opacity="1"/><stop id="stop3790-2" offset="1" stop-color="#1a1a1a" stop-opacity="1"/></linearGradient><radialGradient id="radialGradient3745" cx="49.581" cy="67.041" r="10" fx="49.581" fy="67.041" gradientTransform="matrix(1.0456205,0.08243661,-0.05194947,0.90987799,0.84943041,1.3399685)" gradientUnits="userSpaceOnUse" xlink:href="#linearGradient3784-2"/><radialGradient id="radialGradient3698" cx="10.117" cy="6.534" r="2.649" fx="10.117" fy="6.534" gradientTransform="matrix(0.60548597,-0.18291744,0.13322228,0.44098703,0.81853832,7.6996387)" gradientUnits="userSpaceOnUse" xlink:href="#linearGradient3784-2"/><linearGradient id="linearGradient3181" x1="-3.061" x2="-3.061" y1="27.258" y2="7.254" gradientTransform="translate(12.119372,-7.2581978)" gradientUnits="userSpaceOnUse" xlink:href="#linearGradient4138"/><linearGradient id="linearGradient4138"><stop id="stop4140" offset="0" stop-color="#505050" stop-opacity="1"/><stop id="stop4142" offset="1" stop-color="#8c8c8c" stop-opacity="1"/></linearGradient><linearGradient id="linearGradient4952" x1="19" x2="21" y1="17" y2="17" gradientTransform="translate(-6,-31)" gradientUnits="userSpaceOnUse" xlink:href="#linearGradient4190"/><linearGradient id="linearGradient4190"><stop id="stop4192" offset="0" stop-color="#fff" stop-opacity="1"/><stop id="stop4194" offset=".564" stop-color="#b7b7b7" stop-opacity="1"/><stop id="stop4196" offset=".642" stop-color="#b3b3b3" stop-opacity="1"/><stop id="stop4198" offset="1" stop-color="#8c8c8c" stop-opacity="1"/></linearGradient><linearGradient id="linearGradient4066" x1="67.288" x2="68.183" y1="31.233" y2="92.192" gradientUnits="userSpaceOnUse" xlink:href="#linearGradient3436"/><linearGradient id="linearGradient3436"><stop id="stop3438" offset="0" stop-color="#fff" stop-opacity="1"/><stop id="stop3440" offset="1" stop-color="#fff" stop-opacity="0"/></linearGradient><linearGradient id="linearGradient4064" x1="59.141" x2="59.141" y1="31.833" y2="99.174" gradientUnits="userSpaceOnUse" xlink:href="#linearGradient3544"/><linearGradient id="linearGradient3544"><stop id="stop3546" offset="0" stop-color="#040404" stop-opacity="1"/><stop id="stop3548" offset="1" stop-color="#4b4b4b" stop-opacity="1"/></linearGradient><radialGradient id="radialGradient4904" cx="89.331" cy="83.334" r="35.827" fx="89.331" fy="83.334" gradientUnits="userSpaceOnUse" xlink:href="#linearGradient4227"/><linearGradient id="linearGradient4227"><stop id="stop4229" offset="0" stop-color="#eacc72" stop-opacity="1"/><stop id="stop4231" offset="1" stop-color="#d49110" stop-opacity="1"/></linearGradient><radialGradient id="radialGradient4881" cx="71.418" cy="32.695" r="34.449" fx="71.418" fy="32.695" gradientTransform="matrix(-4.9335871e-8,1.5375001,-2.1378289,-6.8599443e-8,141.31345,-77.110153)" gradientUnits="userSpaceOnUse" xlink:href="#linearGradient4190"/><linearGradient id="linearGradient3167"><stop id="stop3169" offset="0" stop-color="#f0f0f0" stop-opacity="1"/><stop id="stop3171" offset=".564" stop-color="#b4b4b4" stop-opacity="1"/><stop id="stop3173" offset=".642" stop-color="#a0a0a0" stop-opacity="1"/><stop id="stop3175" offset="1" stop-color="#787878" stop-opacity="1"/></linearGradient><filter id="filter4938" color-interpolation-filters="sRGB"><feGaussianBlur id="feGaussianBlur4940" stdDeviation="1.344"/></filter><linearGradient id="linearGradient3191" x1="-3.061" x2="-3.061" y1="27.258" y2="7.254" gradientTransform="translate(-17.880628,-13.258198)" gradientUnits="userSpaceOnUse" xlink:href="#linearGradient4138"/></defs><metadata id="metadata7"/><g id="layer1"><rect id="rect3196" width="16" height="16" x="-16" y="0" fill="url(#linearGradient3204)" fill-opacity="1" fill-rule="nonzero" stroke="none" rx="2" ry="2" transform="matrix(0,-1,1,0,0,0)"/><path id="path3930" fill="#000" fill-opacity="1" fill-rule="evenodd" stroke="none" d="m 71.40625,26.15625 c -21.62854,0 -39.25,17.62146 -39.25,39.25 0,21.628237 17.615556,39.28125 39.25,39.28125 21.634142,0 39.28125,-17.647108 39.28125,-39.28125 0,-21.634444 -17.653013,-39.25 -39.28125,-39.25 z" display="inline" opacity=".05" transform="matrix(0.17671666,0,0,0.17671666,-4.620712,-3.1214438)"/><path id="path3926" fill="#000" fill-opacity="1" fill-rule="evenodd" stroke="none" d="m 71.40625,29.03125 c -20.068542,0 -36.375,16.306458 -36.375,36.375 0,20.068542 16.303297,36.40625 36.375,36.40625 20.071703,0 36.40625,-16.334547 36.40625,-36.40625 0,-20.071703 -16.337708,-36.375 -36.40625,-36.375 z" display="inline" opacity=".15" transform="matrix(0.17671666,0,0,0.17671666,-4.620712,-3.1214438)"/><path id="path3916" fill="#000" fill-opacity="1" fill-rule="evenodd" stroke="none" d="m 105.00536,65.421051 a 33.587574,33.587574 0 1 1 -67.175148,0 33.587574,33.587574 0 1 1 67.175148,0 z" display="inline" opacity=".3" transform="matrix(0.17671666,0,0,0.17671666,-4.620712,-3.1214438)"/><path id="rect2835" fill="url(#linearGradient3629)" fill-opacity="1" fill-rule="nonzero" stroke="none" d="m 0,14 c 0,1.108 0.892,2 2,2 l 12,0 c 1.108,0 2,-0.892 2,-2 L 16,2 C 16,0.892 15.108,0 14,0 L 2,0 C 0.892,0 0,0.892 0,2 l 0,12 z m 0.96875,0 0,-12 C 0.96875,1.416801 1.4168007,0.96875 2,0.96875 l 12,0 c 0.583199,0 1.03125,0.448051 1.03125,1.03125 l 0,12 c 0,0.583199 -0.448051,1.03125 -1.03125,1.03125 l -12,0 C 1.4168007,15.03125 0.96875,14.583199 0.96875,14 z" opacity=".4"/><path id="path2843" fill="#fff" fill-opacity="1" fill-rule="nonzero" stroke="none" d="M 2 0.96875 C 1.4168007 0.96875 0.96875 1.4168007 0.96875 2 L 0.96875 3 C 0.96875 2.4168007 1.4168007 1.96875 2 1.96875 L 14 1.96875 C 14.583199 1.96875 15.03125 2.4168007 15.03125 3 L 15.03125 2 C 15.03125 1.4168007 14.583199 0.96875 14 0.96875 L 2 0.96875 z" opacity=".15"/><path id="path3320" fill="url(#radialGradient4881)" fill-opacity="1" fill-rule="evenodd" stroke="none" d="m 105.00536,65.421051 a 33.587574,33.587574 0 1 1 -67.175148,0 33.587574,33.587574 0 1 1 67.175148,0 z" display="inline" transform="matrix(0.17671666,0,0,0.17671666,-4.620712,-3.5609896)"/><path id="path3412" fill="#323232" fill-opacity="1" fill-rule="evenodd" stroke="none" d="m 105.00536,65.421051 a 33.587574,33.587574 0 1 1 -67.175148,0 33.587574,33.587574 0 1 1 67.175148,0 z" display="inline" transform="matrix(0.13253749,0,0,0.13253749,-1.4655342,-0.6707422)"/><path id="path3493" fill="url(#radialGradient4904)" fill-opacity="1" fill-rule="evenodd" stroke="#c2c2c2" stroke-dasharray="none" stroke-dashoffset="0" stroke-linecap="butt" stroke-linejoin="round" stroke-miterlimit="4" stroke-opacity="1" stroke-width="6.036" d="m 105.00536,65.421051 a 33.587574,33.587574 0 1 1 -67.175148,0 33.587574,33.587574 0 1 1 67.175148,0 z" display="inline" transform="matrix(0.08283593,0,0,0.08283593,2.084041,2.5807861)"/><path id="path3540" fill="url(#linearGradient4064)" fill-opacity="1" fill-rule="evenodd" stroke="none" d="m 105.00536,65.421051 a 33.587574,33.587574 0 1 1 -67.175148,0 33.587574,33.587574 0 1 1 67.175148,0 z" display="inline" transform="matrix(0.03432248,0,0,0.03432248,5.5487603,5.7543062)"/><path id="path3552" fill="url(#linearGradient4066)" fill-opacity="1" fill-rule="evenodd" stroke="none" d="m 105.00536,65.421051 a 33.587574,33.587574 0 1 1 -67.175148,0 33.587574,33.587574 0 1 1 67.175148,0 z" display="inline" opacity=".8" transform="matrix(0.0256866,0,0,0.01648751,6.1655157,6.4860014)"/><path id="path4906" fill="#fff" fill-opacity="1" fill-rule="evenodd" stroke="none" d="m 3.5715727,8.4637096 c -0.00554,0.090955 -0.023186,0.1858764 -0.023186,0.2782258 0,2.4585576 1.9930554,4.4516126 4.451613,4.4516126 2.4585583,0 4.4516133,-1.993055 4.4516133,-4.4516126 0,-0.092349 -0.01764,-0.1872712 -0.02318,-0.2782258 -0.227967,2.2447524 -2.12353,3.9879034 -4.4284278,3.9879034 -2.3048976,0 -4.2004604,-1.743151 -4.4284275,-3.9879034 z" display="inline" opacity=".2"/><path id="path4924" fill="#000" fill-opacity="1" fill-rule="evenodd" stroke="none" d="m 4.8522342,4.8522342 c -1.7384624,1.738463 -1.7384624,4.5570685 0,6.2955318 0.065298,0.0653 0.1448963,0.119946 0.2131299,0.180341 C 3.6392817,9.5796296 3.7470531,7.0066709 5.376862,5.3768618 7.006671,3.7470526 9.5796298,3.6392813 11.328107,5.0653641 c -0.06039,-0.068234 -0.11504,-0.147829 -0.180341,-0.2131299 -1.7384631,-1.738463 -4.5570686,-1.7384627 -6.2955318,0 z" display="inline" opacity=".5"/><path id="path4929" fill="#fff" fill-opacity="1" fill-rule="evenodd" stroke="none" d="m 3.9425405,7.9999999 c 0,2.0457041 1.5144298,3.7158381 3.4778226,4.0110891 -1.7749598,-0.36321 -3.1068549,-1.943272 -3.1068549,-3.8256052 0,-2.1512383 1.7439231,-3.8951614 3.8951613,-3.8951614 1.8823335,0 3.4623955,1.3318952 3.8256045,3.1068549 C 11.739023,5.4337845 10.06889,3.9193547 8.0231857,3.9193547 c -2.2536781,0 -4.0806452,1.8269672 -4.0806452,4.0806452 z M 12.034274,7.3971773 c 0.02595,0.1267827 0.03308,0.2632091 0.04637,0.3941533 -0.0069,-0.1356155 -0.02655,-0.2623492 -0.04637,-0.3941533 z M 7.4203631,12.011089 c 0.1318041,0.01982 0.2585378,0.03948 0.3941532,0.04637 -0.1309442,-0.0133 -0.2673705,-0.02043 -0.3941532,-0.04637 z" display="inline" opacity=".4"/><rect id="rect4942" width="1" height="1" x="14" y="11" fill="#7fff2a" fill-opacity="1" fill-rule="nonzero" stroke="none" stroke-width="1" color="#000" display="inline" enable-background="accumulate" opacity=".8" overflow="visible" rx="2" ry="1" visibility="visible" style="marker:none"/><rect id="rect4944" width="2" height="2" x="13" y="-15" fill="url(#linearGradient4952)" fill-opacity="1" fill-rule="nonzero" stroke="none" stroke-width="1" color="#000" display="inline" enable-background="accumulate" opacity=".8" overflow="visible" rx="4" ry="2" transform="matrix(0,1,-1,0,0,0)" visibility="visible" style="marker:none"/></g></svg>