<svg xmlns="http://www.w3.org/2000/svg" xmlns:svg="http://www.w3.org/2000/svg" xmlns:xlink="http://www.w3.org/1999/xlink" id="svg2" width="16" height="16" display="inline" version="1.0"><defs id="defs4"><linearGradient id="linearGradient3902"><stop id="stop3904" offset="0" stop-color="#fff" stop-opacity="1"/><stop id="stop3906" offset="1" stop-color="#fff" stop-opacity="0"/></linearGradient><linearGradient id="linearGradient3880"><stop id="stop3882" offset="0" stop-color="#6d5131" stop-opacity="1"/><stop id="stop3884" offset="1" stop-color="#6d5131" stop-opacity="0"/></linearGradient><linearGradient id="linearGradient3327"><stop id="stop3330" offset="0" stop-color="#000" stop-opacity="1"/><stop id="stop3333" offset="1" stop-color="#000" stop-opacity="0"/></linearGradient><linearGradient id="ButtonColor" x1="10.32" x2="10.32" y1="21" y2=".999" gradientUnits="userSpaceOnUse"><stop id="stop3189" offset="0" stop-color="#e6e6e6" stop-opacity="1"/><stop id="stop3191" offset="1" stop-color="#f5f5f5" stop-opacity="1"/></linearGradient><linearGradient id="linearGradient3192" x1="9.057" x2="9.057" y1="10.203" y2="-12.199" gradientTransform="translate(0,5.8006549)" gradientUnits="userSpaceOnUse" xlink:href="#linearGradient3327"/><linearGradient id="linearGradient3204" x1="1" x2="15" y1="9" y2="9" gradientTransform="translate(-16,-1)" gradientUnits="userSpaceOnUse" xlink:href="#ButtonColor"/><linearGradient id="linearGradient3173" x1="1" x2="15" y1="9" y2="9" gradientTransform="translate(-16,-1)" gradientUnits="userSpaceOnUse" xlink:href="#ButtonColor"/><linearGradient id="linearGradient3177" x1="1" x2="15" y1="9" y2="9" gradientTransform="translate(-16,-1)" gradientUnits="userSpaceOnUse" xlink:href="#ButtonColor"/><linearGradient id="linearGradient3179" x1="1" x2="15" y1="9" y2="9" gradientTransform="matrix(0,-1,1,0,-1,16)" gradientUnits="userSpaceOnUse" xlink:href="#ButtonColor"/><linearGradient id="linearGradient3612" x1="8" x2="8" y1="15" y2="-1" gradientUnits="userSpaceOnUse" xlink:href="#linearGradient3327"/><linearGradient id="linearGradient3204-0" x1="1" x2="16.956" y1="9" y2="9" gradientTransform="translate(-17,-2)" gradientUnits="userSpaceOnUse" xlink:href="#ButtonColor-5"/><linearGradient id="ButtonColor-5" x1="10.32" x2="10.32" y1="21" y2=".999" gradientUnits="userSpaceOnUse"><stop id="stop3189-0" offset="0" stop-color="#e6e6e6" stop-opacity="1"/><stop id="stop3191-2" offset="1" stop-color="#f5f5f5" stop-opacity="1"/></linearGradient><linearGradient id="linearGradient2897" x1="9.057" x2="9.057" y1="10.203" y2="-19.304" gradientTransform="translate(-0.499722,5.300655)" gradientUnits="userSpaceOnUse" xlink:href="#linearGradient3327-7"/><linearGradient id="linearGradient3327-7"><stop id="stop3330-6" offset="0" stop-color="#000" stop-opacity="1"/><stop id="stop3333-8" offset="1" stop-color="#000" stop-opacity="0"/></linearGradient><linearGradient id="linearGradient3767" x1="1" x2="16.956" y1="9" y2="9" gradientTransform="translate(-17,-2)" gradientUnits="userSpaceOnUse" xlink:href="#linearGradient4289"/><linearGradient id="linearGradient3867" x1="-3.061" x2="-3.061" y1="27.258" y2="7.254" gradientTransform="translate(11.119372,-6.2581977)" gradientUnits="userSpaceOnUse" xlink:href="#linearGradient4289"/><linearGradient id="linearGradient4289"><stop id="stop4291" offset="0" stop-color="#996c3b" stop-opacity="1"/><stop id="stop4293" offset="1" stop-color="#c19e6d" stop-opacity="1"/></linearGradient><linearGradient id="linearGradient3889" x1="50.499" x2="50.499" y1="19.882" y2="47.295" gradientTransform="matrix(0.2514503,0,0,0.2514503,-42.22951,-5.0793315)" gradientUnits="userSpaceOnUse" xlink:href="#linearGradient4309"/><linearGradient id="linearGradient4309" x1="52.25" x2="52.25" y1="47.247" y2=".239" gradientUnits="userSpaceOnUse"><stop id="stop4311" offset="0" stop-color="#d8cab2" stop-opacity="1"/><stop id="stop4321" offset=".457" stop-color="#d2b98c" stop-opacity="1"/><stop id="stop4323" offset=".486" stop-color="#F9F7EF"/><stop id="stop4325" offset=".491" stop-color="#FFF"/><stop id="stop4327" offset=".492" stop-color="#FBF9F4"/><stop id="stop4329" offset=".495" stop-color="#EFE7D0"/><stop id="stop4331" offset=".498" stop-color="#E4D6B0"/><stop id="stop4333" offset=".501" stop-color="#DAC894"/><stop id="stop4335" offset=".505" stop-color="#c7a572" stop-opacity="1"/><stop id="stop4347" offset="1" stop-color="#d7c198" stop-opacity="1"/></linearGradient><linearGradient id="linearGradient2489" x1="48" x2="6.781" y1="42" y2="18.202" gradientTransform="matrix(0.23809522,0,0,0.23809522,-40.428572,-6.4761893)" gradientUnits="userSpaceOnUse" xlink:href="#linearGradient4295"/><linearGradient id="linearGradient4295"><stop id="stop4297" offset="0" stop-color="#b88f56" stop-opacity="1"/><stop id="stop4299" offset="1" stop-color="#d9bd98" stop-opacity="1"/></linearGradient><linearGradient id="linearGradient3264" x1="47.227" x2="6.33" y1="29.04" y2="18.082" gradientTransform="matrix(-0.23809522,0,0,0.23809522,-17.57143,-6.4761893)" gradientUnits="userSpaceOnUse" xlink:href="#linearGradient4295"/><linearGradient id="linearGradient3007"><stop id="stop3009" offset="0" stop-color="#b88f56" stop-opacity="1"/><stop id="stop3011" offset="1" stop-color="#d9bd98" stop-opacity="1"/></linearGradient><linearGradient id="linearGradient3017" x1="-3.061" x2="-3.061" y1="27.258" y2="7.254" gradientTransform="translate(-28.880628,-12.258198)" gradientUnits="userSpaceOnUse" xlink:href="#linearGradient4289"/><linearGradient id="linearGradient3859" x1="1" x2="16.956" y1="9" y2="9" gradientTransform="translate(-8,-2)" gradientUnits="userSpaceOnUse" xlink:href="#linearGradient4289"/><linearGradient id="linearGradient3865" x1="1" x2="16.956" y1="9" y2="9" gradientTransform="matrix(0,-1,1,0,-2,8)" gradientUnits="userSpaceOnUse" xlink:href="#linearGradient4289"/><linearGradient id="linearGradient3868" x1="5" x2="5" y1="10" y2="2" gradientTransform="matrix(0,-1,1,0,-2,8)" gradientUnits="userSpaceOnUse" xlink:href="#linearGradient4295"/><linearGradient id="linearGradient3872" x1="5" x2="5" y1="10" y2="2" gradientTransform="matrix(0,-1,-1,0,18,8)" gradientUnits="userSpaceOnUse" xlink:href="#linearGradient4295"/><linearGradient id="linearGradient3876" x1="50.499" x2="50.499" y1="16.167" y2="47.295" gradientTransform="matrix(0.2514503,0,0,0.2514503,-5.22951,-1.0793315)" gradientUnits="userSpaceOnUse" xlink:href="#linearGradient4309"/><linearGradient id="linearGradient3886" x1="7.978" x2="14" y1="7.489" y2="7.489" gradientUnits="userSpaceOnUse" spreadMethod="reflect" xlink:href="#linearGradient3880"/><linearGradient id="linearGradient3877" x1="10" x2="10" y1="40.263" y2="89.666" gradientTransform="matrix(-0.25789762,0,0,0.20638289,22.074726,2.1462134)" gradientUnits="userSpaceOnUse" xlink:href="#linearGradient3737"/><linearGradient id="linearGradient3737"><stop id="stop3739" offset="0" stop-color="#fff" stop-opacity="1"/><stop id="stop3741" offset="1" stop-color="#fff" stop-opacity="0"/></linearGradient><linearGradient id="linearGradient3036" x1="10" x2="10" y1="40.263" y2="89.666" gradientTransform="matrix(-0.50000023,0,0,0.15047142,6.0000019,0.58302948)" gradientUnits="userSpaceOnUse" xlink:href="#linearGradient3737"/><linearGradient id="linearGradient3909" x1="10" x2="10" y1="40.263" y2="89.666" gradientTransform="matrix(-0.50000023,0,0,0.15047142,19.000002,0.58302948)" gradientUnits="userSpaceOnUse" xlink:href="#linearGradient3737"/><linearGradient id="linearGradient3226" x1="51.429" x2="90.714" y1="72.786" y2="72.786" gradientUnits="userSpaceOnUse" xlink:href="#linearGradient3778"/><linearGradient id="linearGradient3778"><stop id="stop3780" offset="0" stop-color="#499119" stop-opacity="1"/><stop id="stop3782" offset="1" stop-color="#8fd625" stop-opacity="1"/></linearGradient><linearGradient id="linearGradient3148" x1="51.429" x2="90.714" y1="72.786" y2="72.786" gradientUnits="userSpaceOnUse" xlink:href="#linearGradient3778"/><linearGradient id="linearGradient3875" x1="15" x2="15" y1="10.877" y2="5" gradientTransform="translate(-6,4)" gradientUnits="userSpaceOnUse" xlink:href="#linearGradient3187"/><linearGradient id="linearGradient3890" x1="15" x2="15" y1="13" y2="5" gradientTransform="translate(-4,3)" gradientUnits="userSpaceOnUse" xlink:href="#linearGradient3778"/><linearGradient id="linearGradient3892" x1="15" x2="15" y1="13" y2="5" gradientTransform="translate(-4,2)" gradientUnits="userSpaceOnUse" xlink:href="#linearGradient3778"/><linearGradient id="linearGradient3908" x1="10.147" x2="10.147" y1="3.723" y2="13.833" gradientUnits="userSpaceOnUse" xlink:href="#linearGradient3902"/><linearGradient id="linearGradient3000" x1="69" x2="69" y1="122" y2="5.978" gradientTransform="matrix(0.10332655,0,0,0.10344828,9.38004,8.3793103)" gradientUnits="userSpaceOnUse" xlink:href="#linearGradient3187"/><linearGradient id="linearGradient3187"><stop id="stop3189-7" offset="0" stop-color="#2890d9" stop-opacity="1"/><stop id="stop3191-6" offset="1" stop-color="#81c1e9" stop-opacity="1"/></linearGradient><linearGradient id="linearGradient3002" x1="69" x2="69" y1="122" y2="5.978" gradientTransform="matrix(0.10332655,0,0,0.10344828,9.3941633,8.3793103)" gradientUnits="userSpaceOnUse" xlink:href="#linearGradient3210-5"/><linearGradient id="linearGradient3210-5"><stop id="stop3212-7" offset="0" stop-color="#e52424" stop-opacity="1"/><stop id="stop3214-3" offset="1" stop-color="#f46f6f" stop-opacity="1"/></linearGradient><linearGradient id="linearGradient3188" x1="69" x2="69" y1="122" y2="5.978" gradientTransform="matrix(0.10332655,0,0,0.10344828,9.3941633,8.3793103)" gradientUnits="userSpaceOnUse" xlink:href="#linearGradient3210-5"/><linearGradient id="linearGradient3130" x1="16.121" x2="16.121" y1="5.158" y2="10.997" gradientTransform="matrix(-1,0,0,-1,27,16)" gradientUnits="userSpaceOnUse" xlink:href="#linearGradient3210-5"/><linearGradient id="linearGradient3904" x1="15" x2="15" y1="10.877" y2="5" gradientTransform="translate(-6,4)" gradientUnits="userSpaceOnUse" xlink:href="#linearGradient3187"/><linearGradient id="linearGradient3910" x1="15" x2="15" y1="10.877" y2="5" gradientTransform="translate(-6,5)" gradientUnits="userSpaceOnUse" xlink:href="#linearGradient3187"/><linearGradient id="linearGradient3912" x1="15" x2="15" y1="10.877" y2="5" gradientTransform="translate(-6,4)" gradientUnits="userSpaceOnUse" xlink:href="#linearGradient3187"/><linearGradient id="linearGradient3919" x1="15" x2="15" y1="10.877" y2="5" gradientTransform="translate(-6,4)" gradientUnits="userSpaceOnUse" xlink:href="#linearGradient3187"/></defs><metadata id="metadata7"/><g id="layer1"><rect id="rect3196" width="16" height="16" x="-16" y="0" fill="url(#linearGradient3767)" fill-opacity="1" fill-rule="nonzero" stroke="none" display="inline" rx="2" ry="2" transform="matrix(0,-1,1,0,0,0)"/><path id="path3907" fill="url(#linearGradient3909)" fill-opacity="1" fill-rule="nonzero" stroke="none" d="m 15,6 0,7.895047 c -0.288428,0.0777 -0.627462,0.138899 -1,0.178685 L 14,6 15,6 z" display="inline" opacity=".3"/><path id="path3873" fill="url(#linearGradient3036)" fill-opacity="1" fill-rule="nonzero" stroke="none" d="m 2,6 0,7.895047 c -0.2884285,0.0777 -0.6274625,0.138899 -1,0.178685 L 1,6 2,6 z" display="inline" opacity=".3"/><path id="path3870" fill="url(#linearGradient3872)" fill-opacity="1" fill-rule="nonzero" stroke="none" d="m 14,0 c 1.108,0 2,0.892 2,2 l 0,3 c 0,1.108 -0.892,2 -2,2 L 8,7 8,0 14,0 z" display="inline"/><path id="rect3861" fill="url(#linearGradient3868)" fill-opacity="1" fill-rule="nonzero" stroke="none" d="M 2 0 C 0.892 0 3.0947467e-18 0.892 0 2 L 0 5 C 0 6.108 0.892 7 2 7 L 8 7 L 8 0 L 2 0 z" display="inline"/><rect id="rect3878" width="12.039" height="1.022" x="1.961" y="6.978" fill="url(#linearGradient3886)" fill-opacity="1" fill-rule="nonzero" stroke="none" stroke-width=".5" color="#000" display="inline" enable-background="accumulate" opacity="1" overflow="visible" visibility="visible" style="marker:none"/><path id="path3874" fill="url(#linearGradient3876)" fill-opacity="1" d="M 6.061545,0.0220848 6.043325,11.05172 10.017159,10.027301 9.976799,0 6.061545,0.0220848 z" display="inline"/><path id="path3930" fill="#000" fill-opacity="1" stroke="none" d="M 11.78125 4.53125 C 11.582061 4.61077 11.375415 4.7746995 11.25 4.90625 L 8.34375 7.84375 C 8.188075 7.9392292 8.0762974 8.1927183 8.0625 8.40625 C 8.06783 8.6640778 7.6154051 8.454631 7.46875 8.65625 C 7.2292513 8.7924722 7.1215257 9.0538298 7.03125 9.28125 L 7.03125 11.53125 L 5.84375 11.53125 C 5.6410034 11.613 5.414261 11.69074 5.28125 11.875 C 5.1415502 12.01471 5.0559287 12.235146 5.0625 12.46875 C 5.036454 12.71376 5.138165 12.905852 5.25 13.09375 C 5.5173905 13.295715 5.7888892 13.616867 6.0625 13.875 L 8.1875 16 L 9.8125 16 L 12.65625 13.15625 C 12.811925 13.06077 12.923703 12.807282 12.9375 12.59375 C 12.95475 12.333394 13.438485 12.5213 13.59375 12.28125 C 13.839023 12.071304 13.978558 11.810914 13.96875 11.5 L 13.96875 9.46875 L 15.15625 9.46875 C 15.358997 9.3870031 15.585739 9.30926 15.71875 9.125 C 15.85845 8.9852897 15.944071 8.7648542 15.9375 8.53125 C 15.963546 8.2862396 15.861835 8.0941482 15.75 7.90625 C 15.48294 7.7039563 15.209949 7.3842886 14.9375 7.125 L 12.6875 4.84375 C 12.478516 4.6444409 12.142035 4.4875624 11.8125 4.53125 L 11.78125 4.53125 z" display="inline" opacity=".08"/><path id="rect2410" fill="url(#linearGradient2897)" fill-opacity="1" fill-rule="nonzero" stroke="none" d="M 2,0 C 0.892,0 0,0.892 0,2 l 0,12 c 0,1.108 0.892,2 2,2 l 12,0 c 1.108,0 2,-0.892 2,-2 L 16,2 C 16,0.892 15.108,0 14,0 L 2,0 z m 0.5,1 11,0 C 14.331,1 15,1.669 15,2.5 l 0,11 c 0,0.831 -0.669,1.5 -1.5,1.5 l -11,0 C 1.669,15 1,14.331 1,13.5 L 1,2.5 C 1,1.669 1.669,1 2.5,1 z" display="inline" opacity=".4"/><path id="rect3770" fill="#fff" fill-opacity="1" stroke="none" d="M 2.5,1 C 1.669,1 1,1.669 1,2.5 l 0,1 C 1,2.669 1.669,2 2.5,2 l 11,0 C 14.331,2 15,2.669 15,3.5 l 0,-1 C 15,1.669 14.331,1 13.5,1 l -11,0 z" display="inline" opacity=".2"/><path id="path3926" fill="#000" fill-opacity="1" stroke="none" d="m 11.9375,5.03125 a 0.46224203,0.46224203 0 0 0 -0.25,0.15625 l -3,3 A 0.46224203,0.46224203 0 0 0 9,8.96875 l 1.53125,0 0,2.53125 A 0.46224203,0.46224203 0 0 0 11,11.96875 l 2,0 A 0.46224203,0.46224203 0 0 0 13.46875,11.5 l 0,-2.53125 1.53125,0 A 0.46224203,0.46224203 0 0 0 15.3125,8.1875 l -3,-3 a 0.46224203,0.46224203 0 0 0 -0.375,-0.15625 z m -3.96875,4 A 0.46224203,0.46224203 0 0 0 7.53125,9.5 l 0,2.53125 -1.53125,0 A 0.46224203,0.46224203 0 0 0 5.6875,12.8125 l 3,3 a 0.46224203,0.46224203 0 0 0 0.625,0 l 3,-3 A 0.46224203,0.46224203 0 0 0 12,12.03125 l -1.53125,0 0,-2.53125 A 0.46224203,0.46224203 0 0 0 10,9.03125 l -2,0 a 0.46224203,0.46224203 0 0 0 -0.03125,0 z" display="inline" opacity=".15"/><path id="path3915" fill="#000" fill-opacity="1" stroke="none" d="m 12,5.5044453 -3,3 2,0 0,2.9999997 2,0 0,-2.9999997 2,0 -3,-3 z m -4,4 0,2.9999997 -2,0 3,3 3,-3 -2,0 0,-2.9999997 -2,0 z" display="inline" opacity=".3"/><path id="rect3936" fill="url(#linearGradient3875)" fill-opacity="1" stroke="none" d="m 8,9 0,3 -2,0 3,3 3,-3 -2,0 0,-3 z" display="inline"/><path id="path3128" fill="url(#linearGradient3130)" fill-opacity="1" stroke="none" d="m 13,11 0,-3 2,0 -3,-3 -3,3 2,0 0,3 z" display="inline"/><path id="path3900" fill="#fff" fill-opacity="1" stroke="none" d="M 12 5 L 9 8 L 10 8 L 12 6 L 14 8 L 15 8 L 12 5 z M 8 9 L 8 10 L 10 10 L 10 9 L 9 9 L 8 9 z M 6 12 L 7 13 L 8 13 L 8 12 L 6 12 z M 10 12 L 10 13 L 11 13 L 12 12 L 11 12 L 10 12 z" display="inline" opacity=".2"/></g></svg>