<svg xmlns="http://www.w3.org/2000/svg" xmlns:svg="http://www.w3.org/2000/svg" xmlns:xlink="http://www.w3.org/1999/xlink" id="svg2" width="16" height="16" display="inline" version="1.0"><defs id="defs4"><linearGradient id="linearGradient3327"><stop id="stop3330" offset="0" stop-color="#000" stop-opacity="1"/><stop id="stop3333" offset="1" stop-color="#000" stop-opacity="0"/></linearGradient><linearGradient id="ButtonColor" x1="10.32" x2="10.32" y1="21" y2=".999" gradientUnits="userSpaceOnUse"><stop id="stop3189" offset="0" stop-color="#29669f" stop-opacity="1"/><stop id="stop3191" offset="1" stop-color="#88b6e0" stop-opacity="1"/></linearGradient><linearGradient id="linearGradient3204" x1="1" x2="15" y1="9" y2="9" gradientTransform="translate(-17,-2)" gradientUnits="userSpaceOnUse" xlink:href="#linearGradient3700-8-6"/><linearGradient id="linearGradient3629" x1="0" x2="29.017" y1="8" y2="8" gradientTransform="matrix(0,-1,1,0,0,16)" gradientUnits="userSpaceOnUse" xlink:href="#linearGradient3327"/><linearGradient id="linearGradient3765" x1="383.289" x2="383.289" y1="0" y2="218.48" gradientTransform="matrix(0.09341072,0,0,0.04108075,-26.756456,8.0246654)" gradientUnits="userSpaceOnUse" xlink:href="#SVGID_1_-4"/><linearGradient id="SVGID_1_-4" x1="383.289" x2="383.289" y1="0" y2="218.48" gradientUnits="userSpaceOnUse"><stop id="stop3143-2" offset=".006" stop-color="#ED2828"/><stop id="stop3145-1" offset=".5" stop-color="#EF3B39"/><stop id="stop3147-3" offset=".994" stop-color="#C02126"/></linearGradient><linearGradient id="linearGradient3749-5" x1="175.308" x2="175.308" y1="73.254" y2="180.675" gradientUnits="userSpaceOnUse"><stop id="stop3751-8" offset="0" stop-color="#000" stop-opacity="1"/><stop id="stop3753-7" offset=".994" stop-color="#000" stop-opacity=".473"/></linearGradient><linearGradient id="linearGradient3754" x1="175.308" x2="175.308" y1="73.254" y2="180.675" gradientTransform="matrix(0.04164302,0,0,0.03408859,1.9444673,0.78644322)" gradientUnits="userSpaceOnUse" xlink:href="#linearGradient3749-5"/><linearGradient id="linearGradient3756" x1="175.308" x2="175.308" y1="73.254" y2="180.675" gradientTransform="matrix(0.04998763,0,0,0.03408859,2.4795353,0.78644322)" gradientUnits="userSpaceOnUse" xlink:href="#linearGradient3749-5"/><linearGradient id="linearGradient3809" x1="175.308" x2="175.308" y1="73.254" y2="180.675" gradientTransform="matrix(0.04859283,0,0,0.03408859,3.115962,0.78644322)" gradientUnits="userSpaceOnUse" xlink:href="#linearGradient3749-5"/><linearGradient id="linearGradient4163" x1="6" x2="90" y1="48" y2="48" gradientTransform="translate(-96,0)" gradientUnits="userSpaceOnUse" xlink:href="#linearGradient3696"/><linearGradient id="linearGradient3696"><stop id="stop3698" offset="0" stop-color="#2458a6" stop-opacity="1"/><stop id="stop3700" offset="1" stop-color="#598ad4" stop-opacity="1"/></linearGradient><linearGradient id="linearGradient3738" x1="6" x2="90" y1="48" y2="48" gradientTransform="translate(-52.867199,-57.252856)" gradientUnits="userSpaceOnUse" xlink:href="#linearGradient3696"/><linearGradient id="linearGradient4113" x1="22.111" x2="40" y1="62.984" y2="32" gradientTransform="matrix(0.19388162,0,0,0.19388162,-1.4007219,-1.9461429)" gradientUnits="userSpaceOnUse" xlink:href="#linearGradient4099"/><linearGradient id="linearGradient4099"><stop id="stop4101" offset="0" stop-color="#9ede27" stop-opacity="1"/><stop id="stop4103" offset="1" stop-color="#c8f16b" stop-opacity="1"/></linearGradient><linearGradient id="linearGradient4105" x1="38" x2="70" y1="74" y2="49" gradientTransform="matrix(0.19388162,0,0,0.19388162,-1.5256152,-1.9461429)" gradientUnits="userSpaceOnUse" xlink:href="#linearGradient4099"/><linearGradient id="linearGradient3712"><stop id="stop3714" offset="0" stop-color="#9ede27" stop-opacity="1"/><stop id="stop3716" offset="1" stop-color="#c8f16b" stop-opacity="1"/></linearGradient><linearGradient id="linearGradient3746" x1="56.037" x2="56.037" y1="49.333" y2="13.593" gradientTransform="matrix(0.26518093,0,0,0.26518093,-0.34872536,-3.7081516)" gradientUnits="userSpaceOnUse" xlink:href="#linearGradient3799-3"/><linearGradient id="linearGradient3799-3"><stop id="stop3801-3" offset="0" stop-color="#1a1a1a" stop-opacity="1"/><stop id="stop3803-2" offset="1" stop-color="#000" stop-opacity="1"/></linearGradient><linearGradient id="linearGradient3726" x1="56.037" x2="56.037" y1="49.333" y2="13.593" gradientTransform="matrix(0.19388162,0,0,0.19388162,-1.3401963,-1.8843368)" gradientUnits="userSpaceOnUse" xlink:href="#linearGradient3799-3"/><radialGradient id="radialGradient3758" cx="49.581" cy="67.041" r="10" fx="49.581" fy="67.041" gradientTransform="matrix(1.0456205,0.08243661,-0.05194947,0.90987799,0.84943041,1.3399685)" gradientUnits="userSpaceOnUse" xlink:href="#linearGradient3784-2"/><linearGradient id="linearGradient3784-2"><stop id="stop3786-4" offset="0" stop-color="#a0a0a0" stop-opacity="1"/><stop id="stop3790-2" offset="1" stop-color="#1a1a1a" stop-opacity="1"/></linearGradient><radialGradient id="radialGradient3745" cx="49.581" cy="67.041" r="10" fx="49.581" fy="67.041" gradientTransform="matrix(1.0456205,0.08243661,-0.05194947,0.90987799,0.84943041,1.3399685)" gradientUnits="userSpaceOnUse" xlink:href="#linearGradient3784-2"/><radialGradient id="radialGradient3698" cx="10.117" cy="6.534" r="2.649" fx="10.117" fy="6.534" gradientTransform="matrix(0.60548597,-0.18291744,0.13322228,0.44098703,0.81853832,7.6996387)" gradientUnits="userSpaceOnUse" xlink:href="#linearGradient3784-2"/><linearGradient id="linearGradient3181" x1="-3.061" x2="-3.061" y1="27.258" y2="7.254" gradientTransform="translate(12.119372,-7.2581977)" gradientUnits="userSpaceOnUse" xlink:href="#linearGradient3700"/><linearGradient id="linearGradient3700"><stop id="stop3702" offset="0" stop-color="#6bc72e" stop-opacity="1"/><stop id="stop3704" offset="1" stop-color="#b5f48b" stop-opacity="1"/></linearGradient><linearGradient id="linearGradient3769" x1="-3.061" x2="-3.061" y1="27.258" y2="7.254" gradientTransform="translate(-6.3215246,-10.820452)" gradientUnits="userSpaceOnUse" xlink:href="#linearGradient3700"/><radialGradient id="radialGradient3985" cx="48" cy="48" r="32" fx="48" fy="48" gradientUnits="userSpaceOnUse" xlink:href="#linearGradient3674"/><linearGradient id="linearGradient3674"><stop id="stop3676" offset="0" stop-color="#fff" stop-opacity="1"/><stop id="stop3684" offset=".9" stop-color="#fff" stop-opacity="1"/><stop id="stop3678" offset="1" stop-color="#d9d9d9" stop-opacity="1"/></linearGradient><radialGradient id="radialGradient3789" cx="48" cy="48" r="32" fx="48" fy="48" gradientUnits="userSpaceOnUse" xlink:href="#linearGradient3674"/><linearGradient id="linearGradient3750" x1="9.003" x2="9.003" y1="12.765" y2="5.485" gradientTransform="matrix(0.79592159,0,0,0.79592159,-4.2374153,-21.088213)" gradientUnits="userSpaceOnUse" xlink:href="#linearGradient3744"/><linearGradient id="linearGradient3744"><stop id="stop3746" offset="0" stop-color="red" stop-opacity="1"/><stop id="stop3748" offset="1" stop-color="red" stop-opacity="0"/></linearGradient><linearGradient id="linearGradient3730" x1="15.556" x2="15.556" y1="-4.243" y2="-8.485" gradientTransform="matrix(0.79592159,0,0,0.79592159,-1.0679262,1.1256031)" gradientUnits="userSpaceOnUse" xlink:href="#linearGradient3724"/><linearGradient id="linearGradient3724"><stop id="stop3726" offset="0" stop-color="#000" stop-opacity="1"/><stop id="stop3728" offset="1" stop-color="#000" stop-opacity="0"/></linearGradient><linearGradient id="linearGradient3738-8" x1="-2.794" x2="-2.294" y1="13.16" y2="10.421" gradientTransform="matrix(0.79592159,0,0,0.79592159,-0.81084945,-1.322865)" gradientUnits="userSpaceOnUse" xlink:href="#linearGradient3724"/><linearGradient id="linearGradient3181-7" x1="-3.061" x2="-3.061" y1="27.258" y2="7.254" gradientTransform="translate(12.119372,-7.2581977)" gradientUnits="userSpaceOnUse" xlink:href="#linearGradient3700-8"/><linearGradient id="linearGradient3700-8"><stop id="stop3702-5" offset="0" stop-color="#1f1f1f" stop-opacity="1"/><stop id="stop3704-0" offset="1" stop-color="#2f2f2f" stop-opacity="1"/></linearGradient><linearGradient id="linearGradient3949" x1="-3.061" x2="-3.061" y1="27.258" y2="7.254" gradientTransform="translate(-10.880628,-10.258198)" gradientUnits="userSpaceOnUse" xlink:href="#linearGradient3700-8"/><linearGradient id="linearGradient3181-5" x1="-3.061" x2="-3.061" y1="27.258" y2="7.254" gradientTransform="translate(12.119372,-7.2581977)" gradientUnits="userSpaceOnUse" xlink:href="#linearGradient3700-8-6"/><linearGradient id="linearGradient3700-8-6"><stop id="stop3702-5-6" offset="0" stop-color="#1f1f1f" stop-opacity="1"/><stop id="stop3704-0-4" offset="1" stop-color="#2f2f2f" stop-opacity="1"/></linearGradient><linearGradient id="linearGradient3966" x1="-3.061" x2="-3.061" y1="27.258" y2="7.254" gradientTransform="translate(-1.880628,-8.2581977)" gradientUnits="userSpaceOnUse" xlink:href="#linearGradient3700-8-6"/><linearGradient id="linearGradient3923" x1="43" x2="53" y1="60" y2="60" gradientUnits="userSpaceOnUse" xlink:href="#linearGradient3327-0"/><linearGradient id="linearGradient3327-0"><stop id="stop3330-1" offset="0" stop-color="#000" stop-opacity="1"/><stop id="stop3333-0" offset="1" stop-color="#000" stop-opacity="0"/></linearGradient><linearGradient id="linearGradient3983" x1="43" x2="53" y1="60" y2="60" gradientUnits="userSpaceOnUse" xlink:href="#linearGradient3327-0"/></defs><metadata id="metadata7"/><g id="layer1"><rect id="rect3196" width="16" height="16" x="-16" y="0" fill="url(#linearGradient3204)" fill-opacity="1" fill-rule="nonzero" stroke="none" rx="2" ry="2" transform="matrix(0,-1,1,0,0,0)"/><path id="rect2835" fill="url(#linearGradient3629)" fill-opacity="1" fill-rule="nonzero" stroke="none" d="m 0,14 c 0,1.108 0.892,2 2,2 l 12,0 c 1.108,0 2,-0.892 2,-2 L 16,2 C 16,0.892 15.108,0 14,0 L 2,0 C 0.892,0 0,0.892 0,2 l 0,12 z m 0.96875,0 0,-12 C 0.96875,1.416801 1.4168007,0.96875 2,0.96875 l 12,0 c 0.583199,0 1.03125,0.448051 1.03125,1.03125 l 0,12 c 0,0.583199 -0.448051,1.03125 -1.03125,1.03125 l -12,0 C 1.4168007,15.03125 0.96875,14.583199 0.96875,14 z" opacity=".4"/><path id="path3700" fill="#000" fill-opacity="1" fill-rule="nonzero" stroke="none" stroke-width="1" d="m 80,48 a 32,32 0 1 1 -64,0 32,32 0 1 1 64,0 z" color="#000" display="inline" enable-background="accumulate" opacity=".4" overflow="visible" transform="matrix(0,0.21846585,-0.21846585,0,18.486361,-2.4863608)" visibility="visible" style="marker:none"/><path id="path2843" fill="#fff" fill-opacity="1" fill-rule="nonzero" stroke="none" d="M 2 0.96875 C 1.4168007 0.96875 0.96875 1.4168007 0.96875 2 L 0.96875 3 C 0.96875 2.4168007 1.4168007 1.96875 2 1.96875 L 14 1.96875 C 14.583199 1.96875 15.03125 2.4168007 15.03125 3 L 15.03125 2 C 15.03125 1.4168007 14.583199 0.96875 14 0.96875 L 2 0.96875 z" opacity=".15"/><path id="path3647" fill="url(#radialGradient3789)" fill-opacity="1" fill-rule="nonzero" stroke="none" stroke-width="1" d="m 80,48 a 32,32 0 1 1 -64,0 32,32 0 1 1 64,0 z" color="#000" display="inline" enable-background="accumulate" overflow="visible" transform="matrix(0,0.1875,-0.1875,0,17,-1)" visibility="visible" style="marker:none"/><path id="path3716" fill="#000" fill-opacity="1" fill-rule="nonzero" stroke="none" stroke-width="1" d="m 13,12 a 1,1 0 1 1 -2,0 1,1 0 1 1 2,0 z" color="#000" display="inline" enable-background="accumulate" overflow="visible" transform="matrix(0.79592159,0,0,0.79592159,-1.5510594,-1.5510595)" visibility="visible" style="marker:none"/><rect id="rect3718" width=".796" height="3.98" x="-3.326" y="6.949" fill="url(#linearGradient3738-8)" fill-opacity="1" fill-rule="nonzero" stroke="none" stroke-width="1" color="#000" display="inline" enable-background="accumulate" overflow="visible" transform="matrix(0.5,-0.8660254,0.8660254,0.5,0,0)" visibility="visible" style="marker:none"/><rect id="rect3720" width=".796" height="5.571" x="10.916" y="-5.571" fill="url(#linearGradient3730)" fill-opacity="1" fill-rule="nonzero" stroke="none" stroke-width="1" color="#000" display="inline" enable-background="accumulate" overflow="visible" transform="matrix(0.70710678,0.70710678,-0.70710678,0.70710678,0,0)" visibility="visible" style="marker:none"/><rect id="rect3740" width=".796" height="5.571" x="2.53" y="-16.5" fill="url(#linearGradient3750)" fill-opacity="1" fill-rule="nonzero" stroke="none" stroke-width="1" color="#000" display="inline" enable-background="accumulate" overflow="visible" transform="matrix(-0.5,0.86602541,-0.86602541,-0.5,0,0)" visibility="visible" style="marker:none"/><path id="path3745" fill="#000" fill-opacity="1" fill-rule="nonzero" stroke="none" stroke-width="1" d="m 8,3.5 a 0.5,0.5 0 1 1 -1,0 0.5,0.5 0 1 1 1,0 z" color="#000" display="inline" enable-background="accumulate" opacity=".25" overflow="visible" visibility="visible" style="marker:none"/><path id="path3747" fill="#000" fill-opacity="1" fill-rule="nonzero" stroke="none" stroke-width="1" d="m 8,3.5 a 0.5,0.5 0 1 1 -1,0 0.5,0.5 0 1 1 1,0 z" color="#000" display="inline" enable-background="accumulate" opacity=".25" overflow="visible" transform="translate(1,9)" visibility="visible" style="marker:none"/><path id="path3749" fill="#000" fill-opacity="1" fill-rule="nonzero" stroke="none" stroke-width="1" d="m 8,3.5 a 0.5,0.5 0 1 1 -1,0 0.5,0.5 0 1 1 1,0 z" color="#000" display="inline" enable-background="accumulate" opacity=".25" overflow="visible" transform="translate(5,4)" visibility="visible" style="marker:none"/><path id="path3751" fill="#000" fill-opacity="1" fill-rule="nonzero" stroke="none" stroke-width="1" d="m 8,3.5 a 0.5,0.5 0 1 1 -1,0 0.5,0.5 0 1 1 1,0 z" color="#000" display="inline" enable-background="accumulate" opacity=".25" overflow="visible" transform="translate(-4,5)" visibility="visible" style="marker:none"/><path id="path3753" fill="#000" fill-opacity="1" fill-rule="nonzero" stroke="none" stroke-width="1" d="m 8,3.5 a 0.5,0.5 0 1 1 -1,0 0.5,0.5 0 1 1 1,0 z" color="#000" display="inline" enable-background="accumulate" opacity=".15" overflow="visible" transform="matrix(0.8660254,0.5,-0.5,0.8660254,5.0717968,-2.9282032)" visibility="visible" style="marker:none"/><path id="path3755" fill="#000" fill-opacity="1" fill-rule="nonzero" stroke="none" stroke-width="1" d="m 8,3.5 a 0.5,0.5 0 1 1 -1,0 0.5,0.5 0 1 1 1,0 z" color="#000" display="inline" enable-background="accumulate" opacity=".15" overflow="visible" transform="matrix(0.8660254,0.5,-0.5,0.8660254,1.4378222,5.3660254)" visibility="visible" style="marker:none"/><path id="path3757" fill="#000" fill-opacity="1" fill-rule="nonzero" stroke="none" stroke-width="1" d="m 8,3.5 a 0.5,0.5 0 1 1 -1,0 0.5,0.5 0 1 1 1,0 z" color="#000" display="inline" enable-background="accumulate" opacity=".15" overflow="visible" transform="matrix(0.8660254,0.5,-0.5,0.8660254,7.4019238,3.0358984)" visibility="visible" style="marker:none"/><path id="path3759" fill="#000" fill-opacity="1" fill-rule="nonzero" stroke="none" stroke-width="1" d="m 8,3.5 a 0.5,0.5 0 1 1 -1,0 0.5,0.5 0 1 1 1,0 z" color="#000" display="inline" enable-background="accumulate" opacity=".15" overflow="visible" transform="matrix(0.8660254,0.5,-0.5,0.8660254,-0.89230485,-0.59807621)" visibility="visible" style="marker:none"/><path id="path3761" fill="#000" fill-opacity="1" fill-rule="nonzero" stroke="none" stroke-width="1" d="m 8,3.5 a 0.5,0.5 0 1 1 -1,0 0.5,0.5 0 1 1 1,0 z" color="#000" display="inline" enable-background="accumulate" opacity=".15" overflow="visible" transform="matrix(0.5,0.8660254,-0.8660254,0.5,10.928203,-2.9282032)" visibility="visible" style="marker:none"/><path id="path3763" fill="#000" fill-opacity="1" fill-rule="nonzero" stroke="none" stroke-width="1" d="m 8,3.5 a 0.5,0.5 0 1 1 -1,0 0.5,0.5 0 1 1 1,0 z" color="#000" display="inline" enable-background="accumulate" opacity=".15" overflow="visible" transform="matrix(0.5,0.8660254,-0.8660254,0.5,3.6339746,2.4378222)" visibility="visible" style="marker:none"/><path id="path3765" fill="#000" fill-opacity="1" fill-rule="nonzero" stroke="none" stroke-width="1" d="m 8,3.5 a 0.5,0.5 0 1 1 -1,0 0.5,0.5 0 1 1 1,0 z" color="#000" display="inline" enable-background="accumulate" opacity=".15" overflow="visible" transform="matrix(0.5,0.8660254,-0.8660254,0.5,9.9641016,3.4019238)" visibility="visible" style="marker:none"/><path id="path3767" fill="#000" fill-opacity="1" fill-rule="nonzero" stroke="none" stroke-width="1" d="m 8,3.5 a 0.5,0.5 0 1 1 -1,0 0.5,0.5 0 1 1 1,0 z" color="#000" display="inline" enable-background="accumulate" opacity=".15" overflow="visible" transform="matrix(0.5,0.8660254,-0.8660254,0.5,4.5980762,-3.8923048)" visibility="visible" style="marker:none"/><path id="path3975" fill="url(#linearGradient3983)" fill-opacity="1" fill-rule="nonzero" stroke="none" stroke-width="1.5" d="m 53,60 a 5,5 0 1 1 -10,0 5,5 0 1 1 10,0 z" color="#000" display="inline" enable-background="accumulate" opacity=".3" overflow="visible" transform="matrix(0,0.2,0.2,0,-4,0.4)" visibility="visible" style="marker:none"/></g></svg>