<svg xmlns="http://www.w3.org/2000/svg" xmlns:svg="http://www.w3.org/2000/svg" xmlns:xlink="http://www.w3.org/1999/xlink" id="svg2" width="16" height="16" version="1.0"><defs id="defs4"><linearGradient id="linearGradient6658"><stop id="stop6660" offset="0" stop-color="#000" stop-opacity="1"/><stop id="stop6662" offset="1" stop-color="#000" stop-opacity="0"/></linearGradient><filter id="filter3342" width="1.588" height="2.179" x="-.294" y="-.589"><feGaussianBlur id="feGaussianBlur3344" stdDeviation="2.203"/></filter><linearGradient id="linearGradient3257"><stop id="stop3259" offset="0" stop-color="#a50000" stop-opacity="1"/><stop id="stop3261" offset="1" stop-color="#e73800" stop-opacity="1"/></linearGradient><linearGradient id="linearGradient2423" x1="47.667" x2="47.667" y1="121.972" y2="5.949" gradientTransform="matrix(0.1175834,0,0,0.1175834,30.470873,0.4708749)" gradientUnits="userSpaceOnUse" xlink:href="#linearGradient3257"/><linearGradient id="linearGradient6664" x1="8" x2="8" y1="11.936" y2="-4.282" gradientUnits="userSpaceOnUse" xlink:href="#linearGradient6658"/><linearGradient id="linearGradient3766" x1="9.057" x2="9.057" y1="10.203" y2="-12.199" gradientTransform="translate(-0.499722,5.300655)" gradientUnits="userSpaceOnUse" xlink:href="#linearGradient3327"/><linearGradient id="linearGradient3327"><stop id="stop3330" offset="0" stop-color="#000" stop-opacity="1"/><stop id="stop3333" offset="1" stop-color="#000" stop-opacity="0"/></linearGradient><linearGradient id="linearGradient3759" x1="1" x2="15" y1="9" y2="9" gradientTransform="translate(-17,-2)" gradientUnits="userSpaceOnUse" xlink:href="#linearGradient3614-8"/><linearGradient id="linearGradient3614-8"><stop id="stop3616-4" offset="0" stop-color="#65a31b" stop-opacity="1"/><stop id="stop3618-3" offset="1" stop-color="#a0de42" stop-opacity="1"/></linearGradient><linearGradient id="linearGradient3737" x1="1" x2="15" y1="9" y2="9" gradientTransform="translate(-17,-2)" gradientUnits="userSpaceOnUse" xlink:href="#linearGradient3257"/></defs><metadata id="metadata7"/><g id="layer1"><rect id="rect2479" width="14" height="14" x="31" y="1" fill="url(#linearGradient2423)" fill-opacity="1" stroke="none" rx="2" ry="2"/><rect id="rect3196" width="16" height="16" x="-16" y="0" fill="url(#linearGradient3737)" fill-opacity="1" fill-rule="nonzero" stroke="none" display="inline" rx="2" ry="2" transform="matrix(0,-1,1,0,0,0)"/><path id="rect2410" fill="url(#linearGradient3766)" fill-opacity="1" fill-rule="nonzero" stroke="none" d="M 2,0 C 0.892,0 0,0.892 0,2 l 0,12 c 0,1.108 0.892,2 2,2 l 12,0 c 1.108,0 2,-0.892 2,-2 L 16,2 C 16,0.892 15.108,0 14,0 L 2,0 z m 0.5,1 11,0 C 14.331,1 15,1.669 15,2.5 l 0,11 c 0,0.831 -0.669,1.5 -1.5,1.5 l -11,0 C 1.669,15 1,14.331 1,13.5 L 1,2.5 C 1,1.669 1.669,1 2.5,1 z" display="inline" opacity=".35"/><path id="rect3770" fill="#fff" fill-opacity="1" stroke="none" d="M 2.5,1 C 1.669,1 1,1.669 1,2.5 l 0,1 C 1,2.669 1.669,2 2.5,2 l 11,0 C 14.331,2 15,2.669 15,3.5 l 0,-1 C 15,1.669 14.331,1 13.5,1 l -11,0 z" display="inline" opacity=".3"/></g><g id="layer5"><path id="path2655" fill="#000" fill-opacity="1" stroke="none" d="M 10.423077,4.0000002 8,6.4230769 5.5769232,4.0000002 3.5,6.076923 5.9230768,8.5 3.5,10.923077 5.5769232,13 8,10.576923 10.423077,13 12.5,10.923077 10.076923,8.5 12.5,6.076923 10.423077,4.0000002 z" display="inline" opacity=".6"/><path id="rect2498" fill="#fff" fill-opacity="1" stroke="none" d="M 10.423077,3.5000002 8,5.9230769 5.5769232,3.5000002 3.5,5.576923 5.9230768,8 3.5,10.423077 5.5769232,12.5 8,10.076923 10.423077,12.5 12.5,10.423077 10.076923,8 12.5,5.576923 10.423077,3.5000002 z" display="inline"/></g></svg>