<svg xmlns="http://www.w3.org/2000/svg" xmlns:svg="http://www.w3.org/2000/svg" xmlns:xlink="http://www.w3.org/1999/xlink" id="svg2" width="16" height="16" version="1.0"><defs id="defs4"><linearGradient id="StandardGradient" x1="7.19" x2="7.19" y1="6.955" y2="18.319" gradientTransform="scale(1.1467263,0.8720476)" gradientUnits="userSpaceOnUse"><stop id="stop3280" offset="0" stop-color="#000" stop-opacity=".863"/><stop id="stop3282" offset="1" stop-color="#000" stop-opacity=".471"/></linearGradient><linearGradient id="linearGradient3627" x1="7.19" x2="7.19" y1="6.955" y2="18.319" gradientTransform="matrix(1.1467263,0,0,0.8720476,-20,0)" gradientUnits="userSpaceOnUse" xlink:href="#StandardGradient"/><clipPath id="clipPath3634" clipPathUnits="userSpaceOnUse"><path id="path3636" fill="#f0f" fill-opacity="1" stroke="none" d="m -19.535739,2.999982 0,16 16.0000003,0 0,-16 -16.0000003,0 z m 12.0000003,3.0625 2.03125,0 0,4.625 c 0,1.550514 -1.261986,2.34375 -2.8125,2.34375 l -4.2187503,0 0,2.9375 -6,-3.96875 6,-4.09375 0,3.0625 3.0312503,0 c 1.792454,0 1.96875,-0.332819 1.96875,-2.1875 l 0,-2.71875 z" display="inline"/></clipPath><filter id="filter3642"><feGaussianBlur id="feGaussianBlur3644" stdDeviation=".344"/></filter><linearGradient id="linearGradient4993" x1="7.19" x2="7.19" y1="6.955" y2="18.319" gradientTransform="scale(1.1467263,0.8720476)" gradientUnits="userSpaceOnUse" xlink:href="#StandardGradient"/><linearGradient id="linearGradient4997" x1="7.19" x2="7.19" y1="6.955" y2="18.319" gradientTransform="matrix(1.1467263,0,0,0.8720476,-0.4642613,-2.999982)" gradientUnits="userSpaceOnUse" xlink:href="#StandardGradient"/></defs><metadata id="metadata7"/><g id="layer3" display="inline" transform="translate(-0.4642613,-2.999982)"><path id="path4995" fill="#fff" fill-opacity="1" stroke="none" d="M 11.90625 1.96875 A 1.0809704 1.0809704 0 0 0 10.90625 3.0625 L 10.90625 5.78125 C 10.90625 6.4081329 10.848024 6.7348773 10.84375 6.84375 C 10.717173 6.872111 10.445915 6.875 10.03125 6.875 L 8.09375 6.875 L 8.09375 4.90625 A 1.0809704 1.0809704 0 0 0 6.40625 4 L 0.40625 8.09375 A 1.0809704 1.0809704 0 0 0 0.40625 9.90625 L 6.40625 13.875 A 1.0809704 1.0809704 0 0 0 8.09375 12.96875 L 8.09375 11.125 L 11.21875 11.125 C 12.178328 11.125 13.12425 10.890509 13.875 10.3125 C 14.62575 9.734491 15.125 8.756 15.125 7.6875 L 15.125 3.0625 A 1.0809704 1.0809704 0 0 0 14.03125 1.96875 L 12 1.96875 A 1.0809704 1.0809704 0 0 0 11.90625 1.96875 z M 12 3.0625 L 14.03125 3.0625 L 14.03125 7.6875 C 14.03125 9.238014 12.769264 10.03125 11.21875 10.03125 L 7 10.03125 L 7 12.96875 L 1 9 L 7 4.90625 L 7 7.96875 L 10.03125 7.96875 C 11.823704 7.96875 12 7.635931 12 5.78125 L 12 3.0625 z" display="inline" opacity=".15" transform="translate(0.4642613,2.999982)"/><path id="Symbol" fill="url(#StandardGradient)" fill-opacity="1" stroke="none" stroke-dasharray="none" stroke-linecap="round" stroke-linejoin="miter" stroke-miterlimit="4" stroke-opacity="1" stroke-width="1" d="M 12.464261,6.0651908 L 12.464261,8.774395 C 12.464261,10.629076 12.281708,10.975028 10.489254,10.975028 L 7.4642613,10.975028 L 7.4642613,7.899782 L 1.4642613,11.999982 L 7.4642613,15.975028 L 7.4642613,13.028556 L 11.69675,13.028556 C 13.247264,13.028556 14.495512,12.249058 14.495512,10.698544 L 14.495512,6.0651908 L 12.464261,6.0651908 z" display="inline" opacity="1"/><path id="BevelShadow" fill="#000" fill-opacity="1" stroke="none" stroke-dasharray="none" stroke-linecap="round" stroke-linejoin="miter" stroke-miterlimit="4" stroke-opacity="1" stroke-width="1" d="M 12 3.0625 L 12 4.09375 L 14.03125 4.09375 L 14.03125 3.0625 L 12 3.0625 z M 7 4.90625 L 1 9 L 1.78125 9.5 L 7 5.9375 L 7 4.90625 z M 12 5.78125 C 12 7.6359309 11.823704 7.96875 10.03125 7.96875 L 7 7.96875 L 7 9 L 10.03125 9 C 11.823704 9 12 8.667181 12 6.8125 L 12 5.78125 z" display="inline" opacity=".5" transform="translate(0.4642613,2.999982)"/><path id="BevelHighlight" fill="#fff" fill-opacity="1" stroke="none" stroke-dasharray="none" stroke-linecap="round" stroke-linejoin="miter" stroke-miterlimit="4" stroke-opacity="1" stroke-width="1" d="M 14.03125 7.6875 C 14.03125 9.238014 12.769264 10.03125 11.21875 10.03125 L 7 10.03125 L 7 11.0625 L 11.21875 11.0625 C 12.769264 11.0625 14.03125 10.269264 14.03125 8.71875 L 14.03125 7.6875 z M 11.4375 7.78125 C 11.143944 7.9375588 10.70342 7.96875 10.03125 7.96875 C 10.70342 7.96875 11.142844 7.9398673 11.4375 7.78125 z M 1 9 L 1 10.03125 L 7 14 L 7 12.96875 L 1 9 z" display="inline" opacity=".3" transform="translate(0.4642613,2.999982)"/></g></svg>