<svg xmlns="http://www.w3.org/2000/svg" xmlns:svg="http://www.w3.org/2000/svg" xmlns:xlink="http://www.w3.org/1999/xlink" id="svg2" width="16" height="16" version="1.0"><defs id="defs4"><linearGradient id="StandardGradient" x1="6.471" x2="6.471" y1="7.649" y2="18.248" gradientTransform="scale(1.1389662,0.8779892)" gradientUnits="userSpaceOnUse"><stop id="stop3283" offset="0" stop-color="#000" stop-opacity=".863"/><stop id="stop3285" offset="1" stop-color="#000" stop-opacity=".471"/></linearGradient><linearGradient id="linearGradient3629" x1="6.471" x2="6.471" y1="7.649" y2="18.248" gradientTransform="matrix(1.1389662,0,0,0.8779892,-20,0)" gradientUnits="userSpaceOnUse" xlink:href="#StandardGradient"/><clipPath id="clipPath3636" clipPathUnits="userSpaceOnUse"><path id="path3638" fill="#f0f" fill-opacity="1" stroke="none" d="m -19.535739,2.999982 0,16 16.0000003,0 0,-16 -16.0000003,0 z m 12.0625003,3.71875 1.9375,1.9375 -7.3437503,7.3125 -4.65625,-4.625 1.9375,-1.9375 2.71875,2.6875 5.4062503,-5.375 z" display="inline"/></clipPath><filter id="filter3640"><feGaussianBlur id="feGaussianBlur3642" stdDeviation=".319"/></filter><linearGradient id="linearGradient4474" x1="6.471" x2="6.471" y1="7.649" y2="18.248" gradientTransform="scale(1.1389662,0.8779892)" gradientUnits="userSpaceOnUse" xlink:href="#StandardGradient"/><linearGradient id="linearGradient4478" x1="6.471" x2="6.471" y1="7.649" y2="18.248" gradientTransform="matrix(1.1389662,0,0,0.8779892,-0.4642613,-2.999982)" gradientUnits="userSpaceOnUse" xlink:href="#StandardGradient"/></defs><metadata id="metadata7"/><g id="layer3" display="inline" transform="translate(-0.4642613,-2.999982)"><path id="path4476" fill="#fff" fill-opacity="1" stroke="none" d="M 11.96875 2.6875 A 1.0185309 1.0185309 0 0 0 11.34375 3 L 6.65625 7.65625 L 4.65625 5.6875 A 1.0185309 1.0185309 0 0 0 3.21875 5.6875 L 1.28125 7.625 A 1.0185309 1.0185309 0 0 0 1.28125 9.0625 L 5.9375 13.6875 A 1.0185309 1.0185309 0 0 0 7.375 13.6875 L 14.71875 6.375 A 1.0185309 1.0185309 0 0 0 14.71875 4.9375 L 12.78125 3 A 1.0185309 1.0185309 0 0 0 12.0625 2.6875 A 1.0185309 1.0185309 0 0 0 11.96875 2.6875 z M 12.0625 3.71875 L 14 5.65625 L 6.65625 12.96875 L 2 8.34375 L 3.9375 6.40625 L 6.65625 9.09375 L 12.0625 3.71875 z" opacity=".15" transform="translate(0.4642613,2.999982)"/><path id="Symbol" fill="url(#StandardGradient)" fill-opacity="1" stroke="none" stroke-dasharray="none" stroke-linecap="round" stroke-linejoin="miter" stroke-miterlimit="4" stroke-opacity="1" stroke-width="1" d="M 12.535632,6.7158506 L 7.1186245,12.104233 L 4.4082528,9.4100469 L 2.4642613,11.3451 L 7.1148866,15.978071 L 7.1186245,15.974353 L 7.1223634,15.978071 L 14.479622,8.6509032 L 12.535632,6.7158506 z" opacity="1"/><path id="BevelShadow" fill="#000" fill-opacity="1" stroke="none" stroke-dasharray="none" stroke-linecap="round" stroke-linejoin="miter" stroke-miterlimit="4" stroke-opacity="1" stroke-width="1" d="M 12.0625 3.71875 L 6.65625 9.09375 L 3.9375 6.40625 L 2 8.34375 L 2.53125 8.84375 L 3.9375 7.4375 L 6.65625 10.125 L 12.0625 4.75 L 13.46875 6.15625 L 14 5.65625 L 12.0625 3.71875 z" opacity=".5" transform="translate(0.4642613,2.999982)"/><path id="BevelHighlight" fill="#fff" fill-opacity="1" stroke="none" stroke-dasharray="none" stroke-linecap="round" stroke-linejoin="miter" stroke-miterlimit="4" stroke-opacity="1" stroke-width="1" d="M 14 5.65625 L 6.65625 12.96875 L 2 8.34375 L 2 9.375 L 6.65625 14 L 14 6.6875 L 14 5.65625 z" opacity=".3" transform="translate(0.4642613,2.999982)"/></g></svg>