<svg xmlns="http://www.w3.org/2000/svg" xmlns:svg="http://www.w3.org/2000/svg" xmlns:xlink="http://www.w3.org/1999/xlink" id="svg2" width="16" height="16" display="inline" version="1.0"><defs id="defs4"><linearGradient id="StandardGradient" x1="11.999" x2="11.999" y1=".922" y2="19.387" gradientTransform="scale(0.9219544,1.0846523)" gradientUnits="userSpaceOnUse"><stop id="stop3283" offset="0" stop-color="#000" stop-opacity=".863"/><stop id="stop2651" offset="1" stop-color="#000" stop-opacity=".471"/></linearGradient><linearGradient id="linearGradient2549" x1="11.999" x2="11.999" y1=".922" y2="17.478" gradientTransform="matrix(0.9247229,0,0,1.0872097,-2.0600562,0.9976422)" gradientUnits="userSpaceOnUse" xlink:href="#StandardGradient"/><linearGradient id="linearGradient2418" x1="11.999" x2="11.999" y1=".922" y2="17.478" gradientTransform="matrix(0.9247229,0,0,1.0872097,-4.0600562,-3.0023583)" gradientUnits="userSpaceOnUse" xlink:href="#StandardGradient"/><linearGradient id="linearGradient2422" x1="11.999" x2="11.999" y1=".922" y2="17.478" gradientTransform="matrix(0.9247229,0,0,1.0872097,-5.0600562,-1.0023583)" gradientUnits="userSpaceOnUse" xlink:href="#StandardGradient"/><linearGradient id="linearGradient2403" x1="11.999" x2="11.999" y1=".922" y2="17.478" gradientTransform="matrix(0.9247229,0,0,1.0872097,-4.0600562,-3.0023583)" gradientUnits="userSpaceOnUse" xlink:href="#StandardGradient"/><linearGradient id="linearGradient2406" x1="11.999" x2="11.999" y1=".922" y2="17.478" gradientTransform="matrix(0.9247229,0,0,1.0872097,-4.0600562,-3.0023583)" gradientUnits="userSpaceOnUse" xlink:href="#StandardGradient"/><linearGradient id="linearGradient2409" x1="11.999" x2="11.999" y1="3.68" y2="15.639" gradientTransform="matrix(0.9247229,0,0,1.0872097,-5.0600562,-3.0023583)" gradientUnits="userSpaceOnUse" xlink:href="#StandardGradient"/><linearGradient id="linearGradient2407" x1="11.999" x2="11.999" y1="3.68" y2="15.639" gradientTransform="matrix(0.9247229,0,0,1.0872097,-6.0600562,-2.0023583)" gradientUnits="userSpaceOnUse" xlink:href="#StandardGradient"/><linearGradient id="linearGradient3634" x1="11.999" x2="11.999" y1="3.68" y2="15.639" gradientTransform="matrix(0.9247229,0,0,1.0872097,-26.060056,-2.0023583)" gradientUnits="userSpaceOnUse" xlink:href="#StandardGradient"/><clipPath id="clipPath3641" clipPathUnits="userSpaceOnUse"><path id="path3643" fill="#f0f" fill-opacity="1" stroke="none" d="m -20,0 0,16 16,0 0,-16 -16,0 z m 4.5,1 7,0 C -7.669,1 -7,1.669 -7,2.5 l 0,9 c 0,0.831 -0.669,1.5 -1.5,1.5 l -3.5,0 0,-2 2.5,0 c 0.277,0 0.5,-0.223 0.5,-0.5 l 0,-7 C -9,3.223 -9.223,3 -9.5,3 l -5,0 C -14.777,3 -15,3.223 -15,3.5 l 0,4.5 -2,0 0,-5.5 C -17,1.669 -16.331,1 -15.5,1 z m -1.5,8 2,0 0,2 2,0 0,2 -2,0 0,2 -2,0 0,-2 -2,0 0,-2 2,0 0,-2 z" display="inline"/></clipPath><filter id="filter3645"><feGaussianBlur id="feGaussianBlur3647" stdDeviation=".39"/></filter><linearGradient id="linearGradient3955" x1="11.999" x2="11.999" y1="3.68" y2="15.639" gradientTransform="matrix(0.9247229,0,0,1.0872097,-6.0600562,-2.0023583)" gradientUnits="userSpaceOnUse" xlink:href="#StandardGradient"/><linearGradient id="linearGradient3959" x1="11.999" x2="11.999" y1="3.68" y2="15.639" gradientTransform="matrix(0.9247229,0,0,1.0872097,-6.0600562,-2.0023583)" gradientUnits="userSpaceOnUse" xlink:href="#StandardGradient"/></defs><metadata id="metadata7"/><g id="layer1" display="inline"><path id="path3957" fill="#fff" fill-opacity="1" stroke="none" d="M 4.5 0.03125 C 3.1463819 0.03125 2.03125 1.1463819 2.03125 2.5 L 2.03125 8 A 0.97385434 0.97385434 0 0 0 2.15625 8.5 A 0.97385434 0.97385434 0 0 0 2.03125 9 L 2.03125 10.03125 L 1 10.03125 A 0.97385434 0.97385434 0 0 0 0.03125 11 L 0.03125 13 A 0.97385434 0.97385434 0 0 0 1 13.96875 L 2.03125 13.96875 L 2.03125 15 A 0.97385434 0.97385434 0 0 0 3 15.96875 L 5 15.96875 A 0.97385434 0.97385434 0 0 0 5.96875 15 L 5.96875 13.96875 L 7 13.96875 A 0.97385434 0.97385434 0 0 0 7.46875 13.84375 A 0.97385434 0.97385434 0 0 0 7.5 13.84375 A 0.97385434 0.97385434 0 0 0 8 13.96875 L 11.5 13.96875 C 12.853618 13.96875 13.96875 12.853618 13.96875 11.5 L 13.96875 2.5 C 13.96875 1.1463819 12.853618 0.03125 11.5 0.03125 L 4.5 0.03125 z M 4.5 1 L 11.5 1 C 12.331 1 13 1.669 13 2.5 L 13 11.5 C 13 12.331 12.331 13 11.5 13 L 8 13 L 8 11 L 10.5 11 C 10.777 11 11 10.777 11 10.5 L 11 3.5 C 11 3.223 10.777 3 10.5 3 L 5.5 3 C 5.223 3 5 3.223 5 3.5 L 5 8 L 3 8 L 3 2.5 C 3 1.669 3.669 1 4.5 1 z M 5.96875 3.96875 L 10.03125 3.96875 L 10.03125 10.03125 L 8 10.03125 A 0.97385434 0.97385434 0 0 0 7.5 10.15625 A 0.97385434 0.97385434 0 0 0 7 10.03125 L 5.96875 10.03125 L 5.96875 9 A 0.97385434 0.97385434 0 0 0 5.84375 8.53125 A 0.97385434 0.97385434 0 0 0 5.84375 8.5 A 0.97385434 0.97385434 0 0 0 5.96875 8 L 5.96875 3.96875 z M 3 9 L 5 9 L 5 11 L 7 11 L 7 13 L 5 13 L 5 15 L 3 15 L 3 13 L 1 13 L 1 11 L 3 11 L 3 9 z" display="inline" opacity=".15"/><path id="Symbol" fill="url(#linearGradient2407)" fill-opacity="1" stroke="none" stroke-dasharray="none" stroke-linecap="round" stroke-linejoin="miter" stroke-miterlimit="4" stroke-opacity="1" stroke-width="1" d="M 4.5,1 C 3.669,1 3,1.669 3,2.5 L 3,8 L 5,8 L 5,3.5 C 5,3.223 5.223,3 5.5,3 L 10.5,3 C 10.777,3 11,3.223 11,3.5 L 11,10.5 C 11,10.777 10.777,11 10.5,11 L 8,11 L 8,13 L 11.5,13 C 12.331,13 13,12.331 13,11.5 L 13,2.5 C 13,1.669 12.331,1 11.5,1 L 4.5,1 z M 3,9 L 3,11 L 1,11 L 1,13 L 3,13 L 3,15 L 5,15 L 5,13 L 7,13 L 7,11 L 5,11 L 5,9 L 3,9 z" display="inline"/><path id="BevelShadow" fill="#000" fill-opacity="1" stroke="none" stroke-dasharray="none" stroke-linecap="round" stroke-linejoin="miter" stroke-miterlimit="4" stroke-opacity="1" stroke-width="1" d="M 4.5,1 C 3.669,1 3,1.669 3,2.5 L 3,3.5 C 3,2.669 3.669,2 4.5,2 L 11.5,2 C 12.331,2 13,2.669 13,3.5 L 13,2.5 C 13,1.669 12.331,1 11.5,1 L 4.5,1 z M 3,9 L 3,10 L 5,10 L 5,9 L 3,9 z M 11,10.5 C 11,10.777 10.777,11 10.5,11 L 8,11 L 8,12 L 10.5,12 C 10.777,12 11,11.777 11,11.5 L 11,10.5 z M 1,11 L 1,12 L 3,12 L 3,11 L 1,11 z M 5,11 L 5,12 L 7,12 L 7,11 L 5,11 z" display="inline" opacity=".5"/><path id="BevelHighlight" fill="#fff" fill-opacity="1" stroke="none" stroke-dasharray="none" stroke-linecap="round" stroke-linejoin="miter" stroke-miterlimit="4" stroke-opacity="1" stroke-width="1" d="M 5.5,3 C 5.223,3 5,3.223 5,3.5 L 5,4.5 C 5,4.223 5.223,4 5.5,4 L 10.5,4 C 10.777,4 11,4.223 11,4.5 L 11,3.5 C 11,3.223 10.777,3 10.5,3 L 5.5,3 z M 3,8 L 3,9 L 5,9 L 5,8 L 3,8 z M 13,11.5 C 13,12.331 12.331,13 11.5,13 L 8,13 L 8,14 L 11.5,14 C 12.331,14 13,13.331 13,12.5 L 13,11.5 z M 1,13 L 1,14 L 3,14 L 3,13 L 1,13 z M 5,13 L 5,14 L 7,14 L 7,13 L 5,13 z M 3,15 L 3,16 L 5,16 L 5,15 L 3,15 z" display="inline" opacity=".3"/></g></svg>