<svg xmlns="http://www.w3.org/2000/svg" xmlns:svg="http://www.w3.org/2000/svg" xmlns:xlink="http://www.w3.org/1999/xlink" id="svg2" width="16" height="16" display="inline" version="1.0"><defs id="defs4"><linearGradient id="StandardGradient" x1="11.999" x2="11.999" y1=".922" y2="19.387" gradientTransform="scale(0.9219544,1.0846523)" gradientUnits="userSpaceOnUse"><stop id="stop3283" offset="0" stop-color="#000" stop-opacity=".863"/><stop id="stop2651" offset="1" stop-color="#000" stop-opacity=".471"/></linearGradient><linearGradient id="linearGradient2549" x1="11.999" x2="11.999" y1=".922" y2="17.478" gradientTransform="matrix(0.9247229,0,0,1.0872097,-2.0600562,0.9976422)" gradientUnits="userSpaceOnUse" xlink:href="#StandardGradient"/><linearGradient id="linearGradient2418" x1="11.999" x2="11.999" y1=".922" y2="17.478" gradientTransform="matrix(0.9247229,0,0,1.0872097,-4.0600562,-3.0023583)" gradientUnits="userSpaceOnUse" xlink:href="#StandardGradient"/><linearGradient id="linearGradient2422" x1="11.999" x2="11.999" y1=".922" y2="17.478" gradientTransform="matrix(0.9247229,0,0,1.0872097,-5.0600562,-1.0023583)" gradientUnits="userSpaceOnUse" xlink:href="#StandardGradient"/><linearGradient id="linearGradient2403" x1="11.999" x2="11.999" y1=".922" y2="17.478" gradientTransform="matrix(0.9247229,0,0,1.0872097,-4.0600562,-3.0023583)" gradientUnits="userSpaceOnUse" xlink:href="#StandardGradient"/><linearGradient id="linearGradient2406" x1="11.999" x2="11.999" y1=".922" y2="17.478" gradientTransform="matrix(0.9247229,0,0,1.0872097,-4.0600562,-3.0023583)" gradientUnits="userSpaceOnUse" xlink:href="#StandardGradient"/><linearGradient id="linearGradient2409" x1="11.999" x2="11.999" y1="3.68" y2="15.639" gradientTransform="matrix(0.9247229,0,0,1.0872097,-5.0600562,-3.0023583)" gradientUnits="userSpaceOnUse" xlink:href="#StandardGradient"/><linearGradient id="linearGradient2407" x1="11.999" x2="11.999" y1="3.68" y2="15.639" gradientTransform="matrix(0.9247229,0,0,1.0872097,-6.0600562,-2.0023583)" gradientUnits="userSpaceOnUse" xlink:href="#StandardGradient"/><linearGradient id="linearGradient2400" x1="11.999" x2="11.999" y1="3.68" y2="15.639" gradientTransform="matrix(-0.9247229,0,0,1.0872097,22.060056,-2.0023583)" gradientUnits="userSpaceOnUse" xlink:href="#StandardGradient"/><linearGradient id="linearGradient2404" x1="11.999" x2="11.999" y1="3.68" y2="15.639" gradientTransform="matrix(0.9247229,0,0,1.0872097,-8.0600562,-3.0023583)" gradientUnits="userSpaceOnUse" xlink:href="#StandardGradient"/><linearGradient id="linearGradient2421" x1="11.999" x2="11.999" y1="3.68" y2="15.639" gradientTransform="matrix(0.9247229,0,0,1.0872097,-8.0600562,-2.0023583)" gradientUnits="userSpaceOnUse" xlink:href="#StandardGradient"/><linearGradient id="linearGradient2423" x1="11.999" x2="11.999" y1="3.68" y2="15.639" gradientTransform="matrix(0.9247229,0,0,1.0872097,-8.0600562,-3.0023583)" gradientUnits="userSpaceOnUse" xlink:href="#StandardGradient"/><linearGradient id="linearGradient3638" x1="11.999" x2="11.999" y1="3.68" y2="15.639" gradientTransform="matrix(0.9247229,0,0,1.0872097,-28.060056,-3.0023583)" gradientUnits="userSpaceOnUse" xlink:href="#StandardGradient"/><linearGradient id="linearGradient3642" x1="11.999" x2="11.999" y1="3.68" y2="15.639" gradientTransform="matrix(0.9247229,0,0,1.0872097,-28.060056,-3.0023583)" gradientUnits="userSpaceOnUse" xlink:href="#StandardGradient"/><clipPath id="clipPath3649" clipPathUnits="userSpaceOnUse"><path id="path3651" fill="#f0f" fill-opacity="1" stroke="none" d="m -20,0 0,16 16,0 0,-4 -3.5,3 -3.5,-3 2,0 0,-3 3,0 0,3 2,0 0,-12 -16,0 z m 2.5,1 6,0 c 0.831,0 1.5,0.669 1.5,1.5 l 0,7 c 0,0.831 -0.669,1.5 -1.5,1.5 l -2.5,0 -3.5,0 C -18.331,11 -19,10.331 -19,9.5 l 0,-7 C -19,1.669 -18.331,1 -17.5,1 z m 1,2 C -16.777,3 -17,3.223 -17,3.5 l 0,5 c 0,0.277 0.223,0.5 0.5,0.5 l 2.5,0 1.5,0 c 0.277,0 0.5,-0.223 0.5,-0.5 l 0,-5 C -12,3.223 -12.223,3 -12.5,3 l -4,0 z m 7.5,1 3,0 0,1 -3,0 0,-1 z m 0,2 3,0 0,2 -3,0 0,-2 z" display="inline"/></clipPath><filter id="filter3653"><feGaussianBlur id="feGaussianBlur3655" stdDeviation=".435"/></filter><linearGradient id="linearGradient3195" x1="11.999" x2="11.999" y1="3.68" y2="15.639" gradientTransform="matrix(0.9247229,0,0,1.0872097,-8.0600562,-3.0023583)" gradientUnits="userSpaceOnUse" xlink:href="#StandardGradient"/><linearGradient id="linearGradient3199" x1="11.999" x2="11.999" y1="3.68" y2="15.639" gradientTransform="matrix(0.9247229,0,0,1.0872097,-8.0600562,-3.0023583)" gradientUnits="userSpaceOnUse" xlink:href="#StandardGradient"/></defs><metadata id="metadata7"/><g id="layer1" display="inline"><path id="path3197" fill="#fff" fill-opacity="1" stroke="none" d="M 2.5 -0.03125 C 1.1173918 -0.03125 -0.03125 1.1173918 -0.03125 2.5 L -0.03125 9.5 C -0.03125 10.882608 1.1173918 12.03125 2.5 12.03125 L 6 12.03125 L 7.96875 12.03125 A 1.0278751 1.0278751 0 0 0 8.34375 12.78125 L 11.84375 15.78125 A 1.0278751 1.0278751 0 0 0 13.15625 15.78125 L 16.65625 12.78125 A 1.0278751 1.0278751 0 0 0 16 10.96875 L 15.03125 10.96875 L 15.03125 9 A 1.0278751 1.0278751 0 0 0 14.90625 8.5 A 1.0278751 1.0278751 0 0 0 14.90625 8.46875 A 1.0278751 1.0278751 0 0 0 15.03125 8 L 15.03125 6 A 1.0278751 1.0278751 0 0 0 14.90625 5.5 A 1.0278751 1.0278751 0 0 0 14.90625 5.46875 A 1.0278751 1.0278751 0 0 0 15.03125 5 L 15.03125 4 A 1.0278751 1.0278751 0 0 0 14 2.96875 L 11.03125 2.96875 L 11.03125 2.5 C 11.03125 1.1173918 9.8826082 -0.03125 8.5 -0.03125 L 2.5 -0.03125 z M 2.5 1 L 8.5 1 C 9.331 1 10 1.669 10 2.5 L 10 9.5 C 10 10.331 9.331 11 8.5 11 L 6 11 L 2.5 11 C 1.669 11 1 10.331 1 9.5 L 1 2.5 C 1 1.669 1.669 1 2.5 1 z M 3.5 3 C 3.223 3 3 3.223 3 3.5 L 3 8.5 C 3 8.777 3.223 9 3.5 9 L 6 9 L 7.5 9 C 7.777 9 8 8.777 8 8.5 L 8 3.5 C 8 3.223 7.777 3 7.5 3 L 3.5 3 z M 11 4 L 14 4 L 14 5 L 11 5 L 11 4 z M 4.03125 4.03125 L 6.96875 4.03125 L 6.96875 7.96875 L 6 7.96875 L 4.03125 7.96875 L 4.03125 4.03125 z M 11 6 L 14 6 L 14 8 L 11 8 L 11 6 z M 11 9 L 14 9 L 14 12 L 16 12 L 12.5 15 L 9 12 L 11 12 L 11 9 z" display="inline" opacity=".15"/><path id="Symbol" fill="url(#linearGradient2404)" fill-opacity="1" stroke="none" stroke-dasharray="none" stroke-linecap="round" stroke-linejoin="miter" stroke-miterlimit="4" stroke-opacity="1" stroke-width="1" d="M 2.5,1 C 1.669,1 1,1.669 1,2.5 l 0,7 C 1,10.331 1.669,11 2.5,11 L 6,11 8.5,11 C 9.331,11 10,10.331 10,9.5 l 0,-7 C 10,1.669 9.331,1 8.5,1 l -6,0 z m 1,2 4,0 C 7.777,3 8,3.223 8,3.5 l 0,5 C 8,8.777 7.777,9 7.5,9 L 6,9 3.5,9 C 3.223,9 3,8.777 3,8.5 l 0,-5 C 3,3.223 3.223,3 3.5,3 z m 7.5,1 0,1 3,0 0,-1 -3,0 z m 0,2 0,2 3,0 0,-2 -3,0 z m 0,3 0,3 -2,0 3.5,3 3.5,-3 -2,0 0,-3 -3,0 z" display="inline"/><path id="BevelShadow" fill="#000" fill-opacity="1" stroke="none" stroke-dasharray="none" stroke-linecap="round" stroke-linejoin="miter" stroke-miterlimit="4" stroke-opacity="1" stroke-width="1" d="M 2.5,1 C 1.669,1 1,1.669 1,2.5 l 0,1 C 1,2.669 1.669,2 2.5,2 l 6,0 C 9.331,2 10,2.669 10,3.5 l 0,-1 C 10,1.669 9.331,1 8.5,1 l -6,0 z m 8.5,3 0,1 3,0 0,-1 -3,0 z m 0,2 0,1 3,0 0,-1 -3,0 z m -8,2.5 0,1 C 3,9.777 3.223,10 3.5,10 L 6,10 7.5,10 C 7.777,10 8,9.777 8,9.5 l 0,-1 C 8,8.777 7.777,9 7.5,9 L 6,9 3.5,9 C 3.223,9 3,8.777 3,8.5 z m 8,0.5 0,1 3,0 0,-1 -3,0 z M 9,12 10.15625,13 11,13 11,12 9,12 z m 5,0 0,1 0.84375,0 L 16,12 14,12 z" display="inline" opacity=".5"/><path id="BevelHighlight" fill="#fff" fill-opacity="1" stroke="none" stroke-dasharray="none" stroke-linecap="round" stroke-linejoin="miter" stroke-miterlimit="4" stroke-opacity="1" stroke-width="1" d="M 3.5,3 C 3.223,3 3,3.223 3,3.5 l 0,1 C 3,4.223 3.223,4 3.5,4 l 4,0 C 7.777,4 8,4.223 8,4.5 l 0,-1 C 8,3.223 7.777,3 7.5,3 l -4,0 z m 7.5,2 0,1 3,0 0,-1 -3,0 z m 0,3 0,1 3,0 0,-1 -3,0 z m -10,1.5 0,1 C 1,11.331 1.669,12 2.5,12 L 6,12 8.5,12 C 9.331,12 10,11.331 10,10.5 l 0,-1 C 10,10.331 9.331,11 8.5,11 L 6,11 2.5,11 C 1.669,11 1,10.331 1,9.5 z m 8,2.5 0,1 3.5,3 3.5,-3 0,-1 -3.5,3 L 9,12 z" display="inline" opacity=".3"/></g></svg>