<svg xmlns="http://www.w3.org/2000/svg" xmlns:svg="http://www.w3.org/2000/svg" xmlns:xlink="http://www.w3.org/1999/xlink" id="svg2" width="16" height="16" display="inline" version="1.0"><defs id="defs4"><linearGradient id="linearGradient2428" x1="11.999" x2="11.999" y1="3.681" y2="16.53" gradientTransform="matrix(0.9247229,0,0,1.0872097,10.939944,-2.0023588)" gradientUnits="userSpaceOnUse" xlink:href="#StandardGradient"/><linearGradient id="StandardGradient" x1="11.999" x2="11.999" y1=".922" y2="19.387" gradientTransform="scale(0.9219544,1.0846523)" gradientUnits="userSpaceOnUse"><stop id="stop3283" offset="0" stop-color="#000" stop-opacity=".863"/><stop id="stop2651" offset="1" stop-color="#000" stop-opacity=".471"/></linearGradient><linearGradient id="linearGradient2549" x1="11.999" x2="11.999" y1=".922" y2="17.478" gradientTransform="matrix(0.9247229,0,0,1.0872097,-2.0600562,0.9976422)" gradientUnits="userSpaceOnUse" xlink:href="#StandardGradient"/><linearGradient id="linearGradient2418" x1="11.999" x2="11.999" y1=".922" y2="17.478" gradientTransform="matrix(0.9247229,0,0,1.0872097,-4.0600562,-3.0023583)" gradientUnits="userSpaceOnUse" xlink:href="#StandardGradient"/><linearGradient id="linearGradient2422" x1="11.999" x2="11.999" y1=".922" y2="17.478" gradientTransform="matrix(0.9247229,0,0,1.0872097,-5.0600562,-1.0023583)" gradientUnits="userSpaceOnUse" xlink:href="#StandardGradient"/><linearGradient id="linearGradient2403" x1="11.999" x2="11.999" y1=".922" y2="17.478" gradientTransform="matrix(0.9247229,0,0,1.0872097,-4.0600562,-3.0023583)" gradientUnits="userSpaceOnUse" xlink:href="#StandardGradient"/><linearGradient id="linearGradient2406" x1="11.999" x2="11.999" y1=".922" y2="17.478" gradientTransform="matrix(0.9247229,0,0,1.0872097,-4.0600562,-3.0023583)" gradientUnits="userSpaceOnUse" xlink:href="#StandardGradient"/><linearGradient id="linearGradient2409" x1="11.999" x2="11.999" y1="3.68" y2="15.639" gradientTransform="matrix(0.9247229,0,0,1.0872097,-6.0600562,-2.0023583)" gradientUnits="userSpaceOnUse" xlink:href="#StandardGradient"/><linearGradient id="linearGradient2416" x1="11.999" x2="11.999" y1="2.762" y2="15.639" gradientTransform="matrix(0.9247229,0,0,1.0872097,-6.0600562,-2.0023583)" gradientUnits="userSpaceOnUse" xlink:href="#StandardGradient"/><linearGradient id="linearGradient2529" x1="11.999" x2="11.999" y1="3.681" y2="16.53" gradientTransform="matrix(0.9247229,0,0,1.0872097,-4.0418814,0.9976412)" gradientUnits="userSpaceOnUse" xlink:href="#StandardGradient"/><linearGradient id="linearGradient2539" x1="11.999" x2="11.999" y1="2.762" y2="15.639" gradientTransform="matrix(0.9247229,0,0,1.0872097,-6.0600562,-2.0023583)" gradientUnits="userSpaceOnUse" xlink:href="#StandardGradient"/><linearGradient id="linearGradient2542" x1="11.999" x2="11.999" y1="2.762" y2="15.639" gradientTransform="matrix(0.9247229,0,0,1.0872097,-6.0600562,-2.0023583)" gradientUnits="userSpaceOnUse" xlink:href="#StandardGradient"/><linearGradient id="linearGradient2412" x1="11.999" x2="11.999" y1="2.762" y2="15.639" gradientTransform="matrix(0.9247229,0,0,1.0872097,-6.0600562,-2.0023583)" gradientUnits="userSpaceOnUse" xlink:href="#StandardGradient"/><linearGradient id="linearGradient2423" x1="11.999" x2="11.999" y1="2.762" y2="15.639" gradientTransform="matrix(0.9247229,0,0,1.0872097,-6.0600562,-2.0023583)" gradientUnits="userSpaceOnUse" xlink:href="#StandardGradient"/><linearGradient id="linearGradient2942" x1="11.999" x2="11.999" y1="2.762" y2="15.639" gradientTransform="matrix(0.9247229,0,0,1.0872097,-26.060056,-2.0023583)" gradientUnits="userSpaceOnUse" xlink:href="#StandardGradient"/><clipPath id="clipPath2949" clipPathUnits="userSpaceOnUse"><path id="path2951" fill="#f0f" fill-opacity="1" stroke="none" d="m -20,0 0,16 16,0 0,-16 -16,0 z m 3,1 3,0 c 0.554,0 1,0.446 1,1 l 6,0 c 0.554,0 1,0.446 1,1 l -12,0 0,-1 c 0,-0.554 0.446,-1 1,-1 z m -0.5,3 4,0 6,0 1,0 C -5.669,4 -5,4.669 -5,5.5 l 0,4.5 0,1.5 c 0,0.647488 -0.396277,1.195291 -0.96875,1.40625 l 0,0.15625 -0.03125,0 0,0.4375 c 0,0.831 -0.669,1.5 -1.5,1.5 l -6,0 c -0.831,0 -1.5,-0.669 -1.5,-1.5 l 0,-0.5 -2.5,0 c -0.831,0 -1.5,-0.669 -1.5,-1.5 l 0,-1.5 0,-4.5 C -19,4.669 -18.331,4 -17.5,4 z m 5,2 C -12.777,6 -13,6.223 -13,6.5 l 0,6 c 0,0.277 0.223,0.5 0.5,0.5 l 4,0 c 0.277,0 0.5,-0.223 0.5,-0.5 l 0,-6 C -8,6.223 -8.223,6 -8.5,6 l -4,0 z" display="inline"/></clipPath><linearGradient id="linearGradient5012" x1="11.999" x2="11.999" y1="2.762" y2="15.639" gradientTransform="matrix(0.9247229,0,0,1.0872097,-6.0600562,-2.0023583)" gradientUnits="userSpaceOnUse" xlink:href="#StandardGradient"/><linearGradient id="linearGradient5016" x1="11.999" x2="11.999" y1="2.762" y2="15.639" gradientTransform="matrix(0.9247229,0,0,1.0872097,-6.0600562,-2.0023583)" gradientUnits="userSpaceOnUse" xlink:href="#StandardGradient"/><linearGradient id="linearGradient3176" x1="11.999" x2="11.999" y1="2.762" y2="15.639" gradientTransform="matrix(0.9247229,0,0,1.0872097,-6.0600562,-2.0023583)" gradientUnits="userSpaceOnUse" xlink:href="#StandardGradient"/><linearGradient id="linearGradient3180" x1="11.999" x2="11.999" y1="2.762" y2="15.639" gradientTransform="matrix(0.9247229,0,0,1.0872097,-6.0600562,-2.0023583)" gradientUnits="userSpaceOnUse" xlink:href="#StandardGradient"/></defs><metadata id="metadata7"/><g id="layer1" display="inline"><path id="path3178" fill="#fff" fill-opacity="1" stroke="none" d="M 3 0 C 1.9038337 0 1 0.90383373 1 2 L 1 3 A 1.0102808 1.0102808 0 0 0 1.15625 3.53125 A 1.0102808 1.0102808 0 0 0 1.15625 3.5625 C 0.49533378 4.0173981 0 4.6474956 0 5.5 L 0 10 L 0 11.5 C 0 12.873166 1.1268337 14 2.5 14 L 4.1875 14 C 4.4446128 15.110857 5.3176522 16 6.5 16 L 12.5 16 C 13.873166 16 15 14.873166 15 13.5 L 15 13.375 L 15 13.34375 C 15.569389 12.879006 16 12.275845 16 11.5 L 16 10 L 16 5.5 C 16 4.6433158 15.510096 3.9853521 14.84375 3.53125 A 1.0102808 1.0102808 0 0 0 15 3 C 15 1.9038337 14.096166 1 13 1 L 7.5625 1 C 7.2027102 0.43949203 6.7042845 0 6 0 L 3 0 z M 3 1 L 6 1 C 6.554 1 7 1.446 7 2 L 13 2 C 13.554 2 14 2.446 14 3 L 2 3 L 2 2 C 2 1.446 2.446 1 3 1 z M 2.5 4 L 6.5 4 L 12.5 4 L 13.5 4 C 14.331 4 15 4.669 15 5.5 L 15 10 L 15 11.5 C 15 12.147488 14.603723 12.695291 14.03125 12.90625 L 14.03125 13.0625 L 14 13.0625 L 14 13.5 C 14 14.331 13.331 15 12.5 15 L 6.5 15 C 5.669 15 5 14.331 5 13.5 L 5 13 L 2.5 13 C 1.669 13 1 12.331 1 11.5 L 1 10 L 1 5.5 C 1 4.669 1.669 4 2.5 4 z M 7.5 6 C 7.223 6 7 6.223 7 6.5 L 7 12.5 C 7 12.777 7.223 13 7.5 13 L 11.5 13 C 11.777 13 12 12.777 12 12.5 L 12 6.5 C 12 6.223 11.777 6 11.5 6 L 7.5 6 z M 8 7 L 11 7 L 11 12 L 8 12 L 8 7 z" display="inline" opacity=".15"/><path id="Symbol" fill="url(#linearGradient2423)" fill-opacity="1" stroke="none" stroke-dasharray="none" stroke-linecap="round" stroke-linejoin="miter" stroke-miterlimit="4" stroke-opacity="1" stroke-width="1" d="M 3 1 C 2.446 1 2 1.446 2 2 L 2 3 L 14 3 C 14 2.446 13.554 2 13 2 L 7 2 C 7 1.446 6.554 1 6 1 L 3 1 z M 2.5 4 C 1.669 4 1 4.669 1 5.5 L 1 10 L 1 11.5 C 1 12.331 1.669 13 2.5 13 L 5 13 L 5 13.5 C 5 14.331 5.669 15 6.5 15 L 12.5 15 C 13.331 15 14 14.331 14 13.5 L 14 13.0625 L 14.03125 13.0625 L 14.03125 12.90625 C 14.603723 12.695291 15 12.147488 15 11.5 L 15 10 L 15 5.5 C 15 4.669 14.331 4 13.5 4 L 12.5 4 L 6.5 4 L 2.5 4 z M 7.5 6 L 11.5 6 C 11.777 6 12 6.223 12 6.5 L 12 12.5 C 12 12.777 11.777 13 11.5 13 L 7.5 13 C 7.223 13 7 12.777 7 12.5 L 7 6.5 C 7 6.223 7.223 6 7.5 6 z" display="inline"/><path id="BevelShadow" fill="#000" fill-opacity="1" stroke="none" stroke-dasharray="none" stroke-linecap="round" stroke-linejoin="miter" stroke-miterlimit="4" stroke-opacity="1" stroke-width="1" d="M 3,1 C 2.446,1 2,1.446 2,2 L 2,3 C 2,2.446 2.446,2 3,2 L 6,2 C 6.554,2 7,2.446 7,3 L 13,3 L 14,3 C 14,2.446 13.554,2 13,2 L 7,2 C 7,1.446 6.554,1 6,1 L 3,1 z M 2.5,4 C 1.669,4 1,4.669 1,5.5 L 1,6.5 C 1,5.669 1.669,5 2.5,5 L 6.5,5 L 12.5,5 L 13.5,5 C 14.331,5 15,5.669 15,6.5 L 15,5.5 C 15,4.669 14.331,4 13.5,4 L 2.5,4 z M 7,12.5 L 7,13.5 C 7,13.777 7.223,14 7.5,14 L 11.5,14 C 11.777,14 12,13.777 12,13.5 L 12,12.5 C 12,12.777 11.777,13 11.5,13 L 7.5,13 C 7.223,13 7,12.777 7,12.5 z" display="inline" opacity=".5"/><path id="BevelHighlight" fill="#fff" fill-opacity="1" stroke="none" stroke-dasharray="none" stroke-linecap="round" stroke-linejoin="miter" stroke-miterlimit="4" stroke-opacity="1" stroke-width="1" d="M 2,3 L 2,4 L 2.5,4 L 6.5,4 L 12.5,4 L 13.5,4 L 14,4 L 14,3 L 2,3 z M 7.5,6 C 7.223,6 7,6.223 7,6.5 L 7,7.5 C 7,7.223 7.223,7 7.5,7 L 11.5,7 C 11.777,7 12,7.223 12,7.5 L 12,6.5 C 12,6.223 11.777,6 11.5,6 L 7.5,6 z M 1,11.5 L 1,12.5 C 1,13.331 1.669,14 2.5,14 L 5,14 L 5,14.5 C 5,15.331 5.669,16 6.5,16 L 12.5,16 C 13.331,16 14,15.331 14,14.5 L 14,14.0625 L 14.03125,14.0625 L 14.03125,13.90625 C 14.603723,13.695291 15,13.147488 15,12.5 L 15,11.5 C 15,12.147488 14.603723,12.695291 14.03125,12.90625 L 14.03125,13.0625 L 14,13.0625 L 14,13.5 C 14,14.331 13.331,15 12.5,15 L 6.5,15 C 5.669,15 5,14.331 5,13.5 L 5,13 L 2.5,13 C 1.669,13 1,12.331 1,11.5 z" display="inline" opacity=".5"/></g></svg>