<svg xmlns="http://www.w3.org/2000/svg" xmlns:svg="http://www.w3.org/2000/svg" xmlns:xlink="http://www.w3.org/1999/xlink" id="svg2" width="16" height="16" version="1.0"><defs id="defs4"><linearGradient id="linearGradient3164"><stop id="stop3166" offset="0" stop-color="#000" stop-opacity="1"/><stop id="stop3168" offset="1" stop-color="#000" stop-opacity="0"/></linearGradient><linearGradient id="linearGradient3278"><stop id="stop3280" offset="0" stop-color="#000" stop-opacity="1"/><stop id="stop3282" offset="1" stop-color="#646464" stop-opacity="1"/></linearGradient><linearGradient id="linearGradient5452"><stop id="stop5454" offset="0" stop-color="#fff" stop-opacity="1"/><stop id="stop5456" offset="1" stop-color="#fff" stop-opacity="0"/></linearGradient><linearGradient id="linearGradient2509" x1="67.487" x2="67.487" y1="7.75" y2="120.001" gradientTransform="matrix(0.1780105,0,0,0.178971,-0.3926709,-40.931767)" gradientUnits="userSpaceOnUse" xlink:href="#linearGradient3278"/><linearGradient id="linearGradient2520" x1="19.578" x2="2.366" y1="9.457" y2="9.457" gradientTransform="matrix(0,-0.6417474,0.6324505,0,1.0188234,14.564012)" gradientUnits="userSpaceOnUse" xlink:href="#StandardGradient"/><radialGradient id="radialGradient3170" cx="8.081" cy="14.966" r="5.111" fx="8.081" fy="14.966" gradientTransform="matrix(1,0,0,0.1965812,0,12.024116)" gradientUnits="userSpaceOnUse" xlink:href="#linearGradient3164"/><linearGradient id="linearGradient3633" x1="19.578" x2="2.366" y1="9.457" y2="9.457" gradientTransform="matrix(0,-0.6417474,0.6324505,0,1.0188234,15.564012)" gradientUnits="userSpaceOnUse" xlink:href="#linearGradient3278"/><linearGradient id="linearGradient3635" x1="19.578" x2="2.366" y1="9.457" y2="9.457" gradientTransform="matrix(0,-0.6417474,0.6324505,0,1.0188234,14.564012)" gradientUnits="userSpaceOnUse" xlink:href="#linearGradient3278"/><linearGradient id="linearGradient3640" x1="19.578" x2="2.366" y1="9.457" y2="9.457" gradientTransform="matrix(0,-0.6417474,0.6324505,0,1.0188234,15.564012)" gradientUnits="userSpaceOnUse" xlink:href="#linearGradient3278"/><linearGradient id="linearGradient3644" x1="19.578" x2="2.366" y1="9.457" y2="9.457" gradientTransform="matrix(0,-0.6417474,0.6324505,0,1.0188234,14.564012)" gradientUnits="userSpaceOnUse" xlink:href="#linearGradient3278"/><linearGradient id="linearGradient3649" x1="19.578" x2="2.366" y1="9.457" y2="9.457" gradientTransform="matrix(0,-0.6417474,0.6324505,0,-18.981177,14.564012)" gradientUnits="userSpaceOnUse" xlink:href="#linearGradient3278"/><clipPath id="clipPath3656" clipPathUnits="userSpaceOnUse"><path id="path3658" fill="#f0f" fill-opacity="1" stroke="none" d="m -20,0 0,16 16,0 0,-16 -16,0 z m 8.09375,2.0625 c 0.173909,-0.017258 0.321578,0 0.5,0 2.967459,0 5.375001,2.4264217 5.375,5.4375 0,3.011078 -2.407541,5.46875 -5.375,5.46875 l 0,-1.84375 c 1.978306,0 3.59375,-1.6176151 3.59375,-3.625 0,-2.0073863 -1.615444,-3.624999 -3.59375,-3.625 -1.86764,0 -3.365967,1.430465 -3.53125,3.28125 l 1.875,0 -2.90625,4.09375 -2.71875,-4.09375 1.9375,0 c 0.162578,-2.6743762 2.235116,-4.834874 4.84375,-5.09375 z m 0.25,2.1875 0.59375,3.1875 2.1875,1.90625 -3.3125,-1.125 0.53125,-3.96875 z" display="inline"/></clipPath><filter id="filter3660"><feGaussianBlur id="feGaussianBlur3662" stdDeviation=".354"/></filter><linearGradient id="StandardGradient" x1="6.471" x2="6.471" y1="7.649" y2="18.248" gradientTransform="scale(1.1389662,0.8779892)" gradientUnits="userSpaceOnUse"><stop id="stop3283" offset="0" stop-color="#000" stop-opacity=".863"/><stop id="stop3285" offset="1" stop-color="#000" stop-opacity=".471"/></linearGradient><linearGradient id="linearGradient3026" x1="6.471" x2="6.471" y1="7.649" y2="18.248" gradientTransform="matrix(1.1389662,0,0,0.8779892,2.5357387,1.0000184)" gradientUnits="userSpaceOnUse" xlink:href="#StandardGradient"/><linearGradient id="linearGradient3029" x1="19.578" x2="2.366" y1="9.457" y2="9.457" gradientTransform="matrix(0,-0.6417474,0.6324505,0,1.0188234,14.564012)" gradientUnits="userSpaceOnUse" xlink:href="#StandardGradient"/><linearGradient id="linearGradient3033" x1="19.578" x2="2.366" y1="9.457" y2="9.457" gradientTransform="matrix(0,-0.6417474,0.6324505,0,1.0188234,14.564012)" gradientUnits="userSpaceOnUse" xlink:href="#StandardGradient"/></defs><metadata id="metadata7"/><g id="layer3" display="inline"><path id="path3031" fill="#fff" fill-opacity="1" stroke="none" d="M 8.59375 1 C 5.5424417 1 3.087175 3.2096233 2.4375 6.09375 L 1.3125 6.09375 A 1.0590932 1.0590932 0 0 0 0.4375 7.75 L 3.15625 11.84375 A 1.0590932 1.0590932 0 0 0 4.90625 11.875 L 7 8.90625 A 1.0590932 1.0590932 0 0 0 7.46875 9.21875 L 9.1875 9.8125 C 8.9728559 9.8713286 8.8272555 10.0625 8.59375 10.0625 A 1.0590932 1.0590932 0 0 0 7.53125 11.125 L 7.53125 12.96875 A 1.0590932 1.0590932 0 0 0 8.59375 14.03125 C 12.145917 14.03125 15.03125 11.075561 15.03125 7.5 C 15.031251 3.9244379 12.138482 1 8.59375 1 z M 8.09375 2.0625 C 8.267659 2.0452416 8.4153275 2.0625 8.59375 2.0625 C 11.561209 2.0625 13.968751 4.4889217 13.96875 7.5 C 13.96875 10.511078 11.561209 12.96875 8.59375 12.96875 L 8.59375 11.125 C 10.572056 11.125 12.1875 9.5073849 12.1875 7.5 C 12.1875 5.4926137 10.572056 3.875001 8.59375 3.875 C 6.72611 3.875 5.2277827 5.305465 5.0625 7.15625 L 6.9375 7.15625 L 4.03125 11.25 L 1.3125 7.15625 L 3.25 7.15625 C 3.4125772 4.4818738 5.4851155 2.321376 8.09375 2.0625 z M 8.34375 4.25 L 8.9375 7.4375 L 11.125 9.34375 L 7.8125 8.21875 L 8.34375 4.25 z M 9.625 5.375 C 10.458297 5.7902488 11.125 6.4778576 11.125 7.5 C 11.125 7.6234676 11.01614 7.6941456 11 7.8125 L 9.90625 6.875 L 9.625 5.375 z M 7.09375 5.53125 L 7.03125 6.09375 A 1.0590932 1.0590932 0 0 0 6.9375 6.09375 L 6.65625 6.09375 C 6.7966895 5.8838303 6.8989206 5.6865965 7.09375 5.53125 z" opacity=".15"/><path id="path3281" fill="url(#linearGradient2520)" fill-opacity="1" stroke="none" stroke-dasharray="none" stroke-linecap="round" stroke-linejoin="miter" stroke-miterlimit="4" stroke-opacity="1" stroke-width="1" d="M 1.310124,7.1638623 L 4.02716,11.24922 L 6.9480465,7.1638623 L 5.0506951,7.1638623 C 5.2159778,5.3130773 6.7405891,3.8749063 8.6082291,3.8749063 C 10.586535,3.8749073 12.185527,5.4974043 12.185527,7.5047906 C 12.185527,9.5121755 10.586535,11.134674 8.6082291,11.134674 L 8.6082291,12.959643 C 11.575688,12.959643 13.984059,10.515869 13.984059,7.5047906 C 13.98406,4.4937123 11.575688,2.0499363 8.6082291,2.0499363 C 5.753469,2.0499363 3.4255798,4.3111943 3.2521641,7.1638623 L 1.310124,7.1638623 z M 8.3489196,4.2487987 L 7.8165985,8.2329721 L 11.117128,9.3593267 L 8.941757,7.4254967 L 8.3489196,4.2487987 z" opacity="1"/><path id="path3629" fill="#000" fill-opacity="1" stroke="none" stroke-dasharray="none" stroke-linecap="round" stroke-linejoin="miter" stroke-miterlimit="4" stroke-opacity="1" stroke-width="1" d="M 8.09375 2.0625 C 5.4851155 2.321376 3.4125772 4.4818738 3.25 7.15625 L 1.3125 7.15625 L 1.96875 8.15625 L 3.25 8.15625 C 3.4234157 5.303582 5.7389899 3.0625 8.59375 3.0625 C 11.375743 3.0625 13.693292 5.1879667 13.96875 7.9375 C 13.97992 7.7940248 13.96875 7.6463719 13.96875 7.5 C 13.968751 4.4889217 11.561209 2.0625 8.59375 2.0625 C 8.4153275 2.0625 8.267659 2.0452416 8.09375 2.0625 z M 8.46875 4.875 C 8.3912831 4.8778167 8.3261065 4.8985547 8.25 4.90625 L 7.8125 8.21875 L 7.9375 8.25 L 8.34375 5.25 L 8.9375 8.4375 L 9.25 8.71875 L 11.125 9.34375 L 8.9375 7.4375 L 8.46875 4.875 z M 5.3125 7.15625 C 5.1854894 7.4768159 5.0945718 7.7971194 5.0625 8.15625 L 6.21875 8.15625 L 6.9375 7.15625 L 5.3125 7.15625 z M 12.15625 8 C 12.038195 8.8866968 11.598462 9.6561065 10.96875 10.21875 L 11.125 10.34375 L 10.90625 10.25 C 10.283151 10.785246 9.4756718 11.125 8.59375 11.125 L 8.59375 12.125 C 10.572056 12.125 12.1875 10.507385 12.1875 8.5 C 12.1875 8.3258131 12.179532 8.1675822 12.15625 8 z" opacity=".5"/><path id="path3638" fill="#fff" fill-opacity="1" stroke="none" d="M 8.59375 3.875 C 6.72611 3.875 5.2277827 5.305465 5.0625 7.15625 L 5.3125 7.15625 C 5.7972005 5.9328999 6.9034713 5.0424012 8.25 4.90625 L 8.34375 4.25 L 8.46875 4.875 C 8.5124226 4.8734121 8.5496821 4.875 8.59375 4.875 C 10.400392 4.8750009 11.911218 6.2363105 12.15625 8 C 12.17768 7.8390461 12.1875 7.6669937 12.1875 7.5 C 12.1875 5.4926137 10.572056 3.875001 8.59375 3.875 z M 13.96875 8.0625 C 13.693291 10.812033 11.375743 12.96875 8.59375 12.96875 L 8.59375 13.96875 C 11.561209 13.96875 13.96875 11.511078 13.96875 8.5 C 13.96875 8.3536281 13.97992 8.2059752 13.96875 8.0625 z M 1.3125 8.15625 L 4.03125 12.25 L 6.9375 8.15625 L 6.21875 8.15625 L 4.03125 11.25 L 1.96875 8.15625 L 1.3125 8.15625 z M 7.9375 8.25 L 7.8125 9.21875 L 10.90625 10.25 C 10.924031 10.234726 10.951271 10.234368 10.96875 10.21875 L 9.25 8.71875 L 7.9375 8.25 z" opacity=".3"/></g></svg>