<svg xmlns="http://www.w3.org/2000/svg" xmlns:svg="http://www.w3.org/2000/svg" xmlns:xlink="http://www.w3.org/1999/xlink" id="svg2" width="16" height="16" display="inline" version="1.0"><defs id="defs4"><linearGradient id="StandardGradient" x1="11.999" x2="11.999" y1=".922" y2="19.387" gradientTransform="scale(0.9219544,1.0846523)" gradientUnits="userSpaceOnUse"><stop id="stop3283" offset="0" stop-color="#000" stop-opacity=".863"/><stop id="stop2651" offset="1" stop-color="#000" stop-opacity=".471"/></linearGradient><linearGradient id="linearGradient2452" x1="11.999" x2="11.999" y1=".922" y2="17.478" gradientTransform="matrix(0.9247229,0,0,1.0872097,-6.00562e-2,5.997642)" gradientUnits="userSpaceOnUse" xlink:href="#StandardGradient"/><linearGradient id="linearGradient3900" x1="11.999" x2="11.999" y1=".922" y2="17.478" gradientTransform="matrix(0.9247229,0,0,1.0872097,-1.0600562,4.997642)" gradientUnits="userSpaceOnUse" xlink:href="#StandardGradient"/><linearGradient id="linearGradient3906" x1="11.999" x2="11.999" y1=".922" y2="17.478" gradientTransform="matrix(0.9247229,0,0,1.0872097,-6.00562e-2,5.997642)" gradientUnits="userSpaceOnUse" xlink:href="#StandardGradient"/><linearGradient id="linearGradient3340" x1="11.999" x2="11.999" y1="-4.599" y2="9.198" gradientTransform="matrix(0.9247229,0,0,1.0872097,-3.0600562,4.999538)" gradientUnits="userSpaceOnUse" xlink:href="#StandardGradient"/><linearGradient id="linearGradient2402" x1="11.999" x2="11.999" y1="-4.599" y2="9.198" gradientTransform="matrix(0.9247229,0,0,1.0872097,-3.0600562,4.999538)" gradientUnits="userSpaceOnUse" xlink:href="#StandardGradient"/><linearGradient id="linearGradient2405" x1="11.999" x2="11.999" y1="-4.599" y2="9.198" gradientTransform="matrix(0.9247229,0,0,1.0872097,-3.0600562,4.999538)" gradientUnits="userSpaceOnUse" xlink:href="#StandardGradient"/><linearGradient id="linearGradient2412" x1="11.999" x2="11.999" y1="-4.599" y2="9.198" gradientTransform="matrix(0.9247229,0,0,1.0872097,-3.0600562,4.999538)" gradientUnits="userSpaceOnUse" xlink:href="#StandardGradient"/><linearGradient id="linearGradient2417" x1="11.999" x2="11.999" y1="-4.599" y2="9.198" gradientTransform="matrix(0.9247229,0,0,1.0872097,-3.0600562,4.999538)" gradientUnits="userSpaceOnUse" xlink:href="#StandardGradient"/><linearGradient id="linearGradient2423" x1="11.999" x2="11.999" y1="-4.599" y2="9.198" gradientTransform="matrix(0.9247229,0,0,1.0872097,-3.0600562,4.999538)" gradientUnits="userSpaceOnUse" xlink:href="#StandardGradient"/><linearGradient id="linearGradient3636" x1="11.999" x2="11.999" y1="-4.599" y2="9.198" gradientTransform="matrix(0.9247229,0,0,1.0872097,-23.060056,4.999538)" gradientUnits="userSpaceOnUse" xlink:href="#StandardGradient"/><clipPath id="clipPath3643" clipPathUnits="userSpaceOnUse"><path id="path3645" fill="#f0f" fill-opacity="1" stroke="none" d="m -20,0 0,16 16,0 0,-16 -6,0 0,0.96875 1.5,0 c 0.831,0 1.5,0.6690001 1.5,1.5 l 0,1.625 C -6.412983,4.2970063 -6,4.842125 -6,5.5 l 0,8 c 0,0.831 -0.669,1.5 -1.5,1.5 l -6,0 c -0.831,0 -1.5,-0.669 -1.5,-1.5 l 0,-0.5 -1,0 -0.46875,0 c -0.02057,0 -0.04214,8.12e-4 -0.0625,0 -0.802306,-0.032 -1.4375,-0.689569 -1.4375,-1.5 l 0,-9.03125 c 0,-0.831 0.669,-1.50000002 1.5,-1.5 L -15,0.96875 -15,0 -20,0 z m 6,1 0,1 3,0 0,-1 -3,0 z m 1.5,5 C -12.777,6 -13,6.223 -13,6.5 l 0,6 c 0,0.277 0.223,0.5 0.5,0.5 l 4,0 c 0.277,0 0.5,-0.223 0.5,-0.5 l 0,-6 C -8,6.223 -8.223,6 -8.5,6 l -4,0 z" display="inline"/></clipPath><filter id="filter3647"><feGaussianBlur id="feGaussianBlur3649" stdDeviation=".405"/></filter><linearGradient id="linearGradient5084" x1="11.999" x2="11.999" y1="-4.599" y2="9.198" gradientTransform="matrix(0.9247229,0,0,1.0872097,-3.0600562,4.999538)" gradientUnits="userSpaceOnUse" xlink:href="#StandardGradient"/><linearGradient id="linearGradient5088" x1="11.999" x2="11.999" y1="-4.599" y2="9.198" gradientTransform="matrix(0.9247229,0,0,1.0872097,-3.0600562,4.999538)" gradientUnits="userSpaceOnUse" xlink:href="#StandardGradient"/></defs><metadata id="metadata7"/><g id="layer1" display="inline"><path id="path5086" fill="#fff" fill-opacity="1" stroke="none" d="M 4.8125 -1 A 1.0150695 1.0150695 0 0 0 4 -0.03125 L 3.53125 -0.03125 C 2.1555139 -0.031250033 1.03125 1.0930138 1.03125 2.46875 L 1.03125 11.5 C 1.0312502 12.840767 2.1032463 13.94679 3.4375 14 C 3.5132916 14.003022 3.5373928 14 3.53125 14 L 4 14 L 4.1875 14 C 4.4451127 15.112954 5.3154395 16 6.5 16 L 12.5 16 C 13.875736 16 15 14.875736 15 13.5 L 15 5.5 C 15 4.7163289 14.574916 4.0863979 14 3.625 L 14 2.46875 C 14 1.0930139 12.875736 -0.03125 11.5 -0.03125 L 11 -0.03125 A 1.0150695 1.0150695 0 0 0 10 -1 L 5 -1 A 1.0150695 1.0150695 0 0 0 4.8125 -1 z M 5 0 L 10 0 L 10 0.96875 L 11.5 0.96875 C 12.331 0.96875 13 1.6377501 13 2.46875 L 13 4.09375 C 13.587017 4.2970063 14 4.842125 14 5.5 L 14 13.5 C 14 14.331 13.331 15 12.5 15 L 6.5 15 C 5.669 15 5 14.331 5 13.5 L 5 13 L 4 13 L 3.53125 13 C 3.5106807 13 3.4891131 13.000812 3.46875 13 C 2.6664435 12.968004 2.0312501 12.310431 2.03125 11.5 L 2.03125 2.46875 C 2.03125 1.63775 2.7002501 0.96874998 3.53125 0.96875 L 5 0.96875 L 5 0 z M 6 1 L 6 2 L 9 2 L 9 1 L 6 1 z M 7.5 6 C 7.223 6 7 6.223 7 6.5 L 7 12.5 C 7 12.777 7.223 13 7.5 13 L 11.5 13 C 11.777 13 12 12.777 12 12.5 L 12 6.5 C 12 6.223 11.777 6 11.5 6 L 7.5 6 z M 8 7 L 11 7 L 11 12 L 8 12 L 8 7 z" display="inline" opacity=".15"/><path id="Symbol" fill="url(#linearGradient2423)" fill-opacity="1" stroke="none" stroke-dasharray="none" stroke-linecap="round" stroke-linejoin="miter" stroke-miterlimit="4" stroke-opacity="1" stroke-width="1" d="M 5 0 L 5 0.96875 L 3.53125 0.96875 C 2.7002501 0.96874998 2.03125 1.63775 2.03125 2.46875 L 2.03125 11.5 C 2.0312501 12.310431 2.6664435 12.968004 3.46875 13 C 3.4891131 13.000812 3.5106807 13 3.53125 13 L 4 13 L 5 13 L 5 13.5 C 5 14.331 5.669 15 6.5 15 L 12.5 15 C 13.331 15 14 14.331 14 13.5 L 14 5.5 C 14 4.842125 13.587017 4.2970063 13 4.09375 L 13 2.46875 C 13 1.6377501 12.331 0.96875 11.5 0.96875 L 10 0.96875 L 10 0 L 5 0 z M 6 1 L 9 1 L 9 2 L 6 2 L 6 1 z M 7.5 6 L 11.5 6 C 11.777 6 12 6.223 12 6.5 L 12 12.5 C 12 12.777 11.777 13 11.5 13 L 7.5 13 C 7.223 13 7 12.777 7 12.5 L 7 6.5 C 7 6.223 7.223 6 7.5 6 z" display="inline"/><path id="BevelShadow" fill="#000" fill-opacity="1" stroke="none" stroke-dasharray="none" stroke-linecap="round" stroke-linejoin="miter" stroke-miterlimit="4" stroke-opacity="1" stroke-width="1" d="M 5,0 L 5,0.96875 L 3.53125,0.96875 C 2.7002501,0.96874998 2.03125,1.63775 2.03125,2.46875 L 2.03125,3.46875 C 2.03125,2.63775 2.7002501,1.96875 3.53125,1.96875 L 5,1.96875 L 5,1 L 6,1 L 9,1 L 10,1 L 10,1.96875 L 11.5,1.96875 C 12.331,1.96875 13,2.6377501 13,3.46875 L 13,2.46875 C 13,1.6377501 12.331,0.96875 11.5,0.96875 L 10,0.96875 L 10,0 L 5,0 z M 6,2 L 6,3 L 9,3 L 9,2 L 6,2 z M 13,4.09375 L 13,5.09375 C 13.587017,5.2970063 14,5.842125 14,6.5 L 14,5.5 C 14,4.842125 13.587017,4.2970063 13,4.09375 z M 7,12.5 L 7,13.5 C 7,13.777 7.223,14 7.5,14 L 11.5,14 C 11.777,14 12,13.777 12,13.5 L 12,12.5 C 12,12.777 11.777,13 11.5,13 L 7.5,13 C 7.223,13 7,12.777 7,12.5 z" display="inline" opacity=".5"/><path id="BevelHighlight" fill="#fff" fill-opacity="1" stroke="none" stroke-dasharray="none" stroke-linecap="round" stroke-linejoin="miter" stroke-miterlimit="4" stroke-opacity="1" stroke-width="1" d="M 6,1 L 6,2 L 9,2 L 9,1 L 6,1 z M 7.5,6 C 7.223,6 7,6.223 7,6.5 L 7,7.5 C 7,7.223 7.223,7 7.5,7 L 11.5,7 C 11.777,7 12,7.223 12,7.5 L 12,6.5 C 12,6.223 11.777,6 11.5,6 L 7.5,6 z M 2.03125,11.5 L 2.03125,12.5 C 2.0312501,13.310431 2.6664435,13.968004 3.46875,14 C 3.4891131,14.000812 3.5106807,14 3.53125,14 L 4,14 L 5,14 L 5,14.5 C 5,15.331 5.669,16 6.5,16 L 12.5,16 C 13.331,16 14,15.331 14,14.5 L 14,13.5 C 14,14.331 13.331,15 12.5,15 L 6.5,15 C 5.669,15 5,14.331 5,13.5 L 5,13 L 4,13 L 3.53125,13 C 3.5106807,13 3.4891131,13.000812 3.46875,13 C 2.6664435,12.968004 2.0312501,12.310431 2.03125,11.5 z" display="inline" opacity=".3"/></g></svg>