<svg xmlns="http://www.w3.org/2000/svg" xmlns:svg="http://www.w3.org/2000/svg" xmlns:xlink="http://www.w3.org/1999/xlink" id="svg2" width="16" height="16" version="1.0"><defs id="defs4"><linearGradient id="StandardGradient" x1="11.347" x2="11.347" y1="6" y2="16.013" gradientTransform="translate(-3,-2.9995677)" gradientUnits="userSpaceOnUse"><stop id="stop3177" offset="0" stop-color="#000" stop-opacity=".863"/><stop id="stop3179" offset="1" stop-color="#000" stop-opacity=".471"/></linearGradient><linearGradient id="linearGradient2406" x1="11.347" x2="11.347" y1="5.999" y2="16.972" gradientTransform="translate(0,-1)" gradientUnits="userSpaceOnUse" xlink:href="#StandardGradient"/><linearGradient id="linearGradient3627" x1="11.347" x2="11.347" y1="5.999" y2="16.972" gradientTransform="translate(-20,-1)" gradientUnits="userSpaceOnUse" xlink:href="#StandardGradient"/><clipPath id="clipPath3635" clipPathUnits="userSpaceOnUse"><path id="path3637" fill="#f0f" fill-opacity="1" stroke="none" d="m -17,2.9995677 0,7.5000003 6,-5.5000003 9,0 0,10.9687503 -9,0 -6,-5.46875 0,8.5 16,0 0,-16.0000003 -16,0 z m 7.40625,4 L -11,8.4058177 -8.90625,10.499568 -11,12.593318 -9.59375,13.999568 -7.5,11.905818 -5.40625,13.999568 -4,12.593318 -6.09375,10.499568 -4,8.4058177 -5.40625,6.9995677 -7.5,9.0933177 -9.59375,6.9995677 z" display="inline"/></clipPath><filter id="filter3639"><feGaussianBlur id="feGaussianBlur3641" stdDeviation=".39"/></filter><linearGradient id="linearGradient3207" x1="11.347" x2="11.347" y1="5.999" y2="16.972" gradientTransform="translate(0,-1)" gradientUnits="userSpaceOnUse" xlink:href="#StandardGradient"/><linearGradient id="linearGradient3211" x1="11.347" x2="11.347" y1="5.999" y2="16.972" gradientTransform="translate(-3,-3.9995677)" gradientUnits="userSpaceOnUse" xlink:href="#StandardGradient"/></defs><metadata id="metadata7"/><g id="layer3" display="inline" transform="translate(-3,-2.9995677)"><path id="path3209" fill="#fff" fill-opacity="1" stroke="none" d="M 5.8125 1.03125 A 0.97465509 0.97465509 0 0 0 5.34375 1.28125 L -0.65625 6.78125 A 0.97465509 0.97465509 0 0 0 -0.65625 8.21875 L 5.34375 13.6875 A 0.97465509 0.97465509 0 0 0 6 13.9375 L 15 13.9375 A 0.97465509 0.97465509 0 0 0 15.96875 12.96875 L 15.96875 2 A 0.97465509 0.97465509 0 0 0 15 1.03125 L 6 1.03125 A 0.97465509 0.97465509 0 0 0 5.8125 1.03125 z M 6 2 L 15 2 L 15 12.96875 L 6 12.96875 L 0 7.5 L 6 2 z M 7.40625 4 L 6 5.40625 L 8.09375 7.5 L 6 9.59375 L 7.40625 11 L 9.5 8.90625 L 11.59375 11 L 13 9.59375 L 10.90625 7.5 L 13 5.40625 L 11.59375 4 L 9.5 6.09375 L 7.40625 4 z M 7.40625 5.375 L 8.8125 6.78125 A 0.97465509 0.97465509 0 0 0 10.1875 6.78125 L 11.59375 5.375 L 11.625 5.40625 L 10.21875 6.8125 A 0.97465509 0.97465509 0 0 0 10.21875 8.1875 L 11.625 9.59375 L 11.59375 9.625 L 10.1875 8.21875 A 0.97465509 0.97465509 0 0 0 8.8125 8.21875 L 7.40625 9.625 L 7.375 9.59375 L 8.78125 8.1875 A 0.97465509 0.97465509 0 0 0 8.78125 6.8125 L 7.375 5.40625 L 7.40625 5.375 z" opacity=".15" transform="translate(3,2.9995677)"/><path id="Symbol" fill="url(#linearGradient2406)" fill-opacity="1" stroke="none" stroke-dasharray="none" stroke-linecap="round" stroke-linejoin="miter" stroke-miterlimit="4" stroke-opacity="1" stroke-width="1" d="M 9,4.9995677 L 3,10.499568 L 9,15.97184 L 18,15.97184 L 18,4.9995677 L 9,4.9995677 z M 10.40625,6.9995677 L 12.5,9.0933177 L 14.59375,6.9995677 L 16,8.4058177 L 13.90625,10.499568 L 16,12.593318 L 14.59375,13.999568 L 12.5,11.905818 L 10.40625,13.999568 L 9,12.593318 L 11.09375,10.499568 L 9,8.4058177 L 10.40625,6.9995677 z" opacity="1"/><path id="BevelShadow" fill="#000" fill-opacity="1" stroke="none" stroke-dasharray="none" stroke-linecap="round" stroke-linejoin="miter" stroke-miterlimit="4" stroke-opacity="1" stroke-width="1" d="M 6,2 L 0,7.5 L 0.5625,8 L 6,3.03125 L 15,3.03125 L 15,2 L 6,2 z M 6.5,5.9375 L 6,6.4375 L 7.5625,8 L 8.09375,7.5 L 6.5,5.9375 z M 12.5,5.9375 L 10.90625,7.5 L 11.4375,8 L 13,6.4375 L 12.5,5.9375 z M 9.5,8.90625 L 7.40625,11 L 6.5,10.125 L 6,10.625 L 7.40625,12.03125 L 9.5,9.9375 L 11.59375,12.03125 L 13,10.625 L 12.5,10.125 L 11.59375,11 L 9.5,8.90625 z" opacity=".5" transform="translate(3,2.9995677)"/><path id="BevelHighlight" fill="#fff" fill-opacity="1" stroke="none" stroke-dasharray="none" stroke-linecap="round" stroke-linejoin="miter" stroke-miterlimit="4" stroke-opacity="1" stroke-width="1" d="M 7.40625,4 L 6,5.40625 L 6.5,5.9375 L 7.40625,5.03125 L 9.5,7.125 L 11.59375,5.03125 L 12.5,5.9375 L 13,5.40625 L 11.59375,4 L 9.5,6.09375 L 7.40625,4 z M 0,7.5 L 0,8.53125 L 6,14 L 15,14 L 15,12.96875 L 6,12.96875 L 0,7.5 z M 8.09375,7.5 L 6,9.59375 L 6.5,10.125 L 8.09375,8.53125 L 8.09375,7.5 z M 10.90625,7.5 L 10.90625,8.53125 L 12.5,10.125 L 13,9.59375 L 10.90625,7.5 z" opacity=".3" transform="translate(3,2.9995677)"/></g></svg>