<svg xmlns="http://www.w3.org/2000/svg" xmlns:svg="http://www.w3.org/2000/svg" xmlns:xlink="http://www.w3.org/1999/xlink" id="svg2" width="16" height="16" display="inline" version="1.0"><defs id="defs4"><linearGradient id="StandardGradient" x1="11.999" x2="11.999" y1=".922" y2="19.387" gradientTransform="scale(0.9219544,1.0846523)" gradientUnits="userSpaceOnUse"><stop id="stop3283" offset="0" stop-color="#000" stop-opacity=".863"/><stop id="stop2651" offset="1" stop-color="#000" stop-opacity=".471"/></linearGradient><linearGradient id="linearGradient2549" x1="11.999" x2="11.999" y1=".922" y2="17.478" gradientTransform="matrix(0.9247229,0,0,1.0872097,-2.0600562,0.9976422)" gradientUnits="userSpaceOnUse" xlink:href="#StandardGradient"/><linearGradient id="linearGradient2418" x1="11.999" x2="11.999" y1=".922" y2="17.478" gradientTransform="matrix(0.9247229,0,0,1.0872097,-3.0600562,-3.0023583)" gradientUnits="userSpaceOnUse" xlink:href="#StandardGradient"/><linearGradient id="linearGradient2422" x1="11.999" x2="11.999" y1=".922" y2="17.478" gradientTransform="matrix(0.9247229,0,0,1.0872097,-5.0600562,-1.0023583)" gradientUnits="userSpaceOnUse" xlink:href="#StandardGradient"/><linearGradient id="linearGradient2428" x1="11.999" x2="11.999" y1="3.681" y2="16.53" gradientTransform="matrix(0.9247229,0,0,1.0872097,-4.0600562,-3.0023583)" gradientUnits="userSpaceOnUse" xlink:href="#StandardGradient"/><linearGradient id="linearGradient3631" x1="11.999" x2="11.999" y1="3.681" y2="16.53" gradientTransform="matrix(0.9247229,0,0,1.0872097,-24.060056,-3.0023583)" gradientUnits="userSpaceOnUse" xlink:href="#StandardGradient"/><clipPath id="clipPath3638" clipPathUnits="userSpaceOnUse"><path id="path3640" fill="#f0f" fill-opacity="1" stroke="none" d="m -20,0 0,16 16,0 0,-16 -16,0 z m 6.5,1 6,0 C -6.669,1 -6,1.669 -6,2.5 l 0,8 c 0,0.831 -0.669,1.5 -1.5,1.5 l -6,0 c -0.831,0 -1.5,-0.669 -1.5,-1.5 l 0,-8 C -15,1.669 -14.331,1 -13.5,1 z m 1,2 C -12.777,3 -13,3.223 -13,3.5 l 0,6 c 0,0.277 0.223,0.5 0.5,0.5 l 4,0 C -8.223,10 -8,9.777 -8,9.5 l 0,-6 C -8,3.223 -8.223,3 -8.5,3 l -4,0 z m -4,1 0.5,0 0,2.5 0,6 c 0,0.277 0.223,0.5 0.5,0.5 l 4,0 2.5,0 0,0.5 c 0,0.831 -0.669,1.5 -1.5,1.5 l -6,0 c -0.831,0 -1.5,-0.669 -1.5,-1.5 l 0,-8 C -18,4.669 -17.331,4 -16.5,4 z" display="inline"/></clipPath><filter id="filter3642"><feGaussianBlur id="feGaussianBlur3644" stdDeviation=".39"/></filter><linearGradient id="linearGradient5498" x1="11.999" x2="11.999" y1="3.681" y2="16.53" gradientTransform="matrix(0.9247229,0,0,1.0872097,-4.0600562,-3.0023583)" gradientUnits="userSpaceOnUse" xlink:href="#StandardGradient"/><linearGradient id="linearGradient5502" x1="11.999" x2="11.999" y1="3.681" y2="16.53" gradientTransform="matrix(0.9247229,0,0,1.0872097,-4.0600562,-3.0023583)" gradientUnits="userSpaceOnUse" xlink:href="#StandardGradient"/></defs><metadata id="metadata7"/><g id="layer1" display="inline"><path id="path5500" fill="#fff" fill-opacity="1" stroke="none" d="M 6.5 -0.03125 C 5.1085143 -0.03125 3.96875 1.1085143 3.96875 2.5 L 3.96875 2.96875 L 3.5 2.96875 C 2.1085143 2.96875 0.96875 4.1085143 0.96875 5.5 L 0.96875 13.5 C 0.96875 14.891486 2.1085143 16.03125 3.5 16.03125 L 9.5 16.03125 C 10.891486 16.03125 12.03125 14.891486 12.03125 13.5 L 12.03125 13.03125 L 12.5 13.03125 C 13.891486 13.03125 15.03125 11.891486 15.03125 10.5 L 15.03125 2.5 C 15.03125 1.1085143 13.891486 -0.03125 12.5 -0.03125 L 6.5 -0.03125 z M 6.5 1 L 12.5 1 C 13.331 1 14 1.669 14 2.5 L 14 10.5 C 14 11.331 13.331 12 12.5 12 L 6.5 12 C 5.669 12 5 11.331 5 10.5 L 5 2.5 C 5 1.669 5.669 1 6.5 1 z M 7.5 3 C 7.223 3 7 3.223 7 3.5 L 7 9.5 C 7 9.777 7.223 10 7.5 10 L 11.5 10 C 11.777 10 12 9.777 12 9.5 L 12 3.5 C 12 3.223 11.777 3 11.5 3 L 7.5 3 z M 3.5 4 L 4 4 L 4 6.5 L 4 12.5 C 4 12.777 4.223 13 4.5 13 L 8.5 13 L 11 13 L 11 13.5 C 11 14.331 10.331 15 9.5 15 L 3.5 15 C 2.669 15 2 14.331 2 13.5 L 2 5.5 C 2 4.669 2.669 4 3.5 4 z M 8.03125 4.03125 L 10.96875 4.03125 L 10.96875 8.96875 L 8.03125 8.96875 L 8.03125 4.03125 z" display="inline" opacity=".15"/><path id="Symbol" fill="url(#linearGradient2428)" fill-opacity="1" stroke="none" stroke-dasharray="none" stroke-linecap="round" stroke-linejoin="miter" stroke-miterlimit="4" stroke-opacity="1" stroke-width="1" d="M 6.5,1 C 5.669,1 5,1.669 5,2.5 L 5,10.5 C 5,11.331 5.669,12 6.5,12 L 12.5,12 C 13.331,12 14,11.331 14,10.5 L 14,2.5 C 14,1.669 13.331,1 12.5,1 L 6.5,1 z M 7.5,3 L 11.5,3 C 11.777,3 12,3.223 12,3.5 L 12,9.5 C 12,9.777 11.777,10 11.5,10 L 7.5,10 C 7.223,10 7,9.777 7,9.5 L 7,3.5 C 7,3.223 7.223,3 7.5,3 z M 3.5,4 C 2.669,4 2,4.669 2,5.5 L 2,13.5 C 2,14.331 2.669,15 3.5,15 L 9.5,15 C 10.331,15 11,14.331 11,13.5 L 11,13 L 8.5,13 L 4.5,13 C 4.223,13 4,12.777 4,12.5 L 4,6.5 L 4,4 L 3.5,4 z" display="inline"/><path id="BevelShadow" fill="#000" fill-opacity="1" stroke="none" stroke-dasharray="none" stroke-linecap="round" stroke-linejoin="miter" stroke-miterlimit="4" stroke-opacity="1" stroke-width="1" d="M 6.5,1 C 5.669,1 5,1.669 5,2.5 L 5,3.5 C 5,2.669 5.669,2 6.5,2 L 12.5,2 C 13.331,2 14,2.669 14,3.5 L 14,2.5 C 14,1.669 13.331,1 12.5,1 L 6.5,1 z M 3.5,4 C 2.669,4 2,4.669 2,5.5 L 2,6.5 C 2,5.669 2.669,5 3.5,5 L 4,5 L 4,4 L 3.5,4 z M 7,9.5 L 7,10.5 C 7,10.777 7.223,11 7.5,11 L 11.5,11 C 11.777,11 12,10.777 12,10.5 L 12,9.5 C 12,9.777 11.777,10 11.5,10 L 7.5,10 C 7.223,10 7,9.777 7,9.5 z M 4,12.5 L 4,13.5 C 4,13.777 4.223,14 4.5,14 L 8.5,14 L 10.90625,14 C 10.959738,13.845522 11,13.673125 11,13.5 L 11,13 L 8.5,13 L 6.5,13 L 4.5,13 C 4.223,13 4,12.777 4,12.5 z" display="inline" opacity=".5"/><path id="BevelHighlight" fill="#fff" fill-opacity="1" stroke="none" stroke-dasharray="none" stroke-linecap="round" stroke-linejoin="miter" stroke-miterlimit="4" stroke-opacity="1" stroke-width="1" d="M 7.5,3 C 7.223,3 7,3.223 7,3.5 L 7,4.5 C 7,4.223 7.223,4 7.5,4 L 11.5,4 C 11.777,4 12,4.223 12,4.5 L 12,3.5 C 12,3.223 11.777,3 11.5,3 L 7.5,3 z M 5,10.5 L 5,11.5 C 5,12.331 5.669,13 6.5,13 L 8.5,13 L 11,13 L 12.5,13 C 13.331,13 14,12.331 14,11.5 L 14,10.5 C 14,11.331 13.331,12 12.5,12 L 6.5,12 C 5.669,12 5,11.331 5,10.5 z M 2,13.5 L 2,14.5 C 2,15.331 2.669,16 3.5,16 L 9.5,16 C 10.331,16 11,15.331 11,14.5 L 11,14 L 10.90625,14 C 10.702994,14.587017 10.157875,15 9.5,15 L 3.5,15 C 2.669,15 2,14.331 2,13.5 z" display="inline" opacity=".3"/></g></svg>