<svg xmlns="http://www.w3.org/2000/svg" xmlns:svg="http://www.w3.org/2000/svg" xmlns:xlink="http://www.w3.org/1999/xlink" id="svg2" width="16" height="16" version="1.0"><defs id="defs4"><linearGradient id="StandardGradient" x1="5.642" x2="5.642" y1="7.093" y2="16.998" gradientTransform="scale(1.4142135,0.7071068)" gradientUnits="userSpaceOnUse"><stop id="stop3308" offset="0" stop-color="#000" stop-opacity=".863"/><stop id="stop3310" offset="1" stop-color="#000" stop-opacity=".471"/></linearGradient><linearGradient id="linearGradient3623" x1="5.642" x2="5.642" y1="7.093" y2="16.998" gradientTransform="matrix(1.4142135,0,0,0.7071068,-20,0)" gradientUnits="userSpaceOnUse" xlink:href="#StandardGradient"/><clipPath id="clipPath3630" clipPathUnits="userSpaceOnUse"><path id="path3632" fill="#f0f" fill-opacity="1" stroke="none" d="m -20,0 0,16 16,0 0,-16 -16,0 z m 7.9375,5.03125 c 1.926802,-0.1785445 3.8796317,0.4841123 5.34375,2 0.8108,0.839469 1.374824,1.843697 1.6875,2.90625 l -2.625,0.75 C -7.849435,10.10499 -8.176268,9.558351 -8.625,9.09375 -10.172153,7.491892 -12.664068,7.457636 -14.25,9 l 1.71875,1.78125 -6.5,1.25 1.1875,-6.75 1.625,1.6875 c 1.162766,-1.1474367 2.657627,-1.7986321 4.15625,-1.9375 z" display="inline"/></clipPath><filter id="filter3634" width="1.108" height="1.216" x="-.054" y="-.108"><feGaussianBlur id="feGaussianBlur3636" stdDeviation=".315"/></filter><linearGradient id="linearGradient4502" x1="5.642" x2="5.642" y1="7.093" y2="16.998" gradientTransform="scale(1.4142135,0.7071068)" gradientUnits="userSpaceOnUse" xlink:href="#StandardGradient"/><linearGradient id="linearGradient4506" x1="5.642" x2="5.642" y1="7.093" y2="16.998" gradientTransform="scale(1.4142135,0.7071068)" gradientUnits="userSpaceOnUse" xlink:href="#StandardGradient"/></defs><metadata id="metadata7"/><g id="layer3" display="inline"><path id="path4504" fill="#fff" fill-opacity="1" stroke="none" d="M 8.5625 4.0625 C 6.914363 4.0554923 5.2987849 4.6938194 3.90625 5.75 L 2.84375 4.625 A 0.96718398 0.96718398 0 0 0 1.21875 5.125 L 0.03125 11.875 A 0.96718398 0.96718398 0 0 0 1.15625 12.96875 L 7.65625 11.71875 A 0.96718398 0.96718398 0 0 0 8.15625 10.125 L 7.375 9.3125 C 8.4923241 8.8023829 9.7577805 8.7874068 10.6875 9.75 C 11.035911 10.110733 11.289999 10.555239 11.4375 11 A 0.96718398 0.96718398 0 0 0 12.625 11.625 L 15.25 10.875 A 0.96718398 0.96718398 0 0 0 15.90625 9.65625 C 15.551246 8.4498551 14.891598 7.3304791 13.96875 6.375 C 12.482124 4.8358085 10.519306 4.0708201 8.5625 4.0625 z M 7.9375 5.03125 C 9.8643014 4.8527056 11.817132 5.5153623 13.28125 7.03125 C 14.09205 7.870719 14.656074 8.874947 14.96875 9.9375 L 12.34375 10.6875 C 12.150565 10.10499 11.823732 9.558351 11.375 9.09375 C 9.8278473 7.491892 7.335932 7.457636 5.75 9 L 7.46875 10.78125 L 0.96875 12.03125 L 2.15625 5.28125 L 3.78125 6.96875 C 4.9440156 5.8213135 6.4388767 5.1701179 7.9375 5.03125 z" display="inline" opacity=".15"/><path id="Symbol" fill="url(#StandardGradient)" fill-opacity="1" stroke="none" stroke-dasharray="none" stroke-linecap="round" stroke-linejoin="miter" stroke-miterlimit="4" stroke-opacity="1" stroke-width="1" d="M 2.1619943,5.2858183 L 0.97929486,12.015771 L 7.4794083,10.791253 L 5.7447813,8.9952917 C 7.3307133,7.4529277 9.8241213,7.4848647 11.371274,9.0867227 C 11.820006,9.5513237 12.143172,10.09772 12.336357,10.68023 L 14.979295,9.9487847 C 14.666619,8.8862317 14.105932,7.8820617 13.295132,7.0425927 C 10.692255,4.3476813 6.4534453,4.3545743 3.7956953,6.9772863 L 2.1619943,5.2858183 z" display="inline" opacity="1"/><path id="BevelShadow" fill="#000" fill-opacity="1" stroke="none" stroke-dasharray="none" stroke-linecap="round" stroke-linejoin="miter" stroke-miterlimit="4" stroke-opacity="1" stroke-width="1" d="M 8.65625 5 C 8.4155918 4.996007 8.1783502 5.008932 7.9375 5.03125 C 6.4388766 5.1701178 4.9440156 5.8213135 3.78125 6.96875 L 2.15625 5.28125 L 0.96875 12.03125 L 1.15625 12 L 2.15625 6.28125 L 3.78125 7.96875 C 6.439 5.346038 10.678373 5.3363382 13.28125 8.03125 C 13.855567 8.6258739 14.300918 9.3091382 14.625 10.03125 L 14.96875 9.9375 C 14.656074 8.8749469 14.09205 7.870719 13.28125 7.03125 C 12.000147 5.7048484 10.340858 5.0279509 8.65625 5 z M 5.75 9 L 5.75 9.96875 L 6.65625 10.9375 L 7.46875 10.78125 L 6.3125 9.5625 L 6.28125 9.53125 L 5.75 9 z" display="inline" opacity=".5"/><path id="BevelHighlight" fill="#fff" fill-opacity="1" stroke="none" stroke-dasharray="none" stroke-linecap="round" stroke-linejoin="miter" stroke-miterlimit="4" stroke-opacity="1" stroke-width="1" d="M 8.65625 5 C 8.4155918 4.996007 8.1783502 5.008932 7.9375 5.03125 C 8.3656781 4.9915735 8.7914293 5.0190887 9.21875 5.0625 C 9.0312374 5.0431606 8.8449839 5.0031315 8.65625 5 z M 9.21875 5.0625 C 9.4324104 5.0842057 9.6326602 5.1137094 9.84375 5.15625 C 9.6383071 5.1147629 9.4269605 5.0839741 9.21875 5.0625 z M 9.84375 5.15625 C 10.05484 5.1987906 10.261802 5.2490825 10.46875 5.3125 C 10.262441 5.2488956 10.054381 5.1987848 9.84375 5.15625 z M 7.09375 5.1875 C 6.948185 5.2199327 6.8002483 5.2390529 6.65625 5.28125 C 6.8007893 5.2387601 6.9473062 5.2200356 7.09375 5.1875 z M 5.4375 5.78125 C 4.8437155 6.0893209 4.279059 6.4775037 3.78125 6.96875 C 4.2795781 6.4769915 4.8492094 6.0885169 5.4375 5.78125 z M 8.5625 7.875 C 7.5475124 7.859579 6.5429659 8.228818 5.75 9 L 6.28125 9.53125 C 7.8517233 8.4566112 9.994119 8.6327926 11.375 10.0625 C 11.823732 10.527101 12.150565 11.07374 12.34375 11.65625 L 14.96875 10.9375 L 14.96875 9.9375 L 12.34375 10.6875 C 12.150565 10.10499 11.823732 9.5583513 11.375 9.09375 C 10.601424 8.292821 9.5774876 7.890421 8.5625 7.875 z M 7.46875 10.78125 L 0.96875 12.03125 L 0.96875 13 L 7.46875 11.78125 L 7.46875 10.78125 z" display="inline" opacity=".3"/></g></svg>