<svg xmlns="http://www.w3.org/2000/svg" xmlns:svg="http://www.w3.org/2000/svg" xmlns:xlink="http://www.w3.org/1999/xlink" id="svg2" width="16" height="16" version="1.0"><defs id="defs4"><linearGradient id="StandardGradient" x1="5.526" x2="5.526" y1="5.657" y2="15.574" gradientTransform="scale(1.4142136,0.7071068)" gradientUnits="userSpaceOnUse"><stop id="stop3308" offset="0" stop-color="#000" stop-opacity=".863"/><stop id="stop3310" offset="1" stop-color="#000" stop-opacity=".471"/></linearGradient><linearGradient id="linearGradient3623" x1="5.526" x2="5.526" y1="5.657" y2="15.574" gradientTransform="matrix(1.4142136,0,0,0.7071068,-20,0)" gradientUnits="userSpaceOnUse" xlink:href="#StandardGradient"/><clipPath id="clipPath3630" clipPathUnits="userSpaceOnUse"><path id="path3632" fill="#f0f" fill-opacity="1" stroke="none" d="m -20,0 0,16 16,0 0,-16 -16,0 z m 15,4 -1.1875,6.71875 -1.625,-1.6875 c -2.65775,2.622712 -6.897123,2.632411 -9.5,-0.0625 C -18.123301,8.129281 -18.687323,7.1250534 -19,6.0625 l 2.65625,-0.71875 c 0.193185,0.58251 0.488768,1.1291495 0.9375,1.59375 1.547153,1.6018583 4.070318,1.636114 5.65625,0.09375 L -11.5,5.21875 -5,4 z" display="inline"/></clipPath><filter id="filter3634" width="1.108" height="1.216" x="-.054" y="-.108"><feGaussianBlur id="feGaussianBlur3636" stdDeviation=".315"/></filter><linearGradient id="linearGradient5021" x1="5.526" x2="5.526" y1="5.657" y2="15.574" gradientTransform="scale(1.4142136,0.7071068)" gradientUnits="userSpaceOnUse" xlink:href="#StandardGradient"/><linearGradient id="linearGradient5025" x1="5.526" x2="5.526" y1="5.657" y2="15.574" gradientTransform="scale(1.4142136,0.7071068)" gradientUnits="userSpaceOnUse" xlink:href="#StandardGradient"/></defs><metadata id="metadata7"/><g id="layer3" display="inline"><path id="path5023" fill="#fff" fill-opacity="1" stroke="none" d="M 14.9375 3.03125 A 0.95432573 0.95432573 0 0 0 14.8125 3.0625 L 8.3125 4.28125 A 0.95432573 0.95432573 0 0 0 7.8125 5.875 L 8.78125 6.875 C 7.6331869 7.4399792 6.2363781 7.2701501 5.28125 6.28125 C 4.9468845 5.9350603 4.7202869 5.5070248 4.5625 5.03125 A 0.95432573 0.95432573 0 0 0 3.40625 4.4375 L 0.75 5.15625 A 0.95432573 0.95432573 0 0 0 0.09375 6.34375 C 0.44819174 7.5482322 1.0786406 8.671063 2 9.625 C 4.7256114 12.446985 9.0035851 12.550721 12.03125 10.25 L 13.125 11.375 A 0.95432573 0.95432573 0 0 0 14.75 10.875 L 15.9375 4.15625 A 0.95432573 0.95432573 0 0 0 15.03125 3.03125 A 0.95432573 0.95432573 0 0 0 14.9375 3.03125 z M 15 4 L 13.8125 10.71875 L 12.1875 9.03125 C 9.5297502 11.653962 5.290377 11.663661 2.6875 8.96875 C 1.8766995 8.129281 1.3126765 7.1250534 1 6.0625 L 3.65625 5.34375 C 3.8494348 5.92626 4.1450179 6.4728993 4.59375 6.9375 C 6.1409029 8.5393581 8.6640685 8.573614 10.25 7.03125 L 8.5 5.21875 L 15 4 z" display="inline" opacity=".15"/><path id="Shadow" fill="url(#StandardGradient)" fill-opacity="1" stroke="none" stroke-dasharray="none" stroke-linecap="round" stroke-linejoin="miter" stroke-miterlimit="4" stroke-opacity="1" stroke-width="1" d="M 13.817301,10.729952 L 15,4 L 8.4998876,5.224518 L 10.234514,7.0204791 C 8.6485825,8.5628431 6.1551742,8.5309064 4.6080213,6.9290483 C 4.1592892,6.4644476 3.8361235,5.918051 3.6429387,5.335541 L 1,6.0669861 C 1.3126765,7.1295395 1.8733634,8.1337092 2.6841639,8.9731782 C 5.2870409,11.668089 9.5258502,11.661196 12.1836,9.038484 L 13.817301,10.729952 z" display="inline" opacity="1"/><path id="BevelShadow" fill="#000" fill-opacity="1" stroke="none" stroke-dasharray="none" stroke-linecap="round" stroke-linejoin="miter" stroke-miterlimit="4" stroke-opacity="1" stroke-width="1" d="M 15 4 L 8.5 5.21875 L 9.3125 6.0625 L 14.8125 5.03125 L 15 4 z M 3.65625 5.34375 L 1 6.0625 C 1.0911973 6.3724114 1.2103043 6.6714099 1.34375 6.96875 L 3.65625 6.34375 C 3.8494348 6.92626 4.1450179 7.4728993 4.59375 7.9375 C 6.1350067 9.5332535 8.6317736 9.5557652 10.21875 8.03125 L 10.21875 8 L 10.21875 7.03125 L 9.6875 7.46875 C 8.1172717 8.5414101 5.9738681 8.3664172 4.59375 6.9375 C 4.1450179 6.4728991 3.8494348 5.92626 3.65625 5.34375 z" display="inline" opacity=".5"/><path id="BevelHighlight" fill="#fff" fill-opacity="1" stroke="none" stroke-dasharray="none" stroke-linecap="round" stroke-linejoin="miter" stroke-miterlimit="4" stroke-opacity="1" stroke-width="1" d="M 15 4 L 13.8125 10.71875 L 12.1875 9.03125 C 9.5297502 11.653962 5.2903771 11.663661 2.6875 8.96875 C 1.8766995 8.129281 1.3126765 7.1250534 1 6.0625 L 1 7.0625 C 1.3126765 8.1250536 1.8766995 9.129281 2.6875 9.96875 C 5.2903771 12.66366 9.5297502 12.653962 12.1875 10.03125 L 13.8125 11.71875 L 15 5 L 15 4 z M 8.5 5.21875 L 8.5 6.21875 L 9.6875 7.46875 C 9.8775437 7.3389266 10.078779 7.1977678 10.25 7.03125 L 8.5 5.21875 z M 3.65625 5.34375 C 3.7528424 5.635005 3.870219 5.920012 4.03125 6.1875 C 3.8771146 5.9199514 3.7528424 5.635005 3.65625 5.34375 z" display="inline" opacity=".3"/></g></svg>