<svg xmlns="http://www.w3.org/2000/svg" xmlns:svg="http://www.w3.org/2000/svg" xmlns:xlink="http://www.w3.org/1999/xlink" id="svg2" width="16" height="16" version="1.0"><defs id="defs4"><linearGradient id="StandardGradient" x1="8.738" x2="8.738" y1="1.845" y2="12.803" gradientTransform="scale(0.915489,1.0923124)" gradientUnits="userSpaceOnUse"><stop id="stop3284" offset="0" stop-color="#000" stop-opacity=".863"/><stop id="stop3286" offset="1" stop-color="#000" stop-opacity=".471"/></linearGradient><linearGradient id="linearGradient3627" x1="8.738" x2="8.738" y1="1.845" y2="12.803" gradientTransform="matrix(0.915489,0,0,1.0923124,-20,0)" gradientUnits="userSpaceOnUse" xlink:href="#StandardGradient"/><clipPath id="clipPath3640" clipPathUnits="userSpaceOnUse"><path id="path3642" fill="#f0f" fill-opacity="1" stroke="none" d="m -20,0 0,16 16,0 0,-16 -16,0 z m 5.96875,2.03125 4.0625,0 -0.03125,3.9375 3,0 -5,8.03125 -5,-8.03125 2.96875,0 0,-3.9375 z" display="inline"/></clipPath><linearGradient id="linearGradient2841" x1="8.738" x2="8.738" y1="1.845" y2="12.803" gradientTransform="matrix(0.915489,0,0,1.0923124,0,-1)" gradientUnits="userSpaceOnUse" xlink:href="#StandardGradient"/><linearGradient id="linearGradient2849" x1="8.738" x2="8.738" y1="1.845" y2="14.648" gradientTransform="matrix(0.915489,0,0,1.0923124,0,-1)" gradientUnits="userSpaceOnUse" xlink:href="#StandardGradient"/><linearGradient id="linearGradient3625" x1="8.738" x2="8.738" y1="1.845" y2="14.648" gradientTransform="scale(0.915489,1.0923124)" gradientUnits="userSpaceOnUse" xlink:href="#StandardGradient"/><linearGradient id="linearGradient3629" x1="8.738" x2="8.738" y1="1.845" y2="14.648" gradientTransform="matrix(0.915489,0,0,1.0923124,0,-1)" gradientUnits="userSpaceOnUse" xlink:href="#StandardGradient"/><linearGradient id="linearGradient3634" x1="8.738" x2="8.738" y1="1.845" y2="14.648" gradientTransform="matrix(0.915489,0,0,1.0923124,-20,-1)" gradientUnits="userSpaceOnUse" xlink:href="#StandardGradient"/><clipPath id="clipPath3643" clipPathUnits="userSpaceOnUse"><path id="path3645" fill="#f0f" fill-opacity="1" stroke="none" d="m -20,0 0,16 16,0 0,-16 -16,0 z m 5.96875,1.03125 4.0625,0 0,3.9375 2.96875,0 -5,8.03125 5,0 0,2 -10,0 0,-2 5,0 -5,-8.03125 2.96875,0 0,-3.9375 z" display="inline"/></clipPath><filter id="filter3647"><feGaussianBlur id="feGaussianBlur3649" stdDeviation=".36"/></filter><linearGradient id="linearGradient4993" x1="8.738" x2="8.738" y1="1.845" y2="14.648" gradientTransform="matrix(0.915489,0,0,1.0923124,0,-1)" gradientUnits="userSpaceOnUse" xlink:href="#StandardGradient"/><linearGradient id="linearGradient4997" x1="8.738" x2="8.738" y1="1.845" y2="14.648" gradientTransform="matrix(0.915489,0,0,1.0923124,0,-1)" gradientUnits="userSpaceOnUse" xlink:href="#StandardGradient"/></defs><metadata id="metadata7"/><g id="layer4" display="inline"><path id="path4995" fill="#fff" fill-opacity="1" stroke="none" d="M 5.78125 0.03125 A 0.99359666 0.99359666 0 0 0 4.96875 1.03125 L 4.96875 3.96875 L 3 3.96875 A 0.99359666 0.99359666 0 0 0 2.15625 5.5 L 6.1875 12 L 3 12 A 0.99359666 0.99359666 0 0 0 2 13 L 2 15 A 0.99359666 0.99359666 0 0 0 3 16 L 13 16 A 0.99359666 0.99359666 0 0 0 14 15 L 14 13 A 0.99359666 0.99359666 0 0 0 13 12 L 9.8125 12 L 13.84375 5.5 A 0.99359666 0.99359666 0 0 0 13 3.96875 L 11.03125 3.96875 L 11.03125 1.03125 A 0.99359666 0.99359666 0 0 0 10.03125 0.03125 L 5.96875 0.03125 A 0.99359666 0.99359666 0 0 0 5.875 0.03125 A 0.99359666 0.99359666 0 0 0 5.78125 0.03125 z M 5.96875 1.03125 L 10.03125 1.03125 L 10.03125 4.96875 L 13 4.96875 L 8 13 L 13 13 L 13 15 L 3 15 L 3 13 L 8 13 L 3 4.96875 L 5.96875 4.96875 L 5.96875 1.03125 z" display="inline" opacity=".15"/><path id="Symbol" fill="url(#linearGradient2849)" fill-opacity="1" stroke="none" d="M 5.96875 1.03125 L 5.96875 4.96875 L 3 4.96875 L 8 13 L 13 4.96875 L 10.03125 4.96875 L 10.03125 1.03125 L 5.96875 1.03125 z M 8 13 L 3 13 L 3 15 L 13 15 L 13 13 L 8 13 z" display="inline"/><path id="BevelShadow" fill="#000" fill-opacity="1" stroke="none" d="M 5.96875 1 L 5.96875 2.03125 L 10.03125 2.03125 L 10.03125 1 L 5.96875 1 z M 3 4.96875 L 3.65625 6 L 5.96875 6 L 5.96875 4.96875 L 3 4.96875 z M 10 4.96875 L 10 6 L 12.34375 6 L 13 4.96875 L 10 4.96875 z M 3 13 L 3 14 L 13 14 L 13 13 L 3 13 z" display="inline" opacity=".5"/><path id="path3623" fill="#fff" fill-opacity="1" stroke="none" d="M 3 5.96875 L 7.375 13 L 8 13 L 3.625 5.96875 L 3 5.96875 z M 8 13 L 8.625 13 L 13 5.96875 L 12.375 5.96875 L 8 13 z M 3 15 L 3 16 L 13 16 L 13 15 L 3 15 z" display="inline" opacity=".3"/></g></svg>