<svg xmlns="http://www.w3.org/2000/svg" xmlns:svg="http://www.w3.org/2000/svg" xmlns:xlink="http://www.w3.org/1999/xlink" id="svg2" width="16" height="16" version="1.0"><defs id="defs4"><linearGradient id="StandardGradient" x1="8.738" x2="8.738" y1="1.845" y2="12.803" gradientTransform="scale(0.915489,1.0923124)" gradientUnits="userSpaceOnUse"><stop id="stop3284" offset="0" stop-color="#000" stop-opacity=".863"/><stop id="stop3286" offset="1" stop-color="#000" stop-opacity=".471"/></linearGradient><linearGradient id="linearGradient3627" x1="8.738" x2="8.738" y1="1.845" y2="12.803" gradientTransform="matrix(0.915489,0,0,1.0923124,-20,0)" gradientUnits="userSpaceOnUse" xlink:href="#StandardGradient"/><clipPath id="clipPath3640" clipPathUnits="userSpaceOnUse"><path id="path3642" fill="#f0f" fill-opacity="1" stroke="none" d="m -20,0 0,16 16,0 0,-16 -16,0 z m 5.96875,2.03125 4.0625,0 -0.03125,3.9375 3,0 -5,8.03125 -5,-8.03125 2.96875,0 0,-3.9375 z" display="inline"/></clipPath><filter id="filter3648"><feGaussianBlur id="feGaussianBlur3650" stdDeviation=".33"/></filter><linearGradient id="linearGradient4474" x1="8.738" x2="8.738" y1="1.845" y2="12.803" gradientTransform="scale(0.915489,1.0923124)" gradientUnits="userSpaceOnUse" xlink:href="#StandardGradient"/><linearGradient id="linearGradient4478" x1="8.738" x2="8.738" y1="1.845" y2="12.803" gradientTransform="scale(0.915489,1.0923124)" gradientUnits="userSpaceOnUse" xlink:href="#StandardGradient"/></defs><metadata id="metadata7"/><g id="layer4" display="inline"><path id="path4476" fill="#fff" fill-opacity="1" stroke="none" d="M 5.78125 1.03125 A 1.0087443 1.0087443 0 0 0 4.96875 2.03125 L 4.96875 4.96875 L 3 4.96875 A 1.0087443 1.0087443 0 0 0 2.15625 6.5 L 7.15625 14.53125 A 1.0087443 1.0087443 0 0 0 8.84375 14.53125 L 13.84375 6.5 A 1.0087443 1.0087443 0 0 0 13 4.96875 L 11.03125 4.96875 L 11.03125 2.03125 A 1.0087443 1.0087443 0 0 0 10.03125 1.03125 L 5.96875 1.03125 A 1.0087443 1.0087443 0 0 0 5.78125 1.03125 z M 5.96875 2 L 10.03125 2 L 10 5.96875 L 13 5.96875 L 8 14 L 3 5.96875 L 5.96875 5.96875 L 5.96875 2 z" display="inline" opacity=".15"/><path id="Symbol" fill="url(#StandardGradient)" fill-opacity="1" stroke="none" stroke-dasharray="none" stroke-linecap="round" stroke-linejoin="miter" stroke-miterlimit="4" stroke-opacity="1" stroke-width="1" d="M 13.015625,5.9718049 L 8.0129199,13.984375 L 2.984375,5.9718049 L 5.979194,5.9718049 L 5.979194,2.015625 L 10.02316,2.015625 L 10.015625,5.9718049 L 13.015625,5.9718049 z" display="inline" opacity="1"/><path id="BevelShadow" fill="#000" fill-opacity="1" stroke="none" stroke-dasharray="none" stroke-linecap="round" stroke-linejoin="miter" stroke-miterlimit="4" stroke-opacity="1" stroke-width="1" d="M 5.96875 2 L 5.96875 3.03125 L 10.03125 3.03125 L 10.03125 2 L 5.96875 2 z M 3 5.96875 L 3.65625 7 L 5.96875 7 L 5.96875 5.96875 L 3 5.96875 z M 10 5.96875 L 10 7 L 12.34375 7 L 13 5.96875 L 10 5.96875 z" display="inline" opacity=".5"/><path id="BevelHighlight" fill="#fff" fill-opacity="1" stroke="none" stroke-dasharray="none" stroke-linecap="round" stroke-linejoin="miter" stroke-miterlimit="4" stroke-opacity="1" stroke-width="1" d="M 3 5.96875 L 3 7 L 8 15 L 13 7 L 13 5.96875 L 8 14 L 3 5.96875 z" display="inline" opacity=".3"/></g></svg>