<svg xmlns="http://www.w3.org/2000/svg" xmlns:svg="http://www.w3.org/2000/svg" xmlns:xlink="http://www.w3.org/1999/xlink" id="svg2" width="16" height="16" version="1.0"><defs id="defs4"><linearGradient id="StandardGradient" x1="7.639" x2="7.639" y1="3.26" y2="14.224" gradientTransform="matrix(-1.0923124,0,0,0.915489,16.03125,0)" gradientUnits="userSpaceOnUse"><stop id="stop3284" offset="0" stop-color="#000" stop-opacity=".863"/><stop id="stop3286" offset="1" stop-color="#000" stop-opacity=".471"/></linearGradient><linearGradient id="linearGradient3626" x1="7.639" x2="7.639" y1="3.26" y2="14.224" gradientTransform="matrix(-1.0923124,0,0,0.915489,-3.96875,0)" gradientUnits="userSpaceOnUse" xlink:href="#StandardGradient"/><clipPath id="clipPath3633" clipPathUnits="userSpaceOnUse"><path id="path3635" fill="#f0f" fill-opacity="1" stroke="none" d="m -20,0 0,16 16,0 0,-16 -16,0 z m 10.03125,3 0,2.96875 3.96875,0 0,4.0625 -3.96875,0 0,2.96875 -8,-5 8,-5 z" display="inline"/></clipPath><linearGradient id="linearGradient2841" x1="7.639" x2="7.639" y1="3.26" y2="14.224" gradientTransform="matrix(-1.0923124,0,0,0.915489,17.03125,0)" gradientUnits="userSpaceOnUse" xlink:href="#StandardGradient"/><linearGradient id="linearGradient2854" x1="7.639" x2="7.639" y1="3.26" y2="14.224" gradientTransform="matrix(-1.0923124,0,0,0.915489,-2.96875,0)" gradientUnits="userSpaceOnUse" xlink:href="#StandardGradient"/><clipPath id="clipPath2861" clipPathUnits="userSpaceOnUse"><path id="path2863" fill="#f0f" fill-opacity="1" stroke="none" d="m -20,0 0,16 16,0 0,-16 -16,0 z m 1,3 2,0 0,10 -2,0 0,-10 z m 10.03125,0 0,2.96875 3.96875,0 0,4.0625 -3.96875,0 0,2.96875 -8,-5 8,-5 z" display="inline"/></clipPath><filter id="filter3638"><feGaussianBlur id="feGaussianBlur3640" stdDeviation=".36"/></filter><linearGradient id="linearGradient3955" x1="7.639" x2="7.639" y1="3.26" y2="14.224" gradientTransform="matrix(-1.0923124,0,0,0.915489,17.03125,0)" gradientUnits="userSpaceOnUse" xlink:href="#StandardGradient"/><linearGradient id="linearGradient3959" x1="7.639" x2="7.639" y1="3.26" y2="14.224" gradientTransform="matrix(-1.0923124,0,0,0.915489,17.03125,0)" gradientUnits="userSpaceOnUse" xlink:href="#StandardGradient"/></defs><metadata id="metadata7"/><g id="layer4" display="inline"><path id="path3957" fill="#fff" fill-opacity="1" stroke="none" d="M 0.8125 2.03125 A 0.96929449 0.96929449 0 0 0 0.03125 3 L 0.03125 13 A 0.96929449 0.96929449 0 0 0 1 13.96875 L 3 13.96875 A 0.96929449 0.96929449 0 0 0 3.96875 13 L 3.96875 9.71875 L 10.53125 13.8125 A 0.96929449 0.96929449 0 0 0 12 13 L 12 11 L 15 11 A 0.96929449 0.96929449 0 0 0 15.96875 10.03125 L 15.96875 5.96875 A 0.96929449 0.96929449 0 0 0 15 5 L 12 5 L 12 3 A 0.96929449 0.96929449 0 0 0 10.53125 2.1875 L 3.96875 6.28125 L 3.96875 3 A 0.96929449 0.96929449 0 0 0 3 2.03125 L 1 2.03125 A 0.96929449 0.96929449 0 0 0 0.90625 2.03125 A 0.96929449 0.96929449 0 0 0 0.8125 2.03125 z M 1 3 L 3 3 L 3 13 L 1 13 L 1 3 z M 11.03125 3 L 11.03125 5.96875 L 15 5.96875 L 15 10.03125 L 11.03125 10.03125 L 11.03125 13 L 3.03125 8 L 11.03125 3 z" display="inline" opacity=".15"/><path id="Symbol" fill="url(#linearGradient2841)" fill-opacity="1" stroke="none" d="M 1 3 L 1 13 L 3 13 L 3 3 L 1 3 z M 11.03125 3 L 3.03125 8 L 11.03125 13 L 11.03125 10.03125 L 15 10.03125 L 15 5.96875 L 11.03125 5.96875 L 11.03125 3 z" display="inline"/><path id="BevelShadow" fill="#000" fill-opacity="1" stroke="none" d="M 1 3 L 1 4 L 3 4 L 3 3 L 1 3 z M 11.03125 3 L 3.03125 8 L 3.8125 8.5 L 11.03125 3.96875 L 11.03125 3 z M 15 5.96875 L 11.03125 6 L 11.03125 6.96875 L 15 6.96875 L 15 5.96875 z" display="inline" opacity=".5"/><path id="BevelHighlight" fill="#fff" fill-opacity="1" stroke="none" d="M 3.03125 8 L 3.03125 8.96875 L 11.03125 14 L 11.03125 13 L 3.03125 8 z M 11.03125 10.03125 L 11.03125 11 L 15 11 L 15 10.03125 L 11.03125 10.03125 z M 1 13 L 1 14 L 3 14 L 3 13 L 1 13 z" display="inline" opacity=".3"/></g></svg>