<svg xmlns="http://www.w3.org/2000/svg" xmlns:svg="http://www.w3.org/2000/svg" xmlns:xlink="http://www.w3.org/1999/xlink" id="svg2" width="16" height="16" version="1.0"><defs id="defs4"><linearGradient id="linearGradient3799" x1="6.124" x2="6.124" y1="2.172" y2="15.167" gradientTransform="matrix(1.0781072,0,0,0.9240919,2.7412861e-2,-7.1073046e-3)" gradientUnits="userSpaceOnUse"><stop id="stop3801" offset="0" stop-color="#000" stop-opacity=".863"/><stop id="stop3803" offset="1" stop-color="#646464" stop-opacity="1"/></linearGradient><clipPath id="clipPath3634" clipPathUnits="userSpaceOnUse"><path id="path3636" fill="#f0f" fill-opacity="1" stroke="none" d="m -20,0 0,16 16,0 0,-16 -16,0 z m 8,2 3,3.0625 0,-1.03125 1,0 L -8,6 l 3,3.0625 -2.0625,0 0,4.9375 -9.9375,0 0,-4.96875 -2,0 L -12,2 z" display="inline"/></clipPath><filter id="filter3638"><feGaussianBlur id="feGaussianBlur3640" stdDeviation=".39"/></filter><linearGradient id="linearGradient3012" x1="6.124" x2="6.124" y1="2.172" y2="15.167" gradientTransform="matrix(1.0781072,0,0,0.9240919,0.0274129,-0.0071073)" gradientUnits="userSpaceOnUse" xlink:href="#StandardGradient"/><linearGradient id="StandardGradient-6" x1="8.738" x2="8.738" y1="1.845" y2="12.803" gradientTransform="scale(0.915489,1.0923124)" gradientUnits="userSpaceOnUse"><stop id="stop3284" offset="0" stop-color="#000" stop-opacity=".863"/><stop id="stop3286" offset="1" stop-color="#000" stop-opacity=".471"/></linearGradient><linearGradient id="linearGradient3034" x1="8.738" x2="8.738" y1="1.845" y2="14.648" gradientTransform="matrix(0.915489,0,0,1.0923124,-16,3)" gradientUnits="userSpaceOnUse" xlink:href="#StandardGradient-6"/><linearGradient id="linearGradient2849" x1="8.738" x2="8.738" y1="1.845" y2="14.648" gradientTransform="matrix(0.915489,0,0,1.0923124,0,-1)" gradientUnits="userSpaceOnUse" xlink:href="#StandardGradient"/><linearGradient id="StandardGradient" x1="8.738" x2="8.738" y1="1.845" y2="12.803" gradientTransform="scale(0.915489,1.0923124)" gradientUnits="userSpaceOnUse"><stop id="stop3284-4" offset="0" stop-color="#000" stop-opacity=".863"/><stop id="stop3286-8" offset="1" stop-color="#000" stop-opacity=".471"/></linearGradient><linearGradient id="linearGradient3034-3" x1="8.738" x2="8.738" y1="1.845" y2="14.648" gradientTransform="matrix(0.915489,0,0,1.0923124,-17,-2)" gradientUnits="userSpaceOnUse" xlink:href="#StandardGradient"/><linearGradient id="linearGradient3021" x1="6.124" x2="6.124" y1="2.172" y2="15.167" gradientTransform="matrix(1.0781072,0,0,0.9240919,0.0274129,-0.0071073)" gradientUnits="userSpaceOnUse" xlink:href="#StandardGradient"/><linearGradient id="linearGradient3025" x1="6.124" x2="6.124" y1="2.172" y2="15.167" gradientTransform="matrix(1.0781072,0,0,0.9240919,0.0274129,-0.0071073)" gradientUnits="userSpaceOnUse" xlink:href="#StandardGradient"/></defs><metadata id="metadata7"/><g id="layer1"><path id="path3023" fill="#fff" fill-opacity="1" stroke="none" d="M 7.8125 1.03125 A 0.97294135 0.97294135 0 0 0 7.3125 1.3125 L 0.3125 8.34375 A 0.97294135 0.97294135 0 0 0 1 10 L 2.03125 10 L 2.03125 14 A 0.97294135 0.97294135 0 0 0 3 14.96875 L 12.9375 14.96875 A 0.97294135 0.97294135 0 0 0 13.90625 14 L 13.90625 10.03125 L 15 10.03125 A 0.97294135 0.97294135 0 0 0 15.6875 8.375 L 12.96875 5.59375 L 12.96875 4.03125 A 0.97294135 0.97294135 0 0 0 12 3.0625 L 11 3.0625 A 0.97294135 0.97294135 0 0 0 10.53125 3.1875 L 8.6875 1.3125 A 0.97294135 0.97294135 0 0 0 7.90625 1.03125 A 0.97294135 0.97294135 0 0 0 7.8125 1.03125 z M 8 2 L 11 5.0625 L 11 4.03125 L 12 4.03125 L 12 6 L 15 9.0625 L 12.9375 9.0625 L 12.9375 14 L 3 14 L 3 9.03125 L 1 9.03125 L 8 2 z" display="inline" opacity=".15"/><path id="Symbol" fill="url(#linearGradient3012)" fill-opacity="1" stroke="none" d="M 7.9885788,2 1,9.0361458 l 1.9900011,0 0,4.9638542 9.9514909,0 0,-4.9412067 2.058508,0 -2.996781,-3.0591214 0.0093,-1.9691754 -1.010306,0 0,1.0227156 L 7.9885788,2 z" display="inline"/><path id="BevelShadow" fill="#000" fill-opacity="1" stroke="none" stroke-dasharray="none" stroke-linecap="round" stroke-linejoin="miter" stroke-miterlimit="4" stroke-opacity="1" stroke-width="1" d="M 8 2 L 1 9.03125 L 2 9.03125 L 8 3 L 11 6.0625 L 11 5.0625 L 11 5.03125 L 8 2 z M 11 5.03125 L 12 5.03125 L 12 4.03125 L 11 4.03125 L 11 5.03125 z M 12 6 L 12 7 L 14.03125 9.0625 L 15 9.0625 L 12 6 z" display="inline" opacity=".5"/><path id="BevelHighlight" fill="#fff" fill-opacity="1" stroke="none" d="m 1,9.03125 0,1 2,0 0,-1 -2,0 z m 11.9375,0.03125 0,1 2.0625,0 0,-1 -2.0625,0 z M 3,14 l 0,1 9.9375,0 0,-1 L 3,14 z" display="inline" opacity=".3"/></g></svg>