<svg xmlns="http://www.w3.org/2000/svg" xmlns:svg="http://www.w3.org/2000/svg" xmlns:xlink="http://www.w3.org/1999/xlink" id="svg2" width="16" height="16" version="1.0"><defs id="defs4"><linearGradient id="StandardGradient" x1="7.19" x2="7.19" y1="6.955" y2="18.319" gradientTransform="scale(1.1467263,0.8720476)" gradientUnits="userSpaceOnUse"><stop id="stop3280" offset="0" stop-color="#000" stop-opacity=".863"/><stop id="stop3282" offset="1" stop-color="#000" stop-opacity=".471"/></linearGradient><linearGradient id="linearGradient3627" x1="7.19" x2="7.19" y1="6.955" y2="18.319" gradientTransform="matrix(1.1467263,0,0,0.8720476,-20,0)" gradientUnits="userSpaceOnUse" xlink:href="#StandardGradient"/><clipPath id="clipPath3634" clipPathUnits="userSpaceOnUse"><path id="path3636" fill="#f0f" fill-opacity="1" stroke="none" d="m -19.535739,2.999982 0,16 16.0000003,0 0,-16 -16.0000003,0 z m 12.0000003,3.0625 2.03125,0 0,4.625 c 0,1.550514 -1.261986,2.34375 -2.8125,2.34375 l -4.2187503,0 0,2.9375 -6,-3.96875 6,-4.09375 0,3.0625 3.0312503,0 c 1.792454,0 1.96875,-0.332819 1.96875,-2.1875 l 0,-2.71875 z" display="inline"/></clipPath><linearGradient id="linearGradient2843" x1="7.19" x2="7.19" y1="6.955" y2="18.319" gradientTransform="matrix(1.1467263,0,0,-0.8720476,0,15.040219)" gradientUnits="userSpaceOnUse" xlink:href="#StandardGradient"/><linearGradient id="linearGradient2845" x1="7.19" x2="7.19" y1="6.955" y2="18.319" gradientTransform="matrix(1.1467263,0,0,0.8720476,-0.4642613,-2.999982)" gradientUnits="userSpaceOnUse" xlink:href="#StandardGradient"/><linearGradient id="linearGradient2848" x1="7.19" x2="7.19" y1="6.955" y2="18.319" gradientTransform="matrix(1.1467263,0,0,0.8720476,2.5357387,1.8e-5)" gradientUnits="userSpaceOnUse" xlink:href="#StandardGradient"/><linearGradient id="linearGradient2853" x1="7.19" x2="7.19" y1="2.268" y2="17.203" gradientTransform="matrix(1.1467263,0,0,0.8720476,2.5357387,1.8e-5)" gradientUnits="userSpaceOnUse" xlink:href="#StandardGradient"/><linearGradient id="linearGradient2859" x1="7.19" x2="7.19" y1="2.268" y2="17.203" gradientTransform="matrix(1.1467263,0,0,0.8720476,3,4)" gradientUnits="userSpaceOnUse" xlink:href="#StandardGradient"/><linearGradient id="linearGradient2861" x1="7.19" x2="7.19" y1="2.268" y2="17.203" gradientTransform="matrix(1.1467263,0,0,0.8720476,2.5357387,1.8e-5)" gradientUnits="userSpaceOnUse" xlink:href="#StandardGradient"/><linearGradient id="linearGradient3639" x1="7.19" x2="7.19" y1="2.268" y2="17.203" gradientTransform="matrix(1.1467263,0,0,0.8720476,2.5357387,1.000018)" gradientUnits="userSpaceOnUse" xlink:href="#StandardGradient"/><linearGradient id="linearGradient3643" x1="7.19" x2="7.19" y1="2.268" y2="17.203" gradientTransform="matrix(1.1467263,0,0,0.8720476,3,3)" gradientUnits="userSpaceOnUse" xlink:href="#StandardGradient"/><linearGradient id="linearGradient3648" x1="7.19" x2="7.19" y1="2.268" y2="17.203" gradientTransform="matrix(1.1467263,0,0,0.8720476,-17,3)" gradientUnits="userSpaceOnUse" xlink:href="#StandardGradient"/><clipPath id="clipPath3655" clipPathUnits="userSpaceOnUse"><path id="path3657" fill="#f0f" fill-opacity="1" stroke="none" d="m -19.535739,2.999982 0,16 16.0000003,0 0,-16 -16.0000003,0 z m 10.0000003,2 2.21875,0 c 1.550514,0 2.8125,0.7932358 2.8125,2.34375 l 0,1.71875 0,2.90625 0,1.71875 c 0,1.550514 -1.261986,2.34375 -2.8125,2.34375 l -2.21875,0 0,1.9375 -5.0000003,-2.96875 5.0000003,-3.09375 0,2.0625 1.03125,0 c 1.717999,0 1.95185,-0.340571 1.96875,-2 l 0,-0.1875 0,-2.5 c 0,-0.087466 9.62e-4,-0.137873 0,-0.21875 -0.019431,-1.6340883 -0.260827,-2 -1.96875,-2 l -1.03125,0 0,-2.0625 z m -7.0000003,8.5 c 0.828427,0 1.5,0.671573 1.5,1.5 0,0.828427 -0.671573,1.5 -1.5,1.5 -0.828427,0 -1.5,-0.671573 -1.5,-1.5 0,-0.828427 0.671573,-1.5 1.5,-1.5 z" display="inline"/></clipPath><filter id="filter3659"><feGaussianBlur id="feGaussianBlur3661" stdDeviation=".398"/></filter><linearGradient id="linearGradient5518" x1="7.19" x2="7.19" y1="2.268" y2="17.203" gradientTransform="matrix(1.1467263,0,0,0.8720476,2.5357387,1.8e-5)" gradientUnits="userSpaceOnUse" xlink:href="#StandardGradient"/><linearGradient id="linearGradient5522" x1="7.19" x2="7.19" y1="2.268" y2="17.203" gradientTransform="matrix(1.1467263,0,0,0.8720476,2.5357387,1.8e-5)" gradientUnits="userSpaceOnUse" xlink:href="#StandardGradient"/></defs><metadata id="metadata7"/><g id="layer3" display="inline" transform="translate(-0.4642613,-2.999982)"><path id="path5520" fill="#fff" fill-opacity="1" stroke="none" d="M 9.8125 1.03125 A 0.96718398 0.96718398 0 0 0 9.03125 2 L 9.03125 4.0625 A 0.96718398 0.96718398 0 0 0 10 5.03125 L 11.03125 5.03125 C 11.816147 5.03125 11.980599 5.1711366 11.9375 5.125 C 11.894401 5.0788634 12.02209 5.2922086 12.03125 6.0625 C 12.032064 6.1309313 12.03125 6.1866931 12.03125 6.28125 L 12.03125 8.78125 L 12.03125 8.96875 C 12.023256 9.7537171 11.886179 9.9920356 11.9375 9.9375 C 11.988821 9.8829644 11.826345 10 11.03125 10 L 10.96875 10 L 10.96875 8.90625 A 0.96718398 0.96718398 0 0 0 9.5 8.09375 L 5 10.875 C 4.5745926 10.123719 3.9158958 9.53125 3 9.53125 C 1.64892 9.53125 0.53125 10.64892 0.53125 12 C 0.53125 13.35108 1.64892 14.46875 3 14.46875 C 3.9055738 14.46875 4.570898 13.893717 5 13.15625 L 9.5 15.8125 A 0.96718398 0.96718398 0 0 0 10.96875 14.96875 L 10.96875 14 L 12.21875 14 C 13.158926 14 14.055915 13.777192 14.78125 13.21875 C 15.506585 12.660308 16 11.725132 16 10.6875 L 16 8.96875 L 16 6.0625 L 16 4.34375 C 16 3.3061174 15.506585 2.3709424 14.78125 1.8125 C 14.055915 1.2540576 13.158926 1.03125 12.21875 1.03125 L 10 1.03125 A 0.96718398 0.96718398 0 0 0 9.90625 1.03125 A 0.96718398 0.96718398 0 0 0 9.8125 1.03125 z M 10 2 L 12.21875 2 C 13.769264 2 15.03125 2.7932358 15.03125 4.34375 L 15.03125 6.0625 L 15.03125 8.96875 L 15.03125 10.6875 C 15.03125 12.238014 13.769264 13.03125 12.21875 13.03125 L 10 13.03125 L 10 14.96875 L 5 12 L 10 8.90625 L 10 10.96875 L 11.03125 10.96875 C 12.749249 10.96875 12.9831 10.628179 13 8.96875 L 13 8.78125 L 13 6.28125 C 13 6.1937842 13.000962 6.143377 13 6.0625 C 12.980569 4.4284117 12.739173 4.0625 11.03125 4.0625 L 10 4.0625 L 10 2 z M 3 10.5 C 3.8284271 10.5 4.5 11.171573 4.5 12 C 4.5 12.828427 3.8284271 13.5 3 13.5 C 2.1715729 13.5 1.5 12.828427 1.5 12 C 1.5 11.171573 2.1715729 10.5 3 10.5 z" display="inline" opacity=".15" transform="translate(0.4642613,2.999982)"/><path id="Symbol" fill="url(#linearGradient2853)" fill-opacity="1" stroke="none" d="M 10 2 L 10 4.0625 L 11.03125 4.0625 C 12.739173 4.0625 12.980569 4.4284117 13 6.0625 C 13.000962 6.143377 13 6.1937842 13 6.28125 L 13 8.78125 L 13 8.96875 C 12.9831 10.628179 12.749249 10.96875 11.03125 10.96875 L 10 10.96875 L 10 8.90625 L 5 12 L 10 14.96875 L 10 13.03125 L 12.21875 13.03125 C 13.769264 13.03125 15.03125 12.238014 15.03125 10.6875 L 15.03125 8.96875 L 15.03125 6.0625 L 15.03125 4.34375 C 15.03125 2.7932358 13.769264 2 12.21875 2 L 10 2 z M 3 10.5 C 2.1715729 10.5 1.5 11.171573 1.5 12 C 1.5 12.828427 2.1715729 13.5 3 13.5 C 3.8284271 13.5 4.5 12.828427 4.5 12 C 4.5 11.171573 3.8284271 10.5 3 10.5 z" display="inline" transform="translate(0.4642613,2.999982)"/><path id="path2855" fill="#000" fill-opacity="1" stroke="none" d="M 10 2 L 10 3 L 12.21875 3 C 13.769264 3 15.03125 3.7932358 15.03125 5.34375 L 15.03125 4.34375 C 15.03125 2.7932358 13.769264 2 12.21875 2 L 10 2 z M 10 8.90625 L 5 12 L 5.8125 12.5 L 10 9.90625 L 10 8.90625 z M 13 8.96875 C 12.9831 10.628179 12.749249 10.96875 11.03125 10.96875 L 10 10.96875 L 10 11.96875 L 11.03125 11.96875 C 12.749249 11.96875 12.9831 11.628179 13 9.96875 L 13 9.78125 L 13 8.96875 z M 3 10.5 C 2.1715729 10.5 1.5 11.171573 1.5 12 C 1.5 12.172589 1.540108 12.345681 1.59375 12.5 C 1.7975898 11.913588 2.3441619 11.5 3 11.5 C 3.6558381 11.5 4.2024102 11.913588 4.40625 12.5 C 4.459892 12.345681 4.5 12.172589 4.5 12 C 4.5 11.171573 3.8284271 10.5 3 10.5 z" display="inline" opacity=".5" transform="translate(0.4642613,2.999982)"/><path id="path3637" fill="#fff" fill-opacity="1" stroke="none" d="M 10 4.0625 L 10 5.0625 L 11.03125 5.0625 C 12.739173 5.0625 12.980569 5.4284117 13 7.0625 L 13 6.28125 C 13 6.193784 13.000962 6.14338 13 6.0625 C 12.980569 4.4284117 12.739173 4.0625 11.03125 4.0625 L 10 4.0625 z M 15.03125 10.6875 C 15.03125 12.238014 13.769264 13.03125 12.21875 13.03125 L 10 13.03125 L 10 14.03125 L 12.21875 14.03125 C 13.769264 14.03125 15.03125 13.238014 15.03125 11.6875 L 15.03125 10.6875 z M 1.59375 12.5 C 1.540108 12.654319 1.5 12.827411 1.5 13 C 1.5 13.828427 2.1715729 14.5 3 14.5 C 3.8284271 14.5 4.5 13.828427 4.5 13 C 4.5 12.827411 4.459892 12.654319 4.40625 12.5 C 4.2024102 13.086412 3.6558381 13.5 3 13.5 C 2.3441619 13.5 1.7975898 13.086412 1.59375 12.5 z M 5.8125 12.5 L 5 13 L 10 15.96875 L 10 14.96875 L 5.8125 12.5 z" display="inline" opacity=".3" transform="translate(0.4642613,2.999982)"/></g></svg>