<svg xmlns="http://www.w3.org/2000/svg" xmlns:svg="http://www.w3.org/2000/svg" xmlns:xlink="http://www.w3.org/1999/xlink" id="svg2" width="16" height="16" version="1.0"><defs id="defs4"><linearGradient id="StandardGradient" x1="7.639" x2="7.639" y1="3.26" y2="14.224" gradientTransform="scale(1.0923124,0.915489)" gradientUnits="userSpaceOnUse"><stop id="stop3284" offset="0" stop-color="#000" stop-opacity=".863"/><stop id="stop3286" offset="1" stop-color="#000" stop-opacity=".471"/></linearGradient><linearGradient id="linearGradient3627" x1="7.639" x2="7.639" y1="3.26" y2="14.224" gradientTransform="matrix(1.0923124,0,0,0.915489,-20,0)" gradientUnits="userSpaceOnUse" xlink:href="#StandardGradient"/><clipPath id="clipPath3634" clipPathUnits="userSpaceOnUse"><path id="path3636" fill="#f0f" fill-opacity="1" stroke="none" d="m -20,0 0,16 16,0 0,-16 -16,0 z m 6,3 8,5 -8,5 0,-2.96875 -3.96875,0 0,-4.0625 3.96875,0 L -14,3 z" display="inline"/></clipPath><linearGradient id="linearGradient2841" x1="7.639" x2="7.639" y1="3.26" y2="14.224" gradientTransform="matrix(1.0923124,0,0,0.915489,-1,0)" gradientUnits="userSpaceOnUse" xlink:href="#StandardGradient"/><linearGradient id="linearGradient2853" x1="7.639" x2="7.639" y1="3.26" y2="14.224" gradientTransform="matrix(1.0923124,0,0,0.915489,-1,0)" gradientUnits="userSpaceOnUse" xlink:href="#StandardGradient"/><linearGradient id="linearGradient2859" x1="7.639" x2="7.639" y1="3.26" y2="14.224" gradientTransform="matrix(1.0923124,0,0,0.915489,-1,1)" gradientUnits="userSpaceOnUse" xlink:href="#StandardGradient"/><linearGradient id="linearGradient2861" x1="7.639" x2="7.639" y1="3.26" y2="14.224" gradientTransform="matrix(1.0923124,0,0,0.915489,-1,0)" gradientUnits="userSpaceOnUse" xlink:href="#StandardGradient"/><linearGradient id="linearGradient3639" x1="7.639" x2="7.639" y1="3.26" y2="14.224" gradientTransform="matrix(1.0923124,0,0,0.915489,-21,0)" gradientUnits="userSpaceOnUse" xlink:href="#StandardGradient"/><clipPath id="clipPath3648" clipPathUnits="userSpaceOnUse"><path id="path3650" fill="#f0f" fill-opacity="1" stroke="none" d="m -20,0 0,16 16,0 0,-16 -16,0 z m 5,3 8,5 0,-5 2,0 0,10 -2,0 L -7,8 -7.78125,8.5 -15,13 l 0,-2.96875 -3.96875,0 0,-3.0625 0,-1 3.96875,0 0,-2 L -15,3 z" display="inline"/></clipPath><filter id="filter3652"><feGaussianBlur id="feGaussianBlur3654" stdDeviation=".36"/></filter><linearGradient id="linearGradient4999" x1="7.639" x2="7.639" y1="3.26" y2="14.224" gradientTransform="matrix(1.0923124,0,0,0.915489,-1,0)" gradientUnits="userSpaceOnUse" xlink:href="#StandardGradient"/><linearGradient id="linearGradient5003" x1="7.639" x2="7.639" y1="3.26" y2="14.224" gradientTransform="matrix(1.0923124,0,0,0.915489,-1,0)" gradientUnits="userSpaceOnUse" xlink:href="#StandardGradient"/></defs><metadata id="metadata7"/><g id="layer4" display="inline"><path id="path5001" fill="#fff" fill-opacity="1" stroke="none" d="M 4.84375 1.96875 A 1.0303793 1.0303793 0 0 0 3.96875 3 L 3.96875 3.96875 L 3.96875 4.9375 L 1.03125 4.9375 A 1.0303793 1.0303793 0 0 0 0 5.96875 L 0 6.96875 L 0 10.03125 A 1.0303793 1.0303793 0 0 0 1.03125 11.0625 L 3.96875 11.0625 L 3.96875 13 A 1.0303793 1.0303793 0 0 0 5.53125 13.875 L 11.96875 9.875 L 11.96875 13 A 1.0303793 1.0303793 0 0 0 13 14.03125 L 15 14.03125 A 1.0303793 1.0303793 0 0 0 16.03125 13 L 16.03125 3 A 1.0303793 1.0303793 0 0 0 15 1.96875 L 13 1.96875 A 1.0303793 1.0303793 0 0 0 11.96875 3 L 11.96875 6.15625 L 5.53125 2.125 A 1.0303793 1.0303793 0 0 0 4.84375 1.96875 z M 5 3 L 13 8 L 13 3 L 15 3 L 15 13 L 13 13 L 13 8 L 12.21875 8.5 L 5 13 L 5 10.03125 L 1.03125 10.03125 L 1.03125 6.96875 L 1.03125 5.96875 L 5 5.96875 L 5 3.96875 L 5 3 z" display="inline" opacity=".15"/><path id="Symbol" fill="url(#linearGradient2853)" fill-opacity="1" stroke="none" d="m 5,3 0,0.96875 0,2 -3.96875,0 0,1 0,3.0625 3.96875,0 L 5,13 12.21875,8.5 13,8 5,3 z m 8,5 0,5 2,0 0,-10 -2,0 0,5 z" display="inline"/><path id="BevelHighlight" fill="#fff" fill-opacity="1" stroke="none" d="M 13 8 L 5 13 L 5 14 L 13 8.96875 L 13 8 z M 1.03125 10.03125 L 1.03125 11 L 5 11 L 5 10.03125 L 1.03125 10.03125 z M 13 13 L 13 14 L 15 14 L 15 13 L 13 13 z" display="inline" opacity=".3"/><path id="path2855" fill="#000" fill-opacity="1" stroke="none" d="M 5 3 L 5 3.96875 L 5 4 L 12.21875 8.5 L 13 8 L 5 3 z M 13 3 L 13 4 L 15 4 L 15 3 L 13 3 z M 1.03125 5.96875 L 1.03125 6.96875 L 5 6.96875 L 5 5.96875 L 1.03125 5.96875 z" display="inline" opacity=".5"/></g></svg>