<svg xmlns="http://www.w3.org/2000/svg" xmlns:svg="http://www.w3.org/2000/svg" xmlns:xlink="http://www.w3.org/1999/xlink" id="svg2" width="16" height="16" version="1.0"><defs id="defs4"><linearGradient id="StandardGradient" x1="7.639" x2="7.639" y1="3.26" y2="14.224" gradientTransform="scale(1.0923124,0.915489)" gradientUnits="userSpaceOnUse"><stop id="stop3284" offset="0" stop-color="#000" stop-opacity=".863"/><stop id="stop3286" offset="1" stop-color="#000" stop-opacity=".471"/></linearGradient><linearGradient id="linearGradient3627" x1="7.639" x2="7.639" y1="3.26" y2="14.224" gradientTransform="matrix(1.0923124,0,0,0.915489,-20,0)" gradientUnits="userSpaceOnUse" xlink:href="#StandardGradient"/><clipPath id="clipPath3634" clipPathUnits="userSpaceOnUse"><path id="path3636" fill="#f0f" fill-opacity="1" stroke="none" d="m -20,0 0,16 16,0 0,-16 -16,0 z m 6,3 8,5 -8,5 0,-2.96875 -3.96875,0 0,-4.0625 3.96875,0 L -14,3 z" display="inline"/></clipPath><filter id="filter3638"><feGaussianBlur id="feGaussianBlur3640" stdDeviation=".33"/></filter><linearGradient id="linearGradient4480" x1="7.639" x2="7.639" y1="3.26" y2="14.224" gradientTransform="scale(1.0923124,0.915489)" gradientUnits="userSpaceOnUse" xlink:href="#StandardGradient"/><linearGradient id="linearGradient4484" x1="7.639" x2="7.639" y1="3.26" y2="14.224" gradientTransform="scale(1.0923124,0.915489)" gradientUnits="userSpaceOnUse" xlink:href="#StandardGradient"/></defs><metadata id="metadata7"/><g id="layer4" display="inline"><path id="path4482" fill="#fff" fill-opacity="1" stroke="none" d="M 5.875 2.03125 A 0.97219103 0.97219103 0 0 0 5.03125 3 L 5.03125 5 L 2.03125 5 A 0.97219103 0.97219103 0 0 0 1.0625 5.96875 L 1.0625 10.03125 A 0.97219103 0.97219103 0 0 0 2.03125 11 L 5.03125 11 L 5.03125 13 A 0.97219103 0.97219103 0 0 0 6.5 13.8125 L 14.5 8.8125 A 0.97219103 0.97219103 0 0 0 14.5 7.1875 L 6.5 2.1875 A 0.97219103 0.97219103 0 0 0 5.875 2.03125 z M 6 3 L 14 8 L 6 13 L 6 10.03125 L 2.03125 10.03125 L 2.03125 5.96875 L 6 6 L 6 3 z" display="inline" opacity=".15"/><path id="Symbol" fill="url(#StandardGradient)" fill-opacity="1" stroke="none" stroke-dasharray="none" stroke-linecap="round" stroke-linejoin="miter" stroke-miterlimit="4" stroke-opacity="1" stroke-width="1" d="M 5.9874299,2.984375 L 14,7.9870801 L 5.9874299,13.015625 L 5.9874299,10.020806 L 2.03125,10.020806 L 2.03125,5.9768401 L 5.9874299,5.984375 L 5.9874299,2.984375 z" display="inline" opacity="1"/><path id="BevelShadow" fill="#000" fill-opacity="1" stroke="none" stroke-dasharray="none" stroke-linecap="round" stroke-linejoin="miter" stroke-miterlimit="4" stroke-opacity="1" stroke-width="1" d="M 6 3 L 6 3.96875 L 13.21875 8.5 L 14 8 L 6 3 z M 2.03125 5.96875 L 2.03125 6.96875 L 6 6.96875 L 6 6 L 2.03125 5.96875 z" display="inline" opacity=".5"/><path id="BevelHighlight" fill="#fff" fill-opacity="1" stroke="none" stroke-dasharray="none" stroke-linecap="round" stroke-linejoin="miter" stroke-miterlimit="4" stroke-opacity="1" stroke-width="1" d="M 14 8 L 6 13 L 6 14 L 14 8.96875 L 14 8 z M 2.03125 10.03125 L 2.03125 11 L 6 11 L 6 10.03125 L 2.03125 10.03125 z" display="inline" opacity=".3"/></g></svg>