<svg xmlns="http://www.w3.org/2000/svg" xmlns:svg="http://www.w3.org/2000/svg" xmlns:xlink="http://www.w3.org/1999/xlink" id="svg2" width="16" height="16" version="1.0"><defs id="defs4"><linearGradient id="StandardGradient" x1="7.639" x2="7.639" y1="3.26" y2="14.224" gradientTransform="matrix(-1.0923124,0,0,0.915489,16.03125,0)" gradientUnits="userSpaceOnUse"><stop id="stop3284" offset="0" stop-color="#000" stop-opacity=".863"/><stop id="stop3286" offset="1" stop-color="#000" stop-opacity=".471"/></linearGradient><linearGradient id="linearGradient3626" x1="7.639" x2="7.639" y1="3.26" y2="14.224" gradientTransform="matrix(-1.0923124,0,0,0.915489,-3.96875,0)" gradientUnits="userSpaceOnUse" xlink:href="#StandardGradient"/><clipPath id="clipPath3633" clipPathUnits="userSpaceOnUse"><path id="path3635" fill="#f0f" fill-opacity="1" stroke="none" d="m -20,0 0,16 16,0 0,-16 -16,0 z m 10.03125,3 0,2.96875 3.96875,0 0,4.0625 -3.96875,0 0,2.96875 -8,-5 8,-5 z" display="inline"/></clipPath><filter id="filter3637"><feGaussianBlur id="feGaussianBlur3639" stdDeviation=".33"/></filter><linearGradient id="linearGradient4469" x1="7.639" x2="7.639" y1="3.26" y2="14.224" gradientTransform="matrix(-1.0923124,0,0,0.915489,16.03125,0)" gradientUnits="userSpaceOnUse" xlink:href="#StandardGradient"/><linearGradient id="linearGradient4473" x1="7.639" x2="7.639" y1="3.26" y2="14.224" gradientTransform="matrix(-1.0923124,0,0,0.915489,16.03125,0)" gradientUnits="userSpaceOnUse" xlink:href="#StandardGradient"/></defs><metadata id="metadata7"/><g id="layer4" display="inline"><path id="path4471" fill="#fff" fill-opacity="1" stroke="none" d="M 9.90625 2 A 1.0081497 1.0081497 0 0 0 9.5 2.15625 L 1.5 7.15625 A 1.0081497 1.0081497 0 0 0 1.5 8.84375 L 9.5 13.84375 A 1.0081497 1.0081497 0 0 0 11.03125 13 L 11.03125 11.03125 L 14 11.03125 A 1.0081497 1.0081497 0 0 0 15 10.03125 L 15 5.96875 A 1.0081497 1.0081497 0 0 0 14 4.96875 L 11.03125 4.96875 L 11.03125 3 A 1.0081497 1.0081497 0 0 0 9.90625 2 z M 10.03125 3 L 10.03125 6 L 14 5.96875 L 14 10.03125 L 10.03125 10.03125 L 10.03125 13 L 2.03125 8 L 10.03125 3 z" display="inline" opacity=".15"/><path id="Symbol" fill="url(#StandardGradient)" fill-opacity="1" stroke="none" stroke-dasharray="none" stroke-linecap="round" stroke-linejoin="miter" stroke-miterlimit="4" stroke-opacity="1" stroke-width="1" d="M 10.04382,2.984375 L 2.03125,7.9870801 L 10.04382,13.015625 L 10.04382,10.020806 L 14,10.020806 L 14,5.9768401 L 10.04382,5.984375 L 10.04382,2.984375 z" display="inline" opacity="1"/><path id="BevelShadow" fill="#000" fill-opacity="1" stroke="none" stroke-dasharray="none" stroke-linecap="round" stroke-linejoin="miter" stroke-miterlimit="4" stroke-opacity="1" stroke-width="1" d="M 10.03125,3 L 10.03125,3.96875 L 2.8125,8.5 L 2.03125,8 L 10.03125,3 z M 14,5.96875 L 14,6.96875 L 10.03125,6.96875 L 10.03125,6 L 14,5.96875 z" display="inline" opacity=".5"/><path id="BevelHighlight" fill="#fff" fill-opacity="1" stroke="none" stroke-dasharray="none" stroke-linecap="round" stroke-linejoin="miter" stroke-miterlimit="4" stroke-opacity="1" stroke-width="1" d="M 2.03125,8 L 10.03125,13 L 10.03125,14 L 2.03125,8.96875 L 2.03125,8 z M 14,10.03125 L 14,11 L 10.03125,11 L 10.03125,10.03125 L 14,10.03125 z" display="inline" opacity=".3"/></g></svg>