<svg xmlns="http://www.w3.org/2000/svg" xmlns:svg="http://www.w3.org/2000/svg" xmlns:xlink="http://www.w3.org/1999/xlink" id="svg2" width="16" height="16" version="1.0"><defs id="defs4"><linearGradient id="StandardGradient" x1="6.554" x2="6.554" y1="12.745" y2="1.824" gradientTransform="matrix(0.915489,0,0,-1.0923124,0,16)" gradientUnits="userSpaceOnUse"><stop id="stop3284" offset="0" stop-color="#000" stop-opacity=".863"/><stop id="stop3286" offset="1" stop-color="#000" stop-opacity=".471"/></linearGradient><linearGradient id="linearGradient3626" x1="6.554" x2="6.554" y1="12.745" y2="1.824" gradientTransform="matrix(0.915489,0,0,-1.0923124,-20,16)" gradientUnits="userSpaceOnUse" xlink:href="#StandardGradient"/><clipPath id="clipPath3633" clipPathUnits="userSpaceOnUse"><path id="path3635" fill="#f0f" fill-opacity="1" stroke="none" d="m -20,0 0,16 16,0 0,-16 -16,0 z m 8,2 5,8.03125 -3,0 0.03125,3.96875 -4.0625,0 0,-3.96875 -2.96875,0 L -12,2 z" display="inline"/></clipPath><linearGradient id="linearGradient2841" x1="6.554" x2="6.554" y1="12.745" y2="1.824" gradientTransform="matrix(0.915489,0,0,-1.0923124,0,17)" gradientUnits="userSpaceOnUse" xlink:href="#StandardGradient"/><linearGradient id="linearGradient2854" x1="6.554" x2="6.554" y1="12.745" y2="1.824" gradientTransform="matrix(0.915489,0,0,-1.0923124,0,17)" gradientUnits="userSpaceOnUse" xlink:href="#StandardGradient"/><linearGradient id="linearGradient2857" x1="6.554" x2="6.554" y1="14.648" y2="1.824" gradientTransform="matrix(0.915489,0,0,-1.0923124,0,17)" gradientUnits="userSpaceOnUse" xlink:href="#StandardGradient"/><linearGradient id="linearGradient2861" x1="6.554" x2="6.554" y1="14.648" y2="1.824" gradientTransform="matrix(0.915489,0,0,-1.0923124,-20,17)" gradientUnits="userSpaceOnUse" xlink:href="#StandardGradient"/><clipPath id="clipPath2868" clipPathUnits="userSpaceOnUse"><path id="path2870" fill="#f0f" fill-opacity="1" stroke="none" d="m -20,0 0,16 16,0 0,-16 -16,0 z m 3,1 10,0 0,2 -5,0 5,8.03125 -2.96875,0 0,3.96875 -4.0625,0 0,-3.96875 -2.96875,0 L -12,3 l -5,0 0,-2 z" display="inline"/></clipPath><filter id="filter3644"><feGaussianBlur id="feGaussianBlur3646" stdDeviation=".36"/></filter><linearGradient id="linearGradient3182" x1="6.554" x2="6.554" y1="14.648" y2="1.824" gradientTransform="matrix(0.915489,0,0,-1.0923124,0,17)" gradientUnits="userSpaceOnUse" xlink:href="#StandardGradient"/><linearGradient id="linearGradient3186" x1="6.554" x2="6.554" y1="14.648" y2="1.824" gradientTransform="matrix(0.915489,0,0,-1.0923124,0,17)" gradientUnits="userSpaceOnUse" xlink:href="#StandardGradient"/></defs><metadata id="metadata7"/><g id="layer4" display="inline"><path id="path3184" fill="#fff" fill-opacity="1" stroke="none" d="M 2.8125 -0.03125 A 1.0310926 1.0310926 0 0 0 1.96875 1 L 1.96875 3 A 1.0310926 1.0310926 0 0 0 3 4.03125 L 6.15625 4.03125 L 2.125 10.5 A 1.0310926 1.0310926 0 0 0 3 12.0625 L 4.9375 12.0625 L 4.9375 15 A 1.0310926 1.0310926 0 0 0 5.96875 16.03125 L 10.03125 16.03125 A 1.0310926 1.0310926 0 0 0 11.0625 15 L 11.0625 12.0625 L 13 12.0625 A 1.0310926 1.0310926 0 0 0 13.875 10.5 L 9.84375 4.03125 L 13 4.03125 A 1.0310926 1.0310926 0 0 0 14.03125 3 L 14.03125 1 A 1.0310926 1.0310926 0 0 0 13 -0.03125 L 3 -0.03125 A 1.0310926 1.0310926 0 0 0 2.90625 -0.03125 A 1.0310926 1.0310926 0 0 0 2.8125 -0.03125 z M 3 1 L 13 1 L 13 3 L 8 3 L 13 11.03125 L 10.03125 11.03125 L 10.03125 15 L 5.96875 15 L 5.96875 11.03125 L 3 11.03125 L 8 3 L 3 3 L 3 1 z" display="inline" opacity=".15"/><path id="Symbol" fill="url(#linearGradient2857)" fill-opacity="1" stroke="none" d="M 3 1 L 3 3 L 8 3 L 13 3 L 13 1 L 3 1 z M 8 3 L 3 11.03125 L 5.96875 11.03125 L 5.96875 15 L 10.03125 15 L 10.03125 11.03125 L 13 11.03125 L 8 3 z" display="inline"/><path id="BevelShadow" fill="#000" fill-opacity="1" stroke="none" d="M 3 1 L 3 2 L 13 2 L 13 1 L 3 1 z M 8 3 L 3 11.03125 L 3.625 11.03125 L 8 4.03125 L 12.375 11.03125 L 13 11.03125 L 8 3 z" display="inline" opacity=".5"/><path id="BevelHighlight" fill="#fff" fill-opacity="1" stroke="none" d="M 3 3 L 3 4 L 7.375 4 L 8 3 L 3 3 z M 8 3 L 8.625 4 L 13 4 L 13 3 L 8 3 z M 3 11.03125 L 3 12.03125 L 5.96875 12.03125 L 5.96875 11.03125 L 3 11.03125 z M 10.03125 11.03125 L 10.03125 12.03125 L 13 12.03125 L 13 11.03125 L 10.03125 11.03125 z M 5.96875 15 L 5.96875 16 L 10.03125 16 L 10.03125 15 L 5.96875 15 z" display="inline" opacity=".3"/></g></svg>