<svg xmlns="http://www.w3.org/2000/svg" xmlns:svg="http://www.w3.org/2000/svg" xmlns:xlink="http://www.w3.org/1999/xlink" id="svg2" width="16" height="16" version="1.0"><defs id="defs4"><linearGradient id="StandardGradient" x1="6.554" x2="6.554" y1="12.745" y2="1.824" gradientTransform="matrix(0.915489,0,0,-1.0923124,0,16)" gradientUnits="userSpaceOnUse"><stop id="stop3284" offset="0" stop-color="#000" stop-opacity=".863"/><stop id="stop3286" offset="1" stop-color="#000" stop-opacity=".471"/></linearGradient><linearGradient id="linearGradient3626" x1="6.554" x2="6.554" y1="12.745" y2="1.824" gradientTransform="matrix(0.915489,0,0,-1.0923124,-20,16)" gradientUnits="userSpaceOnUse" xlink:href="#StandardGradient"/><clipPath id="clipPath3633" clipPathUnits="userSpaceOnUse"><path id="path3635" fill="#f0f" fill-opacity="1" stroke="none" d="m -20,0 0,16 16,0 0,-16 -16,0 z m 8,2 5,8.03125 -3,0 0.03125,3.96875 -4.0625,0 0,-3.96875 -2.96875,0 L -12,2 z" display="inline"/></clipPath><filter id="filter3637"><feGaussianBlur id="feGaussianBlur3639" stdDeviation=".33"/></filter><linearGradient id="linearGradient4435" x1="6.554" x2="6.554" y1="12.745" y2="1.824" gradientTransform="matrix(0.915489,0,0,-1.0923124,0,16)" gradientUnits="userSpaceOnUse" xlink:href="#StandardGradient"/><linearGradient id="linearGradient4439" x1="6.554" x2="6.554" y1="12.745" y2="1.824" gradientTransform="matrix(0.915489,0,0,-1.0923124,0,16)" gradientUnits="userSpaceOnUse" xlink:href="#StandardGradient"/></defs><metadata id="metadata7"/><g id="layer4" display="inline"><path id="path4437" fill="#fff" fill-opacity="1" stroke="none" d="M 7.9375 1 A 0.97593076 0.97593076 0 0 0 7.8125 1.03125 A 0.97593076 0.97593076 0 0 0 7.15625 1.46875 L 2.15625 9.5 A 0.97593076 0.97593076 0 0 0 3 11 L 5 11 L 5 14 A 0.97593076 0.97593076 0 0 0 5.96875 14.96875 L 10.03125 14.96875 A 0.97593076 0.97593076 0 0 0 11 14 L 11 11 L 13 11 A 0.97593076 0.97593076 0 0 0 13.84375 9.5 L 8.84375 1.46875 A 0.97593076 0.97593076 0 0 0 7.9375 1 z M 8 2 L 13 10.03125 L 10 10.03125 L 10.03125 14 L 5.96875 14 L 5.96875 10.03125 L 3 10.03125 L 8 2 z" display="inline" opacity=".15"/><path id="Symbol" fill="url(#StandardGradient)" fill-opacity="1" stroke="none" stroke-dasharray="none" stroke-linecap="round" stroke-linejoin="miter" stroke-miterlimit="4" stroke-opacity="1" stroke-width="1" d="M 13.015625,10.028195 L 8.0129199,2.015625 L 2.984375,10.028195 L 5.979194,10.028195 L 5.979194,13.984375 L 10.02316,13.984375 L 10.015625,10.028195 L 13.015625,10.028195 z" display="inline" opacity="1"/><path id="BevelShadow" fill="#000" fill-opacity="1" stroke="none" stroke-dasharray="none" stroke-linecap="round" stroke-linejoin="miter" stroke-miterlimit="4" stroke-opacity="1" stroke-width="1" d="M 8 2 L 3 10.03125 L 3.625 10.03125 L 8 3.03125 L 12.375 10.03125 L 13 10.03125 L 8 2 z" display="inline" opacity=".5"/><path id="BevelHighlight" fill="#fff" fill-opacity="1" stroke="none" stroke-dasharray="none" stroke-linecap="round" stroke-linejoin="miter" stroke-miterlimit="4" stroke-opacity="1" stroke-width="1" d="M 3 10.03125 L 3 11.03125 L 5.96875 11.03125 L 5.96875 10.03125 L 3 10.03125 z M 10 10.03125 L 10 11.03125 L 13 11.03125 L 13 10.03125 L 10 10.03125 z M 5.96875 14 L 5.96875 15 L 10.03125 15 L 10.03125 14 L 5.96875 14 z" display="inline" opacity=".3"/></g></svg>