<svg xmlns="http://www.w3.org/2000/svg" xmlns:svg="http://www.w3.org/2000/svg" xmlns:xlink="http://www.w3.org/1999/xlink" id="svg2" width="16" height="16" version="1.0"><defs id="defs4"><linearGradient id="StandardGradient" x1="7.198" x2="7.198" y1="3" y2="13.008" gradientUnits="userSpaceOnUse"><stop id="stop3283" offset="0" stop-color="#000" stop-opacity=".863"/><stop id="stop3285" offset="1" stop-color="#000" stop-opacity=".471"/></linearGradient><linearGradient id="linearGradient3627" x1="7.198" x2="7.198" y1="3" y2="13.008" gradientTransform="translate(-20,0)" gradientUnits="userSpaceOnUse" xlink:href="#StandardGradient"/><clipPath id="clipPath3649" clipPathUnits="userSpaceOnUse"><path id="path3651" fill="#f0f" fill-opacity="1" stroke="none" d="m -20,0 0,16 16,0 0,-16 -16,0 z m 6.03125,3 4,0 0,3 L -7,6 l 0,4 -2.96875,0 0,3 -4,0 0,-3 -3.03125,0 0,-4 3.03125,0 0,-3 z" display="inline"/></clipPath><filter id="filter3653"><feGaussianBlur id="feGaussianBlur3655" stdDeviation=".3"/></filter><linearGradient id="linearGradient3273" x1="7.198" x2="7.198" y1="3" y2="13.008" gradientUnits="userSpaceOnUse" xlink:href="#StandardGradient"/><linearGradient id="linearGradient3277" x1="7.198" x2="7.198" y1="3" y2="13.008" gradientUnits="userSpaceOnUse" xlink:href="#StandardGradient"/></defs><metadata id="metadata7"/><g id="layer3" display="inline"><path id="path3275" fill="#fff" fill-opacity="1" stroke="none" d="M 5.84375 2 A 0.99225894 0.99225894 0 0 0 5.03125 3 L 5.03125 5 L 3 5 A 0.99225894 0.99225894 0 0 0 2 6 L 2 10 A 0.99225894 0.99225894 0 0 0 3 11 L 5.03125 11 L 5.03125 13 A 0.99225894 0.99225894 0 0 0 6.03125 14 L 10.03125 14 A 0.99225894 0.99225894 0 0 0 11.03125 13 L 11.03125 11 L 13 11 A 0.99225894 0.99225894 0 0 0 14 10 L 14 6 A 0.99225894 0.99225894 0 0 0 13 5 L 11.03125 5 L 11.03125 3 A 0.99225894 0.99225894 0 0 0 10.03125 2 L 6.03125 2 A 0.99225894 0.99225894 0 0 0 5.9375 2 A 0.99225894 0.99225894 0 0 0 5.84375 2 z M 6.03125 3 L 10.03125 3 L 10.03125 6 L 13 6 L 13 10 L 10.03125 10 L 10.03125 13 L 6.03125 13 L 6.03125 10 L 3 10 L 3 6 L 6.03125 6 L 6.03125 3 z" opacity=".15"/><path id="Symbol" fill="url(#StandardGradient)" fill-opacity="1" stroke="none" stroke-dasharray="none" stroke-linecap="round" stroke-linejoin="miter" stroke-miterlimit="4" stroke-opacity="1" stroke-width="1" d="M 6.0372441,3 L 6.0372441,6.0117466 L 3,6.0117466 L 3,9.9848528 L 6.0372441,9.9848528 L 6.0372441,13 L 10.025647,13 L 10.025647,9.9848528 L 13,9.9848528 L 13,6.0117466 L 10.025647,6.0117466 L 10.025647,3 L 6.0372441,3 z" opacity="1"/><path id="BevelShadow" fill="#000" fill-opacity="1" stroke="none" stroke-dasharray="none" stroke-linecap="round" stroke-linejoin="miter" stroke-miterlimit="4" stroke-opacity="1" stroke-width="1" d="M 6.03125 3 L 6.03125 4 L 10.03125 4 L 10.03125 3 L 6.03125 3 z M 3 6 L 3 7 L 6.03125 7 L 6.03125 6 L 3 6 z M 10.03125 6 L 10.03125 7 L 13 7 L 13 6 L 10.03125 6 z" opacity=".5"/><path id="BevelHighlight" fill="#fff" fill-opacity="1" stroke="none" stroke-dasharray="none" stroke-linecap="round" stroke-linejoin="miter" stroke-miterlimit="4" stroke-opacity="1" stroke-width="1" d="M 3 10 L 3 11 L 6.03125 11 L 6.03125 10 L 3 10 z M 10.03125 10 L 10.03125 11 L 13 11 L 13 10 L 10.03125 10 z M 6.03125 13 L 6.03125 14 L 10.03125 14 L 10.03125 13 L 6.03125 13 z" opacity=".3"/></g></svg>