<svg xmlns="http://www.w3.org/2000/svg" xmlns:svg="http://www.w3.org/2000/svg" xmlns:xlink="http://www.w3.org/1999/xlink" id="svg2" width="16" height="16" version="1.0"><defs id="defs4"><linearGradient id="SpecificGradient" x1="12.438" x2="12.438" y1="6" y2="16" gradientUnits="userSpaceOnUse"><stop id="stop3292" offset="0" stop-color="#ad0707" stop-opacity="1"/><stop id="stop3294" offset="1" stop-color="#f75535" stop-opacity="1"/></linearGradient><linearGradient id="linearGradient3634" x1="12.438" x2="12.438" y1="6" y2="16" gradientTransform="translate(-20,0)" gradientUnits="userSpaceOnUse" xlink:href="#SpecificGradient"/><clipPath id="clipPath3645" clipPathUnits="userSpaceOnUse"><path id="path3647" fill="#f0f" fill-opacity="1" stroke="none" d="m -17,2.9995677 0,16.0000003 16,0 0,-16.0000003 -16,0 z m 5.3125,3 2.6875,2.6875 2.6875,-2.6875 2.3125,2.3125 -2.6875,2.6875003 2.6875,2.6875 -2.3125,2.3125 -2.6875,-2.6875 -2.6875,2.6875 -2.3125,-2.3125 2.6875,-2.6875 L -14,8.3120677 l 2.3125,-2.3125 z" display="inline"/></clipPath><linearGradient id="linearGradient3782" x1="12.438" x2="12.438" y1="6" y2="16" gradientUnits="userSpaceOnUse" xlink:href="#SpecificGradient"/><linearGradient id="linearGradient3786" x1="12.438" x2="12.438" y1="6" y2="16" gradientTransform="translate(-3,-2.9995677)" gradientUnits="userSpaceOnUse" xlink:href="#SpecificGradient"/></defs><metadata id="metadata7"/><g id="layer3" display="inline" transform="translate(-3,-2.9995677)"><path id="path3784" fill="#fff" fill-opacity="1" stroke="none" d="M 5.1875 1.96875 A 1.034964 1.034964 0 0 0 4.59375 2.28125 L 2.28125 4.59375 A 1.034964 1.034964 0 0 0 2.28125 6.03125 L 4.25 8 L 2.28125 9.96875 A 1.034964 1.034964 0 0 0 2.28125 11.40625 L 4.59375 13.71875 A 1.034964 1.034964 0 0 0 6.03125 13.71875 L 8 11.75 L 9.96875 13.71875 A 1.034964 1.034964 0 0 0 11.40625 13.71875 L 13.71875 11.40625 A 1.034964 1.034964 0 0 0 13.71875 9.96875 L 11.75 8 L 13.71875 6.03125 A 1.034964 1.034964 0 0 0 13.71875 4.59375 L 11.40625 2.28125 A 1.034964 1.034964 0 0 0 9.96875 2.28125 L 8 4.25 L 6.03125 2.28125 A 1.034964 1.034964 0 0 0 5.1875 1.96875 z M 5.3125 3 L 8 5.6875 L 10.6875 3 L 13 5.3125 L 10.3125 8 L 13 10.6875 L 10.6875 13 L 8 10.3125 L 5.3125 13 L 3 10.6875 L 5.6875 8 L 3 5.3125 L 5.3125 3 z" opacity=".15" transform="translate(3,2.9995677)"/><path id="Symbol" fill="url(#SpecificGradient)" fill-opacity="1" stroke="none" stroke-dasharray="none" stroke-linecap="round" stroke-linejoin="miter" stroke-miterlimit="4" stroke-opacity="1" stroke-width="1" d="M 13.692307,5.9995672 L 10.999999,8.6918747 L 8.3076924,5.9995672 L 6,8.3072593 L 8.6923077,10.999566 L 6,13.691874 L 8.3076924,15.999568 L 10.999999,13.307259 L 13.692307,15.999568 L 16,13.691874 L 13.307692,10.999566 L 16,8.3072593 L 13.692307,5.9995672 z"/><path id="BevelShadow" fill="#500000" fill-opacity="1" stroke="none" stroke-dasharray="none" stroke-linecap="round" stroke-linejoin="miter" stroke-miterlimit="4" stroke-opacity="1" stroke-width="1" d="M 5.3125 3 L 3 5.3125 L 3.5 5.8125 L 5.3125 4 L 8 6.6875 L 10.6875 4 L 12.5 5.8125 L 13 5.3125 L 10.6875 3 L 8 5.6875 L 5.3125 3 z M 5.6875 8 L 5.1875 8.5 L 5.15625 8.53125 L 3 10.6875 L 3.5 11.1875 L 5.6875 9 L 5.6875 8 z M 10.3125 8 L 10.3125 9 L 12.5 11.1875 L 13 10.6875 L 10.90625 8.59375 L 10.8125 8.5 L 10.3125 8 z" opacity=".5" transform="translate(3,2.9995677)"/><path id="BevelHighlight" fill="#fff" fill-opacity="1" stroke="none" stroke-dasharray="none" stroke-linecap="round" stroke-linejoin="miter" stroke-miterlimit="4" stroke-opacity="1" stroke-width="1" d="M 3 5.3125 L 3 6.3125 L 5.1875 8.5 L 5.6875 8 L 3 5.3125 z M 13 5.3125 L 10.3125 8 L 10.8125 8.5 L 13 6.3125 L 13 5.3125 z M 8 10.3125 L 5.3125 13 L 3 10.6875 L 3 11.6875 L 5.3125 14 L 8 11.3125 L 10.6875 14 L 13 11.6875 L 13 10.6875 L 10.6875 13 L 8 10.3125 z" opacity=".3" transform="translate(3,2.9995677)"/></g></svg>