<svg xmlns="http://www.w3.org/2000/svg" xmlns:svg="http://www.w3.org/2000/svg" xmlns:xlink="http://www.w3.org/1999/xlink" id="svg2" width="16" height="16" version="1.0"><defs id="defs4"><linearGradient id="StandardGradient" x1="9.239" x2="9.239" y1="7.448" y2="14.326" gradientTransform="scale(0.9306049,1.0745699)" gradientUnits="userSpaceOnUse"><stop id="stop3389" offset="0" stop-color="#000" stop-opacity=".863"/><stop id="stop3391" offset="1" stop-color="#000" stop-opacity=".471"/></linearGradient><linearGradient id="linearGradient3627" x1="9.239" x2="9.239" y1="7.448" y2="14.326" gradientTransform="scale(0.9306049,1.0745699)" gradientUnits="userSpaceOnUse" xlink:href="#StandardGradient"/><clipPath id="clipPath3641" clipPathUnits="userSpaceOnUse"><path id="path3643" fill="#f0f" fill-opacity="1" stroke="none" d="m 3.3493431,6.6636072 0,10.7176378 11.3443579,0 0,-10.7176378 -11.3443579,0 z m 2.8360895,1.3397048 6.3812014,3.684188 -6.3812014,3.684188 0,-7.368376 z" display="inline"/></clipPath><filter id="filter3645"><feGaussianBlur id="feGaussianBlur3647" stdDeviation=".207"/></filter><linearGradient id="linearGradient4019" x1="9.239" x2="9.239" y1="7.448" y2="14.326" gradientTransform="scale(0.9306049,1.0745699)" gradientUnits="userSpaceOnUse" xlink:href="#StandardGradient"/><linearGradient id="linearGradient4023" x1="9.239" x2="9.239" y1="7.448" y2="14.326" gradientTransform="matrix(1.3125184,0,0,1.6041891,-4.7238894,-9.9478739)" gradientUnits="userSpaceOnUse" xlink:href="#StandardGradient"/></defs><metadata id="metadata7"/><g id="layer1"><path id="path4021" fill="#fff" fill-opacity="1" fill-rule="nonzero" stroke="none" d="M 3.8125 0.9375 A 0.98727389 1.0450053 0 0 0 3.75 0.96875 A 0.98727389 1.0450053 0 0 0 3.03125 2 L 3.03125 13 A 0.98727389 1.0450053 0 0 0 4.5 13.90625 L 13.46875 8.375 A 0.98727389 1.0450053 0 0 0 13.46875 6.625 L 4.5 1.09375 A 0.98727389 1.0450053 0 0 0 3.8125 0.9375 z M 4 2 L 13 7.5 L 4 13 L 4 2 z" opacity=".15"/><path id="BevelHighlight" fill="#fff" fill-opacity="1" fill-rule="nonzero" stroke="none" stroke-dasharray="none" stroke-dashoffset="0" stroke-linecap="square" stroke-linejoin="round" stroke-miterlimit="4" stroke-opacity="1" stroke-width="1" d="M 13 7.5 L 4 13 L 4 14 L 13 8.5 L 13 7.5 z" opacity=".3"/><path id="Symbol" fill="url(#StandardGradient)" fill-opacity="1" fill-rule="nonzero" stroke="none" stroke-dasharray="none" stroke-dashoffset="0" stroke-linecap="square" stroke-linejoin="round" stroke-miterlimit="4" stroke-opacity="1" stroke-width="1" d="M 12.566634,11.6875 L 6.1854329,15.371688 L 6.1854329,8.0033117 L 12.566634,11.6875 z" opacity="1" transform="matrix(1.4103927,0,0,1.4928662,-4.7238894,-9.9478739)"/><path id="BevelShadow" fill="#000" fill-opacity="1" fill-rule="nonzero" stroke="none" stroke-dasharray="none" stroke-dashoffset="0" stroke-linecap="square" stroke-linejoin="round" stroke-miterlimit="4" stroke-opacity="1" stroke-width="1" d="M 4 2 L 4 3 L 12.1875 8 L 13 7.5 L 4 2 z" opacity=".5"/></g></svg>