<svg xmlns="http://www.w3.org/2000/svg" xmlns:svg="http://www.w3.org/2000/svg" xmlns:xlink="http://www.w3.org/1999/xlink" id="svg2" width="16" height="16" version="1.0"><defs id="defs4"><linearGradient id="StandardGradient" x1="6.968" x2="6.968" y1="3.023" y2="13.05" gradientTransform="scale(1.0023447,0.9976608)" gradientUnits="userSpaceOnUse"><stop id="stop3284" offset="0" stop-color="#000" stop-opacity=".863"/><stop id="stop3286" offset="1" stop-color="#000" stop-opacity=".471"/></linearGradient><linearGradient id="linearGradient2826" x1="6.968" x2="6.968" y1="3.023" y2="13.05" gradientTransform="matrix(1.0023447,0,0,0.9976608,0,1)" gradientUnits="userSpaceOnUse" xlink:href="#StandardGradient"/><linearGradient id="linearGradient2830" x1="6.968" x2="6.968" y1="3.023" y2="13.05" gradientTransform="scale(1.0023447,0.9976608)" gradientUnits="userSpaceOnUse" xlink:href="#StandardGradient"/><linearGradient id="linearGradient3629" x1="6.968" x2="6.968" y1="3.023" y2="13.05" gradientTransform="matrix(1.0023447,0,0,0.9976608,-20,0)" gradientUnits="userSpaceOnUse" xlink:href="#StandardGradient"/><clipPath id="clipPath3636" clipPathUnits="userSpaceOnUse"><path id="path3638" fill="#f0f" fill-opacity="1" stroke="none" d="m -20,0 0,16 16,0 0,-16 -16,0 z m 8,3 5,6.03125 -10,0 L -12,3 z m -5,8 10,0 0,2 -10,0 0,-2 z" display="inline"/></clipPath><linearGradient id="linearGradient4541" x1="6.968" x2="6.968" y1="3.023" y2="13.05" gradientTransform="scale(1.0023447,0.9976608)" gradientUnits="userSpaceOnUse" xlink:href="#StandardGradient"/><linearGradient id="linearGradient4545" x1="6.968" x2="6.968" y1="3.023" y2="13.05" gradientTransform="scale(1.0023447,0.9976608)" gradientUnits="userSpaceOnUse" xlink:href="#StandardGradient"/></defs><metadata id="metadata7"/><g id="layer4" display="inline"><path id="path4543" fill="#fff" fill-opacity="1" stroke="none" d="M 7.875 1.9375 A 1.0490583 1.0490583 0 0 0 7.1875 2.34375 L 2.1875 8.375 A 1.0490583 1.0490583 0 0 0 2.625 10 A 1.0490583 1.0490583 0 0 0 1.9375 11 L 1.9375 13 A 1.0490583 1.0490583 0 0 0 3 14.0625 L 13 14.0625 A 1.0490583 1.0490583 0 0 0 14.0625 13 L 14.0625 11 A 1.0490583 1.0490583 0 0 0 13.375 10.03125 A 1.0490583 1.0490583 0 0 0 13.8125 8.375 L 8.8125 2.34375 A 1.0490583 1.0490583 0 0 0 7.96875 1.9375 A 1.0490583 1.0490583 0 0 0 7.875 1.9375 z M 8 3 L 13 9.03125 L 3 9.03125 L 8 3 z M 3 11 L 13 11 L 13 13 L 3 13 L 3 11 z" display="inline" opacity=".15"/><path id="Symbol" fill="url(#StandardGradient)" fill-opacity="1" stroke="none" stroke-dasharray="none" stroke-linecap="round" stroke-linejoin="miter" stroke-miterlimit="4" stroke-opacity="1" stroke-width="1" d="M 2.984375,9.028195 L 7.9870801,3.015625 L 13.015625,9.028195 L 2.984375,9.028195 z M 3,11 L 13,11 L 13,13 L 3,13 L 3,11 z" display="inline" opacity="1"/><path id="BevelShadow" fill="#000" fill-opacity="1" stroke="none" stroke-dasharray="none" stroke-linecap="round" stroke-linejoin="miter" stroke-miterlimit="4" stroke-opacity="1" stroke-width="1" d="M 8 3 L 3 9.03125 L 3.84375 9.03125 L 8 4 L 12.15625 9.03125 L 13 9.03125 L 8 3 z M 3 11 L 3 12 L 13 12 L 13 11 L 3 11 z" display="inline" opacity=".5"/><path id="BevelHighlight" fill="#fff" fill-opacity="1" stroke="none" stroke-dasharray="none" stroke-linecap="round" stroke-linejoin="miter" stroke-miterlimit="4" stroke-opacity="1" stroke-width="1" d="M 3 9.03125 L 3 10.03125 L 13 10.03125 L 13 9.03125 L 3 9.03125 z M 3 13 L 3 14 L 13 14 L 13 13 L 3 13 z" display="inline" opacity=".3"/></g></svg>