<svg xmlns="http://www.w3.org/2000/svg" xmlns:svg="http://www.w3.org/2000/svg" xmlns:xlink="http://www.w3.org/1999/xlink" id="svg2" width="16" height="16" version="1.0"><defs id="defs4"><linearGradient id="StandardGradient" x1="5.804" x2="5.804" y1="4.781" y2="13.169" gradientTransform="scale(1.1952286,0.83666)" gradientUnits="userSpaceOnUse"><stop id="stop3389" offset="0" stop-color="#000" stop-opacity=".863"/><stop id="stop3391" offset="1" stop-color="#000" stop-opacity=".471"/></linearGradient><linearGradient id="linearGradient2399" x1="5.804" x2="5.804" y1="4.781" y2="13.169" gradientTransform="matrix(-1.1952286,0,0,0.83666,-5,0)" gradientUnits="userSpaceOnUse" xlink:href="#StandardGradient"/><linearGradient id="linearGradient3627" x1="5.804" x2="5.804" y1="4.781" y2="13.169" gradientTransform="matrix(-1.1952286,0,0,0.83666,-25,0)" gradientUnits="userSpaceOnUse" xlink:href="#StandardGradient"/><clipPath id="clipPath3634" clipPathUnits="userSpaceOnUse"><path id="path3636" fill="#f0f" fill-opacity="1" stroke="none" d="m -20,0 0,16 16,0 0,-16 -16,0 z m 2,4 5,3.34375 L -13,4 -8,7.34375 -8,4 -6,4 -6,12 -8,12 -8,8.65625 -13,12 -13,8.65625 -18,12 -18,4 z" display="inline"/></clipPath><filter id="filter3646"><feGaussianBlur id="feGaussianBlur3648" stdDeviation=".3"/></filter><linearGradient id="linearGradient5025" x1="5.804" x2="5.804" y1="4.781" y2="13.169" gradientTransform="matrix(-1.1952286,0,0,0.83666,-5,0)" gradientUnits="userSpaceOnUse" xlink:href="#StandardGradient"/><linearGradient id="linearGradient5029" x1="5.804" x2="5.804" y1="4.781" y2="13.169" gradientTransform="matrix(-1.1952286,0,0,0.83666,-5,0)" gradientUnits="userSpaceOnUse" xlink:href="#StandardGradient"/></defs><metadata id="metadata7"/><g id="layer1"><path id="path5027" fill="#fff" fill-opacity="1" fill-rule="nonzero" stroke="none" d="M 1.875 2.96875 A 1.0129542 1.0129542 0 0 0 1.78125 3 A 1.0129542 1.0129542 0 0 0 1 4 L 1 12 A 1.0129542 1.0129542 0 0 0 2.5625 12.84375 L 6 10.53125 L 6 12 A 1.0129542 1.0129542 0 0 0 7.5625 12.84375 L 11 10.53125 L 11 12 A 1.0129542 1.0129542 0 0 0 12 13 L 14 13 A 1.0129542 1.0129542 0 0 0 15 12 L 15 4 A 1.0129542 1.0129542 0 0 0 14 3 L 12 3 A 1.0129542 1.0129542 0 0 0 11 4 L 11 5.46875 L 7.5625 3.15625 A 1.0129542 1.0129542 0 0 0 6 4 L 6 5.46875 L 2.5625 3.15625 A 1.0129542 1.0129542 0 0 0 1.875 2.96875 z M 2 4 L 7 7.34375 L 7 4 L 12 7.34375 L 12 4 L 14 4 L 14 12 L 12 12 L 12 8.65625 L 7 12 L 7 8.65625 L 2 12 L 2 4 z" opacity=".15"/><path id="Symbol" fill="url(#linearGradient2399)" fill-opacity="1" fill-rule="nonzero" stroke="none" stroke-dasharray="none" stroke-dashoffset="0" stroke-linecap="square" stroke-linejoin="round" stroke-miterlimit="4" stroke-opacity="1" stroke-width="1" d="M 14,4 L 14,12 L 12,12 L 12,8.65625 L 7,12 L 7,8.65625 L 2,12 L 2,4 L 7,7.34375 L 7,4 L 12,7.34375 L 12,4 L 14,4 z" opacity="1"/><path id="BevelShadow" fill="#000" fill-opacity="1" fill-rule="nonzero" stroke="none" stroke-dasharray="none" stroke-dashoffset="0" stroke-linecap="square" stroke-linejoin="round" stroke-miterlimit="4" stroke-opacity="1" stroke-width="1" d="M 14,4 L 14,5 L 12,5 L 12,4 L 14,4 z M 7,4 L 12,7.34375 L 12,8.34375 L 7,5 L 7,4 z M 2,4 L 7,7.34375 L 7,8.34375 L 2,5 L 2,4 z" opacity=".5"/><path id="BevelHighlight" fill="#fff" fill-opacity="1" fill-rule="nonzero" stroke="none" stroke-dasharray="none" stroke-dashoffset="0" stroke-linecap="square" stroke-linejoin="round" stroke-miterlimit="4" stroke-opacity="1" stroke-width="1" d="M 12,8.65625 L 12,9.65625 L 7,13 L 7,12 L 12,8.65625 z M 7,8.65625 L 7,9.65625 L 2,13 L 2,12 L 7,8.65625 z M 14,12 L 14,13 L 12,13 L 12,12 L 14,12 z" opacity=".3"/></g></svg>