<svg xmlns="http://www.w3.org/2000/svg" xmlns:svg="http://www.w3.org/2000/svg" xmlns:xlink="http://www.w3.org/1999/xlink" id="svg2" width="16" height="16" version="1.0"><defs id="defs4"><linearGradient id="StandardGradient" x1="5.804" x2="5.804" y1="4.781" y2="13.169" gradientTransform="scale(1.1952286,0.83666)" gradientUnits="userSpaceOnUse"><stop id="stop3389" offset="0" stop-color="#000" stop-opacity=".863"/><stop id="stop3391" offset="1" stop-color="#000" stop-opacity=".471"/></linearGradient><linearGradient id="linearGradient2399" x1="5.804" x2="5.804" y1="4.781" y2="13.169" gradientTransform="matrix(1.1952286,0,0,0.83666,21,0)" gradientUnits="userSpaceOnUse" xlink:href="#StandardGradient"/><linearGradient id="linearGradient3627" x1="5.804" x2="5.804" y1="4.781" y2="13.169" gradientTransform="matrix(1.1952286,0,0,0.83666,1,0)" gradientUnits="userSpaceOnUse" xlink:href="#StandardGradient"/><clipPath id="clipPath3634" clipPathUnits="userSpaceOnUse"><path id="path3636" fill="#f0f" fill-opacity="1" stroke="none" d="m -20,0 0,16 16,0 0,-16 -16,0 z m 2,4 2,0 0,3.34375 L -11,4 -11,7.34375 -6,4 -6,12 -11,8.65625 -11,12 -16,8.65625 -16,12 l -2,0 0,-8 z" display="inline"/></clipPath><filter id="filter3638"><feGaussianBlur id="feGaussianBlur3640" stdDeviation=".3"/></filter><linearGradient id="linearGradient5544" x1="5.804" x2="5.804" y1="4.781" y2="13.169" gradientTransform="matrix(1.1952286,0,0,0.83666,21,0)" gradientUnits="userSpaceOnUse" xlink:href="#StandardGradient"/><linearGradient id="linearGradient5548" x1="5.804" x2="5.804" y1="4.781" y2="13.169" gradientTransform="matrix(1.1952286,0,0,0.83666,21,0)" gradientUnits="userSpaceOnUse" xlink:href="#StandardGradient"/></defs><metadata id="metadata7"/><g id="layer1"><path id="path5546" fill="#fff" fill-opacity="1" fill-rule="nonzero" stroke="none" d="M 1.8125 3 A 1.0065431 1.0065431 0 0 0 1 4 L 1 12 A 1.0065431 1.0065431 0 0 0 2 13 L 4 13 A 1.0065431 1.0065431 0 0 0 5 12 L 5 10.53125 L 8.4375 12.84375 A 1.0065431 1.0065431 0 0 0 10 12 L 10 10.53125 L 13.4375 12.84375 A 1.0065431 1.0065431 0 0 0 15 12 L 15 4 A 1.0065431 1.0065431 0 0 0 13.4375 3.15625 L 10 5.46875 L 10 4 A 1.0065431 1.0065431 0 0 0 8.4375 3.15625 L 5 5.46875 L 5 4 A 1.0065431 1.0065431 0 0 0 4 3 L 2 3 A 1.0065431 1.0065431 0 0 0 1.8125 3 z M 2 4 L 4 4 L 4 7.34375 L 9 4 L 9 7.34375 L 14 4 L 14 12 L 9 8.65625 L 9 12 L 4 8.65625 L 4 12 L 2 12 L 2 4 z" opacity=".15"/><path id="Symbol" fill="url(#linearGradient2399)" fill-opacity="1" fill-rule="nonzero" stroke="none" stroke-dasharray="none" stroke-dashoffset="0" stroke-linecap="square" stroke-linejoin="round" stroke-miterlimit="4" stroke-opacity="1" stroke-width="1" d="M 2,4 L 2,12 L 4,12 L 4,8.65625 L 9,12 L 9,8.65625 L 14,12 L 14,4 L 9,7.34375 L 9,4 L 4,7.34375 L 4,4 L 2,4 z" opacity="1"/><path id="BevelShadow" fill="#000" fill-opacity="1" fill-rule="nonzero" stroke="none" stroke-dasharray="none" stroke-dashoffset="0" stroke-linecap="square" stroke-linejoin="round" stroke-miterlimit="4" stroke-opacity="1" stroke-width="1" d="M 2,4 L 2,5 L 4,5 L 4,4 L 2,4 z M 9,4 L 4,7.34375 L 4,8.34375 L 9,5 L 9,4 z M 14,4 L 9,7.34375 L 9,8.34375 L 14,5 L 14,4 z" opacity=".5"/><path id="BevelHighlight" fill="#fff" fill-opacity="1" fill-rule="nonzero" stroke="none" stroke-dasharray="none" stroke-dashoffset="0" stroke-linecap="square" stroke-linejoin="round" stroke-miterlimit="4" stroke-opacity="1" stroke-width="1" d="M 4,8.65625 L 4,9.65625 L 9,13 L 9,12 L 4,8.65625 z M 9,8.65625 L 9,9.65625 L 14,13 L 14,12 L 9,8.65625 z M 2,12 L 2,13 L 4,13 L 4,12 L 2,12 z" opacity=".3"/></g></svg>