<svg xmlns="http://www.w3.org/2000/svg" xmlns:svg="http://www.w3.org/2000/svg" xmlns:xlink="http://www.w3.org/1999/xlink" id="svg2" width="16" height="16" version="1.0"><defs id="defs4"><linearGradient id="SpecificGradient" x1="6.563" x2="6.563" y1="2" y2="14.001" gradientUnits="userSpaceOnUse"><stop id="stop3292" offset="0" stop-color="#ad0707" stop-opacity="1"/><stop id="stop3294" offset="1" stop-color="#f75535" stop-opacity="1"/></linearGradient><linearGradient id="linearGradient3628" x1="6.563" x2="6.563" y1="2" y2="14.001" gradientTransform="translate(-20,0)" gradientUnits="userSpaceOnUse" xlink:href="#SpecificGradient"/><clipPath id="clipPath3635" clipPathUnits="userSpaceOnUse"><path id="path3637" fill="#f0f" fill-opacity="1" stroke="none" d="m -20,0 0,16 16,0 0,-16 -16,0 z m 8,2 c 3.312,0 6,2.6880001 6,6 0,3.312 -2.688,6 -6,6 -3.312,0 -6,-2.688 -6,-6 0,-3.3119999 2.688,-6 6,-6 z m 0,2.15625 c -0.57648,0 -1.133672,0.1167299 -1.625,0.34375 L -8.5,9.625 C -8.273784,9.1343862 -8.15625,8.5753957 -8.15625,8 -8.15625,5.8708574 -9.870857,4.1562499 -12,4.15625 z m -3.46875,2.125 c -0.255374,0.5152866 -0.375,1.1050247 -0.375,1.71875 0,2.129143 1.714607,3.84375 3.84375,3.84375 0.61479,0 1.202796,-0.118796 1.71875,-0.375 l -5.1875,-5.1875 z" display="inline"/></clipPath><filter id="filter3639"><feGaussianBlur id="feGaussianBlur3641" stdDeviation=".36"/></filter><linearGradient id="linearGradient2846" x1="6.563" x2="6.563" y1="2" y2="14.001" gradientUnits="userSpaceOnUse" xlink:href="#SpecificGradient"/><linearGradient id="linearGradient2856" x1="6.563" x2="6.563" y1="2" y2="14.001" gradientTransform="translate(-20,0)" gradientUnits="userSpaceOnUse" xlink:href="#SpecificGradient"/><clipPath id="clipPath2861" clipPathUnits="userSpaceOnUse"><path id="path2863" fill="#f0f" fill-opacity="1" stroke="none" d="m -20,0 0,16 16,0 0,-16 -16,0 z m 8,2 c 3.312,0 6,2.6880001 6,6 0,3.312 -2.688,6 -6,6 -3.312,0 -6,-2.688 -6,-6 0,-3.3119999 2.688,-6 6,-6 z" display="inline"/></clipPath></defs><metadata id="metadata7"/><g id="layer1"><path id="path3020" fill="#fff" fill-opacity="1" stroke="none" d="M 8 1 C 4.1360002 1 1 4.1360001 1 8 C 1 11.864 4.1360002 15 8 15 C 11.864 15 15 11.864 15 8 C 15 4.1360001 11.864 1 8 1 z M 8 2 C 11.312 2 14 4.6880001 14 8 C 14 11.312 11.312 14 8 14 C 4.6880002 14 2 11.312 2 8 C 2 4.6880001 4.6880002 2 8 2 z" opacity=".15"/><path id="Symbol" fill="url(#linearGradient2846)" fill-opacity="1" stroke="none" stroke-dasharray="none" stroke-linecap="round" stroke-linejoin="miter" stroke-miterlimit="4" stroke-opacity="1" stroke-width="1" d="M 8 2 C 4.6880002 2 2 4.6880001 2 8 C 2 11.312 4.6880002 14 8 14 C 11.312 14 14 11.312 14 8 C 14 4.6880001 11.312 2 8 2 z"/><path id="BevelShadow" fill="#500000" fill-opacity="1" stroke="none" d="M 8,2 C 4.6880004,2 2,4.6880001 2,8 2,8.1244065 2.0237742,8.2524637 2.03125,8.375 2.3044792,5.6872311 4.3677651,3.5402453 7,3.09375 7.3295937,3.0378424 7.6544741,3 8,3 c 0.172589,0 0.3319146,0.01418 0.5,0.03125 0.021038,0.00177 0.041525,-0.00199 0.0625,0 C 8.7093611,3.0480106 8.8572861,3.0645465 9,3.09375 11.632235,3.5402453 13.695521,5.6872309 13.96875,8.375 13.976226,8.2524637 14,8.1244065 14,8 14,4.6880003 11.312,2 8,2 z" opacity=".5"/><path id="BevelHighlight" fill="#fff" fill-opacity="1" stroke="none" stroke-dasharray="none" stroke-linecap="round" stroke-linejoin="miter" stroke-miterlimit="4" stroke-opacity="1" stroke-width="1" d="m 2,8 c 0,0.3643469 0,0.6670067 0,1 0,3.312 2.6880002,6 6,6 3.312,0 6,-2.688 6,-6 0,-0.3651674 0,-0.6670853 0,-1 0,3.312 -2.688,6 -6,6 C 4.6880002,14 2,11.312 2,8 z" opacity=".3"/></g></svg>