<svg xmlns="http://www.w3.org/2000/svg" xmlns:svg="http://www.w3.org/2000/svg" xmlns:xlink="http://www.w3.org/1999/xlink" id="svg2" width="16" height="16" version="1.0"><defs id="defs4"><linearGradient id="StandardGradient" x1="9.239" x2="9.239" y1="7.448" y2="14.326" gradientTransform="matrix(1.3125184,0,0,1.6041891,-4.7238894,-9.9478739)" gradientUnits="userSpaceOnUse"><stop id="stop3389" offset="0" stop-color="#000" stop-opacity=".863"/><stop id="stop3391" offset="1" stop-color="#000" stop-opacity=".471"/></linearGradient><linearGradient id="linearGradient2396" x1="9.239" x2="9.239" y1="7.448" y2="14.326" gradientTransform="matrix(1.3125184,0,0,1.6041891,7.2761106,-9.9478739)" gradientUnits="userSpaceOnUse" xlink:href="#StandardGradient"/><linearGradient id="linearGradient3627" x1="9.239" x2="9.239" y1="7.448" y2="14.326" gradientTransform="matrix(1.3125184,0,0,1.6041891,-12.723889,-9.9478739)" gradientUnits="userSpaceOnUse" xlink:href="#StandardGradient"/><clipPath id="clipPath3634" clipPathUnits="userSpaceOnUse"><path id="path3636" fill="#f0f" fill-opacity="1" stroke="none" d="m -20,0 0,16 16,0 0,-16 -16,0 z m 4,3 3,0 0,10 -3,0 0,-10 z m 5,0 3,0 0,10 -3,0 0,-10 z" display="inline"/></clipPath><filter id="filter3638"><feGaussianBlur id="feGaussianBlur3640" stdDeviation=".27"/></filter><linearGradient id="linearGradient4538" x1="9.239" x2="9.239" y1="7.448" y2="14.326" gradientTransform="matrix(1.3125184,0,0,1.6041891,7.2761106,-9.9478739)" gradientUnits="userSpaceOnUse" xlink:href="#StandardGradient"/><linearGradient id="linearGradient4542" x1="9.239" x2="9.239" y1="7.448" y2="14.326" gradientTransform="matrix(1.3125184,0,0,1.6041891,7.2761106,-9.9478739)" gradientUnits="userSpaceOnUse" xlink:href="#StandardGradient"/></defs><metadata id="metadata7"/><g id="layer1"><path id="path4540" fill="#fff" fill-opacity="1" fill-rule="nonzero" stroke="none" d="M 3.90625 2 A 0.9855174 0.9855174 0 0 0 3 3 L 3 13 A 0.9855174 0.9855174 0 0 0 4 14 L 7 14 A 0.9855174 0.9855174 0 0 0 8 13.09375 A 0.9855174 0.9855174 0 0 0 9 14 L 12 14 A 0.9855174 0.9855174 0 0 0 13 13 L 13 3 A 0.9855174 0.9855174 0 0 0 12 2 L 9 2 A 0.9855174 0.9855174 0 0 0 8 2.90625 A 0.9855174 0.9855174 0 0 0 7 2 L 4 2 A 0.9855174 0.9855174 0 0 0 3.90625 2 z M 4 3 L 7 3 L 7 13 L 4 13 L 4 3 z M 9 3 L 12 3 L 12 13 L 9 13 L 9 3 z" opacity=".15"/><path id="Symbol" fill="url(#linearGradient2396)" fill-opacity="1" fill-rule="nonzero" stroke="none" stroke-dasharray="none" stroke-dashoffset="0" stroke-linecap="square" stroke-linejoin="round" stroke-miterlimit="4" stroke-opacity="1" stroke-width="1" d="M 4,3 L 4,13 L 7,13 L 7,3 L 4,3 z M 9,3 L 9,13 L 12,13 L 12,3 L 9,3 z" opacity="1"/><path id="BevelShadow" fill="#000" fill-opacity="1" fill-rule="nonzero" stroke="none" stroke-dasharray="none" stroke-dashoffset="0" stroke-linecap="square" stroke-linejoin="round" stroke-miterlimit="4" stroke-opacity="1" stroke-width="1" d="M 4 3 L 4 4 L 7 4 L 7 3 L 4 3 z M 9 3 L 9 4 L 12 4 L 12 3 L 9 3 z" opacity=".5"/><path id="path3173" fill="#fff" fill-opacity="1" fill-rule="nonzero" stroke="none" stroke-dasharray="none" stroke-dashoffset="0" stroke-linecap="square" stroke-linejoin="round" stroke-miterlimit="4" stroke-opacity="1" stroke-width="1" d="M 4,13 L 4,14 L 7,14 L 7,13 L 4,13 z M 9,13 L 9,14 L 12,14 L 12,13 L 9,13 z" opacity=".3"/></g></svg>