<svg xmlns="http://www.w3.org/2000/svg" xmlns:svg="http://www.w3.org/2000/svg" xmlns:xlink="http://www.w3.org/1999/xlink" id="svg2" width="16" height="16" version="1.0"><defs id="defs4"><linearGradient id="StandardGradient" x1="9.239" x2="9.239" y1="7.448" y2="14.326" gradientTransform="matrix(1.3125184,0,0,1.6041891,-4.7238894,-9.9478739)" gradientUnits="userSpaceOnUse"><stop id="stop3389" offset="0" stop-color="#000" stop-opacity=".863"/><stop id="stop3391" offset="1" stop-color="#000" stop-opacity=".471"/></linearGradient><linearGradient id="linearGradient2396" x1="9.239" x2="9.239" y1="7.448" y2="14.326" gradientTransform="matrix(1.3125184,0,0,1.6041891,7.2761106,-9.9478739)" gradientUnits="userSpaceOnUse" xlink:href="#StandardGradient"/><linearGradient id="linearGradient3627" x1="9.239" x2="9.239" y1="7.448" y2="14.326" gradientTransform="matrix(1.3125184,0,0,1.6041891,-12.723889,-9.9478739)" gradientUnits="userSpaceOnUse" xlink:href="#StandardGradient"/><clipPath id="clipPath3634" clipPathUnits="userSpaceOnUse"><path id="path3636" fill="#f0f" fill-opacity="1" stroke="none" d="m -20,0 0,16 16,0 0,-16 -16,0 z m 4,3 3,0 0,10 -3,0 0,-10 z m 5,0 3,0 0,10 -3,0 0,-10 z" display="inline"/></clipPath><linearGradient id="linearGradient2852" x1="9.239" x2="9.239" y1="7.448" y2="14.326" gradientTransform="matrix(1.3125184,0,0,1.6041891,6.2761106,-9.9478739)" gradientUnits="userSpaceOnUse" xlink:href="#StandardGradient"/><linearGradient id="linearGradient2856" x1="9.239" x2="9.239" y1="7.448" y2="14.326" gradientTransform="matrix(1.3125184,0,0,1.6041891,-13.723889,-9.9478739)" gradientUnits="userSpaceOnUse" xlink:href="#StandardGradient"/><clipPath id="clipPath2863" clipPathUnits="userSpaceOnUse"><path id="path2865" fill="#f0f" fill-opacity="1" stroke="none" d="m -20,0 0,16 16,0 0,-16 -16,0 z m 3,3 10,0 0,10 -4,0 -1,0 -2,0 -1,0 -2,0 0,-10 z" display="inline"/></clipPath><filter id="filter3639"><feGaussianBlur id="feGaussianBlur3641" stdDeviation=".3"/></filter><linearGradient id="linearGradient3240" x1="9.239" x2="9.239" y1="7.448" y2="14.326" gradientTransform="matrix(1.3125184,0,0,1.6041891,6.2761106,-9.9478739)" gradientUnits="userSpaceOnUse" xlink:href="#StandardGradient"/><linearGradient id="linearGradient3244" x1="9.239" x2="9.239" y1="7.448" y2="14.326" gradientTransform="matrix(1.3125184,0,0,1.6041891,6.2761106,-9.9478739)" gradientUnits="userSpaceOnUse" xlink:href="#StandardGradient"/></defs><metadata id="metadata7"/><g id="layer1"><path id="path3242" fill="#fff" fill-opacity="1" fill-rule="nonzero" stroke="none" d="M 2.8125 2 A 1.0141841 1.0141841 0 0 0 2 3 L 2 13 A 1.0141841 1.0141841 0 0 0 3 14 L 5 14 L 6 14 L 8 14 L 9 14 L 13 14 A 1.0141841 1.0141841 0 0 0 14 13 L 14 3 A 1.0141841 1.0141841 0 0 0 13 2 L 3 2 A 1.0141841 1.0141841 0 0 0 2.8125 2 z M 3 3 L 13 3 L 13 13 L 9 13 L 8 13 L 6 13 L 5 13 L 3 13 L 3 3 z" opacity=".15"/><path id="Symbol" fill="url(#linearGradient2852)" fill-opacity="1" fill-rule="nonzero" stroke="none" d="m 3,3 0,10 2,0 1,0 2,0 1,0 4,0 L 13,3 3,3 z"/><path id="BevelShadow" fill="#000" fill-opacity="1" fill-rule="nonzero" stroke="none" d="M 3,3 3,4 13,4 13,3 3,3 z" opacity=".5"/><path id="path3173" fill="#fff" fill-opacity="1" fill-rule="nonzero" stroke="none" d="m 3,13 0,1 10,0 0,-1 -10,0 z" opacity=".3"/></g></svg>