<svg xmlns="http://www.w3.org/2000/svg" xmlns:svg="http://www.w3.org/2000/svg" xmlns:xlink="http://www.w3.org/1999/xlink" id="svg2" width="16" height="16" version="1.0"><defs id="defs4"><linearGradient id="StandardGradient" x1="9.239" x2="9.239" y1="7.448" y2="14.326" gradientTransform="matrix(1.3125184,0,0,1.6041891,-4.7238894,-9.9478739)" gradientUnits="userSpaceOnUse"><stop id="stop3389" offset="0" stop-color="#000" stop-opacity=".863"/><stop id="stop3391" offset="1" stop-color="#000" stop-opacity=".471"/></linearGradient><linearGradient id="linearGradient2396" x1="9.239" x2="9.239" y1="7.448" y2="14.326" gradientTransform="matrix(1.3125184,0,0,1.6041891,7.2761106,-9.9478739)" gradientUnits="userSpaceOnUse" xlink:href="#StandardGradient"/><linearGradient id="linearGradient3627" x1="9.239" x2="9.239" y1="7.448" y2="14.326" gradientTransform="matrix(1.3125184,0,0,1.6041891,-12.723889,-9.9478739)" gradientUnits="userSpaceOnUse" xlink:href="#StandardGradient"/><clipPath id="clipPath3634" clipPathUnits="userSpaceOnUse"><path id="path3636" fill="#f0f" fill-opacity="1" stroke="none" d="m -20,0 0,16 16,0 0,-16 -16,0 z m 4,3 3,0 0,10 -3,0 0,-10 z m 5,0 3,0 0,10 -3,0 0,-10 z" display="inline"/></clipPath><linearGradient id="linearGradient4538" x1="9.239" x2="9.239" y1="7.448" y2="14.326" gradientTransform="matrix(1.3125184,0,0,1.6041891,7.2761106,-9.9478739)" gradientUnits="userSpaceOnUse" xlink:href="#StandardGradient"/><linearGradient id="linearGradient4542" x1="9.239" x2="9.239" y1="7.448" y2="14.326" gradientTransform="matrix(1.3125184,0,0,1.6041891,7.2761106,-9.9478739)" gradientUnits="userSpaceOnUse" xlink:href="#StandardGradient"/><linearGradient id="StandardGradient-8" x1="7.941" x2="7.941" y1="5.92" y2="18.791" gradientTransform="scale(1.1766968,0.8498366)" gradientUnits="userSpaceOnUse"><stop id="stop3389-6" offset="0" stop-color="#000" stop-opacity=".863"/><stop id="stop3391-6" offset="1" stop-color="#000" stop-opacity=".471"/></linearGradient><linearGradient id="linearGradient3016" x1="7.941" x2="7.941" y1="5.92" y2="18.791" gradientTransform="matrix(1.1766968,0,0,0.8498366,-2,-2)" gradientUnits="userSpaceOnUse" xlink:href="#StandardGradient-8"/><linearGradient id="linearGradient3044" x1="7.941" x2="7.941" y1="5.92" y2="18.791" gradientTransform="matrix(1.1766968,0,0,0.8498366,-3,-3)" gradientUnits="userSpaceOnUse" xlink:href="#StandardGradient-8"/><linearGradient id="linearGradient3048" x1="7.941" x2="7.941" y1="5.92" y2="18.791" gradientTransform="matrix(1.1766968,0,0,-0.8498366,-3,19)" gradientUnits="userSpaceOnUse" xlink:href="#StandardGradient-8"/><linearGradient id="linearGradient3052" x1="7.941" x2="7.941" y1="5.92" y2="18.791" gradientTransform="matrix(1.1766968,0,0,-0.8498366,-3,19)" gradientUnits="userSpaceOnUse" xlink:href="#StandardGradient-8"/><linearGradient id="linearGradient3056" x1="7.941" x2="7.941" y1="5.92" y2="18.791" gradientTransform="matrix(1.1766968,0,0,-0.8498366,-3,19)" gradientUnits="userSpaceOnUse" xlink:href="#StandardGradient-8"/><linearGradient id="linearGradient3060" x1="7.941" x2="7.941" y1="5.92" y2="18.791" gradientTransform="matrix(1.1766968,0,0,0.8498366,-3,-3)" gradientUnits="userSpaceOnUse" xlink:href="#StandardGradient-8"/><linearGradient id="linearGradient3064" x1="7.941" x2="7.941" y1="5.92" y2="18.791" gradientTransform="matrix(1.1766968,0,0,0.8498366,-3,-3)" gradientUnits="userSpaceOnUse" xlink:href="#StandardGradient-8"/><linearGradient id="linearGradient3072" x1="7.941" x2="7.941" y1="5.92" y2="18.791" gradientTransform="matrix(1.1766968,0,0,0.8498366,-3,-3)" gradientUnits="userSpaceOnUse" xlink:href="#StandardGradient-8"/><linearGradient id="linearGradient3075" x1="7.941" x2="7.941" y1="5.92" y2="18.791" gradientTransform="matrix(1.1766968,0,0,-0.8498366,-3,19)" gradientUnits="userSpaceOnUse" xlink:href="#StandardGradient-8"/><linearGradient id="linearGradient3078" x1="7.941" x2="7.941" y1="5.92" y2="18.791" gradientTransform="matrix(1.1766968,0,0,0.8498366,-3,-3)" gradientUnits="userSpaceOnUse" xlink:href="#StandardGradient-8"/><linearGradient id="linearGradient3081" x1="7.941" x2="7.941" y1="5.92" y2="19.982" gradientTransform="matrix(1.1766968,0,0,0.8498366,-3,-3)" gradientUnits="userSpaceOnUse" xlink:href="#StandardGradient-8"/><linearGradient id="linearGradient3087" x1="7.941" x2="7.941" y1="5.92" y2="19.982" gradientTransform="matrix(1.1766968,0,0,0.8498366,-3,-2)" gradientUnits="userSpaceOnUse" xlink:href="#StandardGradient-8"/><linearGradient id="linearGradient3089" x1="7.941" x2="7.941" y1="5.92" y2="19.982" gradientTransform="matrix(1.1766968,0,0,0.8498366,-3,-3)" gradientUnits="userSpaceOnUse" xlink:href="#StandardGradient-8"/><linearGradient id="linearGradient3862" x1="7.941" x2="7.941" y1="5.92" y2="19.982" gradientTransform="matrix(1.1766968,0,0,0.8498366,-3,-2)" gradientUnits="userSpaceOnUse" xlink:href="#StandardGradient-8"/><linearGradient id="linearGradient3866" x1="7.941" x2="7.941" y1="5.92" y2="19.982" gradientTransform="matrix(1.1766968,0,0,0.8498366,-3,-3)" gradientUnits="userSpaceOnUse" xlink:href="#StandardGradient-8"/><linearGradient id="linearGradient3873" x1="7.941" x2="7.941" y1="5.92" y2="19.982" gradientTransform="matrix(1.1766968,0,0,0.8498366,-3,-3)" gradientUnits="userSpaceOnUse" xlink:href="#StandardGradient-8"/><linearGradient id="linearGradient3877" x1="7.941" x2="7.941" y1="5.92" y2="19.982" gradientTransform="matrix(1.1766968,0,0,0.8498366,-3,-3)" gradientUnits="userSpaceOnUse" xlink:href="#StandardGradient-8"/></defs><metadata id="metadata7"/><g id="layer1"><path id="path3875" fill="#fff" fill-opacity="1" fill-rule="nonzero" stroke="none" d="M 10.84375 1.03125 A 0.96196924 0.96196924 0 0 0 10.03125 2 L 10.03125 3.03125 L 9.96875 3.03125 C 7.9569188 3.03125 6.5853743 3.8514399 5.625 4.8125 C 5.4891868 4.9484102 5.4059492 5.0808381 5.28125 5.21875 A 0.96196924 0.96196924 0 0 0 5.125 5.0625 C 4.2929568 4.4801816 3.2116602 4.03125 1.96875 4.03125 L 1 4.03125 A 0.96196924 0.96196924 0 0 0 0.03125 5 L 0.03125 7 A 0.96196924 0.96196924 0 0 0 1 7.96875 L 1.96875 7.96875 C 2.0123203 7.96875 2.0240203 7.9979092 2.0625 8 C 2.0224422 8.0013564 2.0137962 8.03125 1.96875 8.03125 L 1 8.03125 A 0.96196924 0.96196924 0 0 0 0.03125 9 L 0.03125 11 A 0.96196924 0.96196924 0 0 0 1 11.96875 L 1.96875 11.96875 C 3.2977468 11.96875 4.4038992 11.449402 5.28125 10.78125 A 0.96196924 0.96196924 0 0 0 5.34375 10.90625 C 6.3257112 11.973464 7.7551158 12.96875 9.96875 12.96875 L 10.03125 12.96875 L 10.03125 14 A 0.96196924 0.96196924 0 0 0 11.5625 14.78125 L 15.5625 11.78125 A 0.96196924 0.96196924 0 0 0 15.5625 10.21875 L 12.59375 8 L 15.5625 5.78125 A 0.96196924 0.96196924 0 0 0 15.5625 4.21875 L 11.5625 1.21875 A 0.96196924 0.96196924 0 0 0 10.9375 1.03125 A 0.96196924 0.96196924 0 0 0 10.84375 1.03125 z M 11 2 L 15 5 L 11 8 L 15 11 L 11 14 L 11 12 L 9.96875 12 C 8.0067358 12 6.9643279 11.230124 6.0625 10.25 C 6.5865486 9.7318264 7.0231839 9.2453484 7.40625 8.78125 C 8.0925133 9.4760923 8.8449703 10 9.96875 10 L 11 10 L 11 8 L 11 6 L 9.96875 6 C 7.6024917 6 6.8240228 8.2078687 5.03125 9.8125 C 4.2683973 10.495296 3.2252602 11 1.96875 11 L 1 11 L 1 9 L 1.96875 9 C 2.7308302 9 3.2083271 8.7490184 3.71875 8.3125 C 5.8310276 6.5060606 6.3947226 4 9.96875 4 L 11 4 L 11 2 z M 1 5 L 1.96875 5 C 2.9915493 5 3.8585498 5.3510795 4.5625 5.84375 C 4.1166542 6.3778221 3.6997199 6.8965985 3.21875 7.34375 C 2.8663177 7.1355749 2.4826298 7 1.96875 7 L 1 7 L 1 5 z M 9.96875 6.96875 L 10.03125 6.96875 L 10.03125 7.90625 A 0.96196924 0.96196924 0 0 0 10.03125 8 A 0.96196924 0.96196924 0 0 0 10.03125 8.09375 L 10.03125 9.03125 L 9.96875 9.03125 C 9.1439214 9.03125 8.702862 8.7104765 8.09375 8.09375 A 0.96196924 0.96196924 0 0 0 7.96875 7.96875 C 8.6023656 7.3013916 9.0847837 6.96875 9.96875 6.96875 z" opacity=".15"/><path id="path3042" fill="url(#linearGradient3081)" fill-opacity="1" fill-rule="nonzero" stroke="none" d="M 11 2 L 11 4 L 9.96875 4 C 6.3947226 4 5.8310276 6.5060606 3.71875 8.3125 C 3.2083271 8.7490184 2.7308302 9 1.96875 9 L 1 9 L 1 11 L 1.96875 11 C 3.2252602 11 4.2683973 10.495296 5.03125 9.8125 C 6.8240228 8.2078687 7.6024917 6 9.96875 6 L 11 6 L 11 8 L 15 5 L 11 2 z M 11 8 L 11 10 L 9.96875 10 C 8.8449703 10 8.0925133 9.4760923 7.40625 8.78125 C 7.0231839 9.2453484 6.5865486 9.7318264 6.0625 10.25 C 6.9643279 11.230124 8.0067358 12 9.96875 12 L 11 12 L 11 14 L 15 11 L 11 8 z M 1 5 L 1 7 L 1.96875 7 C 2.4826298 7 2.8663177 7.1355749 3.21875 7.34375 C 3.6997199 6.8965985 4.1166542 6.3778221 4.5625 5.84375 C 3.8585498 5.3510795 2.9915493 5 1.96875 5 L 1 5 z"/><path id="path3083" fill="#000" fill-opacity="1" fill-rule="nonzero" stroke="none" d="M 11,2 11,3 14.34375,5.5 15,5 z M 9.96875,4 C 6.3947226,4 5.8310276,6.5060606 3.71875,8.3125 3.2083271,8.7490184 2.7308302,9 1.96875,9 L 1,9 1,10 1.96875,10 C 2.7308302,10 3.2083271,9.7490184 3.71875,9.3125 5.8310276,7.5060606 6.3947226,5 9.96875,5 L 11,5 11,4 z M 1,5 1,6 1.96875,6 C 2.7358495,6 3.4112334,6.1934135 4,6.5 4.1855254,6.2835637 4.3736638,6.0699541 4.5625,5.84375 3.8585498,5.3510795 2.9915493,5 1.96875,5 z m 10,3 0,1 3.34375,2.5 L 15,11 z M 7.40625,8.78125 C 7.0231839,9.2453484 6.5865486,9.7318264 6.0625,10.25 c 0.1553494,0.168837 0.3323254,0.315252 0.5,0.46875 C 6.8654142,10.396221 7.1576904,10.082389 7.40625,9.78125 8.0925133,10.476092 8.8449703,11 9.96875,11 L 11,11 11,10 9.96875,10 C 8.8449703,10 8.0925133,9.4760923 7.40625,8.78125 z" opacity=".5"/><path id="path3860" fill="#fff" fill-opacity="1" fill-rule="nonzero" stroke="none" d="M 14.34375 5.5 L 11 8 L 11.65625 8.5 L 15 6 L 14.34375 5.5 z M 9.96875 6 C 7.6024917 6 6.8240228 8.2078687 5.03125 9.8125 C 4.2683973 10.495296 3.2252602 11 1.96875 11 L 1 11 L 1 12 L 1.96875 12 C 3.2252602 12 4.2683973 11.495296 5.03125 10.8125 C 6.8240228 9.2078687 7.6024917 7 9.96875 7 L 11 7 L 11 6 L 9.96875 6 z M 4 6.5 C 3.7474964 6.7945739 3.496007 7.0859877 3.21875 7.34375 C 2.8663177 7.1355749 2.4826298 7 1.96875 7 L 1 7 L 1 8 L 1.96875 8 C 2.4826298 8 2.8663177 8.1355749 3.21875 8.34375 C 3.6997199 7.8965985 4.1166542 7.3778221 4.5625 6.84375 C 4.3865124 6.7205824 4.1962555 6.6021955 4 6.5 z M 6.5625 10.71875 C 6.3985799 10.893285 6.2465098 11.068053 6.0625 11.25 C 6.9643279 12.230124 8.0067358 13 9.96875 13 L 11 13 L 11 12 L 9.96875 12 C 8.3447136 12 7.3682027 11.456334 6.5625 10.71875 z M 14.34375 11.5 L 11 14 L 11 15 L 15 12 L 14.34375 11.5 z" opacity=".3"/></g></svg>