<svg xmlns="http://www.w3.org/2000/svg" xmlns:svg="http://www.w3.org/2000/svg" xmlns:xlink="http://www.w3.org/1999/xlink" id="svg2" width="16" height="16" version="1.0"><defs id="defs4"><linearGradient id="StandardGradient" x1="9.239" x2="9.239" y1="7.448" y2="14.326" gradientTransform="matrix(1.3125184,0,0,1.6041891,-4.7238894,-9.9478739)" gradientUnits="userSpaceOnUse"><stop id="stop3389" offset="0" stop-color="#000" stop-opacity=".863"/><stop id="stop3391" offset="1" stop-color="#000" stop-opacity=".471"/></linearGradient><linearGradient id="linearGradient2396" x1="9.239" x2="9.239" y1="7.448" y2="14.326" gradientTransform="matrix(1.3125184,0,0,1.6041891,7.2761106,-9.9478739)" gradientUnits="userSpaceOnUse" xlink:href="#StandardGradient"/><linearGradient id="linearGradient3627" x1="9.239" x2="9.239" y1="7.448" y2="14.326" gradientTransform="matrix(1.3125184,0,0,1.6041891,-12.723889,-9.9478739)" gradientUnits="userSpaceOnUse" xlink:href="#StandardGradient"/><clipPath id="clipPath3634" clipPathUnits="userSpaceOnUse"><path id="path3636" fill="#f0f" fill-opacity="1" stroke="none" d="m -20,0 0,16 16,0 0,-16 -16,0 z m 4,3 3,0 0,10 -3,0 0,-10 z m 5,0 3,0 0,10 -3,0 0,-10 z" display="inline"/></clipPath><linearGradient id="linearGradient4538" x1="9.239" x2="9.239" y1="7.448" y2="14.326" gradientTransform="matrix(1.3125184,0,0,1.6041891,7.2761106,-9.9478739)" gradientUnits="userSpaceOnUse" xlink:href="#StandardGradient"/><linearGradient id="linearGradient4542" x1="9.239" x2="9.239" y1="7.448" y2="14.326" gradientTransform="matrix(1.3125184,0,0,1.6041891,7.2761106,-9.9478739)" gradientUnits="userSpaceOnUse" xlink:href="#StandardGradient"/><linearGradient id="StandardGradient-5" x1="9.397" x2="9.397" y1="5.547" y2="19.983" gradientTransform="scale(1.1094004,0.9013878)" gradientUnits="userSpaceOnUse"><stop id="stop3389-5" offset="0" stop-color="#000" stop-opacity=".863"/><stop id="stop3391-9" offset="1" stop-color="#000" stop-opacity=".471"/></linearGradient><linearGradient id="linearGradient3018" x1="9.397" x2="9.397" y1="6.656" y2="19.983" gradientTransform="matrix(1.1094004,0,0,0.9013878,-4,-3)" gradientUnits="userSpaceOnUse" xlink:href="#StandardGradient-5"/><linearGradient id="linearGradient3042" x1="9.397" x2="9.397" y1="6.656" y2="19.983" gradientTransform="matrix(1.1094004,0,0,0.9013878,-4,-2)" gradientUnits="userSpaceOnUse" xlink:href="#StandardGradient-5"/><linearGradient id="linearGradient3044" x1="9.397" x2="9.397" y1="6.656" y2="19.983" gradientTransform="matrix(1.1094004,0,0,0.9013878,-4,-3)" gradientUnits="userSpaceOnUse" xlink:href="#StandardGradient-5"/><linearGradient id="linearGradient3817" x1="9.397" x2="9.397" y1="6.656" y2="19.983" gradientTransform="matrix(1.1094004,0,0,0.9013878,-4,-2)" gradientUnits="userSpaceOnUse" xlink:href="#StandardGradient-5"/><linearGradient id="linearGradient3821" x1="9.397" x2="9.397" y1="6.656" y2="19.983" gradientTransform="matrix(1.1094004,0,0,0.9013878,-4,-3)" gradientUnits="userSpaceOnUse" xlink:href="#StandardGradient-5"/><linearGradient id="linearGradient3828" x1="9.397" x2="9.397" y1="6.656" y2="19.983" gradientTransform="matrix(1.1094004,0,0,0.9013878,-4,-3)" gradientUnits="userSpaceOnUse" xlink:href="#StandardGradient-5"/><linearGradient id="linearGradient3832" x1="9.397" x2="9.397" y1="6.656" y2="19.983" gradientTransform="matrix(1.1094004,0,0,0.9013878,-4,-3)" gradientUnits="userSpaceOnUse" xlink:href="#StandardGradient-5"/></defs><metadata id="metadata7"/><g id="layer1"><path id="path3830" fill="#fff" fill-opacity="1" fill-rule="nonzero" stroke="none" d="M 3.5 2 C 1.5716064 2 0 3.5716064 0 5.5 L 0 10.5 C 0 12.428394 1.5716064 14 3.5 14 L 5.03125 14 A 1.0125678 1.0125678 0 0 0 6.03125 12.875 C 6.0235734 12.818055 6.0045053 12.805962 6 12.78125 C 6 12.735201 5.9953061 12.706934 6 12.71875 L 6 12.1875 A 1.0125678 1.0125678 0 0 0 6.40625 12.8125 L 10.40625 15.8125 A 1.0125678 1.0125678 0 0 0 12 15 L 12 14 L 12.5 14 C 14.428394 14 16 12.428394 16 10.5 L 16 5.5 C 16 3.5716064 14.428394 2 12.5 2 L 3.5 2 z M 3.5 3 L 12.5 3 C 13.885 3 15 4.115 15 5.5 L 15 10.5 C 15 11.885 13.885 13 12.5 13 L 11 13 L 11 15 L 7 12 L 11 9 L 11 11 L 11.5 11 C 12.331 11 13 10.331 13 9.5 L 13 6.5 C 13 5.669 12.331 5 11.5 5 L 4.5 5 C 3.669 5 3 5.669 3 6.5 L 3 9.5 C 3 10.331 3.669 11 4.5 11 L 5 11 L 5 12.78125 C 5 12.862323 5.0208 12.922482 5.03125 13 L 3.5 13 C 2.115 13 1 11.885 1 10.5 L 1 5.5 C 1 4.115 2.115 3 3.5 3 z M 4.5 6 L 11.5 6 C 11.787606 6 12 6.2123936 12 6.5 L 12 8.8125 A 1.0125678 1.0125678 0 0 0 10.40625 8.1875 L 6.40625 11.1875 A 1.0125678 1.0125678 0 0 0 6 11.75 L 6 11 A 1.0125678 1.0125678 0 0 0 5 10 L 4.5 10 C 4.2123936 10 4 9.7876064 4 9.5 L 4 6.5 C 4 6.2123936 4.2123936 6 4.5 6 z" opacity=".15"/><path id="Symbol" fill="url(#linearGradient3018)" fill-opacity="1" fill-rule="nonzero" stroke="none" d="M 3.5,3 C 2.115,3 1,4.115 1,5.5 l 0,5 C 1,11.885 2.115,13 3.5,13 l 1.53125,0 C 5.0208,12.922482 5,12.862323 5,12.78125 L 5,11 4.5,11 C 3.669,11 3,10.331 3,9.5 l 0,-3 C 3,5.669 3.669,5 4.5,5 l 7,0 C 12.331,5 13,5.669 13,6.5 l 0,3 c 0,0.831 -0.669,1.5 -1.5,1.5 l -0.5,0 0,-2 -4,3 4,3 0,-2 1.5,0 c 1.385,0 2.5,-1.115 2.5,-2.5 l 0,-5 C 15,4.115 13.885,3 12.5,3 z"/><path id="path3038" fill="#000" fill-opacity="1" fill-rule="nonzero" stroke="none" d="M 3.5 3 C 2.115 3 1 4.115 1 5.5 L 1 6.5 C 1 5.115 2.115 4 3.5 4 L 12.5 4 C 13.885 4 15 5.115 15 6.5 L 15 5.5 C 15 4.115 13.885 3 12.5 3 L 3.5 3 z M 11 9 L 7 12 L 7.65625 12.5 L 11 10 L 11 9 z M 3 9.5 L 3 10.5 C 3 11.331 3.669 12 4.5 12 L 5 12 L 5 11 L 4.5 11 C 3.669 11 3 10.331 3 9.5 z M 13 9.5 C 13 10.331 12.331 11 11.5 11 L 11 11 L 11 12 L 11.5 12 C 12.331 12 13 11.331 13 10.5 L 13 9.5 z M 5 12.78125 L 5 13 L 5.03125 13 C 5.0208 12.922482 5 12.862323 5 12.78125 z" opacity=".5"/><path id="path3815" fill="#fff" fill-opacity="1" fill-rule="nonzero" stroke="none" d="M 4.5 5 C 3.669 5 3 5.669 3 6.5 L 3 7.5 C 3 6.669 3.669 6 4.5 6 L 11.5 6 C 12.331 6 13 6.669 13 7.5 L 13 6.5 C 13 5.669 12.331 5 11.5 5 L 4.5 5 z M 1 10.5 L 1 11.5 C 1 12.885 2.115 14 3.5 14 L 5.03125 14 C 5.0208 13.922482 5 13.862323 5 13.78125 L 5 13 L 3.5 13 C 2.115 13 1 11.885 1 10.5 z M 15 10.5 C 15 11.885 13.885 13 12.5 13 L 11 13 L 11 14 L 12.5 14 C 13.885 14 15 12.885 15 11.5 L 15 10.5 z M 7.65625 12.5 L 7 13 L 11 16 L 11 15 L 7.65625 12.5 z" opacity=".3"/></g></svg>