<svg xmlns="http://www.w3.org/2000/svg" xmlns:svg="http://www.w3.org/2000/svg" xmlns:xlink="http://www.w3.org/1999/xlink" id="svg2" width="16" height="16" version="1.0"><defs id="defs4"><linearGradient id="StandardGradient" x1="11.347" x2="11.347" y1="6" y2="16.013" gradientTransform="translate(-3,-2.9995677)" gradientUnits="userSpaceOnUse"><stop id="stop3177" offset="0" stop-color="#000" stop-opacity=".863"/><stop id="stop3179" offset="1" stop-color="#000" stop-opacity=".471"/></linearGradient><linearGradient id="linearGradient2409" x1="11.347" x2="11.347" y1="4.995" y2="17.001" gradientTransform="translate(-3,-2.9995677)" gradientUnits="userSpaceOnUse" xlink:href="#StandardGradient"/><linearGradient id="linearGradient3206" x1="11.347" x2="11.347" y1="4.995" y2="17.001" gradientTransform="translate(0,-1.0312503)" gradientUnits="userSpaceOnUse" xlink:href="#StandardGradient"/><linearGradient id="linearGradient3661" x1="9" x2="9" y1="0" y2="16.031" gradientUnits="userSpaceOnUse" xlink:href="#StandardGradient"/><linearGradient id="linearGradient3667" x1="9" x2="9" y1="0" y2="16.031" gradientTransform="translate(3,3.9995677)" gradientUnits="userSpaceOnUse" xlink:href="#StandardGradient"/><linearGradient id="linearGradient3669" x1="9" x2="9" y1="0" y2="16.031" gradientUnits="userSpaceOnUse" xlink:href="#StandardGradient"/><linearGradient id="linearGradient3674" x1="9" x2="9" y1="0" y2="16.031" gradientTransform="translate(-17,2.9995677)" gradientUnits="userSpaceOnUse" xlink:href="#StandardGradient"/><linearGradient id="linearGradient3678" x1="9" x2="9" y1="0" y2="16.031" gradientTransform="translate(0,1)" gradientUnits="userSpaceOnUse" xlink:href="#StandardGradient"/><linearGradient id="linearGradient3682" x1="9" x2="9" y1="0" y2="16.031" gradientTransform="translate(3,2.9995677)" gradientUnits="userSpaceOnUse" xlink:href="#StandardGradient"/><clipPath id="clipPath3698" clipPathUnits="userSpaceOnUse"><path id="path3700" fill="#f0f" fill-opacity="1" stroke="none" d="m -17,2.9995677 0,8.0000003 3,-3.0000003 0,6.0000003 -3,-3 0,8 8,0 -3,-3 6,0 -3,3 8,0 0,-8 -3,3 0,-6.0000003 3,3.0000003 0,-8.0000003 -8,0 3,3 -6,0 3,-3 -8,0 z m 4.5,4 7,0 c 0.277,0 0.5,0.223 0.5,0.5 l 0,7.0000003 c 0,0.277 -0.223,0.5 -0.5,0.5 l -7,0 c -0.277,0 -0.5,-0.223 -0.5,-0.5 l 0,-7.0000003 c 0,-0.277 0.223,-0.5 0.5,-0.5 z m 1.5,1 0,1 1,0 0,-1 -1,0 z m 2,0 0,1 1,0 0,-1 -1,0 z m 2,0 0,1 1,0 0,-1 -1,0 z m -4,2 0,3.0000003 4,0 0,-3.0000003 -4,0 z" display="inline"/></clipPath><filter id="filter3702"><feGaussianBlur id="feGaussianBlur3704" stdDeviation=".48"/></filter><linearGradient id="linearGradient4518" x1="9" x2="9" y1="0" y2="16.031" gradientUnits="userSpaceOnUse" xlink:href="#StandardGradient"/><linearGradient id="linearGradient4522" x1="9" x2="9" y1="0" y2="16.031" gradientUnits="userSpaceOnUse" xlink:href="#StandardGradient"/></defs><metadata id="metadata7"/><g id="layer3" display="inline" transform="translate(-3,-2.9995677)"><path id="path4520" fill="#fff" fill-opacity="1" stroke="none" d="M 7.875 -0.96875 A 0.96839455 0.96839455 0 0 0 7.3125 -0.6875 L 4.3125 2.3125 A 0.96839455 0.96839455 0 0 0 4.0625 3.21875 C 3.6490776 3.3686783 3.3686783 3.6490776 3.21875 4.0625 A 0.96839455 0.96839455 0 0 0 2.3125 4.3125 L -0.6875 7.3125 A 0.96839455 0.96839455 0 0 0 -0.6875 8.6875 L 2.3125 11.6875 A 0.96839455 0.96839455 0 0 0 3.21875 11.9375 C 3.3686783 12.350922 3.6490776 12.631322 4.0625 12.78125 A 0.96839455 0.96839455 0 0 0 4.3125 13.6875 L 7.3125 16.6875 A 0.96839455 0.96839455 0 0 0 8.6875 16.6875 L 11.6875 13.6875 A 0.96839455 0.96839455 0 0 0 11.9375 12.78125 C 12.350922 12.631322 12.631322 12.350922 12.78125 11.9375 A 0.96839455 0.96839455 0 0 0 13.6875 11.6875 L 16.6875 8.6875 A 0.96839455 0.96839455 0 0 0 16.6875 7.3125 L 13.6875 4.3125 A 0.96839455 0.96839455 0 0 0 12.78125 4.0625 C 12.631322 3.6490776 12.350922 3.3686783 11.9375 3.21875 A 0.96839455 0.96839455 0 0 0 11.6875 2.3125 L 8.6875 -0.6875 A 0.96839455 0.96839455 0 0 0 7.875 -0.96875 z M 8 0 L 11 3 L 5 3 L 8 0 z M 4.5 4 L 11.5 4 C 11.777 4 12 4.223 12 4.5 L 12 11.5 C 12 11.777 11.777 12 11.5 12 L 4.5 12 C 4.223 12 4 11.777 4 11.5 L 4 4.5 C 4 4.223 4.223 4 4.5 4 z M 3 5 L 3 11 L 0 8 L 3 5 z M 6 5 L 6 6 L 7 6 L 7 5 L 6 5 z M 8 5 L 8 6 L 9 6 L 9 5 L 8 5 z M 10 5 L 10 6 L 11 6 L 11 5 L 10 5 z M 13 5 L 16 8 L 13 11 L 13 5 z M 6 7 L 6 10 L 10 10 L 10 7 L 6 7 z M 6.96875 7.96875 L 9.03125 7.96875 L 9.03125 9.03125 L 6.96875 9.03125 L 6.96875 7.96875 z M 5 13 L 11 13 L 8 16 L 5 13 z" opacity=".15" transform="translate(3,2.9995677)"/><path id="path3626" fill="url(#linearGradient3661)" fill-opacity="1" stroke="none" stroke-linecap="butt" stroke-linejoin="miter" stroke-opacity="1" stroke-width="1" d="M 8 0 L 5 3 L 11 3 L 8 0 z M 4.5 4 C 4.223 4 4 4.223 4 4.5 L 4 11.5 C 4 11.777 4.223 12 4.5 12 L 11.5 12 C 11.777 12 12 11.777 12 11.5 L 12 4.5 C 12 4.223 11.777 4 11.5 4 L 4.5 4 z M 3 5 L 0 8 L 3 11 L 3 5 z M 6 5 L 7 5 L 7 6 L 6 6 L 6 5 z M 8 5 L 9 5 L 9 6 L 8 6 L 8 5 z M 10 5 L 11 5 L 11 6 L 10 6 L 10 5 z M 13 5 L 13 11 L 16 8 L 13 5 z M 6 7 L 10 7 L 10 10 L 6 10 L 6 7 z M 5 13 L 8 16 L 11 13 L 5 13 z" opacity="1" transform="translate(3,2.9995677)"/><path id="path3663" fill="#000" fill-opacity="1" stroke="none" stroke-linecap="butt" stroke-linejoin="miter" stroke-opacity="1" stroke-width="1" d="M 8 0 L 5 3 L 6 3 L 8 1 L 10 3 L 11 3 L 8 0 z M 4.5 4 C 4.223 4 4 4.223 4 4.5 L 4 5.5 C 4 5.223 4.223 5 4.5 5 L 6 5 L 7 5 L 8 5 L 9 5 L 10 5 L 11 5 L 11.5 5 C 11.777 5 12 5.223 12 5.5 L 12 4.5 C 12 4.223 11.777 4 11.5 4 L 11 4 L 5 4 L 4.5 4 z M 3 5 L 0 8 L 0.5 8.5 L 3 6 L 3 5 z M 13 5 L 13 6 L 15.5 8.5 L 16 8 L 13 5 z M 6 6 L 6 7 L 7 7 L 7 6 L 6 6 z M 8 6 L 8 7 L 9 7 L 9 6 L 8 6 z M 10 6 L 10 7 L 11 7 L 11 6 L 10 6 z M 6 10 L 6 11 L 10 11 L 10 10 L 6 10 z M 5 13 L 6 14 L 10 14 L 11 13 L 5 13 z" opacity=".5" transform="translate(3,2.9995677)"/><path id="path3676" fill="#fff" fill-opacity="1" stroke="none" d="M 6 3 L 5 4 L 11 4 L 10 3 L 6 3 z M 6 5 L 6 6 L 7 6 L 7 5 L 6 5 z M 8 5 L 8 6 L 9 6 L 9 5 L 8 5 z M 10 5 L 10 6 L 11 6 L 11 5 L 10 5 z M 6 7 L 6 8 L 10 8 L 10 7 L 9 7 L 8 7 L 7 7 L 6 7 z M 0.5 8.5 L 0 9 L 3 12 L 3 11 L 0.5 8.5 z M 15.5 8.5 L 13 11 L 13 12 L 16 9 L 15.5 8.5 z M 4 11.5 L 4 12.5 C 4 12.777 4.223 13 4.5 13 L 5 13 L 11 13 L 11.5 13 C 11.777 13 12 12.777 12 12.5 L 12 11.5 C 12 11.777 11.777 12 11.5 12 L 4.5 12 C 4.223 12 4 11.777 4 11.5 z M 5 14 L 7 16 L 8 16 L 6 14 L 5 14 z M 8 16 L 9 16 L 11 14 L 10 14 L 8 16 z" opacity=".3" transform="translate(3,2.9995677)"/></g></svg>