<svg xmlns="http://www.w3.org/2000/svg" xmlns:svg="http://www.w3.org/2000/svg" xmlns:xlink="http://www.w3.org/1999/xlink" id="svg2" width="16" height="16" version="1.0"><defs id="defs4"><linearGradient id="StandardGradient" x1="7.19" x2="7.19" y1="6.955" y2="18.319" gradientTransform="scale(1.1467263,0.8720476)" gradientUnits="userSpaceOnUse"><stop id="stop3280" offset="0" stop-color="#000" stop-opacity=".863"/><stop id="stop3282" offset="1" stop-color="#000" stop-opacity=".471"/></linearGradient><linearGradient id="linearGradient3627" x1="7.19" x2="7.19" y1="6.955" y2="18.319" gradientTransform="matrix(1.1467263,0,0,0.8720476,-20,0)" gradientUnits="userSpaceOnUse" xlink:href="#StandardGradient"/><clipPath id="clipPath3634" clipPathUnits="userSpaceOnUse"><path id="path3636" fill="#f0f" fill-opacity="1" stroke="none" d="m -19.535739,2.999982 0,16 16.0000003,0 0,-16 -16.0000003,0 z m 12.0000003,3.0625 2.03125,0 0,4.625 c 0,1.550514 -1.261986,2.34375 -2.8125,2.34375 l -4.2187503,0 0,2.9375 -6,-3.96875 6,-4.09375 0,3.0625 3.0312503,0 c 1.792454,0 1.96875,-0.332819 1.96875,-2.1875 l 0,-2.71875 z" display="inline"/></clipPath><linearGradient id="linearGradient4993" x1="7.19" x2="7.19" y1="6.955" y2="18.319" gradientTransform="scale(1.1467263,0.8720476)" gradientUnits="userSpaceOnUse" xlink:href="#StandardGradient"/><linearGradient id="linearGradient4997" x1="7.19" x2="7.19" y1="6.955" y2="18.319" gradientTransform="matrix(1.1467263,0,0,0.8720476,-0.4642613,-2.999982)" gradientUnits="userSpaceOnUse" xlink:href="#StandardGradient"/><linearGradient id="linearGradient3842" x1="13.262" x2="-2.652" y1="6.786" y2="6.786" gradientTransform="matrix(0,-1.1310246,0.8841541,0,3,17)" gradientUnits="userSpaceOnUse" xlink:href="#StandardGradient-0"/><linearGradient id="StandardGradient-0" x1="11.162" x2="11.162" y1="5.655" y2="18.098" gradientTransform="scale(1.1310246,0.8841541)" gradientUnits="userSpaceOnUse"><stop id="stop3280-1" offset="0" stop-color="#000" stop-opacity=".863"/><stop id="stop3282-2" offset="1" stop-color="#000" stop-opacity=".471"/></linearGradient><linearGradient id="linearGradient3060" x1="8.842" x2="-2.652" y1="6.786" y2="6.786" gradientTransform="matrix(0,-1.1310246,0.8841541,0,0,12)" gradientUnits="userSpaceOnUse" xlink:href="#StandardGradient-0"/><linearGradient id="linearGradient3840" x1="8.842" x2="-2.652" y1="6.786" y2="6.786" gradientTransform="matrix(0,-1.1310246,0.8841541,0,0.4642613,14.999982)" gradientUnits="userSpaceOnUse" xlink:href="#StandardGradient"/><linearGradient id="StandardGradient-2" x1="10.006" x2="10.006" y1="4.163" y2="17.168" gradientTransform="matrix(1.0765258,0,0,0.9227364,-0.00801316,0.1584665)" gradientUnits="userSpaceOnUse"><stop id="stop3337" offset="0" stop-color="#ebebeb" stop-opacity="1"/><stop id="stop3339" offset="1" stop-color="#aaa" stop-opacity="1"/></linearGradient></defs><metadata id="metadata7"/><g id="layer3" display="inline" transform="translate(-0.4642613,-2.999982)"><path id="path3867" fill="#fff" fill-opacity="1" stroke="none" d="m 2.9642613,3.9999821 c -1.3606722,0 -2.5,1.1393277 -2.5,2.5 0,1.3606723 1.1393277,2.5 2.5,2.5 1.3606723,0 2.5,-1.1393277 2.5,-2.5 0,-1.3606723 -1.1393278,-2.5 -2.5,-2.5 z m 0,5 c -1.3606723,0 -2.5,1.1393279 -2.5,2.4999999 0,1.360672 1.1393277,2.5 2.5,2.5 1.3606723,0 2.5,-1.139328 2.5,-2.5 0,-1.360672 -1.1393277,-2.4999999 -2.5,-2.4999999 z m 0,4.9999999 c -1.3606723,0 -2.5,1.139328 -2.5,2.5 0,1.360672 1.1393277,2.5 2.5,2.5 1.3606723,0 2.5,-1.139328 2.5,-2.5 0,-1.360672 -1.1393277,-2.5 -2.5,-2.5 z m 6.375,-9.9999999 a 0.98493494,0.98493494 0 0 0 -0.90625,1 l 0,3.9375 -1.96875,0 a 0.98493494,0.98493494 0 0 0 -0.78125,1.5937499 l 4.5624997,6.0625 a 0.98493494,0.98493494 0 0 0 1.5625,0 l 4.4375,-6.0625 a 0.98493494,0.98493494 0 0 0 -0.78125,-1.5937499 l -2,0 0,-3.9375 a 0.98493494,0.98493494 0 0 0 -1,-1 l -3.0312497,0 a 0.98493494,0.98493494 0 0 0 -0.09375,0 z m -6.375,1 c 0.828427,0 1.5,0.6715729 1.5,1.5 0,0.828427 -0.671573,1.5 -1.5,1.5 -0.828427,0 -1.5,-0.671573 -1.5,-1.5 0,-0.8284271 0.671573,-1.5 1.5,-1.5 z m 6.46875,0 3.0312497,0 0,4.9375 3,0 -4.4375,6.0624999 -4.5624997,-6.0624999 2.96875,0 0,-4.9375 z m -6.46875,5 c 0.828427,0 1.5,0.6715729 1.5,1.4999999 0,0.828427 -0.671573,1.5 -1.5,1.5 -0.828427,0 -1.5,-0.671573 -1.5,-1.5 0,-0.828427 0.671573,-1.4999999 1.5,-1.4999999 z m 0,4.9999999 c 0.828427,0 1.5,0.671573 1.5,1.5 0,0.828427 -0.671573,1.5 -1.5,1.5 -0.828427,0 -1.5,-0.671573 -1.5,-1.5 0,-0.828427 0.671573,-1.5 1.5,-1.5 z" display="inline" opacity=".15"/><path id="path3836" fill="url(#linearGradient3840)" fill-opacity="1" stroke="none" d="m 2.9642613,4.9999821 c -0.828427,0 -1.5,0.6715729 -1.5,1.5 0,0.828427 0.671573,1.5 1.5,1.5 0.828427,0 1.5,-0.671573 1.5,-1.5 0,-0.8284271 -0.671573,-1.5 -1.5,-1.5 z m 6.46875,0 0,4.9375 -2.96875,0 4.5624997,6.0624999 4.4375,-6.0624999 -3,0 0,-4.9375 -3.0312497,0 z m -6.46875,5 c -0.828427,0 -1.5,0.6715729 -1.5,1.4999999 0,0.828427 0.671573,1.5 1.5,1.5 0.828427,0 1.5,-0.671573 1.5,-1.5 0,-0.828427 -0.671573,-1.4999999 -1.5,-1.4999999 z m 0,4.9999999 c -0.828427,0 -1.5,0.671573 -1.5,1.5 0,0.828427 0.671573,1.5 1.5,1.5 0.828427,0 1.5,-0.671573 1.5,-1.5 0,-0.828427 -0.671573,-1.5 -1.5,-1.5 z" display="inline"/><path id="path3843" fill="#000" fill-opacity="1" stroke="none" d="m 2.9642613,4.9999821 c -0.828427,0 -1.5,0.6715729 -1.5,1.5 0,0.172589 0.040108,0.3456811 0.09375,0.5 0.2038398,-0.586412 0.750412,-1 1.40625,-1 0.655838,0 1.2024102,0.413588 1.40625,1 0.053642,-0.1543189 0.09375,-0.327411 0.09375,-0.5 0,-0.8284271 -0.671573,-1.5 -1.5,-1.5 z m 6.46875,0 0,1 3.0312497,0 0,-1 -3.0312497,0 z m -2.96875,4.9375 0.75,0.9999999 2.21875,0 0,-0.9999999 -2.96875,0 z m 5.9999997,0 0,0.9999999 2.28125,0 0.71875,-0.9999999 -3,0 z m -9.4999997,0.0625 c -0.828427,0 -1.5,0.6715729 -1.5,1.4999999 0,0.172589 0.040108,0.345681 0.09375,0.5 0.2038398,-0.586412 0.750412,-1 1.40625,-1 0.655838,0 1.2024102,0.413588 1.40625,1 0.053642,-0.154319 0.09375,-0.327411 0.09375,-0.5 0,-0.828427 -0.671573,-1.4999999 -1.5,-1.4999999 z m 0,4.9999999 c -0.828427,0 -1.5,0.671573 -1.5,1.5 0,0.172589 0.040108,0.345681 0.09375,0.5 0.2038398,-0.586412 0.750412,-1 1.40625,-1 0.655838,0 1.2024102,0.413588 1.40625,1 0.053642,-0.154319 0.09375,-0.327411 0.09375,-0.5 0,-0.828427 -0.671573,-1.5 -1.5,-1.5 z" display="inline" opacity=".5"/><path id="path3852" fill="#fff" fill-opacity="1" stroke="none" d="m 1.5580113,6.9999821 c -0.053642,0.154319 -0.09375,0.327411 -0.09375,0.5 0,0.828427 0.671573,1.5 1.5,1.5 0.828427,0 1.5,-0.671573 1.5,-1.5 0,-0.172589 -0.040108,-0.345681 -0.09375,-0.5 -0.2038398,0.586412 -0.750412,1 -1.40625,1 -0.655838,0 -1.2024102,-0.413588 -1.40625,-1 z m 4.90625,3.9374999 4.5624997,6.0625 4.4375,-6.0625 -0.71875,0 -3.71875,5.0625 -3.8124997,-5.0625 -0.75,0 z m -4.90625,1.0625 c -0.053642,0.154319 -0.09375,0.327411 -0.09375,0.5 0,0.828427 0.671573,1.5 1.5,1.5 0.828427,0 1.5,-0.671573 1.5,-1.5 0,-0.172589 -0.040108,-0.345681 -0.09375,-0.5 -0.2038398,0.586412 -0.750412,1 -1.40625,1 -0.655838,0 -1.2024102,-0.413588 -1.40625,-1 z m 0,5 c -0.053642,0.154319 -0.09375,0.327411 -0.09375,0.5 0,0.828427 0.671573,1.5 1.5,1.5 0.828427,0 1.5,-0.671573 1.5,-1.5 0,-0.172589 -0.040108,-0.345681 -0.09375,-0.5 -0.2038398,0.586412 -0.750412,1 -1.40625,1 -0.655838,0 -1.2024102,-0.413588 -1.40625,-1 z" display="inline" opacity=".3"/></g></svg>