<svg xmlns="http://www.w3.org/2000/svg" xmlns:svg="http://www.w3.org/2000/svg" xmlns:xlink="http://www.w3.org/1999/xlink" id="svg2" width="16" height="16" version="1.0"><defs id="defs4"><linearGradient id="StandardGradient" x1="7.19" x2="7.19" y1="6.955" y2="18.319" gradientTransform="scale(1.1467263,0.8720476)" gradientUnits="userSpaceOnUse"><stop id="stop3280" offset="0" stop-color="#000" stop-opacity=".863"/><stop id="stop3282" offset="1" stop-color="#000" stop-opacity=".471"/></linearGradient><linearGradient id="linearGradient3627" x1="7.19" x2="7.19" y1="6.955" y2="18.319" gradientTransform="matrix(1.1467263,0,0,0.8720476,-20,0)" gradientUnits="userSpaceOnUse" xlink:href="#StandardGradient"/><clipPath id="clipPath3634" clipPathUnits="userSpaceOnUse"><path id="path3636" fill="#f0f" fill-opacity="1" stroke="none" d="m -19.535739,2.999982 0,16 16.0000003,0 0,-16 -16.0000003,0 z m 12.0000003,3.0625 2.03125,0 0,4.625 c 0,1.550514 -1.261986,2.34375 -2.8125,2.34375 l -4.2187503,0 0,2.9375 -6,-3.96875 6,-4.09375 0,3.0625 3.0312503,0 c 1.792454,0 1.96875,-0.332819 1.96875,-2.1875 l 0,-2.71875 z" display="inline"/></clipPath><linearGradient id="linearGradient4993" x1="7.19" x2="7.19" y1="6.955" y2="18.319" gradientTransform="scale(1.1467263,0.8720476)" gradientUnits="userSpaceOnUse" xlink:href="#StandardGradient"/><linearGradient id="linearGradient4997" x1="7.19" x2="7.19" y1="6.955" y2="18.319" gradientTransform="matrix(1.1467263,0,0,0.8720476,-0.4642613,-2.999982)" gradientUnits="userSpaceOnUse" xlink:href="#StandardGradient"/><linearGradient id="linearGradient3842" x1="13.262" x2="-2.652" y1="6.786" y2="6.786" gradientTransform="matrix(0,-1.1310246,0.8841541,0,3,17)" gradientUnits="userSpaceOnUse" xlink:href="#StandardGradient-0"/><linearGradient id="StandardGradient-0" x1="11.162" x2="11.162" y1="5.655" y2="18.098" gradientTransform="scale(1.1310246,0.8841541)" gradientUnits="userSpaceOnUse"><stop id="stop3280-1" offset="0" stop-color="#000" stop-opacity=".863"/><stop id="stop3282-2" offset="1" stop-color="#000" stop-opacity=".471"/></linearGradient><linearGradient id="linearGradient3969" x1="13.262" x2="-2.652" y1="6.786" y2="6.786" gradientTransform="matrix(0,-1.1310246,0.8841541,0,3.4642613,13.999982)" gradientUnits="userSpaceOnUse" xlink:href="#StandardGradient-0"/><linearGradient id="linearGradient3049" x1="13.262" x2="-2.652" y1="6.786" y2="6.786" gradientTransform="matrix(0,-1.1310246,0.8841541,0,0.4642613,14.999982)" gradientUnits="userSpaceOnUse" xlink:href="#StandardGradient-0"/><linearGradient id="linearGradient3051" x1="13.262" x2="-2.652" y1="6.786" y2="6.786" gradientTransform="matrix(0,-1.1310246,0.8841541,0,0.4642613,14.999982)" gradientUnits="userSpaceOnUse" xlink:href="#StandardGradient-0"/><linearGradient id="linearGradient3053" x1="13.262" x2="-2.652" y1="6.786" y2="6.786" gradientTransform="matrix(0,-1.1310246,0.8841541,0,-0.5357387,14.999982)" gradientUnits="userSpaceOnUse" xlink:href="#StandardGradient-0"/><linearGradient id="linearGradient3055" x1="13.262" x2="-2.652" y1="6.786" y2="6.786" gradientTransform="matrix(0,-1.1310246,0.8841541,0,0,12)" gradientUnits="userSpaceOnUse" xlink:href="#StandardGradient-0"/><linearGradient id="linearGradient3057" x1="13.262" x2="-2.652" y1="6.786" y2="6.786" gradientTransform="matrix(0,-1.1310246,0.8841541,0,0.4642613,17.999982)" gradientUnits="userSpaceOnUse" xlink:href="#StandardGradient-0"/><linearGradient id="linearGradient3060" x1="8.842" x2="-2.652" y1="6.786" y2="6.786" gradientTransform="matrix(0,-1.1310246,0.8841541,0,0,12)" gradientUnits="userSpaceOnUse" xlink:href="#StandardGradient-0"/><linearGradient id="linearGradient3066" x1="8.842" x2="-2.652" y1="6.786" y2="6.786" gradientTransform="matrix(0,-1.1310246,0.8841541,0,0.4642613,15.999982)" gradientUnits="userSpaceOnUse" xlink:href="#StandardGradient-0"/><linearGradient id="linearGradient3068" x1="8.842" x2="-2.652" y1="6.786" y2="6.786" gradientTransform="matrix(0,-1.1310246,0.8841541,0,0,12)" gradientUnits="userSpaceOnUse" xlink:href="#StandardGradient-0"/><linearGradient id="linearGradient3841" x1="8.842" x2="-2.652" y1="6.786" y2="6.786" gradientTransform="matrix(0,-1.1310246,0.8841541,0,0,13)" gradientUnits="userSpaceOnUse" xlink:href="#StandardGradient-0"/><linearGradient id="linearGradient3845" x1="8.842" x2="-2.652" y1="6.786" y2="6.786" gradientTransform="matrix(0,-1.1310246,0.8841541,0,0.4642613,14.999982)" gradientUnits="userSpaceOnUse" xlink:href="#StandardGradient-0"/><linearGradient id="linearGradient3852" x1="8.842" x2="-2.652" y1="6.786" y2="6.786" gradientTransform="matrix(0,-1.1310246,0.8841541,0,0,12)" gradientUnits="userSpaceOnUse" xlink:href="#StandardGradient-0"/><linearGradient id="linearGradient3856" x1="8.842" x2="-2.652" y1="6.786" y2="6.786" gradientTransform="matrix(0,-1.1310246,0.8841541,0,0,12)" gradientUnits="userSpaceOnUse" xlink:href="#StandardGradient-0"/></defs><metadata id="metadata7"/><g id="layer3" display="inline" transform="translate(-0.4642613,-2.999982)"><path id="path3854" fill="#fff" fill-opacity="1" stroke="none" d="M 2.5 1 C 1.127888 1 0 2.1278879 0 3.5 C 0 4.8721121 1.1278879 6 2.5 6 C 3.8721121 6 5 4.8721121 5 3.5 C 5 2.1278879 3.872112 1 2.5 1 z M 2.5 6 C 1.1278879 6 0 7.1278879 0 8.5 C 0 9.8721121 1.1278879 11 2.5 11 C 3.8721121 11 5 9.8721121 5 8.5 C 5 7.1278879 3.8721121 6 2.5 6 z M 2.5 11 C 1.1278879 11 0 12.127888 0 13.5 C 0 14.872112 1.1278879 16 2.5 16 C 3.8721121 16 5 14.872112 5 13.5 C 5 12.127888 3.8721121 11 2.5 11 z M 2.5 2 C 3.328427 2 4 2.6715729 4 3.5 C 4 4.328427 3.328427 5 2.5 5 C 1.671573 5 1 4.328427 1 3.5 C 1 2.6715729 1.671573 2 2.5 2 z M 10.40625 3 A 1.0061046 1.0061046 0 0 0 9.75 3.40625 L 5.1875 9.46875 A 1.0061046 1.0061046 0 0 0 6 11.0625 L 7.96875 11.0625 L 7.96875 15 A 1.0061046 1.0061046 0 0 0 8.96875 16 L 12 16 A 1.0061046 1.0061046 0 0 0 13 15 L 13 11.0625 L 15 11.0625 A 1.0061046 1.0061046 0 0 0 15.8125 9.46875 L 11.375 3.40625 A 1.0061046 1.0061046 0 0 0 10.40625 3 z M 10.5625 4 L 15 10.0625 L 12 10.0625 L 12 15 L 8.96875 15 L 8.96875 10.0625 L 6 10.0625 L 10.5625 4 z M 2.5 7 C 3.328427 7 4 7.671573 4 8.5 C 4 9.328427 3.328427 10 2.5 10 C 1.671573 10 1 9.328427 1 8.5 C 1 7.671573 1.671573 7 2.5 7 z M 2.5 12 C 3.328427 12 4 12.671573 4 13.5 C 4 14.328427 3.328427 15 2.5 15 C 1.671573 15 1 14.328427 1 13.5 C 1 12.671573 1.671573 12 2.5 12 z" display="inline" opacity=".15" transform="translate(0.4642613,2.999982)"/><path id="path3045" fill="url(#linearGradient3060)" fill-opacity="1" stroke="none" d="M 2.5 2 C 1.671573 2 1 2.6715729 1 3.5 C 1 4.328427 1.671573 5 2.5 5 C 3.328427 5 4 4.328427 4 3.5 C 4 2.6715729 3.328427 2 2.5 2 z M 10.5625 4 L 6 10.0625 L 8.96875 10.0625 L 8.96875 15 L 12 15 L 12 10.0625 L 15 10.0625 L 10.5625 4 z M 2.5 7 C 1.671573 7 1 7.671573 1 8.5 C 1 9.328427 1.671573 10 2.5 10 C 3.328427 10 4 9.328427 4 8.5 C 4 7.671573 3.328427 7 2.5 7 z M 2.5 12 C 1.671573 12 1 12.671573 1 13.5 C 1 14.328427 1.671573 15 2.5 15 C 3.328427 15 4 14.328427 4 13.5 C 4 12.671573 3.328427 12 2.5 12 z" display="inline" transform="translate(0.4642613,2.999982)"/><path id="path3062" fill="#000" fill-opacity="1" stroke="none" d="M 2.5 2 C 1.671573 2 1 2.6715729 1 3.5 C 1 3.672589 1.0401079 3.8456811 1.09375 4 C 1.2975898 3.413588 1.844162 3 2.5 3 C 3.155838 3 3.7024102 3.413588 3.90625 4 C 3.9598921 3.8456811 4 3.672589 4 3.5 C 4 2.6715729 3.328427 2 2.5 2 z M 10.5625 4 L 6 10.0625 L 6.75 10.0625 L 10.5625 5 L 14.28125 10.0625 L 15 10.0625 L 10.5625 4 z M 2.5 7 C 1.671573 7 1 7.671573 1 8.5 C 1 8.672589 1.0401079 8.8456811 1.09375 9 C 1.2975898 8.413588 1.844162 8 2.5 8 C 3.155838 8 3.7024102 8.413588 3.90625 9 C 3.9598921 8.8456811 4 8.672589 4 8.5 C 4 7.671573 3.328427 7 2.5 7 z M 2.5 12 C 1.671573 12 1 12.671573 1 13.5 C 1 13.672589 1.0401079 13.845681 1.09375 14 C 1.2975898 13.413588 1.844162 13 2.5 13 C 3.155838 13 3.7024102 13.413588 3.90625 14 C 3.9598921 13.845681 4 13.672589 4 13.5 C 4 12.671573 3.328427 12 2.5 12 z" display="inline" opacity=".5" transform="translate(0.4642613,2.999982)"/><path id="path3839" fill="#fff" fill-opacity="1" stroke="none" d="M 1.09375 4 C 1.0401079 4.154319 1 4.327411 1 4.5 C 1 5.328427 1.671573 6 2.5 6 C 3.328427 6 4 5.328427 4 4.5 C 4 4.327411 3.9598921 4.154319 3.90625 4 C 3.7024102 4.586412 3.155838 5 2.5 5 C 1.844162 5 1.2975898 4.586412 1.09375 4 z M 1.09375 9 C 1.0401079 9.1543189 1 9.327411 1 9.5 C 1 10.328427 1.671573 11 2.5 11 C 3.328427 11 4 10.328427 4 9.5 C 4 9.327411 3.9598921 9.1543189 3.90625 9 C 3.7024102 9.586412 3.155838 10 2.5 10 C 1.844162 10 1.2975898 9.586412 1.09375 9 z M 6.75 10.0625 L 6 11.0625 L 8.96875 11.0625 L 8.96875 10.0625 L 6.75 10.0625 z M 12 10.0625 L 12 11.0625 L 15 11.0625 L 14.28125 10.0625 L 12 10.0625 z M 1.09375 14 C 1.0401079 14.154319 1 14.327411 1 14.5 C 1 15.328427 1.671573 16 2.5 16 C 3.328427 16 4 15.328427 4 14.5 C 4 14.327411 3.9598921 14.154319 3.90625 14 C 3.7024102 14.586412 3.155838 15 2.5 15 C 1.844162 15 1.2975898 14.586412 1.09375 14 z M 8.96875 15 L 8.96875 16 L 12 16 L 12 15 L 8.96875 15 z" display="inline" opacity=".3" transform="translate(0.4642613,2.999982)"/></g></svg>