<svg xmlns="http://www.w3.org/2000/svg" xmlns:svg="http://www.w3.org/2000/svg" xmlns:xlink="http://www.w3.org/1999/xlink" id="svg2" width="16" height="16" version="1.0"><defs id="defs4"><linearGradient id="StandardGradient" x1="11.347" x2="11.347" y1="6" y2="16.013" gradientTransform="translate(-3,-2.9995677)" gradientUnits="userSpaceOnUse"><stop id="stop3177" offset="0" stop-color="#000" stop-opacity=".863"/><stop id="stop3179" offset="1" stop-color="#000" stop-opacity=".471"/></linearGradient><linearGradient id="linearGradient2409" x1="11.347" x2="11.347" y1="4.995" y2="17.001" gradientTransform="translate(-3,-2.9995677)" gradientUnits="userSpaceOnUse" xlink:href="#StandardGradient"/><linearGradient id="linearGradient3206" x1="11.347" x2="11.347" y1="4.995" y2="17.001" gradientTransform="translate(0,-1.0312503)" gradientUnits="userSpaceOnUse" xlink:href="#StandardGradient"/><linearGradient id="linearGradient3667" x1="9" x2="9" y1="0" y2="16.031" gradientTransform="translate(3,3.9995677)" gradientUnits="userSpaceOnUse" xlink:href="#StandardGradient"/><linearGradient id="linearGradient3669" x1="9" x2="9" y1="0" y2="16.031" gradientUnits="userSpaceOnUse" xlink:href="#StandardGradient"/><linearGradient id="linearGradient3674" x1="9" x2="9" y1="0" y2="16.031" gradientTransform="translate(-17,2.9995677)" gradientUnits="userSpaceOnUse" xlink:href="#StandardGradient"/><linearGradient id="linearGradient3678" x1="9" x2="9" y1="0" y2="16.031" gradientTransform="translate(0,1)" gradientUnits="userSpaceOnUse" xlink:href="#StandardGradient"/><linearGradient id="linearGradient3682" x1="9" x2="9" y1="0" y2="16.031" gradientTransform="translate(3,2.9995677)" gradientUnits="userSpaceOnUse" xlink:href="#StandardGradient"/><clipPath id="clipPath3698" clipPathUnits="userSpaceOnUse"><path id="path3700" fill="#f0f" fill-opacity="1" stroke="none" d="m -17,2.9995677 0,8.0000003 3,-3.0000003 0,6.0000003 -3,-3 0,8 8,0 -3,-3 6,0 -3,3 8,0 0,-8 -3,3 0,-6.0000003 3,3.0000003 0,-8.0000003 -8,0 3,3 -6,0 3,-3 -8,0 z m 4.5,4 7,0 c 0.277,0 0.5,0.223 0.5,0.5 l 0,7.0000003 c 0,0.277 -0.223,0.5 -0.5,0.5 l -7,0 c -0.277,0 -0.5,-0.223 -0.5,-0.5 l 0,-7.0000003 c 0,-0.277 0.223,-0.5 0.5,-0.5 z m 1.5,1 0,1 1,0 0,-1 -1,0 z m 2,0 0,1 1,0 0,-1 -1,0 z m 2,0 0,1 1,0 0,-1 -1,0 z m -4,2 0,3.0000003 4,0 0,-3.0000003 -4,0 z" display="inline"/></clipPath><linearGradient id="linearGradient2900" x1="9" x2="9" y1="6" y2="-10" gradientTransform="matrix(1,0,0,-1,-3,5.9995677)" gradientUnits="userSpaceOnUse" xlink:href="#StandardGradient"/><linearGradient id="linearGradient3681" x1="9" x2="9" y1="6" y2="-10" gradientTransform="matrix(1,0,0,-1,0,9.9991354)" gradientUnits="userSpaceOnUse" xlink:href="#StandardGradient"/><linearGradient id="linearGradient3683" x1="9" x2="9" y1="6" y2="-10" gradientTransform="matrix(1,0,0,-1,-3,5.9995677)" gradientUnits="userSpaceOnUse" xlink:href="#StandardGradient"/><linearGradient id="linearGradient3688" x1="9" x2="9" y1="6" y2="-10" gradientTransform="matrix(1,0,0,-1,-3,6.9995677)" gradientUnits="userSpaceOnUse" xlink:href="#StandardGradient"/><linearGradient id="linearGradient3692" x1="9" x2="9" y1="6" y2="-10" gradientTransform="matrix(1,0,0,-1,0,8.9991354)" gradientUnits="userSpaceOnUse" xlink:href="#StandardGradient"/><linearGradient id="linearGradient3700" x1="9" x2="9" y1="6" y2="-10" gradientTransform="matrix(1,0,0,-1,-20,8.9991354)" gradientUnits="userSpaceOnUse" xlink:href="#StandardGradient"/><clipPath id="clipPath3707" clipPathUnits="userSpaceOnUse"><path id="path3709" fill="#f0f" fill-opacity="1" stroke="none" d="m -17,2.9995677 0,5 3,3.0000003 -3,3 0,5 5,0 3,-3 3,3 5,0 0,-5 -3,-3 3,-3.0000003 0,-5 -5,0 -3,3 -3,-3 -5,0 z m 4.5,4 7,0 c 0.277,0 0.5,0.223 0.5,0.5 l 0,7.0000003 c 0,0.277 -0.223,0.5 -0.5,0.5 l -7,0 c -0.277,0 -0.5,-0.223 -0.5,-0.5 l 0,-7.0000003 c 0,-0.277 0.223,-0.5 0.5,-0.5 z m 1.5,1 0,1 1,0 0,-1 -1,0 z m 2,0 0,1 1,0 0,-1 -1,0 z m 2,0 0,1 1,0 0,-1 -1,0 z m -4,2 0,3.0000003 4,0 0,-3.0000003 -4,0 z" display="inline"/></clipPath><filter id="filter3711"><feGaussianBlur id="feGaussianBlur3713" stdDeviation=".48"/></filter><linearGradient id="linearGradient3220" x1="9" x2="9" y1="6" y2="-10" gradientTransform="matrix(1,0,0,-1,-3,5.9995677)" gradientUnits="userSpaceOnUse" xlink:href="#StandardGradient"/><linearGradient id="linearGradient3224" x1="9" x2="9" y1="6" y2="-10" gradientTransform="matrix(1,0,0,-1,-3,5.9995677)" gradientUnits="userSpaceOnUse" xlink:href="#StandardGradient"/></defs><metadata id="metadata7"/><g id="layer3" display="inline" transform="translate(-3,-2.9995677)"><path id="path3222" fill="#fff" fill-opacity="1" stroke="none" d="M 4.8125 -1 A 0.99656587 0.99656587 0 0 0 4.28125 0.71875 L 6.5625 3 L 4.5 3 C 3.6881938 3 3 3.6881938 3 4.5 L 3 6.5625 L 0.71875 4.28125 A 0.99656587 0.99656587 0 0 0 -1 5 L -1 11 A 0.99656587 0.99656587 0 0 0 0.71875 11.71875 L 3 9.4375 L 3 11.5 C 3 12.311806 3.6881938 13 4.5 13 L 6.5625 13 L 4.28125 15.28125 A 0.99656587 0.99656587 0 0 0 5 17 L 11 17 A 0.99656587 0.99656587 0 0 0 11.71875 15.28125 L 9.4375 13 L 11.5 13 C 12.311806 13 13 12.311806 13 11.5 L 13 9.4375 L 15.28125 11.71875 A 0.99656587 0.99656587 0 0 0 17 11 L 17 5 A 0.99656587 0.99656587 0 0 0 15.28125 4.28125 L 13 6.5625 L 13 4.5 C 13 3.6881938 12.311806 3 11.5 3 L 9.4375 3 L 11.71875 0.71875 A 0.99656587 0.99656587 0 0 0 11 -1 L 5 -1 A 0.99656587 0.99656587 0 0 0 4.90625 -1 A 0.99656587 0.99656587 0 0 0 4.8125 -1 z M 5 0 L 11 0 L 8 3 L 5 0 z M 4.5 4 L 11.5 4 C 11.777 4 12 4.223 12 4.5 L 12 11.5 C 12 11.777 11.777 12 11.5 12 L 4.5 12 C 4.223 12 4 11.777 4 11.5 L 4 4.5 C 4 4.223 4.223 4 4.5 4 z M 0 5 L 3 8 L 0 11 L 0 5 z M 6 5 L 6 6 L 7 6 L 7 5 L 6 5 z M 8 5 L 8 6 L 9 6 L 9 5 L 8 5 z M 10 5 L 10 6 L 11 6 L 11 5 L 10 5 z M 16 5 L 16 11 L 13 8 L 16 5 z M 6 7 L 6 10 L 10 10 L 10 7 L 6 7 z M 7 8 L 9 8 L 9 9 L 7 9 L 7 8 z M 8 13 L 11 16 L 5 16 L 8 13 z" opacity=".15" transform="translate(3,2.9995677)"/><path id="path2882" fill="url(#linearGradient2900)" fill-opacity="1" stroke="none" d="M 5 0 L 8 3 L 11 0 L 5 0 z M 4.5 4 C 4.223 4 4 4.223 4 4.5 L 4 11.5 C 4 11.777 4.223 12 4.5 12 L 11.5 12 C 11.777 12 12 11.777 12 11.5 L 12 4.5 C 12 4.223 11.777 4 11.5 4 L 4.5 4 z M 0 5 L 0 11 L 3 8 L 0 5 z M 6 5 L 7 5 L 7 6 L 6 6 L 6 5 z M 8 5 L 9 5 L 9 6 L 8 6 L 8 5 z M 10 5 L 11 5 L 11 6 L 10 6 L 10 5 z M 16 5 L 13 8 L 16 11 L 16 5 z M 6 7 L 10 7 L 10 10 L 6 10 L 6 7 z M 8 13 L 5 16 L 11 16 L 8 13 z" transform="translate(3,2.9995677)"/><path id="path3677" fill="#000" fill-opacity="1" stroke="none" d="M 5 0 L 6 1 L 10 1 L 11 0 L 5 0 z M 4.5 4 C 4.223 4 4 4.223 4 4.5 L 4 5.5 C 4 5.223 4.223 5 4.5 5 L 6 5 L 7 5 L 8 5 L 9 5 L 10 5 L 11 5 L 11.5 5 C 11.777 5 12 5.223 12 5.5 L 12 4.5 C 12 4.223 11.777 4 11.5 4 L 8 4 L 4.5 4 z M 0 5 L 0 6 L 2.5 8.5 L 3 8 L 0 5 z M 16 5 L 13 8 L 13.5 8.5 L 16 6 L 16 5 z M 6 6 L 6 7 L 7 7 L 7 6 L 6 6 z M 8 6 L 8 7 L 9 7 L 9 6 L 8 6 z M 10 6 L 10 7 L 11 7 L 11 6 L 10 6 z M 6 10 L 6 11 L 10 11 L 10 10 L 6 10 z M 8 13 L 5 16 L 6 16 L 8 14 L 10 16 L 11 16 L 8 13 z" opacity=".5" transform="translate(3,2.9995677)"/><path id="path3686" fill="#fff" fill-opacity="1" stroke="none" d="M 5 1 L 8 4 L 11 1 L 10 1 L 8 3 L 6 1 L 5 1 z M 6 5 L 6 6 L 7 6 L 7 5 L 6 5 z M 8 5 L 8 6 L 9 6 L 9 5 L 8 5 z M 10 5 L 10 6 L 11 6 L 11 5 L 10 5 z M 6 7 L 6 8 L 10 8 L 10 7 L 9 7 L 8 7 L 7 7 L 6 7 z M 2.5 8.5 L 0 11 L 0 12 L 3 9 L 2.5 8.5 z M 13.5 8.5 L 13 9 L 16 12 L 16 11 L 13.5 8.5 z M 4 11.5 L 4 12.5 C 4 12.777 4.223 13 4.5 13 L 8 13 L 11.5 13 C 11.777 13 12 12.777 12 12.5 L 12 11.5 C 12 11.777 11.777 12 11.5 12 L 4.5 12 C 4.223 12 4 11.777 4 11.5 z" opacity=".3" transform="translate(3,2.9995677)"/></g></svg>