<svg xmlns="http://www.w3.org/2000/svg" xmlns:svg="http://www.w3.org/2000/svg" xmlns:xlink="http://www.w3.org/1999/xlink" id="svg2" width="16" height="16" version="1.0"><defs id="defs4"><linearGradient id="linearGradient3667" x1="11.347" x2="11.347" y1="6" y2="16.013" gradientTransform="translate(-3,-2.9995677)" gradientUnits="userSpaceOnUse"><stop id="stop3669" offset="0" stop-color="#000" stop-opacity=".8"/><stop id="stop3671" offset="1" stop-color="#000" stop-opacity=".471"/></linearGradient><linearGradient id="StandardGradient" x1="11.347" x2="11.347" y1="6" y2="16.013" gradientTransform="translate(-3,-2.9995677)" gradientUnits="userSpaceOnUse"><stop id="stop3177" offset="0" stop-color="#000" stop-opacity=".863"/><stop id="stop3179" offset="1" stop-color="#000" stop-opacity=".471"/></linearGradient><linearGradient id="linearGradient2409" x1="11.347" x2="11.347" y1="4.995" y2="17.001" gradientTransform="translate(-3,-2.9995677)" gradientUnits="userSpaceOnUse" xlink:href="#StandardGradient"/><linearGradient id="linearGradient3206" x1="11.347" x2="11.347" y1="4.995" y2="17.001" gradientTransform="translate(-3,-5.0308183)" gradientUnits="userSpaceOnUse" xlink:href="#StandardGradient"/><linearGradient id="linearGradient2400" x1="11.347" x2="11.347" y1="4.995" y2="17.001" gradientTransform="translate(-3,-5.0308183)" gradientUnits="userSpaceOnUse" xlink:href="#StandardGradient"/><linearGradient id="linearGradient3644" x1="11.347" x2="11.347" y1="4.995" y2="17.001" gradientTransform="translate(-6,-8.030386)" gradientUnits="userSpaceOnUse" xlink:href="#StandardGradient"/><linearGradient id="linearGradient3647" x1="11.347" x2="11.347" y1="4.995" y2="17.001" gradientTransform="translate(-6,-8.030386)" gradientUnits="userSpaceOnUse" xlink:href="#StandardGradient"/><linearGradient id="linearGradient3656" x1="11.347" x2="11.347" y1="4.995" y2="17.001" gradientTransform="translate(-6,-8.030386)" gradientUnits="userSpaceOnUse" xlink:href="#StandardGradient"/><linearGradient id="linearGradient3659" x1="11.347" x2="11.347" y1="4.995" y2="17.001" gradientTransform="translate(-6,-8.030386)" gradientUnits="userSpaceOnUse" xlink:href="#StandardGradient"/><linearGradient id="linearGradient3662" x1="11.347" x2="11.347" y1="4.995" y2="17.001" gradientTransform="translate(-6,-8.030386)" gradientUnits="userSpaceOnUse" xlink:href="#StandardGradient"/><linearGradient id="linearGradient3665" x1="11.347" x2="11.347" y1="9.015" y2="23.034" gradientTransform="translate(-6,-8.030386)" gradientUnits="userSpaceOnUse" xlink:href="#linearGradient3667"/><linearGradient id="linearGradient3677" x1="11.347" x2="11.347" y1="9.015" y2="23.034" gradientTransform="translate(-3,-4.0308183)" gradientUnits="userSpaceOnUse" xlink:href="#linearGradient3667"/><linearGradient id="linearGradient3679" x1="11.347" x2="11.347" y1="4.995" y2="17.001" gradientTransform="translate(-6,-8.030386)" gradientUnits="userSpaceOnUse" xlink:href="#StandardGradient"/><linearGradient id="linearGradient3682" x1="11.347" x2="11.347" y1="9.015" y2="23.034" gradientTransform="translate(-6,-8.030386)" gradientUnits="userSpaceOnUse" xlink:href="#linearGradient3667"/><linearGradient id="linearGradient3689" x1="11.347" x2="11.347" y1="9.015" y2="23.034" gradientTransform="translate(-3,-4.0308183)" gradientUnits="userSpaceOnUse" xlink:href="#linearGradient3667"/><linearGradient id="linearGradient3691" x1="11.347" x2="11.347" y1="9.015" y2="23.034" gradientTransform="translate(-6,-8.030386)" gradientUnits="userSpaceOnUse" xlink:href="#linearGradient3667"/><linearGradient id="linearGradient3696" x1="11.347" x2="11.347" y1="9.015" y2="23.034" gradientTransform="translate(-6,-7.030386)" gradientUnits="userSpaceOnUse" xlink:href="#linearGradient3667"/><linearGradient id="linearGradient3700" x1="11.347" x2="11.347" y1="9.015" y2="23.034" gradientTransform="translate(-3,-5.0308183)" gradientUnits="userSpaceOnUse" xlink:href="#linearGradient3667"/><linearGradient id="linearGradient3705" x1="11.347" x2="11.347" y1="9.015" y2="23.034" gradientTransform="translate(-23,-5.0308183)" gradientUnits="userSpaceOnUse" xlink:href="#linearGradient3667"/><clipPath id="clipPath3712" clipPathUnits="userSpaceOnUse"><path id="path3714" fill="#f0f" fill-opacity="1" stroke="none" d="m -17,2.9995677 0,16.0000003 16,0 0,-16.0000003 -16,0 z m 2,0.96875 12,0 c 0.554,0 1,0.446 1,1 l 0,11.0312503 -7,0 0,-2 5,0 0,-6.0000003 -10,0 0,3.0000003 -1,0 0,2 -1,0 0,-8.0312503 c 0,-0.554 0.446,-1 1,-1 z m 6,1.03125 0,1 1,0 0,-1 -1,0 z m 2,0 0,1 1,0 0,-1 -1,0 z m 2,0 0,1 1,0 0,-1 -1,0 z m -9,7.0000003 2,0 0,2 2,0 0,2 -2,0 0,2 -2,0 0,-2 -2,0 0,-2 2,0 0,-2 z" display="inline"/></clipPath><filter id="filter3716"><feGaussianBlur id="feGaussianBlur3718" stdDeviation=".42"/></filter><linearGradient id="linearGradient3129" x1="11.347" x2="11.347" y1="9.015" y2="23.034" gradientTransform="translate(-6,-8.030386)" gradientUnits="userSpaceOnUse" xlink:href="#linearGradient3667"/><linearGradient id="linearGradient3133" x1="11.347" x2="11.347" y1="9.015" y2="23.034" gradientTransform="translate(-6,-8.030386)" gradientUnits="userSpaceOnUse" xlink:href="#linearGradient3667"/></defs><metadata id="metadata7"/><g id="layer3" display="inline" transform="translate(-3,-2.9995677)"><path id="path3131" fill="#fff" fill-opacity="1" stroke="none" d="M 2 0 C 0.93364065 0 0.03125 0.90239065 0.03125 1.96875 L 0.03125 10 A 0.95473812 0.95473812 0 0 0 0.1875 10.46875 A 0.95473812 0.95473812 0 0 0 0.1875 10.5 A 0.95473812 0.95473812 0 0 0 0.03125 11 L 0.03125 13 A 0.95473812 0.95473812 0 0 0 1 13.96875 L 2.03125 13.96875 L 2.03125 15 A 0.95473812 0.95473812 0 0 0 3 15.96875 L 5 15.96875 A 0.95473812 0.95473812 0 0 0 5.96875 15 L 5.96875 13.96875 L 7 13.96875 A 0.95473812 0.95473812 0 0 0 7.46875 13.8125 A 0.95473812 0.95473812 0 0 0 7.5 13.8125 A 0.95473812 0.95473812 0 0 0 8 13.96875 L 15 13.96875 A 0.95473812 0.95473812 0 0 0 15.96875 13 L 15.96875 1.96875 C 15.96875 0.90239065 15.066359 0 14 0 L 2 0 z M 2 0.96875 L 14 0.96875 C 14.554 0.96875 15 1.41475 15 1.96875 L 15 13 L 8 13 L 8 11 L 13 11 L 13 5 L 3 5 L 3 8 L 2 8 L 2 10 L 1 10 L 1 1.96875 C 1 1.41475 1.446 0.96875 2 0.96875 z M 8 2 L 8 3 L 9 3 L 9 2 L 8 2 z M 10 2 L 10 3 L 11 3 L 11 2 L 10 2 z M 12 2 L 12 3 L 13 3 L 13 2 L 12 2 z M 3.96875 5.96875 L 12.03125 5.96875 L 12.03125 10.03125 L 8 10.03125 A 0.95473812 0.95473812 0 0 0 7.53125 10.1875 A 0.95473812 0.95473812 0 0 0 7.5 10.1875 A 0.95473812 0.95473812 0 0 0 7 10.03125 L 5.96875 10.03125 L 5.96875 9 A 0.95473812 0.95473812 0 0 0 5 8.03125 L 3.9375 8.03125 A 0.95473812 0.95473812 0 0 0 3.96875 8 L 3.96875 5.96875 z M 3 9 L 5 9 L 5 11 L 7 11 L 7 13 L 5 13 L 5 15 L 3 15 L 3 13 L 1 13 L 1 11 L 3 11 L 3 9 z" opacity=".15" transform="translate(3,2.9995677)"/><path id="path3635" fill="url(#linearGradient3682)" fill-opacity="1" stroke="none" stroke-dasharray="none" stroke-linecap="round" stroke-linejoin="miter" stroke-miterlimit="4" stroke-opacity="1" stroke-width="1" d="M 2 0.96875 C 1.446 0.96875 1 1.41475 1 1.96875 L 1 10 L 2 10 L 2 8 L 3 8 L 3 5 L 13 5 L 13 11 L 8 11 L 8 13 L 15 13 L 15 1.96875 C 15 1.41475 14.554 0.96875 14 0.96875 L 2 0.96875 z M 8 2 L 9 2 L 9 3 L 8 3 L 8 2 z M 10 2 L 11 2 L 11 3 L 10 3 L 10 2 z M 12 2 L 13 2 L 13 3 L 12 3 L 12 2 z M 3 9 L 3 11 L 1 11 L 1 13 L 3 13 L 3 15 L 5 15 L 5 13 L 7 13 L 7 11 L 5 11 L 5 9 L 3 9 z" opacity="1" transform="translate(3,2.9995677)"/><rect id="rect3637" width="1" height="4" x="2" y="4" fill="none" stroke="none" stroke-dasharray="2 4" stroke-dashoffset="8.6" stroke-linecap="round" stroke-linejoin="round" stroke-miterlimit="4" stroke-opacity="1" stroke-width="2" opacity=".5" transform="translate(3,2.9995677)"/><path id="path3685" fill="#000" fill-opacity="1" stroke="none" stroke-dasharray="none" stroke-linecap="round" stroke-linejoin="miter" stroke-miterlimit="4" stroke-opacity="1" stroke-width="1" d="M 2 0.96875 C 1.446 0.96875 1 1.41475 1 1.96875 L 1 2.96875 C 1 2.41475 1.446 1.96875 2 1.96875 L 14 1.96875 C 14.554 1.96875 15 2.41475 15 2.96875 L 15 1.96875 C 15 1.41475 14.554 0.96875 14 0.96875 L 2 0.96875 z M 8 3 L 8 4 L 9 4 L 9 3 L 8 3 z M 10 3 L 10 4 L 11 4 L 11 3 L 10 3 z M 12 3 L 12 4 L 13 4 L 13 3 L 12 3 z M 3 9 L 3 10 L 5 10 L 5 9 L 3 9 z M 1 11 L 1 12 L 3 12 L 3 11 L 2 11 L 1 11 z M 5 11 L 5 12 L 7 12 L 7 11 L 5 11 z M 8 11 L 8 12 L 13 12 L 13 11 L 8 11 z" opacity=".5" transform="translate(3,2.9995677)"/><path id="path3694" fill="#fff" fill-opacity="1" stroke="none" d="M 8 2 L 8 3 L 9 3 L 9 2 L 8 2 z M 10 2 L 10 3 L 11 3 L 11 2 L 10 2 z M 12 2 L 12 3 L 13 3 L 13 2 L 12 2 z M 3 5 L 3 6 L 13 6 L 13 5 L 3 5 z M 2 8 L 2 9 L 3 9 L 3 8 L 2 8 z M 1 10 L 1 11 L 2 11 L 2 10 L 1 10 z M 1 13 L 1 14 L 3 14 L 3 13 L 1 13 z M 5 13 L 5 14 L 7 14 L 7 13 L 5 13 z M 8 13 L 8 14 L 15 14 L 15 13 L 8 13 z M 3 15 L 3 16 L 5 16 L 5 15 L 3 15 z" opacity=".3" transform="translate(3,2.9995677)"/></g></svg>