<svg xmlns="http://www.w3.org/2000/svg" xmlns:svg="http://www.w3.org/2000/svg" xmlns:xlink="http://www.w3.org/1999/xlink" id="svg2" width="16" height="16" version="1.0"><defs id="defs4"><linearGradient id="linearGradient3171"><stop id="stop3173" offset="0" stop-color="#000" stop-opacity="1"/><stop id="stop3175" offset="1" stop-color="#000" stop-opacity="0"/></linearGradient><linearGradient id="linearGradient3342" x1="4.938" x2="8" y1="11" y2="11" gradientUnits="userSpaceOnUse" xlink:href="#linearGradient3171"/><linearGradient id="linearGradient3266"><stop id="stop3268" offset="0" stop-color="#505050" stop-opacity="1"/><stop id="stop3270" offset="1" stop-color="#505050" stop-opacity="0"/></linearGradient><linearGradient id="linearGradient3340" x1="3.889" x2="4.329" y1="15.657" y2="12.843" gradientTransform="translate(2,0)" gradientUnits="userSpaceOnUse" xlink:href="#linearGradient3266"/><linearGradient id="linearGradient3338" x1="3.5" x2="3.5" y1="14.031" y2="7.996" gradientUnits="userSpaceOnUse" xlink:href="#linearGradient3242"/><linearGradient id="linearGradient3242"><stop id="stop3244" offset="0" stop-color="#505050" stop-opacity="1"/><stop id="stop3260" offset=".5" stop-color="#a7a7a7" stop-opacity="1"/><stop id="stop3250" offset=".7" stop-color="#fff" stop-opacity="1"/><stop id="stop3246" offset="1" stop-color="#c8c8c8" stop-opacity="1"/></linearGradient><linearGradient id="linearGradient3336" x1="7.613" x2="5.525" y1="14.757" y2="7.243" gradientUnits="userSpaceOnUse" xlink:href="#linearGradient3242"/><linearGradient id="ShadowGradient"><stop id="stop3393" offset="0" stop-color="#000" stop-opacity="1"/><stop id="stop3395" offset="1" stop-color="#000" stop-opacity="0"/></linearGradient><linearGradient id="StandardGradient"><stop id="stop3389" offset="0" stop-color="#000" stop-opacity="1"/><stop id="stop3391" offset="1" stop-color="#646464" stop-opacity="1"/></linearGradient><linearGradient id="linearGradient3381" x1="9.938" x2="9.938" y1="3" y2="19.018" gradientUnits="userSpaceOnUse" xlink:href="#StandardGradient"/><linearGradient id="linearGradient3782" x1="9.75" x2="9.75" y1="5" y2="19.056" gradientTransform="translate(0,-1)" gradientUnits="userSpaceOnUse" xlink:href="#StandardGradient"/><linearGradient id="linearGradient2400" x1="9.75" x2="9.75" y1="5" y2="19.056" gradientTransform="translate(-9,10)" gradientUnits="userSpaceOnUse" xlink:href="#StandardGradient"/><linearGradient id="linearGradient3174" x1="9.75" x2="9.75" y1="5" y2="19.056" gradientTransform="matrix(0.7071068,0.7071068,-0.7071068,0.7071068,0.8856249,4.1536343)" gradientUnits="userSpaceOnUse" xlink:href="#StandardGradient"/><linearGradient id="linearGradient3178" x1="9.75" x2="9.75" y1="5" y2="19.056" gradientTransform="matrix(0,1,-1,0,12.009822,7.0098219)" gradientUnits="userSpaceOnUse" xlink:href="#StandardGradient"/><linearGradient id="linearGradient3182" x1="9.75" x2="9.75" y1="5" y2="19.056" gradientTransform="matrix(-0.7071068,0.7071068,-0.7071068,-0.7071068,17.856188,16.895447)" gradientUnits="userSpaceOnUse" xlink:href="#StandardGradient"/><linearGradient id="linearGradient3186" x1="9.75" x2="9.75" y1="5" y2="19.056" gradientTransform="matrix(-1,0,0,-1,15,28.019644)" gradientUnits="userSpaceOnUse" xlink:href="#StandardGradient"/><linearGradient id="linearGradient3190" x1="9.75" x2="9.75" y1="5" y2="19.056" gradientTransform="matrix(-0.7071068,-0.7071068,0.7071068,-0.7071068,5.1143752,33.866009)" gradientUnits="userSpaceOnUse" xlink:href="#StandardGradient"/><linearGradient id="linearGradient3194" x1="9.75" x2="9.75" y1="5" y2="19.056" gradientTransform="matrix(0,-1,1,0,-6.0098215,31.009821)" gradientUnits="userSpaceOnUse" xlink:href="#StandardGradient"/><linearGradient id="linearGradient3198" x1="9.75" x2="9.75" y1="5" y2="19.056" gradientTransform="matrix(0.7071068,-0.7071068,0.7071068,0.7071068,-11.856186,21.124197)" gradientUnits="userSpaceOnUse" xlink:href="#StandardGradient"/><linearGradient id="linearGradient3224" x1="9.75" x2="9.75" y1="5" y2="19.056" gradientTransform="matrix(0.7071068,0.7071068,-0.7071068,0.7071068,11.292893,-6.263456)" gradientUnits="userSpaceOnUse" xlink:href="#StandardGradient"/><linearGradient id="linearGradient2407" x1="9.75" x2="9.75" y1="5" y2="19.056" gradientTransform="translate(-22,-5)" gradientUnits="userSpaceOnUse" xlink:href="#StandardGradient"/><linearGradient id="linearGradient3228" x1="6.701" x2="6.701" y1="1" y2="15.001" gradientUnits="userSpaceOnUse" xlink:href="#StandardGradient"/><linearGradient id="linearGradient2630" x1="4.938" x2="8" y1="11" y2="11" gradientTransform="translate(4.8043455e-2,-1.0546018)" gradientUnits="userSpaceOnUse" xlink:href="#linearGradient3171"/><linearGradient id="linearGradient2633" x1="3.889" x2="4.329" y1="15.657" y2="12.843" gradientTransform="translate(2.0480435,-1.0546018)" gradientUnits="userSpaceOnUse" xlink:href="#linearGradient3266"/><linearGradient id="linearGradient2636" x1="3.5" x2="3.5" y1="14.031" y2="7.996" gradientTransform="translate(4.8043455e-2,-1.0546018)" gradientUnits="userSpaceOnUse" xlink:href="#linearGradient3242"/><linearGradient id="linearGradient2639" x1="7.613" x2="5.525" y1="14.757" y2="7.243" gradientTransform="translate(4.8043455e-2,-1.0546018)" gradientUnits="userSpaceOnUse" xlink:href="#linearGradient3242"/><linearGradient id="linearGradient2641" x1="7.613" x2="5.525" y1="14.757" y2="7.243" gradientTransform="translate(-2,-2.9999999)" gradientUnits="userSpaceOnUse" xlink:href="#linearGradient3242"/><linearGradient id="linearGradient3421" x1="8.438" x2="8.438" y1="1" y2="15.008" gradientUnits="userSpaceOnUse" xlink:href="#StandardGradient"/><linearGradient id="linearGradient2433" x1="8.438" x2="8.438" y1="1" y2="15.008" gradientTransform="matrix(1.2397314,0,0,1,-2.1450456,0)" gradientUnits="userSpaceOnUse" xlink:href="#StandardGradient"/><linearGradient id="linearGradient2435" x1="8.438" x2="8.438" y1="1" y2="15.008" gradientTransform="matrix(1.3065009,0,0,1,-3.6644889,0)" gradientUnits="userSpaceOnUse" xlink:href="#StandardGradient"/><linearGradient id="linearGradient2437" x1="8.438" x2="8.438" y1="1" y2="15.008" gradientTransform="matrix(1.315615,0,0,1,-4.7200494,0)" gradientUnits="userSpaceOnUse" xlink:href="#StandardGradient"/><linearGradient id="linearGradient2898" x1="8.438" x2="8.438" y1="1" y2="15.008" gradientUnits="userSpaceOnUse" xlink:href="#StandardGradient"/><linearGradient id="linearGradient3538" x1="16.5" x2="16.5" y1="19.543" y2="2.5" gradientTransform="translate(1,0)" gradientUnits="userSpaceOnUse" xlink:href="#linearGradient4081"/><linearGradient id="linearGradient4081"><stop id="stop4083" offset="0" stop-color="#aaa" stop-opacity="1"/><stop id="stop4085" offset="1" stop-color="#f0f0f0" stop-opacity="1"/></linearGradient><linearGradient id="linearGradient3542" x1="10.505" x2="10.505" y1="15.281" y2="6.746" gradientTransform="translate(-4,-3)" gradientUnits="userSpaceOnUse" xlink:href="#linearGradient4081"/><linearGradient id="linearGradient2926"><stop id="stop2928" offset="0" stop-color="#aaa" stop-opacity="1"/><stop id="stop2930" offset="1" stop-color="#f0f0f0" stop-opacity="1"/></linearGradient><linearGradient id="linearGradient3540" x1="14.525" x2="14.525" y1="17.419" y2="4.625" gradientTransform="translate(-4,-3)" gradientUnits="userSpaceOnUse" xlink:href="#linearGradient4081"/><linearGradient id="linearGradient2933"><stop id="stop2935" offset="0" stop-color="#aaa" stop-opacity="1"/><stop id="stop2937" offset="1" stop-color="#f0f0f0" stop-opacity="1"/></linearGradient><linearGradient id="linearGradient2942" x1="16.5" x2="16.5" y1="19.543" y2="2.5" gradientTransform="translate(-4,-3)" gradientUnits="userSpaceOnUse" xlink:href="#linearGradient4081"/><linearGradient id="linearGradient2945" x1="16.5" x2="16.5" y1="19.543" y2="2.5" gradientTransform="translate(-4,-3)" gradientUnits="userSpaceOnUse" xlink:href="#linearGradient4081"/><linearGradient id="linearGradient2948" x1="16.5" x2="16.5" y1="19.543" y2="2.5" gradientTransform="matrix(1,0,0,0.94352368,-4,-2.3752307)" gradientUnits="userSpaceOnUse" xlink:href="#linearGradient4081"/><linearGradient id="linearGradient2950" x1="8.438" x2="8.438" y1="1" y2="15.008" gradientUnits="userSpaceOnUse" xlink:href="#StandardGradient"/><linearGradient id="linearGradient3729" x1="8.438" x2="8.438" y1="1" y2="15.008" gradientTransform="translate(0,1)" gradientUnits="userSpaceOnUse" xlink:href="#StandardGradient"/><linearGradient id="linearGradient3731" x1="8.438" x2="8.438" y1="1" y2="15.008" gradientUnits="userSpaceOnUse" xlink:href="#StandardGradient"/><linearGradient id="StandardGradient-1" x1="7.19" x2="7.19" y1="6.955" y2="18.319" gradientTransform="scale(1.1467263,0.8720476)" gradientUnits="userSpaceOnUse"><stop id="stop3280" offset="0" stop-color="#000" stop-opacity=".863"/><stop id="stop3282" offset="1" stop-color="#000" stop-opacity=".471"/></linearGradient><linearGradient id="linearGradient3785" x1="7.19" x2="7.19" y1="6.955" y2="18.319" gradientTransform="matrix(1.1467263,0,0,0.8720476,2.5196744,8.5383193)" gradientUnits="userSpaceOnUse" xlink:href="#StandardGradient-1"/><linearGradient id="linearGradient3804" x1="8.438" x2="8.438" y1="1" y2="15.008" gradientUnits="userSpaceOnUse" xlink:href="#StandardGradient-1"/><linearGradient id="linearGradient3808" x1="8.438" x2="8.438" y1="1" y2="15.008" gradientTransform="translate(0,1)" gradientUnits="userSpaceOnUse" xlink:href="#StandardGradient-1"/><linearGradient id="linearGradient3812" x1="8.438" x2="8.438" y1="1" y2="15.008" gradientUnits="userSpaceOnUse" xlink:href="#StandardGradient-1"/><linearGradient id="linearGradient3817" x1="8.438" x2="8.438" y1="1" y2="15.008" gradientTransform="translate(-20,0)" gradientUnits="userSpaceOnUse" xlink:href="#StandardGradient-1"/><clipPath id="clipPath3824" clipPathUnits="userSpaceOnUse"><path id="path3826" fill="#f0f" fill-opacity="1" stroke="none" d="m -20,0 0,16 16,0 0,-16 -16,0 z M -7.625,1 C -5.995915,2.9288438 -5,5.3432918 -5,8 c 1e-6,2.708425 -1.032388,5.178784 -2.71875,7.125 l -1.5,-1.25 c 1.364366,-1.613056 2.1875,-3.651801 2.1875,-5.875 0,-2.1639699 -0.76332,-4.1574263 -2.0625,-5.75 L -7.625,1 z M -9.8125,2.84375 C -8.662551,4.2737473 -8,6.0683029 -8,8 c 0,1.9878056 -0.722863,3.803569 -1.9375,5.25 l -1.5,-1.28125 C -10.539955,10.861821 -10,9.5005507 -10,8 -10,6.5562172 -10.506676,5.24065 -11.34375,4.15625 l 1.53125,-1.3125 z m -5.1875,1.125 0,8 L -17,10 -18.5,10 C -18.777,10 -19,9.777 -19,9.5 l 0,-3 C -19,6.223 -18.777,6 -18.5,6 l 1.5,0 2,-2.03125 z M -12.0625,4.75 C -11.393055,5.6663669 -11,6.8041149 -11,8 c 0,1.2594208 -0.420217,2.432325 -1.15625,3.375 L -13.6875,10.0625 C -13.263995,9.4700266 -13,8.7691247 -13,8 -13,7.2815285 -13.219346,6.6300346 -13.59375,6.0625 L -12.0625,4.75 z" display="inline"/></clipPath><filter id="filter3828"><feGaussianBlur id="feGaussianBlur3830" stdDeviation=".422"/></filter><linearGradient id="linearGradient5781" x1="8.438" x2="8.438" y1="1" y2="15.008" gradientUnits="userSpaceOnUse" xlink:href="#StandardGradient-1"/><linearGradient id="linearGradient5785" x1="8.438" x2="8.438" y1="1" y2="15.008" gradientUnits="userSpaceOnUse" xlink:href="#StandardGradient-1"/></defs><metadata id="metadata7"/><g id="layer1"><path id="path5783" fill="#fff" fill-opacity="1" fill-rule="nonzero" stroke="none" d="M 12.25 0 A 0.99123256 0.99123256 0 0 0 11.71875 0.25 L 10.25 1.5 A 0.99123256 0.99123256 0 0 0 10 1.875 A 0.99123256 0.99123256 0 0 0 9.96875 1.875 A 0.99123256 0.99123256 0 0 0 9.53125 2.09375 L 8 3.40625 A 0.99123256 0.99123256 0 0 0 7.75 3.78125 A 0.99123256 0.99123256 0 0 0 7.28125 4 L 6 5.09375 L 6 3.96875 A 0.99123256 0.99123256 0 0 0 4.28125 3.28125 L 2.59375 5 L 1.5 5 C 0.69105593 5 0 5.6910559 0 6.5 L 0 9.5 C 0 10.308944 0.69105593 11 1.5 11 L 2.59375 11 L 4.3125 12.6875 A 0.99123256 0.99123256 0 0 0 6 11.96875 L 6 11.09375 L 7.1875 12.125 A 0.99123256 0.99123256 0 0 0 7.625 12.34375 A 0.99123256 0.99123256 0 0 0 7.65625 12.34375 A 0.99123256 0.99123256 0 0 0 7.90625 12.71875 L 9.40625 14 A 0.99123256 0.99123256 0 0 0 9.84375 14.21875 A 0.99123256 0.99123256 0 0 0 9.875 14.21875 A 0.99123256 0.99123256 0 0 0 10.15625 14.625 L 11.65625 15.875 A 0.99123256 0.99123256 0 0 0 13.03125 15.78125 C 14.85833 13.672632 16.000001 10.96029 16 8 C 16 5.0955956 14.888683 2.4632087 13.125 0.375 A 0.99123256 0.99123256 0 0 0 12.34375 0 A 0.99123256 0.99123256 0 0 0 12.25 0 z M 12.375 1 C 14.004085 2.9288438 15 5.3432918 15 8 C 15.000001 10.708425 13.967612 13.178784 12.28125 15.125 L 10.78125 13.875 C 12.145616 12.261944 12.96875 10.223199 12.96875 8 C 12.96875 5.8360301 12.20543 3.8425737 10.90625 2.25 L 12.375 1 z M 10.1875 2.84375 C 11.337449 4.2737473 12 6.0683029 12 8 C 12 9.9878056 11.277137 11.803569 10.0625 13.25 L 8.5625 11.96875 C 9.4600452 10.861821 10 9.5005507 10 8 C 10 6.5562172 9.4933245 5.24065 8.65625 4.15625 L 10.1875 2.84375 z M 5 3.96875 L 5 11.96875 L 3 10 L 1.5 10 C 1.223 10 1 9.777 1 9.5 L 1 6.5 C 1 6.223 1.223 6 1.5 6 L 3 6 L 5 3.96875 z M 7.9375 4.75 C 8.6069445 5.6663669 9 6.8041149 9 8 C 9 9.2594208 8.5797829 10.432325 7.84375 11.375 L 6.3125 10.0625 C 6.7360046 9.4700266 7 8.7691247 7 8 C 7 7.2815285 6.7806537 6.6300346 6.40625 6.0625 L 7.9375 4.75 z" display="inline" opacity=".15"/><path id="path3165" fill="url(#linearGradient3804)" fill-opacity="1" fill-rule="nonzero" stroke="none" stroke-dasharray="none" stroke-dashoffset="0" stroke-linecap="square" stroke-linejoin="round" stroke-miterlimit="4" stroke-opacity="1" stroke-width="1" d="M 12.375 1 L 10.90625 2.25 C 12.20543 3.8425737 12.96875 5.8360301 12.96875 8 C 12.96875 10.223199 12.145616 12.261944 10.78125 13.875 L 12.28125 15.125 C 13.967612 13.178784 15.000001 10.708425 15 8 C 15 5.3432918 14.004085 2.9288438 12.375 1 z M 10.1875 2.84375 L 8.65625 4.15625 C 9.4933245 5.24065 10 6.5562172 10 8 C 10 9.5005507 9.4600452 10.861821 8.5625 11.96875 L 10.0625 13.25 C 11.277137 11.803569 12 9.9878056 12 8 C 12 6.0683029 11.337449 4.2737473 10.1875 2.84375 z M 5 3.96875 L 3 6 L 1.5 6 C 1.223 6 1 6.223 1 6.5 L 1 9.5 C 1 9.777 1.223 10 1.5 10 L 3 10 L 5 11.96875 L 5 3.96875 z M 7.9375 4.75 L 6.40625 6.0625 C 6.7806537 6.6300346 7 7.2815285 7 8 C 7 8.7691247 6.7360046 9.4700266 6.3125 10.0625 L 7.84375 11.375 C 8.5797829 10.432325 9 9.2594208 9 8 C 9 6.8041149 8.6069445 5.6663669 7.9375 4.75 z" display="inline"/><path id="path3725" fill="#000" fill-opacity="1" fill-rule="nonzero" stroke="none" stroke-dasharray="none" stroke-dashoffset="0" stroke-linecap="square" stroke-linejoin="round" stroke-miterlimit="4" stroke-opacity="1" stroke-width="1" d="M 12.375 1 L 10.90625 2.25 C 11.068648 2.4490717 11.229792 2.6638506 11.375 2.875 L 12.375 2 C 13.870381 3.7705375 14.820934 5.9430933 14.96875 8.34375 C 14.972546 8.2280715 15 8.1165835 15 8 C 15 5.3432918 14.004085 2.9288438 12.375 1 z M 10.1875 2.84375 L 8.65625 4.15625 C 8.8136486 4.3601543 8.9608871 4.5616835 9.09375 4.78125 L 10.1875 3.84375 C 11.237371 5.1492971 11.864676 6.7597807 11.96875 8.5 C 11.978673 8.3367141 12 8.165794 12 8 C 12 6.0683029 11.337449 4.2737473 10.1875 2.84375 z M 5 3.96875 L 3 6 L 1.5 6 C 1.223 6 1 6.223 1 6.5 L 1 7.5 C 1 7.223 1.223 7 1.5 7 L 3 7 L 5 4.96875 L 5 3.96875 z M 7.9375 4.75 L 6.40625 6.0625 C 6.5493411 6.2794026 6.6557945 6.5095184 6.75 6.75 L 7.9375 5.75 C 8.5173171 6.5436807 8.879405 7.5114912 8.96875 8.53125 C 8.9853031 8.356802 9 8.1783251 9 8 C 9 6.8041149 8.6069445 5.6663669 7.9375 4.75 z M 6.96875 8.40625 C 6.8936324 9.0158304 6.6598254 9.5765996 6.3125 10.0625 L 6.6875 10.375 C 6.8769134 9.9486521 7 9.4929963 7 9 C 7 8.7992506 7.0015967 8.5961709 6.96875 8.40625 z M 12.9375 8.5 C 12.822049 10.524489 12.040568 12.38614 10.78125 13.875 L 11.25 14.28125 C 12.336935 12.773031 12.96875 10.96055 12.96875 9 C 12.96875 8.8333871 12.946446 8.6644861 12.9375 8.5 z M 9.96875 8.59375 C 9.8475855 9.8621345 9.3413425 11.008215 8.5625 11.96875 L 9 12.34375 C 9.6250912 11.364327 10 10.229928 10 9 C 10 8.862128 9.9778373 8.7291939 9.96875 8.59375 z" display="inline" opacity=".5"/><path id="path3806" fill="#fff" fill-opacity="1" fill-rule="nonzero" stroke="none" d="M 11.375 2.875 L 10.90625 3.25 C 12.105401 4.7199549 12.830252 6.5281389 12.9375 8.5 C 12.947131 8.3311238 12.96875 8.1711732 12.96875 8 C 12.96875 6.1065263 12.391453 4.3530455 11.375 2.875 z M 9.09375 4.78125 L 8.65625 5.15625 C 9.4072819 6.1291848 9.8769658 7.2917483 9.96875 8.5625 C 9.9852674 8.3795084 10 8.1875689 10 8 C 10 6.8276977 9.6674764 5.7293781 9.09375 4.78125 z M 6.75 6.75 L 6.40625 7.0625 C 6.6760409 7.4714588 6.88404 7.9164539 6.96875 8.40625 C 6.9852256 8.2725502 7 8.1383487 7 8 C 7 7.5561167 6.902287 7.1387484 6.75 6.75 z M 14.96875 8.34375 C 14.88437 10.915472 13.895023 13.262558 12.28125 15.125 L 11.25 14.28125 C 11.104386 14.483302 10.942437 14.684433 10.78125 14.875 L 12.28125 16.125 C 13.967612 14.178784 15.000001 11.708425 15 9 C 15 8.7819555 14.981966 8.5583962 14.96875 8.34375 z M 11.96875 8.5 C 11.859699 10.294449 11.17583 11.924209 10.0625 13.25 L 9 12.34375 C 8.86246 12.559254 8.7243717 12.769116 8.5625 12.96875 L 10.0625 14.25 C 11.277137 12.803569 12 10.987806 12 9 C 12 8.8318877 11.978671 8.665885 11.96875 8.5 z M 8.96875 8.53125 C 8.8683967 9.5888413 8.4755659 10.565801 7.84375 11.375 L 6.6875 10.375 C 6.5814091 10.613798 6.4645451 10.849792 6.3125 11.0625 L 7.84375 12.375 C 8.5797829 11.432325 9 10.259421 9 9 C 9 8.839891 8.9825608 8.688883 8.96875 8.53125 z M 1 9.5 L 1 10.5 C 1 10.777 1.223 11 1.5 11 L 3 11 L 5 12.96875 L 5 11.96875 L 3 10 L 1.5 10 C 1.223 10 1 9.777 1 9.5 z" display="inline" opacity=".3"/></g></svg>