<svg xmlns="http://www.w3.org/2000/svg" xmlns:svg="http://www.w3.org/2000/svg" xmlns:xlink="http://www.w3.org/1999/xlink" id="svg2" width="16" height="16" version="1.0"><defs id="defs4"><linearGradient id="linearGradient2433" x1="8.438" x2="8.438" y1="1" y2="15.008" gradientTransform="matrix(1.2397314,0,0,1,-2.1450456,0)" gradientUnits="userSpaceOnUse" xlink:href="#StandardGradient"/><linearGradient id="linearGradient2437" x1="8.438" x2="8.438" y1="1" y2="15.008" gradientTransform="matrix(1.315615,0,0,1,-4.7200494,0)" gradientUnits="userSpaceOnUse" xlink:href="#StandardGradient"/><linearGradient id="linearGradient2435" x1="8.438" x2="8.438" y1="1" y2="15.008" gradientTransform="matrix(1.3065009,0,0,1,-3.6644889,0)" gradientUnits="userSpaceOnUse" xlink:href="#StandardGradient"/><linearGradient id="linearGradient3171"><stop id="stop3173" offset="0" stop-color="#000" stop-opacity="1"/><stop id="stop3175" offset="1" stop-color="#000" stop-opacity="0"/></linearGradient><linearGradient id="linearGradient3342" x1="4.938" x2="8" y1="11" y2="11" gradientUnits="userSpaceOnUse" xlink:href="#linearGradient3171"/><linearGradient id="linearGradient3266"><stop id="stop3268" offset="0" stop-color="#505050" stop-opacity="1"/><stop id="stop3270" offset="1" stop-color="#505050" stop-opacity="0"/></linearGradient><linearGradient id="linearGradient3340" x1="3.889" x2="4.329" y1="15.657" y2="12.843" gradientTransform="translate(2,0)" gradientUnits="userSpaceOnUse" xlink:href="#linearGradient3266"/><linearGradient id="linearGradient3338" x1="3.5" x2="3.5" y1="14.031" y2="7.996" gradientUnits="userSpaceOnUse" xlink:href="#linearGradient3242"/><linearGradient id="linearGradient3242"><stop id="stop3244" offset="0" stop-color="#505050" stop-opacity="1"/><stop id="stop3260" offset=".5" stop-color="#a7a7a7" stop-opacity="1"/><stop id="stop3250" offset=".7" stop-color="#fff" stop-opacity="1"/><stop id="stop3246" offset="1" stop-color="#c8c8c8" stop-opacity="1"/></linearGradient><linearGradient id="linearGradient3336" x1="7.613" x2="5.525" y1="14.757" y2="7.243" gradientUnits="userSpaceOnUse" xlink:href="#linearGradient3242"/><linearGradient id="ShadowGradient"><stop id="stop3393" offset="0" stop-color="#000" stop-opacity="1"/><stop id="stop3395" offset="1" stop-color="#000" stop-opacity="0"/></linearGradient><linearGradient id="StandardGradient"><stop id="stop3389" offset="0" stop-color="#000" stop-opacity="1"/><stop id="stop3391" offset="1" stop-color="#646464" stop-opacity="1"/></linearGradient><linearGradient id="linearGradient3381" x1="9.938" x2="9.938" y1="3" y2="19.018" gradientUnits="userSpaceOnUse" xlink:href="#StandardGradient"/><linearGradient id="linearGradient3782" x1="9.75" x2="9.75" y1="5" y2="19.056" gradientTransform="translate(0,-1)" gradientUnits="userSpaceOnUse" xlink:href="#StandardGradient"/><linearGradient id="linearGradient2400" x1="9.75" x2="9.75" y1="5" y2="19.056" gradientTransform="translate(-9,10)" gradientUnits="userSpaceOnUse" xlink:href="#StandardGradient"/><linearGradient id="linearGradient3174" x1="9.75" x2="9.75" y1="5" y2="19.056" gradientTransform="matrix(0.7071068,0.7071068,-0.7071068,0.7071068,0.8856249,4.1536343)" gradientUnits="userSpaceOnUse" xlink:href="#StandardGradient"/><linearGradient id="linearGradient3178" x1="9.75" x2="9.75" y1="5" y2="19.056" gradientTransform="matrix(0,1,-1,0,12.009822,7.0098219)" gradientUnits="userSpaceOnUse" xlink:href="#StandardGradient"/><linearGradient id="linearGradient3182" x1="9.75" x2="9.75" y1="5" y2="19.056" gradientTransform="matrix(-0.7071068,0.7071068,-0.7071068,-0.7071068,17.856188,16.895447)" gradientUnits="userSpaceOnUse" xlink:href="#StandardGradient"/><linearGradient id="linearGradient3186" x1="9.75" x2="9.75" y1="5" y2="19.056" gradientTransform="matrix(-1,0,0,-1,15,28.019644)" gradientUnits="userSpaceOnUse" xlink:href="#StandardGradient"/><linearGradient id="linearGradient3190" x1="9.75" x2="9.75" y1="5" y2="19.056" gradientTransform="matrix(-0.7071068,-0.7071068,0.7071068,-0.7071068,5.1143752,33.866009)" gradientUnits="userSpaceOnUse" xlink:href="#StandardGradient"/><linearGradient id="linearGradient3194" x1="9.75" x2="9.75" y1="5" y2="19.056" gradientTransform="matrix(0,-1,1,0,-6.0098215,31.009821)" gradientUnits="userSpaceOnUse" xlink:href="#StandardGradient"/><linearGradient id="linearGradient3198" x1="9.75" x2="9.75" y1="5" y2="19.056" gradientTransform="matrix(0.7071068,-0.7071068,0.7071068,0.7071068,-11.856186,21.124197)" gradientUnits="userSpaceOnUse" xlink:href="#StandardGradient"/><linearGradient id="linearGradient3224" x1="9.75" x2="9.75" y1="5" y2="19.056" gradientTransform="matrix(0.7071068,0.7071068,-0.7071068,0.7071068,11.292893,-6.263456)" gradientUnits="userSpaceOnUse" xlink:href="#StandardGradient"/><linearGradient id="linearGradient2407" x1="9.75" x2="9.75" y1="5" y2="19.056" gradientTransform="translate(-22,-5)" gradientUnits="userSpaceOnUse" xlink:href="#StandardGradient"/><linearGradient id="linearGradient3228" x1="6.701" x2="6.701" y1="1" y2="15.001" gradientUnits="userSpaceOnUse" xlink:href="#StandardGradient"/><linearGradient id="linearGradient2630" x1="4.938" x2="8" y1="11" y2="11" gradientTransform="translate(4.8043455e-2,-1.0546018)" gradientUnits="userSpaceOnUse" xlink:href="#linearGradient3171"/><linearGradient id="linearGradient2633" x1="3.889" x2="4.329" y1="15.657" y2="12.843" gradientTransform="translate(2.0480435,-1.0546018)" gradientUnits="userSpaceOnUse" xlink:href="#linearGradient3266"/><linearGradient id="linearGradient2636" x1="3.5" x2="3.5" y1="14.031" y2="7.996" gradientTransform="translate(4.8043455e-2,-1.0546018)" gradientUnits="userSpaceOnUse" xlink:href="#linearGradient3242"/><linearGradient id="linearGradient2639" x1="7.613" x2="5.525" y1="14.757" y2="7.243" gradientTransform="translate(4.8043455e-2,-1.0546018)" gradientUnits="userSpaceOnUse" xlink:href="#linearGradient3242"/><linearGradient id="linearGradient2641" x1="7.613" x2="5.525" y1="14.757" y2="7.243" gradientTransform="translate(-2,-2.9999999)" gradientUnits="userSpaceOnUse" xlink:href="#linearGradient3242"/><linearGradient id="linearGradient3421" x1="8.438" x2="8.438" y1="1" y2="15.008" gradientUnits="userSpaceOnUse" xlink:href="#StandardGradient"/><clipPath id="clipPath3863" clipPathUnits="userSpaceOnUse"><path id="path3865" fill="#f0f" fill-opacity="1" stroke="none" d="m -20,0 0,16 16,0 0,-16 -16,0 z M -9.8125,2.84375 C -8.662551,4.2737473 -8,6.068303 -8,8 c 0,1.987806 -0.722863,3.803569 -1.9375,5.25 l -1.5,-1.28125 C -10.539955,10.861821 -10,9.500551 -10,8 -10,6.556217 -10.506675,5.24065 -11.34375,4.15625 l 1.53125,-1.3125 z m -5.1875,1.125 0,8 L -17,10 -18.5,10 C -18.777,10 -19,9.777 -19,9.5 l 0,-3 C -19,6.223 -18.777,6 -18.5,6 l 1.5,0 2,-2.03125 z M -12.0625,4.75 C -11.393055,5.666367 -11,6.804115 -11,8 c 0,1.259421 -0.420217,2.432325 -1.15625,3.375 L -13.6875,10.0625 C -13.263995,9.470027 -13,8.769125 -13,8 -13,7.281529 -13.219346,6.630035 -13.59375,6.0625 L -12.0625,4.75 z" display="inline"/></clipPath><filter id="filter3867" color-interpolation-filters="sRGB"><feGaussianBlur id="feGaussianBlur3869" stdDeviation=".321"/></filter><linearGradient id="linearGradient3063" x1="8.438" x2="8.438" y1="1" y2="15.008" gradientUnits="userSpaceOnUse" xlink:href="#StandardGradient-1"/><linearGradient id="StandardGradient-1" x1="7.19" x2="7.19" y1="6.955" y2="18.319" gradientTransform="scale(1.1467263,0.8720476)" gradientUnits="userSpaceOnUse"><stop id="stop3280" offset="0" stop-color="#000" stop-opacity=".863"/><stop id="stop3282" offset="1" stop-color="#000" stop-opacity=".471"/></linearGradient><linearGradient id="linearGradient4743" x1="8.438" x2="8.438" y1="1" y2="15.008" gradientUnits="userSpaceOnUse" xlink:href="#StandardGradient-1"/><linearGradient id="linearGradient4747" x1="8.438" x2="8.438" y1="1" y2="15.008" gradientUnits="userSpaceOnUse" xlink:href="#StandardGradient-1"/></defs><metadata id="metadata7"/><g id="layer1"><path id="path4745" fill="#fff" fill-opacity="1" fill-rule="nonzero" stroke="none" d="M 10.09375 1.8125 A 1.007883 1.007883 0 0 0 9.96875 1.84375 A 1.007883 1.007883 0 0 0 9.53125 2.09375 L 8 3.40625 A 1.007883 1.007883 0 0 0 7.75 3.75 A 1.007883 1.007883 0 0 0 7.28125 4 L 6 5.09375 L 6 3.96875 A 1.007883 1.007883 0 0 0 4.28125 3.25 L 2.5625 5 L 1.5 5 C 0.68212049 5 0 5.6821205 0 6.5 L 0 9.5 C 0 10.31788 0.68212049 11 1.5 11 L 2.5625 11 L 4.28125 12.6875 A 1.007883 1.007883 0 0 0 6 11.96875 L 6 11.09375 L 7.1875 12.125 A 1.007883 1.007883 0 0 0 7.65625 12.375 A 1.007883 1.007883 0 0 0 7.90625 12.75 L 9.40625 14.03125 A 1.007883 1.007883 0 0 0 10.84375 13.90625 C 12.198863 12.292535 13 10.232125 13 8 C 13 5.8378641 12.258265 3.8223016 10.96875 2.21875 A 1.007883 1.007883 0 0 0 10.09375 1.8125 z M 10.1875 2.84375 C 11.337449 4.2737473 12 6.068303 12 8 C 12 9.987806 11.277137 11.803569 10.0625 13.25 L 8.5625 11.96875 C 9.460045 10.861821 10 9.500551 10 8 C 10 6.556217 9.493325 5.24065 8.65625 4.15625 L 10.1875 2.84375 z M 5 3.96875 L 5 11.96875 L 3 10 L 1.5 10 C 1.223 10 1 9.777 1 9.5 L 1 6.5 C 1 6.223 1.223 6 1.5 6 L 3 6 L 5 3.96875 z M 7.9375 4.75 C 8.606945 5.666367 9 6.804115 9 8 C 9 9.259421 8.579783 10.432325 7.84375 11.375 L 6.3125 10.0625 C 6.736005 9.470027 7 8.769125 7 8 C 7 7.281529 6.780654 6.630035 6.40625 6.0625 L 7.9375 4.75 z" display="inline" opacity=".15"/><path id="path3061" fill="#000" fill-opacity="1" fill-rule="nonzero" stroke="none" d="m 12.375,1 -1.46875,1.25 c 1.29918,1.5925737 2.0625,3.58603 2.0625,5.75 0,2.223199 -0.823134,4.261944 -2.1875,5.875 l 1.5,1.25 C 13.967612,13.178784 15.000001,10.708425 15,8 15,5.343292 14.004085,2.9288438 12.375,1 z" display="inline" opacity=".3"/><path id="path3059" fill="url(#linearGradient3063)" fill-opacity="1" fill-rule="nonzero" stroke="none" d="M 10.1875,2.84375 8.65625,4.15625 C 9.493325,5.24065 10,6.556217 10,8 10,9.500551 9.460045,10.861821 8.5625,11.96875 l 1.5,1.28125 C 11.277137,11.803569 12,9.987806 12,8 12,6.068303 11.337449,4.2737473 10.1875,2.84375 z M 5,3.96875 3,6 1.5,6 C 1.223,6 1,6.223 1,6.5 l 0,3 C 1,9.777 1.223,10 1.5,10 l 1.5,0 2,1.96875 0,-8 z M 7.9375,4.75 6.40625,6.0625 C 6.780654,6.630035 7,7.281529 7,8 7,8.769125 6.736005,9.470027 6.3125,10.0625 L 7.84375,11.375 C 8.579783,10.432325 9,9.259421 9,8 9,6.804115 8.606945,5.666367 7.9375,4.75 z" display="inline"/><path id="path3838" fill="#000" fill-opacity="1" fill-rule="nonzero" stroke="none" d="m 10.1875,2.84375 -1.53125,1.3125 c 0.157399,0.2039043 0.304637,0.4054335 0.4375,0.625 L 10.1875,3.84375 C 11.237371,5.149297 11.864676,6.759781 11.96875,8.5 11.97865,8.336714 12,8.165794 12,8 12,6.068303 11.337449,4.2737473 10.1875,2.84375 z M 5,3.96875 3,6 1.5,6 C 1.223,6 1,6.223 1,6.5 l 0,1 C 1,7.223 1.223,7 1.5,7 L 3,7 5,4.96875 l 0,-1 z M 7.9375,4.75 6.40625,6.0625 C 6.549341,6.279403 6.655795,6.509518 6.75,6.75 l 1.1875,-1 C 8.517318,6.543681 8.879405,7.511491 8.96875,8.53125 8.9853,8.356802 9,8.178325 9,8 9,6.804115 8.606945,5.666367 7.9375,4.75 z M 6.96875,8.40625 C 6.89363,9.015831 6.659826,9.5766 6.3125,10.0625 l 0.375,0.3125 C 6.876913,9.948652 7,9.492997 7,9 7,8.799251 7.0016,8.596171 6.96875,8.40625 z m 3,0.1875 C 9.847585,9.862135 9.341342,11.008215 8.5625,11.96875 L 9,12.34375 C 9.625091,11.364327 10,10.229928 10,9 10,8.862128 9.97784,8.729194 9.96875,8.59375 z" display="inline" opacity=".5"/><path id="path3843" fill="#fff" fill-opacity="1" fill-rule="nonzero" stroke="none" d="m 9.09375,4.78125 -0.4375,0.375 C 9.407282,6.129185 9.876966,7.291748 9.96875,8.5625 9.98527,8.379508 10,8.187569 10,8 10,6.827698 9.667477,5.729378 9.09375,4.78125 z M 6.75,6.75 6.40625,7.0625 C 6.676041,7.471459 6.88404,7.916454 6.96875,8.40625 6.98523,8.27255 7,8.138349 7,8 7,7.556117 6.90229,7.138749 6.75,6.75 z m 5.21875,1.75 c -0.109051,1.794449 -0.79292,3.424209 -1.90625,4.75 L 9,12.34375 c -0.13754,0.215504 -0.275628,0.425366 -0.4375,0.625 l 1.5,1.28125 C 11.277137,12.803569 12,10.987806 12,9 12,8.831888 11.97867,8.665885 11.96875,8.5 z m -3,0.03125 C 8.868397,9.588841 8.475566,10.565801 7.84375,11.375 l -1.15625,-1 c -0.106091,0.238798 -0.222955,0.474792 -0.375,0.6875 L 7.84375,12.375 C 8.579783,11.432325 9,10.259421 9,9 9,8.839891 8.98256,8.688883 8.96875,8.53125 z M 1,9.5 l 0,1 C 1,10.777 1.223,11 1.5,11 l 1.5,0 2,1.96875 0,-1 L 3,10 1.5,10 C 1.223,10 1,9.777 1,9.5 z" display="inline" opacity=".3"/></g></svg>