<svg xmlns="http://www.w3.org/2000/svg" xmlns:svg="http://www.w3.org/2000/svg" xmlns:xlink="http://www.w3.org/1999/xlink" id="svg2" width="16" height="16" version="1.0"><defs id="defs4"><linearGradient id="linearGradient3183"><stop id="stop3185" offset="0" stop-color="#c80000" stop-opacity="1"/><stop id="stop3187" offset="1" stop-color="#f3604d" stop-opacity="1"/></linearGradient><linearGradient id="linearGradient3460" x1="15.521" x2="15.521" y1="15" y2="5.993" gradientTransform="matrix(0.8888889,0,0,0.8888889,-2.8888889,8.666667)" gradientUnits="userSpaceOnUse" xlink:href="#linearGradient3183"/><linearGradient id="linearGradient3171"><stop id="stop3173" offset="0" stop-color="#000" stop-opacity="1"/><stop id="stop3175" offset="1" stop-color="#000" stop-opacity="0"/></linearGradient><linearGradient id="linearGradient3342" x1="4.938" x2="8" y1="11" y2="11" gradientUnits="userSpaceOnUse" xlink:href="#linearGradient3171"/><linearGradient id="linearGradient3266"><stop id="stop3268" offset="0" stop-color="#505050" stop-opacity="1"/><stop id="stop3270" offset="1" stop-color="#505050" stop-opacity="0"/></linearGradient><linearGradient id="linearGradient3340" x1="3.889" x2="4.329" y1="15.657" y2="12.843" gradientTransform="translate(2,0)" gradientUnits="userSpaceOnUse" xlink:href="#linearGradient3266"/><linearGradient id="linearGradient3338" x1="3.5" x2="3.5" y1="14.031" y2="7.996" gradientUnits="userSpaceOnUse" xlink:href="#linearGradient3242"/><linearGradient id="linearGradient3242"><stop id="stop3244" offset="0" stop-color="#505050" stop-opacity="1"/><stop id="stop3260" offset=".5" stop-color="#a7a7a7" stop-opacity="1"/><stop id="stop3250" offset=".7" stop-color="#fff" stop-opacity="1"/><stop id="stop3246" offset="1" stop-color="#c8c8c8" stop-opacity="1"/></linearGradient><linearGradient id="linearGradient3336" x1="7.613" x2="5.525" y1="14.757" y2="7.243" gradientUnits="userSpaceOnUse" xlink:href="#linearGradient3242"/><linearGradient id="ShadowGradient"><stop id="stop3393" offset="0" stop-color="#000" stop-opacity="1"/><stop id="stop3395" offset="1" stop-color="#000" stop-opacity="0"/></linearGradient><linearGradient id="StandardGradient"><stop id="stop3389" offset="0" stop-color="#000" stop-opacity="1"/><stop id="stop3391" offset="1" stop-color="#646464" stop-opacity="1"/></linearGradient><linearGradient id="linearGradient3381" x1="9.938" x2="9.938" y1="3" y2="19.018" gradientUnits="userSpaceOnUse" xlink:href="#StandardGradient"/><linearGradient id="linearGradient3782" x1="9.75" x2="9.75" y1="5" y2="19.056" gradientTransform="translate(0,-1)" gradientUnits="userSpaceOnUse" xlink:href="#StandardGradient"/><linearGradient id="linearGradient2400" x1="9.75" x2="9.75" y1="5" y2="19.056" gradientTransform="translate(-9,10)" gradientUnits="userSpaceOnUse" xlink:href="#StandardGradient"/><linearGradient id="linearGradient3174" x1="9.75" x2="9.75" y1="5" y2="19.056" gradientTransform="matrix(0.7071068,0.7071068,-0.7071068,0.7071068,0.8856249,4.1536343)" gradientUnits="userSpaceOnUse" xlink:href="#StandardGradient"/><linearGradient id="linearGradient3178" x1="9.75" x2="9.75" y1="5" y2="19.056" gradientTransform="matrix(0,1,-1,0,12.009822,7.0098219)" gradientUnits="userSpaceOnUse" xlink:href="#StandardGradient"/><linearGradient id="linearGradient3182" x1="9.75" x2="9.75" y1="5" y2="19.056" gradientTransform="matrix(-0.7071068,0.7071068,-0.7071068,-0.7071068,17.856188,16.895447)" gradientUnits="userSpaceOnUse" xlink:href="#StandardGradient"/><linearGradient id="linearGradient3186" x1="9.75" x2="9.75" y1="5" y2="19.056" gradientTransform="matrix(-1,0,0,-1,15,28.019644)" gradientUnits="userSpaceOnUse" xlink:href="#StandardGradient"/><linearGradient id="linearGradient3190" x1="9.75" x2="9.75" y1="5" y2="19.056" gradientTransform="matrix(-0.7071068,-0.7071068,0.7071068,-0.7071068,5.1143752,33.866009)" gradientUnits="userSpaceOnUse" xlink:href="#StandardGradient"/><linearGradient id="linearGradient3194" x1="9.75" x2="9.75" y1="5" y2="19.056" gradientTransform="matrix(0,-1,1,0,-6.0098215,31.009821)" gradientUnits="userSpaceOnUse" xlink:href="#StandardGradient"/><linearGradient id="linearGradient3198" x1="9.75" x2="9.75" y1="5" y2="19.056" gradientTransform="matrix(0.7071068,-0.7071068,0.7071068,0.7071068,-11.856186,21.124197)" gradientUnits="userSpaceOnUse" xlink:href="#StandardGradient"/><linearGradient id="linearGradient3224" x1="9.75" x2="9.75" y1="5" y2="19.056" gradientTransform="matrix(0.7071068,0.7071068,-0.7071068,0.7071068,11.292893,-6.263456)" gradientUnits="userSpaceOnUse" xlink:href="#StandardGradient"/><linearGradient id="linearGradient2407" x1="9.75" x2="9.75" y1="5" y2="19.056" gradientTransform="translate(-22,-5)" gradientUnits="userSpaceOnUse" xlink:href="#StandardGradient"/><linearGradient id="linearGradient3228" x1="6.701" x2="6.701" y1="1" y2="15.001" gradientUnits="userSpaceOnUse" xlink:href="#StandardGradient"/><linearGradient id="linearGradient2630" x1="4.938" x2="8" y1="11" y2="11" gradientTransform="translate(4.8043455e-2,-1.0546018)" gradientUnits="userSpaceOnUse" xlink:href="#linearGradient3171"/><linearGradient id="linearGradient2633" x1="3.889" x2="4.329" y1="15.657" y2="12.843" gradientTransform="translate(2.0480435,-1.0546018)" gradientUnits="userSpaceOnUse" xlink:href="#linearGradient3266"/><linearGradient id="linearGradient2636" x1="3.5" x2="3.5" y1="14.031" y2="7.996" gradientTransform="translate(4.8043455e-2,-1.0546018)" gradientUnits="userSpaceOnUse" xlink:href="#linearGradient3242"/><linearGradient id="linearGradient2639" x1="7.613" x2="5.525" y1="14.757" y2="7.243" gradientTransform="translate(4.8043455e-2,-1.0546018)" gradientUnits="userSpaceOnUse" xlink:href="#linearGradient3242"/><linearGradient id="linearGradient2641" x1="7.613" x2="5.525" y1="14.757" y2="7.243" gradientTransform="translate(-2,-2.9999999)" gradientUnits="userSpaceOnUse" xlink:href="#linearGradient3242"/><linearGradient id="linearGradient3421" x1="8.438" x2="8.438" y1="1" y2="15.008" gradientUnits="userSpaceOnUse" xlink:href="#StandardGradient"/><clipPath id="clipPath3702" clipPathUnits="userSpaceOnUse"><path id="path3704" fill="#f0f" fill-opacity="1" stroke="none" d="m -20,0 0,16 16,0 0,-16 -16,0 z m 5,3.96875 0,8 L -17,10 -18.5,10 C -18.777,10 -19,9.777 -19,9.5 l 0,-3 C -19,6.223 -18.777,6 -18.5,6 l 1.5,0 2,-2.03125 z" display="inline"/></clipPath><linearGradient id="linearGradient3913" x1="8.438" x2="8.438" y1="1" y2="15.008" gradientUnits="userSpaceOnUse" xlink:href="#StandardGradient-1"/><linearGradient id="StandardGradient-1" x1="7.19" x2="7.19" y1="6.955" y2="18.319" gradientTransform="scale(1.1467263,0.8720476)" gradientUnits="userSpaceOnUse"><stop id="stop3280" offset="0" stop-color="#000" stop-opacity=".863"/><stop id="stop3282" offset="1" stop-color="#000" stop-opacity=".471"/></linearGradient><linearGradient id="linearGradient3705" x1="7" x2="15" y1="8" y2="8" gradientTransform="matrix(0,-1,1,0,3,19)" gradientUnits="userSpaceOnUse" xlink:href="#linearGradient3183"/><linearGradient id="linearGradient2904" x1="7" x2="15" y1="8" y2="8" gradientTransform="matrix(0,0.74920787,0.74920787,0,6.0095055,3.761882)" gradientUnits="userSpaceOnUse" xlink:href="#SpecificGradient"/><linearGradient id="SpecificGradient" x1="10.762" x2="10.762" y1="4" y2="18.011" gradientUnits="userSpaceOnUse"><stop id="stop3292" offset="0" stop-color="#ad0707" stop-opacity="1"/><stop id="stop3294" offset="1" stop-color="#f75535" stop-opacity="1"/></linearGradient><linearGradient id="linearGradient3818" x1="7" x2="15" y1="8" y2="8" gradientTransform="matrix(0,0.74920787,0.74920787,0,5.0095055,-0.238118)" gradientUnits="userSpaceOnUse" xlink:href="#SpecificGradient"/><linearGradient id="linearGradient4219" x1="8.438" x2="8.438" y1="1" y2="15.008" gradientUnits="userSpaceOnUse" xlink:href="#StandardGradient-1"/><linearGradient id="linearGradient4224" x1="8.438" x2="8.438" y1="1" y2="15.008" gradientUnits="userSpaceOnUse" xlink:href="#StandardGradient-1"/><linearGradient id="linearGradient4228" x1="8.438" x2="8.438" y1="1" y2="15.008" gradientUnits="userSpaceOnUse" xlink:href="#StandardGradient-1"/></defs><metadata id="metadata7"/><g id="layer1"><path id="path4226" fill="#fff" fill-opacity="1" fill-rule="nonzero" stroke="none" d="M 4.875 3 A 0.97583467 0.97583467 0 0 0 4.3125 3.28125 L 2.59375 5.03125 L 1.5 5.03125 C 0.6993192 5.03125 0.03125 5.6993192 0.03125 6.5 L 0.03125 9.5 C 0.03125 10.300681 0.6993192 10.96875 1.5 10.96875 L 2.59375 10.96875 L 4.3125 12.65625 A 0.97583467 0.97583467 0 0 0 5.96875 11.96875 L 5.96875 3.96875 A 0.97583467 0.97583467 0 0 0 4.875 3 z M 5 3.96875 L 5 11.96875 L 3 10 L 1.5 10 C 1.223 10 1 9.777 1 9.5 L 1 6.5 C 1 6.223 1.223 6 1.5 6 L 3 6 L 5 3.96875 z M 9.40625 4 A 0.97583467 0.97583467 0 0 0 9.28125 4.03125 A 0.97583467 0.97583467 0 0 0 8.8125 4.3125 L 7.3125 5.8125 A 0.97583467 0.97583467 0 0 0 7.3125 7.1875 L 8.125 8 L 7.3125 8.8125 A 0.97583467 0.97583467 0 0 0 7.3125 10.1875 L 8.8125 11.6875 A 0.97583467 0.97583467 0 0 0 10.1875 11.6875 L 11 10.875 L 11.8125 11.6875 A 0.97583467 0.97583467 0 0 0 13.1875 11.6875 L 14.6875 10.1875 A 0.97583467 0.97583467 0 0 0 14.6875 8.8125 L 13.875 8 L 14.6875 7.1875 A 0.97583467 0.97583467 0 0 0 14.6875 5.8125 L 13.1875 4.3125 A 0.97583467 0.97583467 0 0 0 11.8125 4.3125 L 11 5.125 L 10.1875 4.3125 A 0.97583467 0.97583467 0 0 0 9.40625 4 z M 9.5 5 L 11 6.5 L 12.5 5 L 14 6.5 L 12.5 8 L 14 9.5 L 12.5 11 L 11 9.5 L 9.5 11 L 8 9.5 L 9.5 8 L 8 6.5 L 9.5 5 z" display="inline" opacity=".15"/><path id="path2899" fill="url(#linearGradient3913)" fill-opacity="1" fill-rule="nonzero" stroke="none" d="M 5,3.96875 3,6 1.5,6 C 1.223,6 1,6.223 1,6.5 l 0,3 C 1,9.777 1.223,10 1.5,10 l 1.5,0 2,1.96875 0,-8 z" display="inline"/><path id="path3673" fill="#000" fill-opacity="1" fill-rule="nonzero" stroke="none" d="M 5,3.96875 3,6 1.5,6 C 1.223,6 1,6.223 1,6.5 l 0,1 C 1,7.223 1.223,7 1.5,7 L 3,7 5,4.96875 l 0,-1 z" display="inline" opacity=".5"/><path id="path3682" fill="#fff" fill-opacity="1" fill-rule="nonzero" stroke="none" d="m 1,9.5 0,1 C 1,10.777 1.223,11 1.5,11 l 1.5,0 2,1.96875 0,-1 L 3,10 1.5,10 C 1.223,10 1,9.777 1,9.5 z" display="inline" opacity=".3"/><path id="path2922" fill="url(#linearGradient3818)" fill-opacity="1" stroke="none" d="M 8.006337,6.504753 9.504753,5.006337 11.003169,6.504753 12.501584,5.006337 14,6.504753 12.501584,8.003168 14,9.501584 12.501584,11 11.003169,9.501584 9.504753,11 8.006337,9.501584 9.504753,8.003168 8.006337,6.504753 z"/><path id="path3781" fill="#fff" fill-opacity="1" stroke="none" d="M 8.5,7 8,7.5 9,8.5 9.5,8 8.5,7 z m 5,0 -1,1 0.5,0.5 1,-1 L 13.5,7 z M 11,9.5 9.5,11 8.5,10 8,10.5 9.5,12 11,10.5 12.5,12 14,10.5 13.5,10 12.5,11 11,9.5 z" opacity=".3"/><path id="path3790" fill="#500" fill-opacity="1" stroke="none" d="M 9.5,5 8,6.5 8.5,7 9.5,6 11,7.5 12.5,6 13.5,7 14,6.5 12.5,5 11,6.5 9.5,5 z M 9,8.5 8,9.5 8.5,10 9.5,9 9,8.5 z m 4,0 -0.5,0.5 1,1 0.5,-0.5 -1,-1 z" opacity=".5"/></g></svg>