<svg xmlns="http://www.w3.org/2000/svg" xmlns:svg="http://www.w3.org/2000/svg" xmlns:xlink="http://www.w3.org/1999/xlink" id="svg2" width="16" height="16" display="inline" version="1.0"><defs id="defs4"><linearGradient id="linearGradient3327"><stop id="stop3330" offset="0" stop-color="#000" stop-opacity="1"/><stop id="stop3333" offset="1" stop-color="#000" stop-opacity="0"/></linearGradient><linearGradient id="ButtonColor" x1="10.32" x2="10.32" y1="21" y2=".999" gradientUnits="userSpaceOnUse"><stop id="stop3189" offset="0" stop-color="#29669f" stop-opacity="1"/><stop id="stop3191" offset="1" stop-color="#88b6e0" stop-opacity="1"/></linearGradient><linearGradient id="linearGradient3192" x1="9.057" x2="9.057" y1="10.203" y2="-12.199" gradientTransform="translate(0,5.8006549)" gradientUnits="userSpaceOnUse" xlink:href="#linearGradient3327"/><linearGradient id="linearGradient3204" x1="1" x2="15" y1="9" y2="9" gradientTransform="translate(-17,-2)" gradientUnits="userSpaceOnUse" xlink:href="#linearGradient4059"/><linearGradient id="linearGradient3173" x1="1" x2="15" y1="9" y2="9" gradientTransform="translate(-16,-1)" gradientUnits="userSpaceOnUse" xlink:href="#ButtonColor"/><linearGradient id="linearGradient3177" x1="1" x2="15" y1="9" y2="9" gradientTransform="translate(-16,-1)" gradientUnits="userSpaceOnUse" xlink:href="#ButtonColor"/><linearGradient id="linearGradient3179" x1="1" x2="15" y1="9" y2="9" gradientTransform="matrix(0,-1,1,0,-1,16)" gradientUnits="userSpaceOnUse" xlink:href="#ButtonColor"/><linearGradient id="linearGradient3612" x1="8" x2="8" y1="15" y2="-1" gradientUnits="userSpaceOnUse" xlink:href="#linearGradient3327"/><linearGradient id="linearGradient3629" x1="0" x2="29.017" y1="8" y2="8" gradientTransform="matrix(0,-1,1,0,0,16)" gradientUnits="userSpaceOnUse" xlink:href="#linearGradient3327"/><linearGradient id="linearGradient3181" x1="-3.061" x2="-3.061" y1="27.258" y2="7.254" gradientTransform="translate(11.119372,-6.258198)" gradientUnits="userSpaceOnUse" xlink:href="#linearGradient4059"/><linearGradient id="linearGradient4059"><stop id="stop4061" offset="0" stop-color="#969696" stop-opacity="1"/><stop id="stop4063" offset="1" stop-color="#cdcdcd" stop-opacity="1"/></linearGradient><linearGradient id="linearGradient2960" x1="-3.061" x2="-3.061" y1="27.258" y2="7.254" gradientTransform="translate(-20.880628,-15.258198)" gradientUnits="userSpaceOnUse" xlink:href="#linearGradient4059"/><linearGradient id="linearGradient3744" x1="14" x2="14" y1="4" y2="7.071" gradientTransform="translate(-3,-1)" gradientUnits="userSpaceOnUse" xlink:href="#linearGradient3738"/><linearGradient id="linearGradient3738"><stop id="stop3740" offset="0" stop-color="#5dbcd3" stop-opacity="1"/><stop id="stop3742" offset="1" stop-color="#9ae8fb" stop-opacity="1"/></linearGradient><linearGradient id="linearGradient3754" x1="13" x2="13" y1="11" y2="5" gradientUnits="userSpaceOnUse" xlink:href="#linearGradient4164"/><linearGradient id="linearGradient4164"><stop id="stop4166" offset="0" stop-color="#fff" stop-opacity="1"/><stop id="stop4168" offset="1" stop-color="#fff" stop-opacity="0"/></linearGradient><linearGradient id="linearGradient2984" x1="13" x2="13" y1="11" y2="5" gradientTransform="translate(-3,-3)" gradientUnits="userSpaceOnUse" xlink:href="#linearGradient4164"/><linearGradient id="linearGradient3868" x1="4" x2="6.398" y1="14" y2="14" gradientTransform="translate(-1.0000002,-3.9999999)" gradientUnits="userSpaceOnUse" xlink:href="#linearGradient4120-9"/><linearGradient id="linearGradient4120-9"><stop id="stop4122-6" offset="0" stop-color="#fff" stop-opacity="1"/><stop id="stop4124-3" offset="1" stop-color="#989898" stop-opacity="1"/></linearGradient><linearGradient id="linearGradient3827" x1="3.004" x2="7.023" y1="11.058" y2="11.058" gradientUnits="userSpaceOnUse" xlink:href="#linearGradient4120"/><linearGradient id="linearGradient4120"><stop id="stop4122" offset="0" stop-color="#fff" stop-opacity="1"/><stop id="stop4124" offset="1" stop-color="#8c8c8c" stop-opacity="1"/></linearGradient><linearGradient id="linearGradient3021" x1="3.004" x2="7.023" y1="11.058" y2="11.058" gradientUnits="userSpaceOnUse" xlink:href="#linearGradient4120"/><linearGradient id="linearGradient3751" x1="3.004" x2="7.023" y1="11.058" y2="11.058" gradientTransform="matrix(0,0.99516488,-1.0062222,0,15.127111,1.0109888)" gradientUnits="userSpaceOnUse" xlink:href="#linearGradient4120"/><linearGradient id="linearGradient3755" x1="3.004" x2="7.023" y1="11.058" y2="11.058" gradientTransform="matrix(0,0.99516488,-1.0062222,0,15.127111,1.0109888)" gradientUnits="userSpaceOnUse" xlink:href="#linearGradient4120"/><linearGradient id="linearGradient3769" x1="4" x2="6.398" y1="14" y2="14" gradientTransform="translate(-1.0000002,-3.9999999)" gradientUnits="userSpaceOnUse" xlink:href="#linearGradient4120-9"/><linearGradient id="linearGradient3773" x1="4" x2="6.398" y1="14" y2="14" gradientTransform="translate(-1.0000002,-3.9999999)" gradientUnits="userSpaceOnUse" xlink:href="#linearGradient4120-9"/></defs><metadata id="metadata7"/><g id="layer1"><rect id="rect3196" width="16" height="16" x="-16" y="0" fill="url(#linearGradient3204)" fill-opacity="1" fill-rule="nonzero" stroke="none" rx="2" ry="2" transform="matrix(0,-1,1,0,0,0)"/><path id="rect2835" fill="url(#linearGradient3629)" fill-opacity="1" fill-rule="nonzero" stroke="none" d="m 0,14 c 0,1.108 0.892,2 2,2 l 12,0 c 1.108,0 2,-0.892 2,-2 L 16,2 C 16,0.892 15.108,0 14,0 L 2,0 C 0.892,0 0,0.892 0,2 l 0,12 z m 0.96875,0 0,-12 C 0.96875,1.416801 1.4168007,0.96875 2,0.96875 l 12,0 c 0.583199,0 1.03125,0.448051 1.03125,1.03125 l 0,12 c 0,0.583199 -0.448051,1.03125 -1.03125,1.03125 l -12,0 C 1.4168007,15.03125 0.96875,14.583199 0.96875,14 z" opacity=".4"/><path id="path2843" fill="#fff" fill-opacity="1" fill-rule="nonzero" stroke="none" d="M 2 0.96875 C 1.4168007 0.96875 0.96875 1.4168007 0.96875 2 L 0.96875 3 C 0.96875 2.4168007 1.4168007 1.96875 2 1.96875 L 14 1.96875 C 14.583199 1.96875 15.03125 2.4168007 15.03125 3 L 15.03125 2 C 15.03125 1.4168007 14.583199 0.96875 14 0.96875 L 2 0.96875 z" opacity=".4"/><rect id="rect3746" width="8" height="5" x="6" y="2" fill="url(#linearGradient2984)" fill-opacity="1" stroke="none" display="inline" opacity=".4" rx="2" ry="2"/><rect id="rect3718" width="5.509" height="2.543" x="7.25" y="3.25" fill="url(#linearGradient3744)" fill-opacity="1" stroke="#3197b1" stroke-dasharray="none" stroke-miterlimit="4" stroke-opacity="1" stroke-width=".5" display="inline" rx="1" ry="1"/><rect id="rect3756" width="1" height="1" x="7" y="8" fill="#707070" fill-opacity="1" stroke="none" display="inline"/><rect id="rect3684" width="1" height="1" x="9" y="8" fill="#707070" fill-opacity="1" stroke="none" display="inline"/><rect id="rect3686" width="1" height="1" x="11" y="8" fill="#707070" fill-opacity="1" stroke="none" display="inline"/><rect id="rect3688" width="1" height="1" x="7" y="10" fill="#707070" fill-opacity="1" stroke="none" display="inline"/><rect id="rect3690" width="1" height="1" x="9" y="10" fill="#707070" fill-opacity="1" stroke="none" display="inline"/><rect id="rect3692" width="1" height="1" x="11" y="10" fill="#707070" fill-opacity="1" stroke="none" display="inline"/><rect id="rect3694" width="1" height="1" x="7" y="12" fill="#707070" fill-opacity="1" stroke="none" display="inline"/><rect id="rect3696" width="1" height="1" x="9" y="12" fill="#707070" fill-opacity="1" stroke="none" display="inline"/><rect id="rect3698" width="1" height="1" x="11" y="12" fill="#707070" fill-opacity="1" stroke="none" display="inline"/><rect id="rect3700" width="1" height="1" x="8" y="8" fill="#9b9b9b" fill-opacity="1" stroke="none" display="inline"/><rect id="rect3702" width="1" height="1" x="10" y="8" fill="#9b9b9b" fill-opacity="1" stroke="none" display="inline"/><rect id="rect3704" width="1" height="1" x="12" y="8" fill="#9b9b9b" fill-opacity="1" stroke="none" display="inline"/><rect id="rect3706" width="1" height="1" x="8" y="10" fill="#9b9b9b" fill-opacity="1" stroke="none" display="inline"/><rect id="rect3708" width="1" height="1" x="10" y="10" fill="#9b9b9b" fill-opacity="1" stroke="none" display="inline"/><rect id="rect3710" width="1" height="1" x="12" y="10" fill="#9b9b9b" fill-opacity="1" stroke="none" display="inline"/><rect id="rect3712" width="1" height="1" x="8" y="12" fill="#9b9b9b" fill-opacity="1" stroke="none" display="inline"/><rect id="rect3714" width="1" height="1" x="10" y="12" fill="#9b9b9b" fill-opacity="1" stroke="none" display="inline"/><rect id="rect3716" width="1" height="1" x="12" y="12" fill="#9b9b9b" fill-opacity="1" stroke="none" display="inline"/><path id="path3775" fill="#000" fill-opacity="1" stroke="none" d="M 3.96875,4.40625 C 3.1095112,4.40625 2.40625,5.1356451 2.40625,6 l 0,6 c 0,0.864355 0.7032612,1.59375 1.5625,1.59375 l 0.0625,0 c 0.8592388,0 1.5625,-0.729395 1.5625,-1.59375 l 0,-6 c 0,-0.8643549 -0.7032612,-1.59375 -1.5625,-1.59375 l -0.0625,0 z" display="inline" opacity=".2"/><rect id="rect3716-8" width="2" height="8" x="3" y="5" fill="url(#linearGradient3769)" fill-opacity="1" stroke="none" display="inline" rx=".956" ry="1"/><path id="path3779" fill="#fff" fill-opacity="1" fill-rule="nonzero" stroke="none" stroke-width=".5" d="m 4.9997297,6.0005407 a 0.99994594,0.99994594 0 1 1 -1.9998919,0 0.99994594,0.99994594 0 1 1 1.9998919,0 z" color="#000" display="inline" enable-background="accumulate" opacity=".8" overflow="visible" transform="matrix(1.2413793,0,0,1.2413793,-0.96546502,-1.4484064)" visibility="visible" style="marker:none"/></g></svg>