<svg xmlns="http://www.w3.org/2000/svg" xmlns:svg="http://www.w3.org/2000/svg" xmlns:xlink="http://www.w3.org/1999/xlink" id="svg2" width="16" height="16" display="inline" version="1.0"><defs id="defs4"><linearGradient id="linearGradient3327"><stop id="stop3330" offset="0" stop-color="#000" stop-opacity="1"/><stop id="stop3333" offset="1" stop-color="#000" stop-opacity="0"/></linearGradient><linearGradient id="ButtonColor" x1="10.32" x2="10.32" y1="21" y2=".999" gradientUnits="userSpaceOnUse"><stop id="stop3189" offset="0" stop-color="#29669f" stop-opacity="1"/><stop id="stop3191" offset="1" stop-color="#88b6e0" stop-opacity="1"/></linearGradient><linearGradient id="linearGradient3192" x1="9.057" x2="9.057" y1="10.203" y2="-12.199" gradientTransform="translate(-20.499722,5.3006549)" gradientUnits="userSpaceOnUse" xlink:href="#linearGradient3327"/><linearGradient id="linearGradient3204" x1="1" x2="15" y1="9" y2="9" gradientTransform="translate(-16,-1)" gradientUnits="userSpaceOnUse" xlink:href="#ButtonColor-7"/><linearGradient id="linearGradient3173" x1="1" x2="15" y1="9" y2="9" gradientTransform="translate(-16,-1)" gradientUnits="userSpaceOnUse" xlink:href="#ButtonColor"/><linearGradient id="linearGradient3177" x1="1" x2="15" y1="9" y2="9" gradientTransform="translate(-16,-1)" gradientUnits="userSpaceOnUse" xlink:href="#ButtonColor"/><linearGradient id="linearGradient3179" x1="1" x2="15" y1="9" y2="9" gradientTransform="matrix(0,-1,1,0,-1,16)" gradientUnits="userSpaceOnUse" xlink:href="#ButtonColor"/><linearGradient id="linearGradient3612" x1="8" x2="8" y1="15" y2="-1" gradientUnits="userSpaceOnUse" xlink:href="#linearGradient3327"/><linearGradient id="linearGradient3851" x1="11" x2="11" y1="15" y2="4.378" gradientTransform="translate(-3,-5)" gradientUnits="userSpaceOnUse" xlink:href="#linearGradient2908"/><linearGradient id="linearGradient2908"><stop id="stop2910" offset="0" stop-color="#1e1e1e" stop-opacity="1"/><stop id="stop2912" offset="1" stop-color="#1e1e1e" stop-opacity="0"/></linearGradient><linearGradient id="linearGradient3849" x1="-3.061" x2="-3.061" y1="27.258" y2="7.254" gradientTransform="translate(11.119372,-6.2581977)" gradientUnits="userSpaceOnUse" xlink:href="#ButtonColor-7"/><linearGradient id="ButtonColor-7" x1="10.32" x2="10.32" y1="21" y2=".999" gradientUnits="userSpaceOnUse"><stop id="stop3189-8" offset="0" stop-color="#dcdcdc" stop-opacity="1"/><stop id="stop3191-6" offset="1" stop-color="#f0f0f0" stop-opacity="1"/></linearGradient><linearGradient id="linearGradient3855" x1="-3.061" x2="-3.061" y1="27.258" y2="7.254" gradientTransform="translate(-18.880628,-12.258198)" gradientUnits="userSpaceOnUse" xlink:href="#ButtonColor-7"/><linearGradient id="linearGradient3639" x1="11" x2="11" y1="15" y2="4.378" gradientTransform="translate(-3,-5)" gradientUnits="userSpaceOnUse" xlink:href="#linearGradient2908"/><linearGradient id="linearGradient3644" x1="11" x2="11" y1="15" y2="4.378" gradientTransform="matrix(1,0,0,-1,-3,21.125)" gradientUnits="userSpaceOnUse" xlink:href="#linearGradient2908"/><linearGradient id="linearGradient3651" x1="11" x2="11" y1="15" y2="4.378" gradientTransform="matrix(1,0,0,-1,-3,21.125)" gradientUnits="userSpaceOnUse" xlink:href="#linearGradient2908"/><linearGradient id="linearGradient3654" x1="11" x2="11" y1="13.125" y2="7.125" gradientTransform="matrix(1,0,0,-1,-3,21.125)" gradientUnits="userSpaceOnUse" xlink:href="#linearGradient2908"/><linearGradient id="linearGradient3656" x1="11" x2="11" y1="15" y2="8" gradientTransform="translate(-3,-5)" gradientUnits="userSpaceOnUse" xlink:href="#linearGradient2908"/><linearGradient id="linearGradient4025" x1="10.351" x2="10.351" y1="2.58" y2="18.418" gradientTransform="matrix(0.73405777,0,0,0.75715713,7.925054,5.0466551)" gradientUnits="userSpaceOnUse" xlink:href="#linearGradient3290"/><linearGradient id="linearGradient3290"><stop id="stop3292" offset="0" stop-color="#a50000" stop-opacity="1"/><stop id="stop3294" offset="1" stop-color="#e73800" stop-opacity="1"/></linearGradient><linearGradient id="linearGradient4035" x1="10.351" x2="10.351" y1="2.58" y2="18.418" gradientTransform="matrix(0.73405777,0,0,0.75715713,7.925054,7.0466551)" gradientUnits="userSpaceOnUse" xlink:href="#linearGradient3203"/><linearGradient id="linearGradient3203"><stop id="stop3205" offset="0" stop-color="#ff4a00" stop-opacity="1"/><stop id="stop3211" offset=".272" stop-color="#ff7e00" stop-opacity="1"/><stop id="stop3213" offset=".624" stop-color="#ffd200" stop-opacity="1"/><stop id="stop3207" offset="1" stop-color="#fff3b9" stop-opacity="1"/></linearGradient><linearGradient id="linearGradient3883" x1="10.351" x2="10.351" y1="2.58" y2="18.418" gradientTransform="matrix(0.73405777,0,0,0.75715713,7.9250538,-0.9533449)" gradientUnits="userSpaceOnUse" xlink:href="#linearGradient3290"/><linearGradient id="linearGradient3699" x1="10.351" x2="10.351" y1="2.58" y2="18.418" gradientTransform="matrix(0.73405777,0,0,0.75715713,7.9250538,-0.9533449)" gradientUnits="userSpaceOnUse" xlink:href="#linearGradient3290"/><linearGradient id="linearGradient3701" x1="10.351" x2="10.351" y1="2.58" y2="18.418" gradientTransform="matrix(0.73405777,0,0,0.75715713,7.925054,7.0466551)" gradientUnits="userSpaceOnUse" xlink:href="#linearGradient3203"/><linearGradient id="linearGradient3715" x1="10.351" x2="10.351" y1="2.58" y2="18.418" gradientTransform="matrix(0.73405777,0,0,0.75715713,7.9250538,-0.9533449)" gradientUnits="userSpaceOnUse" xlink:href="#linearGradient3290"/><linearGradient id="linearGradient3717" x1="10.351" x2="10.351" y1="2.58" y2="18.418" gradientTransform="matrix(0.73405777,0,0,0.75715713,7.925054,7.0466551)" gradientUnits="userSpaceOnUse" xlink:href="#linearGradient3203"/><linearGradient id="linearGradient3721" x1="10.351" x2="10.351" y1="2.58" y2="18.418" gradientTransform="matrix(0.56707051,0,0,0.58491511,5.7705895,2.4910121)" gradientUnits="userSpaceOnUse" xlink:href="#linearGradient3290"/><linearGradient id="linearGradient3723" x1="10.351" x2="10.351" y1="2.58" y2="18.418" gradientTransform="matrix(0.73405777,0,0,0.75715713,7.925054,7.0466551)" gradientUnits="userSpaceOnUse" xlink:href="#linearGradient3203"/><radialGradient id="radialGradient4075" cx="15.942" cy="14.473" r="10" fx="15.942" fy="14.473" gradientTransform="matrix(1.3254292,-4.7273854e-8,4.4754296e-8,1.2547877,-5.187914,-3.9064552)" gradientUnits="userSpaceOnUse" xlink:href="#linearGradient4069"/><linearGradient id="linearGradient4069"><stop id="stop4071" offset="0" stop-color="#ff2400" stop-opacity="1"/><stop id="stop4073" offset="1" stop-color="#ff4700" stop-opacity="0"/></linearGradient><radialGradient id="radialGradient3902" cx="15.942" cy="14.473" r="10" fx="15.942" fy="14.473" gradientTransform="matrix(1.3254292,-4.7273854e-8,4.4754296e-8,1.2547877,-35.187914,-9.9064552)" gradientUnits="userSpaceOnUse" xlink:href="#linearGradient4069"/><radialGradient id="radialGradient3757" cx="-10.959" cy="11.931" r="7" fx="-10.959" fy="11.931" gradientTransform="matrix(1.4227803,3.8818413e-8,-3.9186555e-8,1.4362735,3.6334034,-6.2052205)" gradientUnits="userSpaceOnUse" xlink:href="#linearGradient4069"/><linearGradient id="linearGradient3759" x1="1" x2="15" y1="9" y2="9" gradientTransform="translate(-17,-2)" gradientUnits="userSpaceOnUse" xlink:href="#linearGradient2881-4"/><linearGradient id="linearGradient3763" x1="9.057" x2="9.057" y1="10.203" y2="-12.199" gradientTransform="translate(-19.499722,6.3006549)" gradientUnits="userSpaceOnUse" xlink:href="#linearGradient3327"/><linearGradient id="linearGradient3766" x1="9.057" x2="9.057" y1="10.203" y2="-12.199" gradientTransform="translate(-0.499722,5.300655)" gradientUnits="userSpaceOnUse" xlink:href="#linearGradient3327"/><linearGradient id="linearGradient3856" x1="45.79" x2="45.79" y1="78.067" y2="17.246" gradientTransform="matrix(0.24242424,0,0,0.24242462,19.27353,-8.1512533)" gradientUnits="userSpaceOnUse" xlink:href="#linearGradient3731"/><linearGradient id="linearGradient3731"><stop id="stop3733" offset="0" stop-color="#dcdcdc" stop-opacity="1"/><stop id="stop3757" offset=".307" stop-color="#ebebeb" stop-opacity="1"/><stop id="stop3737" offset=".707" stop-color="#fff" stop-opacity="1"/><stop id="stop3759" offset=".845" stop-color="#fafafa" stop-opacity="1"/><stop id="stop3735" offset="1" stop-color="#f0f0f0" stop-opacity="1"/></linearGradient><linearGradient id="linearGradient3181" x1="-3.061" x2="-3.061" y1="27.258" y2="7.254" gradientTransform="translate(11.119372,-6.2581977)" gradientUnits="userSpaceOnUse" xlink:href="#linearGradient3614-8"/><linearGradient id="linearGradient3614-8"><stop id="stop3616-4" offset="0" stop-color="#65a31b" stop-opacity="1"/><stop id="stop3618-3" offset="1" stop-color="#a0de42" stop-opacity="1"/></linearGradient><linearGradient id="linearGradient2943" x1="-3.061" x2="-3.061" y1="27.258" y2="7.254" gradientTransform="translate(31.029266,-14.288233)" gradientUnits="userSpaceOnUse" xlink:href="#linearGradient3614-8"/><linearGradient id="linearGradient3689" x1="45.79" x2="45.79" y1="78.067" y2="17.246" gradientTransform="matrix(0.18181818,0,0,0.18150383,-0.817379,-0.08605376)" gradientUnits="userSpaceOnUse" xlink:href="#linearGradient3731"/><linearGradient id="linearGradient3694" x1="45.79" x2="45.79" y1="78.067" y2="17.246" gradientTransform="matrix(0.18181818,0,0,0.18150383,-0.817379,-0.08605376)" gradientUnits="userSpaceOnUse" xlink:href="#linearGradient3731"/><linearGradient id="linearGradient3697" x1="45.79" x2="45.79" y1="78.067" y2="17.246" gradientTransform="matrix(0.18181818,0,0,0.16507064,-0.723629,0.19335447)" gradientUnits="userSpaceOnUse" xlink:href="#linearGradient3731"/><linearGradient id="linearGradient3713" x1="45.79" x2="45.79" y1="78.067" y2="17.246" gradientTransform="matrix(0.18181818,0,0,0.16507064,-0.723629,-0.29990642)" gradientUnits="userSpaceOnUse" xlink:href="#linearGradient3731"/><linearGradient id="linearGradient3725" x1="45.79" x2="45.79" y1="78.067" y2="17.246" gradientTransform="matrix(0.18181818,0,0,0.16507064,-0.723629,-19.806646)" gradientUnits="userSpaceOnUse" xlink:href="#linearGradient3731"/><linearGradient id="linearGradient3732" x1="45.79" x2="45.79" y1="78.067" y2="17.246" gradientTransform="matrix(0.18181818,0,0,0.16507064,-0.723629,0.19335447)" gradientUnits="userSpaceOnUse" xlink:href="#linearGradient3731"/><linearGradient id="linearGradient4871-9" x1="48" x2="48" y1="90" y2="5.988" gradientTransform="translate(-56.295053,-37.471731)" gradientUnits="userSpaceOnUse" xlink:href="#linearGradient2881-4"/><linearGradient id="linearGradient2881-4"><stop id="stop2883-1" offset="0" stop-color="#df880b" stop-opacity="1"/><stop id="stop2885-7" offset="1" stop-color="#f7c15a" stop-opacity="1"/></linearGradient><linearGradient id="linearGradient3781" x1="48" x2="48" y1="90" y2="5.988" gradientTransform="translate(-67.295053,-57.471731)" gradientUnits="userSpaceOnUse" xlink:href="#linearGradient2881-4"/></defs><metadata id="metadata7"/><g id="layer1"><rect id="rect3196" width="16" height="16" x="-16" y="0" fill="url(#linearGradient3759)" fill-opacity="1" fill-rule="nonzero" stroke="none" rx="2" ry="2" transform="matrix(0,-1,1,0,0,0)"/><path id="rect2410" fill="url(#linearGradient3766)" fill-opacity="1" fill-rule="nonzero" stroke="none" d="M 2,0 C 0.892,0 0,0.892 0,2 l 0,12 c 0,1.108 0.892,2 2,2 l 12,0 c 1.108,0 2,-0.892 2,-2 L 16,2 C 16,0.892 15.108,0 14,0 L 2,0 z m 0.5,1 11,0 C 14.331,1 15,1.669 15,2.5 l 0,11 c 0,0.831 -0.669,1.5 -1.5,1.5 l -11,0 C 1.669,15 1,14.331 1,13.5 L 1,2.5 C 1,1.669 1.669,1 2.5,1 z" opacity=".35"/><rect id="rect3768" width="14" height="14" x="-19" y="1" fill="#000" fill-opacity="1" stroke="none" opacity=".2" rx="1.5" ry="1.5"/><path id="rect3770" fill="#fff" fill-opacity="1" stroke="none" d="M 2.5,1 C 1.669,1 1,1.669 1,2.5 l 0,1 C 1,2.669 1.669,2 2.5,2 l 11,0 C 14.331,2 15,2.669 15,3.5 l 0,-1 C 15,1.669 14.331,1 13.5,1 l -11,0 z" opacity=".3"/><path id="path3707" fill="#000" fill-opacity="1" stroke="none" d="M 8 3.5 C 4.6862915 3.5 2 5.4760183 2 7.9375 C 2 9.3175016 2.8593416 10.555556 4.1875 11.375 C 4.3701323 12.947336 3.03125 13.46875 3.03125 13.46875 C 4.7808702 13.641383 5.945655 12.865797 6.5625 12.28125 C 7.0213192 12.36469 7.5065577 12.4375 8 12.4375 C 11.313708 12.4375 14 10.398982 14 7.9375 C 14 5.4760183 11.313709 3.5 8 3.5 z M 7 5.5 L 9 5.5 L 9 6.5 L 7 6.5 L 7 5.5 z M 7 7.5 L 9 7.5 L 9 10.5 L 7 10.5 L 7 7.5 z" display="inline" opacity=".4"/><path id="path3687" fill="url(#linearGradient3732)" fill-opacity="1" stroke="none" d="M 8 3 C 4.6862915 3 2 4.9760183 2 7.4375 C 2 8.8175016 2.8593416 10.055556 4.1875 10.875 C 4.3701323 12.447336 3.03125 12.96875 3.03125 12.96875 C 4.7808702 13.141383 5.945655 12.365797 6.5625 11.78125 C 7.0213192 11.86469 7.5065577 11.9375 8 11.9375 C 11.313708 11.9375 14 9.8989823 14 7.4375 C 14 4.9760183 11.313709 3 8 3 z" display="inline"/><path id="path3721" fill="#000" fill-opacity="1" stroke="none" d="m 8,-16.493261 c -3.3137085,0 -6,1.976018 -6,4.4375 0,1.380002 0.8593416,2.618056 2.1875,3.4375 0.1826323,1.572336 -1.15625,2.09375 -1.15625,2.09375 1.7496202,0.172633 2.914405,-0.602953 3.53125,-1.1875 0.4588192,0.08344 0.9440577,0.15625 1.4375,0.15625 3.313708,0 6,-2.038518 6,-4.5 0,-2.461482 -2.686291,-4.4375 -6,-4.4375 z" display="inline" opacity=".4"/><path id="path3723" fill="url(#linearGradient3725)" fill-opacity="1" stroke="none" d="m 8,-17 c -3.3137085,0 -6,1.976018 -6,4.4375 0,1.380002 0.8593416,2.618056 2.1875,3.4375 0.1826323,1.572336 -1.15625,2.09375 -1.15625,2.09375 1.7496202,0.172633 2.914405,-0.602953 3.53125,-1.1875 0.4588192,0.08344 0.9440577,0.15625 1.4375,0.15625 3.313708,0 6,-2.038518 6,-4.5 C 14,-15.023982 11.313709,-17 8,-17 z" display="inline"/><path id="rect3695" fill="#d78f17" fill-opacity="1" stroke="none" d="M 6.96875 4.90625 L 6.96875 8 L 9 8 L 9 4.90625 L 6.96875 4.90625 z M 6.96875 9 L 6.96875 10 L 9 10 L 9 9 L 6.96875 9 z"/></g></svg>