<svg xmlns="http://www.w3.org/2000/svg" xmlns:svg="http://www.w3.org/2000/svg" xmlns:xlink="http://www.w3.org/1999/xlink" id="svg2" width="22" height="22" display="inline" version="1.0"><defs id="defs4"><linearGradient id="linearGradient3732"><stop id="stop3734" offset="0" stop-color="#cbf44b" stop-opacity="1"/><stop id="stop3737" offset="1" stop-color="#cbf44b" stop-opacity="0"/></linearGradient><linearGradient id="linearGradient3724"><stop id="stop3726" offset="0" stop-color="#ffc000" stop-opacity="1"/><stop id="stop3728" offset="1" stop-color="#ffc000" stop-opacity="0"/></linearGradient><linearGradient id="linearGradient3828"><stop id="stop3830" offset="0" stop-color="#fff" stop-opacity="1"/><stop id="stop3832" offset="1" stop-color="#fff" stop-opacity="0"/></linearGradient><linearGradient id="linearGradient3767"><stop id="stop3769" offset="0" stop-color="#9bb2ce" stop-opacity="1"/><stop id="stop3771" offset="1" stop-color="#46709f" stop-opacity="0"/></linearGradient><linearGradient id="linearGradient3327"><stop id="stop3330" offset="0" stop-color="#000" stop-opacity="1"/><stop id="stop3333" offset="1" stop-color="#000" stop-opacity="0"/></linearGradient><linearGradient id="linearGradient3335" x1="11.375" x2="11.375" y1="22" y2="-9.817" gradientUnits="userSpaceOnUse" xlink:href="#linearGradient3327"/><linearGradient id="linearGradient3181" x1="-3.061" x2="-3.061" y1="27.258" y2="7.254" gradientTransform="translate(11.119372,-6.2581977)" gradientUnits="userSpaceOnUse" xlink:href="#ButtonColor-5"/><linearGradient id="ButtonShadow" x1="9.355" x2="9.355" y1="21.743" y2=".494" gradientTransform="scale(0.9883037,1.0118347)" gradientUnits="userSpaceOnUse"><stop id="stop3277" offset="0" stop-color="#000" stop-opacity=".706"/><stop id="stop3279" offset="1" stop-color="#000" stop-opacity=".157"/></linearGradient><linearGradient id="linearGradient3232"><stop id="stop3234" offset="0" stop-color="#000" stop-opacity="1"/><stop id="stop3236" offset="1" stop-color="#000" stop-opacity="0"/></linearGradient><linearGradient id="linearGradient3221" x1="11" x2="11" y1="14.806" y2="-6" gradientUnits="userSpaceOnUse" xlink:href="#linearGradient3232"/><linearGradient id="ButtonColor" x1="10.32" x2="10.32" y1="21" y2=".999" gradientUnits="userSpaceOnUse"><stop id="stop3189" offset="0" stop-color="#29669f" stop-opacity="1"/><stop id="stop3191" offset="1" stop-color="#88b6e0" stop-opacity="1"/></linearGradient><linearGradient id="linearGradient38042" x1="9.355" x2="9.355" y1="21.743" y2=".494" gradientTransform="scale(0.9883037,1.0118347)" gradientUnits="userSpaceOnUse" xlink:href="#ButtonShadow"/><filter id="filter3194" width="1.36" height="1.36" x="-.18" y="-.18" color-interpolation-filters="sRGB"><feGaussianBlur id="feGaussianBlur3196" stdDeviation="1.2"/></filter><clipPath id="clipPath2849" clipPathUnits="userSpaceOnUse"><rect id="rect2851" width="20" height="20" x="1" y="1" fill="#fff" fill-opacity="1" fill-rule="evenodd" stroke="none" display="inline" rx="2" ry="2"/></clipPath><linearGradient id="linearGradient3617" x1="48" x2="48" y1="90" y2="5.988" gradientUnits="userSpaceOnUse" xlink:href="#ButtonColor-5"/><linearGradient id="ButtonColor-5" x1="58.65" x2="58.65" y1="122" y2="5.425" gradientTransform="matrix(1.0172414,0,0,1.0172414,-1.1034483,-1.1034483)" gradientUnits="userSpaceOnUse"><stop id="stop3189-4" offset="0" stop-color="#30475c" stop-opacity="1"/><stop id="stop3191-8" offset="1" stop-color="#6588af" stop-opacity="1"/></linearGradient><linearGradient id="linearGradient3848" x1="48" x2="48" y1="90" y2="5.988" gradientTransform="translate(-85,-35)" gradientUnits="userSpaceOnUse" xlink:href="#ButtonColor-5"/><linearGradient id="linearGradient3740" x1="50.714" x2="50.714" y1="32.607" y2="63.438" gradientUnits="userSpaceOnUse" xlink:href="#linearGradient3734"/><linearGradient id="linearGradient3734"><stop id="stop3736" offset="0" stop-color="#cbf44b" stop-opacity="1"/><stop id="stop3738" offset="1" stop-color="#cbf44b" stop-opacity="0"/></linearGradient><clipPath id="clipPath3730" clipPathUnits="userSpaceOnUse"><path id="path3732" fill="#fff" stroke="none" d="M 13.571429,58.321429 31.785714,46.892857 41.25,45.642857 50.535714,30.107143 54.821429,36 68.035714,21.357143 84.642857,39.75 l -0.178572,72.5 -71.428571,-5.89286 0.535715,-48.035711 z"/></clipPath><linearGradient id="linearGradient3799" x1="44.821" x2="44.821" y1="54.036" y2="76.918" gradientUnits="userSpaceOnUse" xlink:href="#linearGradient3793"/><linearGradient id="linearGradient3793"><stop id="stop3795" offset="0" stop-color="#ffb100" stop-opacity="1"/><stop id="stop3797" offset="1" stop-color="#ffb100" stop-opacity="0"/></linearGradient><clipPath id="clipPath3789" clipPathUnits="userSpaceOnUse"><path id="path3791" fill="#fff" stroke="none" d="m 16.428571,67.428571 14.107143,-9.821428 7.321429,4.464286 6.071428,-10.535715 9.107143,17.321429 L 63.75,61.535714 70,67.071429 l 12.857143,-3.392858 5,41.071429 -73.214286,-3.03571 1.785714,-34.285719 z"/></clipPath><linearGradient id="linearGradient3882" x1="44.821" x2="44.821" y1="54.036" y2="76.918" gradientUnits="userSpaceOnUse" xlink:href="#linearGradient3793"/><linearGradient id="linearGradient3763" x1="8.53" x2="8.53" y1="18.155" y2="3.932" gradientTransform="matrix(1,0,0,0.92857143,0,1.2857143)" gradientUnits="userSpaceOnUse" xlink:href="#linearGradient3767"/><linearGradient id="linearGradient3765" x1="8.53" x2="8.53" y1="18.155" y2="3.932" gradientTransform="matrix(1,0,0,0.92857143,4,1.2857143)" gradientUnits="userSpaceOnUse" xlink:href="#linearGradient3767"/><linearGradient id="linearGradient3799-2" x1="44.821" x2="44.821" y1="54.036" y2="76.918" gradientUnits="userSpaceOnUse" xlink:href="#linearGradient3793-7"/><linearGradient id="linearGradient3793-7"><stop id="stop3795-0" offset="0" stop-color="#ffb100" stop-opacity="1"/><stop id="stop3797-4" offset="1" stop-color="#ffb100" stop-opacity="0"/></linearGradient><filter id="filter3801-8" width="1.434" height="1.537" x="-.217" y="-.268" color-interpolation-filters="sRGB"><feGaussianBlur id="feGaussianBlur3803-0" stdDeviation="4.313"/></filter><linearGradient id="linearGradient3740-0" x1="50.714" x2="59.526" y1="32.607" y2="65.416" gradientUnits="userSpaceOnUse" xlink:href="#linearGradient3734-7"/><linearGradient id="linearGradient3734-7"><stop id="stop3736-0" offset="0" stop-color="#cbf44b" stop-opacity="1"/><stop id="stop3738-1" offset="1" stop-color="#cbf44b" stop-opacity="0"/></linearGradient><linearGradient id="linearGradient3914" x1="44.821" x2="45.001" y1="54.036" y2="84.291" gradientUnits="userSpaceOnUse" xlink:href="#linearGradient3793-7"/><clipPath id="clipPath3819" clipPathUnits="userSpaceOnUse"><path id="path3821" fill="#fff" stroke="none" d="m 19.485669,69.406691 11.050045,-11.799545 8.400405,7.70121 6.071429,-15.031444 10.365944,21.996989 13.231898,-6.781942 4.991198,3.737422 12.677313,3.260826 L 87.85714,104.75 14.642857,101.71429 19.485669,69.406691 z"/></clipPath><linearGradient id="linearGradient3834" x1="12" x2="13" y1="11.5" y2="11.5" gradientUnits="userSpaceOnUse" xlink:href="#linearGradient3828"/><linearGradient id="linearGradient3836" x1="8.531" x2="8.531" y1="17.903" y2="5.003" gradientTransform="matrix(1,0,0,1.1538462,0,-2.7692308)" gradientUnits="userSpaceOnUse" xlink:href="#linearGradient3828"/><linearGradient id="linearGradient3840" x1="8.531" x2="8.531" y1="17.903" y2="5.003" gradientTransform="matrix(1,0,0,1.1538462,5,-2.7692308)" gradientUnits="userSpaceOnUse" xlink:href="#linearGradient3828"/><filter id="filter3861" color-interpolation-filters="sRGB"><feGaussianBlur id="feGaussianBlur3863" stdDeviation=".4"/></filter><linearGradient id="linearGradient3879" x1="44.821" x2="45.181" y1="54.036" y2="87.348" gradientUnits="userSpaceOnUse" xlink:href="#linearGradient3793-7"/><clipPath id="clipPath3883" clipPathUnits="userSpaceOnUse"><path id="path3885" fill="#fff" stroke="none" d="m 15.709253,65.090789 17.5239,6.363215 L 45.007546,50.276912 55.373489,72.273901 68.605387,65.491959 87.712532,76.266621 87.857109,104.75 14.642828,101.71429 15.709224,65.090789 z"/></clipPath><clipPath id="clipPath3888" clipPathUnits="userSpaceOnUse"><path id="path3890" fill="#fff" stroke="none" d="m 15.369722,46.093037 11.314104,10.159751 23.492223,-22.1894 5.724354,5.353369 12.135308,-17.879784 16.24749,17.49371 0.181081,73.219317 -71.428568,-5.89286 2.334008,-60.264103 z"/></clipPath><filter id="filter3892" width="1.4" height="1.327" x="-.2" y="-.164" color-interpolation-filters="sRGB"><feGaussianBlur id="feGaussianBlur3894" stdDeviation="3.737"/></filter><linearGradient id="linearGradient3730" x1="15.457" x2="19.727" y1="12.691" y2="12.691" gradientUnits="userSpaceOnUse" xlink:href="#linearGradient3724"/><linearGradient id="linearGradient3739" x1="15.514" x2="19.86" y1="7.583" y2="7.583" gradientUnits="userSpaceOnUse" xlink:href="#linearGradient3732"/><linearGradient id="linearGradient3845" x1="11" x2="21" y1="19.5" y2="19.5" gradientUnits="userSpaceOnUse" spreadMethod="reflect" xlink:href="#linearGradient3831"/><linearGradient id="linearGradient3831"><stop id="stop3833" offset="0" stop-color="#fff" stop-opacity="1"/><stop id="stop3835" offset="1" stop-color="#fff" stop-opacity="0"/></linearGradient><linearGradient id="linearGradient3837" x1="10" x2="10" y1="1" y2="16" gradientUnits="userSpaceOnUse" xlink:href="#linearGradient3831"/><linearGradient id="linearGradient3884" x1="10" x2="10" y1="1" y2="16" gradientUnits="userSpaceOnUse" xlink:href="#linearGradient3831"/><linearGradient id="linearGradient3084" x1="10" x2="10" y1="1" y2="16" gradientUnits="userSpaceOnUse" xlink:href="#linearGradient3823"/><linearGradient id="linearGradient3823"><stop id="stop3825" offset="0" stop-color="#fff" stop-opacity="1"/><stop id="stop3829" offset="1" stop-color="#fff" stop-opacity="0"/></linearGradient><linearGradient id="linearGradient3845-3" x1="11" x2="21" y1="19.5" y2="19.5" gradientUnits="userSpaceOnUse" spreadMethod="reflect" xlink:href="#linearGradient3831-6"/><linearGradient id="linearGradient3831-6"><stop id="stop3833-5" offset="0" stop-color="#fff" stop-opacity="1"/><stop id="stop3821" offset=".75" stop-color="#fff" stop-opacity=".498"/><stop id="stop3835-9" offset="1" stop-color="#fff" stop-opacity="0"/></linearGradient><linearGradient id="linearGradient3852" x1="10" x2="10" y1="1" y2="16" gradientUnits="userSpaceOnUse" xlink:href="#linearGradient3823"/></defs><metadata id="metadata7"/><g id="layer1"><g id="g3337" display="inline"><rect id="rect3371" width="21" height="21.5" x=".5" y=".5" fill="url(#linearGradient3335)" fill-opacity="1" stroke="none" display="inline" opacity=".3" rx="2.5" ry="2.5"/><rect id="rect2553" width="20" height="20" x="1" y="2" fill="#000" fill-opacity="1" stroke="none" display="inline" opacity=".5" rx="2.381" ry="2.326"/></g><rect id="rect3173" width="20" height="20" x="1" y="1" fill="url(#linearGradient3181)" fill-opacity="1" fill-rule="evenodd" stroke="none" display="inline" rx="2" ry="2"/><path id="rect3050" fill="url(#linearGradient3852)" fill-opacity="1" fill-rule="evenodd" stroke="none" d="M 3,1 C 1.892,1 1,1.892 1,3 l 0,16 c 0,1.108 0.892,2 2,2 l 16,0 c 1.108,0 2,-0.892 2,-2 L 21,3 C 21,1.892 20.108,1 19,1 L 3,1 z m 0,1.03125 16,0 c 0.5497,0 0.96875,0.4190495 0.96875,0.96875 l 0,16 c 0,0.5497 -0.41905,0.96875 -0.96875,0.96875 l -16,0 C 2.4502995,19.96875 2.03125,19.5497 2.03125,19 l 0,-16 C 2.03125,2.4502995 2.4502995,2.03125 3,2.03125 z" display="inline" opacity=".3"/><path id="path3235" fill="url(#linearGradient3845-3)" fill-opacity="1" fill-rule="evenodd" stroke="none" d="M 3,21 C 1.892,21 1,20.108 1,19 l 0,-1 c 0,1.108 0.892,2 2,2 l 16,0 c 1.108,0 2,-0.892 2,-2 l 0,1 c 0,1.108 -0.892,2 -2,2 L 3,21 z" display="inline" opacity=".15"/></g><g id="layer4"><path id="rect3842" fill="#000" fill-opacity="1" stroke="none" d="M 4.5,3.5 4,4.5 3.75,5 3,6.5 l 1,0 0,11 0,1 1,0 11,0 0,1 1.5,-0.75 L 19,18 17.5,17.25 16,16.5 l 0,1 -11,0 0,-11 1,0 L 5.25,5 5,4.5 4.5,3.5 z" display="inline" filter="url(#filter3861)" opacity=".6"/><rect id="rect3838" width="1" height="15" x="13" y="3" fill="url(#linearGradient3840)" fill-opacity="1" stroke="none" display="inline" opacity=".2"/><rect id="rect3648" width="1" height="15" x="8" y="3" fill="url(#linearGradient3836)" fill-opacity="1" stroke="none" display="inline" opacity=".2"/><rect id="rect3638" width="1" height="14" x="4" y="4" fill="#c8d5e5" fill-opacity="1" stroke="none" display="inline"/><rect id="rect3640" width="1" height="14" x="17" y="-18" fill="#c8d5e5" fill-opacity="1" stroke="none" display="inline" transform="matrix(0,1,-1,0,0,0)"/><path id="path3644" fill="#c8d5e5" fill-opacity="1" stroke="none" d="m 5.0119253,3.6975843 -1.6550348,0 -1.6550349,0 L 2.529373,2.2642821 3.3568904,0.83097982 4.1844079,2.264282 5.0119253,3.6975843 z" display="inline" transform="matrix(0.90632533,0,0,1.0465343,1.4575652,2.1303512)"/><path id="path3646" fill="#c8d5e5" fill-opacity="1" stroke="none" d="m 5.0119253,3.6975843 -1.6550348,0 -1.6550349,0 L 2.529373,2.2642821 3.3568904,0.83097982 4.1844079,2.264282 5.0119253,3.6975843 z" display="inline" transform="matrix(0,0.90632533,-1.0465343,0,19.869649,14.457565)"/><path id="rect3714" fill="#fff" fill-opacity="1" stroke="none" d="M 3,8 3,9 4,9 4,8 3,8 z m 0,3 0,1 1,0 0,-1 -1,0 z m 0,3 0,1 1,0 0,-1 -1,0 z m 0,3 0,1 1,0 0,-1 -1,0 z" opacity=".2"/></g><g id="layer2" display="inline"><rect id="rect2410" width="16" height="16" x="3" y="3" fill="#fff" fill-opacity="1" fill-rule="nonzero" stroke="none" clip-path="url(#clipPath2849)" display="inline" filter="url(#filter3194)" opacity=".1" rx="2" ry="2"/></g><g id="layer3"><path id="path3251" fill="none" stroke="#cbf44b" stroke-dasharray="none" stroke-dashoffset="0" stroke-linecap="round" stroke-linejoin="miter" stroke-miterlimit="4" stroke-opacity="1" stroke-width="1" d="m 36.671361,5.5251046 -1.465113,-1.510765 -2.458421,2.760741 -0.80799,-1.059761 -1.681771,2.820572 -1.741719,0.228915 -1.872787,1.1442354" display="inline"/><path id="path3231" fill="none" stroke="#ffb100" stroke-dasharray="none" stroke-dashoffset="0" stroke-linecap="round" stroke-linejoin="miter" stroke-miterlimit="4" stroke-opacity="1" stroke-width="1" d="m 36.671379,13.832547 -1.10269,0.292363 -1.201702,-1.055509 -2.022598,1.387614 -1.618291,-3.220312 -1.214411,1.948252 -1.39964,-0.805766 -1.468505,1.071999" display="inline"/><rect id="rect3762" width="47.679" height="38.571" x="25.536" y="40.464" fill="url(#linearGradient3914)" fill-opacity="1" stroke="none" clip-path="url(#clipPath3819)" filter="url(#filter3801-8)" mask="none" opacity=".3" transform="matrix(0.17367932,0,0,0.17367932,22.725933,2.0162851)"/><rect id="rect3720" width="54.352" height="64.173" x="20.674" y="14.917" fill="url(#linearGradient3740-0)" fill-opacity="1" stroke="none" clip-path="url(#clipPath3888)" filter="url(#filter3892)" opacity=".4" ry="0" transform="matrix(0.17367932,0,0,0.17367932,2.882096,0.714431)"/><rect id="rect3877" width="50.915" height="40.19" x="25.536" y="40.464" fill="url(#linearGradient3879)" fill-opacity="1" stroke="none" clip-path="url(#clipPath3883)" filter="url(#filter3801-8)" mask="none" opacity=".4" transform="matrix(0.17367932,0,0,0.17367932,2.725933,2.0162851)"/><path id="path3740" fill="none" stroke="url(#linearGradient3739)" stroke-dasharray="none" stroke-dashoffset="0" stroke-linecap="round" stroke-linejoin="miter" stroke-miterlimit="4" stroke-opacity="1" stroke-width=".85" d="m 6.3107184,9.4442476 1.3806432,1.1045144 3.7701874,-3.877612 1.06543,0.9401892 2.133157,-2.9945261 2.58543,3.100871 2.409911,-0.5586735" display="inline"/><path id="path3761" fill="none" stroke="url(#linearGradient3730)" stroke-dasharray="none" stroke-dashoffset="0" stroke-linecap="round" stroke-linejoin="miter" stroke-miterlimit="4" stroke-opacity="1" stroke-width=".85" d="m 6.3495113,13.427534 2.1556229,1.058097 2.0755188,-3.755309 1.763736,3.726693 2.155107,-1.078427 2.09648,1.272666 3.103671,-3.207791" display="inline"/></g></svg>