<svg xmlns="http://www.w3.org/2000/svg" xmlns:svg="http://www.w3.org/2000/svg" xmlns:xlink="http://www.w3.org/1999/xlink" id="svg2" width="22" height="22" display="inline" version="1.0"><defs id="defs4"><linearGradient id="linearGradient3327"><stop id="stop3330" offset="0" stop-color="#000" stop-opacity="1"/><stop id="stop3333" offset="1" stop-color="#000" stop-opacity="0"/></linearGradient><linearGradient id="linearGradient3215"><stop id="stop3217" offset="0" stop-color="#000" stop-opacity=".706"/><stop id="stop3729" offset="1" stop-color="#000" stop-opacity=".157"/></linearGradient><linearGradient id="linearGradient3221" x1="11" x2="11" y1="22" y2=".5" gradientTransform="translate(9.2675781e-7,-1.3857422e-6)" gradientUnits="userSpaceOnUse" xlink:href="#linearGradient3215"/><linearGradient id="linearGradient2442" x1="47.667" x2="47.667" y1="121.972" y2="5.949" gradientTransform="matrix(0.1678362,0,0,0.1678362,0.2447369,0.2447366)" gradientUnits="userSpaceOnUse" xlink:href="#linearGradient3187"/><linearGradient id="linearGradient6043"><stop id="stop6045" offset="0" stop-color="#5d5d56" stop-opacity="1"/><stop id="stop6047" offset="1" stop-color="#bcbcb7" stop-opacity="1"/></linearGradient><linearGradient id="linearGradient6035"><stop id="stop6037" offset="0" stop-color="#91918a" stop-opacity="1"/><stop id="stop6039" offset="1" stop-color="#7c7c74" stop-opacity="1"/></linearGradient><linearGradient id="linearGradient5976"><stop id="stop5978" offset="0" stop-color="#fff" stop-opacity="1"/><stop id="stop5980" offset="1" stop-color="#fff" stop-opacity="0"/></linearGradient><linearGradient id="linearGradient5964"><stop id="stop5966" offset="0" stop-color="#706f6b" stop-opacity="1"/><stop id="stop5968" offset="1" stop-color="#51504e" stop-opacity="1"/></linearGradient><linearGradient id="linearGradient5724"><stop id="stop5726" offset="0" stop-color="#9f9d7c" stop-opacity="1"/><stop id="stop5728" offset="1" stop-color="#fff" stop-opacity="1"/></linearGradient><linearGradient id="linearGradient3187"><stop id="stop3189" offset="0" stop-color="#b9b79e" stop-opacity="1"/><stop id="stop3191" offset="1" stop-color="#e4e4da" stop-opacity="1"/></linearGradient><linearGradient id="linearGradient3750" x1="38.69" x2="38.69" y1="36.89" y2="43.26" gradientUnits="userSpaceOnUse" xlink:href="#linearGradient6043"/><linearGradient id="linearGradient3752" x1="38.69" x2="38.69" y1="36.89" y2="43.26" gradientUnits="userSpaceOnUse" xlink:href="#linearGradient6043"/><linearGradient id="linearGradient3754" x1="38.69" x2="38.69" y1="36.89" y2="43.26" gradientUnits="userSpaceOnUse" xlink:href="#linearGradient6043"/><linearGradient id="linearGradient3756" x1="38.69" x2="38.69" y1="36.89" y2="43.26" gradientUnits="userSpaceOnUse" xlink:href="#linearGradient6043"/><radialGradient id="radialGradient3763" cx="40" cy="40" r="18" fx="40" fy="40" gradientTransform="matrix(0,-0.1736109,0.1736109,0,-0.4513852,13.451386)" gradientUnits="userSpaceOnUse" xlink:href="#linearGradient6035"/><linearGradient id="linearGradient3765" x1="40" x2="40" y1="58" y2="22" gradientTransform="matrix(0.1736109,0,0,0.1736109,-0.4513852,-0.4374865)" gradientUnits="userSpaceOnUse" xlink:href="#linearGradient6043"/><linearGradient id="linearGradient3774" x1="15.75" x2="64.464" y1="40" y2="40" gradientUnits="userSpaceOnUse" xlink:href="#linearGradient5724"/><linearGradient id="linearGradient3640" x1="78" x2="78" y1="104" y2="112.004" gradientUnits="userSpaceOnUse" xlink:href="#linearGradient5964"/><linearGradient id="linearGradient3642" x1="79.067" x2="79.067" y1="104.353" y2="107.938" gradientUnits="userSpaceOnUse" xlink:href="#linearGradient5976"/><linearGradient id="linearGradient3654" x1="78" x2="78" y1="104" y2="112.004" gradientUnits="userSpaceOnUse" xlink:href="#linearGradient5964"/><linearGradient id="linearGradient3656" x1="79.067" x2="79.067" y1="104.353" y2="107.938" gradientUnits="userSpaceOnUse" xlink:href="#linearGradient5976"/><linearGradient id="linearGradient3259" x1="3.931" x2="3.931" y1="30.251" y2="10.194" gradientTransform="translate(4.4452298,-9.2508831)" gradientUnits="userSpaceOnUse" xlink:href="#linearGradient3187"/><linearGradient id="linearGradient7804" x1="11.375" x2="11.375" y1="22" y2="-9.817" gradientUnits="userSpaceOnUse" xlink:href="#linearGradient3327"/><clipPath id="clipPath2849" clipPathUnits="userSpaceOnUse"><rect id="rect2851" width="20" height="20" x="1" y="1" fill="#fff" fill-opacity="1" fill-rule="evenodd" stroke="none" display="inline" rx="2" ry="2"/></clipPath><filter id="filter3194" width="1.36" height="1.36" x="-.18" y="-.18" color-interpolation-filters="sRGB"><feGaussianBlur id="feGaussianBlur3196" stdDeviation="1.2"/></filter><linearGradient id="linearGradient3845" x1="11" x2="21" y1="19.5" y2="19.5" gradientUnits="userSpaceOnUse" spreadMethod="reflect" xlink:href="#linearGradient3831"/><linearGradient id="linearGradient3831"><stop id="stop3833" offset="0" stop-color="#fff" stop-opacity="1"/><stop id="stop3835" offset="1" stop-color="#fff" stop-opacity="0"/></linearGradient><linearGradient id="linearGradient3837" x1="10" x2="10" y1="1" y2="16" gradientUnits="userSpaceOnUse" xlink:href="#linearGradient3831"/><linearGradient id="linearGradient3084" x1="10" x2="10" y1="1" y2="16" gradientUnits="userSpaceOnUse" xlink:href="#linearGradient3831"/><linearGradient id="linearGradient3084-2" x1="10" x2="10" y1="1" y2="16" gradientUnits="userSpaceOnUse" xlink:href="#linearGradient3823"/><linearGradient id="linearGradient3823"><stop id="stop3825" offset="0" stop-color="#fff" stop-opacity="1"/><stop id="stop3829" offset="1" stop-color="#fff" stop-opacity="0"/></linearGradient><linearGradient id="linearGradient3845-8" x1="11" x2="21" y1="19.5" y2="19.5" gradientUnits="userSpaceOnUse" spreadMethod="reflect" xlink:href="#linearGradient3831-5"/><linearGradient id="linearGradient3831-5"><stop id="stop3833-8" offset="0" stop-color="#fff" stop-opacity="1"/><stop id="stop3821" offset=".75" stop-color="#fff" stop-opacity=".498"/><stop id="stop3835-0" offset="1" stop-color="#fff" stop-opacity="0"/></linearGradient><linearGradient id="linearGradient3852" x1="10" x2="10" y1="1" y2="16" gradientUnits="userSpaceOnUse" xlink:href="#linearGradient3823"/></defs><metadata id="metadata7"/><g id="layer1" display="inline"><g id="g8824"><rect id="rect3371" width="21" height="21.5" x=".5" y=".5" fill="url(#linearGradient7804)" fill-opacity="1" stroke="none" display="inline" opacity=".3" rx="2.5" ry="2.5"/><rect id="rect2553" width="20" height="20" x="1" y="2" fill="#000" fill-opacity="1" stroke="none" display="inline" opacity=".5" rx="2.381" ry="2.326"/></g><rect id="rect3251" width="20" height="20" x="1" y="1" fill="url(#linearGradient3259)" fill-opacity="1" fill-rule="evenodd" stroke="none" rx="2" ry="2"/><path id="rect3050" fill="url(#linearGradient3852)" fill-opacity="1" fill-rule="evenodd" stroke="none" d="M 3,1 C 1.892,1 1,1.892 1,3 l 0,16 c 0,1.108 0.892,2 2,2 l 16,0 c 1.108,0 2,-0.892 2,-2 L 21,3 C 21,1.892 20.108,1 19,1 L 3,1 z m 0,1.03125 16,0 c 0.5497,0 0.96875,0.4190495 0.96875,0.96875 l 0,16 c 0,0.5497 -0.41905,0.96875 -0.96875,0.96875 l -16,0 C 2.4502995,19.96875 2.03125,19.5497 2.03125,19 l 0,-16 C 2.03125,2.4502995 2.4502995,2.03125 3,2.03125 z" display="inline" opacity=".5"/><path id="path3235" fill="url(#linearGradient3845-8)" fill-opacity="1" fill-rule="evenodd" stroke="none" d="M 3,21 C 1.892,21 1,20.108 1,19 l 0,-1 c 0,1.108 0.892,2 2,2 l 16,0 c 1.108,0 2,-0.892 2,-2 l 0,1 c 0,1.108 -0.892,2 -2,2 L 3,21 z" display="inline" opacity=".3"/></g><g id="layer3"><rect id="rect2410" width="16" height="16" x="3" y="3" fill="#fff" fill-opacity="1" fill-rule="nonzero" stroke="none" clip-path="url(#clipPath2849)" display="inline" filter="url(#filter3194)" opacity=".15" rx="2" ry="2"/></g><g id="layer2" display="inline"><path id="path5825" fill="#848260" fill-opacity="1" fill-rule="evenodd" stroke="none" stroke-dasharray="none" stroke-dashoffset="0" stroke-linecap="butt" stroke-linejoin="round" stroke-miterlimit="4" stroke-opacity="1" stroke-width="2.043" d="M 96.196504,32.053356 A 8.0982523,8.2454147 0 1 1 79.999999,32.053356 A 8.0982523,8.2454147 0 1 1 96.196504,32.053356 z" transform="matrix(0.2385029,-6.3906647e-2,6.276603e-2,0.2342461,-16.019952,13.117925)"/><path id="path5829" fill="#0058e9" fill-opacity="1" fill-rule="evenodd" stroke="none" stroke-dasharray="none" stroke-dashoffset="0" stroke-linecap="butt" stroke-linejoin="round" stroke-miterlimit="4" stroke-opacity="1" stroke-width="2.855" d="M 96.196504,32.053356 A 8.0982523,8.2454147 0 1 1 79.999999,32.053356 A 8.0982523,8.2454147 0 1 1 96.196504,32.053356 z" transform="matrix(0.1788771,-4.7929984e-2,4.707454e-2,0.1756847,-10.264059,13.587498)"/><path id="path5805" fill="#848260" fill-opacity="1" fill-rule="evenodd" stroke="none" stroke-dasharray="none" stroke-dashoffset="0" stroke-linecap="butt" stroke-linejoin="round" stroke-miterlimit="4" stroke-opacity="1" stroke-width="2.043" d="M 96.196504,32.053356 A 8.0982523,8.2454147 0 1 1 79.999999,32.053356 A 8.0982523,8.2454147 0 1 1 96.196504,32.053356 z" transform="matrix(0.2385029,-6.390666e-2,6.2766043e-2,0.2342461,-11.033942,11.158221)"/><path id="path5809" fill="#e51c01" fill-opacity="1" fill-rule="evenodd" stroke="none" stroke-dasharray="none" stroke-dashoffset="0" stroke-linecap="butt" stroke-linejoin="round" stroke-miterlimit="4" stroke-opacity="1" stroke-width="2.855" d="M 96.196504,32.053356 A 8.0982523,8.2454147 0 1 1 79.999999,32.053356 A 8.0982523,8.2454147 0 1 1 96.196504,32.053356 z" transform="matrix(0.1788771,-4.7929966e-2,4.7074524e-2,0.1756846,-5.2780476,11.627795)"/><path id="path5785" fill="#848260" fill-opacity="1" fill-rule="evenodd" stroke="none" stroke-dasharray="none" stroke-dashoffset="0" stroke-linecap="butt" stroke-linejoin="round" stroke-miterlimit="4" stroke-opacity="1" stroke-width="2.043" d="M 96.196504,32.053356 A 8.0982523,8.2454147 0 1 1 79.999999,32.053356 A 8.0982523,8.2454147 0 1 1 96.196504,32.053356 z" opacity=".9" transform="matrix(0.2385029,-6.3906647e-2,6.276603e-2,0.2342461,-8.0307739,7.140664)"/><path id="path5789" fill="#05ac00" fill-opacity="1" fill-rule="evenodd" stroke="none" stroke-dasharray="none" stroke-dashoffset="0" stroke-linecap="butt" stroke-linejoin="round" stroke-miterlimit="4" stroke-opacity="1" stroke-width="2.855" d="M 96.196504,32.053356 A 8.0982523,8.2454147 0 1 1 79.999999,32.053356 A 8.0982523,8.2454147 0 1 1 96.196504,32.053356 z" transform="matrix(0.1788771,-4.7929984e-2,4.707454e-2,0.1756847,-2.2748803,7.6102373)"/><path id="path5754" fill="#848260" fill-opacity="1" fill-rule="evenodd" stroke="none" stroke-dasharray="none" stroke-dashoffset="0" stroke-linecap="butt" stroke-linejoin="round" stroke-miterlimit="4" stroke-opacity="1" stroke-width="2.043" d="M 96.196504,32.053356 A 8.0982523,8.2454147 0 1 1 79.999999,32.053356 A 8.0982523,8.2454147 0 1 1 96.196504,32.053356 z" opacity=".8" transform="matrix(0.2385029,-6.390666e-2,6.2766043e-2,0.2342461,-8.024105,2.1216906)"/><path id="path3245" fill="#ffb604" fill-opacity="1" fill-rule="evenodd" stroke="none" stroke-dasharray="none" stroke-dashoffset="0" stroke-linecap="butt" stroke-linejoin="round" stroke-miterlimit="4" stroke-opacity="1" stroke-width="3.269" d="M 96.196504,32.053356 A 8.0982523,8.2454147 0 1 1 79.999999,32.053356 A 8.0982523,8.2454147 0 1 1 96.196504,32.053356 z" transform="matrix(0.1788771,-4.7929956e-2,4.7074513e-2,0.1756845,-2.2682119,2.5912681)"/><path id="path5473" fill="#848260" fill-opacity="1" fill-rule="evenodd" stroke="none" stroke-dasharray="none" stroke-dashoffset="0" stroke-linecap="butt" stroke-linejoin="round" stroke-miterlimit="4" stroke-opacity="1" stroke-width="2.308" d="M 111.93775,94.063576 A 1.9364232,1.9364232 0 1 1 108.0649,94.063576 A 1.9364232,1.9364232 0 1 1 111.93775,94.063576 z" transform="matrix(0.258208,0,0,0.258208,-8.9032228,-8.7879677)"/><g id="g6014" transform="matrix(0.1994254,0,0,0.1994254,-2.9730149,-3.3503161)"><path id="path6004" fill="#848260" fill-opacity="1" fill-rule="evenodd" stroke="none" stroke-dasharray="none" stroke-dashoffset="0" stroke-linecap="butt" stroke-linejoin="round" stroke-miterlimit="4" stroke-opacity="1" stroke-width=".5" d="M 76,101.96875 C 72.689411,101.96875 69.96875,104.68941 69.96875,108 C 69.96875,111.31059 72.689411,114.03125 76,114.03125 L 84,114.03125 C 87.310589,114.03125 90.03125,111.31059 90.03125,108 C 90.03125,104.68941 87.310589,101.96875 84,101.96875 L 76,101.96875 z" opacity="1"/><rect id="rect3247" width="16" height="8" x="72" y="104" fill="url(#linearGradient3640)" fill-opacity="1" fill-rule="evenodd" stroke="none" stroke-dasharray="none" stroke-dashoffset="0" stroke-linecap="butt" stroke-linejoin="round" stroke-miterlimit="4" stroke-opacity="1" stroke-width=".5" opacity="1" rx="4" ry="4"/><rect id="rect5972" width="13.173" height="3.583" x="73.413" y="104.353" fill="url(#linearGradient3642)" fill-opacity="1" fill-rule="evenodd" stroke="none" stroke-dasharray="none" stroke-dashoffset="0" stroke-linecap="butt" stroke-linejoin="round" stroke-miterlimit="4" stroke-opacity="1" stroke-width=".5" opacity=".6" rx="1.792" ry="1.792"/></g><path id="path3215" fill="#e4e4d9" fill-opacity="1" fill-rule="evenodd" stroke="url(#linearGradient3774)" stroke-dasharray="none" stroke-dashoffset="0" stroke-linecap="butt" stroke-linejoin="round" stroke-miterlimit="4" stroke-opacity="1" stroke-width="2.83" d="M 64.214289,40 A 24.107145,24 0 1 1 15.999998,40 A 24.107145,24 0 1 1 64.214289,40 z" display="inline" opacity=".8" transform="matrix(0,0.1762962,0.1770833,0,-0.5833333,-0.5707381)"/><path id="rect3225" fill="url(#radialGradient3763)" fill-opacity="1" fill-rule="evenodd" stroke="url(#linearGradient3765)" stroke-dasharray="none" stroke-dashoffset="0" stroke-linecap="butt" stroke-linejoin="round" stroke-miterlimit="4" stroke-opacity="1" stroke-width=".5" d="M 5.6249963,3.2432379 C 5.4326355,3.2432379 5.2777745,3.3980988 5.2777745,3.5904597 L 5.2777745,5.2916732 L 3.5609447,5.2916732 C 3.3685839,5.2916732 3.2137229,5.4465341 3.2137229,5.638895 L 3.2137229,7.375004 C 3.2137229,7.5673649 3.3685839,7.7222258 3.5609447,7.7222258 L 5.2777745,7.7222258 L 5.2777745,9.4234393 C 5.2777745,9.6158002 5.4326355,9.7706611 5.6249963,9.7706611 L 7.3611053,9.7706611 C 7.5534662,9.7706611 7.7083271,9.6158002 7.7083271,9.4234393 L 7.7083271,7.7222258 L 9.4095406,7.7222258 C 9.6019015,7.7222258 9.7567624,7.5673649 9.7567624,7.375004 L 9.7567624,5.638895 C 9.7567624,5.4465341 9.6019015,5.2916732 9.4095406,5.2916732 L 7.7083271,5.2916732 L 7.7083271,3.5904597 C 7.7083271,3.3980988 7.5534662,3.2432379 7.3611053,3.2432379 L 5.6249963,3.2432379 z" display="inline"/><path id="path6055" fill="url(#linearGradient3750)" fill-opacity="1" fill-rule="evenodd" stroke="none" stroke-dasharray="none" stroke-dashoffset="0" stroke-linecap="butt" stroke-linejoin="round" stroke-miterlimit="4" stroke-opacity="1" stroke-width="2" d="M 43.10954,40 A 3.1095405,3.1095405 0 1 1 36.89046,40 A 3.1095405,3.1095405 0 1 1 43.10954,40 z" display="inline" transform="matrix(0.2130679,0,0,0.2130679,-3.7657752,-2.0157676)"/><path id="path6065" fill="url(#linearGradient3752)" fill-opacity="1" fill-rule="evenodd" stroke="none" stroke-dasharray="none" stroke-dashoffset="0" stroke-linecap="butt" stroke-linejoin="round" stroke-miterlimit="4" stroke-opacity="1" stroke-width="2" d="M 43.10954,40 A 3.1095405,3.1095405 0 1 1 36.89046,40 A 3.1095405,3.1095405 0 1 1 43.10954,40 z" display="inline" transform="matrix(0.2130679,0,0,0.2130679,-0.2935572,-2.0157676)"/><path id="path6069" fill="url(#linearGradient3754)" fill-opacity="1" fill-rule="evenodd" stroke="none" stroke-dasharray="none" stroke-dashoffset="0" stroke-linecap="butt" stroke-linejoin="round" stroke-miterlimit="4" stroke-opacity="1" stroke-width="2" d="M 43.10954,40 A 3.1095405,3.1095405 0 1 1 36.89046,40 A 3.1095405,3.1095405 0 1 1 43.10954,40 z" display="inline" transform="matrix(0.2130679,0,0,0.2130679,-2.0296662,-3.7518766)"/><path id="path6073" fill="url(#linearGradient3756)" fill-opacity="1" fill-rule="evenodd" stroke="none" stroke-dasharray="none" stroke-dashoffset="0" stroke-linecap="butt" stroke-linejoin="round" stroke-miterlimit="4" stroke-opacity="1" stroke-width="2" d="M 43.10954,40 A 3.1095405,3.1095405 0 1 1 36.89046,40 A 3.1095405,3.1095405 0 1 1 43.10954,40 z" display="inline" transform="matrix(0.2130679,0,0,0.2130679,-2.0296662,-0.2796586)"/><g id="g3644" transform="matrix(0.1994254,0,0,0.1994254,2.0181512,-3.3503161)"><path id="path3646" fill="#848260" fill-opacity="1" fill-rule="evenodd" stroke="none" stroke-dasharray="none" stroke-dashoffset="0" stroke-linecap="butt" stroke-linejoin="round" stroke-miterlimit="4" stroke-opacity="1" stroke-width=".5" d="M 76,101.96875 C 72.689411,101.96875 69.96875,104.68941 69.96875,108 C 69.96875,111.31059 72.689411,114.03125 76,114.03125 L 84,114.03125 C 87.310589,114.03125 90.03125,111.31059 90.03125,108 C 90.03125,104.68941 87.310589,101.96875 84,101.96875 L 76,101.96875 z" opacity="1"/><rect id="rect3648" width="16" height="8" x="72" y="104" fill="url(#linearGradient3654)" fill-opacity="1" fill-rule="evenodd" stroke="none" stroke-dasharray="none" stroke-dashoffset="0" stroke-linecap="butt" stroke-linejoin="round" stroke-miterlimit="4" stroke-opacity="1" stroke-width=".5" opacity="1" rx="4" ry="4"/><rect id="rect3650" width="13.173" height="3.583" x="73.413" y="104.353" fill="url(#linearGradient3656)" fill-opacity="1" fill-rule="evenodd" stroke="none" stroke-dasharray="none" stroke-dashoffset="0" stroke-linecap="butt" stroke-linejoin="round" stroke-miterlimit="4" stroke-opacity="1" stroke-width=".5" opacity=".6" rx="1.792" ry="1.792"/></g><path id="path3658" fill="#848260" fill-opacity="1" fill-rule="evenodd" stroke="none" stroke-dasharray="none" stroke-dashoffset="0" stroke-linecap="butt" stroke-linejoin="round" stroke-miterlimit="4" stroke-opacity="1" stroke-width="2.308" d="M 111.93775,94.063576 A 1.9364232,1.9364232 0 1 1 108.0649,94.063576 A 1.9364232,1.9364232 0 1 1 111.93775,94.063576 z" transform="matrix(0.258208,0,0,0.258208,-10.903223,-8.7879677)"/><path id="path3660" fill="#848260" fill-opacity="1" fill-rule="evenodd" stroke="none" stroke-dasharray="none" stroke-dashoffset="0" stroke-linecap="butt" stroke-linejoin="round" stroke-miterlimit="4" stroke-opacity="1" stroke-width="2.308" d="M 111.93775,94.063576 A 1.9364232,1.9364232 0 1 1 108.0649,94.063576 A 1.9364232,1.9364232 0 1 1 111.93775,94.063576 z" transform="matrix(0.258208,0,0,0.258208,-12.903223,-8.7879677)"/><path id="path3662" fill="#848260" fill-opacity="1" fill-rule="evenodd" stroke="none" stroke-dasharray="none" stroke-dashoffset="0" stroke-linecap="butt" stroke-linejoin="round" stroke-miterlimit="4" stroke-opacity="1" stroke-width="2.308" d="M 111.93775,94.063576 A 1.9364232,1.9364232 0 1 1 108.0649,94.063576 A 1.9364232,1.9364232 0 1 1 111.93775,94.063576 z" transform="matrix(0.258208,0,0,0.258208,-8.903223,-10.787968)"/><path id="path3664" fill="#848260" fill-opacity="1" fill-rule="evenodd" stroke="none" stroke-dasharray="none" stroke-dashoffset="0" stroke-linecap="butt" stroke-linejoin="round" stroke-miterlimit="4" stroke-opacity="1" stroke-width="2.308" d="M 111.93775,94.063576 A 1.9364232,1.9364232 0 1 1 108.0649,94.063576 A 1.9364232,1.9364232 0 1 1 111.93775,94.063576 z" transform="matrix(0.258208,0,0,0.258208,-10.903223,-10.787968)"/><path id="path3666" fill="#848260" fill-opacity="1" fill-rule="evenodd" stroke="none" stroke-dasharray="none" stroke-dashoffset="0" stroke-linecap="butt" stroke-linejoin="round" stroke-miterlimit="4" stroke-opacity="1" stroke-width="2.308" d="M 111.93775,94.063576 A 1.9364232,1.9364232 0 1 1 108.0649,94.063576 A 1.9364232,1.9364232 0 1 1 111.93775,94.063576 z" transform="matrix(0.258208,0,0,0.258208,-8.903223,-12.787968)"/></g></svg>