<svg xmlns="http://www.w3.org/2000/svg" xmlns:svg="http://www.w3.org/2000/svg" xmlns:xlink="http://www.w3.org/1999/xlink" id="svg2" width="22" height="22" version="1.0"><defs id="defs4"><linearGradient id="linearGradient3327"><stop id="stop3330" offset="0" stop-color="#000" stop-opacity="1"/><stop id="stop3333" offset="1" stop-color="#000" stop-opacity="0"/></linearGradient><linearGradient id="linearGradient3335" x1="11.375" x2="11.375" y1="22" y2="-9.817" gradientUnits="userSpaceOnUse" xlink:href="#linearGradient3327"/><radialGradient id="radialGradient3332" cx="56.496" cy="31.702" r="13" fx="56.496" fy="31.702" gradientTransform="matrix(0.8395958,0,-2.1464811e-8,1.0605848,48.651576,18.720251)" gradientUnits="userSpaceOnUse" xlink:href="#linearGradient3266"/><radialGradient id="radialGradient3330" cx="54.75" cy="25.073" r="13" fx="54.75" fy="25.073" gradientTransform="matrix(1.4680389,0.2676847,-0.311258,1.7070036,-17.071015,-35.633719)" gradientUnits="userSpaceOnUse" xlink:href="#linearGradient3266"/><radialGradient id="radialGradient3328" cx="40.847" cy="75.264" r="14.672" fx="40.847" fy="75.264" gradientTransform="matrix(0.9847961,2.5979268e-2,-1.8238224e-2,0.6913564,1.9937062,24.820256)" gradientUnits="userSpaceOnUse" xlink:href="#linearGradient3266"/><linearGradient id="linearGradient3266"><stop id="stop3269" offset="0" stop-color="#87ff2b" stop-opacity="1"/><stop id="stop3271" offset="1" stop-color="#87ff2b" stop-opacity="0"/></linearGradient><radialGradient id="radialGradient3326" cx="40.847" cy="75.264" r="14.672" fx="40.847" fy="75.264" gradientTransform="matrix(0.9847961,2.5979268e-2,-1.8238224e-2,0.6913564,1.9937062,24.820256)" gradientUnits="userSpaceOnUse" xlink:href="#linearGradient3266"/><linearGradient id="linearGradient3277"><stop id="stop4287" offset="0" stop-color="#3d9119" stop-opacity="1"/><stop id="stop3281" offset="1" stop-color="#75e62a" stop-opacity="1"/></linearGradient><linearGradient id="linearGradient3324" x1="70.782" x2="75.404" y1="83.017" y2="22.03" gradientUnits="userSpaceOnUse" xlink:href="#linearGradient3277"/><linearGradient id="ButtonShadow" x1="9.355" x2="9.355" y1="21.743" y2=".494" gradientTransform="scale(0.9883037,1.0118347)" gradientUnits="userSpaceOnUse"><stop id="stop16498" offset="0" stop-color="#000" stop-opacity=".706"/><stop id="stop3279" offset="1" stop-color="#000" stop-opacity=".157"/></linearGradient><linearGradient id="ButtonColor" x1="10.32" x2="10.32" y1="21" y2=".999" gradientUnits="userSpaceOnUse"><stop id="stop16493" offset="0" stop-color="#8f1cac" stop-opacity="1"/><stop id="stop16495" offset="1" stop-color="#d285e6" stop-opacity="1"/></linearGradient><linearGradient id="linearGradient3181" x1="-3.061" x2="-3.061" y1="27.258" y2="7.254" gradientTransform="translate(11.119372,-6.258198)" gradientUnits="userSpaceOnUse" xlink:href="#linearGradient3187"/><linearGradient id="linearGradient3678"><stop id="stop3680" offset="0" stop-color="#fff" stop-opacity="1"/><stop id="stop3682" offset="1" stop-color="#dcdcdc" stop-opacity="1"/></linearGradient><linearGradient id="linearGradient3470"><stop id="stop3472" offset="0" stop-color="#2b2b2b" stop-opacity="1"/><stop id="stop3474" offset="1" stop-color="#656565" stop-opacity="1"/></linearGradient><linearGradient id="linearGradient3476" x1="64" x2="64" y1="14.126" y2="113.919" gradientTransform="translate(69.28963,65.060657)" gradientUnits="userSpaceOnUse" xlink:href="#linearGradient3470"/><linearGradient id="linearGradient3386"><stop id="stop3388" offset="0" stop-color="#eeeeec" stop-opacity="1"/><stop id="stop3390" offset="1" stop-color="#eeeeec" stop-opacity="0"/></linearGradient><linearGradient id="linearGradient3299"><stop id="stop3301" offset="0" stop-color="#dfdfdf" stop-opacity="1"/><stop id="stop3303" offset="1" stop-color="#434343" stop-opacity="1"/></linearGradient><linearGradient id="linearGradient3289"><stop id="stop3291" offset="0" stop-color="#919191" stop-opacity="1"/><stop id="stop3293" offset="1" stop-color="#232323" stop-opacity="1"/></linearGradient><linearGradient id="linearGradient3273"><stop id="stop3275" offset="0" stop-color="#5d5d5d" stop-opacity="1"/><stop id="stop3277" offset="1" stop-color="#171717" stop-opacity="1"/></linearGradient><linearGradient id="linearGradient3260" gradientUnits="userSpaceOnUse"><stop id="stop3262" offset="0" stop-color="#000" stop-opacity="1"/><stop id="stop3266" offset=".187" stop-color="#000" stop-opacity=".422"/><stop id="stop3268" offset=".553" stop-color="#000" stop-opacity="0"/><stop id="stop3264" offset="1" stop-color="#000" stop-opacity="0"/></linearGradient><linearGradient id="linearGradient8097" x1="60" x2="90" y1="20" y2="50" gradientTransform="translate(-1,-2.5)" gradientUnits="userSpaceOnUse" xlink:href="#WhiteTransparent"/><linearGradient id="BlackTransparent" gradientUnits="userSpaceOnUse"><stop id="stop12" offset="0" stop-color="#000" stop-opacity="1"/><stop id="stop14" offset="1" stop-color="#000" stop-opacity="0"/></linearGradient><linearGradient id="linearGradient8100" x1="0" x2="0" y1="128" y2="64" gradientTransform="translate(-1,-2.5)" gradientUnits="userSpaceOnUse" xlink:href="#BlackTransparent"/><linearGradient id="linearGradient8103" x1="33" x2="58" y1="35" y2="60" gradientTransform="translate(-1,-2.5)" gradientUnits="userSpaceOnUse" xlink:href="#WhiteTransparent"/><linearGradient id="sideSpecular" x1="80" x2="60" y1="20" y2="40" gradientUnits="userSpaceOnUse" xlink:href="#WhiteTransparent"/><linearGradient id="WhiteTransparent" gradientUnits="userSpaceOnUse"><stop id="stop7" offset="0" stop-color="#fff" stop-opacity="1"/><stop id="stop9" offset="1" stop-color="#fff" stop-opacity="0"/></linearGradient><linearGradient id="liquidSpecular" x1="0" x2="0" y1="128" y2="76" gradientUnits="userSpaceOnUse" xlink:href="#WhiteTransparent"/><clipPath id="clipoutline1" clipPathUnits="userSpaceOnUse"><path id="outline1" d="M 54.1,12.5 L 12.9,54.7 C -2.7,70.3 23,69 32.3,74.9 C 36.6,77.7 18.5,81.3 22.2,85 C 25.8,88.7 43.9,92.1 47.5,95.7 C 51.1,99.4 40.2,103.3 43.8,107 C 47.3,110.7 55.7,107.2 57.2,115.6 C 58.3,121.8 72.6,118.7 79,113.4 C 83,110 72.1,110 75.7,106.3 C 84.7,97.2 92.7,102.2 96,93.8 C 97.8,89.3 82.4,86.1 86.5,83.2 C 96.3,76.3 132.3,72.8 115.7,56.2 L 73,12.5 C 67.7,7.5 59,7.5 54.1,12.5 z M 44.2,77.2 C 45.1,77.2 75,81.2 63.5,84.3 C 59.1,85.5 38.9,77.2 44.2,77.2 z M 101.4,93.8 C 101.4,95.9 117.7,97.1 116.8,93.3 C 115.5,86.9 103.2,87.4 101.4,93.8 z M 31.9,104.9 C 35.6,108.1 41.2,104.2 43,99.7 C 39.4,95 26.1,100 31.9,104.9 z M 99.4,98.2 C 94.8,102.4 100.2,106.8 104.7,103.9 C 105.9,103.1 104.6,99.2 99.4,98.2 z"/></clipPath><linearGradient id="linearGradient3929"><stop id="stop3931" offset="0" stop-color="#000" stop-opacity="1"/><stop id="stop3933" offset="1" stop-color="#000" stop-opacity=".588"/></linearGradient><linearGradient id="linearGradient3935" x1="60.542" x2="60.542" y1="127.967" y2="7.83" gradientUnits="userSpaceOnUse" xlink:href="#linearGradient3929"/><linearGradient id="linearGradient3222" x1="62.5" x2="62.5" y1="123.5" y2="3.499" gradientTransform="translate(-0.5000008,-0.5000001)" gradientUnits="userSpaceOnUse" xlink:href="#linearGradient3187"/><linearGradient id="linearGradient3187"><stop id="stop3189" offset="0" stop-color="#282828" stop-opacity="1"/><stop id="stop3191" offset="1" stop-color="#5a5a5a" stop-opacity="1"/></linearGradient><linearGradient id="linearGradient8147" x1="60" x2="90" y1="20" y2="50" gradientTransform="translate(-7.878524,-8.7)" gradientUnits="userSpaceOnUse" xlink:href="#WhiteTransparent"/><linearGradient id="linearGradient8150" x1="0" x2="0" y1="128" y2="64" gradientTransform="translate(-7.878524,-8.7)" gradientUnits="userSpaceOnUse" xlink:href="#BlackTransparent"/><linearGradient id="linearGradient8153" x1="36" x2="51.5" y1="39.5" y2="49.25" gradientTransform="translate(-7.878524,-8.7)" gradientUnits="userSpaceOnUse" xlink:href="#WhiteTransparent"/><linearGradient id="linearGradient8161" x1="80" x2="60" y1="20" y2="40" gradientUnits="userSpaceOnUse" xlink:href="#WhiteTransparent"/><linearGradient id="linearGradient8163" x1="0" x2="0" y1="128" y2="76" gradientUnits="userSpaceOnUse" xlink:href="#WhiteTransparent"/><linearGradient id="linearGradient8183" x1="0" x2="0" y1="128" y2="76" gradientUnits="userSpaceOnUse" xlink:href="#WhiteTransparent"/><linearGradient id="linearGradient8185" x1="80" x2="60" y1="20" y2="40" gradientUnits="userSpaceOnUse" xlink:href="#WhiteTransparent"/><linearGradient id="linearGradient8187" x1="36" x2="51.5" y1="39.5" y2="49.25" gradientTransform="translate(-7.878524,-8.7)" gradientUnits="userSpaceOnUse" xlink:href="#WhiteTransparent"/><linearGradient id="linearGradient8189" x1="0" x2="0" y1="128" y2="64" gradientTransform="translate(-7.878524,-8.7)" gradientUnits="userSpaceOnUse" xlink:href="#BlackTransparent"/><linearGradient id="linearGradient8208" x1="0" x2="0" y1="128" y2="76" gradientUnits="userSpaceOnUse" xlink:href="#WhiteTransparent"/><linearGradient id="linearGradient8210" x1="80" x2="60" y1="20" y2="40" gradientUnits="userSpaceOnUse" xlink:href="#WhiteTransparent"/><linearGradient id="linearGradient8212" x1="36" x2="51.5" y1="39.5" y2="49.25" gradientTransform="translate(-7.878524,-8.7)" gradientUnits="userSpaceOnUse" xlink:href="#WhiteTransparent"/><linearGradient id="linearGradient8214" x1="0" x2="0" y1="128" y2="64" gradientTransform="translate(-7.878524,-8.7)" gradientUnits="userSpaceOnUse" xlink:href="#BlackTransparent"/><linearGradient id="linearGradient8226" x1="0" x2="0" y1="128" y2="76" gradientUnits="userSpaceOnUse" xlink:href="#WhiteTransparent"/><linearGradient id="linearGradient8228" x1="80" x2="60" y1="20" y2="40" gradientUnits="userSpaceOnUse" xlink:href="#WhiteTransparent"/><linearGradient id="linearGradient8230" x1="36" x2="51.5" y1="39.5" y2="49.25" gradientTransform="translate(-7.878524,-8.7)" gradientUnits="userSpaceOnUse" xlink:href="#WhiteTransparent"/><linearGradient id="linearGradient8232" x1="0" x2="0" y1="128" y2="64" gradientTransform="translate(-7.878524,-8.7)" gradientUnits="userSpaceOnUse" xlink:href="#BlackTransparent"/><linearGradient id="linearGradient8246" x1="80" x2="60" y1="20" y2="40" gradientUnits="userSpaceOnUse" xlink:href="#WhiteTransparent"/><linearGradient id="linearGradient8248" x1="50.588" x2="50.588" y1="113.091" y2="74.785" gradientUnits="userSpaceOnUse" xlink:href="#WhiteTransparent"/><linearGradient id="linearGradient3258" x1="43.477" x2="43.477" y1="26" y2="34.001" gradientUnits="userSpaceOnUse" xlink:href="#linearGradient3260"/><linearGradient id="linearGradient3279" x1="11" x2="16" y1="10.442" y2="24" gradientUnits="userSpaceOnUse" xlink:href="#linearGradient3273"/><linearGradient id="linearGradient3295" x1="13.125" x2="19.25" y1="9.942" y2="24.5" gradientUnits="userSpaceOnUse" xlink:href="#linearGradient3289"/><radialGradient id="radialGradient3392" cx="53.419" cy="66.598" r="47.725" fx="53.419" fy="66.598" gradientTransform="matrix(0.2773616,0,0,0.2334495,-7.4096522,-5.5324096)" gradientUnits="userSpaceOnUse" xlink:href="#linearGradient3386"/><linearGradient id="linearGradient3684" x1="61.477" x2="61.477" y1="40" y2="103.316" gradientTransform="matrix(0.1962236,0,0,0.1962236,-1.5583139,-1.346219)" gradientUnits="userSpaceOnUse" xlink:href="#linearGradient3678"/><linearGradient id="linearGradient16487" x1="43.477" x2="43.477" y1="26" y2="34.001" gradientTransform="matrix(0.1724138,0,0,0.375,-3.4483e-2,-5.7499998)" gradientUnits="userSpaceOnUse" xlink:href="#linearGradient3260"/><radialGradient id="radialGradient4305" cx="56.496" cy="31.702" r="13" fx="56.496" fy="31.702" gradientTransform="matrix(0.1514944,0,0,0.1913691,6.9964192,3.4705189)" gradientUnits="userSpaceOnUse" xlink:href="#linearGradient3266"/><radialGradient id="radialGradient4308" cx="54.75" cy="25.073" r="13" fx="54.75" fy="25.073" gradientTransform="matrix(0.264889,4.8300305e-2,-5.6162553e-2,0.3080071,-4.5972227,-6.3811588)" gradientUnits="userSpaceOnUse" xlink:href="#linearGradient3266"/><linearGradient id="linearGradient4313" x1="70.782" x2="75.404" y1="83.017" y2="22.03" gradientTransform="matrix(0.1804373,0,0,0.1804373,-1.5169748,4.8493163e-2)" gradientUnits="userSpaceOnUse" xlink:href="#linearGradient3277"/><radialGradient id="radialGradient4316" cx="40.847" cy="75.264" r="14.672" fx="40.847" fy="75.264" gradientTransform="matrix(0.9847961,2.5979268e-2,-1.8238224e-2,0.6913564,1.9937062,24.820256)" gradientUnits="userSpaceOnUse" xlink:href="#linearGradient3266"/><radialGradient id="radialGradient4318" cx="40.847" cy="75.264" r="14.672" fx="40.847" fy="75.264" gradientTransform="matrix(0.9847961,2.5979268e-2,-1.8238224e-2,0.6913564,1.9937062,24.820256)" gradientUnits="userSpaceOnUse" xlink:href="#linearGradient3266"/><filter id="filter4322"><feGaussianBlur id="feGaussianBlur4324" stdDeviation=".294"/></filter><clipPath id="clipPath2849" clipPathUnits="userSpaceOnUse"><rect id="rect2851" width="20" height="20" x="1" y="1" fill="#fff" fill-opacity="1" fill-rule="evenodd" stroke="none" display="inline" rx="2" ry="2"/></clipPath><filter id="filter3194" width="1.36" height="1.36" x="-.18" y="-.18" color-interpolation-filters="sRGB"><feGaussianBlur id="feGaussianBlur3196" stdDeviation="1.2"/></filter><linearGradient id="linearGradient3084" x1="10" x2="10" y1="1" y2="16" gradientUnits="userSpaceOnUse" xlink:href="#linearGradient3823"/><linearGradient id="linearGradient3823"><stop id="stop3825" offset="0" stop-color="#fff" stop-opacity="1"/><stop id="stop3829" offset="1" stop-color="#fff" stop-opacity="0"/></linearGradient><linearGradient id="linearGradient3845" x1="11" x2="21" y1="19.5" y2="19.5" gradientUnits="userSpaceOnUse" spreadMethod="reflect" xlink:href="#linearGradient3831"/><linearGradient id="linearGradient3831"><stop id="stop3833" offset="0" stop-color="#fff" stop-opacity="1"/><stop id="stop3821" offset=".75" stop-color="#fff" stop-opacity=".498"/><stop id="stop3835" offset="1" stop-color="#fff" stop-opacity="0"/></linearGradient><linearGradient id="linearGradient3852" x1="10" x2="10" y1="1" y2="16" gradientUnits="userSpaceOnUse" xlink:href="#linearGradient3823"/></defs><metadata id="metadata7"/><g id="layer1" display="inline"><g id="g3337" display="inline"><rect id="rect3371" width="21" height="21.5" x=".5" y=".5" fill="url(#linearGradient3335)" fill-opacity="1" stroke="none" stroke-dasharray="none" stroke-linecap="round" stroke-linejoin="miter" stroke-miterlimit="4" stroke-opacity="1" stroke-width="1" display="inline" opacity=".3" rx="2.5" ry="2.5"/><rect id="rect2553" width="20" height="20" x="1" y="2" fill="#000" fill-opacity="1" stroke="none" stroke-dasharray="none" stroke-linecap="round" stroke-linejoin="miter" stroke-miterlimit="4" stroke-opacity="1" stroke-width="1" display="inline" opacity=".5" rx="2.381" ry="2.326"/></g><rect id="rect3173" width="20" height="20" x="1" y="1" fill="url(#linearGradient3181)" fill-opacity="1" fill-rule="evenodd" stroke="none" stroke-dasharray="none" stroke-dashoffset="0" stroke-linecap="round" stroke-linejoin="miter" stroke-miterlimit="4" stroke-opacity="1" stroke-width=".25" display="inline" opacity="1" rx="2" ry="2"/></g><g id="layer5"><rect id="rect2410" width="16" height="16" x="3" y="3" fill="#fff" fill-opacity="1" fill-rule="nonzero" stroke="none" clip-path="url(#clipPath2849)" display="inline" filter="url(#filter3194)" opacity=".15" rx="2" ry="2"/></g><g id="layer3"><path id="text3348" fill="url(#radialGradient3392)" fill-opacity="1" stroke="none" stroke-linecap="butt" stroke-linejoin="miter" stroke-opacity="1" stroke-width="1" d="M 2.0227922,5.0426023 L 2.2927279,5.0426023 L 2.4800309,5.4827634 L 2.6684351,5.0426023 L 2.9378202,5.0426023 L 2.9378202,5.8650809 L 2.7372967,5.8650809 L 2.7372967,5.2635089 L 2.5477903,5.7069755 L 2.4133735,5.7069755 L 2.2238671,5.2635089 L 2.2238671,5.8650809 L 2.0227922,5.8650809 L 2.0227922,5.0426023 M 3.1466075,5.0426023 L 3.718982,5.0426023 L 3.718982,5.2029111 L 3.3587003,5.2029111 L 3.3587003,5.356059 L 3.6974976,5.356059 L 3.6974976,5.5163678 L 3.3587003,5.5163678 L 3.3587003,5.7047721 L 3.731102,5.7047721 L 3.731102,5.8650809 L 3.1466075,5.8650809 L 3.1466075,5.0426023 M 4.490228,5.0684943 L 4.490228,5.2425751 C 4.4450543,5.2223771 4.4009834,5.2071352 4.3580146,5.1968515 C 4.3150444,5.1865693 4.2744626,5.1814275 4.2362677,5.1814267 C 4.1855851,5.1814275 4.1481252,5.1884056 4.123886,5.2023605 C 4.0996467,5.2163168 4.0875275,5.2379855 4.0875275,5.2673658 C 4.0875275,5.2894016 4.095607,5.3066627 4.1117667,5.3191491 C 4.1282929,5.3312691 4.1580411,5.3417363 4.2010106,5.35055 L 4.2913565,5.3687296 C 4.3828038,5.3870928 4.4478084,5.4150047 4.4863718,5.4524645 C 4.524933,5.4899251 4.5442147,5.5431783 4.5442155,5.6122227 C 4.5442147,5.7029358 4.5172206,5.7705117 4.4632347,5.8149497 C 4.4096136,5.8590213 4.3275315,5.8810571 4.2169868,5.8810571 C 4.1648356,5.8810571 4.112501,5.8760988 4.0599827,5.866183 C 4.0074645,5.8562664 3.9549462,5.8415766 3.9024287,5.8221114 L 3.9024287,5.6430723 C 3.9549462,5.6709841 4.0056282,5.6921014 4.0544738,5.7064248 C 4.1036865,5.7203811 4.1510629,5.7273586 4.1966037,5.7273586 C 4.242878,5.7273586 4.2783188,5.7196462 4.3029251,5.7042214 C 4.3275315,5.6887966 4.3398343,5.6667608 4.339835,5.6381147 C 4.3398343,5.6124063 4.3313877,5.5925746 4.3144944,5.5786183 C 4.2979668,5.5646627 4.2647296,5.5521756 4.2147833,5.5411577 L 4.1327005,5.5229781 C 4.050434,5.5053506 3.9902034,5.4772552 3.9520086,5.4386925 C 3.9141809,5.4001306 3.895267,5.348163 3.895267,5.2827906 C 3.895267,5.200892 3.9217097,5.1379073 3.9745951,5.0938356 C 4.0274804,5.0497647 4.1035029,5.0277289 4.2026633,5.0277282 C 4.2478363,5.0277289 4.2942942,5.031218 4.3420385,5.0381954 C 4.389782,5.0448072 4.4391783,5.0549066 4.490228,5.0684943 M 5.3832202,5.8199079 C 5.3442904,5.8401074 5.3037079,5.8553486 5.261474,5.8656323 C 5.2192387,5.8759153 5.1751671,5.8810571 5.1292599,5.8810571 C 4.9922718,5.8810571 4.883747,5.8428615 4.8036847,5.7664719 C 4.7236217,5.6897144 4.6835906,5.58578 4.6835906,5.454668 C 4.6835906,5.3231896 4.7236217,5.2192552 4.8036847,5.1428648 C 4.883747,5.066108 4.9922718,5.0277289 5.1292599,5.0277282 C 5.1751671,5.0277289 5.2192387,5.0328708 5.261474,5.043153 C 5.3037079,5.0534374 5.3442904,5.0686786 5.3832202,5.0888774 L 5.3832202,5.259102 C 5.3439233,5.2322929 5.3051771,5.2126441 5.266983,5.200157 C 5.2287874,5.1876706 5.188572,5.1814275 5.1463374,5.1814267 C 5.070682,5.1814275 5.0111857,5.2056667 4.9678497,5.2541445 C 4.9245123,5.3026229 4.9028444,5.3694639 4.9028444,5.454668 C 4.9028444,5.539505 4.9245123,5.6061631 4.9678497,5.6546408 C 5.0111857,5.7031193 5.070682,5.7273586 5.1463374,5.7273586 C 5.188572,5.7273586 5.2287874,5.7211154 5.266983,5.7086283 C 5.3051771,5.6961419 5.3439233,5.6764931 5.3832202,5.6496833 L 5.3832202,5.8199079 M 6.0586113,5.7152393 L 5.7269758,5.7152393 L 5.6746411,5.8650809 L 5.4614469,5.8650809 L 5.7660891,5.0426023 L 6.0189473,5.0426023 L 6.3235895,5.8650809 L 6.1103953,5.8650809 L 6.0586113,5.7152393 M 5.7798611,5.5626429 L 6.0051753,5.5626429 L 5.8927935,5.2354142 L 5.7798611,5.5626429 M 6.4321151,5.0426023 L 6.6442072,5.0426023 L 6.6442072,5.7047721 L 7.0166088,5.7047721 L 7.0166088,5.8650809 L 6.4321151,5.8650809 L 6.4321151,5.0426023 M 7.3625678,5.2029111 L 7.3625678,5.7047721 L 7.4385903,5.7047721 C 7.5252634,5.7047721 7.5913701,5.6832877 7.6369109,5.6403181 C 7.6828174,5.5973486 7.705771,5.5349145 7.7057718,5.4530152 C 7.705771,5.3714845 7.683001,5.3094175 7.6374616,5.2668144 C 7.5919208,5.2242127 7.5256305,5.2029119 7.4385903,5.2029111 L 7.3625678,5.2029111 M 7.150475,5.0426023 L 7.3741364,5.0426023 C 7.4990043,5.042603 7.5919208,5.0516011 7.6528864,5.0695957 C 7.7142184,5.0872253 7.7667366,5.1173406 7.8104411,5.1599423 C 7.8490023,5.1970358 7.8776492,5.2398218 7.8963795,5.2882995 C 7.9151091,5.336778 7.9244742,5.3916832 7.924475,5.4530152 C 7.9244742,5.5150829 7.9151091,5.5705388 7.8963795,5.6193844 C 7.8776492,5.6678629 7.8490023,5.7106481 7.8104411,5.7477416 C 7.7663688,5.7903433 7.7134841,5.8206429 7.651785,5.8386382 C 7.5900845,5.8562664 7.4975351,5.8650809 7.3741364,5.8650809 L 7.150475,5.8650809 L 7.150475,5.0426023 M 8.4626944,5.1814267 C 8.3980562,5.1814275 8.3479257,5.2052989 8.3123014,5.2530424 C 8.2766771,5.3007866 8.2588654,5.3679954 8.2588654,5.454668 C 8.2588654,5.5409742 8.2766771,5.6079994 8.3123014,5.6557429 C 8.3479257,5.7034872 8.3980562,5.7273586 8.4626944,5.7273586 C 8.527699,5.7273586 8.5780138,5.7034872 8.6136381,5.6557429 C 8.6492624,5.6079994 8.6670741,5.5409742 8.6670749,5.454668 C 8.6670741,5.3679954 8.6492624,5.3007866 8.6136381,5.2530424 C 8.5780138,5.2052989 8.527699,5.1814275 8.4626944,5.1814267 M 8.4626944,5.0277282 C 8.5949078,5.0277289 8.6984751,5.0655566 8.7733963,5.141212 C 8.8483167,5.2168682 8.8857773,5.3213532 8.885778,5.454668 C 8.8857773,5.5876163 8.8483167,5.6919179 8.7733963,5.7675733 C 8.6984751,5.8432294 8.5949078,5.8810571 8.4626944,5.8810571 C 8.3308481,5.8810571 8.2272809,5.8432294 8.1519926,5.7675733 C 8.0770714,5.6919179 8.0396116,5.5876163 8.0396116,5.454668 C 8.0396116,5.3213532 8.0770714,5.2168682 8.1519926,5.141212 C 8.2272809,5.0655566 8.3308481,5.0277289 8.4626944,5.0277282 M 10.010144,5.0684943 L 10.010144,5.2425751 C 9.964971,5.2223771 9.9208994,5.2071352 9.8779306,5.1968515 C 9.8349611,5.1865693 9.7943785,5.1814275 9.7561837,5.1814267 C 9.7055018,5.1814275 9.6680412,5.1884056 9.6438027,5.2023605 C 9.6195627,5.2163168 9.6074434,5.2379855 9.6074442,5.2673658 C 9.6074434,5.2894016 9.6155229,5.3066627 9.6316827,5.3191491 C 9.6482095,5.3312691 9.6779577,5.3417363 9.7209273,5.35055 L 9.8112732,5.3687296 C 9.9027205,5.3870928 9.9677251,5.4150047 10.006288,5.4524645 C 10.04485,5.4899251 10.064131,5.5431783 10.064131,5.6122227 C 10.064131,5.7029358 10.037137,5.7705117 9.9831506,5.8149497 C 9.9295303,5.8590213 9.8474474,5.8810571 9.7369027,5.8810571 C 9.6847516,5.8810571 9.6324169,5.8760988 9.5798994,5.866183 C 9.5273812,5.8562664 9.4748629,5.8415766 9.4223447,5.8221114 L 9.4223447,5.6430723 C 9.4748629,5.6709841 9.5255449,5.6921014 9.5743905,5.7064248 C 9.6236032,5.7203811 9.6709796,5.7273586 9.7165197,5.7273586 C 9.762794,5.7273586 9.7982347,5.7196462 9.8228418,5.7042214 C 9.8474474,5.6887966 9.859751,5.6667608 9.8597517,5.6381147 C 9.859751,5.6124063 9.8513036,5.5925746 9.8344104,5.5786183 C 9.8178835,5.5646627 9.7846462,5.5521756 9.7346993,5.5411577 L 9.6526164,5.5229781 C 9.5703507,5.5053506 9.5101201,5.4772552 9.4719253,5.4386925 C 9.4340968,5.4001306 9.415183,5.348163 9.415183,5.2827906 C 9.415183,5.200892 9.4416257,5.1379073 9.4945118,5.0938356 C 9.5473964,5.0497647 9.6234196,5.0277289 9.72258,5.0277282 C 9.7677523,5.0277289 9.8142109,5.031218 9.8619551,5.0381954 C 9.9096979,5.0448072 9.9590949,5.0549066 10.010144,5.0684943 M 10.152825,5.0426023 L 10.910849,5.0426023 L 10.910849,5.2029111 L 10.638159,5.2029111 L 10.638159,5.8650809 L 10.426066,5.8650809 L 10.426066,5.2029111 L 10.152825,5.2029111 L 10.152825,5.0426023 M 11.019926,5.0426023 L 11.232018,5.0426023 L 11.232018,5.5356488 C 11.232018,5.6035918 11.243036,5.6522538 11.265071,5.6816349 C 11.287474,5.7106481 11.323833,5.7251551 11.374148,5.7251551 C 11.424829,5.7251551 11.461188,5.7106481 11.483224,5.6816349 C 11.505626,5.6522538 11.516827,5.6035918 11.516828,5.5356488 L 11.516828,5.0426023 L 11.728921,5.0426023 L 11.728921,5.5356488 C 11.72892,5.6520703 11.699723,5.7387436 11.641329,5.7956687 C 11.582934,5.8525945 11.493874,5.8810571 11.374148,5.8810571 C 11.254788,5.8810571 11.165911,5.8525945 11.107517,5.7956687 C 11.049122,5.7387436 11.019926,5.6520703 11.019926,5.5356488 L 11.019926,5.0426023 M 12.148699,5.2029111 L 12.148699,5.7047721 L 12.224722,5.7047721 C 12.311394,5.7047721 12.377501,5.6832877 12.423042,5.6403181 C 12.468949,5.5973486 12.491903,5.5349145 12.491903,5.4530152 C 12.491903,5.3714845 12.469132,5.3094175 12.423593,5.2668144 C 12.378052,5.2242127 12.311762,5.2029119 12.224722,5.2029111 L 12.148699,5.2029111 M 11.936606,5.0426023 L 12.160268,5.0426023 C 12.285136,5.042603 12.378052,5.0516011 12.439018,5.0695957 C 12.50035,5.0872253 12.552867,5.1173406 12.596572,5.1599423 C 12.635134,5.1970358 12.66378,5.2398218 12.682511,5.2882995 C 12.70124,5.336778 12.710606,5.3916832 12.710606,5.4530152 C 12.710606,5.5150829 12.70124,5.5705388 12.682511,5.6193844 C 12.66378,5.6678629 12.635134,5.7106481 12.596572,5.7477416 C 12.5525,5.7903433 12.499615,5.8206429 12.437916,5.8386382 C 12.376216,5.8562664 12.283667,5.8650809 12.160268,5.8650809 L 11.936606,5.8650809 L 11.936606,5.0426023 M 12.873119,5.0426023 L 13.085211,5.0426023 L 13.085211,5.8650809 L 12.873119,5.8650809 L 12.873119,5.0426023 M 13.669705,5.1814267 C 13.605067,5.1814275 13.554937,5.2052989 13.519313,5.2530424 C 13.483689,5.3007866 13.465876,5.3679954 13.465876,5.454668 C 13.465876,5.5409742 13.483689,5.6079994 13.519313,5.6557429 C 13.554937,5.7034872 13.605067,5.7273586 13.669705,5.7273586 C 13.734711,5.7273586 13.785024,5.7034872 13.82065,5.6557429 C 13.856273,5.6079994 13.874086,5.5409742 13.874086,5.454668 C 13.874086,5.3679954 13.856273,5.3007866 13.82065,5.2530424 C 13.785024,5.2052989 13.734711,5.1814275 13.669705,5.1814267 M 13.669705,5.0277282 C 13.801919,5.0277289 13.905487,5.0655566 13.980408,5.141212 C 14.055328,5.2168682 14.092788,5.3213532 14.092788,5.454668 C 14.092788,5.5876163 14.055328,5.6919179 13.980408,5.7675733 C 13.905487,5.8432294 13.801919,5.8810571 13.669705,5.8810571 C 13.537859,5.8810571 13.434292,5.8432294 13.359003,5.7675733 C 13.284082,5.6919179 13.246622,5.5876163 13.246622,5.454668 C 13.246622,5.3213532 13.284082,5.2168682 13.359003,5.141212 C 13.434292,5.0655566 13.537859,5.0277289 13.669705,5.0277282 M 14.824922,5.0684943 L 14.824922,5.2425751 C 14.779748,5.2223771 14.735678,5.2071352 14.692707,5.1968515 C 14.649739,5.1865693 14.609157,5.1814275 14.570961,5.1814267 C 14.520279,5.1814275 14.482819,5.1884056 14.458581,5.2023605 C 14.434341,5.2163168 14.422222,5.2379855 14.422222,5.2673658 C 14.422222,5.2894016 14.430302,5.3066627 14.446459,5.3191491 C 14.462986,5.3312691 14.492736,5.3417363 14.535704,5.35055 L 14.62605,5.3687296 C 14.717498,5.3870928 14.782503,5.4150047 14.821065,5.4524645 C 14.859628,5.4899251 14.878909,5.5431783 14.878909,5.6122227 C 14.878909,5.7029358 14.851915,5.7705117 14.797927,5.8149497 C 14.744309,5.8590213 14.662225,5.8810571 14.55168,5.8810571 C 14.499529,5.8810571 14.447195,5.8760988 14.394676,5.866183 C 14.342159,5.8562664 14.28964,5.8415766 14.237121,5.8221114 L 14.237121,5.6430723 C 14.28964,5.6709841 14.340322,5.6921014 14.389169,5.7064248 C 14.43838,5.7203811 14.485758,5.7273586 14.531299,5.7273586 C 14.577572,5.7273586 14.613011,5.7196462 14.63762,5.7042214 C 14.662225,5.6887966 14.674528,5.6667608 14.674528,5.6381147 C 14.674528,5.6124063 14.666081,5.5925746 14.649188,5.5786183 C 14.632662,5.5646627 14.599424,5.5521756 14.549478,5.5411577 L 14.467394,5.5229781 C 14.385127,5.5053506 14.324898,5.4772552 14.286701,5.4386925 C 14.248874,5.4001306 14.229961,5.348163 14.229961,5.2827906 C 14.229961,5.200892 14.256403,5.1379073 14.309289,5.0938356 C 14.362174,5.0497647 14.438197,5.0277289 14.537357,5.0277282 C 14.582529,5.0277289 14.628988,5.031218 14.676732,5.0381954 C 14.724476,5.0448072 14.773872,5.0549066 14.824922,5.0684943 M 2.0227922,7.2990474 L 2.2927279,7.2990474 L 2.4800309,7.7392085 L 2.6684351,7.2990474 L 2.9378202,7.2990474 L 2.9378202,8.121526 L 2.7372967,8.121526 L 2.7372967,7.5199539 L 2.5477903,7.9634206 L 2.4133735,7.9634206 L 2.2238671,7.5199539 L 2.2238671,8.121526 L 2.0227922,8.121526 L 2.0227922,7.2990474 M 3.1466075,7.2990474 L 3.718982,7.2990474 L 3.718982,7.4593562 L 3.3587003,7.4593562 L 3.3587003,7.6125041 L 3.6974976,7.6125041 L 3.6974976,7.7728129 L 3.3587003,7.7728129 L 3.3587003,7.9612172 L 3.731102,7.9612172 L 3.731102,8.121526 L 3.1466075,8.121526 L 3.1466075,7.2990474 M 4.490228,7.3249394 L 4.490228,7.4990202 C 4.4450543,7.4788215 4.4009834,7.4635802 4.3580146,7.4532966 C 4.3150444,7.4430136 4.2744626,7.4378725 4.2362677,7.4378718 C 4.1855851,7.4378725 4.1481252,7.44485 4.123886,7.4588055 C 4.0996467,7.4727618 4.0875275,7.4944298 4.0875275,7.5238101 C 4.0875275,7.5458467 4.095607,7.5631078 4.1117667,7.5755941 C 4.1282929,7.5877141 4.1580411,7.5981814 4.2010106,7.6069951 L 4.2913565,7.625174 C 4.3828038,7.6435379 4.4478084,7.671449 4.4863718,7.7089096 C 4.524933,7.7463702 4.5442147,7.7996227 4.5442155,7.868667 C 4.5442147,7.9593808 4.5172206,8.0269567 4.4632347,8.0713947 C 4.4096136,8.1154664 4.3275315,8.1375014 4.2169868,8.1375014 C 4.1648356,8.1375014 4.112501,8.1325439 4.0599827,8.1226273 C 4.0074645,8.1127115 3.9549462,8.098021 3.9024287,8.0785564 L 3.9024287,7.8995173 C 3.9549462,7.9274292 4.0056282,7.9485465 4.0544738,7.9628699 C 4.1036865,7.9768255 4.1510629,7.9838036 4.1966037,7.9838036 C 4.242878,7.9838036 4.2783188,7.9760913 4.3029251,7.9606657 C 4.3275315,7.945241 4.3398343,7.9232059 4.339835,7.894559 C 4.3398343,7.8688513 4.3313877,7.8490197 4.3144944,7.8350634 C 4.2979668,7.8211078 4.2647296,7.8086207 4.2147833,7.7976028 L 4.1327005,7.7794232 C 4.050434,7.761795 3.9902034,7.7336995 3.9520086,7.6951369 C 3.9141809,7.6565749 3.895267,7.6046081 3.895267,7.5392349 C 3.895267,7.4573371 3.9217097,7.3943516 3.9745951,7.35028 C 4.0274804,7.3062098 4.1035029,7.284174 4.2026633,7.2841733 C 4.2478363,7.284174 4.2942942,7.2876631 4.3420385,7.2946405 C 4.389782,7.3012515 4.4391783,7.3113517 4.490228,7.3249394 M 5.2526596,7.3249394 L 5.2526596,7.4990202 C 5.2074859,7.4788215 5.163415,7.4635802 5.1204462,7.4532966 C 5.0774759,7.4430136 5.0368941,7.4378725 4.9986993,7.4378718 C 4.9480174,7.4378725 4.9105568,7.44485 4.8863175,7.4588055 C 4.8620783,7.4727618 4.849959,7.4944298 4.849959,7.5238101 C 4.849959,7.5458467 4.8580385,7.5631078 4.8741983,7.5755941 C 4.8907244,7.5877141 4.9204726,7.5981814 4.9634421,7.6069951 L 5.0537881,7.625174 C 5.1452354,7.6435379 5.2102407,7.671449 5.2488034,7.7089096 C 5.2873653,7.7463702 5.3066463,7.7996227 5.306647,7.868667 C 5.3066463,7.9593808 5.2796522,8.0269567 5.2256662,8.0713947 C 5.1720452,8.1154664 5.089963,8.1375014 4.9794183,8.1375014 C 4.9272672,8.1375014 4.8749325,8.1325439 4.8224143,8.1226273 C 4.769896,8.1127115 4.7173785,8.098021 4.6648603,8.0785564 L 4.6648603,7.8995173 C 4.7173785,7.9274292 4.7680597,7.9485465 4.8169053,7.9628699 C 4.866118,7.9768255 4.9134944,7.9838036 4.9590353,7.9838036 C 5.0053096,7.9838036 5.0407503,7.9760913 5.0653567,7.9606657 C 5.089963,7.945241 5.1022658,7.9232059 5.1022666,7.894559 C 5.1022658,7.8688513 5.0938192,7.8490197 5.076926,7.8350634 C 5.0603984,7.8211078 5.0271618,7.8086207 4.9772149,7.7976028 L 4.895132,7.7794232 C 4.8128656,7.761795 4.7526349,7.7336995 4.7144401,7.6951369 C 4.6766124,7.6565749 4.6576986,7.6046081 4.6576986,7.5392349 C 4.6576986,7.4573371 4.6841412,7.3943516 4.7370266,7.35028 C 4.789912,7.3062098 4.8659345,7.284174 4.9650949,7.2841733 C 5.0102679,7.284174 5.0567257,7.2876631 5.10447,7.2946405 C 5.1522135,7.3012515 5.2016098,7.3113517 5.2526596,7.3249394 M 5.9925046,7.9716836 L 5.6608691,7.9716836 L 5.6085344,8.121526 L 5.3953402,8.121526 L 5.6999824,7.2990474 L 5.9528406,7.2990474 L 6.2574828,8.121526 L 6.0442886,8.121526 L 5.9925046,7.9716836 M 5.7137544,7.8190872 L 5.9390686,7.8190872 L 5.8266868,7.4918585 L 5.7137544,7.8190872 M 7.105302,8.0603768 C 7.0524159,8.0860853 6.9975107,8.1053662 6.9405863,8.1182205 C 6.8836605,8.1310747 6.8248983,8.1375014 6.7643013,8.1375014 C 6.6273132,8.1375014 6.5187876,8.0993066 6.4387254,8.022917 C 6.3586624,7.9461595 6.3186312,7.8422251 6.3186312,7.7111131 C 6.3186312,7.5785325 6.3593973,7.474231 6.4409288,7.3982078 C 6.5224603,7.3221853 6.6341071,7.284174 6.7758699,7.2841733 C 6.8305916,7.284174 6.8829255,7.2893158 6.9328739,7.299598 C 6.9831873,7.3098825 7.0305637,7.3251237 7.0750032,7.3453217 L 7.0750032,7.5155471 C 7.0290952,7.4894723 6.9833716,7.4700077 6.9378315,7.4571528 C 6.8926578,7.4442993 6.8473012,7.4378725 6.8017619,7.4378718 C 6.7172913,7.4378725 6.6521031,7.4615604 6.6061959,7.5089368 C 6.5606551,7.5559461 6.5378858,7.6233384 6.5378858,7.7111131 C 6.5378858,7.7981535 6.5599209,7.8653623 6.6039925,7.9127387 C 6.6480634,7.9601151 6.710681,7.9838036 6.7918461,7.9838036 C 6.8138812,7.9838036 6.8342635,7.982518 6.8529945,7.9799474 C 6.8720919,7.977009 6.8891694,7.9726022 6.9042271,7.9667261 L 6.9042271,7.806968 L 6.7747685,7.806968 L 6.7747685,7.664838 L 7.105302,7.664838 L 7.105302,8.0603768 M 7.2915029,7.2990474 L 7.8638771,7.2990474 L 7.8638771,7.4593562 L 7.5035955,7.4593562 L 7.5035955,7.6125041 L 7.8423927,7.6125041 L 7.8423927,7.7728129 L 7.5035955,7.7728129 L 7.5035955,7.9612172 L 7.8759971,7.9612172 L 7.8759971,8.121526 L 7.2915029,8.121526 L 7.2915029,7.2990474 M 3.6451629,14.980839 L 3.6451629,15.4827 L 3.7211855,15.4827 C 3.8078588,15.4827 3.8739655,15.461215 3.9195063,15.418246 C 3.9654127,15.375277 3.9883663,15.312843 3.9883671,15.230943 C 3.9883663,15.149412 3.9655963,15.087345 3.9200569,15.044742 C 3.8745161,15.002141 3.8082259,14.98084 3.7211855,14.980839 L 3.6451629,14.980839 M 3.4330701,14.82053 L 3.6567315,14.82053 C 3.7815996,14.820531 3.8745161,14.829529 3.9354817,14.847524 C 3.9968137,14.865153 4.0493319,14.895268 4.0930364,14.93787 C 4.1315976,14.974964 4.1602438,15.017749 4.1789755,15.066227 C 4.1977043,15.114706 4.2070695,15.169611 4.2070702,15.230943 C 4.2070695,15.29301 4.1977043,15.348467 4.1789755,15.397312 C 4.1602438,15.44579 4.1315976,15.488576 4.0930364,15.52567 C 4.0489648,15.568271 3.9960787,15.59857 3.9343804,15.616566 C 3.8726798,15.634194 3.7801304,15.643009 3.6567315,15.643009 L 3.4330701,15.643009 L 3.4330701,14.82053 M 4.8686893,15.493167 L 4.5370538,15.493167 L 4.4847191,15.643009 L 4.2715249,15.643009 L 4.5761671,14.82053 L 4.8290253,14.82053 L 5.1336675,15.643009 L 4.9204733,15.643009 L 4.8686893,15.493167 M 4.5899391,15.34057 L 4.8152533,15.34057 L 4.7028715,15.013341 L 4.5899391,15.34057 M 5.0559922,14.82053 L 5.8140162,14.82053 L 5.8140162,14.980839 L 5.5413256,14.980839 L 5.5413256,15.643009 L 5.3292335,15.643009 L 5.3292335,14.980839 L 5.0559922,14.980839 L 5.0559922,14.82053 M 5.9230924,14.82053 L 6.4954669,14.82053 L 6.4954669,14.980839 L 6.1351852,14.980839 L 6.1351852,15.133986 L 6.4739825,15.133986 L 6.4739825,15.294296 L 6.1351852,15.294296 L 6.1351852,15.4827 L 6.5075869,15.4827 L 6.5075869,15.643009 L 5.9230924,15.643009 L 5.9230924,14.82053 M 9.6465568,14.846422 L 9.6465568,15.020503 C 9.6013831,15.000304 9.5573122,14.985063 9.5143434,14.97478 C 9.4713731,14.964497 9.4307913,14.959355 9.3925965,14.959355 C 9.3419146,14.959355 9.304454,14.966333 9.2802155,14.980288 C 9.2559762,14.994245 9.2438562,15.015913 9.2438562,15.045293 C 9.2438562,15.06733 9.2519358,15.084591 9.2680955,15.097077 C 9.2846224,15.109197 9.3143698,15.119664 9.3573401,15.128477 L 9.447686,15.146657 C 9.5391326,15.16502 9.6041379,15.192932 9.6427006,15.230393 C 9.6812625,15.267853 9.7005435,15.321106 9.7005442,15.39015 C 9.7005435,15.480864 9.6735501,15.54844 9.6195634,15.592878 C 9.5659431,15.636949 9.4838602,15.658984 9.3733155,15.658984 C 9.3211644,15.658984 9.2688297,15.654027 9.2163122,15.64411 C 9.163794,15.634194 9.1112757,15.619504 9.0587575,15.600039 L 9.0587575,15.421 C 9.1112757,15.448912 9.1619577,15.470029 9.2108033,15.484352 C 9.260016,15.498308 9.3073924,15.505287 9.3529325,15.505287 C 9.3992068,15.505287 9.4346475,15.497574 9.4592546,15.482149 C 9.4838602,15.466724 9.4961638,15.444689 9.4961638,15.416042 C 9.4961638,15.390334 9.4877164,15.370502 9.4708232,15.356546 C 9.4542956,15.342591 9.4210591,15.330104 9.3711121,15.319086 L 9.2890292,15.300906 C 9.2067628,15.283278 9.1465322,15.255182 9.1083373,15.21662 C 9.0705096,15.178058 9.0515958,15.126091 9.0515958,15.060718 C 9.0515958,14.97882 9.0780385,14.915835 9.1309238,14.871763 C 9.1838092,14.827693 9.2598317,14.805657 9.3589928,14.805656 C 9.4041651,14.805657 9.4506237,14.809146 9.4983679,14.816123 C 9.5461107,14.822734 9.595507,14.832835 9.6465568,14.846422 M 10.53955,15.597836 C 10.500619,15.618035 10.460037,15.633277 10.417803,15.64356 C 10.375567,15.653843 10.331496,15.658984 10.285589,15.658984 C 10.148601,15.658984 10.040076,15.62079 9.9600135,15.544399 C 9.8799505,15.467642 9.8399193,15.363708 9.8399193,15.232596 C 9.8399193,15.101118 9.8799505,14.997183 9.9600135,14.920792 C 10.040076,14.844035 10.148601,14.805657 10.285589,14.805656 C 10.331496,14.805657 10.375567,14.810799 10.417803,14.821081 C 10.460037,14.831365 10.500619,14.846607 10.53955,14.866805 L 10.53955,15.03703 C 10.500252,15.01022 10.461506,14.990572 10.423312,14.978084 C 10.385116,14.965599 10.344902,14.959355 10.302667,14.959355 C 10.227011,14.959355 10.167514,14.983594 10.124178,15.032072 C 10.080842,15.080551 10.059173,15.147392 10.059173,15.232596 C 10.059173,15.317433 10.080842,15.384091 10.124178,15.432569 C 10.167514,15.481047 10.227011,15.505287 10.302667,15.505287 C 10.344902,15.505287 10.385116,15.499043 10.423312,15.486556 C 10.461506,15.474069 10.500252,15.454421 10.53955,15.427611 L 10.53955,15.597836 M 10.715834,14.82053 L 11.288208,14.82053 L 11.288208,14.980839 L 10.927927,14.980839 L 10.927927,15.133986 L 11.266724,15.133986 L 11.266724,15.294296 L 10.927927,15.294296 L 10.927927,15.4827 L 11.300328,15.4827 L 11.300328,15.643009 L 10.715834,15.643009 L 10.715834,14.82053 M 11.48708,14.82053 L 11.723963,14.82053 L 12.023096,15.384642 L 12.023096,14.82053 L 12.224171,14.82053 L 12.224171,15.643009 L 11.987288,15.643009 L 11.688155,15.078897 L 11.688155,15.643009 L 11.48708,15.643009 L 11.48708,14.82053 M 12.432407,14.82053 L 13.004782,14.82053 L 13.004782,14.980839 L 12.6445,14.980839 L 12.6445,15.133986 L 12.983297,15.133986 L 12.983297,15.294296 L 12.6445,15.294296 L 12.6445,15.4827 L 13.016901,15.4827 L 13.016901,15.643009 L 12.432407,15.643009 L 12.432407,14.82053 M 15.604431,14.82053 L 16.362456,14.82053 L 16.362456,14.980839 L 16.089765,14.980839 L 16.089765,15.643009 L 15.877672,15.643009 L 15.877672,14.980839 L 15.604431,14.980839 L 15.604431,14.82053 M 16.882495,15.493167 L 16.55086,15.493167 L 16.498526,15.643009 L 16.285331,15.643009 L 16.589974,14.82053 L 16.84283,14.82053 L 17.147473,15.643009 L 16.934278,15.643009 L 16.882495,15.493167 M 16.603745,15.34057 L 16.829059,15.34057 L 16.716678,15.013341 L 16.603745,15.34057 M 17.255999,14.82053 L 17.468092,14.82053 L 17.468092,15.120765 L 17.773836,14.82053 L 18.020084,14.82053 L 17.623993,15.21001 L 18.060848,15.643009 L 17.795319,15.643009 L 17.468092,15.319086 L 17.468092,15.643009 L 17.255999,15.643009 L 17.255999,14.82053 M 18.130811,14.82053 L 18.703187,14.82053 L 18.703187,14.980839 L 18.342903,14.980839 L 18.342903,15.133986 L 18.681702,15.133986 L 18.681702,15.294296 L 18.342903,15.294296 L 18.342903,15.4827 L 18.715306,15.4827 L 18.715306,15.643009 L 18.130811,15.643009 L 18.130811,14.82053 M 8.7825778,7.6514331 L 19.970785,7.6514331 L 19.970785,7.8394703 L 8.7825778,7.8394703 L 8.7825778,7.6514331 z M 2.0602528,16.442166 L 19.970785,16.442166 L 19.970785,16.630203 L 2.0602528,16.630203 L 2.0602528,16.442166 z M 8.0539343,16.465671 L 8.0539343,20.320431 L 7.865897,20.320431 L 7.865897,16.465671 L 8.0539343,16.465671 z M 14.165139,16.465671 L 14.165139,20.320431 L 13.977102,20.320431 L 13.977102,16.465671 L 14.165139,16.465671 z" font-family="DejaVu Sans" font-size="6" font-stretch="normal" font-style="normal" font-variant="normal" font-weight="bold" opacity=".8" text-anchor="start" writing-mode="lr-tb" style="text-align:start;line-height:125%;-inkscape-font-specification:DejaVu Sans Bold"/></g><g id="layer2" display="inline"><path id="rect16165" fill="#000" fill-opacity="1" fill-rule="evenodd" stroke="none" d="M 3,1 C 1.892,1 1,1.892 1,3 L 1,4 21,4 21,3 C 21,1.892 20.108,1 19,1 L 3,1 z"/><rect id="rect3250" width="20" height="3" x="1" y="4" fill="url(#linearGradient16487)" fill-opacity="1" fill-rule="evenodd" stroke="none" opacity=".6"/><path id="rect3231" fill="#f0f0f0" fill-opacity="1" fill-rule="evenodd" stroke="none" d="M 17.068962,1.000444 16.034483,2.500222 17.068962,4 19.13793,4 18.103449,2.500222 19.13793,1.000444 l -2.068968,0 z"/><path id="path3237" fill="#f0f0f0" fill-opacity="1" fill-rule="evenodd" stroke="none" d="M 12.975228,1.000444 11.940746,2.500222 12.975228,4 l 2.068966,0 -1.034482,-1.499778 1.034482,-1.499778 -2.068966,0 z"/><path id="path3239" fill="#f0f0f0" fill-opacity="1" fill-rule="evenodd" stroke="none" d="M 9.014075,1.000444 7.979592,2.500222 9.014075,4 11.08304,4 10.048558,2.500222 11.08304,1.000444 l -2.068965,0 z"/><path id="path3241" fill="#f0f0f0" fill-opacity="1" fill-rule="evenodd" stroke="none" d="M 5.030824,1.000444 3.996341,2.500222 5.030824,4 7.099789,4 6.065306,2.500222 7.099789,1.000444 l -2.068965,0 z"/></g><g id="layer4" display="inline"><path id="path4320" fill="#000" fill-opacity="1" stroke="#000" stroke-dasharray="none" stroke-miterlimit="4" stroke-opacity="1" stroke-width=".271" d="m 7.9593082,3.7862256 0,9.4231494 c -0.6617711,-0.259158 -1.52656,-0.303444 -2.4189876,-0.06203 -1.6678593,0.451187 -2.7861359,1.717809 -2.4922902,2.824972 0.2938458,1.107163 1.8844998,1.640945 3.5523594,1.189758 1.4170031,-0.383324 2.432136,-1.355244 2.5261222,-2.317491 l 0.011277,0 0,-6.9299201 L 15,8.6646104 15,15.374622 c -0.661771,-0.259158 -1.52656,-0.303443 -2.418988,-0.06203 -1.667859,0.451187 -2.6093355,1.717808 -2.31549,2.824972 0.293846,1.107162 1.7077,1.640944 3.375559,1.189757 1.417004,-0.383324 2.432136,-1.355244 2.526122,-2.317491 l 0.01128,0 0,-12.1071536 L 7.9593082,3.7862256 z M 9.1377893,6.0539082 15,6.9053467 15,7.6665666 9.1377893,6.916624 l 0,-0.8627158 z" filter="url(#filter4322)" opacity=".8"/><path id="path3261" fill="url(#linearGradient4313)" fill-opacity="1" stroke="#2c720d" stroke-dasharray="none" stroke-miterlimit="4" stroke-opacity="1" stroke-width=".271" d="m 7.9593082,3.2857711 0,9.4231499 c -0.6617711,-0.259158 -1.52656,-0.303444 -2.4189876,-0.06203 -1.6678593,0.451187 -2.7861359,1.717809 -2.4922902,2.824972 0.2938458,1.107163 1.8844998,1.640945 3.5523594,1.189758 1.4170031,-0.383324 2.432136,-1.355244 2.5261222,-2.317491 l 0.011277,0 0,-6.9299206 L 15,8.1641559 15,14.874168 c -0.661771,-0.259158 -1.52656,-0.303443 -2.418988,-0.06202 -1.667859,0.451187 -2.6093355,1.717808 -2.31549,2.824972 0.293846,1.107162 1.7077,1.640944 3.375559,1.189757 1.417004,-0.383324 2.432136,-1.355244 2.526122,-2.317491 l 0.01128,0 0,-12.1071541 L 7.9593082,3.2857711 z M 9.1377893,5.5534537 15,6.4048922 15,7.1661121 9.1377893,6.4161695 l 0,-0.8627158 z"/><path id="path2494" fill="url(#radialGradient4318)" fill-opacity="1" stroke="none" d="m 56.391766,82.480003 a 14.672466,9.280777 0 1 1 -29.344933,0 14.672466,9.280777 0 1 1 29.344933,0 z" transform="matrix(0.1756301,-0.04137259,0.04137259,0.1756301,-4.6012446,1.6606741)"/><path id="path3278" fill="url(#radialGradient4316)" fill-opacity="1" stroke="none" d="m 56.391766,82.480003 a 14.672466,9.280777 0 1 1 -29.344933,0 14.672466,9.280777 0 1 1 29.344933,0 z" transform="matrix(0.1756301,-0.04137259,0.04137259,0.1756301,2.2908399,3.8471024)"/><path id="path3282" fill="none" stroke="url(#radialGradient4308)" stroke-dasharray="none" stroke-linecap="butt" stroke-linejoin="miter" stroke-miterlimit="4" stroke-opacity="1" stroke-width=".541" d="m 8.587514,9.79371 0,-5.7514389 4.150058,0.6766399"/><path id="path3292" fill="none" stroke="url(#radialGradient4305)" stroke-dasharray="none" stroke-linecap="butt" stroke-linejoin="miter" stroke-miterlimit="4" stroke-opacity="1" stroke-width=".541" d="m 15.555253,13.218998 0,-7.3143974"/></g><g id="layer6"><path id="rect3050" fill="url(#linearGradient3852)" fill-opacity="1" fill-rule="evenodd" stroke="none" d="M 3,1 C 1.892,1 1,1.892 1,3 l 0,16 c 0,1.108 0.892,2 2,2 l 16,0 c 1.108,0 2,-0.892 2,-2 L 21,3 C 21,1.892 20.108,1 19,1 L 3,1 z m 0,1.03125 16,0 c 0.5497,0 0.96875,0.4190495 0.96875,0.96875 l 0,16 c 0,0.5497 -0.41905,0.96875 -0.96875,0.96875 l -16,0 C 2.4502995,19.96875 2.03125,19.5497 2.03125,19 l 0,-16 C 2.03125,2.4502995 2.4502995,2.03125 3,2.03125 z" display="inline" opacity=".3"/><path id="path3235" fill="url(#linearGradient3845)" fill-opacity="1" fill-rule="evenodd" stroke="none" d="M 3,21 C 1.892,21 1,20.108 1,19 l 0,-1 c 0,1.108 0.892,2 2,2 l 16,0 c 1.108,0 2,-0.892 2,-2 l 0,1 c 0,1.108 -0.892,2 -2,2 L 3,21 z" display="inline" opacity=".15"/></g></svg>