<svg xmlns="http://www.w3.org/2000/svg" xmlns:svg="http://www.w3.org/2000/svg" xmlns:xlink="http://www.w3.org/1999/xlink" id="svg2" width="22" height="22" display="inline" version="1.0"><defs id="defs4"><linearGradient id="linearGradient3327"><stop id="stop3330" offset="0" stop-color="#000" stop-opacity="1"/><stop id="stop3333" offset="1" stop-color="#000" stop-opacity="0"/></linearGradient><linearGradient id="linearGradient3335" x1="11.375" x2="11.375" y1="22" y2="-9.817" gradientUnits="userSpaceOnUse" xlink:href="#linearGradient3327"/><linearGradient id="ButtonShadow" x1="9.355" x2="9.355" y1="21.743" y2=".494" gradientTransform="scale(0.9883037,1.0118347)" gradientUnits="userSpaceOnUse"><stop id="stop3277" offset="0" stop-color="#000" stop-opacity=".706"/><stop id="stop3279" offset="1" stop-color="#000" stop-opacity=".157"/></linearGradient><linearGradient id="ButtonColor" x1="10.32" x2="10.32" y1="21" y2=".999" gradientUnits="userSpaceOnUse"><stop id="stop5161" offset="0" stop-color="#8f1cac" stop-opacity="1"/><stop id="stop5163" offset="1" stop-color="#d285e6" stop-opacity="1"/></linearGradient><linearGradient id="linearGradient3181" x1="-3.061" x2="-3.061" y1="27.258" y2="7.254" gradientTransform="translate(11.119372,-6.2581978)" gradientUnits="userSpaceOnUse" xlink:href="#linearGradient3187"/><linearGradient id="linearGradient3633"><stop id="stop3635" offset="0" stop-color="#000" stop-opacity=".539"/><stop id="stop3637" offset="1" stop-color="#000" stop-opacity="0"/></linearGradient><linearGradient id="linearGradient3660"><stop id="stop3668" offset="0" stop-color="#dcdcdc" stop-opacity="1"/><stop id="stop3670" offset="1" stop-color="#fff" stop-opacity="1"/></linearGradient><linearGradient id="linearGradient3268"><stop id="stop3270" offset="0" stop-color="#414141" stop-opacity="1"/><stop id="stop3272" offset="1" stop-color="#696969" stop-opacity="1"/></linearGradient><linearGradient id="linearGradient3298"><stop id="stop3300" offset="0" stop-color="#c8c8c8" stop-opacity="1"/><stop id="stop3302" offset="1" stop-color="#d9d9d9" stop-opacity="1"/></linearGradient><linearGradient id="linearGradient3187"><stop id="stop3189" offset="0" stop-color="#a0a0a0" stop-opacity="1"/><stop id="stop3191" offset="1" stop-color="#dcdcdc" stop-opacity="1"/></linearGradient><linearGradient id="linearGradient3266" x1="45.987" x2="45.987" y1="105" y2="22.99" gradientTransform="matrix(0.1989658,0,0,0.1811141,-1.733807,-0.5915314)" gradientUnits="userSpaceOnUse" xlink:href="#linearGradient3298"/><linearGradient id="linearGradient3274" x1="51.484" x2="51.484" y1="23" y2="105" gradientTransform="matrix(0.1989658,0,0,0.1811141,-1.733807,-0.5915314)" gradientUnits="userSpaceOnUse" xlink:href="#linearGradient3268"/><linearGradient id="linearGradient3629" x1="29.247" x2="29.247" y1="41.248" y2="62.264" gradientTransform="translate(21.201413,-20.840989)" gradientUnits="userSpaceOnUse" xlink:href="#linearGradient3660"/><linearGradient id="linearGradient3639" x1="54.094" x2="54.072" y1="42.659" y2="22.156" gradientUnits="userSpaceOnUse" xlink:href="#linearGradient3633"/><linearGradient id="linearGradient3647" x1="29.247" x2="29.247" y1="41.248" y2="62.264" gradientTransform="translate(21.201413,-20.840989)" gradientUnits="userSpaceOnUse" xlink:href="#linearGradient3660"/><linearGradient id="linearGradient3649" x1="54.094" x2="53.634" y1="42.659" y2="20.779" gradientUnits="userSpaceOnUse" xlink:href="#linearGradient3633"/><linearGradient id="linearGradient3657" x1="29.247" x2="29.247" y1="41.248" y2="62.264" gradientTransform="translate(21.201413,-20.840989)" gradientUnits="userSpaceOnUse" xlink:href="#linearGradient3660"/><linearGradient id="linearGradient3659" x1="54.094" x2="53.634" y1="42.659" y2="20.779" gradientUnits="userSpaceOnUse" xlink:href="#linearGradient3633"/><linearGradient id="linearGradient3845" x1="11" x2="21" y1="19.5" y2="19.5" gradientUnits="userSpaceOnUse" spreadMethod="reflect" xlink:href="#linearGradient3831"/><linearGradient id="linearGradient3831"><stop id="stop3833" offset="0" stop-color="#fff" stop-opacity="1"/><stop id="stop3835" offset="1" stop-color="#fff" stop-opacity="0"/></linearGradient><linearGradient id="linearGradient3837" x1="10" x2="10" y1="1" y2="16" gradientUnits="userSpaceOnUse" xlink:href="#linearGradient3831"/><linearGradient id="linearGradient3884" x1="10" x2="10" y1="1" y2="16" gradientUnits="userSpaceOnUse" xlink:href="#linearGradient3831"/><linearGradient id="linearGradient3084" x1="10" x2="10" y1="1" y2="16" gradientUnits="userSpaceOnUse" xlink:href="#linearGradient3823"/><linearGradient id="linearGradient3823"><stop id="stop3825" offset="0" stop-color="#fff" stop-opacity="1"/><stop id="stop3829" offset="1" stop-color="#fff" stop-opacity="0"/></linearGradient><linearGradient id="linearGradient3845-8" x1="11" x2="21" y1="19.5" y2="19.5" gradientUnits="userSpaceOnUse" spreadMethod="reflect" xlink:href="#linearGradient3831-9"/><linearGradient id="linearGradient3831-9"><stop id="stop3833-0" offset="0" stop-color="#fff" stop-opacity="1"/><stop id="stop3821" offset=".75" stop-color="#fff" stop-opacity=".498"/><stop id="stop3835-4" offset="1" stop-color="#fff" stop-opacity="0"/></linearGradient><linearGradient id="linearGradient3852" x1="10" x2="10" y1="1" y2="16" gradientUnits="userSpaceOnUse" xlink:href="#linearGradient3823"/></defs><metadata id="metadata7"/><g id="layer1" display="inline"><g id="g3337" display="inline"><rect id="rect3371" width="21" height="21.5" x=".5" y=".5" fill="url(#linearGradient3335)" fill-opacity="1" stroke="none" stroke-dasharray="none" stroke-linecap="round" stroke-linejoin="miter" stroke-miterlimit="4" stroke-opacity="1" stroke-width="1" display="inline" opacity=".3" rx="2.5" ry="2.5"/><rect id="rect2553" width="20" height="20" x="1" y="2" fill="#000" fill-opacity="1" stroke="none" stroke-dasharray="none" stroke-linecap="round" stroke-linejoin="miter" stroke-miterlimit="4" stroke-opacity="1" stroke-width="1" display="inline" opacity=".5" rx="2.381" ry="2.326"/></g><rect id="rect3173" width="20" height="20" x="1" y="1" fill="url(#linearGradient3181)" fill-opacity="1" fill-rule="evenodd" stroke="none" stroke-dasharray="none" stroke-dashoffset="0" stroke-linecap="round" stroke-linejoin="miter" stroke-miterlimit="4" stroke-opacity="1" stroke-width=".25" display="inline" opacity="1" rx="2" ry="2"/><path id="rect3050" fill="url(#linearGradient3852)" fill-opacity="1" fill-rule="evenodd" stroke="none" d="M 3,1 C 1.892,1 1,1.892 1,3 l 0,16 c 0,1.108 0.892,2 2,2 l 16,0 c 1.108,0 2,-0.892 2,-2 L 21,3 C 21,1.892 20.108,1 19,1 L 3,1 z m 0,1.03125 16,0 c 0.5497,0 0.96875,0.4190495 0.96875,0.96875 l 0,16 c 0,0.5497 -0.41905,0.96875 -0.96875,0.96875 l -16,0 C 2.4502995,19.96875 2.03125,19.5497 2.03125,19 l 0,-16 C 2.03125,2.4502995 2.4502995,2.03125 3,2.03125 z" display="inline" opacity=".5"/><path id="path3235" fill="url(#linearGradient3845-8)" fill-opacity="1" fill-rule="evenodd" stroke="none" d="M 3,21 C 1.892,21 1,20.108 1,19 l 0,-1 c 0,1.108 0.892,2 2,2 l 16,0 c 1.108,0 2,-0.892 2,-2 l 0,1 c 0,1.108 -0.892,2 -2,2 L 3,21 z" display="inline" opacity=".3"/></g><g id="layer2" display="inline"><path id="rect3250" fill="url(#linearGradient3274)" fill-opacity="1" fill-rule="evenodd" stroke="url(#linearGradient3266)" stroke-dasharray="none" stroke-dashoffset="0" stroke-linecap="butt" stroke-linejoin="round" stroke-miterlimit="4" stroke-opacity="1" stroke-width=".5" d="M 4.1468255,3.7508835 L 4.9426891,3.7508835 C 5.1631431,3.7508835 5.3406201,3.9124374 5.3406201,4.1131123 L 5.3406201,17.877789 C 5.3406201,18.078464 5.1631431,18.240018 4.9426891,18.240018 L 4.1468255,18.240018 C 3.9263716,18.240018 3.7488945,18.078464 3.7488945,17.877789 L 3.7488945,4.1131123 C 3.7488945,3.9124374 3.9263716,3.7508835 4.1468255,3.7508835 z M 10.116202,3.7552091 L 10.912066,3.7552091 C 11.13252,3.7552091 11.309998,3.916763 11.309998,4.1174379 L 11.309998,17.882115 C 11.309998,18.08279 11.13252,18.244343 10.912066,18.244343 L 10.116202,18.244343 C 9.8957483,18.244343 9.7182713,18.08279 9.7182713,17.882115 L 9.7182713,4.1174379 C 9.7182713,3.916763 9.8957483,3.7552091 10.116202,3.7552091 z M 16.129749,3.7508835 L 16.925612,3.7508835 C 17.146066,3.7508835 17.323543,3.9124374 17.323543,4.1131123 L 17.323543,17.877789 C 17.323543,18.078464 17.146066,18.240018 16.925612,18.240018 L 16.129749,18.240018 C 15.909295,18.240018 15.731817,18.078464 15.731817,17.877789 L 15.731817,4.1131123 C 15.731817,3.9124374 15.909295,3.7508835 16.129749,3.7508835 z" display="inline"/><g id="g3624" transform="matrix(0.2855208,0,0,0.2722949,-4.6901085,5.020316)"><rect id="rect3630" width="14" height="22" x="46.201" y="20.159" fill="url(#linearGradient3629)" fill-opacity="1" fill-rule="evenodd" stroke="url(#linearGradient3639)" stroke-dasharray="none" stroke-dashoffset="0" stroke-linecap="butt" stroke-linejoin="round" stroke-miterlimit="4" stroke-opacity="1" stroke-width="3.586" rx="2" ry="2"/><path id="path3688" fill="none" fill-opacity=".75" fill-rule="evenodd" stroke="#000" stroke-dasharray="none" stroke-linecap="butt" stroke-linejoin="miter" stroke-miterlimit="4" stroke-opacity="1" stroke-width="3.586" d="M 47.94785,31.540637 L 58.454965,31.540637" opacity=".1"/></g><g id="g3641" transform="matrix(0.2855208,0,0,0.2722949,-10.690108,1.43844e-2)"><rect id="rect3643" width="14" height="22" x="46.201" y="20.159" fill="url(#linearGradient3647)" fill-opacity="1" fill-rule="evenodd" stroke="url(#linearGradient3649)" stroke-dasharray="none" stroke-dashoffset="0" stroke-linecap="butt" stroke-linejoin="round" stroke-miterlimit="4" stroke-opacity="1" stroke-width="3.586" rx="2" ry="2"/><path id="path3645" fill="none" fill-opacity=".75" fill-rule="evenodd" stroke="#000" stroke-dasharray="none" stroke-linecap="butt" stroke-linejoin="miter" stroke-miterlimit="4" stroke-opacity="1" stroke-width="3.586" d="M 47.94785,31.540637 L 58.454965,31.540637" opacity=".1"/></g><g id="g3651" transform="matrix(0.2855208,0,0,0.2722949,1.3098915,2.0143844)"><rect id="rect3653" width="14" height="22" x="46.201" y="20.159" fill="url(#linearGradient3657)" fill-opacity="1" fill-rule="evenodd" stroke="url(#linearGradient3659)" stroke-dasharray="none" stroke-dashoffset="0" stroke-linecap="butt" stroke-linejoin="round" stroke-miterlimit="4" stroke-opacity="1" stroke-width="3.586" rx="2" ry="2"/><path id="path3655" fill="none" fill-opacity=".75" fill-rule="evenodd" stroke="#000" stroke-dasharray="none" stroke-linecap="butt" stroke-linejoin="miter" stroke-miterlimit="4" stroke-opacity="1" stroke-width="3.586" d="M 47.94785,31.540637 L 58.454965,31.540637" opacity=".1"/></g></g></svg>