<svg xmlns="http://www.w3.org/2000/svg" xmlns:svg="http://www.w3.org/2000/svg" xmlns:xlink="http://www.w3.org/1999/xlink" id="svg2" width="22" height="22" display="inline" version="1.0"><defs id="defs4"><linearGradient id="linearGradient3972"><stop id="stop3974" offset="0" stop-color="#000" stop-opacity="1"/><stop id="stop3976" offset="1" stop-color="#000" stop-opacity="0"/></linearGradient><linearGradient id="linearGradient3327"><stop id="stop3330" offset="0" stop-color="#000" stop-opacity="1"/><stop id="stop3333" offset="1" stop-color="#000" stop-opacity="0"/></linearGradient><linearGradient id="linearGradient3335" x1="11.375" x2="11.375" y1="22" y2="-9.817" gradientUnits="userSpaceOnUse" xlink:href="#linearGradient3327"/><linearGradient id="ButtonShadow" x1="9.355" x2="9.355" y1="21.743" y2=".494" gradientTransform="scale(0.9883037,1.0118347)" gradientUnits="userSpaceOnUse"><stop id="stop3277" offset="0" stop-color="#000" stop-opacity=".706"/><stop id="stop3279" offset="1" stop-color="#000" stop-opacity=".157"/></linearGradient><linearGradient id="linearGradient3232"><stop id="stop3234" offset="0" stop-color="#000" stop-opacity="1"/><stop id="stop3236" offset="1" stop-color="#000" stop-opacity="0"/></linearGradient><linearGradient id="linearGradient3221" x1="11" x2="11" y1="14.806" y2="-6" gradientUnits="userSpaceOnUse" xlink:href="#linearGradient3232"/><linearGradient id="ButtonColor" x1="10.32" x2="10.32" y1="21" y2=".999" gradientUnits="userSpaceOnUse"><stop id="stop3189" offset="0" stop-color="#29669f" stop-opacity="1"/><stop id="stop3191" offset="1" stop-color="#88b6e0" stop-opacity="1"/></linearGradient><linearGradient id="linearGradient38042" x1="9.355" x2="9.355" y1="21.743" y2=".494" gradientTransform="scale(0.9883037,1.0118347)" gradientUnits="userSpaceOnUse" xlink:href="#ButtonShadow"/><filter id="filter3194" width="1.36" height="1.36" x="-.18" y="-.18" color-interpolation-filters="sRGB"><feGaussianBlur id="feGaussianBlur3196" stdDeviation="1.2"/></filter><clipPath id="clipPath2849" clipPathUnits="userSpaceOnUse"><rect id="rect2851" width="20" height="20" x="1" y="1" fill="#fff" fill-opacity="1" fill-rule="evenodd" stroke="none" display="inline" rx="2" ry="2"/></clipPath><radialGradient id="radialGradient2858" cx="48" cy="90.172" r="42" fx="48" fy="90.172" gradientTransform="matrix(0.29846825,0,0,0.25684224,-33.578346,-5.1388041)" gradientUnits="userSpaceOnUse" xlink:href="#linearGradient3737-4"/><linearGradient id="linearGradient3737-4"><stop id="stop3739-1" offset="0" stop-color="#fff" stop-opacity="1"/><stop id="stop3741-8" offset="1" stop-color="#fff" stop-opacity="0"/></linearGradient><linearGradient id="linearGradient4424" x1="8.965" x2="8.965" y1="44.04" y2="52.263" gradientTransform="matrix(-0.25789762,0,0,0.25789762,-5.850364,-12.189644)" gradientUnits="userSpaceOnUse" xlink:href="#linearGradient4414"/><linearGradient id="linearGradient4414"><stop id="stop4416" offset="0" stop-color="#dac3a2" stop-opacity="1"/><stop id="stop4418" offset="1" stop-color="#dac3a2" stop-opacity="0"/></linearGradient><linearGradient id="linearGradient4420" x1="8.965" x2="8.965" y1="44.04" y2="52.263" gradientTransform="matrix(0.25789762,0,0,0.25789762,-0.04760323,-1.3488591)" gradientUnits="userSpaceOnUse" xlink:href="#linearGradient4414"/><linearGradient id="linearGradient3737"><stop id="stop3739" offset="0" stop-color="#fff" stop-opacity="1"/><stop id="stop3741" offset="1" stop-color="#fff" stop-opacity="0"/></linearGradient><linearGradient id="linearGradient3277" x1="50.499" x2="50.499" y1="19.882" y2="47.295" gradientTransform="matrix(0.26307136,0,0,0.26307136,-32.997348,-3.7051321)" gradientUnits="userSpaceOnUse" xlink:href="#linearGradient4309"/><linearGradient id="linearGradient4309" x1="52.25" x2="52.25" y1="47.247" y2=".239" gradientUnits="userSpaceOnUse"><stop id="stop4311" offset="0" stop-color="#d8cab2" stop-opacity="1"/><stop id="stop4321" offset=".457" stop-color="#d2b98c" stop-opacity="1"/><stop id="stop4323" offset=".486" stop-color="#F9F7EF"/><stop id="stop4325" offset=".491" stop-color="#FFF"/><stop id="stop4327" offset=".492" stop-color="#FBF9F4"/><stop id="stop4329" offset=".495" stop-color="#EFE7D0"/><stop id="stop4331" offset=".498" stop-color="#E4D6B0"/><stop id="stop4333" offset=".501" stop-color="#DAC894"/><stop id="stop4335" offset=".505" stop-color="#c7a572" stop-opacity="1"/><stop id="stop4347" offset="1" stop-color="#d7c198" stop-opacity="1"/></linearGradient><linearGradient id="linearGradient3264" x1="47.227" x2="6.33" y1="29.04" y2="18.082" gradientTransform="matrix(-0.23809522,0,0,0.23809522,22.42857,-0.4761893)" gradientUnits="userSpaceOnUse" xlink:href="#linearGradient4295"/><linearGradient id="linearGradient4295"><stop id="stop4297" offset="0" stop-color="#b88f56" stop-opacity="1"/><stop id="stop4299" offset="1" stop-color="#d9bd98" stop-opacity="1"/></linearGradient><linearGradient id="linearGradient2489" x1="48" x2="6.781" y1="42" y2="18.202" gradientTransform="matrix(0.23809522,0,0,0.23809522,-0.4285716,-0.4761893)" gradientUnits="userSpaceOnUse" xlink:href="#linearGradient4295"/><linearGradient id="linearGradient3134"><stop id="stop3136" offset="0" stop-color="#b88f56" stop-opacity="1"/><stop id="stop3138" offset="1" stop-color="#d9bd98" stop-opacity="1"/></linearGradient><linearGradient id="linearGradient5092"><stop id="stop5094" offset="0" stop-color="#be9f6a" stop-opacity="1"/><stop id="stop5096" offset="1" stop-color="#e5d2b2" stop-opacity="1"/></linearGradient><linearGradient id="linearGradient4394" x1="10" x2="10" y1="40.263" y2="89.666" gradientTransform="matrix(0.25789762,0,0,0.25789762,-31.630956,-5.1896441)" gradientUnits="userSpaceOnUse" xlink:href="#linearGradient3737"/><linearGradient id="linearGradient4402" x1="10" x2="10" y1="40.263" y2="89.666" gradientTransform="matrix(-0.25789762,0,0,0.25789762,-7.872784,-5.1896441)" gradientUnits="userSpaceOnUse" xlink:href="#linearGradient3737"/><linearGradient id="linearGradient4400" x1="8" x2="8" y1="38.127" y2="87.03" gradientTransform="matrix(-0.25789762,0,0,0.25789762,-6.872784,-5.1896441)" gradientUnits="userSpaceOnUse" xlink:href="#linearGradient4370"/><linearGradient id="linearGradient4370"><stop id="stop4372" offset="0" stop-color="#8a5b30" stop-opacity="1"/><stop id="stop4374" offset="1" stop-color="#8a5b30" stop-opacity="0"/></linearGradient><radialGradient id="radialGradient4432" cx="48" cy="73.146" r="42" fx="48" fy="73.146" gradientTransform="matrix(0.2066107,0,0,0.02267574,1.082686,8.14059)" gradientUnits="userSpaceOnUse" xlink:href="#linearGradient4426"/><linearGradient id="linearGradient4426"><stop id="stop4428" offset="0" stop-color="#71461e" stop-opacity="1"/><stop id="stop4430" offset="1" stop-color="#71461e" stop-opacity="0"/></linearGradient><linearGradient id="linearGradient3706" x1="54.187" x2="54.187" y1="90" y2="39.853" gradientTransform="matrix(0.25789762,0,0,0.25789762,-31.630956,-5.1896441)" gradientUnits="userSpaceOnUse" xlink:href="#linearGradient4289"/><linearGradient id="linearGradient4289"><stop id="stop4291" offset="0" stop-color="#996c3b" stop-opacity="1"/><stop id="stop4293" offset="1" stop-color="#c19e6d" stop-opacity="1"/></linearGradient><linearGradient id="linearGradient4376" x1="8" x2="8" y1="38.127" y2="71.877" gradientUnits="userSpaceOnUse" xlink:href="#linearGradient4370"/><linearGradient id="linearGradient3198" x1="8" x2="8" y1="38.127" y2="71.877" gradientTransform="matrix(0.25789762,0,0,0.25789762,-31.630956,-5.1896441)" gradientUnits="userSpaceOnUse" xlink:href="#linearGradient4370"/><radialGradient id="radialGradient3820" cx="48" cy="73.146" r="42" fx="48" fy="73.146" gradientTransform="matrix(0.2066107,0,0,0.02267574,31.082686,8.14059)" gradientUnits="userSpaceOnUse" xlink:href="#linearGradient4426"/><linearGradient id="linearGradient3822" x1="47.079" x2="6.596" y1="32.783" y2="9.41" gradientTransform="matrix(0.23809522,0,0,0.23809522,29.571428,-0.4761893)" gradientUnits="userSpaceOnUse" xlink:href="#linearGradient5092"/><linearGradient id="linearGradient3824" x1="48" x2="6.781" y1="42" y2="18.202" gradientTransform="matrix(0.23809522,0,0,0.23809522,29.571428,-0.4761893)" gradientUnits="userSpaceOnUse" xlink:href="#linearGradient4295"/><linearGradient id="linearGradient3826" x1="47.227" x2="6.33" y1="29.04" y2="18.082" gradientTransform="matrix(-0.23809522,0,0,0.23809522,52.42857,-0.4761893)" gradientUnits="userSpaceOnUse" xlink:href="#linearGradient4295"/><linearGradient id="linearGradient3828" x1="23.143" x2="66.964" y1="42" y2="6" gradientTransform="matrix(0.23809522,0,0,0.23809522,29.571428,-0.4761893)" gradientUnits="userSpaceOnUse" xlink:href="#linearGradient3737"/><linearGradient id="linearGradient3835" x1="-3.061" x2="-3.061" y1="27.258" y2="7.254" gradientTransform="translate(11.119372,23.741802)" gradientUnits="userSpaceOnUse" xlink:href="#ButtonColor"/><linearGradient id="linearGradient3865" x1="6" x2="16" y1="9" y2="1" gradientUnits="userSpaceOnUse" xlink:href="#linearGradient3737-4"/><linearGradient id="linearGradient3867" x1="-3.061" x2="-3.061" y1="27.258" y2="7.254" gradientTransform="translate(11.119372,-6.2581977)" gradientUnits="userSpaceOnUse" xlink:href="#linearGradient4289"/><linearGradient id="linearGradient3871" x1="10" x2="10" y1="40.263" y2="89.666" gradientTransform="matrix(0.25789762,0,0,0.20929333,-0.07883586,2.0414377)" gradientUnits="userSpaceOnUse" xlink:href="#linearGradient3737"/><linearGradient id="linearGradient3877" x1="10" x2="10" y1="40.263" y2="89.666" gradientTransform="matrix(-0.25789762,0,0,0.20638289,22.074726,2.1462134)" gradientUnits="userSpaceOnUse" xlink:href="#linearGradient3737"/><linearGradient id="linearGradient3879" x1="8.965" x2="8.965" y1="44.04" y2="52.263" gradientTransform="matrix(-0.25789762,0,0,0.25789762,22.043494,-1.3488591)" gradientUnits="userSpaceOnUse" xlink:href="#linearGradient4414"/><linearGradient id="linearGradient3883" x1="8" x2="8" y1="38.127" y2="87.03" gradientTransform="matrix(-0.25789762,0,0,0.2166481,22.060961,0.53562129)" gradientUnits="userSpaceOnUse" xlink:href="#linearGradient4370"/><linearGradient id="linearGradient3889" x1="50.499" x2="50.499" y1="19.882" y2="47.295" gradientTransform="matrix(0.2514503,0,0,0.2514503,-2.2295098,0.92066851)" gradientUnits="userSpaceOnUse" xlink:href="#linearGradient4309"/><filter id="filter3895" width="1.3" height="1.095" x="-.15" y="-.047" color-interpolation-filters="sRGB"><feGaussianBlur id="feGaussianBlur3897" stdDeviation=".248"/></filter><linearGradient id="linearGradient3844" x1="51.429" x2="90.714" y1="72.786" y2="72.786" gradientUnits="userSpaceOnUse" xlink:href="#linearGradient3778"/><linearGradient id="linearGradient3778"><stop id="stop3780" offset="0" stop-color="#499119" stop-opacity="1"/><stop id="stop3782" offset="1" stop-color="#8fd625" stop-opacity="1"/></linearGradient><linearGradient id="linearGradient3908" x1="123.075" x2="123.075" y1="75.788" y2="59.879" gradientUnits="userSpaceOnUse" xlink:href="#linearGradient5010"/><linearGradient id="linearGradient5010"><stop id="stop5012" offset="0" stop-color="#000" stop-opacity="1"/><stop id="stop5014" offset="1" stop-color="#000" stop-opacity="0"/></linearGradient><clipPath id="clipPath3894" clipPathUnits="userSpaceOnUse"><path id="path3896" fill="#fff" fill-opacity="1" stroke="none" d="m 128,56 c -9.94113,0 -18,8.058875 -18,18 0,9.941125 8.05887,18 18,18 9.94113,0 18,-8.058875 18,-18 0,-9.941125 -8.05887,-18 -18,-18 z m -6,4.5 12,0 0,13.75 5,0 -11,13.75 -11,-13.75 5,0 0,-13.75 z"/></clipPath><linearGradient id="linearGradient3226" x1="51.429" x2="90.714" y1="72.786" y2="72.786" gradientUnits="userSpaceOnUse" xlink:href="#linearGradient3778"/><linearGradient id="linearGradient3953" x1="51.429" x2="90.714" y1="72.786" y2="72.786" gradientTransform="matrix(0,-0.30545455,0.30545455,0,12.767273,39.709091)" gradientUnits="userSpaceOnUse" xlink:href="#linearGradient3778"/><linearGradient id="linearGradient3955" x1="15.843" x2="15.843" y1="18.633" y2="14.039" gradientTransform="translate(19,-2)" gradientUnits="userSpaceOnUse" xlink:href="#linearGradient3737-4"/><clipPath id="clipPath3962" clipPathUnits="userSpaceOnUse"><path id="path3964" fill="url(#linearGradient3966)" fill-opacity="1" stroke="none" d="m 35,10 c -3.313708,0 -6,2.686292 -6,6 0,3.313708 2.686292,6 6,6 3.313708,0 6,-2.686292 6,-6 0,-3.313708 -2.686292,-6 -6,-6 z m -2,2 4,0 0,4 1,0 -3,4 -3,-4 1,0 0,-4 z" display="inline"/></clipPath><linearGradient id="linearGradient3966" x1="51.429" x2="90.714" y1="72.786" y2="72.786" gradientTransform="matrix(0,-0.30545455,0.30545455,0,12.767273,37.709091)" gradientUnits="userSpaceOnUse" xlink:href="#linearGradient3778"/><linearGradient id="linearGradient3978" x1="36.275" x2="36.275" y1="20.122" y2="11.793" gradientUnits="userSpaceOnUse" xlink:href="#linearGradient3972"/><filter id="filter3743"><feGaussianBlur id="feGaussianBlur3745" stdDeviation=".32"/></filter><linearGradient id="linearGradient3078" x1="10" x2="10" y1="1" y2="16" gradientTransform="translate(1,-1)" gradientUnits="userSpaceOnUse" xlink:href="#linearGradient3823"/><linearGradient id="linearGradient3823"><stop id="stop3825" offset="0" stop-color="#fff" stop-opacity="1"/><stop id="stop3829" offset="1" stop-color="#fff" stop-opacity="0"/></linearGradient><linearGradient id="linearGradient3845" x1="11" x2="21" y1="19.5" y2="19.5" gradientUnits="userSpaceOnUse" spreadMethod="reflect" xlink:href="#linearGradient3831"/><linearGradient id="linearGradient3831"><stop id="stop3833" offset="0" stop-color="#fff" stop-opacity="1"/><stop id="stop3821" offset=".75" stop-color="#fff" stop-opacity=".498"/><stop id="stop3835" offset="1" stop-color="#fff" stop-opacity="0"/></linearGradient><linearGradient id="linearGradient4007" x1="10" x2="10" y1="1" y2="16" gradientUnits="userSpaceOnUse" xlink:href="#linearGradient3823"/><linearGradient id="linearGradient4615" x1="20.759" x2="20.759" y1="1" y2="45.017" gradientTransform="matrix(0.83720627,0,0,0.83720627,107.90704,38.744258)" gradientUnits="userSpaceOnUse" xlink:href="#linearGradient3309"/><linearGradient id="linearGradient3309" x1="63.999" x2="63.999" y1="3.1" y2="122.899" gradientUnits="userSpaceOnUse"><stop id="stop3311" offset="0" stop-color="#f0f0f0" stop-opacity="1"/><stop id="stop3313" offset="1" stop-color="#aaa" stop-opacity="1"/></linearGradient><linearGradient id="linearGradient4617" x1="48.234" x2="126.139" y1="48.047" y2="66.233" gradientUnits="userSpaceOnUse" xlink:href="#linearGradient4071-3"/><linearGradient id="linearGradient4071-3"><stop id="stop4073-8" offset="0" stop-color="#000" stop-opacity="1"/><stop id="stop4075-4" offset="1" stop-color="#000" stop-opacity="0"/></linearGradient><linearGradient id="linearGradient4619" x1="48.055" x2="126.673" y1="48.032" y2="62.839" gradientUnits="userSpaceOnUse" xlink:href="#linearGradient4047-2"/><linearGradient id="linearGradient4047-2"><stop id="stop4049-0" offset="0" stop-color="#000" stop-opacity="1"/><stop id="stop4051-5" offset="1" stop-color="#000" stop-opacity="0"/></linearGradient><linearGradient id="linearGradient4621" x1="47.997" x2="127.052" y1="48.029" y2="60.29" gradientUnits="userSpaceOnUse" xlink:href="#linearGradient4047-2"/><linearGradient id="linearGradient4623" x1="47.998" x2="127.416" y1="48.029" y2="57.665" gradientUnits="userSpaceOnUse" xlink:href="#linearGradient4047-2"/><linearGradient id="linearGradient4625" x1="48.234" x2="126.139" y1="48.047" y2="66.233" gradientUnits="userSpaceOnUse" xlink:href="#linearGradient4115-2"/><linearGradient id="linearGradient4115-2"><stop id="stop4117-3" offset="0" stop-color="#fff" stop-opacity="1"/><stop id="stop4119-6" offset="1" stop-color="#fff" stop-opacity="0"/></linearGradient><linearGradient id="linearGradient4627" x1="48.055" x2="126.673" y1="48.032" y2="62.839" gradientUnits="userSpaceOnUse" xlink:href="#linearGradient4115-2"/><linearGradient id="linearGradient4629" x1="47.997" x2="127.052" y1="48.029" y2="60.29" gradientUnits="userSpaceOnUse" xlink:href="#linearGradient4115-2"/><linearGradient id="linearGradient4631" x1="47.998" x2="127.416" y1="48.029" y2="57.665" gradientUnits="userSpaceOnUse" xlink:href="#linearGradient4115-2"/><linearGradient id="linearGradient4633" x1="48.234" x2="126.139" y1="48.047" y2="66.233" gradientUnits="userSpaceOnUse" xlink:href="#linearGradient4071-3"/><linearGradient id="linearGradient4635" x1="48.055" x2="126.673" y1="48.032" y2="62.839" gradientUnits="userSpaceOnUse" xlink:href="#linearGradient4047-2"/><linearGradient id="linearGradient4637" x1="47.997" x2="127.052" y1="48.029" y2="60.29" gradientUnits="userSpaceOnUse" xlink:href="#linearGradient4047-2"/><linearGradient id="linearGradient4639" x1="47.998" x2="127.416" y1="48.029" y2="57.665" gradientUnits="userSpaceOnUse" xlink:href="#linearGradient4047-2"/><linearGradient id="linearGradient4641" x1="48.234" x2="126.139" y1="48.047" y2="66.233" gradientUnits="userSpaceOnUse" xlink:href="#linearGradient4071-3"/><linearGradient id="linearGradient4643" x1="48.055" x2="126.673" y1="48.032" y2="62.839" gradientUnits="userSpaceOnUse" xlink:href="#linearGradient4047-2"/><linearGradient id="linearGradient4645" x1="47.997" x2="127.052" y1="48.029" y2="60.29" gradientUnits="userSpaceOnUse" xlink:href="#linearGradient4047-2"/><linearGradient id="linearGradient4647" x1="47.998" x2="127.416" y1="48.029" y2="57.665" gradientUnits="userSpaceOnUse" xlink:href="#linearGradient4047-2"/><linearGradient id="linearGradient4649" x1="48.234" x2="126.139" y1="48.047" y2="66.233" gradientUnits="userSpaceOnUse" xlink:href="#linearGradient4115-2"/><linearGradient id="linearGradient4651" x1="48.055" x2="126.673" y1="48.032" y2="62.839" gradientUnits="userSpaceOnUse" xlink:href="#linearGradient4115-2"/><linearGradient id="linearGradient4653" x1="47.997" x2="127.052" y1="48.029" y2="60.29" gradientUnits="userSpaceOnUse" xlink:href="#linearGradient4115-2"/><linearGradient id="linearGradient4655" x1="47.998" x2="127.416" y1="48.029" y2="57.665" gradientUnits="userSpaceOnUse" xlink:href="#linearGradient4115-2"/><linearGradient id="linearGradient3431" x1="20.759" x2="20.759" y1="1" y2="45.017" gradientTransform="matrix(0.32558004,0,0,0.32558004,7.186065,6.5116639)" gradientUnits="userSpaceOnUse" xlink:href="#linearGradient3309"/><linearGradient id="linearGradient3437" x1="48.234" x2="126.139" y1="48.047" y2="66.233" gradientUnits="userSpaceOnUse" xlink:href="#linearGradient4071-3"/><linearGradient id="linearGradient3439" x1="48.055" x2="126.673" y1="48.032" y2="62.839" gradientUnits="userSpaceOnUse" xlink:href="#linearGradient4047-2"/><linearGradient id="linearGradient3441" x1="47.997" x2="127.052" y1="48.029" y2="60.29" gradientUnits="userSpaceOnUse" xlink:href="#linearGradient4047-2"/><linearGradient id="linearGradient3443" x1="47.998" x2="127.416" y1="48.029" y2="57.665" gradientUnits="userSpaceOnUse" xlink:href="#linearGradient4047-2"/><linearGradient id="linearGradient3445" x1="48.234" x2="126.139" y1="48.047" y2="66.233" gradientUnits="userSpaceOnUse" xlink:href="#linearGradient4115-2"/><linearGradient id="linearGradient3447" x1="48.055" x2="126.673" y1="48.032" y2="62.839" gradientUnits="userSpaceOnUse" xlink:href="#linearGradient4115-2"/><linearGradient id="linearGradient3449" x1="47.997" x2="127.052" y1="48.029" y2="60.29" gradientUnits="userSpaceOnUse" xlink:href="#linearGradient4115-2"/><linearGradient id="linearGradient3451" x1="47.998" x2="127.416" y1="48.029" y2="57.665" gradientUnits="userSpaceOnUse" xlink:href="#linearGradient4115-2"/><linearGradient id="linearGradient3453" x1="48.234" x2="126.139" y1="48.047" y2="66.233" gradientUnits="userSpaceOnUse" xlink:href="#linearGradient4071-3"/><linearGradient id="linearGradient3455" x1="48.055" x2="126.673" y1="48.032" y2="62.839" gradientUnits="userSpaceOnUse" xlink:href="#linearGradient4047-2"/><linearGradient id="linearGradient3457" x1="47.997" x2="127.052" y1="48.029" y2="60.29" gradientUnits="userSpaceOnUse" xlink:href="#linearGradient4047-2"/><linearGradient id="linearGradient3459" x1="47.998" x2="127.416" y1="48.029" y2="57.665" gradientUnits="userSpaceOnUse" xlink:href="#linearGradient4047-2"/><linearGradient id="linearGradient3461" x1="48.234" x2="126.139" y1="48.047" y2="66.233" gradientUnits="userSpaceOnUse" xlink:href="#linearGradient4071-3"/><linearGradient id="linearGradient3463" x1="48.055" x2="126.673" y1="48.032" y2="62.839" gradientUnits="userSpaceOnUse" xlink:href="#linearGradient4047-2"/><linearGradient id="linearGradient3465" x1="47.997" x2="127.052" y1="48.029" y2="60.29" gradientUnits="userSpaceOnUse" xlink:href="#linearGradient4047-2"/><linearGradient id="linearGradient3467" x1="47.998" x2="127.416" y1="48.029" y2="57.665" gradientUnits="userSpaceOnUse" xlink:href="#linearGradient4047-2"/><linearGradient id="linearGradient3469" x1="48.234" x2="126.139" y1="48.047" y2="66.233" gradientUnits="userSpaceOnUse" xlink:href="#linearGradient4115-2"/><linearGradient id="linearGradient3471" x1="48.055" x2="126.673" y1="48.032" y2="62.839" gradientUnits="userSpaceOnUse" xlink:href="#linearGradient4115-2"/><linearGradient id="linearGradient3473" x1="47.997" x2="127.052" y1="48.029" y2="60.29" gradientUnits="userSpaceOnUse" xlink:href="#linearGradient4115-2"/><linearGradient id="linearGradient3475" x1="47.998" x2="127.416" y1="48.029" y2="57.665" gradientUnits="userSpaceOnUse" xlink:href="#linearGradient4115-2"/><linearGradient id="linearGradient3479" x1="20.759" x2="20.759" y1="1" y2="45.017" gradientTransform="matrix(0.83720627,0,0,0.83720627,127.90704,-19.255742)" gradientUnits="userSpaceOnUse" xlink:href="#linearGradient3309"/><clipPath id="clipPath3481" clipPathUnits="userSpaceOnUse"><path id="path3483" fill="url(#linearGradient3485)" fill-opacity="1" fill-rule="nonzero" stroke="none" stroke-width="1" d="m 30.91624,135.97101 c -0.937254,0.54113 -1.228299,1.74752 -0.677922,2.7008 l 1.9375,3.35585 c -1.418086,1.41409 -2.622272,3.01198 -3.595445,4.70999 l -3.78364,-0.99094 c -0.53162,-0.14245 -1.037922,-0.11751 -1.476215,0.13061 -0.438297,0.24811 -0.796553,0.66758 -0.936605,1.19027 l -1.978817,7.38507 c -0.280103,1.04537 0.365941,2.06538 1.429115,2.35032 l 3.772195,1.03364 c -0.0062,1.95711 0.237699,3.94301 0.758744,5.8767 l -3.355844,1.9375 c -0.953277,0.55038 -1.304428,1.74066 -0.7633,2.67792 l 3.8125,6.60345 c 0.541128,0.93726 1.747523,1.2283 2.7008,0.67792 l 3.355843,-1.93749 c 1.414108,1.41808 3.011993,2.62226 4.710007,3.59544 l -0.990945,3.78363 c -0.284902,1.06325 0.275432,2.13275 1.320885,2.41282 l 7.385067,1.97883 c 1.045373,0.28011 2.06543,-0.36589 2.350319,-1.42913 l 1.033641,-3.7722 c 1.957111,0.006 3.943011,-0.2377 5.876694,-0.75875 l 1.9375,3.35585 c 0.550377,0.95328 1.740668,1.30442 2.677922,0.7633 l 6.603445,-3.8125 c 0.937254,-0.54113 1.2283,-1.74752 0.677922,-2.7008 l -1.9375,-3.35585 c 1.418099,-1.4141 2.622273,-3.01197 3.595458,-4.71 l 3.783627,0.99095 c 1.063253,0.28489 2.132718,-0.2755 2.412821,-1.32087 l 1.97883,-7.38508 c 0.280103,-1.04538 -0.365956,-2.06538 -1.429115,-2.35033 l -3.772194,-1.03363 c 0.0062,-1.95711 -0.237699,-3.94301 -0.758758,-5.8767 l 3.355857,-1.93751 c 0.953263,-0.55036 1.304429,-1.74066 0.763301,-2.67792 l -3.812501,-6.60344 c -0.541127,-0.93726 -1.747536,-1.22829 -2.700799,-0.67793 l -3.355857,1.93751 c -1.414094,-1.41809 -3.011979,-2.62228 -4.709993,-3.59545 l 0.990944,-3.78364 c 0.284902,-1.06325 -0.27542,-2.13275 -1.320885,-2.41281 l -7.38508,-1.97882 c -1.045373,-0.28011 -2.065418,0.36587 -2.350319,1.42912 l -1.033628,3.7722 c -1.957124,-0.006 -3.943011,0.23769 -5.876708,0.75875 l -1.937499,-3.35584 c -0.550378,-0.95329 -1.740669,-1.30443 -2.677922,-0.76331 l -6.603445,3.8125 z m 13.051729,14.98124 c 3.826337,-2.20913 8.71906,-0.89813 10.928199,2.92821 2.209139,3.82634 0.898138,8.71907 -2.928198,10.9282 -3.82635,2.20915 -8.719074,0.89814 -10.928213,-2.9282 -2.209139,-3.82634 -0.898137,-8.71906 2.928212,-10.92821 z" display="block" enable-background="accumulate" overflow="visible" visibility="visible" style="marker:none"/></clipPath><linearGradient id="linearGradient3485" x1="20.759" x2="20.759" y1="1" y2="45.017" gradientTransform="matrix(1.107703,-0.6395326,0.6395326,1.107703,6.6738357,147.75208)" gradientUnits="userSpaceOnUse" xlink:href="#linearGradient3309"/><linearGradient id="linearGradient3491" x1="20.759" x2="20.759" y1="1" y2="45.017" gradientTransform="matrix(0.32558004,0,0,0.32558004,49.186065,4.5116639)" gradientUnits="userSpaceOnUse" xlink:href="#linearGradient3309"/><linearGradient id="linearGradient3493" x1="20.759" x2="20.759" y1="1" y2="45.017" gradientTransform="matrix(0.32558004,0,0,0.32558004,49.186065,3.5116639)" gradientUnits="userSpaceOnUse" xlink:href="#linearGradient3309"/></defs><metadata id="metadata7"/><g id="layer1"><g id="g3337" display="inline"><path id="rect3371" fill="url(#linearGradient3335)" fill-opacity="1" stroke="none" d="M 3,0.5 11,2.7789276e-4 19,0.5 c 1.382306,0.0863461 2.5,1.115 2.5,2.5 l 0,16.5 C 21.5,20.885 20.385,22 19,22 L 3,22 C 1.615,22 0.5,20.885 0.5,19.5 L 0.5,3 C 0.5,1.615 1.6176942,0.5863461 3,0.5 z" display="inline" opacity=".3"/><path id="rect2553" fill="#000" fill-opacity="1" stroke="none" d="M 3.3809524,2 18.619048,2 C 19.938095,2 21,3.0372093 21,4.3255813 L 21,19.674419 C 21,20.962791 19.938095,22 18.619048,22 L 3.3809524,22 C 2.0619048,22 1,20.962791 1,19.674419 L 1,4.3255813 C 1,3.0372093 2.0619048,2 3.3809524,2 z" display="inline" opacity=".5"/></g><rect id="rect3173" width="20" height="20" x="1" y="1" fill="url(#linearGradient3867)" fill-opacity="1" fill-rule="evenodd" stroke="none" display="inline" rx="2" ry="2"/><path id="rect3183" fill="#fff" fill-opacity="1" fill-rule="evenodd" stroke="none" d="m 2.9999999,0.99999982 c -1.108,0 -1.99999997,0.89199998 -1.99999997,1.99999998 l 0,1 c 0,-1.108 0.89199997,-2 1.99999997,-2 l 16.0000001,0 c 1.108,0 2,0.892 2,2 l 0,-1 c 0,-1.108 -0.892,-1.99999998 -2,-1.99999998 l -16.0000001,0 z" display="inline" opacity=".25"/><path id="path3287" fill="url(#radialGradient4432)" fill-opacity="1" fill-rule="nonzero" stroke="none" d="M 1,8.095238 1,8.571429 C 1,9.362857 1.6371428,10 2.4285716,10 l 17.1428554,0 c 0.791428,0 1.428571,-0.637143 1.428571,-1.428571 l 0,-0.476191 c 0,0.791429 -0.637143,1.428572 -1.428571,1.428572 l -17.1428554,0 C 1.6371428,9.52381 1,8.886667 1,8.095238 z" display="inline"/><path id="path3869" fill="url(#linearGradient3871)" fill-opacity="1" fill-rule="nonzero" stroke="none" d="m 1.9843451,9.5759968 0,10.9813592 c 0.14877,0.108077 0.323642,0.193196 0.515795,0.248536 l 0,-11.2298952 -0.515795,0 z" display="inline" opacity=".3"/><path id="path4404" fill="url(#linearGradient4420)" fill-opacity="1" fill-rule="evenodd" stroke="none" d="m 1.5480568,8.266824 c 0.6187259,1.432838 0.4884679,4.13569 0.4884679,4.13569 l 0.472185,-0.06513 C 2.4435797,10.220692 2.6226847,9.439144 3.7950067,9.40658 1.9461407,9.098436 1.5480568,8.266823 1.5480568,8.266823 z" display="inline"/><path id="path3873" fill="url(#linearGradient3877)" fill-opacity="1" fill-rule="nonzero" stroke="none" d="m 20.011545,9.5759968 0,10.8286522 c -0.14877,0.106574 -0.323642,0.19051 -0.515795,0.24508 l 0,-11.0737322 0.515795,0 z" display="inline" opacity=".3"/><rect id="rect2483" width="20" height="5.714" x="1" y="3.81" fill="#3c2510" fill-opacity="1" fill-rule="nonzero" stroke="none" display="inline" rx="1.429" ry="1.429"/><path id="rect2481" fill="url(#linearGradient2489)" fill-opacity="1" fill-rule="nonzero" stroke="none" d="M 11,0.46875 3,1 C 1.8944239,1.0732493 1,1.892 1,3 l 0,5.09375 c 0,0.791429 0.6460712,1.4375 1.4375,1.4375 L 11,9.0625 11,0.46875 z" display="inline"/><path id="path3881" fill="url(#linearGradient3883)" fill-opacity="1" fill-rule="nonzero" stroke="none" d="m 20.513575,8.3349526 0,10.3991094 c 0,0.386015 -0.199759,0.730474 -0.515795,0.968146 l 0,-11.3672554 0.515795,0 z" display="inline"/><path id="path3875" fill="url(#linearGradient3879)" fill-opacity="1" fill-rule="evenodd" stroke="none" d="m 20.447834,8.266824 c -0.618726,1.432838 -0.488468,4.13569 -0.488468,4.13569 l -0.472185,-0.06513 c 0.06513,-2.116692 -0.113975,-2.89824 -1.286297,-2.930804 1.848866,-0.308144 2.24695,-1.139757 2.24695,-1.139757 z" display="inline"/><path id="path3262" fill="url(#linearGradient3264)" fill-opacity="1" fill-rule="nonzero" stroke="none" d="m 11,0.46875 0,8.59375 8.5625,0.46875 C 20.353928,9.53125 21,8.885179 21,8.09375 L 21,3 C 21,1.892 20.105576,1.073249 19,1 L 11,0.46875 z" display="inline"/><path id="path3891" fill="#543b22" fill-opacity="1" d="M 10.908768,0.91796901 9.0615448,1.048995 9.0433204,13.5 13.017154,12.475581 12.976795,1.0269102 10.908768,0.91796901 z" display="inline" filter="url(#filter3895)"/><path id="path3887" fill="url(#linearGradient3889)" fill-opacity="1" d="M 10.908768,0.46968901 9.0615448,0.60071498 9.0433204,13.05172 13.017154,12.027301 12.976795,0.57863017 10.908768,0.46968901 z" display="inline"/><rect id="rect4363" width=".546" height="8.503" x="10.454" y=".506" fill="#8d6137" fill-opacity="1" fill-rule="nonzero" stroke="none" display="inline" opacity=".2"/><rect id="rect4365" width=".524" height="8.503" x="11" y=".506" fill="#fff" fill-opacity="1" fill-rule="nonzero" stroke="none" display="inline" opacity=".2"/><path id="path3833" fill="url(#linearGradient3835)" fill-opacity="1" fill-rule="evenodd" stroke="none" d="M 3,31 11,30.469965 19,31 c 1.105576,0.07325 2,0.892 2,2 l 0,16 c 0,1.108 -0.892,2 -2,2 L 3,51 C 1.892,51 1,50.108 1,49 L 1,33 c 0,-1.108 0.8944239,-1.926751 2,-2 z" display="inline"/><path id="path3847" fill="url(#linearGradient3865)" fill-opacity="1" fill-rule="nonzero" stroke="none" d="M 11,0.46875 3,1 C 1.8944239,1.0732493 1,1.892 1,3 l 0,5.09375 c 0,0.791429 0.6460712,1.4375 1.4375,1.4375 L 11,9.0625 19.5625,9.53125 C 20.353928,9.53125 21,8.885179 21,8.09375 L 21,3 C 21,1.892 20.105576,1.073249 19,1 L 11,0.46875 z m -0.0625,0.90625 0.125,0 7.875,0.53125 C 19.62731,1.9519528 20.09375,2.3837807 20.09375,3 l 0,5.09375 c 0,0.294108 -0.237143,0.53125 -0.53125,0.53125 l -8.5,-0.46875 a 0.91390801,0.91390801 0 0 0 -0.125,0 L 2.4375,8.625 C 2.1433915,8.625 1.90625,8.3878587 1.90625,8.09375 L 1.90625,3 c 0,-0.6162194 0.4664395,-1.048047 1.15625,-1.09375 L 10.9375,1.375 z" display="inline" opacity=".3"/><rect id="rect3742" width="1" height="5" x="18" y="-9" fill="#825023" fill-opacity="1" stroke="none" opacity=".6" transform="matrix(0,1,-1,0,0,0)"/><rect id="rect3744" width="1" height="3" x="17" y="-7" fill="#825023" fill-opacity="1" stroke="none" transform="matrix(0,1,-1,0,0,0)"/><path id="path3235" fill="url(#linearGradient3845)" fill-opacity="1" fill-rule="evenodd" stroke="none" d="M 3,21 C 1.892,21 1,20.108 1,19 l 0,-1 c 0,1.108 0.892,2 2,2 l 16,0 c 1.108,0 2,-0.892 2,-2 l 0,1 c 0,1.108 -0.892,2 -2,2 L 3,21 z" display="inline" opacity=".25"/></g><g id="layer2"><rect id="rect2410" width="16" height="16" x="3" y="3" fill="#fff" fill-opacity="1" fill-rule="nonzero" stroke="none" clip-path="url(#clipPath2849)" display="inline" filter="url(#filter3194)" opacity=".15" rx="2" ry="2"/></g><g id="layer3"><path id="path4264" fill="#000" fill-opacity="1" fill-rule="nonzero" stroke="none" stroke-width="1" d="m 13.75217,7.0000089 c -0.285067,0 -0.510342,0.2448297 -0.510342,0.5445224 l 0,1.0550115 c -0.509724,0.1403773 -0.99486,0.3532079 -1.440485,0.6210959 L 11.06875,8.4719206 C 10.966244,8.365963 10.847463,8.3029195 10.714805,8.3017573 c -0.132658,-0.00117 -0.269627,0.04897 -0.370412,0.153147 L 8.920371,9.9268159 C 8.718797,10.135169 8.731832,10.463619 8.936841,10.675534 l 0.72436,0.757227 c -0.259173,0.460612 -0.465079,0.962061 -0.600893,1.488927 l -1.020687,0 c -0.289939,0 -0.526805,0.23285 -0.526805,0.527507 l 0,2.075991 c 0,0.294656 0.236866,0.527505 0.526805,0.527505 l 1.020687,0 c 0.135814,0.526867 0.34172,1.028316 0.600893,1.488929 l -0.72436,0.757226 C 8.73182,18.51076 8.718785,18.83921 8.920371,19.047564 l 1.424022,1.471911 c 0.201572,0.208354 0.51934,0.194898 0.724357,-0.01702 l 0.732593,-0.748719 c 0.445625,0.267889 0.930761,0.480719 1.440485,0.621096 l 0,1.055011 c 0,0.299693 0.225275,0.544523 0.510342,0.544523 l 2.00845,0 c 0.285067,0 0.510344,-0.24483 0.510344,-0.544523 l 0,-1.055011 c 0.509727,-0.140377 0.994858,-0.353207 1.440488,-0.621096 l 0.732588,0.748719 c 0.205021,0.211914 0.522785,0.22537 0.72436,0.01702 l 1.424024,-1.471911 c 0.201573,-0.208353 0.188534,-0.536804 -0.01647,-0.748718 L 19.851601,17.54162 c 0.259172,-0.460613 0.465079,-0.962062 0.600888,-1.488929 l 1.020691,0 c 0.289937,0 0.526806,-0.232849 0.526806,-0.527505 l 0,-2.075991 c 0,-0.294656 -0.236869,-0.527507 -0.526806,-0.527507 l -1.020691,0 c -0.135805,-0.526866 -0.341711,-1.028315 -0.600884,-1.488927 l 0.72436,-0.757227 c 0.205021,-0.211915 0.21806,-0.540365 0.01646,-0.7487181 L 19.1684,8.4549043 C 18.966825,8.246551 18.649061,8.2600063 18.44404,8.4719206 L 17.711452,9.2206391 C 17.265822,8.9527511 16.780691,8.7399205 16.270964,8.5995433 l 0,-1.0550116 c 0,-0.2996928 -0.225277,-0.5445224 -0.510344,-0.5445224 l -2.00845,0 z m 1.004228,5.3090921 c 1.163786,0 2.107223,0.975163 2.107223,2.178089 0,1.202926 -0.943437,2.178089 -2.107223,2.178089 -1.163792,0 -2.107229,-0.975163 -2.107229,-2.178089 0,-1.202926 0.943437,-2.178089 2.107229,-2.178089 z" display="block" enable-background="accumulate" opacity=".4" overflow="visible" visibility="visible" style="marker:none"/><path id="rect3267" fill="url(#linearGradient3431)" fill-opacity="1" fill-rule="nonzero" stroke="none" stroke-width="1" d="m 14.029534,7.0000089 c -0.275481,0 -0.493181,0.2288988 -0.493181,0.5090907 l 0,0.9863628 C 13.043771,8.6267054 12.57495,8.8256873 12.14431,9.076144 L 11.436354,8.3761444 c -0.09906,-0.099063 -0.213846,-0.1580043 -0.342043,-0.1590909 -0.128197,-0.00109 -0.260559,0.045784 -0.357956,0.1431819 L 9.360221,9.7363708 C 9.165427,9.9311667 9.178023,10.238245 9.376131,10.43637 l 0.7,0.707955 c -0.250456,0.43064 -0.449439,0.899461 -0.580685,1.392044 l -0.986362,0 c -0.28019,0 -0.50909,0.217699 -0.50909,0.493182 l 0,1.940908 c 0,0.275483 0.2289,0.493181 0.50909,0.493181 l 0.986362,0 c 0.131246,0.492584 0.330229,0.961404 0.580685,1.392045 l -0.7,0.707954 c -0.198127,0.198125 -0.210723,0.505203 -0.01591,0.7 l 1.376134,1.376135 c 0.194794,0.194796 0.501876,0.182216 0.699999,-0.01591 l 0.707956,-0.7 c 0.43064,0.250457 0.899461,0.449439 1.392043,0.580681 l 0,0.986363 c 0,0.280192 0.2177,0.509091 0.493181,0.509091 l 1.940908,0 c 0.275481,0 0.493181,-0.228899 0.493181,-0.509091 l 0,-0.986363 c 0.492586,-0.131242 0.961403,-0.330224 1.392047,-0.580681 l 0.707952,0.7 c 0.198127,0.198125 0.505205,0.210705 0.7,0.01591 l 1.376137,-1.376135 c 0.194794,-0.194796 0.182194,-0.501875 -0.01591,-0.7 l -0.7,-0.707954 c 0.250456,-0.430641 0.449439,-0.899461 0.580681,-1.392045 l 0.986366,0 c 0.280186,0 0.50909,-0.217698 0.50909,-0.493181 l 0,-1.940908 c 0,-0.275483 -0.228904,-0.493182 -0.50909,-0.493182 l -0.986366,0 c -0.131238,-0.492583 -0.330221,-0.961404 -0.580677,-1.392044 l 0.7,-0.707955 C 20.82198,10.238245 20.83458,9.9311667 20.639759,9.7363708 L 19.263622,8.3602354 c -0.194795,-0.1947959 -0.501873,-0.1822162 -0.7,0.015909 l -0.707952,0.7 C 17.425026,8.8256877 16.956209,8.6267058 16.463623,8.4954628 l 0,-0.9863628 c 0,-0.280192 -0.2177,-0.5090907 -0.493181,-0.5090907 l -1.940908,0 z m 0.970456,4.9636331 c 1.12465,0 2.036361,0.911711 2.036361,2.036363 0,1.124652 -0.911711,2.036362 -2.036361,2.036362 -1.124654,0 -2.036365,-0.91171 -2.036365,-2.036362 0,-1.124652 0.911711,-2.036363 2.036365,-2.036363 z" display="block" enable-background="accumulate" overflow="visible" visibility="visible" style="marker:none"/><g id="g4176" clip-path="url(#clipPath3481)" transform="matrix(0.22044269,0.12727264,-0.12727264,0.22044269,24.51966,-26.908597)"><g id="g4011" opacity=".9" transform="matrix(0.1413721,0.99271966,-1.1651755,0.12044784,96.937266,104.80532)"><path id="path4009" fill="url(#linearGradient3437)" fill-opacity="1" fill-rule="nonzero" stroke="none" stroke-width="2" d="m 108.8959,48 c 0,9.541976 -2.24232,18.950422 -6.54616,27.466658 L 48,48 z" color="#000" display="inline" enable-background="accumulate" opacity=".05" overflow="visible" transform="matrix(0.99411049,-0.1083712,0.1083712,0.99411049,-5.1582185,5.4918915)" visibility="visible" style="marker:none"/><path id="path4007" fill="url(#linearGradient3439)" fill-opacity="1" fill-rule="nonzero" stroke="none" stroke-width="2" d="m 108.8959,48 c 0,7.838782 -1.51343,15.60384 -4.45721,22.86887 L 48,48 z" color="#000" display="inline" enable-background="accumulate" opacity=".07" overflow="visible" transform="matrix(0.99786084,-0.06537382,0.06537382,0.99786084,-3.0940115,3.2415713)" visibility="visible" style="marker:none"/><path id="path4005" fill="url(#linearGradient3441)" fill-opacity="1" fill-rule="nonzero" stroke="none" stroke-width="2" d="m 108.8959,48 c 0,6.55049 -1.05689,13.058072 -3.12994,19.271878 L 48,48 z" color="#000" display="inline" enable-background="accumulate" opacity=".1" overflow="visible" transform="matrix(0.99945136,-0.0331207,0.0331207,0.99945136,-1.5634586,1.6161281)" visibility="visible" style="marker:none"/><path id="path4003" fill="url(#linearGradient3443)" fill-opacity="1" fill-rule="nonzero" stroke="none" stroke-width="2" d="m 108.8959,48 c 0,5.321771 -0.6976,10.620584 -2.07497,15.76102 L 48,48 z" color="#000" display="inline" enable-background="accumulate" opacity=".05" overflow="visible" visibility="visible" style="marker:none"/></g><g id="g4027" fill="#fff" opacity=".9" transform="matrix(1.062807,-0.13087531,-0.74010065,3.227468,32.525111,9.33226)"><path id="path4029" fill="url(#linearGradient3445)" fill-opacity="1" fill-rule="nonzero" stroke="none" stroke-width="2" d="m 108.8959,48 c 0,9.541976 -2.24232,18.950422 -6.54616,27.466658 L 48,48 z" color="#000" display="inline" enable-background="accumulate" opacity=".2" overflow="visible" transform="matrix(0.99411049,-0.1083712,0.1083712,0.99411049,-5.1582185,5.4918915)" visibility="visible" style="marker:none"/><path id="path4031" fill="url(#linearGradient3447)" fill-opacity="1" fill-rule="nonzero" stroke="none" stroke-width="2" d="m 108.8959,48 c 0,7.838782 -1.51343,15.60384 -4.45721,22.86887 L 48,48 z" color="#000" display="inline" enable-background="accumulate" opacity=".4" overflow="visible" transform="matrix(0.99786084,-0.06537382,0.06537382,0.99786084,-3.0940115,3.2415713)" visibility="visible" style="marker:none"/><path id="path4033" fill="url(#linearGradient3449)" fill-opacity="1" fill-rule="nonzero" stroke="none" stroke-width="2" d="m 108.8959,48 c 0,6.55049 -1.05689,13.058072 -3.12994,19.271878 L 48,48 z" color="#000" display="inline" enable-background="accumulate" opacity=".6" overflow="visible" transform="matrix(0.99945136,-0.0331207,0.0331207,0.99945136,-1.5634586,1.6161281)" visibility="visible" style="marker:none"/><path id="path4035" fill="url(#linearGradient3451)" fill-opacity="1" fill-rule="nonzero" stroke="none" stroke-width="2" d="m 108.8959,48 c 0,5.321771 -0.6976,10.620584 -2.07497,15.76102 L 48,48 z" color="#000" display="inline" enable-background="accumulate" opacity=".8" overflow="visible" visibility="visible" style="marker:none"/></g><g id="g4079" opacity=".5" transform="matrix(-0.61678932,0.78712829,-0.78712829,-0.61678932,115.00148,150.01193)"><path id="path4081" fill="url(#linearGradient3453)" fill-opacity="1" fill-rule="nonzero" stroke="none" stroke-width="2" d="m 108.8959,48 c 0,9.541976 -2.24232,18.950422 -6.54616,27.466658 L 48,48 z" color="#000" display="inline" enable-background="accumulate" opacity=".05" overflow="visible" transform="matrix(0.99411049,-0.1083712,0.1083712,0.99411049,-5.1582185,5.4918915)" visibility="visible" style="marker:none"/><path id="path4083" fill="url(#linearGradient3455)" fill-opacity="1" fill-rule="nonzero" stroke="none" stroke-width="2" d="m 108.8959,48 c 0,7.838782 -1.51343,15.60384 -4.45721,22.86887 L 48,48 z" color="#000" display="inline" enable-background="accumulate" opacity=".07" overflow="visible" transform="matrix(0.99786084,-0.06537382,0.06537382,0.99786084,-3.0940115,3.2415713)" visibility="visible" style="marker:none"/><path id="path4085" fill="url(#linearGradient3457)" fill-opacity="1" fill-rule="nonzero" stroke="none" stroke-width="2" d="m 108.8959,48 c 0,6.55049 -1.05689,13.058072 -3.12994,19.271878 L 48,48 z" color="#000" display="inline" enable-background="accumulate" opacity=".1" overflow="visible" transform="matrix(0.99945136,-0.0331207,0.0331207,0.99945136,-1.5634586,1.6161281)" visibility="visible" style="marker:none"/><path id="path4087" fill="url(#linearGradient3459)" fill-opacity="1" fill-rule="nonzero" stroke="none" stroke-width="2" d="m 108.8959,48 c 0,5.321771 -0.6976,10.620584 -2.07497,15.76102 L 48,48 z" color="#000" display="inline" enable-background="accumulate" opacity=".1" overflow="visible" visibility="visible" style="marker:none"/></g><g id="g4097" opacity=".8" transform="matrix(-0.06817198,-1.0460056,2.710673,0.60162586,-79.095447,179.08013)"><path id="path4099" fill="url(#linearGradient3461)" fill-opacity="1" fill-rule="nonzero" stroke="none" stroke-width="2" d="m 108.8959,48 c 0,9.541976 -2.24232,18.950422 -6.54616,27.466658 L 48,48 z" color="#000" display="inline" enable-background="accumulate" opacity=".05" overflow="visible" transform="matrix(0.99411049,-0.1083712,0.1083712,0.99411049,-5.1582185,5.4918915)" visibility="visible" style="marker:none"/><path id="path4101" fill="url(#linearGradient3463)" fill-opacity="1" fill-rule="nonzero" stroke="none" stroke-width="2" d="m 108.8959,48 c 0,7.838782 -1.51343,15.60384 -4.45721,22.86887 L 48,48 z" color="#000" display="inline" enable-background="accumulate" opacity=".07" overflow="visible" transform="matrix(0.99786084,-0.06537382,0.06537382,0.99786084,-3.0940115,3.2415713)" visibility="visible" style="marker:none"/><path id="path4103" fill="url(#linearGradient3465)" fill-opacity="1" fill-rule="nonzero" stroke="none" stroke-width="2" d="m 108.8959,48 c 0,6.55049 -1.05689,13.058072 -3.12994,19.271878 L 48,48 z" color="#000" display="inline" enable-background="accumulate" opacity=".1" overflow="visible" transform="matrix(0.99945136,-0.0331207,0.0331207,0.99945136,-1.5634586,1.6161281)" visibility="visible" style="marker:none"/><path id="path4105" fill="url(#linearGradient3467)" fill-opacity="1" fill-rule="nonzero" stroke="none" stroke-width="2" d="m 108.8959,48 c 0,5.321771 -0.6976,10.620584 -2.07497,15.76102 L 48,48 z" color="#000" display="inline" enable-background="accumulate" opacity=".1" overflow="visible" visibility="visible" style="marker:none"/></g><g id="g4147" fill="#fff" opacity=".9" transform="matrix(-1.062807,0.1308753,0.74010064,-3.227468,62.996694,306.66774)"><path id="path4149" fill="url(#linearGradient3469)" fill-opacity="1" fill-rule="nonzero" stroke="none" stroke-width="2" d="m 108.8959,48 c 0,9.541976 -2.24232,18.950422 -6.54616,27.466658 L 48,48 z" color="#000" display="inline" enable-background="accumulate" opacity=".2" overflow="visible" transform="matrix(0.99411049,-0.1083712,0.1083712,0.99411049,-5.1582185,5.4918915)" visibility="visible" style="marker:none"/><path id="path4151" fill="url(#linearGradient3471)" fill-opacity="1" fill-rule="nonzero" stroke="none" stroke-width="2" d="m 108.8959,48 c 0,7.838782 -1.51343,15.60384 -4.45721,22.86887 L 48,48 z" color="#000" display="inline" enable-background="accumulate" opacity=".4" overflow="visible" transform="matrix(0.99786084,-0.06537382,0.06537382,0.99786084,-3.0940115,3.2415713)" visibility="visible" style="marker:none"/><path id="path4153" fill="url(#linearGradient3473)" fill-opacity="1" fill-rule="nonzero" stroke="none" stroke-width="2" d="m 108.8959,48 c 0,6.55049 -1.05689,13.058072 -3.12994,19.271878 L 48,48 z" color="#000" display="inline" enable-background="accumulate" opacity=".6" overflow="visible" transform="matrix(0.99945136,-0.0331207,0.0331207,0.99945136,-1.5634586,1.6161281)" visibility="visible" style="marker:none"/><path id="path4155" fill="url(#linearGradient3475)" fill-opacity="1" fill-rule="nonzero" stroke="none" stroke-width="2" d="m 108.8959,48 c 0,5.321771 -0.6976,10.620584 -2.07497,15.76102 L 48,48 z" color="#000" display="inline" enable-background="accumulate" opacity=".8" overflow="visible" visibility="visible" style="marker:none"/></g></g><path id="path3772" fill="url(#linearGradient3774)" fill-opacity="1" fill-rule="nonzero" stroke="none" stroke-width="1" d="m 65.504545,-17.999997 c -0.708389,0 -1.26818,0.588591 -1.268182,1.309091 l 0,2.536364 c -1.266645,0.337485 -2.472178,0.849146 -3.579544,1.493178 l -1.820456,-1.799997 c -0.254736,-0.254736 -0.549896,-0.406297 -0.879546,-0.40909 -0.329648,-0.0026 -0.670004,0.117732 -0.920453,0.368179 l -3.538638,3.538639 c -0.500896,0.500903 -0.468502,1.2905325 0.04091,1.8000004 l 1.800001,1.8204527 c -0.644023,1.1073645 -1.155692,2.3129032 -1.493181,3.5795442 l -2.536363,2e-7 c -0.720493,3e-6 -1.309091,0.5597936 -1.309093,1.2681849 L 50,2.4954562 c 2e-6,0.7083857 0.5886,1.2681824 1.309092,1.2681794 l 2.536364,2e-7 c 0.337488,1.2666468 0.849153,2.4721883 1.493182,3.5795443 l -1.800002,1.8204583 c -0.509464,0.509462 -0.541857,1.2990926 -0.04091,1.8000006 l 3.538637,3.538633 c 0.500896,0.500908 1.290535,0.468556 1.799998,-0.04091 l 1.820456,-1.800002 c 1.107436,0.643913 2.312902,1.155699 3.579544,1.493184 l 0,2.536364 c 2e-6,0.720487 0.559793,1.309091 1.268182,1.309091 l 4.990909,0 c 0.708383,-3e-6 1.268183,-0.588604 1.268184,-1.309096 l -2e-6,-2.536359 c 1.266644,-0.337485 2.47218,-0.849152 3.579546,-1.493184 l 1.820453,1.800003 c 0.509468,0.509462 1.299097,0.54181 1.800002,0.04091 l 3.538635,-3.538634 C 83.00317,10.462731 82.970776,9.6731004 82.461362,9.1636385 L 80.661364,7.3431802 c 0.64402,-1.1073589 1.155698,-2.3129003 1.493181,-3.5795446 l 2.536364,2e-7 c 0.720484,0 1.309091,-0.5597936 1.309089,-1.2681793 l -1e-6,-4.9909067 c 2e-6,-0.7083914 -0.588604,-1.2681851 -1.309089,-1.2681851 l -2.536364,-2e-7 c -0.337483,-1.2666439 -0.849156,-2.4721827 -1.493182,-3.5795443 l 1.799999,-1.8204526 c 0.509467,-0.5094678 0.541873,-1.2990986 0.04091,-1.8000006 l -3.538634,-3.538639 c -0.500904,-0.500905 -1.290535,-0.468557 -1.800001,0.04091 l -1.820453,1.799997 c -1.107436,-0.643913 -2.312904,-1.155693 -3.579547,-1.493178 l 1e-6,-2.536364 c 10e-7,-0.7205 -0.559799,-1.309094 -1.268182,-1.309091 l -4.990909,0 z m 2.495456,12.7636328 c 2.891965,10e-8 5.236363,2.344398 5.236361,5.236367088955 C 73.236363,2.8919663 70.891965,5.2363646 68,5.2363645 65.108035,5.2363644 62.763636,2.8919664 62.763635,3.0264747e-6 62.763638,-2.891966 65.108036,-5.2363643 68.000001,-5.2363642 z" display="block" enable-background="accumulate" overflow="visible" visibility="visible" style="marker:none"/><path id="path4405" fill="url(#linearGradient4407)" fill-opacity="1" fill-rule="nonzero" stroke="none" stroke-width="1" d="m 65.50454,-18.000002 c -0.70838,-1e-6 -1.26818,0.588596 -1.26818,1.309091 l 0,2.536364 c -1.26664,0.337485 -2.47218,0.849151 -3.57954,1.493184 l -1.82046,-1.800003 c -0.25473,-0.254736 -0.54989,-0.406295 -0.87954,-0.40909 -0.32965,-0.0026 -0.67,0.117732 -0.92046,0.368185 l -3.53863,3.538633 c -0.5009,0.500908 -0.4685,1.290533 0.0409,1.8 l 1.8,1.820453 c -0.64403,1.107364 -1.1557,2.312903 -1.49319,3.57955 l -2.53636,0 c -0.72049,-4e-6 -1.30909,0.559794 -1.30909,1.268179 l 0,4.990907 c 0,0.708391 0.5886,1.268181 1.30909,1.268185 l 2.53636,0 c 0.33749,1.266641 0.84916,2.472182 1.49319,3.579544 l -1.8,1.820453 c -0.50947,0.509469 -0.54186,1.299097 -0.0409,1.8 l 3.53863,3.53864 c 0.5009,0.500902 1.29054,0.468557 1.8,-0.04091 l 1.82046,-1.799998 c 1.10743,0.643913 2.31291,1.155695 3.57954,1.493179 l 0,2.536364 c 0,0.720492 0.5598,1.30909 1.26818,1.30909 l 4.99091,10e-7 c 0.70839,-3e-6 1.26818,-0.588599 1.26818,-1.309091 l 0,-2.536364 c 1.26665,-0.337486 2.47218,-0.849146 3.57955,-1.493179 l 1.82045,1.799996 c 0.50947,0.509467 1.2991,0.541815 1.8,0.04091 l 3.53864,-3.53864 c 0.5009,-0.500901 0.4685,-1.290533 -0.0409,-1.799999 l -1.8,-1.820453 c 0.64403,-1.107365 1.1557,-2.3129 1.49318,-3.579545 l 2.53637,0 c 0.72048,10e-7 1.30909,-0.559793 1.30909,-1.268185 l 0,-4.990907 c 0,-0.708385 -0.5886,-1.268183 -1.30909,-1.268179 l -2.53637,0 c -0.33747,-1.266649 -0.84915,-2.472188 -1.49318,-3.57955 l 1.8,-1.820453 c 0.50947,-0.509463 0.54187,-1.299094 0.0409,-1.8 l -3.53864,-3.538631 c -0.5009,-0.500906 -1.29053,-0.468557 -1.8,0.0409 l -1.82045,1.800003 c -1.10743,-0.643913 -2.3129,-1.1557 -3.57955,-1.493185 l 0,-2.536364 c 0,-0.720494 -0.5598,-1.309087 -1.26818,-1.309091 l -4.99091,0 z M 68,-9.163635 c 5.06094,-4e-6 9.16363,4.102694 9.16363,9.163633 0,5.060939 -4.10269,9.163634 -9.16363,9.163638 -5.06093,-1e-6 -9.16364,-4.1027 -9.16364,-9.163638 0,-5.060939 4.10271,-9.163634 9.16364,-9.163633 z" display="block" enable-background="accumulate" overflow="visible" visibility="visible" style="marker:none"/><path id="path3487" fill="#fff" fill-opacity="1" fill-rule="nonzero" stroke="none" stroke-width="1" d="m 14.03125,7 c -0.275481,0 -0.5,0.2198081 -0.5,0.5 l 0,1 c 0,-0.2801919 0.224519,-0.5 0.5,-0.5 l 1.9375,0 c 0.275481,0 0.5,0.219808 0.5,0.5 l 0,-1 c 0,-0.280192 -0.224519,-0.5 -0.5,-0.5 l -1.9375,0 z m 2.4375,1.5 0,1 c 0.492586,0.131243 0.944356,0.3120433 1.375,0.5625 L 18.5625,9.375 c 0.198127,-0.1981252 0.492705,-0.1947959 0.6875,0 l 1.21875,1.21875 0.15625,-0.15625 c 0.198127,-0.198125 0.194821,-0.4927041 0,-0.6875 L 19.25,8.375 c -0.194795,-0.1947959 -0.489373,-0.1981252 -0.6875,0 L 17.84375,9.0625 C 17.413106,8.8120433 16.961336,8.631243 16.46875,8.5 z m -2.9375,0 c -0.492582,0.131243 -0.94436,0.3120433 -1.375,0.5625 L 11.4375,8.375 C 11.33844,8.275937 11.221947,8.2198366 11.09375,8.21875 10.965553,8.21766 10.847397,8.2776021 10.75,8.375 L 9.375,9.75 c -0.194794,0.1947959 -0.198108,0.489374 0,0.6875 L 9.53125,10.59375 10.75,9.375 c 0.0974,-0.097398 0.215553,-0.15734 0.34375,-0.15625 0.128197,0.00109 0.24469,0.057187 0.34375,0.15625 l 0.71875,0.6875 C 12.58689,9.8120433 13.038668,9.631243 13.53125,9.5 l 0,-1 z M 9.75,11.8125 C 9.65254,12.045108 9.565623,12.284958 9.5,12.53125 l -1,0 c -0.28019,0 -0.5,0.224517 -0.5,0.5 l 0,1 c 0,-0.275483 0.21981,-0.5 0.5,-0.5 l 1,0 c 0.131246,-0.492583 0.312044,-0.94436 0.5625,-1.375 L 9.75,11.8125 z m 10.5,0 -0.3125,0.34375 c 0.250456,0.43064 0.431262,0.882417 0.5625,1.375 l 1,0 c 0.280186,0 0.5,0.224517 0.5,0.5 l 0,-1 c 0,-0.275483 -0.219814,-0.5 -0.5,-0.5 l -1,0 C 20.434381,12.284958 20.347457,12.045108 20.25,11.8125 z M 13.03125,14.5 c -0.04185,0.162664 -0.0625,0.324273 -0.0625,0.5 0,1.124652 0.906596,2.03125 2.03125,2.03125 1.12465,0 2.03125,-0.906598 2.03125,-2.03125 0,-0.175727 -0.02065,-0.337336 -0.0625,-0.5 -0.225998,0.878384 -1.019827,1.53125 -1.96875,1.53125 -0.948927,0 -1.742752,-0.652866 -1.96875,-1.53125 z M 9.75,17.1875 9.375,17.5625 c -0.198127,0.198125 -0.194813,0.492703 0,0.6875 l 0.15625,0.15625 0.53125,-0.5625 C 9.937272,17.628429 9.847459,17.420108 9.75,17.1875 z m 10.5,0 c -0.09746,0.232608 -0.187272,0.440929 -0.3125,0.65625 l 0.53125,0.5625 L 20.625,18.25 c 0.194794,-0.194796 0.198104,-0.489375 0,-0.6875 l -0.375,-0.375 z" display="block" enable-background="accumulate" opacity=".7" overflow="visible" visibility="visible" style="marker:none"/></g></svg>