<svg xmlns="http://www.w3.org/2000/svg" xmlns:svg="http://www.w3.org/2000/svg" xmlns:xlink="http://www.w3.org/1999/xlink" id="svg2" width="16" height="16" display="inline" version="1.0"><defs id="defs4"><linearGradient id="linearGradient3327"><stop id="stop3330" offset="0" stop-color="#000" stop-opacity="1"/><stop id="stop3333" offset="1" stop-color="#000" stop-opacity="0"/></linearGradient><linearGradient id="ButtonColor" x1="10.32" x2="10.32" y1="21" y2=".999" gradientUnits="userSpaceOnUse"><stop id="stop3189" offset="0" stop-color="#29669f" stop-opacity="1"/><stop id="stop3191" offset="1" stop-color="#88b6e0" stop-opacity="1"/></linearGradient><linearGradient id="linearGradient3204" x1="1" x2="15" y1="9" y2="9" gradientTransform="translate(-17,-2)" gradientUnits="userSpaceOnUse" xlink:href="#ButtonColor-3"/><linearGradient id="linearGradient3629" x1="0" x2="29.017" y1="8" y2="8" gradientTransform="matrix(0,-1,1,0,0,16)" gradientUnits="userSpaceOnUse" xlink:href="#linearGradient3327"/><linearGradient id="linearGradient3765" x1="383.289" x2="383.289" y1="0" y2="218.48" gradientTransform="matrix(0.09341072,0,0,0.04108075,-26.756456,8.0246654)" gradientUnits="userSpaceOnUse" xlink:href="#SVGID_1_-4"/><linearGradient id="SVGID_1_-4" x1="383.289" x2="383.289" y1="0" y2="218.48" gradientUnits="userSpaceOnUse"><stop id="stop3143-2" offset=".006" stop-color="#ED2828"/><stop id="stop3145-1" offset=".5" stop-color="#EF3B39"/><stop id="stop3147-3" offset=".994" stop-color="#C02126"/></linearGradient><linearGradient id="linearGradient3749-5" x1="175.308" x2="175.308" y1="73.254" y2="180.675" gradientUnits="userSpaceOnUse"><stop id="stop3751-8" offset="0" stop-color="#000" stop-opacity="1"/><stop id="stop3753-7" offset=".994" stop-color="#000" stop-opacity=".473"/></linearGradient><linearGradient id="linearGradient3754" x1="175.308" x2="175.308" y1="73.254" y2="180.675" gradientTransform="matrix(0.04164302,0,0,0.03408859,1.9444673,0.78644322)" gradientUnits="userSpaceOnUse" xlink:href="#linearGradient3749-5"/><linearGradient id="linearGradient3756" x1="175.308" x2="175.308" y1="73.254" y2="180.675" gradientTransform="matrix(0.04998763,0,0,0.03408859,2.4795353,0.78644322)" gradientUnits="userSpaceOnUse" xlink:href="#linearGradient3749-5"/><linearGradient id="linearGradient3809" x1="175.308" x2="175.308" y1="73.254" y2="180.675" gradientTransform="matrix(0.04859283,0,0,0.03408859,3.115962,0.78644322)" gradientUnits="userSpaceOnUse" xlink:href="#linearGradient3749-5"/><linearGradient id="linearGradient4163" x1="6" x2="90" y1="48" y2="48" gradientTransform="translate(-96,0)" gradientUnits="userSpaceOnUse" xlink:href="#linearGradient3696"/><linearGradient id="linearGradient3696"><stop id="stop3698" offset="0" stop-color="#2458a6" stop-opacity="1"/><stop id="stop3700" offset="1" stop-color="#598ad4" stop-opacity="1"/></linearGradient><linearGradient id="linearGradient3738" x1="6" x2="90" y1="48" y2="48" gradientTransform="translate(-52.867199,-57.252856)" gradientUnits="userSpaceOnUse" xlink:href="#linearGradient3696"/><linearGradient id="linearGradient4113" x1="22.111" x2="40" y1="62.984" y2="32" gradientTransform="matrix(0.19388162,0,0,0.19388162,-1.4007219,-1.9461429)" gradientUnits="userSpaceOnUse" xlink:href="#linearGradient4099"/><linearGradient id="linearGradient4099"><stop id="stop4101" offset="0" stop-color="#9ede27" stop-opacity="1"/><stop id="stop4103" offset="1" stop-color="#c8f16b" stop-opacity="1"/></linearGradient><linearGradient id="linearGradient4105" x1="38" x2="70" y1="74" y2="49" gradientTransform="matrix(0.19388162,0,0,0.19388162,-1.5256152,-1.9461429)" gradientUnits="userSpaceOnUse" xlink:href="#linearGradient4099"/><linearGradient id="linearGradient3712"><stop id="stop3714" offset="0" stop-color="#9ede27" stop-opacity="1"/><stop id="stop3716" offset="1" stop-color="#c8f16b" stop-opacity="1"/></linearGradient><linearGradient id="linearGradient3746" x1="56.037" x2="56.037" y1="49.333" y2="13.593" gradientTransform="matrix(0.26518093,0,0,0.26518093,-0.34872536,-3.7081516)" gradientUnits="userSpaceOnUse" xlink:href="#linearGradient3799-3"/><linearGradient id="linearGradient3799-3"><stop id="stop3801-3" offset="0" stop-color="#1a1a1a" stop-opacity="1"/><stop id="stop3803-2" offset="1" stop-color="#000" stop-opacity="1"/></linearGradient><linearGradient id="linearGradient3726" x1="56.037" x2="56.037" y1="49.333" y2="13.593" gradientTransform="matrix(0.19388162,0,0,0.19388162,-1.3401963,-1.8843368)" gradientUnits="userSpaceOnUse" xlink:href="#linearGradient3799-3"/><radialGradient id="radialGradient3758" cx="49.581" cy="67.041" r="10" fx="49.581" fy="67.041" gradientTransform="matrix(1.0456205,0.08243661,-0.05194947,0.90987799,0.84943041,1.3399685)" gradientUnits="userSpaceOnUse" xlink:href="#linearGradient3784-2"/><linearGradient id="linearGradient3784-2"><stop id="stop3786-4" offset="0" stop-color="#a0a0a0" stop-opacity="1"/><stop id="stop3790-2" offset="1" stop-color="#1a1a1a" stop-opacity="1"/></linearGradient><radialGradient id="radialGradient3745" cx="49.581" cy="67.041" r="10" fx="49.581" fy="67.041" gradientTransform="matrix(1.0456205,0.08243661,-0.05194947,0.90987799,0.84943041,1.3399685)" gradientUnits="userSpaceOnUse" xlink:href="#linearGradient3784-2"/><radialGradient id="radialGradient3698" cx="10.117" cy="6.534" r="2.649" fx="10.117" fy="6.534" gradientTransform="matrix(0.60548597,-0.18291744,0.13322228,0.44098703,0.81853832,7.6996387)" gradientUnits="userSpaceOnUse" xlink:href="#linearGradient3784-2"/><linearGradient id="linearGradient3205" x1="7.376" x2="7.376" y1="25.159" y2="7" gradientTransform="translate(2.0600706,-6.1590104)" gradientUnits="userSpaceOnUse" xlink:href="#ButtonColor-3"/><linearGradient id="ButtonColor-3" x1="10.32" x2="10.32" y1="21" y2=".999" gradientUnits="userSpaceOnUse"><stop id="stop3189-2" offset="0" stop-color="#d28c1e" stop-opacity="1"/><stop id="stop3191-3" offset="1" stop-color="#ffcf0f" stop-opacity="1"/></linearGradient><linearGradient id="linearGradient2895" x1="7.376" x2="7.376" y1="25.159" y2="7" gradientTransform="translate(-27.352531,-14.335968)" gradientUnits="userSpaceOnUse" xlink:href="#ButtonColor-3"/><linearGradient id="linearGradient5341" x1="7.124" x2="7.124" y1="2.161" y2="6.261" gradientTransform="matrix(1.4019643,0,0,1,-1.5989816,0)" gradientUnits="userSpaceOnUse" xlink:href="#linearGradient5287"/><linearGradient id="linearGradient5287"><stop id="stop5289" offset="0" stop-color="#000" stop-opacity="1"/><stop id="stop5291" offset="1" stop-color="#000" stop-opacity="0"/></linearGradient><linearGradient id="linearGradient2927" x1="7.124" x2="7.124" y1="2.161" y2="6.261" gradientTransform="matrix(1.1198688,0,0,0.79878555,-2.0320133,-0.79878559)" gradientUnits="userSpaceOnUse" xlink:href="#linearGradient5287"/><linearGradient id="linearGradient3828" x1="7.124" x2="7.124" y1="2.161" y2="6.261" gradientTransform="matrix(1.1198688,0,0,0.66858793,-2.0320133,-0.668588)" gradientUnits="userSpaceOnUse" xlink:href="#linearGradient5287"/></defs><metadata id="metadata7"/><g id="layer1"><rect id="rect3196" width="16" height="16" x="-16" y="0" fill="url(#linearGradient3204)" fill-opacity="1" fill-rule="nonzero" stroke="none" rx="2" ry="2" transform="matrix(0,-1,1,0,0,0)"/><path id="path5318" fill="url(#linearGradient3828)" fill-opacity="1" fill-rule="evenodd" stroke="none" d="M 2 0 C 1.757625 0 1.5271271 0.046708862 1.3125 0.125 L 0.21875 2 L 2.5 2 L 3.65625 0 L 2 0 z M 4.71875 0 L 3.5625 2 L 5.875 2 L 7.03125 0 L 4.71875 0 z M 8.09375 0 L 6.9375 2 L 9.21875 2 L 10.375 0 L 8.09375 0 z M 11.4375 0 L 10.28125 2 L 12.59375 2 L 13.75 0 L 11.4375 0 z M 14.8125 0.1875 L 13.75 2 L 16 2 C 16 1.1839968 15.510083 0.49917037 14.8125 0.1875 z" display="inline" opacity=".8"/><path id="rect2835" fill="url(#linearGradient3629)" fill-opacity="1" fill-rule="nonzero" stroke="none" d="m 0,14 c 0,1.108 0.892,2 2,2 l 12,0 c 1.108,0 2,-0.892 2,-2 L 16,2 C 16,0.892 15.108,0 14,0 L 2,0 C 0.892,0 0,0.892 0,2 l 0,12 z m 0.96875,0 0,-12 C 0.96875,1.416801 1.4168007,0.96875 2,0.96875 l 12,0 c 0.583199,0 1.03125,0.448051 1.03125,1.03125 l 0,12 c 0,0.583199 -0.448051,1.03125 -1.03125,1.03125 l -12,0 C 1.4168007,15.03125 0.96875,14.583199 0.96875,14 z" opacity=".4"/><path id="path2843" fill="#fff" fill-opacity="1" fill-rule="nonzero" stroke="none" d="M 2 0.96875 C 1.4168007 0.96875 0.96875 1.4168007 0.96875 2 L 0.96875 3 C 0.96875 2.4168007 1.4168007 1.96875 2 1.96875 L 14 1.96875 C 14.583199 1.96875 15.03125 2.4168007 15.03125 3 L 15.03125 2 C 15.03125 1.4168007 14.583199 0.96875 14 0.96875 L 2 0.96875 z" opacity=".35"/><path id="path4617" fill="#403407" fill-opacity="1" d="M 5.5060778,12.976271 C 5.3616076,12.9624 5.2905097,12.938612 5.2387241,12.88681 5.1695131,12.81758 5.1677741,12.79636 5.1467451,11.764051 L 5.1253108,10.711856 4.9543227,10.031875 4.7833331,9.351896 3.8392606,11.012312 C 3.3200209,11.925542 2.8444461,12.7261 2.7824296,12.791331 2.6250001,12.956918 2.5334974,12.949495 2.2620674,12.749123 2.029641,12.577542 1.9775238,12.492188 2.0078318,12.332753 c 0.02731,-0.143657 0.00361,-0.09999 1.1112141,-2.046749 C 3.6679711,9.321202 4.1229373,8.5012412 4.1300805,8.4638682 4.1411956,8.4057267 4.0942534,8.3698514 3.8048409,8.2153022 3.4706395,8.0368357 3.4660631,8.0354658 3.4206629,8.1002837 3.3400234,8.2154135 3.2244139,8.181908 2.9987781,7.9780137 2.6891443,7.698218 2.6784149,7.7432415 3.3610018,6.4580261 3.6704927,5.8752989 3.9578587,5.3629415 3.999593,5.3194544 l 0.07588,-0.079068 1.3557948,-0.00918 1.3557955,-0.00918 L 6.7407823,5.073068 C 6.6329744,4.7260804 6.7425189,4.3008015 7.004766,4.0481975 7.4497675,3.6195654 8.1646825,3.7619176 8.4450902,4.3349914 8.550786,4.5510028 8.5609884,4.8972804 8.4688857,5.1425591 8.3301754,5.5119599 8.007059,5.7361857 7.613453,5.7361857 c -0.2072618,0 -0.2175762,0.00347 -0.2034989,0.06837 0.00816,0.037604 0.059733,0.8582541 0.1146253,1.8236678 0.075116,1.3212788 0.091598,1.7863732 0.066643,1.8809742 -0.018232,0.06912 -0.028449,0.133166 -0.022705,0.14232 0.00571,0.0092 0.2039304,0.116272 0.4404092,0.238036 0.2766636,0.1424553 0.4383703,0.2094603 0.453546,0.1879343 0.2435431,-0.3454953 0.6921112,-0.8702813 0.7792142,-0.9116143 0.090742,-0.04306 0.2375802,-0.05117 0.9253792,-0.05113 0.71566,4.3e-5 0.831086,0.0069 0.926385,0.05535 0.08043,0.04086 0.479276,0.534066 1.527052,1.8883433 0.780005,1.008173 1.413965,1.854986 1.408801,1.881805 -0.0084,0.04356 -0.423235,0.04962 -3.89117,0.05679 -3.5094074,0.0073 -3.8817817,0.0032 -3.8817817,-0.04161 0,-0.02731 0.4216119,-0.59014 0.9369158,-1.250744 C 7.7085705,11.044071 8.1248601,10.499093 8.118356,10.493611 8.111815,10.488123 7.6025957,10.217668 6.9866747,9.892586 5.9848335,9.363817 5.7801843,9.27309 5.7826601,9.35881 c 3.925e-4,0.01359 0.077605,0.344565 0.1715828,0.735494 l 0.1708678,0.71078 0.00347,1.035504 c 0.00336,1.001678 0.00137,1.037607 -0.060887,1.099866 -0.068429,0.06843 -0.1607068,0.07431 -0.5616252,0.03582 z M 6.7310474,8.4110579 C 6.7080826,7.971802 6.6805595,7.5796365 6.6698857,7.539578 6.6548235,7.4830476 6.5839586,7.6175793 6.3533471,8.140491 6.189924,8.5110511 6.0515272,8.8234012 6.045799,8.834602 6.034707,8.856292 6.7374899,9.23469 6.7596893,9.218982 6.7668993,9.213882 6.7540093,8.8503131 6.7310473,8.4110579 z M 4.696997,7.1451938 C 4.8917363,6.7063694 5.0606786,6.3219265 5.0724238,6.2908758 5.0922218,6.2385331 5.0690029,6.2350769 4.7536725,6.2434351 l -0.3401048,0.00902 -0.359233,0.6776092 C 3.8567558,7.3027495 3.7015615,7.6141343 3.7094573,7.62203 c 0.020144,0.020142 0.598353,0.3204113 0.617654,0.3207512 0.0087,1.533e-4 0.1751465,-0.3587594 0.3698857,-0.797583 z" display="inline"/></g></svg>