<svg xmlns="http://www.w3.org/2000/svg" xmlns:svg="http://www.w3.org/2000/svg" xmlns:xlink="http://www.w3.org/1999/xlink" id="svg2" width="16" height="16" display="inline" version="1.0"><defs id="defs4"><linearGradient id="linearGradient3327"><stop id="stop3330" offset="0" stop-color="#000" stop-opacity="1"/><stop id="stop3333" offset="1" stop-color="#000" stop-opacity="0"/></linearGradient><linearGradient id="ButtonColor" x1="10.32" x2="10.32" y1="21" y2=".999" gradientUnits="userSpaceOnUse"><stop id="stop3189" offset="0" stop-color="#29669f" stop-opacity="1"/><stop id="stop3191" offset="1" stop-color="#88b6e0" stop-opacity="1"/></linearGradient><linearGradient id="linearGradient3204" x1="1" x2="15" y1="9" y2="9" gradientTransform="translate(-17,-2)" gradientUnits="userSpaceOnUse" xlink:href="#linearGradient3187"/><linearGradient id="linearGradient3629" x1="0" x2="29.017" y1="8" y2="8" gradientTransform="matrix(0,-1,1,0,0,16)" gradientUnits="userSpaceOnUse" xlink:href="#linearGradient3327"/><linearGradient id="linearGradient3765" x1="383.289" x2="383.289" y1="0" y2="218.48" gradientTransform="matrix(0.09341072,0,0,0.04108075,-26.756456,8.0246654)" gradientUnits="userSpaceOnUse" xlink:href="#SVGID_1_-4"/><linearGradient id="SVGID_1_-4" x1="383.289" x2="383.289" y1="0" y2="218.48" gradientUnits="userSpaceOnUse"><stop id="stop3143-2" offset=".006" stop-color="#ED2828"/><stop id="stop3145-1" offset=".5" stop-color="#EF3B39"/><stop id="stop3147-3" offset=".994" stop-color="#C02126"/></linearGradient><linearGradient id="linearGradient3749-5" x1="175.308" x2="175.308" y1="73.254" y2="180.675" gradientUnits="userSpaceOnUse"><stop id="stop3751-8" offset="0" stop-color="#000" stop-opacity="1"/><stop id="stop3753-7" offset=".994" stop-color="#000" stop-opacity=".473"/></linearGradient><linearGradient id="linearGradient3754" x1="175.308" x2="175.308" y1="73.254" y2="180.675" gradientTransform="matrix(0.04164302,0,0,0.03408859,1.9444673,0.78644322)" gradientUnits="userSpaceOnUse" xlink:href="#linearGradient3749-5"/><linearGradient id="linearGradient3756" x1="175.308" x2="175.308" y1="73.254" y2="180.675" gradientTransform="matrix(0.04998763,0,0,0.03408859,2.4795353,0.78644322)" gradientUnits="userSpaceOnUse" xlink:href="#linearGradient3749-5"/><linearGradient id="linearGradient3809" x1="175.308" x2="175.308" y1="73.254" y2="180.675" gradientTransform="matrix(0.04859283,0,0,0.03408859,3.115962,0.78644322)" gradientUnits="userSpaceOnUse" xlink:href="#linearGradient3749-5"/><linearGradient id="linearGradient4163" x1="6" x2="90" y1="48" y2="48" gradientTransform="translate(-96,0)" gradientUnits="userSpaceOnUse" xlink:href="#linearGradient3696"/><linearGradient id="linearGradient3696"><stop id="stop3698" offset="0" stop-color="#2458a6" stop-opacity="1"/><stop id="stop3700" offset="1" stop-color="#598ad4" stop-opacity="1"/></linearGradient><linearGradient id="linearGradient3738" x1="6" x2="90" y1="48" y2="48" gradientTransform="translate(-52.867199,-57.252856)" gradientUnits="userSpaceOnUse" xlink:href="#linearGradient3696"/><linearGradient id="linearGradient4113" x1="22.111" x2="40" y1="62.984" y2="32" gradientTransform="matrix(0.19388162,0,0,0.19388162,-1.4007219,-1.9461429)" gradientUnits="userSpaceOnUse" xlink:href="#linearGradient4099"/><linearGradient id="linearGradient4099"><stop id="stop4101" offset="0" stop-color="#9ede27" stop-opacity="1"/><stop id="stop4103" offset="1" stop-color="#c8f16b" stop-opacity="1"/></linearGradient><linearGradient id="linearGradient4105" x1="38" x2="70" y1="74" y2="49" gradientTransform="matrix(0.19388162,0,0,0.19388162,-1.5256152,-1.9461429)" gradientUnits="userSpaceOnUse" xlink:href="#linearGradient4099"/><linearGradient id="linearGradient3712"><stop id="stop3714" offset="0" stop-color="#9ede27" stop-opacity="1"/><stop id="stop3716" offset="1" stop-color="#c8f16b" stop-opacity="1"/></linearGradient><linearGradient id="linearGradient3746" x1="56.037" x2="56.037" y1="49.333" y2="13.593" gradientTransform="matrix(0.26518093,0,0,0.26518093,-0.34872536,-3.7081516)" gradientUnits="userSpaceOnUse" xlink:href="#linearGradient3799-3"/><linearGradient id="linearGradient3799-3"><stop id="stop3801-3" offset="0" stop-color="#1a1a1a" stop-opacity="1"/><stop id="stop3803-2" offset="1" stop-color="#000" stop-opacity="1"/></linearGradient><linearGradient id="linearGradient3726" x1="56.037" x2="56.037" y1="49.333" y2="13.593" gradientTransform="matrix(0.19388162,0,0,0.19388162,-1.3401963,-1.8843368)" gradientUnits="userSpaceOnUse" xlink:href="#linearGradient3799-3"/><radialGradient id="radialGradient3758" cx="49.581" cy="67.041" r="10" fx="49.581" fy="67.041" gradientTransform="matrix(1.0456205,0.08243661,-0.05194947,0.90987799,0.84943041,1.3399685)" gradientUnits="userSpaceOnUse" xlink:href="#linearGradient3784-2"/><linearGradient id="linearGradient3784-2"><stop id="stop3786-4" offset="0" stop-color="#a0a0a0" stop-opacity="1"/><stop id="stop3790-2" offset="1" stop-color="#1a1a1a" stop-opacity="1"/></linearGradient><radialGradient id="radialGradient3745" cx="49.581" cy="67.041" r="10" fx="49.581" fy="67.041" gradientTransform="matrix(1.0456205,0.08243661,-0.05194947,0.90987799,0.84943041,1.3399685)" gradientUnits="userSpaceOnUse" xlink:href="#linearGradient3784-2"/><radialGradient id="radialGradient3698" cx="10.117" cy="6.534" r="2.649" fx="10.117" fy="6.534" gradientTransform="matrix(0.60548597,-0.18291744,0.13322228,0.44098703,0.81853832,7.6996387)" gradientUnits="userSpaceOnUse" xlink:href="#linearGradient3784-2"/><linearGradient id="linearGradient3332" x1="-1.813" x2="-1.813" y1="22.25" y2="2.248" gradientTransform="translate(8.5625,-1.25)" gradientUnits="userSpaceOnUse" xlink:href="#linearGradient3187"/><linearGradient id="linearGradient3187"><stop id="stop3189-2" offset="0" stop-color="#a26f39" stop-opacity="1"/><stop id="stop3191-4" offset="1" stop-color="#d9b27b" stop-opacity="1"/></linearGradient><linearGradient id="linearGradient3008" x1="-1.813" x2="-1.813" y1="22.25" y2="2.248" gradientTransform="translate(8.7014211,-7.8808608)" gradientUnits="userSpaceOnUse" xlink:href="#linearGradient3187"/><linearGradient id="linearGradient6865" x1="35.5" x2="35.5" y1="14" y2="38.047" gradientTransform="matrix(0.06681147,0,0,0.06976883,6.5743071,4.1733169)" gradientUnits="userSpaceOnUse" xlink:href="#linearGradient3465"/><linearGradient id="linearGradient3465"><stop id="stop3467" offset="0" stop-color="#a0a0a0" stop-opacity="1"/><stop id="stop3469" offset="1" stop-color="#fdfdfd" stop-opacity="1"/></linearGradient><linearGradient id="linearGradient6863" x1="8.724" x2="8.724" y1="7.373" y2="3.73" gradientTransform="matrix(0.3412883,0,0,0.53912027,6.6566487,3.2918024)" gradientUnits="userSpaceOnUse" xlink:href="#linearGradient7125"/><linearGradient id="linearGradient7125"><stop id="stop7127" offset="0" stop-color="#90c7b0" stop-opacity="1"/><stop id="stop7129" offset="1" stop-color="#438468" stop-opacity="1"/></linearGradient><linearGradient id="linearGradient6899" x1="14.275" x2="14.275" y1="16.897" y2="4.876" gradientTransform="matrix(0.76610503,0,0,0.76745732,0.10695553,0.11867217)" gradientUnits="userSpaceOnUse" xlink:href="#ButtonColor-5"/><linearGradient id="ButtonColor-5" x1="10.32" x2="10.32" y1="21" y2=".999" gradientUnits="userSpaceOnUse" spreadMethod="pad" xlink:href="#linearGradient3187-9"><stop id="stop6829" offset="0" stop-color="#b4b4b4" stop-opacity="1"/><stop id="stop6831" offset="1" stop-color="#e6e6e6" stop-opacity="1"/></linearGradient><linearGradient id="linearGradient3187-9"><stop id="stop3189-6" offset="0" stop-color="#a26f39" stop-opacity="1"/><stop id="stop3191-6" offset="1" stop-color="#d9b27b" stop-opacity="1"/></linearGradient><linearGradient id="linearGradient6947" x1="13.923" x2="13.923" y1="18" y2="2.967" gradientUnits="userSpaceOnUse" xlink:href="#linearGradient3215"/><linearGradient id="linearGradient3215"><stop id="stop3217" offset="0" stop-color="#000" stop-opacity=".784"/><stop id="stop3318" offset=".3" stop-color="#000" stop-opacity=".314"/><stop id="stop3219" offset="1" stop-color="#000" stop-opacity=".078"/></linearGradient><linearGradient id="linearGradient6444" x1="141.25" x2="144.813" y1="4.922" y2="4.922" gradientTransform="matrix(-0.37134229,5.0986581e-4,-7.1456359e-4,0.26557461,57.038409,0.404996)" gradientUnits="userSpaceOnUse" xlink:href="#linearGradient3394"/><linearGradient id="linearGradient3394"><stop id="stop3396" offset="0" stop-color="#000" stop-opacity="1"/><stop id="stop3402" offset=".5" stop-color="#7d7d7d" stop-opacity="1"/><stop id="stop3398" offset="1" stop-color="#000" stop-opacity="1"/></linearGradient><linearGradient id="linearGradient6454" x1="136" x2="150" y1="106" y2="106" gradientTransform="matrix(0.17446134,0,0,0.12117789,-28.901829,-1.3627553)" gradientUnits="userSpaceOnUse" xlink:href="#linearGradient3401"/><linearGradient id="linearGradient3401"><stop id="stop3403" offset="0" stop-color="#292929" stop-opacity="1"/><stop id="stop3447" offset=".2" stop-color="#595959" stop-opacity="1"/><stop id="stop3410" offset=".7" stop-color="#efefef" stop-opacity="1"/><stop id="stop3405" offset="1" stop-color="#7f7f7f" stop-opacity="1"/></linearGradient><linearGradient id="linearGradient6441" x1="136.988" x2="148.995" y1="17.043" y2="17.043" gradientTransform="matrix(-0.19252962,2.1820859e-4,-3.7047937e-4,0.11365866,31.483884,0.78846334)" gradientUnits="userSpaceOnUse" xlink:href="#linearGradient3308"/><linearGradient id="linearGradient3308"><stop id="stop3310" offset="0" stop-color="#ba6920" stop-opacity="1"/><stop id="stop3312" offset="1" stop-color="#fff" stop-opacity="1"/></linearGradient><linearGradient id="linearGradient6447" x1="136" x2="150" y1="60" y2="60" gradientTransform="matrix(-0.17492928,2.0099807e-4,-3.3661149e-4,0.10469415,28.969261,1.0206272)" gradientUnits="userSpaceOnUse" xlink:href="#linearGradient3278"/><linearGradient id="linearGradient3278"><stop id="stop3280" offset="0" stop-color="#944500" stop-opacity="1"/><stop id="stop3290" offset=".3" stop-color="#e2700a" stop-opacity="1"/><stop id="stop3286" offset=".35" stop-color="#ff9e14" stop-opacity="1"/><stop id="stop3288" offset=".65" stop-color="#f38f00" stop-opacity="1"/><stop id="stop3292" offset=".7" stop-color="#ffba14" stop-opacity="1"/><stop id="stop3282" offset="1" stop-color="#ffe094" stop-opacity="1"/></linearGradient><linearGradient id="linearGradient6450" x1="136.414" x2="149.53" y1="115.494" y2="115.494" gradientTransform="matrix(0.18236164,0,0,0.11742289,-30.034279,-0.33309338)" gradientUnits="userSpaceOnUse" xlink:href="#linearGradient3485"/><linearGradient id="linearGradient3485"><stop id="stop3487" offset="0" stop-color="#e2433d" stop-opacity="1"/><stop id="stop3489" offset="1" stop-color="#f08682" stop-opacity="1"/></linearGradient><linearGradient id="linearGradient6955" x1="5.5" x2="5.5" y1="19.986" y2="-2.134" gradientTransform="matrix(1.1428571,0,0,1.0123046,-0.7857143,-0.02201099)" gradientUnits="userSpaceOnUse" xlink:href="#linearGradient6957"/><linearGradient id="linearGradient6957"><stop id="stop6959" offset="0" stop-color="#000" stop-opacity="1"/><stop id="stop6961" offset="1" stop-color="#000" stop-opacity="0"/></linearGradient><linearGradient id="linearGradient3097" x1="5.5" x2="5.5" y1="19.986" y2="-2.134" gradientTransform="matrix(0.87554857,0,0,0.77690057,-0.88150822,-0.43418097)" gradientUnits="userSpaceOnUse" xlink:href="#linearGradient6957"/></defs><metadata id="metadata7"/><g id="layer1"><rect id="rect3196" width="16" height="16" x="-16" y="0" fill="url(#linearGradient3204)" fill-opacity="1" fill-rule="nonzero" stroke="none" rx="2" ry="2" transform="matrix(0,-1,1,0,0,0)"/><path id="rect2835" fill="url(#linearGradient3629)" fill-opacity="1" fill-rule="nonzero" stroke="none" d="m 0,14 c 0,1.108 0.892,2 2,2 l 12,0 c 1.108,0 2,-0.892 2,-2 L 16,2 C 16,0.892 15.108,0 14,0 L 2,0 C 0.892,0 0,0.892 0,2 l 0,12 z m 0.96875,0 0,-12 C 0.96875,1.416801 1.4168007,0.96875 2,0.96875 l 12,0 c 0.583199,0 1.03125,0.448051 1.03125,1.03125 l 0,12 c 0,0.583199 -0.448051,1.03125 -1.03125,1.03125 l -12,0 C 1.4168007,15.03125 0.96875,14.583199 0.96875,14 z" opacity=".4"/><path id="path2843" fill="#fff" fill-opacity="1" fill-rule="nonzero" stroke="none" d="M 2 0.96875 C 1.4168007 0.96875 0.96875 1.4168007 0.96875 2 L 0.96875 3 C 0.96875 2.4168007 1.4168007 1.96875 2 1.96875 L 14 1.96875 C 14.583199 1.96875 15.03125 2.4168007 15.03125 3 L 15.03125 2 C 15.03125 1.4168007 14.583199 0.96875 14 0.96875 L 2 0.96875 z" opacity=".35"/><path id="rect6344" fill="url(#linearGradient3097)" fill-opacity="1" stroke="none" d="M 3.2062093,14.898835 C 2.8209494,14.899186 2.5159736,14.748027 2.5167149,14.564621 l 0,-1.105477 -0.1149159,-0.257088 0,-2.082408 0.038305,-7.4217074 1.53221,-2.75100431 1.4939048,2.75100431 -0.038305,8.2186784 0,1.285437 c -0.098389,0.148568 -0.033736,0.07547 -0.1149157,0.257088 l 0,1.105477 c -7.414e-4,0.183406 -0.3042347,0.33386 -0.6894946,0.334214 l -1.4172943,0 z" display="inline" opacity=".4"/><rect id="rect3483" width="2.21" height="1.879" x="-5.066" y="12.289" fill="url(#linearGradient6450)" fill-opacity="1" stroke="none" display="inline" rx=".547" ry=".352" transform="matrix(-0.99999924,0.00123624,-0.00298836,0.99999553,0,0)"/><path id="rect2480" fill="url(#linearGradient6447)" fill-opacity="1" stroke="none" d="M 5.0831666,4.1874554 3.9542032,1.1017183 2.8090851,4.1900686 l -0.024234,6.9635974 2.2740794,-0.0026 0.024236,-6.9635976 z" display="inline"/><path id="path3274" fill="url(#linearGradient6441)" fill-opacity="1" fill-rule="evenodd" stroke="none" d="M 4.1599299,1.7388483 4.9647868,3.897094 c 0,0 0.089451,0.1878277 0.1334182,0.2963053 C 5.134783,4.2663583 4.7204701,4.3769633 4.5177086,4.0112589 4.2820476,4.5245576 3.4429102,4.4032286 3.3647772,4.0138189 3.2982052,4.2072812 3.0259954,4.3494892 2.7888128,4.1874531 2.8343528,4.0841153 2.8733988,4.0143756 2.8733988,4.0143756 L 3.7209347,1.756478 4.1599299,1.7388487 z" display="inline"/><rect id="rect6452" width="2.268" height="2.302" x="-5.088" y="10.331" fill="url(#linearGradient6454)" fill-opacity="1" stroke="none" display="inline" transform="matrix(-0.99999911,0.00133354,-0.0027703,0.99999616,0,0)"/><path id="path3272" fill="url(#linearGradient6444)" fill-opacity="1" fill-rule="evenodd" stroke="none" d="M 4.5148888,2.6207319 3.3986562,2.628207 3.9396124,1.0893687" display="inline"/><path id="path6939" fill="url(#linearGradient6947)" fill-opacity="1" fill-rule="evenodd" stroke="none" d="M 10.5625,4.96875 C 9.4458838,4.96875 8.53125,5.8833838 8.53125,7 l 0,9 c 0,1.116616 0.9146338,2.03125 2.03125,2.03125 l 6,0 c 1.116616,0 2.031249,-0.914635 2.03125,-2.03125 l 0,-9 c 0,-1.1166166 -0.914634,-2.03125 -2.03125,-2.03125 l -6,0 z" display="inline" opacity=".4" transform="matrix(0.76610503,0,0,0.76745732,0.10695553,0.03951271)"/><rect id="rect6891" width="6.895" height="9.209" x="7.048" y="3.877" fill="url(#linearGradient6899)" fill-opacity="1" fill-rule="evenodd" stroke="none" display="inline" rx=".766" ry=".767"/><rect id="rect6901" width=".766" height=".767" x="7.776" y="10.802" fill="#424242" fill-opacity="1" fill-rule="evenodd" stroke="none" display="inline"/><rect id="rect6903" width=".766" height=".767" x="9.308" y="10.802" fill="#424242" fill-opacity="1" fill-rule="evenodd" stroke="none" display="inline"/><rect id="rect6905" width=".766" height=".767" x="10.84" y="10.802" fill="#424242" fill-opacity="1" fill-rule="evenodd" stroke="none" display="inline"/><rect id="rect6907" width=".766" height=".767" x="7.776" y="9.267" fill="#424242" fill-opacity="1" fill-rule="evenodd" stroke="none" display="inline"/><rect id="rect6909" width=".766" height=".767" x="9.308" y="9.267" fill="#424242" fill-opacity="1" fill-rule="evenodd" stroke="none" display="inline"/><rect id="rect6911" width=".766" height=".767" x="10.84" y="9.267" fill="#424242" fill-opacity="1" fill-rule="evenodd" stroke="none" display="inline"/><rect id="rect6913" width=".766" height=".767" x="7.776" y="7.732" fill="#424242" fill-opacity="1" fill-rule="evenodd" stroke="none" display="inline"/><rect id="rect6915" width=".766" height=".767" x="9.308" y="7.732" fill="#424242" fill-opacity="1" fill-rule="evenodd" stroke="none" display="inline"/><rect id="rect6917" width=".766" height=".767" x="10.84" y="7.732" fill="#424242" fill-opacity="1" fill-rule="evenodd" stroke="none" display="inline"/><rect id="rect6919" width=".766" height=".767" x="12.372" y="10.802" fill="#6c6c6c" fill-opacity="1" fill-rule="evenodd" stroke="none" display="inline"/><rect id="rect6921" width=".766" height=".767" x="12.372" y="9.267" fill="#6c6c6c" fill-opacity="1" fill-rule="evenodd" stroke="none" display="inline"/><rect id="rect6923" width=".766" height=".767" x="12.372" y="7.732" fill="#6c6c6c" fill-opacity="1" fill-rule="evenodd" stroke="none" display="inline"/><rect id="rect3463" width="5.68" height="1.963" x="7.569" y="5.303" fill="url(#linearGradient6863)" fill-opacity="1" stroke="none" display="inline" rx=".132" ry=".178"/><rect id="rect3555" width="5.746" height="1.919" x="7.576" y="5.22" fill="none" stroke="url(#linearGradient6865)" stroke-dasharray="none" stroke-dashoffset="0" stroke-linecap="butt" stroke-linejoin="round" stroke-miterlimit="4" stroke-opacity="1" stroke-width=".5" display="inline" rx=".169" ry=".192"/><path id="rect6931" fill="#fcfcfc" fill-opacity="1" fill-rule="evenodd" stroke="none" d="m 7.8158873,3.8767993 c -0.4244222,0 -0.7661051,0.342286 -0.7661051,0.7674573 l 0,0.3837287 c 0,-0.4251714 0.3416829,-0.7674573 0.7661051,-0.7674573 l 5.3627347,0 c 0.424422,0 0.766105,0.3422859 0.766105,0.7674573 l 0,-0.3837287 c 0,-0.4251713 -0.341683,-0.7674573 -0.766105,-0.7674573 l -5.3627347,0 z" display="inline"/><path id="path6937" fill="#7f7f7f" fill-opacity="1" fill-rule="evenodd" stroke="none" d="m 7.8158873,13.086287 c -0.4244222,0 -0.7661051,-0.342286 -0.7661051,-0.767457 l 0,-0.383729 c 0,0.425172 0.3416829,0.767458 0.7661051,0.767458 l 5.3627347,0 c 0.424422,0 0.766105,-0.342286 0.766105,-0.767458 l 0,0.383729 c 0,0.425171 -0.341683,0.767457 -0.766105,0.767457 l -5.3627347,0 z" display="inline"/></g></svg>