<svg xmlns="http://www.w3.org/2000/svg" xmlns:svg="http://www.w3.org/2000/svg" xmlns:xlink="http://www.w3.org/1999/xlink" id="svg2" width="16" height="16" display="inline" version="1.0"><defs id="defs4"><linearGradient id="linearGradient3327"><stop id="stop3330" offset="0" stop-color="#000" stop-opacity="1"/><stop id="stop3333" offset="1" stop-color="#000" stop-opacity="0"/></linearGradient><linearGradient id="ButtonColor" x1="10.32" x2="10.32" y1="21" y2=".999" gradientUnits="userSpaceOnUse"><stop id="stop3189" offset="0" stop-color="#e6e6e6" stop-opacity="1"/><stop id="stop3191" offset="1" stop-color="#f5f5f5" stop-opacity="1"/></linearGradient><linearGradient id="linearGradient3192" x1="9.057" x2="9.057" y1="10.203" y2="-12.199" gradientTransform="translate(0,5.8006549)" gradientUnits="userSpaceOnUse" xlink:href="#linearGradient3327"/><linearGradient id="linearGradient3204" x1="1" x2="15" y1="9" y2="9" gradientTransform="translate(-16,-1)" gradientUnits="userSpaceOnUse" xlink:href="#ButtonColor"/><linearGradient id="linearGradient3173" x1="1" x2="15" y1="9" y2="9" gradientTransform="translate(-16,-1)" gradientUnits="userSpaceOnUse" xlink:href="#ButtonColor"/><linearGradient id="linearGradient3177" x1="1" x2="15" y1="9" y2="9" gradientTransform="translate(-16,-1)" gradientUnits="userSpaceOnUse" xlink:href="#ButtonColor"/><linearGradient id="linearGradient3179" x1="1" x2="15" y1="9" y2="9" gradientTransform="matrix(0,-1,1,0,-1,16)" gradientUnits="userSpaceOnUse" xlink:href="#ButtonColor"/><linearGradient id="linearGradient3612" x1="8" x2="8" y1="15" y2="-1" gradientUnits="userSpaceOnUse" xlink:href="#linearGradient3327"/><linearGradient id="linearGradient3204-0" x1="1" x2="16.956" y1="9" y2="9" gradientTransform="translate(-17,-2)" gradientUnits="userSpaceOnUse" xlink:href="#ButtonColor-5"/><linearGradient id="ButtonColor-5" x1="10.32" x2="10.32" y1="21" y2=".999" gradientUnits="userSpaceOnUse"><stop id="stop3189-0" offset="0" stop-color="#e6e6e6" stop-opacity="1"/><stop id="stop3191-2" offset="1" stop-color="#f5f5f5" stop-opacity="1"/></linearGradient><linearGradient id="linearGradient2897" x1="9.057" x2="9.057" y1="10.203" y2="-19.304" gradientTransform="translate(-0.499722,5.300655)" gradientUnits="userSpaceOnUse" xlink:href="#linearGradient3327-7"/><linearGradient id="linearGradient3327-7"><stop id="stop3330-6" offset="0" stop-color="#000" stop-opacity="1"/><stop id="stop3333-8" offset="1" stop-color="#000" stop-opacity="0"/></linearGradient><linearGradient id="linearGradient3767" x1="1" x2="16.956" y1="9" y2="9" gradientTransform="translate(-17,-2)" gradientUnits="userSpaceOnUse" xlink:href="#ButtonColor-5"/><linearGradient id="linearGradient3162" x1="48" x2="48" y1="72" y2="24" gradientTransform="matrix(0.29166667,0,0,0.29166667,-2.0773129,-4)" gradientUnits="userSpaceOnUse" xlink:href="#linearGradient3710-7"/><linearGradient id="linearGradient3710-7"><stop id="stop3712-2" offset="0" stop-color="#2b4777" stop-opacity="1"/><stop id="stop3714-0" offset="1" stop-color="#5672a0" stop-opacity="1"/></linearGradient><linearGradient id="linearGradient3722" x1="48" x2="48" y1="72" y2="24" gradientTransform="matrix(0.29166667,0,0,0.29166667,-2.0773129,-4)" gradientUnits="userSpaceOnUse" xlink:href="#linearGradient3710-7"/><linearGradient id="linearGradient3724"><stop id="stop3726" offset="0" stop-color="#2b4777" stop-opacity="1"/><stop id="stop3728" offset="1" stop-color="#5672a0" stop-opacity="1"/></linearGradient><linearGradient id="linearGradient3732" x1="48" x2="48" y1="72" y2="24" gradientTransform="matrix(0.25,0,0,0.25,-4.1027649,-4.0000001)" gradientUnits="userSpaceOnUse" xlink:href="#linearGradient3710-7"/></defs><metadata id="metadata7"/><g id="layer1"><rect id="rect3196" width="16" height="16" x="-16" y="0" fill="url(#linearGradient3767)" fill-opacity="1" fill-rule="nonzero" stroke="none" display="inline" rx="2" ry="2" transform="matrix(0,-1,1,0,0,0)"/><path id="rect2410" fill="url(#linearGradient2897)" fill-opacity="1" fill-rule="nonzero" stroke="none" d="M 2,0 C 0.892,0 0,0.892 0,2 l 0,12 c 0,1.108 0.892,2 2,2 l 12,0 c 1.108,0 2,-0.892 2,-2 L 16,2 C 16,0.892 15.108,0 14,0 L 2,0 z m 0.5,1 11,0 C 14.331,1 15,1.669 15,2.5 l 0,11 c 0,0.831 -0.669,1.5 -1.5,1.5 l -11,0 C 1.669,15 1,14.331 1,13.5 L 1,2.5 C 1,1.669 1.669,1 2.5,1 z" display="inline" opacity=".4"/><path id="rect3770" fill="#fff" fill-opacity="1" stroke="none" d="M 2.5,1 C 1.669,1 1,1.669 1,2.5 l 0,1 C 1,2.669 1.669,2 2.5,2 l 11,0 C 14.331,2 15,2.669 15,3.5 l 0,-1 C 15,1.669 14.331,1 13.5,1 l -11,0 z" display="inline" opacity=".6"/><text id="text2907" x="3.006" y="14" fill="url(#linearGradient3732)" fill-opacity="1" stroke="none" display="inline" font-family="DejaVu Serif" font-size="16.461" font-stretch="normal" font-style="italic" font-variant="normal" font-weight="normal" text-anchor="start" writing-mode="lr-tb" xml:space="preserve" style="text-align:start;line-height:125%;-inkscape-font-specification:Abandoned Bitplane Italic"><tspan id="tspan2909" x="3.006" y="14" fill="url(#linearGradient3732)" fill-opacity="1">A</tspan></text></g></svg>