<svg xmlns="http://www.w3.org/2000/svg" xmlns:svg="http://www.w3.org/2000/svg" xmlns:xlink="http://www.w3.org/1999/xlink" id="svg2" width="16" height="16" display="inline" version="1.0"><defs id="defs4"><linearGradient id="linearGradient3327"><stop id="stop3330" offset="0" stop-color="#000" stop-opacity="1"/><stop id="stop3333" offset="1" stop-color="#000" stop-opacity="0"/></linearGradient><linearGradient id="ButtonColor" x1="10.32" x2="10.32" y1="21" y2=".999" gradientUnits="userSpaceOnUse"><stop id="stop3189" offset="0" stop-color="#29669f" stop-opacity="1"/><stop id="stop3191" offset="1" stop-color="#88b6e0" stop-opacity="1"/></linearGradient><linearGradient id="linearGradient3204" x1="1" x2="15" y1="9" y2="9" gradientTransform="translate(-17,-2)" gradientUnits="userSpaceOnUse" xlink:href="#ButtonColor"/><linearGradient id="linearGradient3629" x1="0" x2="29.017" y1="8" y2="8" gradientTransform="matrix(0,-1,1,0,0,16)" gradientUnits="userSpaceOnUse" xlink:href="#linearGradient3327"/><linearGradient id="linearGradient3765" x1="383.289" x2="383.289" y1="0" y2="218.48" gradientTransform="matrix(0.09341072,0,0,0.04108075,-26.756456,8.0246654)" gradientUnits="userSpaceOnUse" xlink:href="#SVGID_1_-4"/><linearGradient id="SVGID_1_-4" x1="383.289" x2="383.289" y1="0" y2="218.48" gradientUnits="userSpaceOnUse"><stop id="stop3143-2" offset=".006" stop-color="#ED2828"/><stop id="stop3145-1" offset=".5" stop-color="#EF3B39"/><stop id="stop3147-3" offset=".994" stop-color="#C02126"/></linearGradient><linearGradient id="linearGradient3749-5" x1="175.308" x2="175.308" y1="73.254" y2="180.675" gradientUnits="userSpaceOnUse"><stop id="stop3751-8" offset="0" stop-color="#000" stop-opacity="1"/><stop id="stop3753-7" offset=".994" stop-color="#000" stop-opacity=".473"/></linearGradient><linearGradient id="linearGradient3754" x1="175.308" x2="175.308" y1="73.254" y2="180.675" gradientTransform="matrix(0.04164302,0,0,0.03408859,1.9444673,0.78644322)" gradientUnits="userSpaceOnUse" xlink:href="#linearGradient3749-5"/><linearGradient id="linearGradient3756" x1="175.308" x2="175.308" y1="73.254" y2="180.675" gradientTransform="matrix(0.04998763,0,0,0.03408859,2.4795353,0.78644322)" gradientUnits="userSpaceOnUse" xlink:href="#linearGradient3749-5"/><linearGradient id="linearGradient3809" x1="175.308" x2="175.308" y1="73.254" y2="180.675" gradientTransform="matrix(0.04859283,0,0,0.03408859,3.115962,0.78644322)" gradientUnits="userSpaceOnUse" xlink:href="#linearGradient3749-5"/><linearGradient id="linearGradient4163" x1="6" x2="90" y1="48" y2="48" gradientTransform="translate(-96,0)" gradientUnits="userSpaceOnUse" xlink:href="#linearGradient3696"/><linearGradient id="linearGradient3696"><stop id="stop3698" offset="0" stop-color="#2458a6" stop-opacity="1"/><stop id="stop3700" offset="1" stop-color="#598ad4" stop-opacity="1"/></linearGradient><linearGradient id="linearGradient3738" x1="6" x2="90" y1="48" y2="48" gradientTransform="translate(-52.867199,-57.252856)" gradientUnits="userSpaceOnUse" xlink:href="#linearGradient3696"/><linearGradient id="linearGradient4113" x1="22.111" x2="40" y1="62.984" y2="32" gradientTransform="matrix(0.19388162,0,0,0.19388162,-1.4007219,-1.9461429)" gradientUnits="userSpaceOnUse" xlink:href="#linearGradient4099"/><linearGradient id="linearGradient4099"><stop id="stop4101" offset="0" stop-color="#9ede27" stop-opacity="1"/><stop id="stop4103" offset="1" stop-color="#c8f16b" stop-opacity="1"/></linearGradient><linearGradient id="linearGradient4105" x1="38" x2="70" y1="74" y2="49" gradientTransform="matrix(0.19388162,0,0,0.19388162,-1.5256152,-1.9461429)" gradientUnits="userSpaceOnUse" xlink:href="#linearGradient4099"/><linearGradient id="linearGradient3712"><stop id="stop3714" offset="0" stop-color="#9ede27" stop-opacity="1"/><stop id="stop3716" offset="1" stop-color="#c8f16b" stop-opacity="1"/></linearGradient><linearGradient id="linearGradient3746" x1="56.037" x2="56.037" y1="49.333" y2="13.593" gradientTransform="matrix(0.26518093,0,0,0.26518093,-0.34872536,-3.7081516)" gradientUnits="userSpaceOnUse" xlink:href="#linearGradient3799-3"/><linearGradient id="linearGradient3799-3"><stop id="stop3801-3" offset="0" stop-color="#1a1a1a" stop-opacity="1"/><stop id="stop3803-2" offset="1" stop-color="#000" stop-opacity="1"/></linearGradient><linearGradient id="linearGradient3726" x1="56.037" x2="56.037" y1="49.333" y2="13.593" gradientTransform="matrix(0.19388162,0,0,0.19388162,-1.3401963,-1.8843368)" gradientUnits="userSpaceOnUse" xlink:href="#linearGradient3799-3"/><radialGradient id="radialGradient3758" cx="49.581" cy="67.041" r="10" fx="49.581" fy="67.041" gradientTransform="matrix(1.0456205,0.08243661,-0.05194947,0.90987799,0.84943041,1.3399685)" gradientUnits="userSpaceOnUse" xlink:href="#linearGradient3784-2"/><linearGradient id="linearGradient3784-2"><stop id="stop3786-4" offset="0" stop-color="#a0a0a0" stop-opacity="1"/><stop id="stop3790-2" offset="1" stop-color="#1a1a1a" stop-opacity="1"/></linearGradient><radialGradient id="radialGradient3745" cx="49.581" cy="67.041" r="10" fx="49.581" fy="67.041" gradientTransform="matrix(1.0456205,0.08243661,-0.05194947,0.90987799,0.84943041,1.3399685)" gradientUnits="userSpaceOnUse" xlink:href="#linearGradient3784-2"/><radialGradient id="radialGradient3698" cx="10.117" cy="6.534" r="2.649" fx="10.117" fy="6.534" gradientTransform="matrix(0.60548597,-0.18291744,0.13322228,0.44098703,0.81853832,7.6996387)" gradientUnits="userSpaceOnUse" xlink:href="#linearGradient3784-2"/><linearGradient id="linearGradient3457" x1="4.177" x2="18" y1="11" y2="11" gradientTransform="translate(-22,0)" gradientUnits="userSpaceOnUse" xlink:href="#linearGradient3437"/><linearGradient id="linearGradient3437"><stop id="stop3439" offset="0" stop-color="#275a39" stop-opacity="1"/><stop id="stop3441" offset="1" stop-color="#448459" stop-opacity="1"/></linearGradient><linearGradient id="linearGradient3453" x1="-19" x2="-1.797" y1="8.635" y2="8.197" gradientUnits="userSpaceOnUse" xlink:href="#linearGradient3215"/><linearGradient id="linearGradient3215"><stop id="stop3217" offset="0" stop-color="#000" stop-opacity=".782"/><stop id="stop3219" offset="1" stop-color="#000" stop-opacity=".46"/></linearGradient><linearGradient id="linearGradient2879" x1="4.177" x2="18" y1="11" y2="11" gradientTransform="translate(-19,-3)" gradientUnits="userSpaceOnUse" xlink:href="#linearGradient3437"/><linearGradient id="linearGradient2881" x1="-19" x2="-1.797" y1="8.635" y2="8.197" gradientTransform="translate(3,-3)" gradientUnits="userSpaceOnUse" xlink:href="#linearGradient3215"/><linearGradient id="linearGradient3824" x1="4.177" x2="18" y1="11" y2="11" gradientTransform="matrix(0.85714286,0,0,0.85714286,-17.428571,-1.4285715)" gradientUnits="userSpaceOnUse" xlink:href="#linearGradient3437"/><linearGradient id="linearGradient3425" x1="3" x2="19" y1="11" y2="11" gradientUnits="userSpaceOnUse" xlink:href="#linearGradient3419"/><linearGradient id="linearGradient3419"><stop id="stop3421" offset="0" stop-color="#f9e7ce" stop-opacity="1"/><stop id="stop3423" offset="1" stop-color="#57401c" stop-opacity="1"/></linearGradient><linearGradient id="linearGradient3197" x1="4.773" x2="4.773" y1="24.455" y2="4.4" gradientTransform="translate(2.9003491,-3.4549133)" gradientUnits="userSpaceOnUse" xlink:href="#linearGradient3187"/><linearGradient id="linearGradient3187"><stop id="stop3189-5" offset="0" stop-color="#be8345" stop-opacity="1"/><stop id="stop3191-5" offset="1" stop-color="#e7bc80" stop-opacity="1"/></linearGradient><linearGradient id="linearGradient2908" x1="4.773" x2="4.773" y1="24.455" y2="4.4" gradientTransform="matrix(0.8,0,0,0.8,1.5202792,-3.5490744)" gradientUnits="userSpaceOnUse" xlink:href="#linearGradient3187"/><linearGradient id="linearGradient3866" x1="1" x2="15" y1="9" y2="9" gradientTransform="translate(-17,-32)" gradientUnits="userSpaceOnUse" xlink:href="#ButtonColor"/><linearGradient id="linearGradient3870" x1="4.773" x2="4.773" y1="24.455" y2="4.4" gradientTransform="matrix(0.8,0,0,0.8,1.5202792,-3.5490744)" gradientUnits="userSpaceOnUse" xlink:href="#linearGradient3187"/></defs><metadata id="metadata7"/><g id="layer1"><rect id="rect3427" width="12" height="12" x="-14" y="2" fill="url(#linearGradient3824)" fill-opacity="1" fill-rule="evenodd" stroke="#000" stroke-opacity=".202" stroke-width="1" display="inline" rx="1.286" ry="1.286" transform="matrix(0,-1,1,0,0,0)"/><rect id="rect3196" width="16" height="16" x="-16" y="-30" fill="url(#linearGradient3866)" fill-opacity="1" fill-rule="nonzero" stroke="none" rx="2" ry="2" transform="matrix(0,-1,1,0,0,0)"/><path id="rect3189" fill="url(#linearGradient3870)" fill-opacity="1" fill-rule="evenodd" stroke="none" d="M 2 0 C 0.892 0 3.2526065e-18 0.892 0 2 L 0 14 C 0 15.108 0.892 16 2 16 L 14 16 C 15.108 16 16 15.108 16 14 L 16 2 C 16 0.892 15.108 3.2526065e-18 14 0 L 2 0 z M 3.5 2 L 12.5 2 C 13.331 2 14 2.669 14 3.5 L 14 12.5 C 14 13.331 13.331 14 12.5 14 L 3.5 14 C 2.669 14 2 13.331 2 12.5 L 2 3.5 C 2 2.669 2.669 2 3.5 2 z" display="inline"/><path id="rect2835" fill="url(#linearGradient3629)" fill-opacity="1" fill-rule="nonzero" stroke="none" d="m 0,14 c 0,1.108 0.892,2 2,2 l 12,0 c 1.108,0 2,-0.892 2,-2 L 16,2 C 16,0.892 15.108,0 14,0 L 2,0 C 0.892,0 0,0.892 0,2 l 0,12 z m 0.96875,0 0,-12 C 0.96875,1.416801 1.4168007,0.96875 2,0.96875 l 12,0 c 0.583199,0 1.03125,0.448051 1.03125,1.03125 l 0,12 c 0,0.583199 -0.448051,1.03125 -1.03125,1.03125 l -12,0 C 1.4168007,15.03125 0.96875,14.583199 0.96875,14 z" opacity=".4"/><path id="path2843" fill="#fff" fill-opacity="1" fill-rule="nonzero" stroke="none" d="M 2 0.96875 C 1.4168007 0.96875 0.96875 1.4168007 0.96875 2 L 0.96875 3 C 0.96875 2.4168007 1.4168007 1.96875 2 1.96875 L 14 1.96875 C 14.583199 1.96875 15.03125 2.4168007 15.03125 3 L 15.03125 2 C 15.03125 1.4168007 14.583199 0.96875 14 0.96875 L 2 0.96875 z" opacity=".35"/><path id="path3484" fill="#b1d28f" fill-opacity="1" stroke="none" d="m 6.8107851,6.2026864 c -4e-6,0.5179688 -0.1264269,0.9078065 -0.3792684,1.1695115 0.1031984,0.25626 0.1548003,0.564313 0.1548037,0.924161 -3.4e-6,0.616107 -0.2322083,1.0495621 -0.696615,1.3003661 -0.3199291,0.169021 -0.828199,0.269887 -1.5248109,0.302601 -0.8462582,0.03817 -1.349368,0.07633 -1.509331,0.114498 L 2.8246025,8.8524909 c 0.1548029,-0.03271 0.6966134,-0.08451 1.6254333,-0.155391 0.7791734,-0.05452 1.2642223,-0.144483 1.4551497,-0.269886 -0.010323,-0.408919 -0.3121892,-0.613379 -0.9055984,-0.613382 -0.2734876,3e-6 -0.647595,0.0518 -1.122323,0.155391 L 3.8695244,6.7997097 C 4.6744988,6.723381 5.0873069,6.6852155 5.1079497,6.6852119 5.7581202,6.5925274 6.0986863,6.4725769 6.1296507,6.3253625 5.9903241,6.2108683 5.7555394,6.1536194 5.4252962,6.1536159 5.095047,6.1536194 4.7209397,6.205416 4.3029731,6.3090056 3.8230822,6.4289589 3.4799355,6.5761704 3.2735321,6.7506399 L 3.025847,5.7038035 C 3.294172,5.4802646 3.657959,5.2976136 4.1172094,5.1558501 4.5351761,5.0304526 4.9350839,4.9677515 5.316934,4.9677468 c 0.433446,4.7e-6 0.7791726,0.089967 1.0371814,0.2698875 0.3044424,0.2071906 0.4566657,0.5288742 0.4566697,0.9650521" display="inline" font-family="Field Day Filter" font-size="6.925" font-stretch="normal" font-style="normal" font-variant="normal" font-weight="normal" text-anchor="middle" writing-mode="lr-tb" style="text-align:center;line-height:100%;-inkscape-font-specification:Field Day Filter"/><path id="path3482" fill="#b1d28f" fill-opacity="1" stroke="none" d="m 10.906089,7.0402459 -0.145926,0.997189 c -0.280408,-0.03693 -0.583705,-0.0554 -0.90989,-0.0554 -0.02862,0.276998 -0.105869,0.685569 -0.231764,1.2257121 L 8.897464,8.9999999 c 0.09156,-0.392411 0.154509,-0.727116 0.188846,-1.004114 -0.246073,0.01385 -0.592288,0.03924 -1.038648,0.07617 l 0.02575,-0.99719 c 0.251792,-0.02308 0.615175,-0.04847 1.09015,-0.076174 0.01144,-0.2169782 0.03434,-0.547066 0.06867,-0.9902645 l 0.75538,0 c -0.01717,0.2262177 -0.04006,0.5516889 -0.06867,0.9764146 0.343352,2.7e-6 0.6724,0.01847 0.987144,0.0554" display="inline" font-family="Field Day Filter" font-size="6.925" font-stretch="normal" font-style="normal" font-variant="normal" font-weight="normal" text-anchor="middle" writing-mode="lr-tb" style="text-align:center;line-height:100%;-inkscape-font-specification:Field Day Filter"/><path id="text3460" fill="#b1d28f" fill-opacity="1" stroke="none" d="m 12.962028,5.8947344 c 0,0.2992014 -0.02824,0.7919987 -0.08471,1.4783935 -0.05648,0.633598 -0.07844,2.0787691 -0.06589,2.4351671 l -0.828315,0.131999 0,-0.158399 c -0.0063,-0.338798 0.02196,-1.7773701 0.08471,-2.4153671 0.06275,-0.6775951 0.09413,-1.1659922 0.09413,-1.4651934 -0.163152,-0.0044 -0.370231,0.0044 -0.621235,0.0264 l 0.04706,-0.9503955 c 0.200803,-0.017596 0.376506,-0.026396 0.527111,-0.0264 0.376505,3.9e-6 0.624372,0.1012033 0.743601,0.3035986 0.06902,0.1188029 0.103538,0.3322017 0.103538,0.6401969" display="inline" font-family="Field Day Filter" font-size="6.925" font-stretch="normal" font-style="normal" font-variant="normal" font-weight="normal" text-anchor="middle" writing-mode="lr-tb" style="text-align:center;line-height:100%;-inkscape-font-specification:Field Day Filter"/></g></svg>