<svg xmlns="http://www.w3.org/2000/svg" xmlns:svg="http://www.w3.org/2000/svg" xmlns:xlink="http://www.w3.org/1999/xlink" id="svg2" width="16" height="16" display="inline" version="1.0"><defs id="defs4"><linearGradient id="linearGradient3327"><stop id="stop3330" offset="0" stop-color="#000" stop-opacity="1"/><stop id="stop3333" offset="1" stop-color="#000" stop-opacity="0"/></linearGradient><linearGradient id="ButtonColor" x1="10.32" x2="10.32" y1="21" y2=".999" gradientUnits="userSpaceOnUse"><stop id="stop3189" offset="0" stop-color="#29669f" stop-opacity="1"/><stop id="stop3191" offset="1" stop-color="#88b6e0" stop-opacity="1"/></linearGradient><linearGradient id="linearGradient3204" x1="1" x2="15" y1="9" y2="9" gradientTransform="translate(-17,-2)" gradientUnits="userSpaceOnUse" xlink:href="#linearGradient3187"/><linearGradient id="linearGradient3629" x1="0" x2="29.017" y1="8" y2="8" gradientTransform="matrix(0,-1,1,0,0,16)" gradientUnits="userSpaceOnUse" xlink:href="#linearGradient3327"/><linearGradient id="linearGradient3765" x1="383.289" x2="383.289" y1="0" y2="218.48" gradientTransform="matrix(0.09341072,0,0,0.04108075,-26.756456,8.0246654)" gradientUnits="userSpaceOnUse" xlink:href="#SVGID_1_-4"/><linearGradient id="SVGID_1_-4" x1="383.289" x2="383.289" y1="0" y2="218.48" gradientUnits="userSpaceOnUse"><stop id="stop3143-2" offset=".006" stop-color="#ED2828"/><stop id="stop3145-1" offset=".5" stop-color="#EF3B39"/><stop id="stop3147-3" offset=".994" stop-color="#C02126"/></linearGradient><linearGradient id="linearGradient3749-5" x1="175.308" x2="175.308" y1="73.254" y2="180.675" gradientUnits="userSpaceOnUse"><stop id="stop3751-8" offset="0" stop-color="#000" stop-opacity="1"/><stop id="stop3753-7" offset=".994" stop-color="#000" stop-opacity=".473"/></linearGradient><linearGradient id="linearGradient3754" x1="175.308" x2="175.308" y1="73.254" y2="180.675" gradientTransform="matrix(0.04164302,0,0,0.03408859,1.9444673,0.78644322)" gradientUnits="userSpaceOnUse" xlink:href="#linearGradient3749-5"/><linearGradient id="linearGradient3756" x1="175.308" x2="175.308" y1="73.254" y2="180.675" gradientTransform="matrix(0.04998763,0,0,0.03408859,2.4795353,0.78644322)" gradientUnits="userSpaceOnUse" xlink:href="#linearGradient3749-5"/><linearGradient id="linearGradient3809" x1="175.308" x2="175.308" y1="73.254" y2="180.675" gradientTransform="matrix(0.04859283,0,0,0.03408859,3.115962,0.78644322)" gradientUnits="userSpaceOnUse" xlink:href="#linearGradient3749-5"/><linearGradient id="linearGradient4163" x1="6" x2="90" y1="48" y2="48" gradientTransform="translate(-96,0)" gradientUnits="userSpaceOnUse" xlink:href="#linearGradient3696"/><linearGradient id="linearGradient3696"><stop id="stop3698" offset="0" stop-color="#2458a6" stop-opacity="1"/><stop id="stop3700" offset="1" stop-color="#598ad4" stop-opacity="1"/></linearGradient><linearGradient id="linearGradient3738" x1="6" x2="90" y1="48" y2="48" gradientTransform="translate(-52.867199,-57.252856)" gradientUnits="userSpaceOnUse" xlink:href="#linearGradient3696"/><linearGradient id="linearGradient4113" x1="22.111" x2="40" y1="62.984" y2="32" gradientTransform="matrix(0.19388162,0,0,0.19388162,-1.4007219,-1.9461429)" gradientUnits="userSpaceOnUse" xlink:href="#linearGradient4099"/><linearGradient id="linearGradient4099"><stop id="stop4101" offset="0" stop-color="#9ede27" stop-opacity="1"/><stop id="stop4103" offset="1" stop-color="#c8f16b" stop-opacity="1"/></linearGradient><linearGradient id="linearGradient4105" x1="38" x2="70" y1="74" y2="49" gradientTransform="matrix(0.19388162,0,0,0.19388162,-1.5256152,-1.9461429)" gradientUnits="userSpaceOnUse" xlink:href="#linearGradient4099"/><linearGradient id="linearGradient3712"><stop id="stop3714" offset="0" stop-color="#9ede27" stop-opacity="1"/><stop id="stop3716" offset="1" stop-color="#c8f16b" stop-opacity="1"/></linearGradient><linearGradient id="linearGradient3746" x1="56.037" x2="56.037" y1="49.333" y2="13.593" gradientTransform="matrix(0.26518093,0,0,0.26518093,-0.34872536,-3.7081516)" gradientUnits="userSpaceOnUse" xlink:href="#linearGradient3799-3"/><linearGradient id="linearGradient3799-3"><stop id="stop3801-3" offset="0" stop-color="#1a1a1a" stop-opacity="1"/><stop id="stop3803-2" offset="1" stop-color="#000" stop-opacity="1"/></linearGradient><linearGradient id="linearGradient3726" x1="56.037" x2="56.037" y1="49.333" y2="13.593" gradientTransform="matrix(0.19388162,0,0,0.19388162,-1.3401963,-1.8843368)" gradientUnits="userSpaceOnUse" xlink:href="#linearGradient3799-3"/><radialGradient id="radialGradient3758" cx="49.581" cy="67.041" r="10" fx="49.581" fy="67.041" gradientTransform="matrix(1.0456205,0.08243661,-0.05194947,0.90987799,0.84943041,1.3399685)" gradientUnits="userSpaceOnUse" xlink:href="#linearGradient3784-2"/><linearGradient id="linearGradient3784-2"><stop id="stop3786-4" offset="0" stop-color="#a0a0a0" stop-opacity="1"/><stop id="stop3790-2" offset="1" stop-color="#1a1a1a" stop-opacity="1"/></linearGradient><radialGradient id="radialGradient3745" cx="49.581" cy="67.041" r="10" fx="49.581" fy="67.041" gradientTransform="matrix(1.0456205,0.08243661,-0.05194947,0.90987799,0.84943041,1.3399685)" gradientUnits="userSpaceOnUse" xlink:href="#linearGradient3784-2"/><radialGradient id="radialGradient3698" cx="10.117" cy="6.534" r="2.649" fx="10.117" fy="6.534" gradientTransform="matrix(0.60548597,-0.18291744,0.13322228,0.44098703,0.81853832,7.6996387)" gradientUnits="userSpaceOnUse" xlink:href="#linearGradient3784-2"/><linearGradient id="linearGradient3181" x1="-3.061" x2="-3.061" y1="27.258" y2="7.254" gradientTransform="translate(11.119372,-6.258198)" gradientUnits="userSpaceOnUse" xlink:href="#linearGradient3187"/><linearGradient id="linearGradient3187"><stop id="stop3189-6" offset="0" stop-color="#282828" stop-opacity="1"/><stop id="stop3191-9" offset="1" stop-color="#5a5a5a" stop-opacity="1"/></linearGradient><linearGradient id="linearGradient2965" x1="-3.061" x2="-3.061" y1="27.258" y2="7.254" gradientTransform="translate(-11.406073,-16.121806)" gradientUnits="userSpaceOnUse" xlink:href="#linearGradient3187"/><radialGradient id="radialGradient4305" cx="56.496" cy="31.702" r="13" fx="56.496" fy="31.702" gradientTransform="matrix(0.11332965,0,0,0.14315904,5.131064,2.1905235)" gradientUnits="userSpaceOnUse" xlink:href="#linearGradient3266"/><linearGradient id="linearGradient3266"><stop id="stop3269" offset="0" stop-color="#87ff2b" stop-opacity="1"/><stop id="stop3271" offset="1" stop-color="#87ff2b" stop-opacity="0"/></linearGradient><radialGradient id="radialGradient4308" cx="54.75" cy="25.073" r="13" fx="54.75" fy="25.073" gradientTransform="matrix(0.19815768,0.0361324,-0.04201398,0.23041338,-3.5418862,-5.1793015)" gradientUnits="userSpaceOnUse" xlink:href="#linearGradient3266"/><linearGradient id="linearGradient3002"><stop id="stop3004" offset="0" stop-color="#87ff2b" stop-opacity="1"/><stop id="stop3006" offset="1" stop-color="#87ff2b" stop-opacity="0"/></linearGradient><radialGradient id="radialGradient4316" cx="40.847" cy="75.264" r="14.672" fx="40.847" fy="75.264" gradientTransform="matrix(0.9847961,0.02597927,-0.01823822,0.6913564,1.9937062,24.820256)" gradientUnits="userSpaceOnUse" xlink:href="#linearGradient3266"/><linearGradient id="linearGradient3009"><stop id="stop3011" offset="0" stop-color="#87ff2b" stop-opacity="1"/><stop id="stop3013" offset="1" stop-color="#87ff2b" stop-opacity="0"/></linearGradient><radialGradient id="radialGradient4318" cx="40.847" cy="75.264" r="14.672" fx="40.847" fy="75.264" gradientTransform="matrix(0.9847961,0.02597927,-0.01823822,0.6913564,1.9937062,24.820256)" gradientUnits="userSpaceOnUse" xlink:href="#linearGradient3266"/><linearGradient id="linearGradient3016"><stop id="stop3018" offset="0" stop-color="#87ff2b" stop-opacity="1"/><stop id="stop3020" offset="1" stop-color="#87ff2b" stop-opacity="0"/></linearGradient><linearGradient id="linearGradient4313" x1="70.782" x2="75.404" y1="83.017" y2="22.03" gradientTransform="matrix(0.1804373,0,0,0.1804373,-1.5169748,0.04849316)" gradientUnits="userSpaceOnUse" xlink:href="#linearGradient3277"/><linearGradient id="linearGradient3277"><stop id="stop4287" offset="0" stop-color="#3d9119" stop-opacity="1"/><stop id="stop3281" offset="1" stop-color="#75e62a" stop-opacity="1"/></linearGradient><linearGradient id="linearGradient3031" x1="70.782" x2="75.404" y1="83.017" y2="22.03" gradientTransform="matrix(0.1349812,0,0,0.1349812,-1.23762,-0.3694193)" gradientUnits="userSpaceOnUse" xlink:href="#linearGradient3277"/><linearGradient id="linearGradient4002" x1="70.782" x2="75.404" y1="83.017" y2="22.03" gradientTransform="matrix(0.1349812,0,0,0.1349812,-21.23762,-0.3694193)" gradientUnits="userSpaceOnUse" xlink:href="#linearGradient3277"/><radialGradient id="radialGradient4004" cx="40.847" cy="75.264" r="14.672" fx="40.847" fy="75.264" gradientTransform="matrix(0.9847961,0.02597927,-0.01823822,0.6913564,1.9937062,24.820256)" gradientUnits="userSpaceOnUse" xlink:href="#linearGradient3266"/><radialGradient id="radialGradient4006" cx="40.847" cy="75.264" r="14.672" fx="40.847" fy="75.264" gradientTransform="matrix(0.9847961,0.02597927,-0.01823822,0.6913564,1.9937062,24.820256)" gradientUnits="userSpaceOnUse" xlink:href="#linearGradient3266"/><radialGradient id="radialGradient4008" cx="54.75" cy="25.073" r="13" fx="54.75" fy="25.073" gradientTransform="matrix(0.19815768,0.0361324,-0.04201398,0.23041338,-23.541886,-5.1793015)" gradientUnits="userSpaceOnUse" xlink:href="#linearGradient3266"/><radialGradient id="radialGradient4010" cx="56.496" cy="31.702" r="13" fx="56.496" fy="31.702" gradientTransform="matrix(0.11332965,0,0,0.14315904,-14.868936,2.1905235)" gradientUnits="userSpaceOnUse" xlink:href="#linearGradient3266"/><linearGradient id="linearGradient4013" x1="70.782" x2="75.404" y1="83.017" y2="22.03" gradientTransform="matrix(0.1349812,0,0,0.1349812,-21.23762,-0.3694193)" gradientUnits="userSpaceOnUse" xlink:href="#linearGradient3277"/><linearGradient id="linearGradient4022" x1="70.782" x2="75.404" y1="83.017" y2="22.03" gradientTransform="matrix(0.1349812,0,0,0.1349812,-21.23762,-0.3694193)" gradientUnits="userSpaceOnUse" xlink:href="#linearGradient3277"/></defs><metadata id="metadata7"/><g id="layer1"><rect id="rect3196" width="16" height="16" x="-16" y="0" fill="url(#linearGradient3204)" fill-opacity="1" fill-rule="nonzero" stroke="none" rx="2" ry="2" transform="matrix(0,-1,1,0,0,0)"/><path id="rect16165" fill="#000" fill-opacity="1" fill-rule="evenodd" stroke="none" d="M 2,0 C 0.892,0 0,0.892 0,2 L 0,3 16,3 16,2 C 16,0.892 15.108,0 14,0 L 2,0 z"/><path id="rect3231" fill="#f0f0f0" fill-opacity="1" fill-rule="evenodd" stroke="none" d="M 14.0625 0 L 13.03125 1.5 L 14.0625 3 L 16 3 L 16 2.8125 L 15.09375 1.5 L 15.59375 0.78125 C 15.240889 0.31755285 14.687907 0.019259347 14.0625 0 z"/><path id="path3237" fill="#f0f0f0" fill-opacity="1" fill-rule="evenodd" stroke="none" d="M 9.975228,4.44e-4 8.940746,1.500222 9.975228,3 12.044194,3 11.009712,1.500222 12.044194,4.44e-4 l -2.068966,0 z"/><path id="path3239" fill="#f0f0f0" fill-opacity="1" fill-rule="evenodd" stroke="none" d="M 6.014075,4.44e-4 4.979592,1.500222 6.014075,3 8.08304,3 7.048558,1.500222 8.08304,4.44e-4 l -2.068965,0 z"/><path id="path3241" fill="#f0f0f0" fill-opacity="1" fill-rule="evenodd" stroke="none" d="M 2.030824,4.44e-4 0.996341,1.500222 2.030824,3 4.099789,3 3.065306,1.500222 4.099789,4.44e-4 l -2.068965,0 z"/><path id="path2843" fill="#fff" fill-opacity="1" fill-rule="nonzero" stroke="none" d="M 2 0.96875 C 1.4168007 0.96875 0.96875 1.4168007 0.96875 2 L 0.96875 3 C 0.96875 2.4168007 1.4168007 1.96875 2 1.96875 L 14 1.96875 C 14.583199 1.96875 15.03125 2.4168007 15.03125 3 L 15.03125 2 C 15.03125 1.4168007 14.583199 0.96875 14 0.96875 L 2 0.96875 z" opacity=".2"/><rect id="rect3931" width="16" height="1" x="0" y="3" fill="#000" fill-opacity="1" fill-rule="nonzero" stroke="none" stroke-dasharray="none" stroke-dashoffset="8.6" stroke-linecap="round" stroke-linejoin="miter" stroke-miterlimit="4" stroke-opacity="1" stroke-width="4" color="#000" display="inline" enable-background="accumulate" opacity=".2" overflow="visible" visibility="visible" style="marker:none"/><path id="path3992" fill="#000" fill-opacity="1" stroke="none" d="m 5.71875,2.4617684 0,0.15625 0,6.90625 C 5.216198,9.3713382 4.623194,9.3244355 4,9.4930184 3.353155,9.6680021 2.822317,9.9975647 2.46875,10.399268 c -0.353567,0.401704 -0.530023,0.877393 -0.40625,1.34375 0.123985,0.467158 0.52048,0.824415 1.03125,1 0.51077,0.175585 1.133435,0.175246 1.78125,0 1.101519,-0.297981 1.89033,-1.072126 1.96875,-1.875 l 0,-4.9999996 4.15625,0.5 0,4.7812496 c -0.502551,-0.152931 -1.095553,-0.199845 -1.71875,-0.03125 -0.64767,0.175207 -1.169817,0.502661 -1.5,0.90625 -0.330183,0.403589 -0.466299,0.882003 -0.34375,1.34375 0.122354,0.46101 0.487346,0.823001 0.96875,1 0.481404,0.176999 1.072035,0.174949 1.71875,0 1.100873,-0.297805 1.921203,-1.068264 2,-1.875 l 0,-9.0624996 0,-0.125 -0.09375,0 -6.15625,-0.8125 -0.15625,-0.03125 z m 1.125,2 4.15625,0.59375 0,0.3125 -4.15625,-0.53125 0,-0.375 z" display="inline" opacity=".6"/><path id="path3261" fill="url(#linearGradient3031)" fill-opacity="1" stroke="#2c720d" stroke-dasharray="none" stroke-miterlimit="4" stroke-opacity="1" stroke-width=".271" d="m 5.8513803,2.0523177 0,7.0492525 C 5.3563237,8.9076998 4.709394,8.8745704 4.0417885,9.0551669 2.7940994,9.3926901 1.9575411,10.340223 2.1773607,11.168467 c 0.2198195,0.828244 1.409753,1.227555 2.6574423,0.890032 1.0600292,-0.286757 1.8194279,-1.013829 1.8897369,-1.733664 l 0.00844,0 0,-5.1841228 4.3853931,0.5610186 0,5.0196132 c -0.495057,-0.19387 -1.141987,-0.226999 -1.809593,-0.04639 -1.247689,0.337523 -1.951987,1.285055 -1.7321676,2.1133 0.2198197,0.828243 1.2774931,1.227555 2.5251806,0.890031 1.06003,-0.286756 1.819429,-1.013828 1.889738,-1.733664 l 0.0085,0 0,-9.0570977 -6.1485838,-0.8351999 z m 0.8815959,1.6964038 4.3853918,0.6369425 0,0.569452 -4.3853918,-0.5610156 0,-0.6453789 z" display="inline"/><path id="path2494" fill="url(#radialGradient4318)" fill-opacity="1" stroke="none" d="m 56.391766,82.480003 a 14.672466,9.280777 0 1 1 -29.344933,0 14.672466,9.280777 0 1 1 29.344933,0 z" display="inline" transform="matrix(0.13138504,-0.03094993,0.03094993,0.13138504,-3.5448949,0.83661811)"/><path id="path3278" fill="url(#radialGradient4316)" fill-opacity="1" stroke="none" d="m 56.391766,82.480003 a 14.672466,9.280777 0 1 1 -29.344933,0 14.672466,9.280777 0 1 1 29.344933,0 z" display="inline" transform="matrix(0.13138504,-0.03094993,0.03094993,0.13138504,1.610923,2.4722374)"/><path id="path3282" fill="none" stroke="url(#radialGradient4308)" stroke-dasharray="none" stroke-linecap="butt" stroke-linejoin="miter" stroke-miterlimit="4" stroke-opacity="1" stroke-width=".541" d="m 6.3213272,6.9207646 0,-4.3025258 3.1045678,0.5061795" display="inline"/><path id="path3292" fill="none" stroke="url(#radialGradient4305)" stroke-dasharray="none" stroke-linecap="butt" stroke-linejoin="miter" stroke-miterlimit="4" stroke-opacity="1" stroke-width=".541" d="m 11.533741,9.4831478 0,-5.471741" display="inline"/><path id="rect2835" fill="url(#linearGradient3629)" fill-opacity="1" fill-rule="nonzero" stroke="none" d="m 0,14 c 0,1.108 0.892,2 2,2 l 12,0 c 1.108,0 2,-0.892 2,-2 L 16,2 C 16,0.892 15.108,0 14,0 L 2,0 C 0.892,0 0,0.892 0,2 l 0,12 z m 0.96875,0 0,-12 C 0.96875,1.416801 1.4168007,0.96875 2,0.96875 l 12,0 c 0.583199,0 1.03125,0.448051 1.03125,1.03125 l 0,12 c 0,0.583199 -0.448051,1.03125 -1.03125,1.03125 l -12,0 C 1.4168007,15.03125 0.96875,14.583199 0.96875,14 z" opacity=".4"/></g></svg>