<svg xmlns="http://www.w3.org/2000/svg" xmlns:svg="http://www.w3.org/2000/svg" xmlns:xlink="http://www.w3.org/1999/xlink" id="svg2" width="16" height="16" display="inline" version="1.0"><defs id="defs4"><linearGradient id="linearGradient3327"><stop id="stop3330" offset="0" stop-color="#000" stop-opacity="1"/><stop id="stop3333" offset="1" stop-color="#000" stop-opacity="0"/></linearGradient><linearGradient id="ButtonColor" x1="10.32" x2="10.32" y1="21" y2=".999" gradientUnits="userSpaceOnUse"><stop id="stop3189" offset="0" stop-color="#29669f" stop-opacity="1"/><stop id="stop3191" offset="1" stop-color="#88b6e0" stop-opacity="1"/></linearGradient><linearGradient id="linearGradient3204" x1="1" x2="15" y1="9" y2="9" gradientTransform="translate(-17,-22)" gradientUnits="userSpaceOnUse" xlink:href="#ButtonColor"/><linearGradient id="linearGradient3629" x1="0" x2="29.017" y1="8" y2="8" gradientTransform="matrix(0,-1,1,0,0,16)" gradientUnits="userSpaceOnUse" xlink:href="#linearGradient3327"/><linearGradient id="linearGradient3765" x1="383.289" x2="383.289" y1="0" y2="218.48" gradientTransform="matrix(0.09341072,0,0,0.04108075,-26.756456,8.0246654)" gradientUnits="userSpaceOnUse" xlink:href="#SVGID_1_-4"/><linearGradient id="SVGID_1_-4" x1="383.289" x2="383.289" y1="0" y2="218.48" gradientUnits="userSpaceOnUse"><stop id="stop3143-2" offset=".006" stop-color="#ED2828"/><stop id="stop3145-1" offset=".5" stop-color="#EF3B39"/><stop id="stop3147-3" offset=".994" stop-color="#C02126"/></linearGradient><linearGradient id="linearGradient3749-5" x1="175.308" x2="175.308" y1="73.254" y2="180.675" gradientUnits="userSpaceOnUse"><stop id="stop3751-8" offset="0" stop-color="#000" stop-opacity="1"/><stop id="stop3753-7" offset=".994" stop-color="#000" stop-opacity=".473"/></linearGradient><linearGradient id="linearGradient3754" x1="175.308" x2="175.308" y1="73.254" y2="180.675" gradientTransform="matrix(0.04164302,0,0,0.03408859,1.9444673,0.78644322)" gradientUnits="userSpaceOnUse" xlink:href="#linearGradient3749-5"/><linearGradient id="linearGradient3756" x1="175.308" x2="175.308" y1="73.254" y2="180.675" gradientTransform="matrix(0.04998763,0,0,0.03408859,2.4795353,0.78644322)" gradientUnits="userSpaceOnUse" xlink:href="#linearGradient3749-5"/><linearGradient id="linearGradient3809" x1="175.308" x2="175.308" y1="73.254" y2="180.675" gradientTransform="matrix(0.04859283,0,0,0.03408859,3.115962,0.78644322)" gradientUnits="userSpaceOnUse" xlink:href="#linearGradient3749-5"/><linearGradient id="linearGradient4163" x1="6" x2="90" y1="48" y2="48" gradientTransform="translate(-96,0)" gradientUnits="userSpaceOnUse" xlink:href="#linearGradient3696"/><linearGradient id="linearGradient3696"><stop id="stop3698" offset="0" stop-color="#2458a6" stop-opacity="1"/><stop id="stop3700" offset="1" stop-color="#598ad4" stop-opacity="1"/></linearGradient><linearGradient id="linearGradient3738" x1="6" x2="90" y1="48" y2="48" gradientTransform="translate(-52.867199,-57.252856)" gradientUnits="userSpaceOnUse" xlink:href="#linearGradient3696"/><linearGradient id="linearGradient4113" x1="22.111" x2="40" y1="62.984" y2="32" gradientTransform="matrix(0.19388162,0,0,0.19388162,-1.4007219,-1.9461429)" gradientUnits="userSpaceOnUse" xlink:href="#linearGradient4099"/><linearGradient id="linearGradient4099"><stop id="stop4101" offset="0" stop-color="#9ede27" stop-opacity="1"/><stop id="stop4103" offset="1" stop-color="#c8f16b" stop-opacity="1"/></linearGradient><linearGradient id="linearGradient4105" x1="38" x2="70" y1="74" y2="49" gradientTransform="matrix(0.19388162,0,0,0.19388162,-1.5256152,-1.9461429)" gradientUnits="userSpaceOnUse" xlink:href="#linearGradient4099"/><linearGradient id="linearGradient3712"><stop id="stop3714" offset="0" stop-color="#9ede27" stop-opacity="1"/><stop id="stop3716" offset="1" stop-color="#c8f16b" stop-opacity="1"/></linearGradient><linearGradient id="linearGradient3746" x1="56.037" x2="56.037" y1="49.333" y2="13.593" gradientTransform="matrix(0.26518093,0,0,0.26518093,-0.34872536,-3.7081516)" gradientUnits="userSpaceOnUse" xlink:href="#linearGradient3799-3"/><linearGradient id="linearGradient3799-3"><stop id="stop3801-3" offset="0" stop-color="#1a1a1a" stop-opacity="1"/><stop id="stop3803-2" offset="1" stop-color="#000" stop-opacity="1"/></linearGradient><linearGradient id="linearGradient3726" x1="56.037" x2="56.037" y1="49.333" y2="13.593" gradientTransform="matrix(0.19388162,0,0,0.19388162,-1.3401963,-1.8843368)" gradientUnits="userSpaceOnUse" xlink:href="#linearGradient3799-3"/><radialGradient id="radialGradient3758" cx="49.581" cy="67.041" r="10" fx="49.581" fy="67.041" gradientTransform="matrix(1.0456205,0.08243661,-0.05194947,0.90987799,0.84943041,1.3399685)" gradientUnits="userSpaceOnUse" xlink:href="#linearGradient3784-2"/><linearGradient id="linearGradient3784-2"><stop id="stop3786-4" offset="0" stop-color="#a0a0a0" stop-opacity="1"/><stop id="stop3790-2" offset="1" stop-color="#1a1a1a" stop-opacity="1"/></linearGradient><radialGradient id="radialGradient3745" cx="49.581" cy="67.041" r="10" fx="49.581" fy="67.041" gradientTransform="matrix(1.0456205,0.08243661,-0.05194947,0.90987799,0.84943041,1.3399685)" gradientUnits="userSpaceOnUse" xlink:href="#linearGradient3784-2"/><radialGradient id="radialGradient3698" cx="10.117" cy="6.534" r="2.649" fx="10.117" fy="6.534" gradientTransform="matrix(0.60548597,-0.18291744,0.13322228,0.44098703,0.81853832,7.6996387)" gradientUnits="userSpaceOnUse" xlink:href="#linearGradient3784-2"/><clipPath id="clipPath3836" clipPathUnits="userSpaceOnUse"><rect id="rect3838" width="84" height="84" x="-90" y="6" fill="url(#linearGradient3840)" fill-opacity="1" fill-rule="nonzero" stroke="none" rx="10.5" ry="10.5" transform="matrix(0,-1,1,0,0,0)"/></clipPath><linearGradient id="linearGradient3840" x1="1" x2="15" y1="9" y2="9" gradientTransform="matrix(5.25,0,0,5.25,-95.249997,-4.5000008)" gradientUnits="userSpaceOnUse" xlink:href="#ButtonColor"/><linearGradient id="linearGradient3204-9" x1="1" x2="15" y1="9" y2="9" gradientTransform="translate(-17,-22)" gradientUnits="userSpaceOnUse" xlink:href="#ButtonColor-2"/><linearGradient id="ButtonColor-2" x1="10.32" x2="10.32" y1="21" y2=".999" gradientUnits="userSpaceOnUse"><stop id="stop3189-8" offset="0" stop-color="#29669f" stop-opacity="1"/><stop id="stop3191-5" offset="1" stop-color="#88b6e0" stop-opacity="1"/></linearGradient></defs><metadata id="metadata7"/><g id="layer1"><rect id="rect3196" width="16" height="16" x="-16" y="0" fill="#000" fill-opacity="1" fill-rule="nonzero" stroke="none" display="inline" rx="2" ry="2" transform="matrix(0,-1,1,0,0,0)"/><g id="g3699" clip-path="url(#clipPath3836)" display="inline" transform="matrix(0.19047619,0,0,0.19047619,-1.142857,-1.1428566)"><path id="path4500" fill="#00df16" fill-opacity="1" stroke="none" d="m 48.166103,47.999998 c -11.120237,19.260821 -10.361636,42.120163 0,60.091082 10.943881,0 21.207664,-2.96304 30.045535,-8.07475 C 60.25264,89.62572 48.166103,70.240487 48.166103,47.999998 z"/><path id="path4516" fill="#04abcf" fill-opacity="1" stroke="none" d="M 48.143845,48.083054 C 28.883034,59.203289 18.110327,79.379361 18.098313,100.12345 c 9.477684,5.47194 19.847897,8.03778 30.057562,8.02985 C 37.798242,90.175255 37.023608,67.343875 48.14386,48.083054 z"/><path id="path4518" fill="#1a36d8" fill-opacity="1" stroke="none" d="m 48.083045,48.14386 c -22.24047,0 -41.6579396,12.086629 -52.0403931,30.04553 5.4719397,9.477685 13.1698952,16.884859 22.0156941,21.98283 0.01895,-20.748257 10.763876,-40.908125 30.02471,-52.02836 z"/><path id="path4520" fill="#370099" fill-opacity="1" stroke="none" d="m 47.999986,48.16611 c -19.260809,-11.120235 -42.1201506,-10.361642 -60.091065,0 0,10.943889 2.9630353,21.207661 8.0747331,30.045539 C 6.3742285,60.252615 25.75951,48.1661 47.999999,48.16611 z"/><path id="path4522" fill="#650199" fill-opacity="1" stroke="none" d="M 47.916929,48.14386 C 36.796692,28.883049 16.620636,18.110327 -4.1234596,18.098321 -9.5953989,27.576006 -12.161216,37.946207 -12.153304,48.155885 5.824722,37.798194 28.656119,37.023607 47.916941,48.143889 z"/><path id="path4524" fill="#9c009b" fill-opacity="1" stroke="none" d="m 47.856129,48.083054 c 0,-22.24047 -12.086622,-41.6579514 -30.045532,-52.040402 C 8.3329122,1.5146042 0.92574694,9.2125587 -4.1722325,18.058345 16.576033,18.077291 36.735903,28.822223 47.856129,48.083063 z"/><path id="path4526" fill="#d10737" fill-opacity="1" stroke="none" d="M 47.833871,47.999998 C 58.954108,28.739177 58.19553,5.8798365 47.833883,-12.091084 36.88999,-12.091071 26.626216,-9.1280292 17.788348,-4.0163457 35.747382,6.3742296 47.833895,25.759509 47.833871,48.000008 z"/><path id="path4528" fill="#fd0005" fill-opacity="1" stroke="none" d="M 47.856129,47.916942 C 67.116951,36.796688 77.889669,16.620634 77.901675,-4.1234642 68.42398,-9.5953939 58.053776,-12.16121 47.84411,-12.153302 58.201804,5.8247202 58.97639,28.656121 47.856125,47.916952 z"/><path id="path4530" fill="#ff6500" fill-opacity="1" stroke="none" d="M 47.916929,47.856136 C 70.157415,47.856126 89.574895,35.769507 99.957346,17.810597 94.485381,8.3329218 86.787426,0.92576042 77.941649,-4.1722343 77.922655,16.576046 67.177776,36.735901 47.916929,47.856136 z"/><path id="path4532" fill="#fdad00" fill-opacity="1" stroke="none" d="m 47.999986,47.833887 c 19.260835,11.120234 42.120176,10.361642 60.091104,0 -3e-5,-10.943889 -2.96308,-21.207662 -8.07475,-30.045539 C 89.625756,35.747391 70.240485,47.833896 47.999986,47.833887 z"/><path id="path4534" fill="#fffd01" fill-opacity="1" stroke="none" d="m 48.083045,47.856126 c 11.120249,19.26084 31.296318,30.033543 52.040415,30.045549 5.47192,-9.477685 8.03774,-19.847886 8.02984,-30.057564 -17.978035,10.357701 -40.809421,11.132279 -60.070255,0.012 z"/><path id="path4536" fill="#b6fd00" fill-opacity="1" stroke="none" d="m 48.143856,47.916933 c 0,22.240489 12.086634,41.657958 30.045548,52.040413 C 87.667063,94.485395 95.074225,86.78744 100.17223,77.941651 79.423938,77.922705 59.264094,67.177773 48.143856,47.916933 z"/></g><path id="rect2835" fill="url(#linearGradient3629)" fill-opacity="1" fill-rule="nonzero" stroke="none" d="m 0,14 c 0,1.108 0.892,2 2,2 l 12,0 c 1.108,0 2,-0.892 2,-2 L 16,2 C 16,0.892 15.108,0 14,0 L 2,0 C 0.892,0 0,0.892 0,2 l 0,12 z m 0.96875,0 0,-12 C 0.96875,1.416801 1.4168007,0.96875 2,0.96875 l 12,0 c 0.583199,0 1.03125,0.448051 1.03125,1.03125 l 0,12 c 0,0.583199 -0.448051,1.03125 -1.03125,1.03125 l -12,0 C 1.4168007,15.03125 0.96875,14.583199 0.96875,14 z" opacity=".4"/><path id="path2843" fill="#fff" fill-opacity="1" fill-rule="nonzero" stroke="none" d="M 2 0.96875 C 1.4168007 0.96875 0.96875 1.4168007 0.96875 2 L 0.96875 3 C 0.96875 2.4168007 1.4168007 1.96875 2 1.96875 L 14 1.96875 C 14.583199 1.96875 15.03125 2.4168007 15.03125 3 L 15.03125 2 C 15.03125 1.4168007 14.583199 0.96875 14 0.96875 L 2 0.96875 z" opacity=".35"/></g></svg>