<svg xmlns="http://www.w3.org/2000/svg" xmlns:svg="http://www.w3.org/2000/svg" xmlns:xlink="http://www.w3.org/1999/xlink" id="svg2" width="16" height="16" display="inline" version="1.0"><defs id="defs4"><linearGradient id="linearGradient3327"><stop id="stop3330" offset="0" stop-color="#000" stop-opacity="1"/><stop id="stop3333" offset="1" stop-color="#000" stop-opacity="0"/></linearGradient><linearGradient id="ButtonColor" x1="10.32" x2="10.32" y1="21" y2=".999" gradientUnits="userSpaceOnUse"><stop id="stop3189" offset="0" stop-color="#29669f" stop-opacity="1"/><stop id="stop3191" offset="1" stop-color="#88b6e0" stop-opacity="1"/></linearGradient><linearGradient id="linearGradient3204" x1="1" x2="15" y1="9" y2="9" gradientTransform="translate(-17,-2)" gradientUnits="userSpaceOnUse" xlink:href="#ButtonColor-5"/><linearGradient id="linearGradient3629" x1="0" x2="29.017" y1="8" y2="8" gradientTransform="matrix(0,-1,1,0,0,16)" gradientUnits="userSpaceOnUse" xlink:href="#linearGradient3327"/><linearGradient id="linearGradient3765" x1="383.289" x2="383.289" y1="0" y2="218.48" gradientTransform="matrix(0.09341072,0,0,0.04108075,-26.756456,8.0246654)" gradientUnits="userSpaceOnUse" xlink:href="#SVGID_1_-4"/><linearGradient id="SVGID_1_-4" x1="383.289" x2="383.289" y1="0" y2="218.48" gradientUnits="userSpaceOnUse"><stop id="stop3143-2" offset=".006" stop-color="#ED2828"/><stop id="stop3145-1" offset=".5" stop-color="#EF3B39"/><stop id="stop3147-3" offset=".994" stop-color="#C02126"/></linearGradient><linearGradient id="linearGradient3749-5" x1="175.308" x2="175.308" y1="73.254" y2="180.675" gradientUnits="userSpaceOnUse"><stop id="stop3751-8" offset="0" stop-color="#000" stop-opacity="1"/><stop id="stop3753-7" offset=".994" stop-color="#000" stop-opacity=".473"/></linearGradient><linearGradient id="linearGradient3754" x1="175.308" x2="175.308" y1="73.254" y2="180.675" gradientTransform="matrix(0.04164302,0,0,0.03408859,1.9444673,0.78644322)" gradientUnits="userSpaceOnUse" xlink:href="#linearGradient3749-5"/><linearGradient id="linearGradient3756" x1="175.308" x2="175.308" y1="73.254" y2="180.675" gradientTransform="matrix(0.04998763,0,0,0.03408859,2.4795353,0.78644322)" gradientUnits="userSpaceOnUse" xlink:href="#linearGradient3749-5"/><linearGradient id="linearGradient3809" x1="175.308" x2="175.308" y1="73.254" y2="180.675" gradientTransform="matrix(0.04859283,0,0,0.03408859,3.115962,0.78644322)" gradientUnits="userSpaceOnUse" xlink:href="#linearGradient3749-5"/><linearGradient id="linearGradient4163" x1="6" x2="90" y1="48" y2="48" gradientTransform="translate(-96,0)" gradientUnits="userSpaceOnUse" xlink:href="#linearGradient3696"/><linearGradient id="linearGradient3696"><stop id="stop3698" offset="0" stop-color="#2458a6" stop-opacity="1"/><stop id="stop3700" offset="1" stop-color="#598ad4" stop-opacity="1"/></linearGradient><linearGradient id="linearGradient3738" x1="6" x2="90" y1="48" y2="48" gradientTransform="translate(-52.867199,-57.252856)" gradientUnits="userSpaceOnUse" xlink:href="#linearGradient3696"/><linearGradient id="linearGradient4113" x1="22.111" x2="40" y1="62.984" y2="32" gradientTransform="matrix(0.19388162,0,0,0.19388162,-1.4007219,-1.9461429)" gradientUnits="userSpaceOnUse" xlink:href="#linearGradient4099"/><linearGradient id="linearGradient4099"><stop id="stop4101" offset="0" stop-color="#9ede27" stop-opacity="1"/><stop id="stop4103" offset="1" stop-color="#c8f16b" stop-opacity="1"/></linearGradient><linearGradient id="linearGradient4105" x1="38" x2="70" y1="74" y2="49" gradientTransform="matrix(0.19388162,0,0,0.19388162,-1.5256152,-1.9461429)" gradientUnits="userSpaceOnUse" xlink:href="#linearGradient4099"/><linearGradient id="linearGradient3712"><stop id="stop3714" offset="0" stop-color="#9ede27" stop-opacity="1"/><stop id="stop3716" offset="1" stop-color="#c8f16b" stop-opacity="1"/></linearGradient><linearGradient id="linearGradient3746" x1="56.037" x2="56.037" y1="49.333" y2="13.593" gradientTransform="matrix(0.26518093,0,0,0.26518093,-0.34872536,-3.7081516)" gradientUnits="userSpaceOnUse" xlink:href="#linearGradient3799-3"/><linearGradient id="linearGradient3799-3"><stop id="stop3801-3" offset="0" stop-color="#1a1a1a" stop-opacity="1"/><stop id="stop3803-2" offset="1" stop-color="#000" stop-opacity="1"/></linearGradient><linearGradient id="linearGradient3726" x1="56.037" x2="56.037" y1="49.333" y2="13.593" gradientTransform="matrix(0.19388162,0,0,0.19388162,-1.3401963,-1.8843368)" gradientUnits="userSpaceOnUse" xlink:href="#linearGradient3799-3"/><radialGradient id="radialGradient3758" cx="49.581" cy="67.041" r="10" fx="49.581" fy="67.041" gradientTransform="matrix(1.0456205,0.08243661,-0.05194947,0.90987799,0.84943041,1.3399685)" gradientUnits="userSpaceOnUse" xlink:href="#linearGradient3784-2"/><linearGradient id="linearGradient3784-2"><stop id="stop3786-4" offset="0" stop-color="#a0a0a0" stop-opacity="1"/><stop id="stop3790-2" offset="1" stop-color="#1a1a1a" stop-opacity="1"/></linearGradient><radialGradient id="radialGradient3745" cx="49.581" cy="67.041" r="10" fx="49.581" fy="67.041" gradientTransform="matrix(1.0456205,0.08243661,-0.05194947,0.90987799,0.84943041,1.3399685)" gradientUnits="userSpaceOnUse" xlink:href="#linearGradient3784-2"/><radialGradient id="radialGradient3698" cx="10.117" cy="6.534" r="2.649" fx="10.117" fy="6.534" gradientTransform="matrix(0.60548597,-0.18291744,0.13322228,0.44098703,0.81853832,7.6996387)" gradientUnits="userSpaceOnUse" xlink:href="#linearGradient3784-2"/><linearGradient id="linearGradient3181" x1="-3.061" x2="-3.061" y1="27.258" y2="7.254" gradientTransform="translate(11.119372,-6.2581977)" gradientUnits="userSpaceOnUse" xlink:href="#ButtonColor-5"/><linearGradient id="ButtonColor-5" x1="58.65" x2="58.65" y1="122" y2="5.425" gradientTransform="matrix(1.0172414,0,0,1.0172414,-1.1034483,-1.1034483)" gradientUnits="userSpaceOnUse"><stop id="stop3189-4" offset="0" stop-color="#30475c" stop-opacity="1"/><stop id="stop3191-8" offset="1" stop-color="#6588af" stop-opacity="1"/></linearGradient><linearGradient id="linearGradient2946" x1="-3.061" x2="-3.061" y1="27.258" y2="7.254" gradientTransform="translate(-13.303555,-17.632763)" gradientUnits="userSpaceOnUse" xlink:href="#ButtonColor-5"/><linearGradient id="linearGradient3730" x1="15.457" x2="19.727" y1="12.691" y2="12.691" gradientTransform="matrix(0.77167299,0,0,0.76711648,-0.55909253,-0.13116324)" gradientUnits="userSpaceOnUse" xlink:href="#linearGradient3724"/><linearGradient id="linearGradient3724"><stop id="stop3726" offset="0" stop-color="#ffc000" stop-opacity="1"/><stop id="stop3728" offset="1" stop-color="#ffc000" stop-opacity="0"/></linearGradient><linearGradient id="linearGradient3739" x1="15.514" x2="19.86" y1="7.583" y2="7.583" gradientTransform="matrix(0.77167299,0,0,0.76711648,-0.55909253,-0.13116324)" gradientUnits="userSpaceOnUse" xlink:href="#linearGradient3732"/><linearGradient id="linearGradient3732"><stop id="stop3734" offset="0" stop-color="#cbf44b" stop-opacity="1"/><stop id="stop3737" offset="1" stop-color="#cbf44b" stop-opacity="0"/></linearGradient><linearGradient id="linearGradient3879" x1="44.821" x2="45.181" y1="54.036" y2="87.348" gradientUnits="userSpaceOnUse" xlink:href="#linearGradient3793-7"/><linearGradient id="linearGradient3793-7"><stop id="stop3795-0" offset="0" stop-color="#ffb100" stop-opacity="1"/><stop id="stop3797-4" offset="1" stop-color="#ffb100" stop-opacity="0"/></linearGradient><clipPath id="clipPath3883" clipPathUnits="userSpaceOnUse"><path id="path3885" fill="#fff" stroke="none" d="m 15.709253,65.090789 17.5239,6.363215 L 45.007546,50.276912 55.373489,72.273901 68.605387,65.491959 87.712532,76.266621 87.857109,104.75 14.642828,101.71429 15.709224,65.090789 z"/></clipPath><filter id="filter3801-8" width="1.434" height="1.537" x="-.217" y="-.268" color-interpolation-filters="sRGB"><feGaussianBlur id="feGaussianBlur3803-0" stdDeviation="4.313"/></filter><linearGradient id="linearGradient3740-0" x1="50.714" x2="59.526" y1="32.607" y2="65.416" gradientUnits="userSpaceOnUse" xlink:href="#linearGradient3734-7"/><linearGradient id="linearGradient3734-7"><stop id="stop3736-0" offset="0" stop-color="#cbf44b" stop-opacity="1"/><stop id="stop3738-1" offset="1" stop-color="#cbf44b" stop-opacity="0"/></linearGradient><clipPath id="clipPath3888" clipPathUnits="userSpaceOnUse"><path id="path3890" fill="#fff" stroke="none" d="m 15.369722,46.093037 11.314104,10.159751 23.492223,-22.1894 5.724354,5.353369 12.135308,-17.879784 16.24749,17.49371 0.181081,73.219317 -71.428568,-5.89286 2.334008,-60.264103 z"/></clipPath><filter id="filter3892" width="1.4" height="1.327" x="-.2" y="-.164" color-interpolation-filters="sRGB"><feGaussianBlur id="feGaussianBlur3894" stdDeviation="3.737"/></filter><linearGradient id="linearGradient3836" x1="8.531" x2="8.531" y1="17.903" y2="5.003" gradientTransform="matrix(1,0,0,1.1538462,-2,-6.7692308)" gradientUnits="userSpaceOnUse" xlink:href="#linearGradient3828"/><linearGradient id="linearGradient3828"><stop id="stop3830" offset="0" stop-color="#fff" stop-opacity="1"/><stop id="stop3832" offset="1" stop-color="#fff" stop-opacity="0"/></linearGradient><linearGradient id="linearGradient3840" x1="8.531" x2="8.531" y1="17.903" y2="5.003" gradientTransform="matrix(1,0,0,1.1538462,5,-2.7692308)" gradientUnits="userSpaceOnUse" xlink:href="#linearGradient3828"/><linearGradient id="linearGradient3006" x1="8.531" x2="8.531" y1="17.903" y2="5.003" gradientTransform="matrix(1,0,0,1.1538462,3,-6.7692308)" gradientUnits="userSpaceOnUse" xlink:href="#linearGradient3828"/></defs><metadata id="metadata7"/><g id="layer1"><rect id="rect3196" width="16" height="16" x="-16" y="0" fill="url(#linearGradient3204)" fill-opacity="1" fill-rule="nonzero" stroke="none" rx="2" ry="2" transform="matrix(0,-1,1,0,0,0)"/><path id="rect2835" fill="url(#linearGradient3629)" fill-opacity="1" fill-rule="nonzero" stroke="none" d="m 0,14 c 0,1.108 0.892,2 2,2 l 12,0 c 1.108,0 2,-0.892 2,-2 L 16,2 C 16,0.892 15.108,0 14,0 L 2,0 C 0.892,0 0,0.892 0,2 l 0,12 z m 0.96875,0 0,-12 C 0.96875,1.416801 1.4168007,0.96875 2,0.96875 l 12,0 c 0.583199,0 1.03125,0.448051 1.03125,1.03125 l 0,12 c 0,0.583199 -0.448051,1.03125 -1.03125,1.03125 l -12,0 C 1.4168007,15.03125 0.96875,14.583199 0.96875,14 z" opacity=".4"/><path id="path2843" fill="#fff" fill-opacity="1" fill-rule="nonzero" stroke="none" d="M 2 0.96875 C 1.4168007 0.96875 0.96875 1.4168007 0.96875 2 L 0.96875 3 C 0.96875 2.4168007 1.4168007 1.96875 2 1.96875 L 14 1.96875 C 14.583199 1.96875 15.03125 2.4168007 15.03125 3 L 15.03125 2 C 15.03125 1.4168007 14.583199 0.96875 14 0.96875 L 2 0.96875 z" opacity=".25"/><rect id="rect3638" width="1" height="10.029" x="2" y="3.971" fill="#c8d5e5" fill-opacity="1" stroke="none" display="inline"/><rect id="rect3640" width="1" height="11.013" x="13" y="-13.013" fill="#c8d5e5" fill-opacity="1" stroke="none" display="inline" transform="matrix(0,1,-1,0,0,0)"/><path id="path3644" fill="#c8d5e5" fill-opacity="1" stroke="none" d="m 5.0119253,3.6975843 -1.6550348,0 -1.6550349,0 L 2.529373,2.2642821 3.3568904,0.83097982 4.1844079,2.264282 5.0119253,3.6975843 z" display="inline" transform="matrix(0.90632533,0,0,1.0465343,-0.5424348,1.1303512)"/><path id="path3646" fill="#c8d5e5" fill-opacity="1" stroke="none" d="m 5.0119253,3.6975843 -1.6550348,0 -1.6550349,0 L 2.529373,2.2642821 3.3568904,0.83097982 4.1844079,2.264282 5.0119253,3.6975843 z" display="inline" transform="matrix(0,0.90632533,-1.0465343,0,14.869649,10.457565)"/><path id="path3740" fill="none" stroke="url(#linearGradient3739)" stroke-dasharray="none" stroke-dashoffset="0" stroke-linecap="round" stroke-linejoin="miter" stroke-miterlimit="4" stroke-opacity="1" stroke-width=".85" d="M 4.3107184,7.1136748 5.3761235,7.960966 8.2854753,4.9863859 9.1076388,5.7076205 10.753738,3.4104702 12.748845,5.7891994 14.608508,5.3606318" display="inline"/><path id="path3761" fill="none" stroke="url(#linearGradient3730)" stroke-dasharray="none" stroke-dashoffset="0" stroke-linecap="round" stroke-linejoin="miter" stroke-miterlimit="4" stroke-opacity="1" stroke-width=".85" d="m 4.3406538,10.169319 1.663436,0.811684 1.6016218,-2.8807594 1.3610274,2.8588074 1.663038,-0.827279 1.617797,0.976283 2.395019,-2.4607492" display="inline"/></g></svg>