<svg xmlns="http://www.w3.org/2000/svg" xmlns:svg="http://www.w3.org/2000/svg" xmlns:xlink="http://www.w3.org/1999/xlink" id="svg2" width="16" height="16" display="inline" version="1.0"><defs id="defs4"><linearGradient id="linearGradient3327"><stop id="stop3330" offset="0" stop-color="#000" stop-opacity="1"/><stop id="stop3333" offset="1" stop-color="#000" stop-opacity="0"/></linearGradient><linearGradient id="ButtonColor" x1="10.32" x2="10.32" y1="21" y2=".999" gradientUnits="userSpaceOnUse"><stop id="stop3189" offset="0" stop-color="#29669f" stop-opacity="1"/><stop id="stop3191" offset="1" stop-color="#88b6e0" stop-opacity="1"/></linearGradient><linearGradient id="linearGradient3204" x1="1" x2="15" y1="9" y2="9" gradientTransform="translate(-17,-2)" gradientUnits="userSpaceOnUse" xlink:href="#linearGradient3187"/><linearGradient id="linearGradient3629" x1="0" x2="29.017" y1="8" y2="8" gradientTransform="matrix(0,-1,1,0,0,16)" gradientUnits="userSpaceOnUse" xlink:href="#linearGradient3327"/><linearGradient id="linearGradient3765" x1="383.289" x2="383.289" y1="0" y2="218.48" gradientTransform="matrix(0.09341072,0,0,0.04108075,-26.756456,8.0246654)" gradientUnits="userSpaceOnUse" xlink:href="#SVGID_1_-4"/><linearGradient id="SVGID_1_-4" x1="383.289" x2="383.289" y1="0" y2="218.48" gradientUnits="userSpaceOnUse"><stop id="stop3143-2" offset=".006" stop-color="#ED2828"/><stop id="stop3145-1" offset=".5" stop-color="#EF3B39"/><stop id="stop3147-3" offset=".994" stop-color="#C02126"/></linearGradient><linearGradient id="linearGradient3749-5" x1="175.308" x2="175.308" y1="73.254" y2="180.675" gradientUnits="userSpaceOnUse"><stop id="stop3751-8" offset="0" stop-color="#000" stop-opacity="1"/><stop id="stop3753-7" offset=".994" stop-color="#000" stop-opacity=".473"/></linearGradient><linearGradient id="linearGradient3754" x1="175.308" x2="175.308" y1="73.254" y2="180.675" gradientTransform="matrix(0.04164302,0,0,0.03408859,1.9444673,0.78644322)" gradientUnits="userSpaceOnUse" xlink:href="#linearGradient3749-5"/><linearGradient id="linearGradient3756" x1="175.308" x2="175.308" y1="73.254" y2="180.675" gradientTransform="matrix(0.04998763,0,0,0.03408859,2.4795353,0.78644322)" gradientUnits="userSpaceOnUse" xlink:href="#linearGradient3749-5"/><linearGradient id="linearGradient3809" x1="175.308" x2="175.308" y1="73.254" y2="180.675" gradientTransform="matrix(0.04859283,0,0,0.03408859,3.115962,0.78644322)" gradientUnits="userSpaceOnUse" xlink:href="#linearGradient3749-5"/><linearGradient id="linearGradient4163" x1="6" x2="90" y1="48" y2="48" gradientTransform="translate(-96,0)" gradientUnits="userSpaceOnUse" xlink:href="#linearGradient3696"/><linearGradient id="linearGradient3696"><stop id="stop3698" offset="0" stop-color="#2458a6" stop-opacity="1"/><stop id="stop3700" offset="1" stop-color="#598ad4" stop-opacity="1"/></linearGradient><linearGradient id="linearGradient3738" x1="6" x2="90" y1="48" y2="48" gradientTransform="translate(-52.867199,-57.252856)" gradientUnits="userSpaceOnUse" xlink:href="#linearGradient3696"/><linearGradient id="linearGradient4113" x1="22.111" x2="40" y1="62.984" y2="32" gradientTransform="matrix(0.19388162,0,0,0.19388162,-1.4007219,-1.9461429)" gradientUnits="userSpaceOnUse" xlink:href="#linearGradient4099"/><linearGradient id="linearGradient4099"><stop id="stop4101" offset="0" stop-color="#9ede27" stop-opacity="1"/><stop id="stop4103" offset="1" stop-color="#c8f16b" stop-opacity="1"/></linearGradient><linearGradient id="linearGradient4105" x1="38" x2="70" y1="74" y2="49" gradientTransform="matrix(0.19388162,0,0,0.19388162,-1.5256152,-1.9461429)" gradientUnits="userSpaceOnUse" xlink:href="#linearGradient4099"/><linearGradient id="linearGradient3712"><stop id="stop3714" offset="0" stop-color="#9ede27" stop-opacity="1"/><stop id="stop3716" offset="1" stop-color="#c8f16b" stop-opacity="1"/></linearGradient><linearGradient id="linearGradient3746" x1="56.037" x2="56.037" y1="49.333" y2="13.593" gradientTransform="matrix(0.26518093,0,0,0.26518093,-0.34872536,-3.7081516)" gradientUnits="userSpaceOnUse" xlink:href="#linearGradient3799-3"/><linearGradient id="linearGradient3799-3"><stop id="stop3801-3" offset="0" stop-color="#1a1a1a" stop-opacity="1"/><stop id="stop3803-2" offset="1" stop-color="#000" stop-opacity="1"/></linearGradient><linearGradient id="linearGradient3726" x1="56.037" x2="56.037" y1="49.333" y2="13.593" gradientTransform="matrix(0.19388162,0,0,0.19388162,-1.3401963,-1.8843368)" gradientUnits="userSpaceOnUse" xlink:href="#linearGradient3799-3"/><radialGradient id="radialGradient3758" cx="49.581" cy="67.041" r="10" fx="49.581" fy="67.041" gradientTransform="matrix(1.0456205,0.08243661,-0.05194947,0.90987799,0.84943041,1.3399685)" gradientUnits="userSpaceOnUse" xlink:href="#linearGradient3784-2"/><linearGradient id="linearGradient3784-2"><stop id="stop3786-4" offset="0" stop-color="#a0a0a0" stop-opacity="1"/><stop id="stop3790-2" offset="1" stop-color="#1a1a1a" stop-opacity="1"/></linearGradient><radialGradient id="radialGradient3745" cx="49.581" cy="67.041" r="10" fx="49.581" fy="67.041" gradientTransform="matrix(1.0456205,0.08243661,-0.05194947,0.90987799,0.84943041,1.3399685)" gradientUnits="userSpaceOnUse" xlink:href="#linearGradient3784-2"/><radialGradient id="radialGradient3698" cx="10.117" cy="6.534" r="2.649" fx="10.117" fy="6.534" gradientTransform="matrix(0.60548597,-0.18291744,0.13322228,0.44098703,0.81853832,7.6996387)" gradientUnits="userSpaceOnUse" xlink:href="#linearGradient3784-2"/><linearGradient id="linearGradient3259" x1="3.931" x2="3.931" y1="30.251" y2="10.194" gradientTransform="translate(4.4452298,-9.2508831)" gradientUnits="userSpaceOnUse" xlink:href="#linearGradient3187"/><linearGradient id="linearGradient3187"><stop id="stop3189-7" offset="0" stop-color="#b9b79e" stop-opacity="1"/><stop id="stop3191-7" offset="1" stop-color="#e4e4da" stop-opacity="1"/></linearGradient><linearGradient id="linearGradient3688" x1="3.931" x2="3.931" y1="30.251" y2="10.194" gradientTransform="translate(-13.055402,-16.092575)" gradientUnits="userSpaceOnUse" xlink:href="#linearGradient3187"/><linearGradient id="linearGradient3654" x1="78" x2="78" y1="104" y2="112.004" gradientUnits="userSpaceOnUse" xlink:href="#linearGradient5964"/><linearGradient id="linearGradient5964"><stop id="stop5966" offset="0" stop-color="#706f6b" stop-opacity="1"/><stop id="stop5968" offset="1" stop-color="#51504e" stop-opacity="1"/></linearGradient><linearGradient id="linearGradient3656" x1="79.067" x2="79.067" y1="104.353" y2="107.938" gradientUnits="userSpaceOnUse" xlink:href="#linearGradient5976"/><linearGradient id="linearGradient5976"><stop id="stop5978" offset="0" stop-color="#fff" stop-opacity="1"/><stop id="stop5980" offset="1" stop-color="#fff" stop-opacity="0"/></linearGradient><linearGradient id="linearGradient3756-9" x1="38.69" x2="38.69" y1="36.89" y2="43.26" gradientUnits="userSpaceOnUse" xlink:href="#linearGradient6043"/><linearGradient id="linearGradient6043"><stop id="stop6045" offset="0" stop-color="#5d5d56" stop-opacity="1"/><stop id="stop6047" offset="1" stop-color="#bcbcb7" stop-opacity="1"/></linearGradient><linearGradient id="linearGradient3754-4" x1="38.69" x2="38.69" y1="36.89" y2="43.26" gradientUnits="userSpaceOnUse" xlink:href="#linearGradient6043"/><linearGradient id="linearGradient3715"><stop id="stop3717" offset="0" stop-color="#5d5d56" stop-opacity="1"/><stop id="stop3719" offset="1" stop-color="#bcbcb7" stop-opacity="1"/></linearGradient><linearGradient id="linearGradient3752" x1="38.69" x2="38.69" y1="36.89" y2="43.26" gradientUnits="userSpaceOnUse" xlink:href="#linearGradient6043"/><linearGradient id="linearGradient3722"><stop id="stop3724" offset="0" stop-color="#5d5d56" stop-opacity="1"/><stop id="stop3726" offset="1" stop-color="#bcbcb7" stop-opacity="1"/></linearGradient><linearGradient id="linearGradient3750" x1="38.69" x2="38.69" y1="36.89" y2="43.26" gradientUnits="userSpaceOnUse" xlink:href="#linearGradient6043"/><linearGradient id="linearGradient3729"><stop id="stop3731" offset="0" stop-color="#5d5d56" stop-opacity="1"/><stop id="stop3733" offset="1" stop-color="#bcbcb7" stop-opacity="1"/></linearGradient><radialGradient id="radialGradient3763" cx="40" cy="40" r="18" fx="40" fy="40" gradientTransform="matrix(0,-0.13247908,0.13254086,0,-0.1988596,10.809019)" gradientUnits="userSpaceOnUse" xlink:href="#linearGradient6035"/><linearGradient id="linearGradient6035"><stop id="stop6037" offset="0" stop-color="#91918a" stop-opacity="1"/><stop id="stop6039" offset="1" stop-color="#7c7c74" stop-opacity="1"/></linearGradient><linearGradient id="linearGradient3740"><stop id="stop3742" offset="0" stop-color="#5d5d56" stop-opacity="1"/><stop id="stop3744" offset="1" stop-color="#bcbcb7" stop-opacity="1"/></linearGradient><linearGradient id="linearGradient3774" x1="15.75" x2="64.464" y1="40" y2="40" gradientUnits="userSpaceOnUse" xlink:href="#linearGradient5724"/><linearGradient id="linearGradient5724"><stop id="stop5726" offset="0" stop-color="#9f9d7c" stop-opacity="1"/><stop id="stop5728" offset="1" stop-color="#fff" stop-opacity="1"/></linearGradient><linearGradient id="linearGradient3640" x1="78" x2="78" y1="104" y2="112.004" gradientUnits="userSpaceOnUse" xlink:href="#linearGradient5964"/><linearGradient id="linearGradient3751"><stop id="stop3753" offset="0" stop-color="#706f6b" stop-opacity="1"/><stop id="stop3755" offset="1" stop-color="#51504e" stop-opacity="1"/></linearGradient><linearGradient id="linearGradient3642" x1="79.067" x2="79.067" y1="104.353" y2="107.938" gradientUnits="userSpaceOnUse" xlink:href="#linearGradient5976"/><linearGradient id="linearGradient4218" x1="15.75" x2="64.464" y1="40" y2="40" gradientUnits="userSpaceOnUse" xlink:href="#linearGradient5724"/></defs><metadata id="metadata7"/><g id="layer1"><rect id="rect3196" width="16" height="16" x="-16" y="0" fill="url(#linearGradient3204)" fill-opacity="1" fill-rule="nonzero" stroke="none" rx="2" ry="2" transform="matrix(0,-1,1,0,0,0)"/><path id="rect2835" fill="url(#linearGradient3629)" fill-opacity="1" fill-rule="nonzero" stroke="none" d="m 0,14 c 0,1.108 0.892,2 2,2 l 12,0 c 1.108,0 2,-0.892 2,-2 L 16,2 C 16,0.892 15.108,0 14,0 L 2,0 C 0.892,0 0,0.892 0,2 l 0,12 z m 0.96875,0 0,-12 C 0.96875,1.416801 1.4168007,0.96875 2,0.96875 l 12,0 c 0.583199,0 1.03125,0.448051 1.03125,1.03125 l 0,12 c 0,0.583199 -0.448051,1.03125 -1.03125,1.03125 l -12,0 C 1.4168007,15.03125 0.96875,14.583199 0.96875,14 z" opacity=".4"/><path id="path2843" fill="#fff" fill-opacity="1" fill-rule="nonzero" stroke="none" d="M 2 0.96875 C 1.4168007 0.96875 0.96875 1.4168007 0.96875 2 L 0.96875 3 C 0.96875 2.4168007 1.4168007 1.96875 2 1.96875 L 14 1.96875 C 14.583199 1.96875 15.03125 2.4168007 15.03125 3 L 15.03125 2 C 15.03125 1.4168007 14.583199 0.96875 14 0.96875 L 2 0.96875 z" opacity=".5"/><path id="path5825" fill="#848260" fill-opacity="1" fill-rule="evenodd" stroke="none" d="m 96.196504,32.053356 a 8.0982523,8.2454147 0 1 1 -16.196505,0 8.0982523,8.2454147 0 1 1 16.196505,0 z" display="inline" transform="matrix(0.16235874,-0.04348344,0.04272742,0.159386,-10.187109,10.042584)"/><path id="path5829" fill="#0058e9" fill-opacity="1" fill-rule="evenodd" stroke="none" d="m 96.196504,32.053356 a 8.0982523,8.2454147 0 1 1 -16.196505,0 8.0982523,8.2454147 0 1 1 16.196505,0 z" display="inline" transform="matrix(0.12176901,-0.03261257,0.03204558,0.11953959,-6.268836,10.362092)"/><path id="path5805" fill="#848260" fill-opacity="1" fill-rule="evenodd" stroke="none" d="m 96.196504,32.053356 a 8.0982523,8.2454147 0 1 1 -16.196505,0 8.0982523,8.2454147 0 1 1 16.196505,0 z" display="inline" transform="matrix(0.16235874,-0.04348344,0.04272743,0.159386,-6.792927,8.70916)"/><path id="path5809" fill="#e51c01" fill-opacity="1" fill-rule="evenodd" stroke="none" d="m 96.196504,32.053356 a 8.0982523,8.2454147 0 1 1 -16.196505,0 8.0982523,8.2454147 0 1 1 16.196505,0 z" display="inline" transform="matrix(0.12176901,-0.03261257,0.03204556,0.11953952,-2.8746521,9.0286681)"/><path id="path5785" fill="#848260" fill-opacity="1" fill-rule="evenodd" stroke="none" d="m 96.196504,32.053356 a 8.0982523,8.2454147 0 1 1 -16.196505,0 8.0982523,8.2454147 0 1 1 16.196505,0 z" display="inline" opacity=".9" transform="matrix(0.16235874,-0.04348344,0.04272742,0.159386,-4.7485459,5.9755292)"/><path id="path5789" fill="#05ac00" fill-opacity="1" fill-rule="evenodd" stroke="none" d="m 96.196504,32.053356 a 8.0982523,8.2454147 0 1 1 -16.196505,0 8.0982523,8.2454147 0 1 1 16.196505,0 z" display="inline" transform="matrix(0.12176901,-0.03261257,0.03204558,0.11953959,-0.83027247,6.2950368)"/><path id="path5754" fill="#848260" fill-opacity="1" fill-rule="evenodd" stroke="none" d="m 96.196504,32.053356 a 8.0982523,8.2454147 0 1 1 -16.196505,0 8.0982523,8.2454147 0 1 1 16.196505,0 z" display="inline" opacity=".8" transform="matrix(0.16235874,-0.04348344,0.04272743,0.159386,-4.7440067,2.5605136)"/><path id="path3245" fill="#ffb604" fill-opacity="1" fill-rule="evenodd" stroke="none" d="m 96.196504,32.053356 a 8.0982523,8.2454147 0 1 1 -16.196505,0 8.0982523,8.2454147 0 1 1 16.196505,0 z" display="inline" transform="matrix(0.12176901,-0.03261256,0.03204556,0.11953945,-0.82573301,2.880024)"/><path id="path5473" fill="#848260" fill-opacity="1" fill-rule="evenodd" stroke="none" d="m 111.93775,94.063576 a 1.9364232,1.9364232 0 1 1 -3.87285,0 1.9364232,1.9364232 0 1 1 3.87285,0 z" display="inline" transform="matrix(0.17577282,0,0,0.17569018,-5.3424579,-4.8626487)"/><g id="g6014" display="inline" transform="matrix(0.13575708,0,0,0.13569326,-1.3055214,-1.1627555)"><path id="path6004" fill="#848260" fill-opacity="1" fill-rule="evenodd" stroke="none" d="m 76,101.96875 c -3.310589,0 -6.03125,2.72066 -6.03125,6.03125 0,3.31059 2.720661,6.03125 6.03125,6.03125 l 8,0 c 3.310589,0 6.03125,-2.72066 6.03125,-6.03125 0,-3.31059 -2.720661,-6.03125 -6.03125,-6.03125 l -8,0 z"/><rect id="rect3247" width="16" height="8" x="72" y="104" fill="url(#linearGradient3640)" fill-opacity="1" fill-rule="evenodd" stroke="none" rx="4" ry="4"/><rect id="rect5972" width="13.173" height="3.583" x="73.413" y="104.353" fill="url(#linearGradient3642)" fill-opacity="1" fill-rule="evenodd" stroke="none" opacity=".6" rx="1.792" ry="1.792"/></g><path id="path3215" fill="#e4e4d9" fill-opacity="1" fill-rule="evenodd" stroke="url(#linearGradient4218)" stroke-dasharray="none" stroke-dashoffset="0" stroke-linecap="butt" stroke-linejoin="round" stroke-miterlimit="4" stroke-opacity="1" stroke-width="3.708" d="m 64.214289,40 a 24.107145,24 0 1 1 -48.214291,0 24.107145,24 0 1 1 48.214291,0 z" display="inline" opacity=".8" transform="matrix(0,0.13452818,0.1351918,0,-0.29959358,0.10901111)"/><path id="rect3225" fill="url(#radialGradient3763)" fill-opacity="1" fill-rule="evenodd" stroke="none" stroke-dasharray="none" stroke-dashoffset="0" stroke-linecap="butt" stroke-linejoin="round" stroke-miterlimit="4" stroke-opacity="1" stroke-width=".5" d="m 4.4400703,3.0193816 c -0.1468552,0 -0.2650818,0.1181713 -0.2650818,0.2649582 l 0,1.2981627 -1.31069,0 c -0.1468552,0 -0.2650817,0.1181713 -0.2650817,0.2649582 l 0,1.3247907 c 0,0.146787 0.1182265,0.2649583 0.2650817,0.2649583 l 1.31069,0 0,1.2981627 c 0,0.1467868 0.1182266,0.2649582 0.2650818,0.2649582 l 1.3254084,0 c 0.1468553,0 0.2650817,-0.1181714 0.2650817,-0.2649582 l 0,-1.2981627 1.2987681,0 c 0.1468553,0 0.2650817,-0.1181713 0.2650817,-0.2649583 l 0,-1.3247907 c 0,-0.1467869 -0.1182264,-0.2649582 -0.2650817,-0.2649582 l -1.2987681,0 0,-1.2981627 c 0,-0.1467869 -0.1182264,-0.2649582 -0.2650817,-0.2649582 l -1.3254084,0 z" display="inline"/><path id="path6055" fill="url(#linearGradient3750)" fill-opacity="1" fill-rule="evenodd" stroke="none" d="m 43.10954,40 a 3.1095405,3.1095405 0 1 1 -6.21908,0 3.1095405,3.1095405 0 1 1 6.21908,0 z" display="inline" transform="matrix(0.16266376,0,0,0.16258796,-2.7291851,-0.99366266)"/><path id="path6065" fill="url(#linearGradient3752)" fill-opacity="1" fill-rule="evenodd" stroke="none" d="m 43.10954,40 a 3.1095405,3.1095405 0 1 1 -6.21908,0 3.1095405,3.1095405 0 1 1 6.21908,0 z" display="inline" transform="matrix(0.16266376,0,0,0.16258796,-0.07836799,-0.99366266)"/><path id="path6069" fill="url(#linearGradient3754-4)" fill-opacity="1" fill-rule="evenodd" stroke="none" d="m 43.10954,40 a 3.1095405,3.1095405 0 1 1 -6.21908,0 3.1095405,3.1095405 0 1 1 6.21908,0 z" display="inline" transform="matrix(0.16266376,0,0,0.16258796,-1.4037765,-2.3184535)"/><path id="path6073" fill="url(#linearGradient3756-9)" fill-opacity="1" fill-rule="evenodd" stroke="none" d="m 43.10954,40 a 3.1095405,3.1095405 0 1 1 -6.21908,0 3.1095405,3.1095405 0 1 1 6.21908,0 z" display="inline" transform="matrix(0.16266376,0,0,0.16258796,-1.4037765,0.33112819)"/><g id="g3644" display="inline" transform="matrix(0.13575708,0,0,0.13569326,2.0921707,-1.1627555)"><path id="path3646" fill="#848260" fill-opacity="1" fill-rule="evenodd" stroke="none" d="m 76,101.96875 c -3.310589,0 -6.03125,2.72066 -6.03125,6.03125 0,3.31059 2.720661,6.03125 6.03125,6.03125 l 8,0 c 3.310589,0 6.03125,-2.72066 6.03125,-6.03125 0,-3.31059 -2.720661,-6.03125 -6.03125,-6.03125 l -8,0 z"/><rect id="rect3648" width="16" height="8" x="72" y="104" fill="url(#linearGradient3654)" fill-opacity="1" fill-rule="evenodd" stroke="none" rx="4" ry="4"/><rect id="rect3650" width="13.173" height="3.583" x="73.413" y="104.353" fill="url(#linearGradient3656)" fill-opacity="1" fill-rule="evenodd" stroke="none" opacity=".6" rx="1.792" ry="1.792"/></g><path id="path3658" fill="#848260" fill-opacity="1" fill-rule="evenodd" stroke="none" d="m 111.93775,94.063576 a 1.9364232,1.9364232 0 1 1 -3.87285,0 1.9364232,1.9364232 0 1 1 3.87285,0 z" display="inline" transform="matrix(0.17577282,0,0,0.17569018,-6.7039412,-4.8626487)"/><path id="path3660" fill="#848260" fill-opacity="1" fill-rule="evenodd" stroke="none" d="m 111.93775,94.063576 a 1.9364232,1.9364232 0 1 1 -3.87285,0 1.9364232,1.9364232 0 1 1 3.87285,0 z" display="inline" transform="matrix(0.17577282,0,0,0.17569018,-8.0654236,-4.8626487)"/><path id="path3662" fill="#848260" fill-opacity="1" fill-rule="evenodd" stroke="none" d="m 111.93775,94.063576 a 1.9364232,1.9364232 0 1 1 -3.87285,0 1.9364232,1.9364232 0 1 1 3.87285,0 z" display="inline" transform="matrix(0.17577282,0,0,0.17569018,-5.3424586,-6.223491)"/><path id="path3664" fill="#848260" fill-opacity="1" fill-rule="evenodd" stroke="none" d="m 111.93775,94.063576 a 1.9364232,1.9364232 0 1 1 -3.87285,0 1.9364232,1.9364232 0 1 1 3.87285,0 z" display="inline" transform="matrix(0.17577282,0,0,0.17569018,-6.7039412,-6.223491)"/><path id="path3666" fill="#848260" fill-opacity="1" fill-rule="evenodd" stroke="none" d="m 111.93775,94.063576 a 1.9364232,1.9364232 0 1 1 -3.87285,0 1.9364232,1.9364232 0 1 1 3.87285,0 z" display="inline" transform="matrix(0.17577282,0,0,0.17569018,-5.3424586,-7.5843333)"/></g></svg>