<svg xmlns="http://www.w3.org/2000/svg" xmlns:svg="http://www.w3.org/2000/svg" xmlns:xlink="http://www.w3.org/1999/xlink" id="svg2" width="16" height="16" display="inline" version="1.0"><defs id="defs4"><linearGradient id="linearGradient3739"><stop id="stop3741" offset="0" stop-color="#fff" stop-opacity="1"/><stop id="stop3743" offset="1" stop-color="#fff" stop-opacity="0"/></linearGradient><linearGradient id="linearGradient3327"><stop id="stop3330" offset="0" stop-color="#000" stop-opacity="1"/><stop id="stop3333" offset="1" stop-color="#000" stop-opacity="0"/></linearGradient><linearGradient id="ButtonColor" x1="10.32" x2="10.32" y1="21" y2=".999" gradientUnits="userSpaceOnUse"><stop id="stop3189" offset="0" stop-color="#29669f" stop-opacity="1"/><stop id="stop3191" offset="1" stop-color="#88b6e0" stop-opacity="1"/></linearGradient><linearGradient id="linearGradient3192" x1="9.057" x2="9.057" y1="10.203" y2="-12.199" gradientTransform="translate(0,5.8006549)" gradientUnits="userSpaceOnUse" xlink:href="#linearGradient3327"/><linearGradient id="linearGradient3204" x1="1" x2="15" y1="9" y2="9" gradientTransform="translate(-16,-1)" gradientUnits="userSpaceOnUse" xlink:href="#linearGradient3187"/><linearGradient id="linearGradient3173" x1="1" x2="15" y1="9" y2="9" gradientTransform="translate(-16,-1)" gradientUnits="userSpaceOnUse" xlink:href="#ButtonColor"/><linearGradient id="linearGradient3177" x1="1" x2="15" y1="9" y2="9" gradientTransform="translate(-16,-1)" gradientUnits="userSpaceOnUse" xlink:href="#ButtonColor"/><linearGradient id="linearGradient3179" x1="1" x2="15" y1="9" y2="9" gradientTransform="matrix(0,-1,1,0,-1,16)" gradientUnits="userSpaceOnUse" xlink:href="#ButtonColor"/><linearGradient id="linearGradient3181" x1="-3.061" x2="-3.061" y1="27.258" y2="7.254" gradientTransform="translate(11.119372,-6.2581978)" gradientUnits="userSpaceOnUse" xlink:href="#linearGradient3187"/><linearGradient id="linearGradient3187"><stop id="stop3189-5" offset="0" stop-color="#a0a0a0" stop-opacity="1"/><stop id="stop3191-9" offset="1" stop-color="#dcdcdc" stop-opacity="1"/></linearGradient><linearGradient id="linearGradient2886" x1="-3.061" x2="-3.061" y1="27.258" y2="7.254" gradientTransform="translate(-7.8806285,-4.2581978)" gradientUnits="userSpaceOnUse" xlink:href="#linearGradient3187"/><linearGradient id="linearGradient3647" x1="29.247" x2="29.247" y1="41.248" y2="62.264" gradientTransform="translate(21.201413,-20.840989)" gradientUnits="userSpaceOnUse" xlink:href="#linearGradient3660"/><linearGradient id="linearGradient3660"><stop id="stop3668" offset="0" stop-color="#dcdcdc" stop-opacity="1"/><stop id="stop3670" offset="1" stop-color="#fff" stop-opacity="1"/></linearGradient><linearGradient id="linearGradient3649" x1="54.094" x2="53.634" y1="42.659" y2="20.779" gradientUnits="userSpaceOnUse" xlink:href="#linearGradient3633"/><linearGradient id="linearGradient3633"><stop id="stop3635" offset="0" stop-color="#000" stop-opacity=".539"/><stop id="stop3637" offset="1" stop-color="#000" stop-opacity="0"/></linearGradient><linearGradient id="linearGradient3274" x1="51.484" x2="51.484" y1="23" y2="105" gradientTransform="matrix(0.1989658,0,0,0.1811141,-1.733807,-0.5915314)" gradientUnits="userSpaceOnUse" xlink:href="#linearGradient3268"/><linearGradient id="linearGradient3268"><stop id="stop3270" offset="0" stop-color="#414141" stop-opacity="1"/><stop id="stop3272" offset="1" stop-color="#696969" stop-opacity="1"/></linearGradient><linearGradient id="linearGradient3266" x1="45.987" x2="45.987" y1="105" y2="22.99" gradientTransform="matrix(0.1989658,0,0,0.1811141,-1.733807,-0.5915314)" gradientUnits="userSpaceOnUse" xlink:href="#linearGradient3298"/><linearGradient id="linearGradient3298"><stop id="stop3300" offset="0" stop-color="#c8c8c8" stop-opacity="1"/><stop id="stop3302" offset="1" stop-color="#d9d9d9" stop-opacity="1"/></linearGradient><linearGradient id="linearGradient2920" x1="51.484" x2="51.484" y1="23" y2="105" gradientTransform="matrix(0.1989658,0,0,0.1811141,-26.733807,-0.5915309)" gradientUnits="userSpaceOnUse" xlink:href="#linearGradient3268"/><linearGradient id="linearGradient2922" x1="45.987" x2="45.987" y1="105" y2="22.99" gradientTransform="matrix(0.1989658,0,0,0.1811141,-26.733807,-0.5915309)" gradientUnits="userSpaceOnUse" xlink:href="#linearGradient3298"/><linearGradient id="linearGradient3682" x1="51.484" x2="51.484" y1="23" y2="105" gradientTransform="matrix(0.12500003,0,0,0.12499995,-5.9727579,0.0029852)" gradientUnits="userSpaceOnUse" xlink:href="#linearGradient3268"/><linearGradient id="linearGradient3686" x1="51.484" x2="51.484" y1="23" y2="105" gradientTransform="matrix(0.12500003,0,0,0.12499995,-0.9727579,0.0029852)" gradientUnits="userSpaceOnUse" xlink:href="#linearGradient3268"/><linearGradient id="linearGradient3690" x1="51.484" x2="51.484" y1="23" y2="105" gradientTransform="matrix(0.12500003,0,0,0.12499995,0.0272421,0.0029852)" gradientUnits="userSpaceOnUse" xlink:href="#linearGradient3268"/><linearGradient id="linearGradient3698" x1="29.247" x2="29.247" y1="41.248" y2="62.264" gradientTransform="translate(21.201413,-20.840989)" gradientUnits="userSpaceOnUse" xlink:href="#linearGradient3660"/><linearGradient id="linearGradient3700" x1="54.094" x2="53.634" y1="42.659" y2="20.779" gradientUnits="userSpaceOnUse" xlink:href="#linearGradient3633"/><linearGradient id="linearGradient3704" x1="29.247" x2="29.247" y1="41.248" y2="62.264" gradientTransform="matrix(0.21428572,0,0,0.22727274,-5.3571428,1.6818176)" gradientUnits="userSpaceOnUse" xlink:href="#linearGradient3660"/><linearGradient id="linearGradient3721" x1="29.247" x2="29.247" y1="41.248" y2="62.264" gradientTransform="matrix(0.21428572,0,0,0.22727274,-5.3571428,1.6818176)" gradientUnits="userSpaceOnUse" xlink:href="#linearGradient3660"/><linearGradient id="linearGradient3731" x1="29.247" x2="29.247" y1="41.248" y2="62.264" gradientTransform="matrix(0.21428572,0,0,0.22727274,-5.3571428,1.6818176)" gradientUnits="userSpaceOnUse" xlink:href="#linearGradient3660"/><linearGradient id="linearGradient3745" x1="10" x2="10" y1="14" y2="4" gradientUnits="userSpaceOnUse" xlink:href="#linearGradient3739"/><linearGradient id="linearGradient3749" x1="10" x2="10" y1="14" y2="4" gradientTransform="translate(-5,0)" gradientUnits="userSpaceOnUse" xlink:href="#linearGradient3739"/><linearGradient id="linearGradient3204-1" x1="1" x2="15" y1="9" y2="9" gradientTransform="translate(-17,-2)" gradientUnits="userSpaceOnUse" xlink:href="#ButtonColor-8"/><linearGradient id="ButtonColor-8" x1="58.65" x2="58.65" y1="122" y2="5.425" gradientTransform="matrix(1.0172414,0,0,1.0172414,-1.1034483,-1.1034483)" gradientUnits="userSpaceOnUse"><stop id="stop3401" offset="0" stop-color="#d85400" stop-opacity="1"/><stop id="stop3403" offset="1" stop-color="#ffa119" stop-opacity="1"/></linearGradient><linearGradient id="linearGradient3629" x1="0" x2="34" y1="8" y2="8" gradientTransform="matrix(0,-1,1,0,0,16)" gradientUnits="userSpaceOnUse" xlink:href="#linearGradient3327-1"/><linearGradient id="linearGradient3327-1"><stop id="stop3330-1" offset="0" stop-color="#000" stop-opacity="1"/><stop id="stop3333-7" offset="1" stop-color="#000" stop-opacity="0"/></linearGradient><linearGradient id="linearGradient2982" x1="1" x2="15" y1="9" y2="9" gradientTransform="translate(-17,-2)" gradientUnits="userSpaceOnUse" xlink:href="#linearGradient3187"/></defs><metadata id="metadata7"/><g id="layer1"><rect id="rect3196-2" width="16" height="16" x="-16" y="0" fill="url(#linearGradient2982)" fill-opacity="1" fill-rule="nonzero" stroke="none" display="inline" rx="2" ry="2" transform="matrix(0,-1,1,0,0,0)"/><path id="rect2835" fill="url(#linearGradient3629)" fill-opacity="1" fill-rule="nonzero" stroke="none" d="m 0,14 c 0,1.108 0.892,2 2,2 l 12,0 c 1.108,0 2,-0.892 2,-2 L 16,2 C 16,0.892 15.108,0 14,0 L 2,0 C 0.892,0 0,0.892 0,2 l 0,12 z m 0.96875,0 0,-12 C 0.96875,1.416801 1.416801,0.96875 2,0.96875 l 12,0 c 0.583199,0 1.03125,0.448051 1.03125,1.03125 l 0,12 c 0,0.583199 -0.448051,1.03125 -1.03125,1.03125 l -12,0 C 1.416801,15.03125 0.96875,14.583199 0.96875,14 z" display="inline" opacity=".4"/><path id="path2843" fill="#fff" fill-opacity="1" fill-rule="nonzero" stroke="none" d="M 2,0.96875 C 1.416801,0.96875 0.96875,1.4168007 0.96875,2 l 0,1 C 0.96875,2.4168007 1.416801,1.96875 2,1.96875 l 12,0 c 0.583199,0 1.03125,0.4480507 1.03125,1.03125 l 0,-1 C 15.03125,1.4168007 14.583199,0.96875 14,0.96875 l -12,0 z" display="inline" opacity=".5"/><path id="path3747" fill="url(#linearGradient3749)" fill-opacity="1" fill-rule="evenodd" stroke="none" d="m 5.000001,4 1,0 C 6.277001,4 6.5,4.1115 6.5,4.2500003 L 6.5,13.75 C 6.5,13.8885 6.277001,14 6.000001,14 l -1,0 C 4.7230006,14 4.5,13.8885 4.5,13.75 l 0,-9.4999997 C 4.5,4.1115 4.7230006,4 5.000001,4 z" display="inline" opacity=".3"/><path id="rect3250" fill="url(#linearGradient3682)" fill-opacity="1" fill-rule="evenodd" stroke="none" d="m 5.2500003,3 0.5,0 C 5.8885003,3 6,3.1115 6,3.2500003 L 6,12.75 C 6,12.8885 5.8885003,13 5.7500003,13 l -0.5,0 C 5.1115003,13 5,12.8885 5,12.75 L 5,3.2500003 C 5,3.1115 5.1115003,3 5.2500003,3 z" display="inline"/><path id="path3737" fill="url(#linearGradient3745)" fill-opacity="1" fill-rule="evenodd" stroke="none" d="m 10.000001,4 1,0 C 11.277001,4 11.5,4.1115 11.5,4.2500003 L 11.5,13.75 c 0,0.1385 -0.222999,0.25 -0.499999,0.25 l -1,0 C 9.7230006,14 9.5,13.8885 9.5,13.75 l 0,-9.4999997 C 9.5,4.1115 9.7230006,4 10.000001,4 z" display="inline" opacity=".3"/><path id="path3684" fill="url(#linearGradient3686)" fill-opacity="1" fill-rule="evenodd" stroke="none" d="m 10.25,3 0.5,0 C 10.8885,3 11,3.1115 11,3.2500003 L 11,12.75 C 11,12.8885 10.8885,13 10.75,13 l -0.5,0 C 10.1115,13 10,12.8885 10,12.75 L 10,3.2500003 C 10,3.1115 10.1115,3 10.25,3 z" display="inline"/><g id="g3716" transform="translate(4,-7)"><rect id="rect3712" width="4" height="6.5" x="-.5" y="10.5" fill="#000" fill-opacity="1" fill-rule="evenodd" stroke="none" opacity=".4" rx=".571" ry=".591"/><rect id="rect3694" width="3" height="5" x="0" y="11" fill="url(#linearGradient3721)" fill-opacity="1" fill-rule="evenodd" stroke="none" rx=".429" ry=".455"/><path id="path3696" fill="#000" fill-opacity="1" stroke="none" stroke-width="1" d="m 0,13 0,1 3,0 0,-1 -3,0 z" color="#000" direction="ltr" display="inline" enable-background="accumulate" font-family="Abandoned Bitplane" font-size="medium" font-stretch="normal" font-style="normal" font-variant="normal" font-weight="normal" letter-spacing="normal" opacity=".2" overflow="visible" text-anchor="start" text-decoration="none" visibility="visible" word-spacing="normal" writing-mode="lr-tb" style="text-indent:0;text-align:start;line-height:normal;text-transform:none;block-progression:tb;marker:none;-inkscape-font-specification:Abandoned Bitplane"/></g><g id="g3723" transform="translate(9,-5)"><rect id="rect3725" width="4" height="6.5" x="-.5" y="10.5" fill="#000" fill-opacity="1" fill-rule="evenodd" stroke="none" opacity=".4" rx=".571" ry=".591"/><rect id="rect3727" width="3" height="5" x="0" y="11" fill="url(#linearGradient3731)" fill-opacity="1" fill-rule="evenodd" stroke="none" rx=".429" ry=".455"/><path id="path3729" fill="#000" fill-opacity="1" stroke="none" stroke-width="1" d="m 0,13 0,1 3,0 0,-1 -3,0 z" color="#000" direction="ltr" display="inline" enable-background="accumulate" font-family="Abandoned Bitplane" font-size="medium" font-stretch="normal" font-style="normal" font-variant="normal" font-weight="normal" letter-spacing="normal" opacity=".2" overflow="visible" text-anchor="start" text-decoration="none" visibility="visible" word-spacing="normal" writing-mode="lr-tb" style="text-indent:0;text-align:start;line-height:normal;text-transform:none;block-progression:tb;marker:none;-inkscape-font-specification:Abandoned Bitplane"/></g></g></svg>