<svg xmlns="http://www.w3.org/2000/svg" xmlns:svg="http://www.w3.org/2000/svg" xmlns:xlink="http://www.w3.org/1999/xlink" id="svg2" width="16" height="16" display="inline" version="1.0"><defs id="defs4"><linearGradient id="linearGradient3327"><stop id="stop3330" offset="0" stop-color="#000" stop-opacity="1"/><stop id="stop3333" offset="1" stop-color="#000" stop-opacity="0"/></linearGradient><linearGradient id="ButtonColor" x1="10.32" x2="10.32" y1="21" y2=".999" gradientUnits="userSpaceOnUse"><stop id="stop3189" offset="0" stop-color="#29669f" stop-opacity="1"/><stop id="stop3191" offset="1" stop-color="#88b6e0" stop-opacity="1"/></linearGradient><linearGradient id="linearGradient3204" x1="1" x2="15" y1="9" y2="9" gradientTransform="translate(-17,-2)" gradientUnits="userSpaceOnUse" xlink:href="#linearGradient3234"/><linearGradient id="linearGradient3629" x1="0" x2="29.017" y1="8" y2="8" gradientTransform="matrix(0,-1,1,0,0,16)" gradientUnits="userSpaceOnUse" xlink:href="#linearGradient3327"/><linearGradient id="linearGradient3765" x1="383.289" x2="383.289" y1="0" y2="218.48" gradientTransform="matrix(0.09341072,0,0,0.04108075,-26.756456,8.0246654)" gradientUnits="userSpaceOnUse" xlink:href="#SVGID_1_-4"/><linearGradient id="SVGID_1_-4" x1="383.289" x2="383.289" y1="0" y2="218.48" gradientUnits="userSpaceOnUse"><stop id="stop3143-2" offset=".006" stop-color="#ED2828"/><stop id="stop3145-1" offset=".5" stop-color="#EF3B39"/><stop id="stop3147-3" offset=".994" stop-color="#C02126"/></linearGradient><linearGradient id="linearGradient3749-5" x1="175.308" x2="175.308" y1="73.254" y2="180.675" gradientUnits="userSpaceOnUse"><stop id="stop3751-8" offset="0" stop-color="#000" stop-opacity="1"/><stop id="stop3753-7" offset=".994" stop-color="#000" stop-opacity=".473"/></linearGradient><linearGradient id="linearGradient3754" x1="175.308" x2="175.308" y1="73.254" y2="180.675" gradientTransform="matrix(0.04164302,0,0,0.03408859,1.9444673,0.78644322)" gradientUnits="userSpaceOnUse" xlink:href="#linearGradient3749-5"/><linearGradient id="linearGradient3756" x1="175.308" x2="175.308" y1="73.254" y2="180.675" gradientTransform="matrix(0.04998763,0,0,0.03408859,2.4795353,0.78644322)" gradientUnits="userSpaceOnUse" xlink:href="#linearGradient3749-5"/><linearGradient id="linearGradient3809" x1="175.308" x2="175.308" y1="73.254" y2="180.675" gradientTransform="matrix(0.04859283,0,0,0.03408859,3.115962,0.78644322)" gradientUnits="userSpaceOnUse" xlink:href="#linearGradient3749-5"/><linearGradient id="linearGradient4163" x1="6" x2="90" y1="48" y2="48" gradientTransform="translate(-96,0)" gradientUnits="userSpaceOnUse" xlink:href="#linearGradient3696"/><linearGradient id="linearGradient3696"><stop id="stop3698" offset="0" stop-color="#2458a6" stop-opacity="1"/><stop id="stop3700" offset="1" stop-color="#598ad4" stop-opacity="1"/></linearGradient><linearGradient id="linearGradient3738" x1="6" x2="90" y1="48" y2="48" gradientTransform="translate(-52.867199,-57.252856)" gradientUnits="userSpaceOnUse" xlink:href="#linearGradient3696"/><linearGradient id="linearGradient4113" x1="22.111" x2="40" y1="62.984" y2="32" gradientTransform="matrix(0.19388162,0,0,0.19388162,-1.4007219,-1.9461429)" gradientUnits="userSpaceOnUse" xlink:href="#linearGradient4099"/><linearGradient id="linearGradient4099"><stop id="stop4101" offset="0" stop-color="#9ede27" stop-opacity="1"/><stop id="stop4103" offset="1" stop-color="#c8f16b" stop-opacity="1"/></linearGradient><linearGradient id="linearGradient4105" x1="38" x2="70" y1="74" y2="49" gradientTransform="matrix(0.19388162,0,0,0.19388162,-1.5256152,-1.9461429)" gradientUnits="userSpaceOnUse" xlink:href="#linearGradient4099"/><linearGradient id="linearGradient3712"><stop id="stop3714" offset="0" stop-color="#9ede27" stop-opacity="1"/><stop id="stop3716" offset="1" stop-color="#c8f16b" stop-opacity="1"/></linearGradient><linearGradient id="linearGradient3746" x1="56.037" x2="56.037" y1="49.333" y2="13.593" gradientTransform="matrix(0.26518093,0,0,0.26518093,-0.34872536,-3.7081516)" gradientUnits="userSpaceOnUse" xlink:href="#linearGradient3799-3"/><linearGradient id="linearGradient3799-3"><stop id="stop3801-3" offset="0" stop-color="#1a1a1a" stop-opacity="1"/><stop id="stop3803-2" offset="1" stop-color="#000" stop-opacity="1"/></linearGradient><linearGradient id="linearGradient3726" x1="56.037" x2="56.037" y1="49.333" y2="13.593" gradientTransform="matrix(0.19388162,0,0,0.19388162,-1.3401963,-1.8843368)" gradientUnits="userSpaceOnUse" xlink:href="#linearGradient3799-3"/><radialGradient id="radialGradient3758" cx="49.581" cy="67.041" r="10" fx="49.581" fy="67.041" gradientTransform="matrix(1.0456205,0.08243661,-0.05194947,0.90987799,0.84943041,1.3399685)" gradientUnits="userSpaceOnUse" xlink:href="#linearGradient3784-2"/><linearGradient id="linearGradient3784-2"><stop id="stop3786-4" offset="0" stop-color="#a0a0a0" stop-opacity="1"/><stop id="stop3790-2" offset="1" stop-color="#1a1a1a" stop-opacity="1"/></linearGradient><radialGradient id="radialGradient3745" cx="49.581" cy="67.041" r="10" fx="49.581" fy="67.041" gradientTransform="matrix(1.0456205,0.08243661,-0.05194947,0.90987799,0.84943041,1.3399685)" gradientUnits="userSpaceOnUse" xlink:href="#linearGradient3784-2"/><radialGradient id="radialGradient3698" cx="10.117" cy="6.534" r="2.649" fx="10.117" fy="6.534" gradientTransform="matrix(0.60548597,-0.18291744,0.13322228,0.44098703,0.81853832,7.6996387)" gradientUnits="userSpaceOnUse" xlink:href="#linearGradient3784-2"/><filter id="filter4007" color-interpolation-filters="sRGB"><feGaussianBlur id="feGaussianBlur4009" stdDeviation=".634"/></filter><linearGradient id="linearGradient3950" x1="80.875" x2="82.574" y1="82.615" y2="84.938" gradientUnits="userSpaceOnUse" xlink:href="#linearGradient3298"/><linearGradient id="linearGradient3298"><stop id="stop3300" offset="0" stop-color="#f9f9f9" stop-opacity="1"/><stop id="stop3302" offset="1" stop-color="#3c3c3c" stop-opacity="1"/></linearGradient><radialGradient id="radialGradient3962" cx="56.055" cy="55.979" r="52.252" fx="56.055" fy="55.979" gradientTransform="matrix(0.12470968,-0.12470968,0.07938494,0.07938494,-3.9405929,9.6708054)" gradientUnits="userSpaceOnUse" xlink:href="#linearGradient7450"/><linearGradient id="linearGradient7450"><stop id="stop7452" offset="0" stop-color="#e3e3e3" stop-opacity="1"/><stop id="stop7454" offset="1" stop-color="#939393" stop-opacity="1"/></linearGradient><filter id="filter3984" color-interpolation-filters="sRGB"><feGaussianBlur id="feGaussianBlur3986" stdDeviation=".36"/></filter><linearGradient id="linearGradient3240" x1="60.777" x2="60.777" y1="115.279" y2="8.551" gradientTransform="matrix(0.1715152,0,0,0.1709396,0.060606,-0.068188)" gradientUnits="userSpaceOnUse" xlink:href="#linearGradient3234"/><linearGradient id="linearGradient3234"><stop id="stop3236" offset="0" stop-color="#232323" stop-opacity="1"/><stop id="stop3238" offset="1" stop-color="#4b4b4b" stop-opacity="1"/></linearGradient><linearGradient id="linearGradient2936" x1="60.777" x2="60.777" y1="115.279" y2="8.551" gradientTransform="matrix(0.1715152,0,0,0.1709396,-13.082846,-17.697416)" gradientUnits="userSpaceOnUse" xlink:href="#linearGradient3234"/><linearGradient id="linearGradient3235" x1="5.919" x2="5.919" y1="25.127" y2="5.112" gradientTransform="translate(3.9593642,-4.1272096)" gradientUnits="userSpaceOnUse" xlink:href="#linearGradient3187"/><linearGradient id="linearGradient3187"><stop id="stop3189-3" offset="0" stop-color="#656565" stop-opacity="1"/><stop id="stop3191-8" offset="1" stop-color="#dcdcdc" stop-opacity="1"/></linearGradient><linearGradient id="linearGradient2955" x1="5.919" x2="5.919" y1="25.127" y2="9.223" gradientTransform="translate(2.959364,-9.12721)" gradientUnits="userSpaceOnUse" xlink:href="#linearGradient3187"/></defs><metadata id="metadata7"/><g id="layer1"><rect id="rect3196" width="16" height="16" x="-16" y="0" fill="url(#linearGradient3204)" fill-opacity="1" fill-rule="nonzero" stroke="none" rx="2" ry="2" transform="matrix(0,-1,1,0,0,0)"/><path id="path6159" fill="url(#radialGradient3962)" fill-opacity="1" stroke="none" d="m 11.028095,3.9494908 -0.221062,0.5526559 -0.0829,0.4144919 0.02763,0.138164 L 10.143846,5.137701 10.116213,4.999537 9.9504163,4.6126779 9.5635571,4.1429203 9.2043308,4.2534515 9.1214324,4.8337402 9.1490652,5.2482322 9.2043308,5.3863962 8.6516749,5.6350913 8.5964093,5.4969273 8.3200813,5.1653338 7.8503238,4.8061074 7.5187302,4.999537 7.5739958,5.6074585 7.7397926,5.9666849 7.822691,6.1048489 7.3253006,6.4640752 7.2424023,6.353544 6.9108086,6.1324817 6.3581527,5.8837865 6.0818247,6.1601144 6.3028871,6.7404032 6.5239495,7.0443639 6.6621134,7.1548951 6.2752543,7.624653 6.1647231,7.5417546 5.777864,7.4035903 5.1699425,7.3206919 4.9765129,7.6799186 5.3357392,8.1496761 5.6673328,8.3983713 5.8054968,8.4812697 5.5568016,9.0339256 5.4186376,8.97866 5.0317785,8.9510272 4.423857,9.0339256 4.3133258,9.393152 l 0.4973903,0.3868591 0.3592264,0.1657968 0.1381639,0.027633 -0.055266,0.5802883 -0.1657967,0 -0.3868592,0.05527 -0.5802887,0.248695 0,0.386859 0.5802887,0.221063 0.3868592,0.0829 0.1657967,-0.02763 0.055266,0.607922 -0.1381639,0.02763 -0.3592264,0.165796 -0.4973903,0.359227 0.1105312,0.386859 0.6079215,0.0829 0.3868591,-0.02763 0.138164,-0.05527 0.2486952,0.552656 -0.138164,0.05527 -0.3315936,0.276328 -0.3592263,0.469758 0.1934296,0.331593 0.6079215,-0.0829 0.3868591,-0.138164 0.1105312,-0.0829 0.3868591,0.49739 -0.1381639,0.0829 -0.2210624,0.331594 -0.2210624,0.552656 0.027633,0.02763 0.8289839,0 0.3039609,-0.221063 0.082898,-0.110531 0.414492,0.331594 2.2935224,0 C 8.6951287,15.61588 7.5657917,14.749338 6.8831758,13.593337 L 9.038534,12.626189 c 0.4597231,0.638558 1.18286,1.057128 2.017194,1.105312 l 0.303961,2.210624 1.050046,0 -0.331593,-2.348788 c 0.751793,-0.25497 1.370218,-0.839001 1.657967,-1.575069 l 2.238257,0.414492 0,-1.050047 -2.07246,-0.359226 C 13.891896,10.183266 13.492217,9.4375351 12.879493,8.9510272 l 1.105312,-2.1277256 c 0.906656,0.5940697 1.614807,1.4799103 1.989561,2.5145848 l 0,-1.9619289 -0.19343,-0.2210624 0.138164,-0.1105312 0.05527,-0.082898 0,-1.0224134 -0.442125,0.1934296 -0.331593,0.2210623 -0.0829,0.1105312 -0.49739,-0.3592263 0.110531,-0.138164 0.138164,-0.3592264 0.0829,-0.6079215 -0.359226,-0.1934296 -0.469757,0.3592264 -0.248696,0.3315935 -0.0829,0.138164 -0.552656,-0.2486951 0.05527,-0.138164 0.02763,-0.414492 -0.0829,-0.5802887 -0.359226,-0.1105312 -0.386859,0.4697576 -0.165797,0.3868591 -0.02763,0.138164 -0.580289,-0.082898 0,-0.138164 -0.05527,-0.4144919 -0.248696,-0.5526559 -0.386859,0 z m 1.38164,11.9926342 1.906663,0 c 0.168655,0 0.316529,-0.03693 0.469758,-0.0829 l 0.331593,-0.248695 0.05527,0.0829 c 0.27476,-0.169691 0.498231,-0.424062 0.635554,-0.718453 l -0.02763,-0.02763 0.0829,-0.110531 c 0.06388,-0.176709 0.110531,-0.353471 0.110531,-0.552656 l 0,-1.602702 c -0.555028,1.617399 -1.883709,2.856029 -3.564631,3.26067 z m -1.18821,-9.9478073 c 0.651899,1e-7 1.279349,0.1339092 1.851397,0.3592263 L 11.96761,8.4536369 c -0.240034,-0.070315 -0.483412,-0.1105312 -0.746085,-0.1105312 -0.520838,0 -0.997238,0.1578394 -1.4092727,0.4144919 L 8.1819173,7.0167311 C 9.027495,6.3782377 10.081186,5.9943177 11.221525,5.9943177 z M 7.4358318,7.7075514 9.038534,9.4484175 C 8.7139145,9.8928378 8.5411437,10.459021 8.5411437,11.05112 c 0,0.218584 0.00601,0.432049 0.055266,0.635554 L 6.4410511,12.681455 C 6.2668662,12.170698 6.1647231,11.620457 6.1647231,11.05112 6.1647233,9.7768154 6.655353,8.5956535 7.4358318,7.7075514 z M 6.1923559,0.02563369 C 6.1315487,1.1957464 5.6727394,2.3624321 4.7830833,3.2586708 3.5041918,4.5470246 1.6993272,4.9502267 0.05787516,4.5297795 l 0,1.9066629 0.0276328,-0.055266 0.0276328,-0.1657968 0.66318711,0.082898 0,0.1657968 0.0552656,0.4421247 0.27632794,0.6079219 0.414492,0 L 1.7711085,6.9061999 1.8540069,6.4640752 1.8263741,6.2982784 2.4895612,6.21538 2.517194,6.3811768 2.7106236,6.768036 3.0974827,7.2930591 3.5119747,7.1825279 3.5948731,6.5193408 3.5672403,6.0772161 3.5119747,5.9390521 4.1198962,5.6627241 4.1751618,5.8285209 4.4514898,6.1601144 4.9765129,6.5469736 5.363372,6.353544 5.2804736,5.6903569 5.1146769,5.275865 5.0041457,5.137701 5.5291688,4.7508418 5.6397,4.861373 5.9989263,5.1100682 6.6068479,5.3587634 6.9108086,5.0548026 6.6621134,4.4745139 6.4134183,4.0876547 6.2752543,4.0047563 6.6897462,3.4797332 6.8279102,3.5626316 7.2424023,3.7284284 7.8779566,3.8113268 8.0990189,3.4244676 7.684527,2.8994445 7.3529334,2.6231165 7.2147695,2.5678509 7.4634646,1.9599294 7.6016286,1.9875622 8.0437533,2.0428278 8.7069405,1.9599294 8.8174716,1.5454375 8.2924485,1.1309455 7.8779566,0.96514876 7.7121598,0.93751597 l 0.082898,-0.66318711 0.1657968,0 0.4421247,-0.0552656 0.4697575,-0.19342958 -2.6803813,0 z" display="inline"/><path id="path7458" fill="#b8b8b8" fill-opacity="1" fill-rule="nonzero" stroke="url(#linearGradient3950)" stroke-dasharray="none" stroke-dashoffset="0" stroke-linecap="butt" stroke-linejoin="round" stroke-miterlimit="4" stroke-opacity="1" stroke-width=".904" d="m 83.038866,84.007065 a 1.2367492,1.2367492 0 1 1 -2.473499,0 1.2367492,1.2367492 0 1 1 2.473499,0 z" display="inline" transform="matrix(1.1061234,0,0,1.1061234,-79.260481,-81.87553)"/><rect id="rect3960" width="11.982" height="12.017" x="2.003" y="1.98" fill="none" fill-opacity="1" fill-rule="nonzero" stroke="#000" stroke-dasharray="none" stroke-dashoffset="8.6" stroke-linecap="round" stroke-linejoin="miter" stroke-miterlimit="4" stroke-opacity="1" stroke-width="2" color="#000" display="inline" enable-background="accumulate" opacity=".35" overflow="visible" rx="2" ry="2" visibility="visible" style="marker:none"/><path id="rect3226" fill="url(#linearGradient2955)" fill-opacity="1" fill-rule="evenodd" stroke="none" d="m 2,-4e-7 c -1.108,0 -2,0.892 -2,2 L 0,14 c 0,1.108 0.892,2 2,2 l 12,0 c 1.108,0 2,-0.892 2,-2 L 16,1.9999996 c 0,-1.108 -0.892,-2 -2,-2 l -12,0 z m 1.5,2 9,0 c 0.831,0 1.5,0.669 1.5,1.5 L 14,12.5 c 0,0.831 -0.669,1.5 -1.5,1.5 l -9,0 C 2.669,14 2,13.331 2,12.5 L 2,3.4999996 c 0,-0.831 0.669,-1.5 1.5,-1.5 z" display="inline"/><path id="rect2835" fill="url(#linearGradient3629)" fill-opacity="1" fill-rule="nonzero" stroke="none" d="m 0,14 c 0,1.108 0.892,2 2,2 l 12,0 c 1.108,0 2,-0.892 2,-2 L 16,2 C 16,0.892 15.108,0 14,0 L 2,0 C 0.892,0 0,0.892 0,2 l 0,12 z m 0.96875,0 0,-12 C 0.96875,1.416801 1.4168007,0.96875 2,0.96875 l 12,0 c 0.583199,0 1.03125,0.448051 1.03125,1.03125 l 0,12 c 0,0.583199 -0.448051,1.03125 -1.03125,1.03125 l -12,0 C 1.4168007,15.03125 0.96875,14.583199 0.96875,14 z" opacity=".4"/><path id="path2843" fill="#fff" fill-opacity="1" fill-rule="nonzero" stroke="none" d="M 2,0.96875 C 1.4168007,0.96875 0.96875,1.4168007 0.96875,2 l 0,1 C 0.96875,2.4168007 1.4168007,1.96875 2,1.96875 l 12,0 c 0.583199,0 1.03125,0.4480507 1.03125,1.03125 l 0,-1 C 15.03125,1.4168007 14.583199,0.96875 14,0.96875 l -12,0 z" opacity=".45"/></g></svg>